M48
;DRILL file {kicad (after 2015-mar-04 BZR unknown)-product} date Fri 03 Jul 2015 12:32:53 AM EDT
;FORMAT={2:4/ absolute / inch / suppress leading zeros}
FMAT,2
INCH,TZ
T1C0.016
T2C0.031
T3C0.039
T4C0.040
T5C0.047
T6C0.091
T7C0.106
%
G90
G05
M72
T1
X42050Y-23700
X42207Y-40493
X42550Y-37775
X42650Y-33850
X43500Y-31800
X43600Y-32900
X44200Y-40350
X44550Y-31675
X44550Y-36150
X45050Y-39500
X45500Y-41600
X45625Y-39550
X45950Y-27300
X46300Y-42000
X46425Y-24350
X46425Y-32300
X46950Y-38625
X47700Y-43900
X47850Y-25700
X47900Y-37600
X48200Y-30100
X48851Y-41876
X49000Y-38700
X49200Y-42800
X49200Y-43475
X49850Y-26500
X50750Y-31450
X50800Y-29150
X51075Y-39375
X52500Y-44700
X53650Y-31450
X54975Y-31750
X55375Y-32275
X55775Y-25550
X56750Y-28550
X57400Y-29100
X57600Y-31300
X59000Y-37900
X60075Y-31100
X62100Y-33400
X62150Y-34075
X62800Y-39100
X63925Y-33400
X64275Y-35025
X64500Y-29425
X64550Y-31850
X64550Y-33175
X64650Y-39700
X64700Y-34450
X64875Y-29975
X65172Y-31848
X65600Y-29475
X65775Y-30725
X65900Y-41000
X67350Y-28175
X67550Y-39850
X67700Y-33900
X68800Y-31250
X69150Y-23500
X69150Y-24850
X70300Y-36350
T2
X52656Y-26100
X53444Y-26100
X59406Y-25800
X60194Y-25800
T3
X55775Y-41200
X55775Y-42200
X55775Y-43000
X55775Y-44000
T4
X52350Y-33850
X53350Y-33850
X59000Y-33575
X59000Y-34575
X68100Y-37450
X68100Y-38450
X69100Y-37450
X69100Y-38450
X70100Y-37450
X70100Y-38450
T5
X42750Y-35261
X42750Y-36639
T6
X56825Y-40000
X56825Y-45400
T7
X40750Y-22250
X40750Y-45250
X71750Y-22250
X71750Y-45250
T0
M30
