G04 #@! TF.FileFunction,Legend,Bot*
%FSLAX46Y46*%
G04 Gerber Fmt 4.6, Leading zero omitted, Abs format (unit mm)*
G04 Created by KiCad (PCBNEW (after 2015-mar-04 BZR unknown)-product) date Fri 03 Jul 2015 12:32:40 AM EDT*
%MOMM*%
G01*
G04 APERTURE LIST*
%ADD10C,0.100000*%
%ADD11C,0.300000*%
%ADD12C,0.150000*%
G04 APERTURE END LIST*
D10*
D11*
X174394857Y-101809571D02*
X174394857Y-100309571D01*
X173894857Y-101381000D01*
X173394857Y-100309571D01*
X173394857Y-101809571D01*
X172037714Y-101809571D02*
X172037714Y-101023857D01*
X172109143Y-100881000D01*
X172252000Y-100809571D01*
X172537714Y-100809571D01*
X172680571Y-100881000D01*
X172037714Y-101738143D02*
X172180571Y-101809571D01*
X172537714Y-101809571D01*
X172680571Y-101738143D01*
X172752000Y-101595286D01*
X172752000Y-101452429D01*
X172680571Y-101309571D01*
X172537714Y-101238143D01*
X172180571Y-101238143D01*
X172037714Y-101166714D01*
X171323428Y-101809571D02*
X171323428Y-100809571D01*
X171323428Y-100309571D02*
X171394857Y-100381000D01*
X171323428Y-100452429D01*
X171252000Y-100381000D01*
X171323428Y-100309571D01*
X171323428Y-100452429D01*
X170609142Y-100809571D02*
X170609142Y-101809571D01*
X170609142Y-100952429D02*
X170537714Y-100881000D01*
X170394856Y-100809571D01*
X170180571Y-100809571D01*
X170037714Y-100881000D01*
X169966285Y-101023857D01*
X169966285Y-101809571D01*
X168180571Y-101738143D02*
X167966285Y-101809571D01*
X167609142Y-101809571D01*
X167466285Y-101738143D01*
X167394856Y-101666714D01*
X167323428Y-101523857D01*
X167323428Y-101381000D01*
X167394856Y-101238143D01*
X167466285Y-101166714D01*
X167609142Y-101095286D01*
X167894856Y-101023857D01*
X168037714Y-100952429D01*
X168109142Y-100881000D01*
X168180571Y-100738143D01*
X168180571Y-100595286D01*
X168109142Y-100452429D01*
X168037714Y-100381000D01*
X167894856Y-100309571D01*
X167537714Y-100309571D01*
X167323428Y-100381000D01*
X166109143Y-101738143D02*
X166252000Y-101809571D01*
X166537714Y-101809571D01*
X166680571Y-101738143D01*
X166752000Y-101595286D01*
X166752000Y-101023857D01*
X166680571Y-100881000D01*
X166537714Y-100809571D01*
X166252000Y-100809571D01*
X166109143Y-100881000D01*
X166037714Y-101023857D01*
X166037714Y-101166714D01*
X166752000Y-101309571D01*
X165394857Y-100809571D02*
X165394857Y-101809571D01*
X165394857Y-100952429D02*
X165323429Y-100881000D01*
X165180571Y-100809571D01*
X164966286Y-100809571D01*
X164823429Y-100881000D01*
X164752000Y-101023857D01*
X164752000Y-101809571D01*
X164109143Y-101738143D02*
X163966286Y-101809571D01*
X163680571Y-101809571D01*
X163537714Y-101738143D01*
X163466286Y-101595286D01*
X163466286Y-101523857D01*
X163537714Y-101381000D01*
X163680571Y-101309571D01*
X163894857Y-101309571D01*
X164037714Y-101238143D01*
X164109143Y-101095286D01*
X164109143Y-101023857D01*
X164037714Y-100881000D01*
X163894857Y-100809571D01*
X163680571Y-100809571D01*
X163537714Y-100881000D01*
X162609142Y-101809571D02*
X162752000Y-101738143D01*
X162823428Y-101666714D01*
X162894857Y-101523857D01*
X162894857Y-101095286D01*
X162823428Y-100952429D01*
X162752000Y-100881000D01*
X162609142Y-100809571D01*
X162394857Y-100809571D01*
X162252000Y-100881000D01*
X162180571Y-100952429D01*
X162109142Y-101095286D01*
X162109142Y-101523857D01*
X162180571Y-101666714D01*
X162252000Y-101738143D01*
X162394857Y-101809571D01*
X162609142Y-101809571D01*
X161466285Y-101809571D02*
X161466285Y-100809571D01*
X161466285Y-101095286D02*
X161394857Y-100952429D01*
X161323428Y-100881000D01*
X161180571Y-100809571D01*
X161037714Y-100809571D01*
X159466286Y-100238143D02*
X160752000Y-102166714D01*
X158109142Y-101666714D02*
X158180571Y-101738143D01*
X158394857Y-101809571D01*
X158537714Y-101809571D01*
X158751999Y-101738143D01*
X158894857Y-101595286D01*
X158966285Y-101452429D01*
X159037714Y-101166714D01*
X159037714Y-100952429D01*
X158966285Y-100666714D01*
X158894857Y-100523857D01*
X158751999Y-100381000D01*
X158537714Y-100309571D01*
X158394857Y-100309571D01*
X158180571Y-100381000D01*
X158109142Y-100452429D01*
X157466285Y-101809571D02*
X157466285Y-100309571D01*
X156823428Y-101809571D02*
X156823428Y-101023857D01*
X156894857Y-100881000D01*
X157037714Y-100809571D01*
X157251999Y-100809571D01*
X157394857Y-100881000D01*
X157466285Y-100952429D01*
X155466285Y-101809571D02*
X155466285Y-101023857D01*
X155537714Y-100881000D01*
X155680571Y-100809571D01*
X155966285Y-100809571D01*
X156109142Y-100881000D01*
X155466285Y-101738143D02*
X155609142Y-101809571D01*
X155966285Y-101809571D01*
X156109142Y-101738143D01*
X156180571Y-101595286D01*
X156180571Y-101452429D01*
X156109142Y-101309571D01*
X155966285Y-101238143D01*
X155609142Y-101238143D01*
X155466285Y-101166714D01*
X154751999Y-101809571D02*
X154751999Y-100809571D01*
X154751999Y-101095286D02*
X154680571Y-100952429D01*
X154609142Y-100881000D01*
X154466285Y-100809571D01*
X154323428Y-100809571D01*
X153180571Y-100809571D02*
X153180571Y-102023857D01*
X153252000Y-102166714D01*
X153323428Y-102238143D01*
X153466285Y-102309571D01*
X153680571Y-102309571D01*
X153823428Y-102238143D01*
X153180571Y-101738143D02*
X153323428Y-101809571D01*
X153609142Y-101809571D01*
X153752000Y-101738143D01*
X153823428Y-101666714D01*
X153894857Y-101523857D01*
X153894857Y-101095286D01*
X153823428Y-100952429D01*
X153752000Y-100881000D01*
X153609142Y-100809571D01*
X153323428Y-100809571D01*
X153180571Y-100881000D01*
X152466285Y-101809571D02*
X152466285Y-100809571D01*
X152466285Y-100309571D02*
X152537714Y-100381000D01*
X152466285Y-100452429D01*
X152394857Y-100381000D01*
X152466285Y-100309571D01*
X152466285Y-100452429D01*
X151751999Y-100809571D02*
X151751999Y-101809571D01*
X151751999Y-100952429D02*
X151680571Y-100881000D01*
X151537713Y-100809571D01*
X151323428Y-100809571D01*
X151180571Y-100881000D01*
X151109142Y-101023857D01*
X151109142Y-101809571D01*
X149751999Y-100809571D02*
X149751999Y-102023857D01*
X149823428Y-102166714D01*
X149894856Y-102238143D01*
X150037713Y-102309571D01*
X150251999Y-102309571D01*
X150394856Y-102238143D01*
X149751999Y-101738143D02*
X149894856Y-101809571D01*
X150180570Y-101809571D01*
X150323428Y-101738143D01*
X150394856Y-101666714D01*
X150466285Y-101523857D01*
X150466285Y-101095286D01*
X150394856Y-100952429D01*
X150323428Y-100881000D01*
X150180570Y-100809571D01*
X149894856Y-100809571D01*
X149751999Y-100881000D01*
X173894857Y-103423857D02*
X173680571Y-103495286D01*
X173609143Y-103566714D01*
X173537714Y-103709571D01*
X173537714Y-103923857D01*
X173609143Y-104066714D01*
X173680571Y-104138143D01*
X173823429Y-104209571D01*
X174394857Y-104209571D01*
X174394857Y-102709571D01*
X173894857Y-102709571D01*
X173752000Y-102781000D01*
X173680571Y-102852429D01*
X173609143Y-102995286D01*
X173609143Y-103138143D01*
X173680571Y-103281000D01*
X173752000Y-103352429D01*
X173894857Y-103423857D01*
X174394857Y-103423857D01*
X172680571Y-104209571D02*
X172823429Y-104138143D01*
X172894857Y-104066714D01*
X172966286Y-103923857D01*
X172966286Y-103495286D01*
X172894857Y-103352429D01*
X172823429Y-103281000D01*
X172680571Y-103209571D01*
X172466286Y-103209571D01*
X172323429Y-103281000D01*
X172252000Y-103352429D01*
X172180571Y-103495286D01*
X172180571Y-103923857D01*
X172252000Y-104066714D01*
X172323429Y-104138143D01*
X172466286Y-104209571D01*
X172680571Y-104209571D01*
X170894857Y-104209571D02*
X170894857Y-103423857D01*
X170966286Y-103281000D01*
X171109143Y-103209571D01*
X171394857Y-103209571D01*
X171537714Y-103281000D01*
X170894857Y-104138143D02*
X171037714Y-104209571D01*
X171394857Y-104209571D01*
X171537714Y-104138143D01*
X171609143Y-103995286D01*
X171609143Y-103852429D01*
X171537714Y-103709571D01*
X171394857Y-103638143D01*
X171037714Y-103638143D01*
X170894857Y-103566714D01*
X170180571Y-104209571D02*
X170180571Y-103209571D01*
X170180571Y-103495286D02*
X170109143Y-103352429D01*
X170037714Y-103281000D01*
X169894857Y-103209571D01*
X169752000Y-103209571D01*
X168609143Y-104209571D02*
X168609143Y-102709571D01*
X168609143Y-104138143D02*
X168752000Y-104209571D01*
X169037714Y-104209571D01*
X169180572Y-104138143D01*
X169252000Y-104066714D01*
X169323429Y-103923857D01*
X169323429Y-103495286D01*
X169252000Y-103352429D01*
X169180572Y-103281000D01*
X169037714Y-103209571D01*
X168752000Y-103209571D01*
X168609143Y-103281000D01*
X173537714Y-106609571D02*
X174037714Y-105895286D01*
X174394857Y-106609571D02*
X174394857Y-105109571D01*
X173823429Y-105109571D01*
X173680571Y-105181000D01*
X173609143Y-105252429D01*
X173537714Y-105395286D01*
X173537714Y-105609571D01*
X173609143Y-105752429D01*
X173680571Y-105823857D01*
X173823429Y-105895286D01*
X174394857Y-105895286D01*
X172323429Y-106538143D02*
X172466286Y-106609571D01*
X172752000Y-106609571D01*
X172894857Y-106538143D01*
X172966286Y-106395286D01*
X172966286Y-105823857D01*
X172894857Y-105681000D01*
X172752000Y-105609571D01*
X172466286Y-105609571D01*
X172323429Y-105681000D01*
X172252000Y-105823857D01*
X172252000Y-105966714D01*
X172966286Y-106109571D01*
X171752000Y-105609571D02*
X171394857Y-106609571D01*
X171037715Y-105609571D01*
X170466286Y-106466714D02*
X170394858Y-106538143D01*
X170466286Y-106609571D01*
X170537715Y-106538143D01*
X170466286Y-106466714D01*
X170466286Y-106609571D01*
X170466286Y-105681000D02*
X170394858Y-105752429D01*
X170466286Y-105823857D01*
X170537715Y-105752429D01*
X170466286Y-105681000D01*
X170466286Y-105823857D01*
X168109143Y-105823857D02*
X167894857Y-105895286D01*
X167823429Y-105966714D01*
X167752000Y-106109571D01*
X167752000Y-106323857D01*
X167823429Y-106466714D01*
X167894857Y-106538143D01*
X168037715Y-106609571D01*
X168609143Y-106609571D01*
X168609143Y-105109571D01*
X168109143Y-105109571D01*
X167966286Y-105181000D01*
X167894857Y-105252429D01*
X167823429Y-105395286D01*
X167823429Y-105538143D01*
X167894857Y-105681000D01*
X167966286Y-105752429D01*
X168109143Y-105823857D01*
X168609143Y-105823857D01*
X174394857Y-109009571D02*
X174394857Y-107509571D01*
X174037714Y-107509571D01*
X173823429Y-107581000D01*
X173680571Y-107723857D01*
X173609143Y-107866714D01*
X173537714Y-108152429D01*
X173537714Y-108366714D01*
X173609143Y-108652429D01*
X173680571Y-108795286D01*
X173823429Y-108938143D01*
X174037714Y-109009571D01*
X174394857Y-109009571D01*
X172323429Y-108938143D02*
X172466286Y-109009571D01*
X172752000Y-109009571D01*
X172894857Y-108938143D01*
X172966286Y-108795286D01*
X172966286Y-108223857D01*
X172894857Y-108081000D01*
X172752000Y-108009571D01*
X172466286Y-108009571D01*
X172323429Y-108081000D01*
X172252000Y-108223857D01*
X172252000Y-108366714D01*
X172966286Y-108509571D01*
X171680572Y-108938143D02*
X171537715Y-109009571D01*
X171252000Y-109009571D01*
X171109143Y-108938143D01*
X171037715Y-108795286D01*
X171037715Y-108723857D01*
X171109143Y-108581000D01*
X171252000Y-108509571D01*
X171466286Y-108509571D01*
X171609143Y-108438143D01*
X171680572Y-108295286D01*
X171680572Y-108223857D01*
X171609143Y-108081000D01*
X171466286Y-108009571D01*
X171252000Y-108009571D01*
X171109143Y-108081000D01*
X170394857Y-109009571D02*
X170394857Y-108009571D01*
X170394857Y-107509571D02*
X170466286Y-107581000D01*
X170394857Y-107652429D01*
X170323429Y-107581000D01*
X170394857Y-107509571D01*
X170394857Y-107652429D01*
X169037714Y-108009571D02*
X169037714Y-109223857D01*
X169109143Y-109366714D01*
X169180571Y-109438143D01*
X169323428Y-109509571D01*
X169537714Y-109509571D01*
X169680571Y-109438143D01*
X169037714Y-108938143D02*
X169180571Y-109009571D01*
X169466285Y-109009571D01*
X169609143Y-108938143D01*
X169680571Y-108866714D01*
X169752000Y-108723857D01*
X169752000Y-108295286D01*
X169680571Y-108152429D01*
X169609143Y-108081000D01*
X169466285Y-108009571D01*
X169180571Y-108009571D01*
X169037714Y-108081000D01*
X168323428Y-108009571D02*
X168323428Y-109009571D01*
X168323428Y-108152429D02*
X168252000Y-108081000D01*
X168109142Y-108009571D01*
X167894857Y-108009571D01*
X167752000Y-108081000D01*
X167680571Y-108223857D01*
X167680571Y-109009571D01*
X166394857Y-108938143D02*
X166537714Y-109009571D01*
X166823428Y-109009571D01*
X166966285Y-108938143D01*
X167037714Y-108795286D01*
X167037714Y-108223857D01*
X166966285Y-108081000D01*
X166823428Y-108009571D01*
X166537714Y-108009571D01*
X166394857Y-108081000D01*
X166323428Y-108223857D01*
X166323428Y-108366714D01*
X167037714Y-108509571D01*
X165037714Y-109009571D02*
X165037714Y-107509571D01*
X165037714Y-108938143D02*
X165180571Y-109009571D01*
X165466285Y-109009571D01*
X165609143Y-108938143D01*
X165680571Y-108866714D01*
X165752000Y-108723857D01*
X165752000Y-108295286D01*
X165680571Y-108152429D01*
X165609143Y-108081000D01*
X165466285Y-108009571D01*
X165180571Y-108009571D01*
X165037714Y-108081000D01*
X162680571Y-108223857D02*
X162466285Y-108295286D01*
X162394857Y-108366714D01*
X162323428Y-108509571D01*
X162323428Y-108723857D01*
X162394857Y-108866714D01*
X162466285Y-108938143D01*
X162609143Y-109009571D01*
X163180571Y-109009571D01*
X163180571Y-107509571D01*
X162680571Y-107509571D01*
X162537714Y-107581000D01*
X162466285Y-107652429D01*
X162394857Y-107795286D01*
X162394857Y-107938143D01*
X162466285Y-108081000D01*
X162537714Y-108152429D01*
X162680571Y-108223857D01*
X163180571Y-108223857D01*
X161823428Y-108009571D02*
X161466285Y-109009571D01*
X161109143Y-108009571D02*
X161466285Y-109009571D01*
X161609143Y-109366714D01*
X161680571Y-109438143D01*
X161823428Y-109509571D01*
X160537714Y-108866714D02*
X160466286Y-108938143D01*
X160537714Y-109009571D01*
X160609143Y-108938143D01*
X160537714Y-108866714D01*
X160537714Y-109009571D01*
X160537714Y-108081000D02*
X160466286Y-108152429D01*
X160537714Y-108223857D01*
X160609143Y-108152429D01*
X160537714Y-108081000D01*
X160537714Y-108223857D01*
X173966286Y-109909571D02*
X173966286Y-110981000D01*
X174037714Y-111195286D01*
X174180571Y-111338143D01*
X174394857Y-111409571D01*
X174537714Y-111409571D01*
X172680572Y-111338143D02*
X172823429Y-111409571D01*
X173109143Y-111409571D01*
X173252000Y-111338143D01*
X173323429Y-111195286D01*
X173323429Y-110623857D01*
X173252000Y-110481000D01*
X173109143Y-110409571D01*
X172823429Y-110409571D01*
X172680572Y-110481000D01*
X172609143Y-110623857D01*
X172609143Y-110766714D01*
X173323429Y-110909571D01*
X172037715Y-111338143D02*
X171894858Y-111409571D01*
X171609143Y-111409571D01*
X171466286Y-111338143D01*
X171394858Y-111195286D01*
X171394858Y-111123857D01*
X171466286Y-110981000D01*
X171609143Y-110909571D01*
X171823429Y-110909571D01*
X171966286Y-110838143D01*
X172037715Y-110695286D01*
X172037715Y-110623857D01*
X171966286Y-110481000D01*
X171823429Y-110409571D01*
X171609143Y-110409571D01*
X171466286Y-110481000D01*
X170823429Y-111338143D02*
X170680572Y-111409571D01*
X170394857Y-111409571D01*
X170252000Y-111338143D01*
X170180572Y-111195286D01*
X170180572Y-111123857D01*
X170252000Y-110981000D01*
X170394857Y-110909571D01*
X170609143Y-110909571D01*
X170752000Y-110838143D01*
X170823429Y-110695286D01*
X170823429Y-110623857D01*
X170752000Y-110481000D01*
X170609143Y-110409571D01*
X170394857Y-110409571D01*
X170252000Y-110481000D01*
X168966286Y-111338143D02*
X169109143Y-111409571D01*
X169394857Y-111409571D01*
X169537714Y-111338143D01*
X169609143Y-111195286D01*
X169609143Y-110623857D01*
X169537714Y-110481000D01*
X169394857Y-110409571D01*
X169109143Y-110409571D01*
X168966286Y-110481000D01*
X168894857Y-110623857D01*
X168894857Y-110766714D01*
X169609143Y-110909571D01*
X167109143Y-111409571D02*
X167109143Y-109909571D01*
X166609143Y-110981000D01*
X166109143Y-109909571D01*
X166109143Y-111409571D01*
X165394857Y-111409571D02*
X165394857Y-110409571D01*
X165394857Y-109909571D02*
X165466286Y-109981000D01*
X165394857Y-110052429D01*
X165323429Y-109981000D01*
X165394857Y-109909571D01*
X165394857Y-110052429D01*
X164466285Y-111409571D02*
X164609143Y-111338143D01*
X164680571Y-111195286D01*
X164680571Y-109909571D01*
X163680571Y-111409571D02*
X163823429Y-111338143D01*
X163894857Y-111195286D01*
X163894857Y-109909571D01*
X163252000Y-110409571D02*
X162966286Y-111409571D01*
X162680572Y-110695286D01*
X162394857Y-111409571D01*
X162109143Y-110409571D01*
X161323428Y-111409571D02*
X161466286Y-111338143D01*
X161537714Y-111266714D01*
X161609143Y-111123857D01*
X161609143Y-110695286D01*
X161537714Y-110552429D01*
X161466286Y-110481000D01*
X161323428Y-110409571D01*
X161109143Y-110409571D01*
X160966286Y-110481000D01*
X160894857Y-110552429D01*
X160823428Y-110695286D01*
X160823428Y-111123857D01*
X160894857Y-111266714D01*
X160966286Y-111338143D01*
X161109143Y-111409571D01*
X161323428Y-111409571D01*
X159966285Y-111409571D02*
X160109143Y-111338143D01*
X160180571Y-111266714D01*
X160252000Y-111123857D01*
X160252000Y-110695286D01*
X160180571Y-110552429D01*
X160109143Y-110481000D01*
X159966285Y-110409571D01*
X159752000Y-110409571D01*
X159609143Y-110481000D01*
X159537714Y-110552429D01*
X159466285Y-110695286D01*
X159466285Y-111123857D01*
X159537714Y-111266714D01*
X159609143Y-111338143D01*
X159752000Y-111409571D01*
X159966285Y-111409571D01*
X158180571Y-111409571D02*
X158180571Y-109909571D01*
X158180571Y-111338143D02*
X158323428Y-111409571D01*
X158609142Y-111409571D01*
X158752000Y-111338143D01*
X158823428Y-111266714D01*
X158894857Y-111123857D01*
X158894857Y-110695286D01*
X158823428Y-110552429D01*
X158752000Y-110481000D01*
X158609142Y-110409571D01*
X158323428Y-110409571D01*
X158180571Y-110481000D01*
X155894857Y-111981000D02*
X155966285Y-111909571D01*
X156109142Y-111695286D01*
X156180571Y-111552429D01*
X156252000Y-111338143D01*
X156323428Y-110981000D01*
X156323428Y-110695286D01*
X156252000Y-110338143D01*
X156180571Y-110123857D01*
X156109142Y-109981000D01*
X155966285Y-109766714D01*
X155894857Y-109695286D01*
X154537714Y-109981000D02*
X154680571Y-109909571D01*
X154894857Y-109909571D01*
X155109142Y-109981000D01*
X155252000Y-110123857D01*
X155323428Y-110266714D01*
X155394857Y-110552429D01*
X155394857Y-110766714D01*
X155323428Y-111052429D01*
X155252000Y-111195286D01*
X155109142Y-111338143D01*
X154894857Y-111409571D01*
X154752000Y-111409571D01*
X154537714Y-111338143D01*
X154466285Y-111266714D01*
X154466285Y-110766714D01*
X154752000Y-110766714D01*
X154037714Y-109909571D02*
X153537714Y-111409571D01*
X153037714Y-109909571D01*
X152609143Y-111338143D02*
X152394857Y-111409571D01*
X152037714Y-111409571D01*
X151894857Y-111338143D01*
X151823428Y-111266714D01*
X151752000Y-111123857D01*
X151752000Y-110981000D01*
X151823428Y-110838143D01*
X151894857Y-110766714D01*
X152037714Y-110695286D01*
X152323428Y-110623857D01*
X152466286Y-110552429D01*
X152537714Y-110481000D01*
X152609143Y-110338143D01*
X152609143Y-110195286D01*
X152537714Y-110052429D01*
X152466286Y-109981000D01*
X152323428Y-109909571D01*
X151966286Y-109909571D01*
X151752000Y-109981000D01*
X151109143Y-109909571D02*
X151109143Y-111123857D01*
X151037715Y-111266714D01*
X150966286Y-111338143D01*
X150823429Y-111409571D01*
X150537715Y-111409571D01*
X150394857Y-111338143D01*
X150323429Y-111266714D01*
X150252000Y-111123857D01*
X150252000Y-109909571D01*
X149680571Y-111981000D02*
X149609143Y-111909571D01*
X149466286Y-111695286D01*
X149394857Y-111552429D01*
X149323428Y-111338143D01*
X149252000Y-110981000D01*
X149252000Y-110695286D01*
X149323428Y-110338143D01*
X149394857Y-110123857D01*
X149466286Y-109981000D01*
X149609143Y-109766714D01*
X149680571Y-109695286D01*
X173966286Y-112309571D02*
X173966286Y-113381000D01*
X174037714Y-113595286D01*
X174180571Y-113738143D01*
X174394857Y-113809571D01*
X174537714Y-113809571D01*
X173037714Y-113809571D02*
X173180572Y-113738143D01*
X173252000Y-113666714D01*
X173323429Y-113523857D01*
X173323429Y-113095286D01*
X173252000Y-112952429D01*
X173180572Y-112881000D01*
X173037714Y-112809571D01*
X172823429Y-112809571D01*
X172680572Y-112881000D01*
X172609143Y-112952429D01*
X172537714Y-113095286D01*
X172537714Y-113523857D01*
X172609143Y-113666714D01*
X172680572Y-113738143D01*
X172823429Y-113809571D01*
X173037714Y-113809571D01*
X171323429Y-113738143D02*
X171466286Y-113809571D01*
X171752000Y-113809571D01*
X171894857Y-113738143D01*
X171966286Y-113595286D01*
X171966286Y-113023857D01*
X171894857Y-112881000D01*
X171752000Y-112809571D01*
X171466286Y-112809571D01*
X171323429Y-112881000D01*
X171252000Y-113023857D01*
X171252000Y-113166714D01*
X171966286Y-113309571D01*
X168680572Y-112381000D02*
X168823429Y-112309571D01*
X169037715Y-112309571D01*
X169252000Y-112381000D01*
X169394858Y-112523857D01*
X169466286Y-112666714D01*
X169537715Y-112952429D01*
X169537715Y-113166714D01*
X169466286Y-113452429D01*
X169394858Y-113595286D01*
X169252000Y-113738143D01*
X169037715Y-113809571D01*
X168894858Y-113809571D01*
X168680572Y-113738143D01*
X168609143Y-113666714D01*
X168609143Y-113166714D01*
X168894858Y-113166714D01*
X167966286Y-113809571D02*
X167966286Y-112809571D01*
X167966286Y-112309571D02*
X168037715Y-112381000D01*
X167966286Y-112452429D01*
X167894858Y-112381000D01*
X167966286Y-112309571D01*
X167966286Y-112452429D01*
X167252000Y-113809571D02*
X167252000Y-112309571D01*
X167252000Y-112881000D02*
X167109143Y-112809571D01*
X166823429Y-112809571D01*
X166680572Y-112881000D01*
X166609143Y-112952429D01*
X166537714Y-113095286D01*
X166537714Y-113523857D01*
X166609143Y-113666714D01*
X166680572Y-113738143D01*
X166823429Y-113809571D01*
X167109143Y-113809571D01*
X167252000Y-113738143D01*
X165966286Y-113738143D02*
X165823429Y-113809571D01*
X165537714Y-113809571D01*
X165394857Y-113738143D01*
X165323429Y-113595286D01*
X165323429Y-113523857D01*
X165394857Y-113381000D01*
X165537714Y-113309571D01*
X165752000Y-113309571D01*
X165894857Y-113238143D01*
X165966286Y-113095286D01*
X165966286Y-113023857D01*
X165894857Y-112881000D01*
X165752000Y-112809571D01*
X165537714Y-112809571D01*
X165394857Y-112881000D01*
X164466285Y-113809571D02*
X164609143Y-113738143D01*
X164680571Y-113666714D01*
X164752000Y-113523857D01*
X164752000Y-113095286D01*
X164680571Y-112952429D01*
X164609143Y-112881000D01*
X164466285Y-112809571D01*
X164252000Y-112809571D01*
X164109143Y-112881000D01*
X164037714Y-112952429D01*
X163966285Y-113095286D01*
X163966285Y-113523857D01*
X164037714Y-113666714D01*
X164109143Y-113738143D01*
X164252000Y-113809571D01*
X164466285Y-113809571D01*
X163323428Y-112809571D02*
X163323428Y-113809571D01*
X163323428Y-112952429D02*
X163252000Y-112881000D01*
X163109142Y-112809571D01*
X162894857Y-112809571D01*
X162752000Y-112881000D01*
X162680571Y-113023857D01*
X162680571Y-113809571D01*
X160394857Y-114381000D02*
X160466285Y-114309571D01*
X160609142Y-114095286D01*
X160680571Y-113952429D01*
X160752000Y-113738143D01*
X160823428Y-113381000D01*
X160823428Y-113095286D01*
X160752000Y-112738143D01*
X160680571Y-112523857D01*
X160609142Y-112381000D01*
X160466285Y-112166714D01*
X160394857Y-112095286D01*
X159037714Y-112381000D02*
X159180571Y-112309571D01*
X159394857Y-112309571D01*
X159609142Y-112381000D01*
X159752000Y-112523857D01*
X159823428Y-112666714D01*
X159894857Y-112952429D01*
X159894857Y-113166714D01*
X159823428Y-113452429D01*
X159752000Y-113595286D01*
X159609142Y-113738143D01*
X159394857Y-113809571D01*
X159252000Y-113809571D01*
X159037714Y-113738143D01*
X158966285Y-113666714D01*
X158966285Y-113166714D01*
X159252000Y-113166714D01*
X158537714Y-112309571D02*
X158037714Y-113809571D01*
X157537714Y-112309571D01*
X157109143Y-113738143D02*
X156894857Y-113809571D01*
X156537714Y-113809571D01*
X156394857Y-113738143D01*
X156323428Y-113666714D01*
X156252000Y-113523857D01*
X156252000Y-113381000D01*
X156323428Y-113238143D01*
X156394857Y-113166714D01*
X156537714Y-113095286D01*
X156823428Y-113023857D01*
X156966286Y-112952429D01*
X157037714Y-112881000D01*
X157109143Y-112738143D01*
X157109143Y-112595286D01*
X157037714Y-112452429D01*
X156966286Y-112381000D01*
X156823428Y-112309571D01*
X156466286Y-112309571D01*
X156252000Y-112381000D01*
X155609143Y-112309571D02*
X155609143Y-113523857D01*
X155537715Y-113666714D01*
X155466286Y-113738143D01*
X155323429Y-113809571D01*
X155037715Y-113809571D01*
X154894857Y-113738143D01*
X154823429Y-113666714D01*
X154752000Y-113523857D01*
X154752000Y-112309571D01*
X154180571Y-114381000D02*
X154109143Y-114309571D01*
X153966286Y-114095286D01*
X153894857Y-113952429D01*
X153823428Y-113738143D01*
X153752000Y-113381000D01*
X153752000Y-113095286D01*
X153823428Y-112738143D01*
X153894857Y-112523857D01*
X153966286Y-112381000D01*
X154109143Y-112166714D01*
X154180571Y-112095286D01*
X173966286Y-114709571D02*
X173966286Y-115781000D01*
X174037714Y-115995286D01*
X174180571Y-116138143D01*
X174394857Y-116209571D01*
X174537714Y-116209571D01*
X172609143Y-115209571D02*
X172609143Y-116209571D01*
X173252000Y-115209571D02*
X173252000Y-115995286D01*
X173180572Y-116138143D01*
X173037714Y-116209571D01*
X172823429Y-116209571D01*
X172680572Y-116138143D01*
X172609143Y-116066714D01*
X171894857Y-115209571D02*
X171894857Y-116209571D01*
X171894857Y-115352429D02*
X171823429Y-115281000D01*
X171680571Y-115209571D01*
X171466286Y-115209571D01*
X171323429Y-115281000D01*
X171252000Y-115423857D01*
X171252000Y-116209571D01*
X169966286Y-116138143D02*
X170109143Y-116209571D01*
X170394857Y-116209571D01*
X170537714Y-116138143D01*
X170609143Y-115995286D01*
X170609143Y-115423857D01*
X170537714Y-115281000D01*
X170394857Y-115209571D01*
X170109143Y-115209571D01*
X169966286Y-115281000D01*
X169894857Y-115423857D01*
X169894857Y-115566714D01*
X170609143Y-115709571D01*
X168180572Y-114852429D02*
X168109143Y-114781000D01*
X167966286Y-114709571D01*
X167609143Y-114709571D01*
X167466286Y-114781000D01*
X167394857Y-114852429D01*
X167323429Y-114995286D01*
X167323429Y-115138143D01*
X167394857Y-115352429D01*
X168252000Y-116209571D01*
X167323429Y-116209571D01*
X166394858Y-114709571D02*
X166252001Y-114709571D01*
X166109144Y-114781000D01*
X166037715Y-114852429D01*
X165966286Y-114995286D01*
X165894858Y-115281000D01*
X165894858Y-115638143D01*
X165966286Y-115923857D01*
X166037715Y-116066714D01*
X166109144Y-116138143D01*
X166252001Y-116209571D01*
X166394858Y-116209571D01*
X166537715Y-116138143D01*
X166609144Y-116066714D01*
X166680572Y-115923857D01*
X166752001Y-115638143D01*
X166752001Y-115281000D01*
X166680572Y-114995286D01*
X166609144Y-114852429D01*
X166537715Y-114781000D01*
X166394858Y-114709571D01*
X164466287Y-116209571D02*
X165323430Y-116209571D01*
X164894858Y-116209571D02*
X164894858Y-114709571D01*
X165037715Y-114923857D01*
X165180573Y-115066714D01*
X165323430Y-115138143D01*
X163109144Y-114709571D02*
X163823430Y-114709571D01*
X163894859Y-115423857D01*
X163823430Y-115352429D01*
X163680573Y-115281000D01*
X163323430Y-115281000D01*
X163180573Y-115352429D01*
X163109144Y-115423857D01*
X163037716Y-115566714D01*
X163037716Y-115923857D01*
X163109144Y-116066714D01*
X163180573Y-116138143D01*
X163323430Y-116209571D01*
X163680573Y-116209571D01*
X163823430Y-116138143D01*
X163894859Y-116066714D01*
X123995571Y-95687571D02*
X123995571Y-94187571D01*
X123281285Y-94687571D02*
X123281285Y-95687571D01*
X123281285Y-94830429D02*
X123209857Y-94759000D01*
X123066999Y-94687571D01*
X122852714Y-94687571D01*
X122709857Y-94759000D01*
X122638428Y-94901857D01*
X122638428Y-95687571D01*
X128067000Y-97944714D02*
X128138429Y-98016143D01*
X128352715Y-98087571D01*
X128495572Y-98087571D01*
X128709857Y-98016143D01*
X128852715Y-97873286D01*
X128924143Y-97730429D01*
X128995572Y-97444714D01*
X128995572Y-97230429D01*
X128924143Y-96944714D01*
X128852715Y-96801857D01*
X128709857Y-96659000D01*
X128495572Y-96587571D01*
X128352715Y-96587571D01*
X128138429Y-96659000D01*
X128067000Y-96730429D01*
X127209857Y-98087571D02*
X127352715Y-98016143D01*
X127424143Y-97944714D01*
X127495572Y-97801857D01*
X127495572Y-97373286D01*
X127424143Y-97230429D01*
X127352715Y-97159000D01*
X127209857Y-97087571D01*
X126995572Y-97087571D01*
X126852715Y-97159000D01*
X126781286Y-97230429D01*
X126709857Y-97373286D01*
X126709857Y-97801857D01*
X126781286Y-97944714D01*
X126852715Y-98016143D01*
X126995572Y-98087571D01*
X127209857Y-98087571D01*
X126067000Y-97087571D02*
X126067000Y-98087571D01*
X126067000Y-97230429D02*
X125995572Y-97159000D01*
X125852714Y-97087571D01*
X125638429Y-97087571D01*
X125495572Y-97159000D01*
X125424143Y-97301857D01*
X125424143Y-98087571D01*
X124709857Y-97087571D02*
X124709857Y-98373286D01*
X124781286Y-98516143D01*
X124924143Y-98587571D01*
X124995571Y-98587571D01*
X124709857Y-96587571D02*
X124781286Y-96659000D01*
X124709857Y-96730429D01*
X124638429Y-96659000D01*
X124709857Y-96587571D01*
X124709857Y-96730429D01*
X123352714Y-97087571D02*
X123352714Y-98087571D01*
X123995571Y-97087571D02*
X123995571Y-97873286D01*
X123924143Y-98016143D01*
X123781285Y-98087571D01*
X123567000Y-98087571D01*
X123424143Y-98016143D01*
X123352714Y-97944714D01*
X122638428Y-97087571D02*
X122638428Y-98087571D01*
X122638428Y-97230429D02*
X122567000Y-97159000D01*
X122424142Y-97087571D01*
X122209857Y-97087571D01*
X122067000Y-97159000D01*
X121995571Y-97301857D01*
X121995571Y-98087571D01*
X121495571Y-97087571D02*
X120924142Y-97087571D01*
X121281285Y-96587571D02*
X121281285Y-97873286D01*
X121209857Y-98016143D01*
X121066999Y-98087571D01*
X120924142Y-98087571D01*
X120424142Y-98087571D02*
X120424142Y-97087571D01*
X120424142Y-96587571D02*
X120495571Y-96659000D01*
X120424142Y-96730429D01*
X120352714Y-96659000D01*
X120424142Y-96587571D01*
X120424142Y-96730429D01*
X119495570Y-98087571D02*
X119638428Y-98016143D01*
X119709856Y-97944714D01*
X119781285Y-97801857D01*
X119781285Y-97373286D01*
X119709856Y-97230429D01*
X119638428Y-97159000D01*
X119495570Y-97087571D01*
X119281285Y-97087571D01*
X119138428Y-97159000D01*
X119066999Y-97230429D01*
X118995570Y-97373286D01*
X118995570Y-97801857D01*
X119066999Y-97944714D01*
X119138428Y-98016143D01*
X119281285Y-98087571D01*
X119495570Y-98087571D01*
X118352713Y-97087571D02*
X118352713Y-98087571D01*
X118352713Y-97230429D02*
X118281285Y-97159000D01*
X118138427Y-97087571D01*
X117924142Y-97087571D01*
X117781285Y-97159000D01*
X117709856Y-97301857D01*
X117709856Y-98087571D01*
X125424143Y-98987571D02*
X125067000Y-100487571D01*
X124781286Y-99416143D01*
X124495572Y-100487571D01*
X124138429Y-98987571D01*
X123567000Y-100487571D02*
X123567000Y-99487571D01*
X123567000Y-98987571D02*
X123638429Y-99059000D01*
X123567000Y-99130429D01*
X123495572Y-99059000D01*
X123567000Y-98987571D01*
X123567000Y-99130429D01*
X123067000Y-99487571D02*
X122495571Y-99487571D01*
X122852714Y-98987571D02*
X122852714Y-100273286D01*
X122781286Y-100416143D01*
X122638428Y-100487571D01*
X122495571Y-100487571D01*
X121995571Y-100487571D02*
X121995571Y-98987571D01*
X121352714Y-100487571D02*
X121352714Y-99701857D01*
X121424143Y-99559000D01*
X121567000Y-99487571D01*
X121781285Y-99487571D01*
X121924143Y-99559000D01*
X121995571Y-99630429D01*
D12*
X121902220Y-91716860D02*
X121541540Y-93187520D01*
X121541540Y-93187520D02*
X121262140Y-92125800D01*
X121262140Y-92125800D02*
X120952260Y-93197680D01*
X120952260Y-93197680D02*
X120611900Y-91747340D01*
X123322080Y-92407740D02*
X122532140Y-92397580D01*
X122532140Y-92397580D02*
X122521980Y-92407740D01*
X122521980Y-92407740D02*
X122521980Y-92397580D01*
X122481340Y-91686380D02*
X122481340Y-93228160D01*
X123370340Y-91676220D02*
X123370340Y-93245940D01*
X123370340Y-93245940D02*
X123360180Y-93235780D01*
X123921520Y-91777820D02*
X124272040Y-91696540D01*
X124272040Y-91696540D02*
X124592080Y-91686380D01*
X124592080Y-91686380D02*
X124830840Y-91887040D01*
X124830840Y-91887040D02*
X124861320Y-92156280D01*
X124861320Y-92156280D02*
X124620020Y-92397580D01*
X124620020Y-92397580D02*
X124231400Y-92527120D01*
X124231400Y-92527120D02*
X124051060Y-92687140D01*
X124051060Y-92687140D02*
X124010420Y-92986860D01*
X124010420Y-92986860D02*
X124241560Y-93207840D01*
X124241560Y-93207840D02*
X124561600Y-93235780D01*
X124561600Y-93235780D02*
X124912120Y-93126560D01*
X125950980Y-91676220D02*
X126199900Y-91696540D01*
X126199900Y-91696540D02*
X126441200Y-91937840D01*
X126441200Y-91937840D02*
X126530100Y-92428060D01*
X126530100Y-92428060D02*
X126502160Y-92776040D01*
X126502160Y-92776040D02*
X126301500Y-93096080D01*
X126301500Y-93096080D02*
X126050040Y-93218000D01*
X126050040Y-93218000D02*
X125740160Y-93146880D01*
X125740160Y-93146880D02*
X125521720Y-92966540D01*
X125521720Y-92966540D02*
X125450600Y-92506800D01*
X125450600Y-92506800D02*
X125501400Y-92097860D01*
X125501400Y-92097860D02*
X125610620Y-91815920D01*
X125610620Y-91815920D02*
X125971300Y-91686380D01*
X125351540Y-89956640D02*
X125610620Y-90517980D01*
X125610620Y-90517980D02*
X125072140Y-91036140D01*
X125072140Y-91036140D02*
X124551440Y-90766900D01*
X124551440Y-90766900D02*
X124272040Y-90926920D01*
X122831860Y-90906600D02*
X122501660Y-90716100D01*
X122501660Y-90716100D02*
X122062240Y-91046300D01*
X122062240Y-91046300D02*
X121589800Y-90556080D01*
X121589800Y-90556080D02*
X121871740Y-90076020D01*
X121871740Y-90076020D02*
X121681240Y-89606120D01*
X121681240Y-89606120D02*
X121071640Y-89418160D01*
X121071640Y-89418160D02*
X121071640Y-88737440D01*
X121071640Y-88737440D02*
X121630440Y-88597740D01*
X121630440Y-88597740D02*
X121831100Y-88026240D01*
X121831100Y-88026240D02*
X121561860Y-87556340D01*
X121561860Y-87556340D02*
X122031760Y-87045800D01*
X122031760Y-87045800D02*
X122549920Y-87307420D01*
X122549920Y-87307420D02*
X123019820Y-87106760D01*
X123019820Y-87106760D02*
X123190000Y-86565740D01*
X123190000Y-86565740D02*
X123880880Y-86547960D01*
X123880880Y-86547960D02*
X124091700Y-87096600D01*
X124091700Y-87096600D02*
X124510800Y-87266780D01*
X124510800Y-87266780D02*
X125061980Y-86997540D01*
X125061980Y-86997540D02*
X125580140Y-87525860D01*
X125580140Y-87525860D02*
X125331220Y-88066880D01*
X125331220Y-88066880D02*
X125501400Y-88546940D01*
X125501400Y-88546940D02*
X126050040Y-88646000D01*
X126050040Y-88646000D02*
X126060200Y-89347040D01*
X126060200Y-89347040D02*
X125501400Y-89547700D01*
X125501400Y-89547700D02*
X125361700Y-89946480D01*
X123220480Y-89926160D02*
X122920760Y-89776300D01*
X122920760Y-89776300D02*
X122720100Y-89578180D01*
X122720100Y-89578180D02*
X122570240Y-89176860D01*
X122570240Y-89176860D02*
X122570240Y-88778080D01*
X122570240Y-88778080D02*
X122720100Y-88427560D01*
X122720100Y-88427560D02*
X123172220Y-88077040D01*
X123172220Y-88077040D02*
X123621800Y-88026240D01*
X123621800Y-88026240D02*
X124020580Y-88127840D01*
X124020580Y-88127840D02*
X124421900Y-88475820D01*
X124421900Y-88475820D02*
X124571760Y-88927940D01*
X124571760Y-88927940D02*
X124520960Y-89425780D01*
X124520960Y-89425780D02*
X124272040Y-89728040D01*
X124272040Y-89728040D02*
X123921520Y-89926160D01*
X123921520Y-89926160D02*
X124272040Y-90926920D01*
X123220480Y-89926160D02*
X122821700Y-90926920D01*
D10*
G36*
X103054730Y-108185017D02*
X103469375Y-110207627D01*
X104311299Y-112123017D01*
X105543111Y-113840080D01*
X105939434Y-114197209D01*
X105939434Y-106594393D01*
X105988215Y-106340547D01*
X106168643Y-105621667D01*
X110694777Y-105621667D01*
X115220912Y-105621667D01*
X114743900Y-106429182D01*
X114262191Y-107149529D01*
X113617233Y-108002304D01*
X113367781Y-108307638D01*
X112468672Y-109378578D01*
X111221998Y-107782345D01*
X110558877Y-106955210D01*
X110075292Y-106478472D01*
X109606027Y-106255601D01*
X108985865Y-106190067D01*
X108489940Y-106186111D01*
X107660714Y-106208286D01*
X107121547Y-106265253D01*
X107004556Y-106315416D01*
X107161666Y-106600810D01*
X107586064Y-107240769D01*
X108207351Y-108137568D01*
X108955126Y-109193483D01*
X109758990Y-110310790D01*
X110548543Y-111391764D01*
X111253386Y-112338683D01*
X111803119Y-113053821D01*
X112127342Y-113439454D01*
X112155569Y-113465713D01*
X112531174Y-113617538D01*
X112955501Y-113355097D01*
X113137340Y-113167587D01*
X113679476Y-112516852D01*
X114384856Y-111584658D01*
X115186042Y-110470557D01*
X116015594Y-109274104D01*
X116806073Y-108094851D01*
X117490039Y-107032353D01*
X118000052Y-106186163D01*
X118268674Y-105655835D01*
X118293445Y-105556183D01*
X118293445Y-104633889D01*
X118434556Y-104492778D01*
X118575667Y-104633889D01*
X118434556Y-104775000D01*
X118293445Y-104633889D01*
X118293445Y-105556183D01*
X118411284Y-105116986D01*
X118671015Y-105137793D01*
X118931957Y-105589989D01*
X118962231Y-105692222D01*
X119171138Y-107504587D01*
X118869251Y-109284497D01*
X118105434Y-110926154D01*
X116928552Y-112323761D01*
X115423701Y-113353601D01*
X113641763Y-113967538D01*
X111879838Y-114018573D01*
X110122474Y-113507136D01*
X110109000Y-113501054D01*
X108385784Y-112445164D01*
X107098078Y-111040468D01*
X106703963Y-110374787D01*
X106212047Y-109111368D01*
X105943046Y-107771438D01*
X105939434Y-106594393D01*
X105939434Y-114197209D01*
X107127419Y-115267711D01*
X108550467Y-116106033D01*
X109525560Y-116525653D01*
X110393856Y-116769479D01*
X111381694Y-116881730D01*
X112649000Y-116906758D01*
X113938688Y-116878209D01*
X114886493Y-116766324D01*
X115713729Y-116525313D01*
X116641706Y-116109386D01*
X116741222Y-116060068D01*
X118680935Y-114785467D01*
X120262160Y-113095244D01*
X121169340Y-111601449D01*
X121528265Y-110716521D01*
X121754720Y-109714385D01*
X121883228Y-108413912D01*
X121918829Y-107669056D01*
X121951235Y-106381566D01*
X121910976Y-105460748D01*
X121764759Y-104710204D01*
X121479296Y-103933536D01*
X121169761Y-103249843D01*
X119958851Y-101215721D01*
X118447689Y-99658701D01*
X116624322Y-98570719D01*
X114476794Y-97943711D01*
X113072333Y-97787778D01*
X111733249Y-97753320D01*
X110699505Y-97843560D01*
X109719528Y-98091298D01*
X109122281Y-98302810D01*
X108168914Y-98756390D01*
X107174141Y-99381610D01*
X106240847Y-100091394D01*
X105471918Y-100798667D01*
X104970237Y-101416353D01*
X104838690Y-101857377D01*
X104861010Y-101909286D01*
X105320627Y-102174344D01*
X106146850Y-102261983D01*
X107175261Y-102186134D01*
X108241445Y-101960727D01*
X109180986Y-101599692D01*
X109304082Y-101532844D01*
X110733402Y-100983107D01*
X112345399Y-100791106D01*
X113981765Y-100938504D01*
X115484191Y-101406961D01*
X116694368Y-102178137D01*
X116933199Y-102416636D01*
X117064168Y-102582740D01*
X117075380Y-102708290D01*
X116904473Y-102797820D01*
X116489088Y-102855865D01*
X115766865Y-102886962D01*
X114675444Y-102895645D01*
X113152466Y-102886450D01*
X111135570Y-102863911D01*
X110833819Y-102860238D01*
X104260241Y-102779920D01*
X103656843Y-104182556D01*
X103104755Y-106146292D01*
X103054730Y-108185017D01*
X103054730Y-108185017D01*
X103054730Y-108185017D01*
G37*
X103054730Y-108185017D02*
X103469375Y-110207627D01*
X104311299Y-112123017D01*
X105543111Y-113840080D01*
X105939434Y-114197209D01*
X105939434Y-106594393D01*
X105988215Y-106340547D01*
X106168643Y-105621667D01*
X110694777Y-105621667D01*
X115220912Y-105621667D01*
X114743900Y-106429182D01*
X114262191Y-107149529D01*
X113617233Y-108002304D01*
X113367781Y-108307638D01*
X112468672Y-109378578D01*
X111221998Y-107782345D01*
X110558877Y-106955210D01*
X110075292Y-106478472D01*
X109606027Y-106255601D01*
X108985865Y-106190067D01*
X108489940Y-106186111D01*
X107660714Y-106208286D01*
X107121547Y-106265253D01*
X107004556Y-106315416D01*
X107161666Y-106600810D01*
X107586064Y-107240769D01*
X108207351Y-108137568D01*
X108955126Y-109193483D01*
X109758990Y-110310790D01*
X110548543Y-111391764D01*
X111253386Y-112338683D01*
X111803119Y-113053821D01*
X112127342Y-113439454D01*
X112155569Y-113465713D01*
X112531174Y-113617538D01*
X112955501Y-113355097D01*
X113137340Y-113167587D01*
X113679476Y-112516852D01*
X114384856Y-111584658D01*
X115186042Y-110470557D01*
X116015594Y-109274104D01*
X116806073Y-108094851D01*
X117490039Y-107032353D01*
X118000052Y-106186163D01*
X118268674Y-105655835D01*
X118293445Y-105556183D01*
X118293445Y-104633889D01*
X118434556Y-104492778D01*
X118575667Y-104633889D01*
X118434556Y-104775000D01*
X118293445Y-104633889D01*
X118293445Y-105556183D01*
X118411284Y-105116986D01*
X118671015Y-105137793D01*
X118931957Y-105589989D01*
X118962231Y-105692222D01*
X119171138Y-107504587D01*
X118869251Y-109284497D01*
X118105434Y-110926154D01*
X116928552Y-112323761D01*
X115423701Y-113353601D01*
X113641763Y-113967538D01*
X111879838Y-114018573D01*
X110122474Y-113507136D01*
X110109000Y-113501054D01*
X108385784Y-112445164D01*
X107098078Y-111040468D01*
X106703963Y-110374787D01*
X106212047Y-109111368D01*
X105943046Y-107771438D01*
X105939434Y-106594393D01*
X105939434Y-114197209D01*
X107127419Y-115267711D01*
X108550467Y-116106033D01*
X109525560Y-116525653D01*
X110393856Y-116769479D01*
X111381694Y-116881730D01*
X112649000Y-116906758D01*
X113938688Y-116878209D01*
X114886493Y-116766324D01*
X115713729Y-116525313D01*
X116641706Y-116109386D01*
X116741222Y-116060068D01*
X118680935Y-114785467D01*
X120262160Y-113095244D01*
X121169340Y-111601449D01*
X121528265Y-110716521D01*
X121754720Y-109714385D01*
X121883228Y-108413912D01*
X121918829Y-107669056D01*
X121951235Y-106381566D01*
X121910976Y-105460748D01*
X121764759Y-104710204D01*
X121479296Y-103933536D01*
X121169761Y-103249843D01*
X119958851Y-101215721D01*
X118447689Y-99658701D01*
X116624322Y-98570719D01*
X114476794Y-97943711D01*
X113072333Y-97787778D01*
X111733249Y-97753320D01*
X110699505Y-97843560D01*
X109719528Y-98091298D01*
X109122281Y-98302810D01*
X108168914Y-98756390D01*
X107174141Y-99381610D01*
X106240847Y-100091394D01*
X105471918Y-100798667D01*
X104970237Y-101416353D01*
X104838690Y-101857377D01*
X104861010Y-101909286D01*
X105320627Y-102174344D01*
X106146850Y-102261983D01*
X107175261Y-102186134D01*
X108241445Y-101960727D01*
X109180986Y-101599692D01*
X109304082Y-101532844D01*
X110733402Y-100983107D01*
X112345399Y-100791106D01*
X113981765Y-100938504D01*
X115484191Y-101406961D01*
X116694368Y-102178137D01*
X116933199Y-102416636D01*
X117064168Y-102582740D01*
X117075380Y-102708290D01*
X116904473Y-102797820D01*
X116489088Y-102855865D01*
X115766865Y-102886962D01*
X114675444Y-102895645D01*
X113152466Y-102886450D01*
X111135570Y-102863911D01*
X110833819Y-102860238D01*
X104260241Y-102779920D01*
X103656843Y-104182556D01*
X103104755Y-106146292D01*
X103054730Y-108185017D01*
X103054730Y-108185017D01*
G36*
X131879769Y-108870314D02*
X131891390Y-109162263D01*
X132077829Y-111015795D01*
X132481149Y-112407935D01*
X133161790Y-113419625D01*
X133815667Y-113876888D01*
X133815667Y-108923667D01*
X133956778Y-108782555D01*
X134097889Y-108923667D01*
X133956778Y-109064778D01*
X133815667Y-108923667D01*
X133815667Y-113876888D01*
X134097889Y-114074249D01*
X134097889Y-109488111D01*
X134239000Y-109347000D01*
X134380111Y-109488111D01*
X134239000Y-109629222D01*
X134097889Y-109488111D01*
X134097889Y-114074249D01*
X134180190Y-114131804D01*
X135596790Y-114625412D01*
X136049214Y-114730391D01*
X137195555Y-115097009D01*
X137881017Y-115625187D01*
X137950606Y-115722586D01*
X138379733Y-116143028D01*
X138900466Y-116388979D01*
X139322080Y-116401375D01*
X139460111Y-116190058D01*
X139282512Y-115903545D01*
X138803534Y-115300299D01*
X138103909Y-114479025D01*
X137542211Y-113845148D01*
X136560005Y-112731706D01*
X135785006Y-111812913D01*
X135240843Y-111125578D01*
X134951143Y-110706509D01*
X134939535Y-110592516D01*
X135229646Y-110820406D01*
X135845105Y-111426990D01*
X136285250Y-111887000D01*
X138283168Y-114003667D01*
X138730529Y-112954398D01*
X139133585Y-111475220D01*
X139009849Y-110118620D01*
X138347037Y-108845372D01*
X137132869Y-107616252D01*
X137034166Y-107536629D01*
X136064739Y-106726244D01*
X134970067Y-105755843D01*
X134188329Y-105026821D01*
X132726546Y-103619999D01*
X132255474Y-105240429D01*
X131935063Y-106905996D01*
X131879769Y-108870314D01*
X131879769Y-108870314D01*
X131879769Y-108870314D01*
G37*
X131879769Y-108870314D02*
X131891390Y-109162263D01*
X132077829Y-111015795D01*
X132481149Y-112407935D01*
X133161790Y-113419625D01*
X133815667Y-113876888D01*
X133815667Y-108923667D01*
X133956778Y-108782555D01*
X134097889Y-108923667D01*
X133956778Y-109064778D01*
X133815667Y-108923667D01*
X133815667Y-113876888D01*
X134097889Y-114074249D01*
X134097889Y-109488111D01*
X134239000Y-109347000D01*
X134380111Y-109488111D01*
X134239000Y-109629222D01*
X134097889Y-109488111D01*
X134097889Y-114074249D01*
X134180190Y-114131804D01*
X135596790Y-114625412D01*
X136049214Y-114730391D01*
X137195555Y-115097009D01*
X137881017Y-115625187D01*
X137950606Y-115722586D01*
X138379733Y-116143028D01*
X138900466Y-116388979D01*
X139322080Y-116401375D01*
X139460111Y-116190058D01*
X139282512Y-115903545D01*
X138803534Y-115300299D01*
X138103909Y-114479025D01*
X137542211Y-113845148D01*
X136560005Y-112731706D01*
X135785006Y-111812913D01*
X135240843Y-111125578D01*
X134951143Y-110706509D01*
X134939535Y-110592516D01*
X135229646Y-110820406D01*
X135845105Y-111426990D01*
X136285250Y-111887000D01*
X138283168Y-114003667D01*
X138730529Y-112954398D01*
X139133585Y-111475220D01*
X139009849Y-110118620D01*
X138347037Y-108845372D01*
X137132869Y-107616252D01*
X137034166Y-107536629D01*
X136064739Y-106726244D01*
X134970067Y-105755843D01*
X134188329Y-105026821D01*
X132726546Y-103619999D01*
X132255474Y-105240429D01*
X131935063Y-106905996D01*
X131879769Y-108870314D01*
X131879769Y-108870314D01*
G36*
X126477889Y-103955162D02*
X126563081Y-105600605D01*
X126873032Y-106875593D01*
X127489303Y-107938861D01*
X128493457Y-108949146D01*
X129413011Y-109667473D01*
X130236402Y-110232222D01*
X130718370Y-110432245D01*
X130940493Y-110276535D01*
X130985676Y-109840889D01*
X130732327Y-109201186D01*
X130061791Y-108527145D01*
X130026041Y-108500333D01*
X128759484Y-107265675D01*
X127948040Y-105833140D01*
X127605058Y-104297320D01*
X127743890Y-102752808D01*
X128377886Y-101294196D01*
X128910668Y-100597762D01*
X130276949Y-99449411D01*
X131777278Y-98811688D01*
X133327077Y-98674834D01*
X134841770Y-99029092D01*
X136236778Y-99864703D01*
X137427526Y-101171910D01*
X137707896Y-101612718D01*
X138101241Y-102419067D01*
X138249223Y-103207272D01*
X138204439Y-104258943D01*
X138203657Y-104267000D01*
X138071115Y-105655791D01*
X137997396Y-106578248D01*
X137986003Y-107129760D01*
X138040441Y-107405721D01*
X138164214Y-107501523D01*
X138322888Y-107512555D01*
X138780134Y-107254917D01*
X139132254Y-106564520D01*
X139368287Y-105565138D01*
X139477271Y-104380546D01*
X139448248Y-103134519D01*
X139270255Y-101950831D01*
X138932332Y-100953258D01*
X138908042Y-100904591D01*
X137850208Y-99422835D01*
X136420919Y-98336027D01*
X134685640Y-97681766D01*
X132969000Y-97493667D01*
X130969346Y-97730390D01*
X129291473Y-98416393D01*
X127971798Y-99515427D01*
X127046736Y-100991243D01*
X126552702Y-102807590D01*
X126477889Y-103955162D01*
X126477889Y-103955162D01*
X126477889Y-103955162D01*
G37*
X126477889Y-103955162D02*
X126563081Y-105600605D01*
X126873032Y-106875593D01*
X127489303Y-107938861D01*
X128493457Y-108949146D01*
X129413011Y-109667473D01*
X130236402Y-110232222D01*
X130718370Y-110432245D01*
X130940493Y-110276535D01*
X130985676Y-109840889D01*
X130732327Y-109201186D01*
X130061791Y-108527145D01*
X130026041Y-108500333D01*
X128759484Y-107265675D01*
X127948040Y-105833140D01*
X127605058Y-104297320D01*
X127743890Y-102752808D01*
X128377886Y-101294196D01*
X128910668Y-100597762D01*
X130276949Y-99449411D01*
X131777278Y-98811688D01*
X133327077Y-98674834D01*
X134841770Y-99029092D01*
X136236778Y-99864703D01*
X137427526Y-101171910D01*
X137707896Y-101612718D01*
X138101241Y-102419067D01*
X138249223Y-103207272D01*
X138204439Y-104258943D01*
X138203657Y-104267000D01*
X138071115Y-105655791D01*
X137997396Y-106578248D01*
X137986003Y-107129760D01*
X138040441Y-107405721D01*
X138164214Y-107501523D01*
X138322888Y-107512555D01*
X138780134Y-107254917D01*
X139132254Y-106564520D01*
X139368287Y-105565138D01*
X139477271Y-104380546D01*
X139448248Y-103134519D01*
X139270255Y-101950831D01*
X138932332Y-100953258D01*
X138908042Y-100904591D01*
X137850208Y-99422835D01*
X136420919Y-98336027D01*
X134685640Y-97681766D01*
X132969000Y-97493667D01*
X130969346Y-97730390D01*
X129291473Y-98416393D01*
X127971798Y-99515427D01*
X127046736Y-100991243D01*
X126552702Y-102807590D01*
X126477889Y-103955162D01*
X126477889Y-103955162D01*
G36*
X128232093Y-104166154D02*
X128556260Y-105758254D01*
X128711325Y-106134605D01*
X129193865Y-106974165D01*
X129755308Y-107635608D01*
X130301944Y-108053866D01*
X130740062Y-108163873D01*
X130975952Y-107900560D01*
X130993445Y-107719180D01*
X130841350Y-107188431D01*
X130459573Y-106450778D01*
X130279388Y-106169420D01*
X129659438Y-104841025D01*
X129597632Y-103519593D01*
X130095302Y-102233624D01*
X130095420Y-102233432D01*
X131017243Y-101224508D01*
X132186276Y-100681833D01*
X133492876Y-100634329D01*
X134671572Y-101026221D01*
X135604952Y-101813016D01*
X136177556Y-102976255D01*
X136346094Y-104425692D01*
X136342854Y-104510303D01*
X136308274Y-105560781D01*
X136340945Y-106167315D01*
X136464970Y-106448752D01*
X136704450Y-106523942D01*
X136751392Y-106524778D01*
X137114750Y-106271460D01*
X137449176Y-105624625D01*
X137688183Y-104753949D01*
X137766778Y-103933599D01*
X137507068Y-102485973D01*
X136797653Y-101220938D01*
X135743112Y-100214452D01*
X134448019Y-99542469D01*
X133016952Y-99280946D01*
X131634296Y-99479447D01*
X130159599Y-100215165D01*
X129074104Y-101302758D01*
X128418155Y-102650372D01*
X128232093Y-104166154D01*
X128232093Y-104166154D01*
X128232093Y-104166154D01*
G37*
X128232093Y-104166154D02*
X128556260Y-105758254D01*
X128711325Y-106134605D01*
X129193865Y-106974165D01*
X129755308Y-107635608D01*
X130301944Y-108053866D01*
X130740062Y-108163873D01*
X130975952Y-107900560D01*
X130993445Y-107719180D01*
X130841350Y-107188431D01*
X130459573Y-106450778D01*
X130279388Y-106169420D01*
X129659438Y-104841025D01*
X129597632Y-103519593D01*
X130095302Y-102233624D01*
X130095420Y-102233432D01*
X131017243Y-101224508D01*
X132186276Y-100681833D01*
X133492876Y-100634329D01*
X134671572Y-101026221D01*
X135604952Y-101813016D01*
X136177556Y-102976255D01*
X136346094Y-104425692D01*
X136342854Y-104510303D01*
X136308274Y-105560781D01*
X136340945Y-106167315D01*
X136464970Y-106448752D01*
X136704450Y-106523942D01*
X136751392Y-106524778D01*
X137114750Y-106271460D01*
X137449176Y-105624625D01*
X137688183Y-104753949D01*
X137766778Y-103933599D01*
X137507068Y-102485973D01*
X136797653Y-101220938D01*
X135743112Y-100214452D01*
X134448019Y-99542469D01*
X133016952Y-99280946D01*
X131634296Y-99479447D01*
X130159599Y-100215165D01*
X129074104Y-101302758D01*
X128418155Y-102650372D01*
X128232093Y-104166154D01*
X128232093Y-104166154D01*
G36*
X130188160Y-104309175D02*
X130474301Y-105241498D01*
X130845112Y-105842310D01*
X131162069Y-105885519D01*
X131386584Y-105513918D01*
X131515564Y-104901672D01*
X131557889Y-104264076D01*
X131746734Y-103331065D01*
X132228310Y-102775094D01*
X132875179Y-102596302D01*
X133559902Y-102794828D01*
X134155042Y-103370810D01*
X134519874Y-104260861D01*
X134791526Y-105017278D01*
X135139406Y-105327461D01*
X135496473Y-105137425D01*
X135536232Y-105079268D01*
X135789139Y-104186239D01*
X135576818Y-103170908D01*
X134973437Y-102231755D01*
X134308178Y-101614207D01*
X133620294Y-101355860D01*
X132969000Y-101316495D01*
X132090133Y-101404021D01*
X131440203Y-101756544D01*
X130964563Y-102231755D01*
X130305344Y-103257472D01*
X130188160Y-104309175D01*
X130188160Y-104309175D01*
X130188160Y-104309175D01*
G37*
X130188160Y-104309175D02*
X130474301Y-105241498D01*
X130845112Y-105842310D01*
X131162069Y-105885519D01*
X131386584Y-105513918D01*
X131515564Y-104901672D01*
X131557889Y-104264076D01*
X131746734Y-103331065D01*
X132228310Y-102775094D01*
X132875179Y-102596302D01*
X133559902Y-102794828D01*
X134155042Y-103370810D01*
X134519874Y-104260861D01*
X134791526Y-105017278D01*
X135139406Y-105327461D01*
X135496473Y-105137425D01*
X135536232Y-105079268D01*
X135789139Y-104186239D01*
X135576818Y-103170908D01*
X134973437Y-102231755D01*
X134308178Y-101614207D01*
X133620294Y-101355860D01*
X132969000Y-101316495D01*
X132090133Y-101404021D01*
X131440203Y-101756544D01*
X130964563Y-102231755D01*
X130305344Y-103257472D01*
X130188160Y-104309175D01*
X130188160Y-104309175D01*
D12*
M02*
