G04 #@! TF.FileFunction,Legend,Top*
%FSLAX46Y46*%
G04 Gerber Fmt 4.6, Leading zero omitted, Abs format (unit mm)*
G04 Created by KiCad (PCBNEW (after 2015-mar-04 BZR unknown)-product) date Fri 03 Jul 2015 12:32:40 AM EDT*
%MOMM*%
G01*
G04 APERTURE LIST*
%ADD10C,0.100000*%
%ADD11C,0.300000*%
%ADD12C,0.150000*%
G04 APERTURE END LIST*
D10*
D11*
X102889857Y-101951999D02*
X102889857Y-102451999D01*
X103675571Y-102451999D02*
X102175571Y-102451999D01*
X102175571Y-101737713D01*
X103675571Y-101166285D02*
X102675571Y-101166285D01*
X102961286Y-101166285D02*
X102818429Y-101094857D01*
X102747000Y-101023428D01*
X102675571Y-100880571D01*
X102675571Y-100737714D01*
X103675571Y-100023428D02*
X103604143Y-100166286D01*
X103532714Y-100237714D01*
X103389857Y-100309143D01*
X102961286Y-100309143D01*
X102818429Y-100237714D01*
X102747000Y-100166286D01*
X102675571Y-100023428D01*
X102675571Y-99809143D01*
X102747000Y-99666286D01*
X102818429Y-99594857D01*
X102961286Y-99523428D01*
X103389857Y-99523428D01*
X103532714Y-99594857D01*
X103604143Y-99666286D01*
X103675571Y-99809143D01*
X103675571Y-100023428D01*
X103675571Y-98880571D02*
X102675571Y-98880571D01*
X102818429Y-98880571D02*
X102747000Y-98809143D01*
X102675571Y-98666285D01*
X102675571Y-98452000D01*
X102747000Y-98309143D01*
X102889857Y-98237714D01*
X103675571Y-98237714D01*
X102889857Y-98237714D02*
X102747000Y-98166285D01*
X102675571Y-98023428D01*
X102675571Y-97809143D01*
X102747000Y-97666285D01*
X102889857Y-97594857D01*
X103675571Y-97594857D01*
X103604143Y-95809143D02*
X103675571Y-95594857D01*
X103675571Y-95237714D01*
X103604143Y-95094857D01*
X103532714Y-95023428D01*
X103389857Y-94952000D01*
X103247000Y-94952000D01*
X103104143Y-95023428D01*
X103032714Y-95094857D01*
X102961286Y-95237714D01*
X102889857Y-95523428D01*
X102818429Y-95666286D01*
X102747000Y-95737714D01*
X102604143Y-95809143D01*
X102461286Y-95809143D01*
X102318429Y-95737714D01*
X102247000Y-95666286D01*
X102175571Y-95523428D01*
X102175571Y-95166286D01*
X102247000Y-94952000D01*
X103675571Y-94094857D02*
X103604143Y-94237715D01*
X103532714Y-94309143D01*
X103389857Y-94380572D01*
X102961286Y-94380572D01*
X102818429Y-94309143D01*
X102747000Y-94237715D01*
X102675571Y-94094857D01*
X102675571Y-93880572D01*
X102747000Y-93737715D01*
X102818429Y-93666286D01*
X102961286Y-93594857D01*
X103389857Y-93594857D01*
X103532714Y-93666286D01*
X103604143Y-93737715D01*
X103675571Y-93880572D01*
X103675571Y-94094857D01*
X103675571Y-92737714D02*
X103604143Y-92880572D01*
X103461286Y-92952000D01*
X102175571Y-92952000D01*
X103675571Y-91523429D02*
X102889857Y-91523429D01*
X102747000Y-91594858D01*
X102675571Y-91737715D01*
X102675571Y-92023429D01*
X102747000Y-92166286D01*
X103604143Y-91523429D02*
X103675571Y-91666286D01*
X103675571Y-92023429D01*
X103604143Y-92166286D01*
X103461286Y-92237715D01*
X103318429Y-92237715D01*
X103175571Y-92166286D01*
X103104143Y-92023429D01*
X103104143Y-91666286D01*
X103032714Y-91523429D01*
X103675571Y-90809143D02*
X102675571Y-90809143D01*
X102961286Y-90809143D02*
X102818429Y-90737715D01*
X102747000Y-90666286D01*
X102675571Y-90523429D01*
X102675571Y-90380572D01*
X103675571Y-88737715D02*
X102175571Y-88737715D01*
X102175571Y-88166287D01*
X102247000Y-88023429D01*
X102318429Y-87952001D01*
X102461286Y-87880572D01*
X102675571Y-87880572D01*
X102818429Y-87952001D01*
X102889857Y-88023429D01*
X102961286Y-88166287D01*
X102961286Y-88737715D01*
X103675571Y-86594858D02*
X102889857Y-86594858D01*
X102747000Y-86666287D01*
X102675571Y-86809144D01*
X102675571Y-87094858D01*
X102747000Y-87237715D01*
X103604143Y-86594858D02*
X103675571Y-86737715D01*
X103675571Y-87094858D01*
X103604143Y-87237715D01*
X103461286Y-87309144D01*
X103318429Y-87309144D01*
X103175571Y-87237715D01*
X103104143Y-87094858D01*
X103104143Y-86737715D01*
X103032714Y-86594858D01*
X102675571Y-85880572D02*
X103675571Y-85880572D01*
X102818429Y-85880572D02*
X102747000Y-85809144D01*
X102675571Y-85666286D01*
X102675571Y-85452001D01*
X102747000Y-85309144D01*
X102889857Y-85237715D01*
X103675571Y-85237715D01*
X103604143Y-83952001D02*
X103675571Y-84094858D01*
X103675571Y-84380572D01*
X103604143Y-84523429D01*
X103461286Y-84594858D01*
X102889857Y-84594858D01*
X102747000Y-84523429D01*
X102675571Y-84380572D01*
X102675571Y-84094858D01*
X102747000Y-83952001D01*
X102889857Y-83880572D01*
X103032714Y-83880572D01*
X103175571Y-84594858D01*
X103675571Y-83023429D02*
X103604143Y-83166287D01*
X103461286Y-83237715D01*
X102175571Y-83237715D01*
X103604143Y-82523430D02*
X103675571Y-82380573D01*
X103675571Y-82094858D01*
X103604143Y-81952001D01*
X103461286Y-81880573D01*
X103389857Y-81880573D01*
X103247000Y-81952001D01*
X103175571Y-82094858D01*
X103175571Y-82309144D01*
X103104143Y-82452001D01*
X102961286Y-82523430D01*
X102889857Y-82523430D01*
X102747000Y-82452001D01*
X102675571Y-82309144D01*
X102675571Y-82094858D01*
X102747000Y-81952001D01*
X150050572Y-61702143D02*
X151193429Y-61702143D01*
X150622000Y-62273571D02*
X150622000Y-61130714D01*
X133032572Y-62464143D02*
X134175429Y-62464143D01*
X133604000Y-63035571D02*
X133604000Y-61892714D01*
D12*
X144829000Y-81452000D02*
X144829000Y-77552000D01*
X147779000Y-77552000D02*
X147779000Y-81452000D01*
X155233000Y-87257000D02*
X155233000Y-88257000D01*
X156933000Y-88257000D02*
X156933000Y-87257000D01*
X152678500Y-95940500D02*
X152678500Y-94940500D01*
X150978500Y-94940500D02*
X150978500Y-95940500D01*
X173728000Y-88939000D02*
X172728000Y-88939000D01*
X172728000Y-90639000D02*
X173728000Y-90639000D01*
X160362000Y-95940500D02*
X160362000Y-94940500D01*
X158662000Y-94940500D02*
X158662000Y-95940500D01*
X119118000Y-104306000D02*
X118118000Y-104306000D01*
X118118000Y-106006000D02*
X119118000Y-106006000D01*
X121578000Y-80145000D02*
X121578000Y-81145000D01*
X123278000Y-81145000D02*
X123278000Y-80145000D01*
X127135000Y-87146500D02*
X128135000Y-87146500D01*
X128135000Y-85446500D02*
X127135000Y-85446500D01*
X145042000Y-86892500D02*
X146042000Y-86892500D01*
X146042000Y-85192500D02*
X145042000Y-85192500D01*
X130771000Y-71239000D02*
X130771000Y-70239000D01*
X129071000Y-70239000D02*
X129071000Y-71239000D01*
X147662000Y-70350000D02*
X147662000Y-69350000D01*
X145962000Y-69350000D02*
X145962000Y-70350000D01*
X113753000Y-61714000D02*
X113753000Y-60714000D01*
X112053000Y-60714000D02*
X112053000Y-61714000D01*
X107276000Y-73144000D02*
X107276000Y-72144000D01*
X105576000Y-72144000D02*
X105576000Y-73144000D01*
X111625000Y-77382000D02*
X110625000Y-77382000D01*
X110625000Y-79082000D02*
X111625000Y-79082000D01*
X123563000Y-68746000D02*
X122563000Y-68746000D01*
X122563000Y-70446000D02*
X123563000Y-70446000D01*
X109513000Y-66810000D02*
X109513000Y-67810000D01*
X111213000Y-67810000D02*
X111213000Y-66810000D01*
X125769000Y-62746000D02*
X125769000Y-63746000D01*
X127469000Y-63746000D02*
X127469000Y-62746000D01*
X136914000Y-103021500D02*
X137914000Y-103021500D01*
X137914000Y-101321500D02*
X136914000Y-101321500D01*
X136787000Y-115340500D02*
X137787000Y-115340500D01*
X137787000Y-113640500D02*
X136787000Y-113640500D01*
X128468500Y-109816000D02*
X129468500Y-109816000D01*
X129468500Y-108116000D02*
X128468500Y-108116000D01*
X132088000Y-103021500D02*
X133088000Y-103021500D01*
X133088000Y-101321500D02*
X132088000Y-101321500D01*
X132088000Y-100862500D02*
X133088000Y-100862500D01*
X133088000Y-99162500D02*
X132088000Y-99162500D01*
X170188000Y-70954000D02*
X171188000Y-70954000D01*
X171188000Y-69254000D02*
X170188000Y-69254000D01*
X172982000Y-58254000D02*
X173982000Y-58254000D01*
X173982000Y-56554000D02*
X172982000Y-56554000D01*
X168648000Y-56554000D02*
X167648000Y-56554000D01*
X167648000Y-58254000D02*
X168648000Y-58254000D01*
X123253500Y-92075000D02*
X123253500Y-92456000D01*
X123253500Y-91059000D02*
X123253500Y-91440000D01*
X123253500Y-91440000D02*
X123634500Y-92075000D01*
X123634500Y-92075000D02*
X122872500Y-92075000D01*
X122872500Y-92075000D02*
X123253500Y-91440000D01*
X123761500Y-91440000D02*
X122745500Y-91440000D01*
X122353500Y-89757500D02*
X122353500Y-93297500D01*
X124153500Y-89757500D02*
X124153500Y-93297500D01*
X165326060Y-97287080D02*
X165326060Y-97485200D01*
X165326060Y-97485200D02*
X165127940Y-97485200D01*
X165127940Y-97287080D02*
X165127940Y-97485200D01*
X165326060Y-97287080D02*
X165127940Y-97287080D01*
X165925500Y-97835720D02*
X165925500Y-98183700D01*
X165925500Y-98183700D02*
X165676580Y-98183700D01*
X165676580Y-97835720D02*
X165676580Y-98183700D01*
X165925500Y-97835720D02*
X165676580Y-97835720D01*
X165925500Y-98183700D02*
X165925500Y-98285300D01*
X165925500Y-98285300D02*
X164729160Y-98285300D01*
X164729160Y-98183700D02*
X164729160Y-98285300D01*
X165925500Y-98183700D02*
X164729160Y-98183700D01*
X164678360Y-98183700D02*
X164678360Y-98285300D01*
X164678360Y-98285300D02*
X164528500Y-98285300D01*
X164528500Y-98183700D02*
X164528500Y-98285300D01*
X164678360Y-98183700D02*
X164528500Y-98183700D01*
X165925500Y-96486980D02*
X165925500Y-96588580D01*
X165925500Y-96588580D02*
X164729160Y-96588580D01*
X164729160Y-96486980D02*
X164729160Y-96588580D01*
X165925500Y-96486980D02*
X164729160Y-96486980D01*
X164678360Y-96486980D02*
X164678360Y-96588580D01*
X164678360Y-96588580D02*
X164528500Y-96588580D01*
X164528500Y-96486980D02*
X164528500Y-96588580D01*
X164678360Y-96486980D02*
X164528500Y-96486980D01*
X165925500Y-97835720D02*
X165925500Y-97985580D01*
X165925500Y-97985580D02*
X165676580Y-97985580D01*
X165676580Y-97835720D02*
X165676580Y-97985580D01*
X165925500Y-97835720D02*
X165676580Y-97835720D01*
X165976300Y-98935540D02*
X165976300Y-95836740D01*
X165976300Y-95836740D02*
X164477700Y-95836740D01*
X164477700Y-95836740D02*
X164477700Y-98935540D01*
X164477700Y-98935540D02*
X165976300Y-98935540D01*
X165726354Y-96838878D02*
G75*
G02X165724840Y-97934780I-499354J-547262D01*
G01*
X164728602Y-96838007D02*
G75*
G02X165724840Y-96837500I498398J-548133D01*
G01*
X164727646Y-97933402D02*
G75*
G02X164729160Y-96837500I499354J547262D01*
G01*
X165725398Y-97934273D02*
G75*
G02X164729160Y-97934780I-498398J548133D01*
G01*
X129921000Y-65976500D02*
X129921000Y-66357500D01*
X129921000Y-64960500D02*
X129921000Y-65341500D01*
X129921000Y-65341500D02*
X130302000Y-65976500D01*
X130302000Y-65976500D02*
X129540000Y-65976500D01*
X129540000Y-65976500D02*
X129921000Y-65341500D01*
X130429000Y-65341500D02*
X129413000Y-65341500D01*
X129021000Y-63659000D02*
X129021000Y-67199000D01*
X130821000Y-63659000D02*
X130821000Y-67199000D01*
X146812000Y-65087500D02*
X146812000Y-65468500D01*
X146812000Y-64071500D02*
X146812000Y-64452500D01*
X146812000Y-64452500D02*
X147193000Y-65087500D01*
X147193000Y-65087500D02*
X146431000Y-65087500D01*
X146431000Y-65087500D02*
X146812000Y-64452500D01*
X147320000Y-64452500D02*
X146304000Y-64452500D01*
X145912000Y-62770000D02*
X145912000Y-66310000D01*
X147712000Y-62770000D02*
X147712000Y-66310000D01*
X124079000Y-62928500D02*
X124079000Y-62547500D01*
X124079000Y-63944500D02*
X124079000Y-63563500D01*
X124079000Y-63563500D02*
X123698000Y-62928500D01*
X123698000Y-62928500D02*
X124460000Y-62928500D01*
X124460000Y-62928500D02*
X124079000Y-63563500D01*
X123571000Y-63563500D02*
X124587000Y-63563500D01*
X124979000Y-65246000D02*
X124979000Y-61706000D01*
X123179000Y-65246000D02*
X123179000Y-61706000D01*
X128079500Y-102171500D02*
X128460500Y-102171500D01*
X127063500Y-102171500D02*
X127444500Y-102171500D01*
X127444500Y-102171500D02*
X128079500Y-101790500D01*
X128079500Y-101790500D02*
X128079500Y-102552500D01*
X128079500Y-102552500D02*
X127444500Y-102171500D01*
X127444500Y-101663500D02*
X127444500Y-102679500D01*
X125762000Y-103071500D02*
X129302000Y-103071500D01*
X125762000Y-101271500D02*
X129302000Y-101271500D01*
X128079500Y-104457500D02*
X128460500Y-104457500D01*
X127063500Y-104457500D02*
X127444500Y-104457500D01*
X127444500Y-104457500D02*
X128079500Y-104076500D01*
X128079500Y-104076500D02*
X128079500Y-104838500D01*
X128079500Y-104838500D02*
X127444500Y-104457500D01*
X127444500Y-103949500D02*
X127444500Y-104965500D01*
X125762000Y-105357500D02*
X129302000Y-105357500D01*
X125762000Y-103557500D02*
X129302000Y-103557500D01*
X174244000Y-98933000D02*
X179324000Y-98933000D01*
X171424000Y-99213000D02*
X171424000Y-97663000D01*
X171704000Y-96393000D02*
X174244000Y-96393000D01*
X174244000Y-96393000D02*
X174244000Y-98933000D01*
X179324000Y-98933000D02*
X179324000Y-93853000D01*
X179324000Y-93853000D02*
X174244000Y-93853000D01*
X171424000Y-99213000D02*
X172974000Y-99213000D01*
X171704000Y-93853000D02*
X171704000Y-96393000D01*
X174244000Y-93853000D02*
X171704000Y-93853000D01*
X140525500Y-100711000D02*
X154622500Y-100711000D01*
X154622500Y-115697000D02*
X140525500Y-115697000D01*
X140525500Y-100711000D02*
X140525500Y-115697000D01*
X154622500Y-100711000D02*
X154622500Y-115697000D01*
X138557000Y-71501000D02*
X138557000Y-68453000D01*
X138557000Y-68453000D02*
X131445000Y-68453000D01*
X131445000Y-68453000D02*
X131445000Y-71501000D01*
X138557000Y-74549000D02*
X138557000Y-75311000D01*
X138557000Y-75311000D02*
X137033000Y-77597000D01*
X137033000Y-77597000D02*
X132969000Y-77597000D01*
X132969000Y-77597000D02*
X131445000Y-75311000D01*
X131445000Y-75311000D02*
X131445000Y-74549000D01*
X155702000Y-70612000D02*
X155702000Y-67564000D01*
X155702000Y-67564000D02*
X148590000Y-67564000D01*
X148590000Y-67564000D02*
X148590000Y-70612000D01*
X155702000Y-73660000D02*
X155702000Y-74422000D01*
X155702000Y-74422000D02*
X154178000Y-76708000D01*
X154178000Y-76708000D02*
X150114000Y-76708000D01*
X150114000Y-76708000D02*
X148590000Y-74422000D01*
X148590000Y-74422000D02*
X148590000Y-73660000D01*
X119618000Y-94312000D02*
X117618000Y-94312000D01*
X117618000Y-91362000D02*
X119618000Y-91362000D01*
X119044000Y-88216000D02*
X115144000Y-88216000D01*
X115144000Y-85266000D02*
X119044000Y-85266000D01*
X170088000Y-64657000D02*
X171288000Y-64657000D01*
X171288000Y-66407000D02*
X170088000Y-66407000D01*
X170088000Y-66943000D02*
X171288000Y-66943000D01*
X171288000Y-68693000D02*
X170088000Y-68693000D01*
X141132000Y-69737000D02*
X142332000Y-69737000D01*
X142332000Y-71487000D02*
X141132000Y-71487000D01*
X176114000Y-93204000D02*
X174914000Y-93204000D01*
X174914000Y-91454000D02*
X176114000Y-91454000D01*
X173320000Y-83552000D02*
X172120000Y-83552000D01*
X172120000Y-81802000D02*
X173320000Y-81802000D01*
X169594500Y-78457500D02*
X169594500Y-79657500D01*
X167844500Y-79657500D02*
X167844500Y-78457500D01*
X166659000Y-99963000D02*
X167859000Y-99963000D01*
X167859000Y-101713000D02*
X166659000Y-101713000D01*
X111901000Y-97882000D02*
X111901000Y-96682000D01*
X113651000Y-96682000D02*
X113651000Y-97882000D01*
X111365000Y-96682000D02*
X111365000Y-97882000D01*
X109615000Y-97882000D02*
X109615000Y-96682000D01*
X118780000Y-88660000D02*
X119980000Y-88660000D01*
X119980000Y-90410000D02*
X118780000Y-90410000D01*
X113827000Y-88660000D02*
X115027000Y-88660000D01*
X115027000Y-90410000D02*
X113827000Y-90410000D01*
X116191000Y-96682000D02*
X116191000Y-97882000D01*
X114441000Y-97882000D02*
X114441000Y-96682000D01*
X122139000Y-84949000D02*
X120939000Y-84949000D01*
X120939000Y-83199000D02*
X122139000Y-83199000D01*
X119218000Y-103745000D02*
X118018000Y-103745000D01*
X118018000Y-101995000D02*
X119218000Y-101995000D01*
X121017000Y-79918000D02*
X121017000Y-81118000D01*
X119267000Y-81118000D02*
X119267000Y-79918000D01*
X112868000Y-106539000D02*
X111668000Y-106539000D01*
X111668000Y-104789000D02*
X112868000Y-104789000D01*
X127240000Y-82077000D02*
X127240000Y-83277000D01*
X125490000Y-83277000D02*
X125490000Y-82077000D01*
X144385000Y-81696000D02*
X144385000Y-82896000D01*
X142635000Y-82896000D02*
X142635000Y-81696000D01*
X127684000Y-81833000D02*
X127684000Y-77933000D01*
X130634000Y-77933000D02*
X130634000Y-81833000D01*
X127240000Y-76489000D02*
X127240000Y-77689000D01*
X125490000Y-77689000D02*
X125490000Y-76489000D01*
X144385000Y-76108000D02*
X144385000Y-77308000D01*
X142635000Y-77308000D02*
X142635000Y-76108000D01*
X134331000Y-83806000D02*
X133131000Y-83806000D01*
X133131000Y-82056000D02*
X134331000Y-82056000D01*
X151222000Y-83171000D02*
X150022000Y-83171000D01*
X150022000Y-81421000D02*
X151222000Y-81421000D01*
X139968000Y-78959000D02*
X139968000Y-77759000D01*
X141718000Y-77759000D02*
X141718000Y-78959000D01*
X156478000Y-75974500D02*
X156478000Y-74774500D01*
X158228000Y-74774500D02*
X158228000Y-75974500D01*
X117129000Y-66435000D02*
X118329000Y-66435000D01*
X118329000Y-68185000D02*
X117129000Y-68185000D01*
X122463000Y-66435000D02*
X123663000Y-66435000D01*
X123663000Y-68185000D02*
X122463000Y-68185000D01*
X113778000Y-66710000D02*
X113778000Y-67910000D01*
X112028000Y-67910000D02*
X112028000Y-66710000D01*
X111238000Y-60614000D02*
X111238000Y-61814000D01*
X109488000Y-61814000D02*
X109488000Y-60614000D01*
X139622500Y-110080500D02*
X139622500Y-111280500D01*
X137872500Y-111280500D02*
X137872500Y-110080500D01*
X137872500Y-106327500D02*
X137872500Y-105127500D01*
X139622500Y-105127500D02*
X139622500Y-106327500D01*
X127202500Y-100887500D02*
X126002500Y-100887500D01*
X126002500Y-99137500D02*
X127202500Y-99137500D01*
X127409500Y-107618500D02*
X126209500Y-107618500D01*
X126209500Y-105868500D02*
X127409500Y-105868500D01*
X176184000Y-71007000D02*
X177384000Y-71007000D01*
X177384000Y-72757000D02*
X176184000Y-72757000D01*
X177384000Y-75043000D02*
X176184000Y-75043000D01*
X176184000Y-73293000D02*
X177384000Y-73293000D01*
X177384000Y-77329000D02*
X176184000Y-77329000D01*
X176184000Y-75579000D02*
X177384000Y-75579000D01*
X131419000Y-85979000D02*
X131419000Y-84429000D01*
X132969000Y-84429000D02*
X131419000Y-84429000D01*
X131699000Y-87249000D02*
X134239000Y-87249000D01*
X136779000Y-84709000D02*
X134239000Y-84709000D01*
X134239000Y-84709000D02*
X134239000Y-87249000D01*
X134239000Y-87249000D02*
X136779000Y-87249000D01*
X136779000Y-87249000D02*
X136779000Y-84709000D01*
X149860000Y-83730500D02*
X151410000Y-83730500D01*
X151410000Y-85280500D02*
X151410000Y-83730500D01*
X148590000Y-84010500D02*
X148590000Y-86550500D01*
X151130000Y-89090500D02*
X151130000Y-86550500D01*
X151130000Y-86550500D02*
X148590000Y-86550500D01*
X148590000Y-86550500D02*
X148590000Y-89090500D01*
X148590000Y-89090500D02*
X151130000Y-89090500D01*
X141508480Y-65963800D02*
X141508480Y-66454020D01*
X142209520Y-65963800D02*
X141508480Y-65963800D01*
X142209520Y-69164200D02*
X141508480Y-69164200D01*
X160713000Y-83370000D02*
X160713000Y-83695000D01*
X167963000Y-83370000D02*
X167963000Y-83695000D01*
X167963000Y-90620000D02*
X167963000Y-90295000D01*
X160713000Y-90620000D02*
X160713000Y-90295000D01*
X160713000Y-83370000D02*
X161038000Y-83370000D01*
X160713000Y-90620000D02*
X161038000Y-90620000D01*
X167963000Y-90620000D02*
X167638000Y-90620000D01*
X167963000Y-83370000D02*
X167638000Y-83370000D01*
X160713000Y-83695000D02*
X159288000Y-83695000D01*
X120293000Y-96623000D02*
X120043000Y-96623000D01*
X120293000Y-99973000D02*
X120043000Y-99973000D01*
X116943000Y-99973000D02*
X117193000Y-99973000D01*
X116943000Y-96623000D02*
X117193000Y-96623000D01*
X120293000Y-96623000D02*
X120293000Y-99973000D01*
X116943000Y-96623000D02*
X116943000Y-99973000D01*
X120043000Y-96623000D02*
X120043000Y-95373000D01*
X115419000Y-83082000D02*
X115669000Y-83082000D01*
X115419000Y-79732000D02*
X115669000Y-79732000D01*
X118769000Y-79732000D02*
X118519000Y-79732000D01*
X118769000Y-83082000D02*
X118519000Y-83082000D01*
X115419000Y-83082000D02*
X115419000Y-79732000D01*
X118769000Y-83082000D02*
X118769000Y-79732000D01*
X115669000Y-83082000D02*
X115669000Y-84332000D01*
X113943000Y-104291000D02*
X113943000Y-103991000D01*
X110593000Y-104291000D02*
X110593000Y-103991000D01*
X110593000Y-100941000D02*
X110593000Y-101241000D01*
X113943000Y-100941000D02*
X113943000Y-101241000D01*
X113943000Y-104291000D02*
X110593000Y-104291000D01*
X113943000Y-100941000D02*
X110593000Y-100941000D01*
X113943000Y-103991000D02*
X115168000Y-103991000D01*
X132930000Y-78258000D02*
X132930000Y-78458000D01*
X137580000Y-78258000D02*
X137580000Y-78458000D01*
X137580000Y-81508000D02*
X137580000Y-81308000D01*
X132930000Y-81508000D02*
X132930000Y-81308000D01*
X132930000Y-78258000D02*
X137580000Y-78258000D01*
X132930000Y-81508000D02*
X137580000Y-81508000D01*
X132930000Y-78458000D02*
X131580000Y-78458000D01*
X149821000Y-77623000D02*
X149821000Y-77823000D01*
X154471000Y-77623000D02*
X154471000Y-77823000D01*
X154471000Y-80873000D02*
X154471000Y-80673000D01*
X149821000Y-80873000D02*
X149821000Y-80673000D01*
X149821000Y-77623000D02*
X154471000Y-77623000D01*
X149821000Y-80873000D02*
X154471000Y-80873000D01*
X149821000Y-77823000D02*
X148471000Y-77823000D01*
X112268000Y-74803000D02*
X109093000Y-74803000D01*
X109093000Y-74803000D02*
X109093000Y-76581000D01*
X109093000Y-76581000D02*
X112268000Y-76581000D01*
X112268000Y-70231000D02*
X109093000Y-70231000D01*
X109093000Y-70231000D02*
X109093000Y-72009000D01*
X109093000Y-72009000D02*
X112268000Y-72009000D01*
X118364000Y-76835000D02*
X112268000Y-76835000D01*
X112268000Y-76835000D02*
X112268000Y-69977000D01*
X112268000Y-69977000D02*
X120142000Y-69977000D01*
X120269000Y-69977000D02*
X120269000Y-76835000D01*
X120142000Y-76835000D02*
X118364000Y-76835000D01*
X116054000Y-62333000D02*
X116054000Y-62583000D01*
X119404000Y-62333000D02*
X119404000Y-62583000D01*
X119404000Y-65683000D02*
X119404000Y-65433000D01*
X116054000Y-65683000D02*
X116054000Y-65433000D01*
X116054000Y-62333000D02*
X119404000Y-62333000D01*
X116054000Y-65683000D02*
X119404000Y-65683000D01*
X116054000Y-62583000D02*
X114804000Y-62583000D01*
X137394500Y-110204000D02*
X137394500Y-106204000D01*
X132099500Y-111479000D02*
X132099500Y-106204000D01*
X168862571Y-71496000D02*
X168862571Y-71746000D01*
X172212571Y-71496000D02*
X172212571Y-71746000D01*
X172212571Y-74846000D02*
X172212571Y-74596000D01*
X168862571Y-74846000D02*
X168862571Y-74596000D01*
X168862571Y-71496000D02*
X172212571Y-71496000D01*
X168862571Y-74846000D02*
X172212571Y-74846000D01*
X168862571Y-71746000D02*
X167612571Y-71746000D01*
X121412000Y-57912000D02*
G75*
G03X121412000Y-57912000I-3429000J0D01*
G01*
X140640000Y-61995000D02*
G75*
G03X140640000Y-61995000I-100000J0D01*
G01*
X140790000Y-61345000D02*
X140790000Y-61845000D01*
X143690000Y-61345000D02*
X140790000Y-61345000D01*
X143690000Y-61845000D02*
X143690000Y-61345000D01*
X140790000Y-61845000D02*
X143690000Y-61845000D01*
X154051000Y-92456000D02*
X154051000Y-96266000D01*
X157353000Y-92456000D02*
X157353000Y-96266000D01*
X105505000Y-114935000D02*
G75*
G03X105505000Y-114935000I-2000000J0D01*
G01*
X105505000Y-56515000D02*
G75*
G03X105505000Y-56515000I-2000000J0D01*
G01*
X184245000Y-56515000D02*
G75*
G03X184245000Y-56515000I-2000000J0D01*
G01*
X184245000Y-114935000D02*
G75*
G03X184245000Y-114935000I-2000000J0D01*
G01*
X169188000Y-63968000D02*
X172188000Y-63968000D01*
X167188000Y-58968000D02*
X169188000Y-58968000D01*
X169188000Y-58968000D02*
X169188000Y-58718000D01*
X169188000Y-58718000D02*
X172188000Y-58718000D01*
X172188000Y-58718000D02*
X172188000Y-58968000D01*
X105185000Y-95363000D02*
X112185000Y-95363000D01*
X112185000Y-87263000D02*
X112185000Y-95363000D01*
X112185000Y-87263000D02*
X105185000Y-87263000D01*
X105185000Y-95363000D02*
X105185000Y-87263000D01*
X154842000Y-67232000D02*
X154842000Y-62732000D01*
X148942000Y-67232000D02*
X148942000Y-62732000D01*
X148942000Y-62732000D02*
X154842000Y-62732000D01*
X148942000Y-67232000D02*
X154842000Y-67232000D01*
X137697000Y-67994000D02*
X137697000Y-63494000D01*
X131797000Y-67994000D02*
X131797000Y-63494000D01*
X131797000Y-63494000D02*
X137697000Y-63494000D01*
X131797000Y-67994000D02*
X137697000Y-67994000D01*
X149456381Y-80144857D02*
X148980190Y-80478191D01*
X149456381Y-80716286D02*
X148456381Y-80716286D01*
X148456381Y-80335333D01*
X148504000Y-80240095D01*
X148551619Y-80192476D01*
X148646857Y-80144857D01*
X148789714Y-80144857D01*
X148884952Y-80192476D01*
X148932571Y-80240095D01*
X148980190Y-80335333D01*
X148980190Y-80716286D01*
X148551619Y-79763905D02*
X148504000Y-79716286D01*
X148456381Y-79621048D01*
X148456381Y-79382952D01*
X148504000Y-79287714D01*
X148551619Y-79240095D01*
X148646857Y-79192476D01*
X148742095Y-79192476D01*
X148884952Y-79240095D01*
X149456381Y-79811524D01*
X149456381Y-79192476D01*
X148551619Y-78811524D02*
X148504000Y-78763905D01*
X148456381Y-78668667D01*
X148456381Y-78430571D01*
X148504000Y-78335333D01*
X148551619Y-78287714D01*
X148646857Y-78240095D01*
X148742095Y-78240095D01*
X148884952Y-78287714D01*
X149456381Y-78859143D01*
X149456381Y-78240095D01*
X154340143Y-87923666D02*
X154387762Y-87971285D01*
X154435381Y-88114142D01*
X154435381Y-88209380D01*
X154387762Y-88352238D01*
X154292524Y-88447476D01*
X154197286Y-88495095D01*
X154006810Y-88542714D01*
X153863952Y-88542714D01*
X153673476Y-88495095D01*
X153578238Y-88447476D01*
X153483000Y-88352238D01*
X153435381Y-88209380D01*
X153435381Y-88114142D01*
X153483000Y-87971285D01*
X153530619Y-87923666D01*
X154435381Y-86971285D02*
X154435381Y-87542714D01*
X154435381Y-87257000D02*
X153435381Y-87257000D01*
X153578238Y-87352238D01*
X153673476Y-87447476D01*
X153721095Y-87542714D01*
X154285643Y-95607166D02*
X154333262Y-95654785D01*
X154380881Y-95797642D01*
X154380881Y-95892880D01*
X154333262Y-96035738D01*
X154238024Y-96130976D01*
X154142786Y-96178595D01*
X153952310Y-96226214D01*
X153809452Y-96226214D01*
X153618976Y-96178595D01*
X153523738Y-96130976D01*
X153428500Y-96035738D01*
X153380881Y-95892880D01*
X153380881Y-95797642D01*
X153428500Y-95654785D01*
X153476119Y-95607166D01*
X153476119Y-95226214D02*
X153428500Y-95178595D01*
X153380881Y-95083357D01*
X153380881Y-94845261D01*
X153428500Y-94750023D01*
X153476119Y-94702404D01*
X153571357Y-94654785D01*
X153666595Y-94654785D01*
X153809452Y-94702404D01*
X154380881Y-95273833D01*
X154380881Y-94654785D01*
X173061334Y-88046143D02*
X173013715Y-88093762D01*
X172870858Y-88141381D01*
X172775620Y-88141381D01*
X172632762Y-88093762D01*
X172537524Y-87998524D01*
X172489905Y-87903286D01*
X172442286Y-87712810D01*
X172442286Y-87569952D01*
X172489905Y-87379476D01*
X172537524Y-87284238D01*
X172632762Y-87189000D01*
X172775620Y-87141381D01*
X172870858Y-87141381D01*
X173013715Y-87189000D01*
X173061334Y-87236619D01*
X173394667Y-87141381D02*
X174013715Y-87141381D01*
X173680381Y-87522333D01*
X173823239Y-87522333D01*
X173918477Y-87569952D01*
X173966096Y-87617571D01*
X174013715Y-87712810D01*
X174013715Y-87950905D01*
X173966096Y-88046143D01*
X173918477Y-88093762D01*
X173823239Y-88141381D01*
X173537524Y-88141381D01*
X173442286Y-88093762D01*
X173394667Y-88046143D01*
X161969143Y-95607166D02*
X162016762Y-95654785D01*
X162064381Y-95797642D01*
X162064381Y-95892880D01*
X162016762Y-96035738D01*
X161921524Y-96130976D01*
X161826286Y-96178595D01*
X161635810Y-96226214D01*
X161492952Y-96226214D01*
X161302476Y-96178595D01*
X161207238Y-96130976D01*
X161112000Y-96035738D01*
X161064381Y-95892880D01*
X161064381Y-95797642D01*
X161112000Y-95654785D01*
X161159619Y-95607166D01*
X161397714Y-94750023D02*
X162064381Y-94750023D01*
X161016762Y-94988119D02*
X161731048Y-95226214D01*
X161731048Y-94607166D01*
X118451334Y-103413143D02*
X118403715Y-103460762D01*
X118260858Y-103508381D01*
X118165620Y-103508381D01*
X118022762Y-103460762D01*
X117927524Y-103365524D01*
X117879905Y-103270286D01*
X117832286Y-103079810D01*
X117832286Y-102936952D01*
X117879905Y-102746476D01*
X117927524Y-102651238D01*
X118022762Y-102556000D01*
X118165620Y-102508381D01*
X118260858Y-102508381D01*
X118403715Y-102556000D01*
X118451334Y-102603619D01*
X119356096Y-102508381D02*
X118879905Y-102508381D01*
X118832286Y-102984571D01*
X118879905Y-102936952D01*
X118975143Y-102889333D01*
X119213239Y-102889333D01*
X119308477Y-102936952D01*
X119356096Y-102984571D01*
X119403715Y-103079810D01*
X119403715Y-103317905D01*
X119356096Y-103413143D01*
X119308477Y-103460762D01*
X119213239Y-103508381D01*
X118975143Y-103508381D01*
X118879905Y-103460762D01*
X118832286Y-103413143D01*
X120685143Y-80811666D02*
X120732762Y-80859285D01*
X120780381Y-81002142D01*
X120780381Y-81097380D01*
X120732762Y-81240238D01*
X120637524Y-81335476D01*
X120542286Y-81383095D01*
X120351810Y-81430714D01*
X120208952Y-81430714D01*
X120018476Y-81383095D01*
X119923238Y-81335476D01*
X119828000Y-81240238D01*
X119780381Y-81097380D01*
X119780381Y-81002142D01*
X119828000Y-80859285D01*
X119875619Y-80811666D01*
X119780381Y-79954523D02*
X119780381Y-80145000D01*
X119828000Y-80240238D01*
X119875619Y-80287857D01*
X120018476Y-80383095D01*
X120208952Y-80430714D01*
X120589905Y-80430714D01*
X120685143Y-80383095D01*
X120732762Y-80335476D01*
X120780381Y-80240238D01*
X120780381Y-80049761D01*
X120732762Y-79954523D01*
X120685143Y-79906904D01*
X120589905Y-79859285D01*
X120351810Y-79859285D01*
X120256571Y-79906904D01*
X120208952Y-79954523D01*
X120161333Y-80049761D01*
X120161333Y-80240238D01*
X120208952Y-80335476D01*
X120256571Y-80383095D01*
X120351810Y-80430714D01*
X127468334Y-88753643D02*
X127420715Y-88801262D01*
X127277858Y-88848881D01*
X127182620Y-88848881D01*
X127039762Y-88801262D01*
X126944524Y-88706024D01*
X126896905Y-88610786D01*
X126849286Y-88420310D01*
X126849286Y-88277452D01*
X126896905Y-88086976D01*
X126944524Y-87991738D01*
X127039762Y-87896500D01*
X127182620Y-87848881D01*
X127277858Y-87848881D01*
X127420715Y-87896500D01*
X127468334Y-87944119D01*
X127801667Y-87848881D02*
X128468334Y-87848881D01*
X128039762Y-88848881D01*
X145375334Y-88499643D02*
X145327715Y-88547262D01*
X145184858Y-88594881D01*
X145089620Y-88594881D01*
X144946762Y-88547262D01*
X144851524Y-88452024D01*
X144803905Y-88356786D01*
X144756286Y-88166310D01*
X144756286Y-88023452D01*
X144803905Y-87832976D01*
X144851524Y-87737738D01*
X144946762Y-87642500D01*
X145089620Y-87594881D01*
X145184858Y-87594881D01*
X145327715Y-87642500D01*
X145375334Y-87690119D01*
X145946762Y-88023452D02*
X145851524Y-87975833D01*
X145803905Y-87928214D01*
X145756286Y-87832976D01*
X145756286Y-87785357D01*
X145803905Y-87690119D01*
X145851524Y-87642500D01*
X145946762Y-87594881D01*
X146137239Y-87594881D01*
X146232477Y-87642500D01*
X146280096Y-87690119D01*
X146327715Y-87785357D01*
X146327715Y-87832976D01*
X146280096Y-87928214D01*
X146232477Y-87975833D01*
X146137239Y-88023452D01*
X145946762Y-88023452D01*
X145851524Y-88071071D01*
X145803905Y-88118690D01*
X145756286Y-88213929D01*
X145756286Y-88404405D01*
X145803905Y-88499643D01*
X145851524Y-88547262D01*
X145946762Y-88594881D01*
X146137239Y-88594881D01*
X146232477Y-88547262D01*
X146280096Y-88499643D01*
X146327715Y-88404405D01*
X146327715Y-88213929D01*
X146280096Y-88118690D01*
X146232477Y-88071071D01*
X146137239Y-88023452D01*
X132378143Y-70905666D02*
X132425762Y-70953285D01*
X132473381Y-71096142D01*
X132473381Y-71191380D01*
X132425762Y-71334238D01*
X132330524Y-71429476D01*
X132235286Y-71477095D01*
X132044810Y-71524714D01*
X131901952Y-71524714D01*
X131711476Y-71477095D01*
X131616238Y-71429476D01*
X131521000Y-71334238D01*
X131473381Y-71191380D01*
X131473381Y-71096142D01*
X131521000Y-70953285D01*
X131568619Y-70905666D01*
X132473381Y-70429476D02*
X132473381Y-70239000D01*
X132425762Y-70143761D01*
X132378143Y-70096142D01*
X132235286Y-70000904D01*
X132044810Y-69953285D01*
X131663857Y-69953285D01*
X131568619Y-70000904D01*
X131521000Y-70048523D01*
X131473381Y-70143761D01*
X131473381Y-70334238D01*
X131521000Y-70429476D01*
X131568619Y-70477095D01*
X131663857Y-70524714D01*
X131901952Y-70524714D01*
X131997190Y-70477095D01*
X132044810Y-70429476D01*
X132092429Y-70334238D01*
X132092429Y-70143761D01*
X132044810Y-70048523D01*
X131997190Y-70000904D01*
X131901952Y-69953285D01*
X149269143Y-70492857D02*
X149316762Y-70540476D01*
X149364381Y-70683333D01*
X149364381Y-70778571D01*
X149316762Y-70921429D01*
X149221524Y-71016667D01*
X149126286Y-71064286D01*
X148935810Y-71111905D01*
X148792952Y-71111905D01*
X148602476Y-71064286D01*
X148507238Y-71016667D01*
X148412000Y-70921429D01*
X148364381Y-70778571D01*
X148364381Y-70683333D01*
X148412000Y-70540476D01*
X148459619Y-70492857D01*
X149364381Y-69540476D02*
X149364381Y-70111905D01*
X149364381Y-69826191D02*
X148364381Y-69826191D01*
X148507238Y-69921429D01*
X148602476Y-70016667D01*
X148650095Y-70111905D01*
X148364381Y-68921429D02*
X148364381Y-68826190D01*
X148412000Y-68730952D01*
X148459619Y-68683333D01*
X148554857Y-68635714D01*
X148745333Y-68588095D01*
X148983429Y-68588095D01*
X149173905Y-68635714D01*
X149269143Y-68683333D01*
X149316762Y-68730952D01*
X149364381Y-68826190D01*
X149364381Y-68921429D01*
X149316762Y-69016667D01*
X149269143Y-69064286D01*
X149173905Y-69111905D01*
X148983429Y-69159524D01*
X148745333Y-69159524D01*
X148554857Y-69111905D01*
X148459619Y-69064286D01*
X148412000Y-69016667D01*
X148364381Y-68921429D01*
X115360143Y-61856857D02*
X115407762Y-61904476D01*
X115455381Y-62047333D01*
X115455381Y-62142571D01*
X115407762Y-62285429D01*
X115312524Y-62380667D01*
X115217286Y-62428286D01*
X115026810Y-62475905D01*
X114883952Y-62475905D01*
X114693476Y-62428286D01*
X114598238Y-62380667D01*
X114503000Y-62285429D01*
X114455381Y-62142571D01*
X114455381Y-62047333D01*
X114503000Y-61904476D01*
X114550619Y-61856857D01*
X115455381Y-60904476D02*
X115455381Y-61475905D01*
X115455381Y-61190191D02*
X114455381Y-61190191D01*
X114598238Y-61285429D01*
X114693476Y-61380667D01*
X114741095Y-61475905D01*
X115455381Y-59952095D02*
X115455381Y-60523524D01*
X115455381Y-60237810D02*
X114455381Y-60237810D01*
X114598238Y-60333048D01*
X114693476Y-60428286D01*
X114741095Y-60523524D01*
X108883143Y-73286857D02*
X108930762Y-73334476D01*
X108978381Y-73477333D01*
X108978381Y-73572571D01*
X108930762Y-73715429D01*
X108835524Y-73810667D01*
X108740286Y-73858286D01*
X108549810Y-73905905D01*
X108406952Y-73905905D01*
X108216476Y-73858286D01*
X108121238Y-73810667D01*
X108026000Y-73715429D01*
X107978381Y-73572571D01*
X107978381Y-73477333D01*
X108026000Y-73334476D01*
X108073619Y-73286857D01*
X108978381Y-72334476D02*
X108978381Y-72905905D01*
X108978381Y-72620191D02*
X107978381Y-72620191D01*
X108121238Y-72715429D01*
X108216476Y-72810667D01*
X108264095Y-72905905D01*
X108073619Y-71953524D02*
X108026000Y-71905905D01*
X107978381Y-71810667D01*
X107978381Y-71572571D01*
X108026000Y-71477333D01*
X108073619Y-71429714D01*
X108168857Y-71382095D01*
X108264095Y-71382095D01*
X108406952Y-71429714D01*
X108978381Y-72001143D01*
X108978381Y-71382095D01*
X110482143Y-76489143D02*
X110434524Y-76536762D01*
X110291667Y-76584381D01*
X110196429Y-76584381D01*
X110053571Y-76536762D01*
X109958333Y-76441524D01*
X109910714Y-76346286D01*
X109863095Y-76155810D01*
X109863095Y-76012952D01*
X109910714Y-75822476D01*
X109958333Y-75727238D01*
X110053571Y-75632000D01*
X110196429Y-75584381D01*
X110291667Y-75584381D01*
X110434524Y-75632000D01*
X110482143Y-75679619D01*
X111434524Y-76584381D02*
X110863095Y-76584381D01*
X111148809Y-76584381D02*
X111148809Y-75584381D01*
X111053571Y-75727238D01*
X110958333Y-75822476D01*
X110863095Y-75870095D01*
X111767857Y-75584381D02*
X112386905Y-75584381D01*
X112053571Y-75965333D01*
X112196429Y-75965333D01*
X112291667Y-76012952D01*
X112339286Y-76060571D01*
X112386905Y-76155810D01*
X112386905Y-76393905D01*
X112339286Y-76489143D01*
X112291667Y-76536762D01*
X112196429Y-76584381D01*
X111910714Y-76584381D01*
X111815476Y-76536762D01*
X111767857Y-76489143D01*
X122420143Y-67853143D02*
X122372524Y-67900762D01*
X122229667Y-67948381D01*
X122134429Y-67948381D01*
X121991571Y-67900762D01*
X121896333Y-67805524D01*
X121848714Y-67710286D01*
X121801095Y-67519810D01*
X121801095Y-67376952D01*
X121848714Y-67186476D01*
X121896333Y-67091238D01*
X121991571Y-66996000D01*
X122134429Y-66948381D01*
X122229667Y-66948381D01*
X122372524Y-66996000D01*
X122420143Y-67043619D01*
X123372524Y-67948381D02*
X122801095Y-67948381D01*
X123086809Y-67948381D02*
X123086809Y-66948381D01*
X122991571Y-67091238D01*
X122896333Y-67186476D01*
X122801095Y-67234095D01*
X124229667Y-67281714D02*
X124229667Y-67948381D01*
X123991571Y-66900762D02*
X123753476Y-67615048D01*
X124372524Y-67615048D01*
X108620143Y-67952857D02*
X108667762Y-68000476D01*
X108715381Y-68143333D01*
X108715381Y-68238571D01*
X108667762Y-68381429D01*
X108572524Y-68476667D01*
X108477286Y-68524286D01*
X108286810Y-68571905D01*
X108143952Y-68571905D01*
X107953476Y-68524286D01*
X107858238Y-68476667D01*
X107763000Y-68381429D01*
X107715381Y-68238571D01*
X107715381Y-68143333D01*
X107763000Y-68000476D01*
X107810619Y-67952857D01*
X108715381Y-67000476D02*
X108715381Y-67571905D01*
X108715381Y-67286191D02*
X107715381Y-67286191D01*
X107858238Y-67381429D01*
X107953476Y-67476667D01*
X108001095Y-67571905D01*
X107715381Y-66095714D02*
X107715381Y-66571905D01*
X108191571Y-66619524D01*
X108143952Y-66571905D01*
X108096333Y-66476667D01*
X108096333Y-66238571D01*
X108143952Y-66143333D01*
X108191571Y-66095714D01*
X108286810Y-66048095D01*
X108524905Y-66048095D01*
X108620143Y-66095714D01*
X108667762Y-66143333D01*
X108715381Y-66238571D01*
X108715381Y-66476667D01*
X108667762Y-66571905D01*
X108620143Y-66619524D01*
X124876143Y-63888857D02*
X124923762Y-63936476D01*
X124971381Y-64079333D01*
X124971381Y-64174571D01*
X124923762Y-64317429D01*
X124828524Y-64412667D01*
X124733286Y-64460286D01*
X124542810Y-64507905D01*
X124399952Y-64507905D01*
X124209476Y-64460286D01*
X124114238Y-64412667D01*
X124019000Y-64317429D01*
X123971381Y-64174571D01*
X123971381Y-64079333D01*
X124019000Y-63936476D01*
X124066619Y-63888857D01*
X124971381Y-62936476D02*
X124971381Y-63507905D01*
X124971381Y-63222191D02*
X123971381Y-63222191D01*
X124114238Y-63317429D01*
X124209476Y-63412667D01*
X124257095Y-63507905D01*
X123971381Y-62079333D02*
X123971381Y-62269810D01*
X124019000Y-62365048D01*
X124066619Y-62412667D01*
X124209476Y-62507905D01*
X124399952Y-62555524D01*
X124780905Y-62555524D01*
X124876143Y-62507905D01*
X124923762Y-62460286D01*
X124971381Y-62365048D01*
X124971381Y-62174571D01*
X124923762Y-62079333D01*
X124876143Y-62031714D01*
X124780905Y-61984095D01*
X124542810Y-61984095D01*
X124447571Y-62031714D01*
X124399952Y-62079333D01*
X124352333Y-62174571D01*
X124352333Y-62365048D01*
X124399952Y-62460286D01*
X124447571Y-62507905D01*
X124542810Y-62555524D01*
X136771143Y-104628643D02*
X136723524Y-104676262D01*
X136580667Y-104723881D01*
X136485429Y-104723881D01*
X136342571Y-104676262D01*
X136247333Y-104581024D01*
X136199714Y-104485786D01*
X136152095Y-104295310D01*
X136152095Y-104152452D01*
X136199714Y-103961976D01*
X136247333Y-103866738D01*
X136342571Y-103771500D01*
X136485429Y-103723881D01*
X136580667Y-103723881D01*
X136723524Y-103771500D01*
X136771143Y-103819119D01*
X137723524Y-104723881D02*
X137152095Y-104723881D01*
X137437809Y-104723881D02*
X137437809Y-103723881D01*
X137342571Y-103866738D01*
X137247333Y-103961976D01*
X137152095Y-104009595D01*
X138056857Y-103723881D02*
X138723524Y-103723881D01*
X138294952Y-104723881D01*
X136644143Y-116947643D02*
X136596524Y-116995262D01*
X136453667Y-117042881D01*
X136358429Y-117042881D01*
X136215571Y-116995262D01*
X136120333Y-116900024D01*
X136072714Y-116804786D01*
X136025095Y-116614310D01*
X136025095Y-116471452D01*
X136072714Y-116280976D01*
X136120333Y-116185738D01*
X136215571Y-116090500D01*
X136358429Y-116042881D01*
X136453667Y-116042881D01*
X136596524Y-116090500D01*
X136644143Y-116138119D01*
X137596524Y-117042881D02*
X137025095Y-117042881D01*
X137310809Y-117042881D02*
X137310809Y-116042881D01*
X137215571Y-116185738D01*
X137120333Y-116280976D01*
X137025095Y-116328595D01*
X138167952Y-116471452D02*
X138072714Y-116423833D01*
X138025095Y-116376214D01*
X137977476Y-116280976D01*
X137977476Y-116233357D01*
X138025095Y-116138119D01*
X138072714Y-116090500D01*
X138167952Y-116042881D01*
X138358429Y-116042881D01*
X138453667Y-116090500D01*
X138501286Y-116138119D01*
X138548905Y-116233357D01*
X138548905Y-116280976D01*
X138501286Y-116376214D01*
X138453667Y-116423833D01*
X138358429Y-116471452D01*
X138167952Y-116471452D01*
X138072714Y-116519071D01*
X138025095Y-116566690D01*
X137977476Y-116661929D01*
X137977476Y-116852405D01*
X138025095Y-116947643D01*
X138072714Y-116995262D01*
X138167952Y-117042881D01*
X138358429Y-117042881D01*
X138453667Y-116995262D01*
X138501286Y-116947643D01*
X138548905Y-116852405D01*
X138548905Y-116661929D01*
X138501286Y-116566690D01*
X138453667Y-116519071D01*
X138358429Y-116471452D01*
X128325643Y-111423143D02*
X128278024Y-111470762D01*
X128135167Y-111518381D01*
X128039929Y-111518381D01*
X127897071Y-111470762D01*
X127801833Y-111375524D01*
X127754214Y-111280286D01*
X127706595Y-111089810D01*
X127706595Y-110946952D01*
X127754214Y-110756476D01*
X127801833Y-110661238D01*
X127897071Y-110566000D01*
X128039929Y-110518381D01*
X128135167Y-110518381D01*
X128278024Y-110566000D01*
X128325643Y-110613619D01*
X129278024Y-111518381D02*
X128706595Y-111518381D01*
X128992309Y-111518381D02*
X128992309Y-110518381D01*
X128897071Y-110661238D01*
X128801833Y-110756476D01*
X128706595Y-110804095D01*
X129754214Y-111518381D02*
X129944690Y-111518381D01*
X130039929Y-111470762D01*
X130087548Y-111423143D01*
X130182786Y-111280286D01*
X130230405Y-111089810D01*
X130230405Y-110708857D01*
X130182786Y-110613619D01*
X130135167Y-110566000D01*
X130039929Y-110518381D01*
X129849452Y-110518381D01*
X129754214Y-110566000D01*
X129706595Y-110613619D01*
X129658976Y-110708857D01*
X129658976Y-110946952D01*
X129706595Y-111042190D01*
X129754214Y-111089810D01*
X129849452Y-111137429D01*
X130039929Y-111137429D01*
X130135167Y-111089810D01*
X130182786Y-111042190D01*
X130230405Y-110946952D01*
X131945143Y-104628643D02*
X131897524Y-104676262D01*
X131754667Y-104723881D01*
X131659429Y-104723881D01*
X131516571Y-104676262D01*
X131421333Y-104581024D01*
X131373714Y-104485786D01*
X131326095Y-104295310D01*
X131326095Y-104152452D01*
X131373714Y-103961976D01*
X131421333Y-103866738D01*
X131516571Y-103771500D01*
X131659429Y-103723881D01*
X131754667Y-103723881D01*
X131897524Y-103771500D01*
X131945143Y-103819119D01*
X132326095Y-103819119D02*
X132373714Y-103771500D01*
X132468952Y-103723881D01*
X132707048Y-103723881D01*
X132802286Y-103771500D01*
X132849905Y-103819119D01*
X132897524Y-103914357D01*
X132897524Y-104009595D01*
X132849905Y-104152452D01*
X132278476Y-104723881D01*
X132897524Y-104723881D01*
X133516571Y-103723881D02*
X133611810Y-103723881D01*
X133707048Y-103771500D01*
X133754667Y-103819119D01*
X133802286Y-103914357D01*
X133849905Y-104104833D01*
X133849905Y-104342929D01*
X133802286Y-104533405D01*
X133754667Y-104628643D01*
X133707048Y-104676262D01*
X133611810Y-104723881D01*
X133516571Y-104723881D01*
X133421333Y-104676262D01*
X133373714Y-104628643D01*
X133326095Y-104533405D01*
X133278476Y-104342929D01*
X133278476Y-104104833D01*
X133326095Y-103914357D01*
X133373714Y-103819119D01*
X133421333Y-103771500D01*
X133516571Y-103723881D01*
X131945143Y-102469643D02*
X131897524Y-102517262D01*
X131754667Y-102564881D01*
X131659429Y-102564881D01*
X131516571Y-102517262D01*
X131421333Y-102422024D01*
X131373714Y-102326786D01*
X131326095Y-102136310D01*
X131326095Y-101993452D01*
X131373714Y-101802976D01*
X131421333Y-101707738D01*
X131516571Y-101612500D01*
X131659429Y-101564881D01*
X131754667Y-101564881D01*
X131897524Y-101612500D01*
X131945143Y-101660119D01*
X132326095Y-101660119D02*
X132373714Y-101612500D01*
X132468952Y-101564881D01*
X132707048Y-101564881D01*
X132802286Y-101612500D01*
X132849905Y-101660119D01*
X132897524Y-101755357D01*
X132897524Y-101850595D01*
X132849905Y-101993452D01*
X132278476Y-102564881D01*
X132897524Y-102564881D01*
X133849905Y-102564881D02*
X133278476Y-102564881D01*
X133564190Y-102564881D02*
X133564190Y-101564881D01*
X133468952Y-101707738D01*
X133373714Y-101802976D01*
X133278476Y-101850595D01*
X170045143Y-72561143D02*
X169997524Y-72608762D01*
X169854667Y-72656381D01*
X169759429Y-72656381D01*
X169616571Y-72608762D01*
X169521333Y-72513524D01*
X169473714Y-72418286D01*
X169426095Y-72227810D01*
X169426095Y-72084952D01*
X169473714Y-71894476D01*
X169521333Y-71799238D01*
X169616571Y-71704000D01*
X169759429Y-71656381D01*
X169854667Y-71656381D01*
X169997524Y-71704000D01*
X170045143Y-71751619D01*
X170426095Y-71751619D02*
X170473714Y-71704000D01*
X170568952Y-71656381D01*
X170807048Y-71656381D01*
X170902286Y-71704000D01*
X170949905Y-71751619D01*
X170997524Y-71846857D01*
X170997524Y-71942095D01*
X170949905Y-72084952D01*
X170378476Y-72656381D01*
X170997524Y-72656381D01*
X171378476Y-71751619D02*
X171426095Y-71704000D01*
X171521333Y-71656381D01*
X171759429Y-71656381D01*
X171854667Y-71704000D01*
X171902286Y-71751619D01*
X171949905Y-71846857D01*
X171949905Y-71942095D01*
X171902286Y-72084952D01*
X171330857Y-72656381D01*
X171949905Y-72656381D01*
X172839143Y-59861143D02*
X172791524Y-59908762D01*
X172648667Y-59956381D01*
X172553429Y-59956381D01*
X172410571Y-59908762D01*
X172315333Y-59813524D01*
X172267714Y-59718286D01*
X172220095Y-59527810D01*
X172220095Y-59384952D01*
X172267714Y-59194476D01*
X172315333Y-59099238D01*
X172410571Y-59004000D01*
X172553429Y-58956381D01*
X172648667Y-58956381D01*
X172791524Y-59004000D01*
X172839143Y-59051619D01*
X173220095Y-59051619D02*
X173267714Y-59004000D01*
X173362952Y-58956381D01*
X173601048Y-58956381D01*
X173696286Y-59004000D01*
X173743905Y-59051619D01*
X173791524Y-59146857D01*
X173791524Y-59242095D01*
X173743905Y-59384952D01*
X173172476Y-59956381D01*
X173791524Y-59956381D01*
X174124857Y-58956381D02*
X174743905Y-58956381D01*
X174410571Y-59337333D01*
X174553429Y-59337333D01*
X174648667Y-59384952D01*
X174696286Y-59432571D01*
X174743905Y-59527810D01*
X174743905Y-59765905D01*
X174696286Y-59861143D01*
X174648667Y-59908762D01*
X174553429Y-59956381D01*
X174267714Y-59956381D01*
X174172476Y-59908762D01*
X174124857Y-59861143D01*
X167505143Y-55661143D02*
X167457524Y-55708762D01*
X167314667Y-55756381D01*
X167219429Y-55756381D01*
X167076571Y-55708762D01*
X166981333Y-55613524D01*
X166933714Y-55518286D01*
X166886095Y-55327810D01*
X166886095Y-55184952D01*
X166933714Y-54994476D01*
X166981333Y-54899238D01*
X167076571Y-54804000D01*
X167219429Y-54756381D01*
X167314667Y-54756381D01*
X167457524Y-54804000D01*
X167505143Y-54851619D01*
X167886095Y-54851619D02*
X167933714Y-54804000D01*
X168028952Y-54756381D01*
X168267048Y-54756381D01*
X168362286Y-54804000D01*
X168409905Y-54851619D01*
X168457524Y-54946857D01*
X168457524Y-55042095D01*
X168409905Y-55184952D01*
X167838476Y-55756381D01*
X168457524Y-55756381D01*
X169314667Y-55089714D02*
X169314667Y-55756381D01*
X169076571Y-54708762D02*
X168838476Y-55423048D01*
X169457524Y-55423048D01*
X125705881Y-92495595D02*
X124705881Y-92495595D01*
X124705881Y-92257500D01*
X124753500Y-92114642D01*
X124848738Y-92019404D01*
X124943976Y-91971785D01*
X125134452Y-91924166D01*
X125277310Y-91924166D01*
X125467786Y-91971785D01*
X125563024Y-92019404D01*
X125658262Y-92114642D01*
X125705881Y-92257500D01*
X125705881Y-92495595D01*
X125705881Y-90971785D02*
X125705881Y-91543214D01*
X125705881Y-91257500D02*
X124705881Y-91257500D01*
X124848738Y-91352738D01*
X124943976Y-91447976D01*
X124991595Y-91543214D01*
X164155381Y-97870235D02*
X163155381Y-97870235D01*
X163155381Y-97632140D01*
X163203000Y-97489282D01*
X163298238Y-97394044D01*
X163393476Y-97346425D01*
X163583952Y-97298806D01*
X163726810Y-97298806D01*
X163917286Y-97346425D01*
X164012524Y-97394044D01*
X164107762Y-97489282D01*
X164155381Y-97632140D01*
X164155381Y-97870235D01*
X163250619Y-96917854D02*
X163203000Y-96870235D01*
X163155381Y-96774997D01*
X163155381Y-96536901D01*
X163203000Y-96441663D01*
X163250619Y-96394044D01*
X163345857Y-96346425D01*
X163441095Y-96346425D01*
X163583952Y-96394044D01*
X164155381Y-96965473D01*
X164155381Y-96346425D01*
X132373381Y-66397095D02*
X131373381Y-66397095D01*
X131373381Y-66159000D01*
X131421000Y-66016142D01*
X131516238Y-65920904D01*
X131611476Y-65873285D01*
X131801952Y-65825666D01*
X131944810Y-65825666D01*
X132135286Y-65873285D01*
X132230524Y-65920904D01*
X132325762Y-66016142D01*
X132373381Y-66159000D01*
X132373381Y-66397095D01*
X131373381Y-65492333D02*
X131373381Y-64873285D01*
X131754333Y-65206619D01*
X131754333Y-65063761D01*
X131801952Y-64968523D01*
X131849571Y-64920904D01*
X131944810Y-64873285D01*
X132182905Y-64873285D01*
X132278143Y-64920904D01*
X132325762Y-64968523D01*
X132373381Y-65063761D01*
X132373381Y-65349476D01*
X132325762Y-65444714D01*
X132278143Y-65492333D01*
X149264381Y-65508095D02*
X148264381Y-65508095D01*
X148264381Y-65270000D01*
X148312000Y-65127142D01*
X148407238Y-65031904D01*
X148502476Y-64984285D01*
X148692952Y-64936666D01*
X148835810Y-64936666D01*
X149026286Y-64984285D01*
X149121524Y-65031904D01*
X149216762Y-65127142D01*
X149264381Y-65270000D01*
X149264381Y-65508095D01*
X148597714Y-64079523D02*
X149264381Y-64079523D01*
X148216762Y-64317619D02*
X148931048Y-64555714D01*
X148931048Y-63936666D01*
X122531381Y-63984095D02*
X121531381Y-63984095D01*
X121531381Y-63746000D01*
X121579000Y-63603142D01*
X121674238Y-63507904D01*
X121769476Y-63460285D01*
X121959952Y-63412666D01*
X122102810Y-63412666D01*
X122293286Y-63460285D01*
X122388524Y-63507904D01*
X122483762Y-63603142D01*
X122531381Y-63746000D01*
X122531381Y-63984095D01*
X121531381Y-62507904D02*
X121531381Y-62984095D01*
X122007571Y-63031714D01*
X121959952Y-62984095D01*
X121912333Y-62888857D01*
X121912333Y-62650761D01*
X121959952Y-62555523D01*
X122007571Y-62507904D01*
X122102810Y-62460285D01*
X122340905Y-62460285D01*
X122436143Y-62507904D01*
X122483762Y-62555523D01*
X122531381Y-62650761D01*
X122531381Y-62888857D01*
X122483762Y-62984095D01*
X122436143Y-63031714D01*
X127023905Y-100623881D02*
X127023905Y-99623881D01*
X127262000Y-99623881D01*
X127404858Y-99671500D01*
X127500096Y-99766738D01*
X127547715Y-99861976D01*
X127595334Y-100052452D01*
X127595334Y-100195310D01*
X127547715Y-100385786D01*
X127500096Y-100481024D01*
X127404858Y-100576262D01*
X127262000Y-100623881D01*
X127023905Y-100623881D01*
X128452477Y-99623881D02*
X128262000Y-99623881D01*
X128166762Y-99671500D01*
X128119143Y-99719119D01*
X128023905Y-99861976D01*
X127976286Y-100052452D01*
X127976286Y-100433405D01*
X128023905Y-100528643D01*
X128071524Y-100576262D01*
X128166762Y-100623881D01*
X128357239Y-100623881D01*
X128452477Y-100576262D01*
X128500096Y-100528643D01*
X128547715Y-100433405D01*
X128547715Y-100195310D01*
X128500096Y-100100071D01*
X128452477Y-100052452D01*
X128357239Y-100004833D01*
X128166762Y-100004833D01*
X128071524Y-100052452D01*
X128023905Y-100100071D01*
X127976286Y-100195310D01*
X127023905Y-102909881D02*
X127023905Y-101909881D01*
X127262000Y-101909881D01*
X127404858Y-101957500D01*
X127500096Y-102052738D01*
X127547715Y-102147976D01*
X127595334Y-102338452D01*
X127595334Y-102481310D01*
X127547715Y-102671786D01*
X127500096Y-102767024D01*
X127404858Y-102862262D01*
X127262000Y-102909881D01*
X127023905Y-102909881D01*
X127928667Y-101909881D02*
X128595334Y-101909881D01*
X128166762Y-102909881D01*
X167326381Y-97996333D02*
X168040667Y-97996333D01*
X168183524Y-98043953D01*
X168278762Y-98139191D01*
X168326381Y-98282048D01*
X168326381Y-98377286D01*
X168326381Y-96996333D02*
X168326381Y-97567762D01*
X168326381Y-97282048D02*
X167326381Y-97282048D01*
X167469238Y-97377286D01*
X167564476Y-97472524D01*
X167612095Y-97567762D01*
X138773001Y-112094193D02*
X139487287Y-112094193D01*
X139630144Y-112141813D01*
X139725382Y-112237051D01*
X139773001Y-112379908D01*
X139773001Y-112475146D01*
X138868239Y-111665622D02*
X138820620Y-111618003D01*
X138773001Y-111522765D01*
X138773001Y-111284669D01*
X138820620Y-111189431D01*
X138868239Y-111141812D01*
X138963477Y-111094193D01*
X139058715Y-111094193D01*
X139201572Y-111141812D01*
X139773001Y-111713241D01*
X139773001Y-111094193D01*
X134905762Y-74334619D02*
X134810524Y-74287000D01*
X134715286Y-74191762D01*
X134572429Y-74048905D01*
X134477190Y-74001286D01*
X134381952Y-74001286D01*
X134429571Y-74239381D02*
X134334333Y-74191762D01*
X134239095Y-74096524D01*
X134191476Y-73906048D01*
X134191476Y-73572714D01*
X134239095Y-73382238D01*
X134334333Y-73287000D01*
X134429571Y-73239381D01*
X134620048Y-73239381D01*
X134715286Y-73287000D01*
X134810524Y-73382238D01*
X134858143Y-73572714D01*
X134858143Y-73906048D01*
X134810524Y-74096524D01*
X134715286Y-74191762D01*
X134620048Y-74239381D01*
X134429571Y-74239381D01*
X135239095Y-73334619D02*
X135286714Y-73287000D01*
X135381952Y-73239381D01*
X135620048Y-73239381D01*
X135715286Y-73287000D01*
X135762905Y-73334619D01*
X135810524Y-73429857D01*
X135810524Y-73525095D01*
X135762905Y-73667952D01*
X135191476Y-74239381D01*
X135810524Y-74239381D01*
X152050762Y-73445619D02*
X151955524Y-73398000D01*
X151860286Y-73302762D01*
X151717429Y-73159905D01*
X151622190Y-73112286D01*
X151526952Y-73112286D01*
X151574571Y-73350381D02*
X151479333Y-73302762D01*
X151384095Y-73207524D01*
X151336476Y-73017048D01*
X151336476Y-72683714D01*
X151384095Y-72493238D01*
X151479333Y-72398000D01*
X151574571Y-72350381D01*
X151765048Y-72350381D01*
X151860286Y-72398000D01*
X151955524Y-72493238D01*
X152003143Y-72683714D01*
X152003143Y-73017048D01*
X151955524Y-73207524D01*
X151860286Y-73302762D01*
X151765048Y-73350381D01*
X151574571Y-73350381D01*
X152336476Y-72350381D02*
X152955524Y-72350381D01*
X152622190Y-72731333D01*
X152765048Y-72731333D01*
X152860286Y-72778952D01*
X152907905Y-72826571D01*
X152955524Y-72921810D01*
X152955524Y-73159905D01*
X152907905Y-73255143D01*
X152860286Y-73302762D01*
X152765048Y-73350381D01*
X152479333Y-73350381D01*
X152384095Y-73302762D01*
X152336476Y-73255143D01*
X118451334Y-90589381D02*
X118118000Y-90113190D01*
X117879905Y-90589381D02*
X117879905Y-89589381D01*
X118260858Y-89589381D01*
X118356096Y-89637000D01*
X118403715Y-89684619D01*
X118451334Y-89779857D01*
X118451334Y-89922714D01*
X118403715Y-90017952D01*
X118356096Y-90065571D01*
X118260858Y-90113190D01*
X117879905Y-90113190D01*
X119403715Y-90589381D02*
X118832286Y-90589381D01*
X119118000Y-90589381D02*
X119118000Y-89589381D01*
X119022762Y-89732238D01*
X118927524Y-89827476D01*
X118832286Y-89875095D01*
X116927334Y-84493381D02*
X116594000Y-84017190D01*
X116355905Y-84493381D02*
X116355905Y-83493381D01*
X116736858Y-83493381D01*
X116832096Y-83541000D01*
X116879715Y-83588619D01*
X116927334Y-83683857D01*
X116927334Y-83826714D01*
X116879715Y-83921952D01*
X116832096Y-83969571D01*
X116736858Y-84017190D01*
X116355905Y-84017190D01*
X117308286Y-83588619D02*
X117355905Y-83541000D01*
X117451143Y-83493381D01*
X117689239Y-83493381D01*
X117784477Y-83541000D01*
X117832096Y-83588619D01*
X117879715Y-83683857D01*
X117879715Y-83779095D01*
X117832096Y-83921952D01*
X117260667Y-84493381D01*
X117879715Y-84493381D01*
X170521334Y-68084381D02*
X170188000Y-67608190D01*
X169949905Y-68084381D02*
X169949905Y-67084381D01*
X170330858Y-67084381D01*
X170426096Y-67132000D01*
X170473715Y-67179619D01*
X170521334Y-67274857D01*
X170521334Y-67417714D01*
X170473715Y-67512952D01*
X170426096Y-67560571D01*
X170330858Y-67608190D01*
X169949905Y-67608190D01*
X170854667Y-67084381D02*
X171473715Y-67084381D01*
X171140381Y-67465333D01*
X171283239Y-67465333D01*
X171378477Y-67512952D01*
X171426096Y-67560571D01*
X171473715Y-67655810D01*
X171473715Y-67893905D01*
X171426096Y-67989143D01*
X171378477Y-68036762D01*
X171283239Y-68084381D01*
X170997524Y-68084381D01*
X170902286Y-68036762D01*
X170854667Y-67989143D01*
X170521334Y-70370381D02*
X170188000Y-69894190D01*
X169949905Y-70370381D02*
X169949905Y-69370381D01*
X170330858Y-69370381D01*
X170426096Y-69418000D01*
X170473715Y-69465619D01*
X170521334Y-69560857D01*
X170521334Y-69703714D01*
X170473715Y-69798952D01*
X170426096Y-69846571D01*
X170330858Y-69894190D01*
X169949905Y-69894190D01*
X171378477Y-69703714D02*
X171378477Y-70370381D01*
X171140381Y-69322762D02*
X170902286Y-70037048D01*
X171521334Y-70037048D01*
X141565334Y-73164381D02*
X141232000Y-72688190D01*
X140993905Y-73164381D02*
X140993905Y-72164381D01*
X141374858Y-72164381D01*
X141470096Y-72212000D01*
X141517715Y-72259619D01*
X141565334Y-72354857D01*
X141565334Y-72497714D01*
X141517715Y-72592952D01*
X141470096Y-72640571D01*
X141374858Y-72688190D01*
X140993905Y-72688190D01*
X142470096Y-72164381D02*
X141993905Y-72164381D01*
X141946286Y-72640571D01*
X141993905Y-72592952D01*
X142089143Y-72545333D01*
X142327239Y-72545333D01*
X142422477Y-72592952D01*
X142470096Y-72640571D01*
X142517715Y-72735810D01*
X142517715Y-72973905D01*
X142470096Y-73069143D01*
X142422477Y-73116762D01*
X142327239Y-73164381D01*
X142089143Y-73164381D01*
X141993905Y-73116762D01*
X141946286Y-73069143D01*
X175347334Y-90681381D02*
X175014000Y-90205190D01*
X174775905Y-90681381D02*
X174775905Y-89681381D01*
X175156858Y-89681381D01*
X175252096Y-89729000D01*
X175299715Y-89776619D01*
X175347334Y-89871857D01*
X175347334Y-90014714D01*
X175299715Y-90109952D01*
X175252096Y-90157571D01*
X175156858Y-90205190D01*
X174775905Y-90205190D01*
X176204477Y-89681381D02*
X176014000Y-89681381D01*
X175918762Y-89729000D01*
X175871143Y-89776619D01*
X175775905Y-89919476D01*
X175728286Y-90109952D01*
X175728286Y-90490905D01*
X175775905Y-90586143D01*
X175823524Y-90633762D01*
X175918762Y-90681381D01*
X176109239Y-90681381D01*
X176204477Y-90633762D01*
X176252096Y-90586143D01*
X176299715Y-90490905D01*
X176299715Y-90252810D01*
X176252096Y-90157571D01*
X176204477Y-90109952D01*
X176109239Y-90062333D01*
X175918762Y-90062333D01*
X175823524Y-90109952D01*
X175775905Y-90157571D01*
X175728286Y-90252810D01*
X172553334Y-81029381D02*
X172220000Y-80553190D01*
X171981905Y-81029381D02*
X171981905Y-80029381D01*
X172362858Y-80029381D01*
X172458096Y-80077000D01*
X172505715Y-80124619D01*
X172553334Y-80219857D01*
X172553334Y-80362714D01*
X172505715Y-80457952D01*
X172458096Y-80505571D01*
X172362858Y-80553190D01*
X171981905Y-80553190D01*
X172886667Y-80029381D02*
X173553334Y-80029381D01*
X173124762Y-81029381D01*
X167071881Y-79224166D02*
X166595690Y-79557500D01*
X167071881Y-79795595D02*
X166071881Y-79795595D01*
X166071881Y-79414642D01*
X166119500Y-79319404D01*
X166167119Y-79271785D01*
X166262357Y-79224166D01*
X166405214Y-79224166D01*
X166500452Y-79271785D01*
X166548071Y-79319404D01*
X166595690Y-79414642D01*
X166595690Y-79795595D01*
X166500452Y-78652738D02*
X166452833Y-78747976D01*
X166405214Y-78795595D01*
X166309976Y-78843214D01*
X166262357Y-78843214D01*
X166167119Y-78795595D01*
X166119500Y-78747976D01*
X166071881Y-78652738D01*
X166071881Y-78462261D01*
X166119500Y-78367023D01*
X166167119Y-78319404D01*
X166262357Y-78271785D01*
X166309976Y-78271785D01*
X166405214Y-78319404D01*
X166452833Y-78367023D01*
X166500452Y-78462261D01*
X166500452Y-78652738D01*
X166548071Y-78747976D01*
X166595690Y-78795595D01*
X166690929Y-78843214D01*
X166881405Y-78843214D01*
X166976643Y-78795595D01*
X167024262Y-78747976D01*
X167071881Y-78652738D01*
X167071881Y-78462261D01*
X167024262Y-78367023D01*
X166976643Y-78319404D01*
X166881405Y-78271785D01*
X166690929Y-78271785D01*
X166595690Y-78319404D01*
X166548071Y-78367023D01*
X166500452Y-78462261D01*
X167092334Y-103390381D02*
X166759000Y-102914190D01*
X166520905Y-103390381D02*
X166520905Y-102390381D01*
X166901858Y-102390381D01*
X166997096Y-102438000D01*
X167044715Y-102485619D01*
X167092334Y-102580857D01*
X167092334Y-102723714D01*
X167044715Y-102818952D01*
X166997096Y-102866571D01*
X166901858Y-102914190D01*
X166520905Y-102914190D01*
X167568524Y-103390381D02*
X167759000Y-103390381D01*
X167854239Y-103342762D01*
X167901858Y-103295143D01*
X167997096Y-103152286D01*
X168044715Y-102961810D01*
X168044715Y-102580857D01*
X167997096Y-102485619D01*
X167949477Y-102438000D01*
X167854239Y-102390381D01*
X167663762Y-102390381D01*
X167568524Y-102438000D01*
X167520905Y-102485619D01*
X167473286Y-102580857D01*
X167473286Y-102818952D01*
X167520905Y-102914190D01*
X167568524Y-102961810D01*
X167663762Y-103009429D01*
X167854239Y-103009429D01*
X167949477Y-102961810D01*
X167997096Y-102914190D01*
X168044715Y-102818952D01*
X115328381Y-97924857D02*
X114852190Y-98258191D01*
X115328381Y-98496286D02*
X114328381Y-98496286D01*
X114328381Y-98115333D01*
X114376000Y-98020095D01*
X114423619Y-97972476D01*
X114518857Y-97924857D01*
X114661714Y-97924857D01*
X114756952Y-97972476D01*
X114804571Y-98020095D01*
X114852190Y-98115333D01*
X114852190Y-98496286D01*
X115328381Y-96972476D02*
X115328381Y-97543905D01*
X115328381Y-97258191D02*
X114328381Y-97258191D01*
X114471238Y-97353429D01*
X114566476Y-97448667D01*
X114614095Y-97543905D01*
X114328381Y-96353429D02*
X114328381Y-96258190D01*
X114376000Y-96162952D01*
X114423619Y-96115333D01*
X114518857Y-96067714D01*
X114709333Y-96020095D01*
X114947429Y-96020095D01*
X115137905Y-96067714D01*
X115233143Y-96115333D01*
X115280762Y-96162952D01*
X115328381Y-96258190D01*
X115328381Y-96353429D01*
X115280762Y-96448667D01*
X115233143Y-96496286D01*
X115137905Y-96543905D01*
X114947429Y-96591524D01*
X114709333Y-96591524D01*
X114518857Y-96543905D01*
X114423619Y-96496286D01*
X114376000Y-96448667D01*
X114328381Y-96353429D01*
X108842381Y-97924857D02*
X108366190Y-98258191D01*
X108842381Y-98496286D02*
X107842381Y-98496286D01*
X107842381Y-98115333D01*
X107890000Y-98020095D01*
X107937619Y-97972476D01*
X108032857Y-97924857D01*
X108175714Y-97924857D01*
X108270952Y-97972476D01*
X108318571Y-98020095D01*
X108366190Y-98115333D01*
X108366190Y-98496286D01*
X108842381Y-96972476D02*
X108842381Y-97543905D01*
X108842381Y-97258191D02*
X107842381Y-97258191D01*
X107985238Y-97353429D01*
X108080476Y-97448667D01*
X108128095Y-97543905D01*
X108842381Y-96020095D02*
X108842381Y-96591524D01*
X108842381Y-96305810D02*
X107842381Y-96305810D01*
X107985238Y-96401048D01*
X108080476Y-96496286D01*
X108128095Y-96591524D01*
X118737143Y-92087381D02*
X118403809Y-91611190D01*
X118165714Y-92087381D02*
X118165714Y-91087381D01*
X118546667Y-91087381D01*
X118641905Y-91135000D01*
X118689524Y-91182619D01*
X118737143Y-91277857D01*
X118737143Y-91420714D01*
X118689524Y-91515952D01*
X118641905Y-91563571D01*
X118546667Y-91611190D01*
X118165714Y-91611190D01*
X119689524Y-92087381D02*
X119118095Y-92087381D01*
X119403809Y-92087381D02*
X119403809Y-91087381D01*
X119308571Y-91230238D01*
X119213333Y-91325476D01*
X119118095Y-91373095D01*
X120070476Y-91182619D02*
X120118095Y-91135000D01*
X120213333Y-91087381D01*
X120451429Y-91087381D01*
X120546667Y-91135000D01*
X120594286Y-91182619D01*
X120641905Y-91277857D01*
X120641905Y-91373095D01*
X120594286Y-91515952D01*
X120022857Y-92087381D01*
X120641905Y-92087381D01*
X113784143Y-92087381D02*
X113450809Y-91611190D01*
X113212714Y-92087381D02*
X113212714Y-91087381D01*
X113593667Y-91087381D01*
X113688905Y-91135000D01*
X113736524Y-91182619D01*
X113784143Y-91277857D01*
X113784143Y-91420714D01*
X113736524Y-91515952D01*
X113688905Y-91563571D01*
X113593667Y-91611190D01*
X113212714Y-91611190D01*
X114736524Y-92087381D02*
X114165095Y-92087381D01*
X114450809Y-92087381D02*
X114450809Y-91087381D01*
X114355571Y-91230238D01*
X114260333Y-91325476D01*
X114165095Y-91373095D01*
X115069857Y-91087381D02*
X115688905Y-91087381D01*
X115355571Y-91468333D01*
X115498429Y-91468333D01*
X115593667Y-91515952D01*
X115641286Y-91563571D01*
X115688905Y-91658810D01*
X115688905Y-91896905D01*
X115641286Y-91992143D01*
X115593667Y-92039762D01*
X115498429Y-92087381D01*
X115212714Y-92087381D01*
X115117476Y-92039762D01*
X115069857Y-91992143D01*
X113668381Y-97924857D02*
X113192190Y-98258191D01*
X113668381Y-98496286D02*
X112668381Y-98496286D01*
X112668381Y-98115333D01*
X112716000Y-98020095D01*
X112763619Y-97972476D01*
X112858857Y-97924857D01*
X113001714Y-97924857D01*
X113096952Y-97972476D01*
X113144571Y-98020095D01*
X113192190Y-98115333D01*
X113192190Y-98496286D01*
X113668381Y-96972476D02*
X113668381Y-97543905D01*
X113668381Y-97258191D02*
X112668381Y-97258191D01*
X112811238Y-97353429D01*
X112906476Y-97448667D01*
X112954095Y-97543905D01*
X113001714Y-96115333D02*
X113668381Y-96115333D01*
X112620762Y-96353429D02*
X113335048Y-96591524D01*
X113335048Y-95972476D01*
X120896143Y-82426381D02*
X120562809Y-81950190D01*
X120324714Y-82426381D02*
X120324714Y-81426381D01*
X120705667Y-81426381D01*
X120800905Y-81474000D01*
X120848524Y-81521619D01*
X120896143Y-81616857D01*
X120896143Y-81759714D01*
X120848524Y-81854952D01*
X120800905Y-81902571D01*
X120705667Y-81950190D01*
X120324714Y-81950190D01*
X121848524Y-82426381D02*
X121277095Y-82426381D01*
X121562809Y-82426381D02*
X121562809Y-81426381D01*
X121467571Y-81569238D01*
X121372333Y-81664476D01*
X121277095Y-81712095D01*
X122753286Y-81426381D02*
X122277095Y-81426381D01*
X122229476Y-81902571D01*
X122277095Y-81854952D01*
X122372333Y-81807333D01*
X122610429Y-81807333D01*
X122705667Y-81854952D01*
X122753286Y-81902571D01*
X122800905Y-81997810D01*
X122800905Y-82235905D01*
X122753286Y-82331143D01*
X122705667Y-82378762D01*
X122610429Y-82426381D01*
X122372333Y-82426381D01*
X122277095Y-82378762D01*
X122229476Y-82331143D01*
X117975143Y-101222381D02*
X117641809Y-100746190D01*
X117403714Y-101222381D02*
X117403714Y-100222381D01*
X117784667Y-100222381D01*
X117879905Y-100270000D01*
X117927524Y-100317619D01*
X117975143Y-100412857D01*
X117975143Y-100555714D01*
X117927524Y-100650952D01*
X117879905Y-100698571D01*
X117784667Y-100746190D01*
X117403714Y-100746190D01*
X118927524Y-101222381D02*
X118356095Y-101222381D01*
X118641809Y-101222381D02*
X118641809Y-100222381D01*
X118546571Y-100365238D01*
X118451333Y-100460476D01*
X118356095Y-100508095D01*
X119784667Y-100222381D02*
X119594190Y-100222381D01*
X119498952Y-100270000D01*
X119451333Y-100317619D01*
X119356095Y-100460476D01*
X119308476Y-100650952D01*
X119308476Y-101031905D01*
X119356095Y-101127143D01*
X119403714Y-101174762D01*
X119498952Y-101222381D01*
X119689429Y-101222381D01*
X119784667Y-101174762D01*
X119832286Y-101127143D01*
X119879905Y-101031905D01*
X119879905Y-100793810D01*
X119832286Y-100698571D01*
X119784667Y-100650952D01*
X119689429Y-100603333D01*
X119498952Y-100603333D01*
X119403714Y-100650952D01*
X119356095Y-100698571D01*
X119308476Y-100793810D01*
X118494381Y-81160857D02*
X118018190Y-81494191D01*
X118494381Y-81732286D02*
X117494381Y-81732286D01*
X117494381Y-81351333D01*
X117542000Y-81256095D01*
X117589619Y-81208476D01*
X117684857Y-81160857D01*
X117827714Y-81160857D01*
X117922952Y-81208476D01*
X117970571Y-81256095D01*
X118018190Y-81351333D01*
X118018190Y-81732286D01*
X118494381Y-80208476D02*
X118494381Y-80779905D01*
X118494381Y-80494191D02*
X117494381Y-80494191D01*
X117637238Y-80589429D01*
X117732476Y-80684667D01*
X117780095Y-80779905D01*
X117494381Y-79875143D02*
X117494381Y-79208476D01*
X118494381Y-79637048D01*
X111625143Y-104016381D02*
X111291809Y-103540190D01*
X111053714Y-104016381D02*
X111053714Y-103016381D01*
X111434667Y-103016381D01*
X111529905Y-103064000D01*
X111577524Y-103111619D01*
X111625143Y-103206857D01*
X111625143Y-103349714D01*
X111577524Y-103444952D01*
X111529905Y-103492571D01*
X111434667Y-103540190D01*
X111053714Y-103540190D01*
X112577524Y-104016381D02*
X112006095Y-104016381D01*
X112291809Y-104016381D02*
X112291809Y-103016381D01*
X112196571Y-103159238D01*
X112101333Y-103254476D01*
X112006095Y-103302095D01*
X113148952Y-103444952D02*
X113053714Y-103397333D01*
X113006095Y-103349714D01*
X112958476Y-103254476D01*
X112958476Y-103206857D01*
X113006095Y-103111619D01*
X113053714Y-103064000D01*
X113148952Y-103016381D01*
X113339429Y-103016381D01*
X113434667Y-103064000D01*
X113482286Y-103111619D01*
X113529905Y-103206857D01*
X113529905Y-103254476D01*
X113482286Y-103349714D01*
X113434667Y-103397333D01*
X113339429Y-103444952D01*
X113148952Y-103444952D01*
X113053714Y-103492571D01*
X113006095Y-103540190D01*
X112958476Y-103635429D01*
X112958476Y-103825905D01*
X113006095Y-103921143D01*
X113053714Y-103968762D01*
X113148952Y-104016381D01*
X113339429Y-104016381D01*
X113434667Y-103968762D01*
X113482286Y-103921143D01*
X113529905Y-103825905D01*
X113529905Y-103635429D01*
X113482286Y-103540190D01*
X113434667Y-103492571D01*
X113339429Y-103444952D01*
X124717381Y-83319857D02*
X124241190Y-83653191D01*
X124717381Y-83891286D02*
X123717381Y-83891286D01*
X123717381Y-83510333D01*
X123765000Y-83415095D01*
X123812619Y-83367476D01*
X123907857Y-83319857D01*
X124050714Y-83319857D01*
X124145952Y-83367476D01*
X124193571Y-83415095D01*
X124241190Y-83510333D01*
X124241190Y-83891286D01*
X124717381Y-82367476D02*
X124717381Y-82938905D01*
X124717381Y-82653191D02*
X123717381Y-82653191D01*
X123860238Y-82748429D01*
X123955476Y-82843667D01*
X124003095Y-82938905D01*
X124717381Y-81891286D02*
X124717381Y-81700810D01*
X124669762Y-81605571D01*
X124622143Y-81557952D01*
X124479286Y-81462714D01*
X124288810Y-81415095D01*
X123907857Y-81415095D01*
X123812619Y-81462714D01*
X123765000Y-81510333D01*
X123717381Y-81605571D01*
X123717381Y-81796048D01*
X123765000Y-81891286D01*
X123812619Y-81938905D01*
X123907857Y-81986524D01*
X124145952Y-81986524D01*
X124241190Y-81938905D01*
X124288810Y-81891286D01*
X124336429Y-81796048D01*
X124336429Y-81605571D01*
X124288810Y-81510333D01*
X124241190Y-81462714D01*
X124145952Y-81415095D01*
X141862381Y-82938857D02*
X141386190Y-83272191D01*
X141862381Y-83510286D02*
X140862381Y-83510286D01*
X140862381Y-83129333D01*
X140910000Y-83034095D01*
X140957619Y-82986476D01*
X141052857Y-82938857D01*
X141195714Y-82938857D01*
X141290952Y-82986476D01*
X141338571Y-83034095D01*
X141386190Y-83129333D01*
X141386190Y-83510286D01*
X140957619Y-82557905D02*
X140910000Y-82510286D01*
X140862381Y-82415048D01*
X140862381Y-82176952D01*
X140910000Y-82081714D01*
X140957619Y-82034095D01*
X141052857Y-81986476D01*
X141148095Y-81986476D01*
X141290952Y-82034095D01*
X141862381Y-82605524D01*
X141862381Y-81986476D01*
X140862381Y-81367429D02*
X140862381Y-81272190D01*
X140910000Y-81176952D01*
X140957619Y-81129333D01*
X141052857Y-81081714D01*
X141243333Y-81034095D01*
X141481429Y-81034095D01*
X141671905Y-81081714D01*
X141767143Y-81129333D01*
X141814762Y-81176952D01*
X141862381Y-81272190D01*
X141862381Y-81367429D01*
X141814762Y-81462667D01*
X141767143Y-81510286D01*
X141671905Y-81557905D01*
X141481429Y-81605524D01*
X141243333Y-81605524D01*
X141052857Y-81557905D01*
X140957619Y-81510286D01*
X140910000Y-81462667D01*
X140862381Y-81367429D01*
X132311381Y-80525857D02*
X131835190Y-80859191D01*
X132311381Y-81097286D02*
X131311381Y-81097286D01*
X131311381Y-80716333D01*
X131359000Y-80621095D01*
X131406619Y-80573476D01*
X131501857Y-80525857D01*
X131644714Y-80525857D01*
X131739952Y-80573476D01*
X131787571Y-80621095D01*
X131835190Y-80716333D01*
X131835190Y-81097286D01*
X131406619Y-80144905D02*
X131359000Y-80097286D01*
X131311381Y-80002048D01*
X131311381Y-79763952D01*
X131359000Y-79668714D01*
X131406619Y-79621095D01*
X131501857Y-79573476D01*
X131597095Y-79573476D01*
X131739952Y-79621095D01*
X132311381Y-80192524D01*
X132311381Y-79573476D01*
X132311381Y-78621095D02*
X132311381Y-79192524D01*
X132311381Y-78906810D02*
X131311381Y-78906810D01*
X131454238Y-79002048D01*
X131549476Y-79097286D01*
X131597095Y-79192524D01*
X124717381Y-77731857D02*
X124241190Y-78065191D01*
X124717381Y-78303286D02*
X123717381Y-78303286D01*
X123717381Y-77922333D01*
X123765000Y-77827095D01*
X123812619Y-77779476D01*
X123907857Y-77731857D01*
X124050714Y-77731857D01*
X124145952Y-77779476D01*
X124193571Y-77827095D01*
X124241190Y-77922333D01*
X124241190Y-78303286D01*
X123812619Y-77350905D02*
X123765000Y-77303286D01*
X123717381Y-77208048D01*
X123717381Y-76969952D01*
X123765000Y-76874714D01*
X123812619Y-76827095D01*
X123907857Y-76779476D01*
X124003095Y-76779476D01*
X124145952Y-76827095D01*
X124717381Y-77398524D01*
X124717381Y-76779476D01*
X123717381Y-76446143D02*
X123717381Y-75827095D01*
X124098333Y-76160429D01*
X124098333Y-76017571D01*
X124145952Y-75922333D01*
X124193571Y-75874714D01*
X124288810Y-75827095D01*
X124526905Y-75827095D01*
X124622143Y-75874714D01*
X124669762Y-75922333D01*
X124717381Y-76017571D01*
X124717381Y-76303286D01*
X124669762Y-76398524D01*
X124622143Y-76446143D01*
X141862381Y-77350857D02*
X141386190Y-77684191D01*
X141862381Y-77922286D02*
X140862381Y-77922286D01*
X140862381Y-77541333D01*
X140910000Y-77446095D01*
X140957619Y-77398476D01*
X141052857Y-77350857D01*
X141195714Y-77350857D01*
X141290952Y-77398476D01*
X141338571Y-77446095D01*
X141386190Y-77541333D01*
X141386190Y-77922286D01*
X140957619Y-76969905D02*
X140910000Y-76922286D01*
X140862381Y-76827048D01*
X140862381Y-76588952D01*
X140910000Y-76493714D01*
X140957619Y-76446095D01*
X141052857Y-76398476D01*
X141148095Y-76398476D01*
X141290952Y-76446095D01*
X141862381Y-77017524D01*
X141862381Y-76398476D01*
X141195714Y-75541333D02*
X141862381Y-75541333D01*
X140814762Y-75779429D02*
X141529048Y-76017524D01*
X141529048Y-75398476D01*
X133088143Y-81283381D02*
X132754809Y-80807190D01*
X132516714Y-81283381D02*
X132516714Y-80283381D01*
X132897667Y-80283381D01*
X132992905Y-80331000D01*
X133040524Y-80378619D01*
X133088143Y-80473857D01*
X133088143Y-80616714D01*
X133040524Y-80711952D01*
X132992905Y-80759571D01*
X132897667Y-80807190D01*
X132516714Y-80807190D01*
X133469095Y-80378619D02*
X133516714Y-80331000D01*
X133611952Y-80283381D01*
X133850048Y-80283381D01*
X133945286Y-80331000D01*
X133992905Y-80378619D01*
X134040524Y-80473857D01*
X134040524Y-80569095D01*
X133992905Y-80711952D01*
X133421476Y-81283381D01*
X134040524Y-81283381D01*
X134945286Y-80283381D02*
X134469095Y-80283381D01*
X134421476Y-80759571D01*
X134469095Y-80711952D01*
X134564333Y-80664333D01*
X134802429Y-80664333D01*
X134897667Y-80711952D01*
X134945286Y-80759571D01*
X134992905Y-80854810D01*
X134992905Y-81092905D01*
X134945286Y-81188143D01*
X134897667Y-81235762D01*
X134802429Y-81283381D01*
X134564333Y-81283381D01*
X134469095Y-81235762D01*
X134421476Y-81188143D01*
X149979143Y-80648381D02*
X149645809Y-80172190D01*
X149407714Y-80648381D02*
X149407714Y-79648381D01*
X149788667Y-79648381D01*
X149883905Y-79696000D01*
X149931524Y-79743619D01*
X149979143Y-79838857D01*
X149979143Y-79981714D01*
X149931524Y-80076952D01*
X149883905Y-80124571D01*
X149788667Y-80172190D01*
X149407714Y-80172190D01*
X150360095Y-79743619D02*
X150407714Y-79696000D01*
X150502952Y-79648381D01*
X150741048Y-79648381D01*
X150836286Y-79696000D01*
X150883905Y-79743619D01*
X150931524Y-79838857D01*
X150931524Y-79934095D01*
X150883905Y-80076952D01*
X150312476Y-80648381D01*
X150931524Y-80648381D01*
X151788667Y-79648381D02*
X151598190Y-79648381D01*
X151502952Y-79696000D01*
X151455333Y-79743619D01*
X151360095Y-79886476D01*
X151312476Y-80076952D01*
X151312476Y-80457905D01*
X151360095Y-80553143D01*
X151407714Y-80600762D01*
X151502952Y-80648381D01*
X151693429Y-80648381D01*
X151788667Y-80600762D01*
X151836286Y-80553143D01*
X151883905Y-80457905D01*
X151883905Y-80219810D01*
X151836286Y-80124571D01*
X151788667Y-80076952D01*
X151693429Y-80029333D01*
X151502952Y-80029333D01*
X151407714Y-80076952D01*
X151360095Y-80124571D01*
X151312476Y-80219810D01*
X143395381Y-79001857D02*
X142919190Y-79335191D01*
X143395381Y-79573286D02*
X142395381Y-79573286D01*
X142395381Y-79192333D01*
X142443000Y-79097095D01*
X142490619Y-79049476D01*
X142585857Y-79001857D01*
X142728714Y-79001857D01*
X142823952Y-79049476D01*
X142871571Y-79097095D01*
X142919190Y-79192333D01*
X142919190Y-79573286D01*
X142490619Y-78620905D02*
X142443000Y-78573286D01*
X142395381Y-78478048D01*
X142395381Y-78239952D01*
X142443000Y-78144714D01*
X142490619Y-78097095D01*
X142585857Y-78049476D01*
X142681095Y-78049476D01*
X142823952Y-78097095D01*
X143395381Y-78668524D01*
X143395381Y-78049476D01*
X142395381Y-77716143D02*
X142395381Y-77049476D01*
X143395381Y-77478048D01*
X159905381Y-76017357D02*
X159429190Y-76350691D01*
X159905381Y-76588786D02*
X158905381Y-76588786D01*
X158905381Y-76207833D01*
X158953000Y-76112595D01*
X159000619Y-76064976D01*
X159095857Y-76017357D01*
X159238714Y-76017357D01*
X159333952Y-76064976D01*
X159381571Y-76112595D01*
X159429190Y-76207833D01*
X159429190Y-76588786D01*
X159000619Y-75636405D02*
X158953000Y-75588786D01*
X158905381Y-75493548D01*
X158905381Y-75255452D01*
X158953000Y-75160214D01*
X159000619Y-75112595D01*
X159095857Y-75064976D01*
X159191095Y-75064976D01*
X159333952Y-75112595D01*
X159905381Y-75684024D01*
X159905381Y-75064976D01*
X159333952Y-74493548D02*
X159286333Y-74588786D01*
X159238714Y-74636405D01*
X159143476Y-74684024D01*
X159095857Y-74684024D01*
X159000619Y-74636405D01*
X158953000Y-74588786D01*
X158905381Y-74493548D01*
X158905381Y-74303071D01*
X158953000Y-74207833D01*
X159000619Y-74160214D01*
X159095857Y-74112595D01*
X159143476Y-74112595D01*
X159238714Y-74160214D01*
X159286333Y-74207833D01*
X159333952Y-74303071D01*
X159333952Y-74493548D01*
X159381571Y-74588786D01*
X159429190Y-74636405D01*
X159524429Y-74684024D01*
X159714905Y-74684024D01*
X159810143Y-74636405D01*
X159857762Y-74588786D01*
X159905381Y-74493548D01*
X159905381Y-74303071D01*
X159857762Y-74207833D01*
X159810143Y-74160214D01*
X159714905Y-74112595D01*
X159524429Y-74112595D01*
X159429190Y-74160214D01*
X159381571Y-74207833D01*
X159333952Y-74303071D01*
X117086143Y-69862381D02*
X116752809Y-69386190D01*
X116514714Y-69862381D02*
X116514714Y-68862381D01*
X116895667Y-68862381D01*
X116990905Y-68910000D01*
X117038524Y-68957619D01*
X117086143Y-69052857D01*
X117086143Y-69195714D01*
X117038524Y-69290952D01*
X116990905Y-69338571D01*
X116895667Y-69386190D01*
X116514714Y-69386190D01*
X117467095Y-68957619D02*
X117514714Y-68910000D01*
X117609952Y-68862381D01*
X117848048Y-68862381D01*
X117943286Y-68910000D01*
X117990905Y-68957619D01*
X118038524Y-69052857D01*
X118038524Y-69148095D01*
X117990905Y-69290952D01*
X117419476Y-69862381D01*
X118038524Y-69862381D01*
X118514714Y-69862381D02*
X118705190Y-69862381D01*
X118800429Y-69814762D01*
X118848048Y-69767143D01*
X118943286Y-69624286D01*
X118990905Y-69433810D01*
X118990905Y-69052857D01*
X118943286Y-68957619D01*
X118895667Y-68910000D01*
X118800429Y-68862381D01*
X118609952Y-68862381D01*
X118514714Y-68910000D01*
X118467095Y-68957619D01*
X118419476Y-69052857D01*
X118419476Y-69290952D01*
X118467095Y-69386190D01*
X118514714Y-69433810D01*
X118609952Y-69481429D01*
X118800429Y-69481429D01*
X118895667Y-69433810D01*
X118943286Y-69386190D01*
X118990905Y-69290952D01*
X122420143Y-69862381D02*
X122086809Y-69386190D01*
X121848714Y-69862381D02*
X121848714Y-68862381D01*
X122229667Y-68862381D01*
X122324905Y-68910000D01*
X122372524Y-68957619D01*
X122420143Y-69052857D01*
X122420143Y-69195714D01*
X122372524Y-69290952D01*
X122324905Y-69338571D01*
X122229667Y-69386190D01*
X121848714Y-69386190D01*
X122753476Y-68862381D02*
X123372524Y-68862381D01*
X123039190Y-69243333D01*
X123182048Y-69243333D01*
X123277286Y-69290952D01*
X123324905Y-69338571D01*
X123372524Y-69433810D01*
X123372524Y-69671905D01*
X123324905Y-69767143D01*
X123277286Y-69814762D01*
X123182048Y-69862381D01*
X122896333Y-69862381D01*
X122801095Y-69814762D01*
X122753476Y-69767143D01*
X123991571Y-68862381D02*
X124086810Y-68862381D01*
X124182048Y-68910000D01*
X124229667Y-68957619D01*
X124277286Y-69052857D01*
X124324905Y-69243333D01*
X124324905Y-69481429D01*
X124277286Y-69671905D01*
X124229667Y-69767143D01*
X124182048Y-69814762D01*
X124086810Y-69862381D01*
X123991571Y-69862381D01*
X123896333Y-69814762D01*
X123848714Y-69767143D01*
X123801095Y-69671905D01*
X123753476Y-69481429D01*
X123753476Y-69243333D01*
X123801095Y-69052857D01*
X123848714Y-68957619D01*
X123896333Y-68910000D01*
X123991571Y-68862381D01*
X111255381Y-67952857D02*
X110779190Y-68286191D01*
X111255381Y-68524286D02*
X110255381Y-68524286D01*
X110255381Y-68143333D01*
X110303000Y-68048095D01*
X110350619Y-68000476D01*
X110445857Y-67952857D01*
X110588714Y-67952857D01*
X110683952Y-68000476D01*
X110731571Y-68048095D01*
X110779190Y-68143333D01*
X110779190Y-68524286D01*
X110255381Y-67619524D02*
X110255381Y-67000476D01*
X110636333Y-67333810D01*
X110636333Y-67190952D01*
X110683952Y-67095714D01*
X110731571Y-67048095D01*
X110826810Y-67000476D01*
X111064905Y-67000476D01*
X111160143Y-67048095D01*
X111207762Y-67095714D01*
X111255381Y-67190952D01*
X111255381Y-67476667D01*
X111207762Y-67571905D01*
X111160143Y-67619524D01*
X111255381Y-66048095D02*
X111255381Y-66619524D01*
X111255381Y-66333810D02*
X110255381Y-66333810D01*
X110398238Y-66429048D01*
X110493476Y-66524286D01*
X110541095Y-66619524D01*
X108715381Y-61856857D02*
X108239190Y-62190191D01*
X108715381Y-62428286D02*
X107715381Y-62428286D01*
X107715381Y-62047333D01*
X107763000Y-61952095D01*
X107810619Y-61904476D01*
X107905857Y-61856857D01*
X108048714Y-61856857D01*
X108143952Y-61904476D01*
X108191571Y-61952095D01*
X108239190Y-62047333D01*
X108239190Y-62428286D01*
X107715381Y-61523524D02*
X107715381Y-60904476D01*
X108096333Y-61237810D01*
X108096333Y-61094952D01*
X108143952Y-60999714D01*
X108191571Y-60952095D01*
X108286810Y-60904476D01*
X108524905Y-60904476D01*
X108620143Y-60952095D01*
X108667762Y-60999714D01*
X108715381Y-61094952D01*
X108715381Y-61380667D01*
X108667762Y-61475905D01*
X108620143Y-61523524D01*
X107810619Y-60523524D02*
X107763000Y-60475905D01*
X107715381Y-60380667D01*
X107715381Y-60142571D01*
X107763000Y-60047333D01*
X107810619Y-59999714D01*
X107905857Y-59952095D01*
X108001095Y-59952095D01*
X108143952Y-59999714D01*
X108715381Y-60571143D01*
X108715381Y-59952095D01*
X137099881Y-111323357D02*
X136623690Y-111656691D01*
X137099881Y-111894786D02*
X136099881Y-111894786D01*
X136099881Y-111513833D01*
X136147500Y-111418595D01*
X136195119Y-111370976D01*
X136290357Y-111323357D01*
X136433214Y-111323357D01*
X136528452Y-111370976D01*
X136576071Y-111418595D01*
X136623690Y-111513833D01*
X136623690Y-111894786D01*
X136099881Y-110990024D02*
X136099881Y-110370976D01*
X136480833Y-110704310D01*
X136480833Y-110561452D01*
X136528452Y-110466214D01*
X136576071Y-110418595D01*
X136671310Y-110370976D01*
X136909405Y-110370976D01*
X137004643Y-110418595D01*
X137052262Y-110466214D01*
X137099881Y-110561452D01*
X137099881Y-110847167D01*
X137052262Y-110942405D01*
X137004643Y-110990024D01*
X136099881Y-110037643D02*
X136099881Y-109418595D01*
X136480833Y-109751929D01*
X136480833Y-109609071D01*
X136528452Y-109513833D01*
X136576071Y-109466214D01*
X136671310Y-109418595D01*
X136909405Y-109418595D01*
X137004643Y-109466214D01*
X137052262Y-109513833D01*
X137099881Y-109609071D01*
X137099881Y-109894786D01*
X137052262Y-109990024D01*
X137004643Y-110037643D01*
X141299881Y-106370357D02*
X140823690Y-106703691D01*
X141299881Y-106941786D02*
X140299881Y-106941786D01*
X140299881Y-106560833D01*
X140347500Y-106465595D01*
X140395119Y-106417976D01*
X140490357Y-106370357D01*
X140633214Y-106370357D01*
X140728452Y-106417976D01*
X140776071Y-106465595D01*
X140823690Y-106560833D01*
X140823690Y-106941786D01*
X140299881Y-106037024D02*
X140299881Y-105417976D01*
X140680833Y-105751310D01*
X140680833Y-105608452D01*
X140728452Y-105513214D01*
X140776071Y-105465595D01*
X140871310Y-105417976D01*
X141109405Y-105417976D01*
X141204643Y-105465595D01*
X141252262Y-105513214D01*
X141299881Y-105608452D01*
X141299881Y-105894167D01*
X141252262Y-105989405D01*
X141204643Y-106037024D01*
X140633214Y-104560833D02*
X141299881Y-104560833D01*
X140252262Y-104798929D02*
X140966548Y-105037024D01*
X140966548Y-104417976D01*
X125959643Y-98364881D02*
X125626309Y-97888690D01*
X125388214Y-98364881D02*
X125388214Y-97364881D01*
X125769167Y-97364881D01*
X125864405Y-97412500D01*
X125912024Y-97460119D01*
X125959643Y-97555357D01*
X125959643Y-97698214D01*
X125912024Y-97793452D01*
X125864405Y-97841071D01*
X125769167Y-97888690D01*
X125388214Y-97888690D01*
X126292976Y-97364881D02*
X126912024Y-97364881D01*
X126578690Y-97745833D01*
X126721548Y-97745833D01*
X126816786Y-97793452D01*
X126864405Y-97841071D01*
X126912024Y-97936310D01*
X126912024Y-98174405D01*
X126864405Y-98269643D01*
X126816786Y-98317262D01*
X126721548Y-98364881D01*
X126435833Y-98364881D01*
X126340595Y-98317262D01*
X126292976Y-98269643D01*
X127816786Y-97364881D02*
X127340595Y-97364881D01*
X127292976Y-97841071D01*
X127340595Y-97793452D01*
X127435833Y-97745833D01*
X127673929Y-97745833D01*
X127769167Y-97793452D01*
X127816786Y-97841071D01*
X127864405Y-97936310D01*
X127864405Y-98174405D01*
X127816786Y-98269643D01*
X127769167Y-98317262D01*
X127673929Y-98364881D01*
X127435833Y-98364881D01*
X127340595Y-98317262D01*
X127292976Y-98269643D01*
X126166643Y-105095881D02*
X125833309Y-104619690D01*
X125595214Y-105095881D02*
X125595214Y-104095881D01*
X125976167Y-104095881D01*
X126071405Y-104143500D01*
X126119024Y-104191119D01*
X126166643Y-104286357D01*
X126166643Y-104429214D01*
X126119024Y-104524452D01*
X126071405Y-104572071D01*
X125976167Y-104619690D01*
X125595214Y-104619690D01*
X126499976Y-104095881D02*
X127119024Y-104095881D01*
X126785690Y-104476833D01*
X126928548Y-104476833D01*
X127023786Y-104524452D01*
X127071405Y-104572071D01*
X127119024Y-104667310D01*
X127119024Y-104905405D01*
X127071405Y-105000643D01*
X127023786Y-105048262D01*
X126928548Y-105095881D01*
X126642833Y-105095881D01*
X126547595Y-105048262D01*
X126499976Y-105000643D01*
X127976167Y-104095881D02*
X127785690Y-104095881D01*
X127690452Y-104143500D01*
X127642833Y-104191119D01*
X127547595Y-104333976D01*
X127499976Y-104524452D01*
X127499976Y-104905405D01*
X127547595Y-105000643D01*
X127595214Y-105048262D01*
X127690452Y-105095881D01*
X127880929Y-105095881D01*
X127976167Y-105048262D01*
X128023786Y-105000643D01*
X128071405Y-104905405D01*
X128071405Y-104667310D01*
X128023786Y-104572071D01*
X127976167Y-104524452D01*
X127880929Y-104476833D01*
X127690452Y-104476833D01*
X127595214Y-104524452D01*
X127547595Y-104572071D01*
X127499976Y-104667310D01*
X176141143Y-74434381D02*
X175807809Y-73958190D01*
X175569714Y-74434381D02*
X175569714Y-73434381D01*
X175950667Y-73434381D01*
X176045905Y-73482000D01*
X176093524Y-73529619D01*
X176141143Y-73624857D01*
X176141143Y-73767714D01*
X176093524Y-73862952D01*
X176045905Y-73910571D01*
X175950667Y-73958190D01*
X175569714Y-73958190D01*
X176474476Y-73434381D02*
X177093524Y-73434381D01*
X176760190Y-73815333D01*
X176903048Y-73815333D01*
X176998286Y-73862952D01*
X177045905Y-73910571D01*
X177093524Y-74005810D01*
X177093524Y-74243905D01*
X177045905Y-74339143D01*
X176998286Y-74386762D01*
X176903048Y-74434381D01*
X176617333Y-74434381D01*
X176522095Y-74386762D01*
X176474476Y-74339143D01*
X177664952Y-73862952D02*
X177569714Y-73815333D01*
X177522095Y-73767714D01*
X177474476Y-73672476D01*
X177474476Y-73624857D01*
X177522095Y-73529619D01*
X177569714Y-73482000D01*
X177664952Y-73434381D01*
X177855429Y-73434381D01*
X177950667Y-73482000D01*
X177998286Y-73529619D01*
X178045905Y-73624857D01*
X178045905Y-73672476D01*
X177998286Y-73767714D01*
X177950667Y-73815333D01*
X177855429Y-73862952D01*
X177664952Y-73862952D01*
X177569714Y-73910571D01*
X177522095Y-73958190D01*
X177474476Y-74053429D01*
X177474476Y-74243905D01*
X177522095Y-74339143D01*
X177569714Y-74386762D01*
X177664952Y-74434381D01*
X177855429Y-74434381D01*
X177950667Y-74386762D01*
X177998286Y-74339143D01*
X178045905Y-74243905D01*
X178045905Y-74053429D01*
X177998286Y-73958190D01*
X177950667Y-73910571D01*
X177855429Y-73862952D01*
X176141143Y-72520381D02*
X175807809Y-72044190D01*
X175569714Y-72520381D02*
X175569714Y-71520381D01*
X175950667Y-71520381D01*
X176045905Y-71568000D01*
X176093524Y-71615619D01*
X176141143Y-71710857D01*
X176141143Y-71853714D01*
X176093524Y-71948952D01*
X176045905Y-71996571D01*
X175950667Y-72044190D01*
X175569714Y-72044190D01*
X176998286Y-71853714D02*
X176998286Y-72520381D01*
X176760190Y-71472762D02*
X176522095Y-72187048D01*
X177141143Y-72187048D01*
X177712571Y-71520381D02*
X177807810Y-71520381D01*
X177903048Y-71568000D01*
X177950667Y-71615619D01*
X177998286Y-71710857D01*
X178045905Y-71901333D01*
X178045905Y-72139429D01*
X177998286Y-72329905D01*
X177950667Y-72425143D01*
X177903048Y-72472762D01*
X177807810Y-72520381D01*
X177712571Y-72520381D01*
X177617333Y-72472762D01*
X177569714Y-72425143D01*
X177522095Y-72329905D01*
X177474476Y-72139429D01*
X177474476Y-71901333D01*
X177522095Y-71710857D01*
X177569714Y-71615619D01*
X177617333Y-71568000D01*
X177712571Y-71520381D01*
X176141143Y-74806381D02*
X175807809Y-74330190D01*
X175569714Y-74806381D02*
X175569714Y-73806381D01*
X175950667Y-73806381D01*
X176045905Y-73854000D01*
X176093524Y-73901619D01*
X176141143Y-73996857D01*
X176141143Y-74139714D01*
X176093524Y-74234952D01*
X176045905Y-74282571D01*
X175950667Y-74330190D01*
X175569714Y-74330190D01*
X176998286Y-74139714D02*
X176998286Y-74806381D01*
X176760190Y-73758762D02*
X176522095Y-74473048D01*
X177141143Y-74473048D01*
X177474476Y-73901619D02*
X177522095Y-73854000D01*
X177617333Y-73806381D01*
X177855429Y-73806381D01*
X177950667Y-73854000D01*
X177998286Y-73901619D01*
X178045905Y-73996857D01*
X178045905Y-74092095D01*
X177998286Y-74234952D01*
X177426857Y-74806381D01*
X178045905Y-74806381D01*
X131683286Y-80331381D02*
X132254715Y-80331381D01*
X131969000Y-81331381D02*
X131969000Y-80331381D01*
X132588048Y-81331381D02*
X132588048Y-80331381D01*
X132588048Y-80807571D02*
X133159477Y-80807571D01*
X133159477Y-81331381D02*
X133159477Y-80331381D01*
X134159477Y-81331381D02*
X133588048Y-81331381D01*
X133873762Y-81331381D02*
X133873762Y-80331381D01*
X133778524Y-80474238D01*
X133683286Y-80569476D01*
X133588048Y-80617095D01*
X154412381Y-86566214D02*
X154412381Y-85994785D01*
X155412381Y-86280500D02*
X154412381Y-86280500D01*
X155412381Y-85661452D02*
X154412381Y-85661452D01*
X154888571Y-85661452D02*
X154888571Y-85090023D01*
X155412381Y-85090023D02*
X154412381Y-85090023D01*
X154507619Y-84661452D02*
X154460000Y-84613833D01*
X154412381Y-84518595D01*
X154412381Y-84280499D01*
X154460000Y-84185261D01*
X154507619Y-84137642D01*
X154602857Y-84090023D01*
X154698095Y-84090023D01*
X154840952Y-84137642D01*
X155412381Y-84709071D01*
X155412381Y-84090023D01*
X145662401Y-68254785D02*
X146471925Y-68254785D01*
X146567163Y-68207166D01*
X146614782Y-68159547D01*
X146662401Y-68064309D01*
X146662401Y-67873832D01*
X146614782Y-67778594D01*
X146567163Y-67730975D01*
X146471925Y-67683356D01*
X145662401Y-67683356D01*
X146662401Y-66683356D02*
X146662401Y-67254785D01*
X146662401Y-66969071D02*
X145662401Y-66969071D01*
X145805258Y-67064309D01*
X145900496Y-67159547D01*
X145948115Y-67254785D01*
X163576095Y-80397381D02*
X163576095Y-81206905D01*
X163623714Y-81302143D01*
X163671333Y-81349762D01*
X163766571Y-81397381D01*
X163957048Y-81397381D01*
X164052286Y-81349762D01*
X164099905Y-81302143D01*
X164147524Y-81206905D01*
X164147524Y-80397381D01*
X164576095Y-80492619D02*
X164623714Y-80445000D01*
X164718952Y-80397381D01*
X164957048Y-80397381D01*
X165052286Y-80445000D01*
X165099905Y-80492619D01*
X165147524Y-80587857D01*
X165147524Y-80683095D01*
X165099905Y-80825952D01*
X164528476Y-81397381D01*
X165147524Y-81397381D01*
X120670381Y-99059905D02*
X121479905Y-99059905D01*
X121575143Y-99012286D01*
X121622762Y-98964667D01*
X121670381Y-98869429D01*
X121670381Y-98678952D01*
X121622762Y-98583714D01*
X121575143Y-98536095D01*
X121479905Y-98488476D01*
X120670381Y-98488476D01*
X120670381Y-98107524D02*
X120670381Y-97488476D01*
X121051333Y-97821810D01*
X121051333Y-97678952D01*
X121098952Y-97583714D01*
X121146571Y-97536095D01*
X121241810Y-97488476D01*
X121479905Y-97488476D01*
X121575143Y-97536095D01*
X121622762Y-97583714D01*
X121670381Y-97678952D01*
X121670381Y-97964667D01*
X121622762Y-98059905D01*
X121575143Y-98107524D01*
X113946381Y-82168905D02*
X114755905Y-82168905D01*
X114851143Y-82121286D01*
X114898762Y-82073667D01*
X114946381Y-81978429D01*
X114946381Y-81787952D01*
X114898762Y-81692714D01*
X114851143Y-81645095D01*
X114755905Y-81597476D01*
X113946381Y-81597476D01*
X114279714Y-80692714D02*
X114946381Y-80692714D01*
X113898762Y-80930810D02*
X114613048Y-81168905D01*
X114613048Y-80549857D01*
X111506095Y-104668381D02*
X111506095Y-105477905D01*
X111553714Y-105573143D01*
X111601333Y-105620762D01*
X111696571Y-105668381D01*
X111887048Y-105668381D01*
X111982286Y-105620762D01*
X112029905Y-105573143D01*
X112077524Y-105477905D01*
X112077524Y-104668381D01*
X113029905Y-104668381D02*
X112553714Y-104668381D01*
X112506095Y-105144571D01*
X112553714Y-105096952D01*
X112648952Y-105049333D01*
X112887048Y-105049333D01*
X112982286Y-105096952D01*
X113029905Y-105144571D01*
X113077524Y-105239810D01*
X113077524Y-105477905D01*
X113029905Y-105573143D01*
X112982286Y-105620762D01*
X112887048Y-105668381D01*
X112648952Y-105668381D01*
X112553714Y-105620762D01*
X112506095Y-105573143D01*
X134493095Y-76785381D02*
X134493095Y-77594905D01*
X134540714Y-77690143D01*
X134588333Y-77737762D01*
X134683571Y-77785381D01*
X134874048Y-77785381D01*
X134969286Y-77737762D01*
X135016905Y-77690143D01*
X135064524Y-77594905D01*
X135064524Y-76785381D01*
X135969286Y-76785381D02*
X135778809Y-76785381D01*
X135683571Y-76833000D01*
X135635952Y-76880619D01*
X135540714Y-77023476D01*
X135493095Y-77213952D01*
X135493095Y-77594905D01*
X135540714Y-77690143D01*
X135588333Y-77737762D01*
X135683571Y-77785381D01*
X135874048Y-77785381D01*
X135969286Y-77737762D01*
X136016905Y-77690143D01*
X136064524Y-77594905D01*
X136064524Y-77356810D01*
X136016905Y-77261571D01*
X135969286Y-77213952D01*
X135874048Y-77166333D01*
X135683571Y-77166333D01*
X135588333Y-77213952D01*
X135540714Y-77261571D01*
X135493095Y-77356810D01*
X151384095Y-76150381D02*
X151384095Y-76959905D01*
X151431714Y-77055143D01*
X151479333Y-77102762D01*
X151574571Y-77150381D01*
X151765048Y-77150381D01*
X151860286Y-77102762D01*
X151907905Y-77055143D01*
X151955524Y-76959905D01*
X151955524Y-76150381D01*
X152336476Y-76150381D02*
X153003143Y-76150381D01*
X152574571Y-77150381D01*
X120610381Y-74167905D02*
X121419905Y-74167905D01*
X121515143Y-74120286D01*
X121562762Y-74072667D01*
X121610381Y-73977429D01*
X121610381Y-73786952D01*
X121562762Y-73691714D01*
X121515143Y-73644095D01*
X121419905Y-73596476D01*
X120610381Y-73596476D01*
X121038952Y-72977429D02*
X120991333Y-73072667D01*
X120943714Y-73120286D01*
X120848476Y-73167905D01*
X120800857Y-73167905D01*
X120705619Y-73120286D01*
X120658000Y-73072667D01*
X120610381Y-72977429D01*
X120610381Y-72786952D01*
X120658000Y-72691714D01*
X120705619Y-72644095D01*
X120800857Y-72596476D01*
X120848476Y-72596476D01*
X120943714Y-72644095D01*
X120991333Y-72691714D01*
X121038952Y-72786952D01*
X121038952Y-72977429D01*
X121086571Y-73072667D01*
X121134190Y-73120286D01*
X121229429Y-73167905D01*
X121419905Y-73167905D01*
X121515143Y-73120286D01*
X121562762Y-73072667D01*
X121610381Y-72977429D01*
X121610381Y-72786952D01*
X121562762Y-72691714D01*
X121515143Y-72644095D01*
X121419905Y-72596476D01*
X121229429Y-72596476D01*
X121134190Y-72644095D01*
X121086571Y-72691714D01*
X121038952Y-72786952D01*
X116967095Y-60860381D02*
X116967095Y-61669905D01*
X117014714Y-61765143D01*
X117062333Y-61812762D01*
X117157571Y-61860381D01*
X117348048Y-61860381D01*
X117443286Y-61812762D01*
X117490905Y-61765143D01*
X117538524Y-61669905D01*
X117538524Y-60860381D01*
X118062333Y-61860381D02*
X118252809Y-61860381D01*
X118348048Y-61812762D01*
X118395667Y-61765143D01*
X118490905Y-61622286D01*
X118538524Y-61431810D01*
X118538524Y-61050857D01*
X118490905Y-60955619D01*
X118443286Y-60908000D01*
X118348048Y-60860381D01*
X118157571Y-60860381D01*
X118062333Y-60908000D01*
X118014714Y-60955619D01*
X117967095Y-61050857D01*
X117967095Y-61288952D01*
X118014714Y-61384190D01*
X118062333Y-61431810D01*
X118157571Y-61479429D01*
X118348048Y-61479429D01*
X118443286Y-61431810D01*
X118490905Y-61384190D01*
X118538524Y-61288952D01*
X130699381Y-109442095D02*
X131508905Y-109442095D01*
X131604143Y-109394476D01*
X131651762Y-109346857D01*
X131699381Y-109251619D01*
X131699381Y-109061142D01*
X131651762Y-108965904D01*
X131604143Y-108918285D01*
X131508905Y-108870666D01*
X130699381Y-108870666D01*
X131699381Y-107870666D02*
X131699381Y-108442095D01*
X131699381Y-108156381D02*
X130699381Y-108156381D01*
X130842238Y-108251619D01*
X130937476Y-108346857D01*
X130985095Y-108442095D01*
X130699381Y-107251619D02*
X130699381Y-107156380D01*
X130747000Y-107061142D01*
X130794619Y-107013523D01*
X130889857Y-106965904D01*
X131080333Y-106918285D01*
X131318429Y-106918285D01*
X131508905Y-106965904D01*
X131604143Y-107013523D01*
X131651762Y-107061142D01*
X131699381Y-107156380D01*
X131699381Y-107251619D01*
X131651762Y-107346857D01*
X131604143Y-107394476D01*
X131508905Y-107442095D01*
X131318429Y-107489714D01*
X131080333Y-107489714D01*
X130889857Y-107442095D01*
X130794619Y-107394476D01*
X130747000Y-107346857D01*
X130699381Y-107251619D01*
X169299476Y-70023381D02*
X169299476Y-70832905D01*
X169347095Y-70928143D01*
X169394714Y-70975762D01*
X169489952Y-71023381D01*
X169680429Y-71023381D01*
X169775667Y-70975762D01*
X169823286Y-70928143D01*
X169870905Y-70832905D01*
X169870905Y-70023381D01*
X170870905Y-71023381D02*
X170299476Y-71023381D01*
X170585190Y-71023381D02*
X170585190Y-70023381D01*
X170489952Y-70166238D01*
X170394714Y-70261476D01*
X170299476Y-70309095D01*
X171823286Y-71023381D02*
X171251857Y-71023381D01*
X171537571Y-71023381D02*
X171537571Y-70023381D01*
X171442333Y-70166238D01*
X171347095Y-70261476D01*
X171251857Y-70309095D01*
X117816334Y-62809381D02*
X117340143Y-62809381D01*
X117340143Y-61809381D01*
X118673477Y-62809381D02*
X118102048Y-62809381D01*
X118387762Y-62809381D02*
X118387762Y-61809381D01*
X118292524Y-61952238D01*
X118197286Y-62047476D01*
X118102048Y-62095095D01*
X139887619Y-61690238D02*
X139840000Y-61785476D01*
X139744762Y-61880714D01*
X139601905Y-62023571D01*
X139554286Y-62118810D01*
X139554286Y-62214048D01*
X139792381Y-62166429D02*
X139744762Y-62261667D01*
X139649524Y-62356905D01*
X139459048Y-62404524D01*
X139125714Y-62404524D01*
X138935238Y-62356905D01*
X138840000Y-62261667D01*
X138792381Y-62166429D01*
X138792381Y-61975952D01*
X138840000Y-61880714D01*
X138935238Y-61785476D01*
X139125714Y-61737857D01*
X139459048Y-61737857D01*
X139649524Y-61785476D01*
X139744762Y-61880714D01*
X139792381Y-61975952D01*
X139792381Y-62166429D01*
X139792381Y-60785476D02*
X139792381Y-61356905D01*
X139792381Y-61071191D02*
X138792381Y-61071191D01*
X138935238Y-61166429D01*
X139030476Y-61261667D01*
X139078095Y-61356905D01*
X151725381Y-95170524D02*
X152725381Y-94503857D01*
X151725381Y-94503857D02*
X152725381Y-95170524D01*
X152725381Y-93599095D02*
X152725381Y-94170524D01*
X152725381Y-93884810D02*
X151725381Y-93884810D01*
X151868238Y-93980048D01*
X151963476Y-94075286D01*
X152011095Y-94170524D01*
X111651667Y-115563571D02*
X111318333Y-115563571D01*
X111318333Y-116087381D02*
X111318333Y-115087381D01*
X111794524Y-115087381D01*
X112699286Y-116087381D02*
X112127857Y-116087381D01*
X112413571Y-116087381D02*
X112413571Y-115087381D01*
X112318333Y-115230238D01*
X112223095Y-115325476D01*
X112127857Y-115373095D01*
X102743095Y-112593381D02*
X102743095Y-111593381D01*
X102743095Y-112069571D02*
X103314524Y-112069571D01*
X103314524Y-112593381D02*
X103314524Y-111593381D01*
X104314524Y-112593381D02*
X103743095Y-112593381D01*
X104028809Y-112593381D02*
X104028809Y-111593381D01*
X103933571Y-111736238D01*
X103838333Y-111831476D01*
X103743095Y-111879095D01*
X102743095Y-59967381D02*
X102743095Y-58967381D01*
X102743095Y-59443571D02*
X103314524Y-59443571D01*
X103314524Y-59967381D02*
X103314524Y-58967381D01*
X103743095Y-59062619D02*
X103790714Y-59015000D01*
X103885952Y-58967381D01*
X104124048Y-58967381D01*
X104219286Y-59015000D01*
X104266905Y-59062619D01*
X104314524Y-59157857D01*
X104314524Y-59253095D01*
X104266905Y-59395952D01*
X103695476Y-59967381D01*
X104314524Y-59967381D01*
X181483095Y-59967381D02*
X181483095Y-58967381D01*
X181483095Y-59443571D02*
X182054524Y-59443571D01*
X182054524Y-59967381D02*
X182054524Y-58967381D01*
X182435476Y-58967381D02*
X183054524Y-58967381D01*
X182721190Y-59348333D01*
X182864048Y-59348333D01*
X182959286Y-59395952D01*
X183006905Y-59443571D01*
X183054524Y-59538810D01*
X183054524Y-59776905D01*
X183006905Y-59872143D01*
X182959286Y-59919762D01*
X182864048Y-59967381D01*
X182578333Y-59967381D01*
X182483095Y-59919762D01*
X182435476Y-59872143D01*
X181483095Y-112593381D02*
X181483095Y-111593381D01*
X181483095Y-112069571D02*
X182054524Y-112069571D01*
X182054524Y-112593381D02*
X182054524Y-111593381D01*
X182959286Y-111926714D02*
X182959286Y-112593381D01*
X182721190Y-111545762D02*
X182483095Y-112260048D01*
X183102143Y-112260048D01*
X169449905Y-57420381D02*
X169449905Y-58229905D01*
X169497524Y-58325143D01*
X169545143Y-58372762D01*
X169640381Y-58420381D01*
X169830858Y-58420381D01*
X169926096Y-58372762D01*
X169973715Y-58325143D01*
X170021334Y-58229905D01*
X170021334Y-57420381D01*
X171021334Y-58420381D02*
X170449905Y-58420381D01*
X170735619Y-58420381D02*
X170735619Y-57420381D01*
X170640381Y-57563238D01*
X170545143Y-57658476D01*
X170449905Y-57706095D01*
X171402286Y-57515619D02*
X171449905Y-57468000D01*
X171545143Y-57420381D01*
X171783239Y-57420381D01*
X171878477Y-57468000D01*
X171926096Y-57515619D01*
X171973715Y-57610857D01*
X171973715Y-57706095D01*
X171926096Y-57848952D01*
X171354667Y-58420381D01*
X171973715Y-58420381D01*
X104787381Y-92051095D02*
X103787381Y-92051095D01*
X103787381Y-91670142D01*
X103835000Y-91574904D01*
X103882619Y-91527285D01*
X103977857Y-91479666D01*
X104120714Y-91479666D01*
X104215952Y-91527285D01*
X104263571Y-91574904D01*
X104311190Y-91670142D01*
X104311190Y-92051095D01*
X104787381Y-90527285D02*
X104787381Y-91098714D01*
X104787381Y-90813000D02*
X103787381Y-90813000D01*
X103930238Y-90908238D01*
X104025476Y-91003476D01*
X104073095Y-91098714D01*
X151487239Y-68210571D02*
X151630096Y-68258190D01*
X151677715Y-68305810D01*
X151725334Y-68401048D01*
X151725334Y-68543905D01*
X151677715Y-68639143D01*
X151630096Y-68686762D01*
X151534858Y-68734381D01*
X151153905Y-68734381D01*
X151153905Y-67734381D01*
X151487239Y-67734381D01*
X151582477Y-67782000D01*
X151630096Y-67829619D01*
X151677715Y-67924857D01*
X151677715Y-68020095D01*
X151630096Y-68115333D01*
X151582477Y-68162952D01*
X151487239Y-68210571D01*
X151153905Y-68210571D01*
X152106286Y-67829619D02*
X152153905Y-67782000D01*
X152249143Y-67734381D01*
X152487239Y-67734381D01*
X152582477Y-67782000D01*
X152630096Y-67829619D01*
X152677715Y-67924857D01*
X152677715Y-68020095D01*
X152630096Y-68162952D01*
X152058667Y-68734381D01*
X152677715Y-68734381D01*
X134342239Y-68972571D02*
X134485096Y-69020190D01*
X134532715Y-69067810D01*
X134580334Y-69163048D01*
X134580334Y-69305905D01*
X134532715Y-69401143D01*
X134485096Y-69448762D01*
X134389858Y-69496381D01*
X134008905Y-69496381D01*
X134008905Y-68496381D01*
X134342239Y-68496381D01*
X134437477Y-68544000D01*
X134485096Y-68591619D01*
X134532715Y-68686857D01*
X134532715Y-68782095D01*
X134485096Y-68877333D01*
X134437477Y-68924952D01*
X134342239Y-68972571D01*
X134008905Y-68972571D01*
X135532715Y-69496381D02*
X134961286Y-69496381D01*
X135247000Y-69496381D02*
X135247000Y-68496381D01*
X135151762Y-68639238D01*
X135056524Y-68734476D01*
X134961286Y-68782095D01*
M02*
