G04 #@! TF.FileFunction,Soldermask,Top*
%FSLAX46Y46*%
G04 Gerber Fmt 4.6, Leading zero omitted, Abs format (unit mm)*
G04 Created by KiCad (PCBNEW (after 2015-mar-04 BZR unknown)-product) date Fri 03 Jul 2015 12:32:40 AM EDT*
%MOMM*%
G01*
G04 APERTURE LIST*
%ADD10C,0.100000*%
%ADD11R,2.500000X2.400000*%
%ADD12R,1.250000X1.500000*%
%ADD13R,1.500000X1.250000*%
%ADD14R,1.220000X0.910000*%
%ADD15R,1.800860X1.597660*%
%ADD16R,0.910000X1.220000*%
%ADD17R,1.727200X1.727200*%
%ADD18O,1.727200X1.727200*%
%ADD19C,1.501140*%
%ADD20C,2.999740*%
%ADD21R,3.657600X2.032000*%
%ADD22R,1.016000X2.032000*%
%ADD23R,2.000000X2.500000*%
%ADD24R,2.400000X2.500000*%
%ADD25R,1.500000X1.300000*%
%ADD26R,1.300000X1.500000*%
%ADD27R,1.998980X0.690880*%
%ADD28R,1.600000X0.550000*%
%ADD29R,0.550000X1.600000*%
%ADD30R,0.450000X1.450000*%
%ADD31R,1.400000X0.300000*%
%ADD32R,1.450000X0.450000*%
%ADD33R,3.048000X1.651000*%
%ADD34R,6.096000X6.096000*%
%ADD35R,0.400000X1.200000*%
%ADD36R,2.000000X6.000000*%
%ADD37R,0.650000X1.060000*%
%ADD38R,1.900000X1.300000*%
%ADD39C,2.540000*%
%ADD40C,2.700000*%
%ADD41R,2.030000X0.610000*%
%ADD42C,1.700000*%
%ADD43R,1.200000X1.200000*%
%ADD44C,1.200000*%
G04 APERTURE END LIST*
D10*
D11*
X146304000Y-76352000D03*
X146304000Y-82652000D03*
D12*
X156083000Y-89007000D03*
X156083000Y-86507000D03*
X151828500Y-94190500D03*
X151828500Y-96690500D03*
D13*
X171978000Y-89789000D03*
X174478000Y-89789000D03*
D12*
X159512000Y-94190500D03*
X159512000Y-96690500D03*
D13*
X117368000Y-105156000D03*
X119868000Y-105156000D03*
D12*
X122428000Y-81895000D03*
X122428000Y-79395000D03*
D13*
X128885000Y-86296500D03*
X126385000Y-86296500D03*
X146792000Y-86042500D03*
X144292000Y-86042500D03*
D12*
X129921000Y-69489000D03*
X129921000Y-71989000D03*
X146812000Y-68600000D03*
X146812000Y-71100000D03*
X112903000Y-59964000D03*
X112903000Y-62464000D03*
X106426000Y-71394000D03*
X106426000Y-73894000D03*
D13*
X109875000Y-78232000D03*
X112375000Y-78232000D03*
X121813000Y-69596000D03*
X124313000Y-69596000D03*
D12*
X110363000Y-68560000D03*
X110363000Y-66060000D03*
X126619000Y-64496000D03*
X126619000Y-61996000D03*
D13*
X138664000Y-102171500D03*
X136164000Y-102171500D03*
X138537000Y-114490500D03*
X136037000Y-114490500D03*
X130218500Y-108966000D03*
X127718500Y-108966000D03*
X133838000Y-102171500D03*
X131338000Y-102171500D03*
X133838000Y-100012500D03*
X131338000Y-100012500D03*
X171938000Y-70104000D03*
X169438000Y-70104000D03*
X174732000Y-57404000D03*
X172232000Y-57404000D03*
X166898000Y-57404000D03*
X169398000Y-57404000D03*
D14*
X123253500Y-90122500D03*
X123253500Y-93392500D03*
D15*
X165227000Y-95966280D03*
X165227000Y-98806000D03*
D14*
X129921000Y-64024000D03*
X129921000Y-67294000D03*
X146812000Y-63135000D03*
X146812000Y-66405000D03*
X124079000Y-64881000D03*
X124079000Y-61611000D03*
D16*
X126127000Y-102171500D03*
X129397000Y-102171500D03*
X126127000Y-104457500D03*
X129397000Y-104457500D03*
D17*
X172974000Y-97663000D03*
D18*
X172974000Y-95123000D03*
X175514000Y-97663000D03*
X175514000Y-95123000D03*
X178054000Y-97663000D03*
X178054000Y-95123000D03*
D19*
X141668500Y-104648000D03*
X141668500Y-107188000D03*
X141668500Y-109220000D03*
X141668500Y-111760000D03*
D20*
X144335500Y-101600000D03*
X144335500Y-115316000D03*
D21*
X135001000Y-76327000D03*
D22*
X135001000Y-69723000D03*
X132715000Y-69723000D03*
X137287000Y-69723000D03*
D21*
X152146000Y-75438000D03*
D22*
X152146000Y-68834000D03*
X149860000Y-68834000D03*
X154432000Y-68834000D03*
D23*
X116618000Y-92837000D03*
X120618000Y-92837000D03*
D24*
X113944000Y-86741000D03*
X120244000Y-86741000D03*
D25*
X172038000Y-65532000D03*
X169338000Y-65532000D03*
X172038000Y-67818000D03*
X169338000Y-67818000D03*
X143082000Y-70612000D03*
X140382000Y-70612000D03*
X174164000Y-92329000D03*
X176864000Y-92329000D03*
X171370000Y-82677000D03*
X174070000Y-82677000D03*
D26*
X168719500Y-80407500D03*
X168719500Y-77707500D03*
D25*
X168609000Y-100838000D03*
X165909000Y-100838000D03*
D26*
X112776000Y-95932000D03*
X112776000Y-98632000D03*
X110490000Y-98632000D03*
X110490000Y-95932000D03*
D25*
X120730000Y-89535000D03*
X118030000Y-89535000D03*
X115777000Y-89535000D03*
X113077000Y-89535000D03*
D26*
X115316000Y-98632000D03*
X115316000Y-95932000D03*
D25*
X120189000Y-84074000D03*
X122889000Y-84074000D03*
X117268000Y-102870000D03*
X119968000Y-102870000D03*
D26*
X120142000Y-81868000D03*
X120142000Y-79168000D03*
D25*
X110918000Y-105664000D03*
X113618000Y-105664000D03*
D26*
X126365000Y-84027000D03*
X126365000Y-81327000D03*
X143510000Y-83646000D03*
X143510000Y-80946000D03*
D11*
X129159000Y-76733000D03*
X129159000Y-83033000D03*
D26*
X126365000Y-78439000D03*
X126365000Y-75739000D03*
X143510000Y-78058000D03*
X143510000Y-75358000D03*
D25*
X132381000Y-82931000D03*
X135081000Y-82931000D03*
X149272000Y-82296000D03*
X151972000Y-82296000D03*
D26*
X140843000Y-77009000D03*
X140843000Y-79709000D03*
X157353000Y-74024500D03*
X157353000Y-76724500D03*
D25*
X119079000Y-67310000D03*
X116379000Y-67310000D03*
X124413000Y-67310000D03*
X121713000Y-67310000D03*
D26*
X112903000Y-68660000D03*
X112903000Y-65960000D03*
X110363000Y-62564000D03*
X110363000Y-59864000D03*
X138747500Y-112030500D03*
X138747500Y-109330500D03*
X138747500Y-104377500D03*
X138747500Y-107077500D03*
D25*
X125252500Y-100012500D03*
X127952500Y-100012500D03*
X125459500Y-106743500D03*
X128159500Y-106743500D03*
X178134000Y-71882000D03*
X175434000Y-71882000D03*
X175434000Y-74168000D03*
X178134000Y-74168000D03*
X175434000Y-76454000D03*
X178134000Y-76454000D03*
D17*
X132969000Y-85979000D03*
D18*
X135509000Y-85979000D03*
D17*
X149860000Y-85280500D03*
D18*
X149860000Y-87820500D03*
D27*
X140058140Y-66614040D03*
X140058140Y-67564000D03*
X140058140Y-68513960D03*
X143659860Y-68513960D03*
X143659860Y-67564000D03*
X143659860Y-66614040D03*
D28*
X160088000Y-84195000D03*
X160088000Y-84995000D03*
X160088000Y-85795000D03*
X160088000Y-86595000D03*
X160088000Y-87395000D03*
X160088000Y-88195000D03*
X160088000Y-88995000D03*
X160088000Y-89795000D03*
D29*
X161538000Y-91245000D03*
X162338000Y-91245000D03*
X163138000Y-91245000D03*
X163938000Y-91245000D03*
X164738000Y-91245000D03*
X165538000Y-91245000D03*
X166338000Y-91245000D03*
X167138000Y-91245000D03*
D28*
X168588000Y-89795000D03*
X168588000Y-88995000D03*
X168588000Y-88195000D03*
X168588000Y-87395000D03*
X168588000Y-86595000D03*
X168588000Y-85795000D03*
X168588000Y-84995000D03*
X168588000Y-84195000D03*
D29*
X167138000Y-82745000D03*
X166338000Y-82745000D03*
X165538000Y-82745000D03*
X164738000Y-82745000D03*
X163938000Y-82745000D03*
X163138000Y-82745000D03*
X162338000Y-82745000D03*
X161538000Y-82745000D03*
D30*
X119593000Y-96098000D03*
X118943000Y-96098000D03*
X118293000Y-96098000D03*
X117643000Y-96098000D03*
X117643000Y-100498000D03*
X118293000Y-100498000D03*
X118943000Y-100498000D03*
X119593000Y-100498000D03*
X116119000Y-83607000D03*
X116769000Y-83607000D03*
X117419000Y-83607000D03*
X118069000Y-83607000D03*
X118069000Y-79207000D03*
X117419000Y-79207000D03*
X116769000Y-79207000D03*
X116119000Y-79207000D03*
D31*
X114468000Y-103616000D03*
X114468000Y-103116000D03*
X114468000Y-102616000D03*
X114468000Y-102116000D03*
X114468000Y-101616000D03*
X110068000Y-101616000D03*
X110068000Y-102116000D03*
X110068000Y-102616000D03*
X110068000Y-103116000D03*
X110068000Y-103616000D03*
D32*
X132305000Y-78908000D03*
X132305000Y-79558000D03*
X132305000Y-80208000D03*
X132305000Y-80858000D03*
X138205000Y-80858000D03*
X138205000Y-80208000D03*
X138205000Y-79558000D03*
X138205000Y-78908000D03*
X149196000Y-78273000D03*
X149196000Y-78923000D03*
X149196000Y-79573000D03*
X149196000Y-80223000D03*
X155096000Y-80223000D03*
X155096000Y-79573000D03*
X155096000Y-78923000D03*
X155096000Y-78273000D03*
D33*
X110744000Y-71120000D03*
D34*
X117094000Y-73406000D03*
D33*
X110744000Y-75692000D03*
D32*
X115529000Y-63033000D03*
X115529000Y-63683000D03*
X115529000Y-64333000D03*
X115529000Y-64983000D03*
X119929000Y-64983000D03*
X119929000Y-64333000D03*
X119929000Y-63683000D03*
X119929000Y-63033000D03*
D35*
X132524500Y-110804000D03*
X133159500Y-110804000D03*
X133794500Y-110804000D03*
X134429500Y-110804000D03*
X135064500Y-110804000D03*
X135699500Y-110804000D03*
X136334500Y-110804000D03*
X136969500Y-110804000D03*
X136969500Y-105604000D03*
X136334500Y-105604000D03*
X135699500Y-105604000D03*
X135064500Y-105604000D03*
X134429500Y-105604000D03*
X133794500Y-105604000D03*
X133159500Y-105604000D03*
X132524500Y-105604000D03*
D32*
X168337571Y-72196000D03*
X168337571Y-72846000D03*
X168337571Y-73496000D03*
X168337571Y-74146000D03*
X172737571Y-74146000D03*
X172737571Y-73496000D03*
X172737571Y-72846000D03*
X172737571Y-72196000D03*
D36*
X115833000Y-57912000D03*
X120133000Y-57912000D03*
D37*
X141290000Y-62695000D03*
X142240000Y-62695000D03*
X143190000Y-62695000D03*
X143190000Y-60495000D03*
X141290000Y-60495000D03*
X142240000Y-60495000D03*
D38*
X157302000Y-91611000D03*
X157302000Y-97111000D03*
X154102000Y-91611000D03*
X154102000Y-97111000D03*
D39*
X108585000Y-114935000D03*
D40*
X103505000Y-114935000D03*
X103505000Y-56515000D03*
X182245000Y-56515000D03*
X182245000Y-114935000D03*
D41*
X168238000Y-59563000D03*
X168238000Y-60833000D03*
X168238000Y-62103000D03*
X168238000Y-63373000D03*
X173138000Y-59563000D03*
X173138000Y-60833000D03*
X173138000Y-62103000D03*
X173138000Y-63373000D03*
D42*
X108585000Y-93063000D03*
X108585000Y-89563000D03*
D43*
X150892000Y-65532000D03*
D44*
X152892000Y-65532000D03*
D43*
X133747000Y-66294000D03*
D44*
X135747000Y-66294000D03*
M02*
