G04 #@! TF.FileFunction,Legend,Top*
%FSLAX46Y46*%
G04 Gerber Fmt 4.6, Leading zero omitted, Abs format (unit mm)*
G04 Created by KiCad (PCBNEW (after 2015-mar-04 BZR unknown)-product) date Wed 13 May 2015 01:15:45 AM EDT*
%MOMM*%
G01*
G04 APERTURE LIST*
%ADD10C,0.100000*%
%ADD11C,0.300000*%
%ADD12C,0.200000*%
%ADD13C,0.150000*%
G04 APERTURE END LIST*
D10*
D11*
X111951277Y-73258438D02*
X113094134Y-73258438D01*
X112522705Y-73829866D02*
X112522705Y-72687009D01*
X68771277Y-98658438D02*
X69914134Y-98658438D01*
X69342705Y-99229866D02*
X69342705Y-98087009D01*
X68771277Y-103738438D02*
X69914134Y-103738438D01*
X68771277Y-114406438D02*
X69914134Y-114406438D01*
X68771277Y-109326438D02*
X69914134Y-109326438D01*
X69342705Y-109897866D02*
X69342705Y-108755009D01*
X68771277Y-88498438D02*
X69914134Y-88498438D01*
X69342705Y-89069866D02*
X69342705Y-87927009D01*
X68771277Y-93578438D02*
X69914134Y-93578438D01*
X68771277Y-82910438D02*
X69914134Y-82910438D01*
X68771277Y-77830438D02*
X69914134Y-77830438D01*
X69342705Y-78401866D02*
X69342705Y-77259009D01*
X109411277Y-65130438D02*
X110554134Y-65130438D01*
X109982705Y-65701866D02*
X109982705Y-64559009D01*
X118047277Y-40238438D02*
X119190134Y-40238438D01*
X118618705Y-40809866D02*
X118618705Y-39667009D01*
X111951277Y-40238438D02*
X113094134Y-40238438D01*
X112522705Y-40809866D02*
X112522705Y-39667009D01*
D12*
X130302000Y-108712000D02*
X130302000Y-52832000D01*
X234442000Y-108712000D02*
X130302000Y-108712000D01*
X234442000Y-52832000D02*
X234442000Y-108712000D01*
X130302000Y-52832000D02*
X234442000Y-52832000D01*
D13*
X117220400Y-43997400D02*
X118770400Y-43997400D01*
X117220400Y-42697400D02*
X117220400Y-43997400D01*
X118643400Y-38506400D02*
X118643400Y-32664400D01*
X118643400Y-32664400D02*
X118897400Y-32664400D01*
X118897400Y-32664400D02*
X118897400Y-38506400D01*
X118897400Y-38506400D02*
X118770400Y-38506400D01*
X118770400Y-38506400D02*
X118770400Y-32664400D01*
X118516400Y-41173400D02*
X118516400Y-41554400D01*
X119024400Y-41173400D02*
X119024400Y-41554400D01*
X120456400Y-41173400D02*
X120456400Y-41554400D01*
X120964400Y-41173400D02*
X120964400Y-41554400D01*
X117500400Y-41173400D02*
X117500400Y-38633400D01*
X119740400Y-41173400D02*
X119740400Y-38633400D01*
X120040400Y-41173400D02*
X122070400Y-41173400D01*
X122080400Y-41173400D02*
X122080400Y-38633400D01*
X121056400Y-38633400D02*
X121056400Y-32537400D01*
X121056400Y-32537400D02*
X121564400Y-32537400D01*
X121564400Y-32537400D02*
X121564400Y-38633400D01*
X122070400Y-38633400D02*
X120040400Y-38633400D01*
X120040400Y-38633400D02*
X117500400Y-38633400D01*
X119024400Y-32537400D02*
X119024400Y-38633400D01*
X118516400Y-32537400D02*
X119024400Y-32537400D01*
X118516400Y-38633400D02*
X118516400Y-32537400D01*
X119740400Y-41173400D02*
X119740400Y-38633400D01*
X117500400Y-41173400D02*
X120040400Y-41173400D01*
X110972000Y-43972000D02*
X112522000Y-43972000D01*
X110972000Y-42672000D02*
X110972000Y-43972000D01*
X112395000Y-38481000D02*
X112395000Y-32639000D01*
X112395000Y-32639000D02*
X112649000Y-32639000D01*
X112649000Y-32639000D02*
X112649000Y-38481000D01*
X112649000Y-38481000D02*
X112522000Y-38481000D01*
X112522000Y-38481000D02*
X112522000Y-32639000D01*
X112268000Y-41148000D02*
X112268000Y-41529000D01*
X112776000Y-41148000D02*
X112776000Y-41529000D01*
X114308000Y-41148000D02*
X114308000Y-41529000D01*
X114816000Y-41148000D02*
X114816000Y-41529000D01*
X111252000Y-41148000D02*
X111252000Y-38608000D01*
X113592000Y-41148000D02*
X113592000Y-38608000D01*
X113792000Y-41148000D02*
X115822000Y-41148000D01*
X115832000Y-41148000D02*
X115832000Y-38608000D01*
X114308000Y-38608000D02*
X114308000Y-32512000D01*
X114308000Y-32512000D02*
X114816000Y-32512000D01*
X114816000Y-32512000D02*
X114816000Y-38608000D01*
X115822000Y-38608000D02*
X113792000Y-38608000D01*
X113792000Y-38608000D02*
X111252000Y-38608000D01*
X112776000Y-32512000D02*
X112776000Y-38608000D01*
X112268000Y-32512000D02*
X112776000Y-32512000D01*
X112268000Y-38608000D02*
X112268000Y-32512000D01*
X113592000Y-41148000D02*
X113592000Y-38608000D01*
X111252000Y-41148000D02*
X113792000Y-41148000D01*
X79368001Y-45534500D02*
X79368001Y-45859500D01*
X86618001Y-45534500D02*
X86618001Y-45859500D01*
X86618001Y-52784500D02*
X86618001Y-52459500D01*
X79368001Y-52784500D02*
X79368001Y-52459500D01*
X79368001Y-45534500D02*
X79693001Y-45534500D01*
X79368001Y-52784500D02*
X79693001Y-52784500D01*
X86618001Y-52784500D02*
X86293001Y-52784500D01*
X86618001Y-45534500D02*
X86293001Y-45534500D01*
X79368001Y-45859500D02*
X77943001Y-45859500D01*
X92956000Y-47981500D02*
X91956000Y-47981500D01*
X91956000Y-49681500D02*
X92956000Y-49681500D01*
X73160000Y-48475000D02*
X74160000Y-48475000D01*
X74160000Y-46775000D02*
X73160000Y-46775000D01*
X73160000Y-46189000D02*
X74160000Y-46189000D01*
X74160000Y-44489000D02*
X73160000Y-44489000D01*
X72969500Y-56349000D02*
X73969500Y-56349000D01*
X73969500Y-54649000D02*
X72969500Y-54649000D01*
X93892000Y-76970000D02*
X93892000Y-77970000D01*
X95592000Y-77970000D02*
X95592000Y-76970000D01*
X98591000Y-76970000D02*
X98591000Y-77970000D01*
X100291000Y-77970000D02*
X100291000Y-76970000D01*
X105449705Y-80779295D02*
X105449705Y-81779295D01*
X107149705Y-81779295D02*
X107149705Y-80779295D01*
X96258000Y-85256000D02*
X95258000Y-85256000D01*
X95258000Y-86956000D02*
X96258000Y-86956000D01*
X104593205Y-88161795D02*
X105593205Y-88161795D01*
X105593205Y-86461795D02*
X104593205Y-86461795D01*
X127596000Y-86225000D02*
X127596000Y-85225000D01*
X125896000Y-85225000D02*
X125896000Y-86225000D01*
X95338000Y-35679000D02*
X95338000Y-34679000D01*
X93638000Y-34679000D02*
X93638000Y-35679000D01*
X117340000Y-49696000D02*
X116340000Y-49696000D01*
X116340000Y-51396000D02*
X117340000Y-51396000D01*
X116340000Y-53428000D02*
X117340000Y-53428000D01*
X117340000Y-51728000D02*
X116340000Y-51728000D01*
X127596000Y-42410000D02*
X127596000Y-41410000D01*
X125896000Y-41410000D02*
X125896000Y-42410000D01*
X100211000Y-39775500D02*
X101211000Y-39775500D01*
X101211000Y-38075500D02*
X100211000Y-38075500D01*
X116578000Y-72492500D02*
X115578000Y-72492500D01*
X115578000Y-74192500D02*
X116578000Y-74192500D01*
X120308000Y-70112000D02*
X120308000Y-71112000D01*
X122008000Y-71112000D02*
X122008000Y-70112000D01*
X126500000Y-75526000D02*
X127500000Y-75526000D01*
X127500000Y-73826000D02*
X126500000Y-73826000D01*
X107022000Y-75430000D02*
X107022000Y-74430000D01*
X105322000Y-74430000D02*
X105322000Y-75430000D01*
X105799000Y-61810000D02*
X106799000Y-61810000D01*
X106799000Y-60110000D02*
X105799000Y-60110000D01*
X111752705Y-62268295D02*
X110752705Y-62268295D01*
X110752705Y-63968295D02*
X111752705Y-63968295D01*
X87177500Y-67603000D02*
X86177500Y-67603000D01*
X86177500Y-69303000D02*
X87177500Y-69303000D01*
X87177500Y-60745000D02*
X86177500Y-60745000D01*
X86177500Y-62445000D02*
X87177500Y-62445000D01*
X92290000Y-71620000D02*
X92290000Y-70620000D01*
X90590000Y-70620000D02*
X90590000Y-71620000D01*
X87130000Y-71462000D02*
X88130000Y-71462000D01*
X88130000Y-69762000D02*
X87130000Y-69762000D01*
X90051000Y-59651000D02*
X91051000Y-59651000D01*
X91051000Y-57951000D02*
X90051000Y-57951000D01*
X95338000Y-91432000D02*
X95338000Y-90432000D01*
X93638000Y-90432000D02*
X93638000Y-91432000D01*
X98210000Y-90432000D02*
X98210000Y-91432000D01*
X99910000Y-91432000D02*
X99910000Y-90432000D01*
X104814705Y-93987295D02*
X104814705Y-94987295D01*
X106514705Y-94987295D02*
X106514705Y-93987295D01*
X96512000Y-98718000D02*
X95512000Y-98718000D01*
X95512000Y-100418000D02*
X96512000Y-100418000D01*
X103894705Y-101242795D02*
X104894705Y-101242795D01*
X104894705Y-99542795D02*
X103894705Y-99542795D01*
X95465000Y-104894000D02*
X95465000Y-103894000D01*
X93765000Y-103894000D02*
X93765000Y-104894000D01*
X98591000Y-103894000D02*
X98591000Y-104894000D01*
X100291000Y-104894000D02*
X100291000Y-103894000D01*
X105576705Y-108211295D02*
X105576705Y-109211295D01*
X107276705Y-109211295D02*
X107276705Y-108211295D01*
X96893000Y-112561000D02*
X95893000Y-112561000D01*
X95893000Y-114261000D02*
X96893000Y-114261000D01*
X104593205Y-115466795D02*
X105593205Y-115466795D01*
X105593205Y-113766795D02*
X104593205Y-113766795D01*
X95592000Y-118864000D02*
X95592000Y-117864000D01*
X93892000Y-117864000D02*
X93892000Y-118864000D01*
X98464000Y-117864000D02*
X98464000Y-118864000D01*
X100164000Y-118864000D02*
X100164000Y-117864000D01*
X105703705Y-122308295D02*
X105703705Y-123308295D01*
X107403705Y-123308295D02*
X107403705Y-122308295D01*
X96893000Y-126658000D02*
X95893000Y-126658000D01*
X95893000Y-128358000D02*
X96893000Y-128358000D01*
X104720205Y-129246295D02*
X105720205Y-129246295D01*
X105720205Y-127546295D02*
X104720205Y-127546295D01*
X184793000Y-36791000D02*
X185793000Y-36791000D01*
X185793000Y-35091000D02*
X184793000Y-35091000D01*
X174553500Y-42266500D02*
X173553500Y-42266500D01*
X173553500Y-43966500D02*
X174553500Y-43966500D01*
X178379500Y-43966500D02*
X179379500Y-43966500D01*
X179379500Y-42266500D02*
X178379500Y-42266500D01*
X125412500Y-34036000D02*
X125031500Y-34036000D01*
X126428500Y-34036000D02*
X126047500Y-34036000D01*
X126047500Y-34036000D02*
X125412500Y-34417000D01*
X125412500Y-34417000D02*
X125412500Y-33655000D01*
X125412500Y-33655000D02*
X126047500Y-34036000D01*
X126047500Y-34544000D02*
X126047500Y-33528000D01*
X127730000Y-33136000D02*
X124190000Y-33136000D01*
X127730000Y-34936000D02*
X124190000Y-34936000D01*
X94615000Y-81978500D02*
X94615000Y-81597500D01*
X94615000Y-82994500D02*
X94615000Y-82613500D01*
X94615000Y-82613500D02*
X94234000Y-81978500D01*
X94234000Y-81978500D02*
X94996000Y-81978500D01*
X94996000Y-81978500D02*
X94615000Y-82613500D01*
X94107000Y-82613500D02*
X95123000Y-82613500D01*
X95515000Y-84296000D02*
X95515000Y-80756000D01*
X93715000Y-84296000D02*
X93715000Y-80756000D01*
X118364000Y-47307500D02*
X118364000Y-47688500D01*
X118364000Y-46291500D02*
X118364000Y-46672500D01*
X118364000Y-46672500D02*
X118745000Y-47307500D01*
X118745000Y-47307500D02*
X117983000Y-47307500D01*
X117983000Y-47307500D02*
X118364000Y-46672500D01*
X118872000Y-46672500D02*
X117856000Y-46672500D01*
X117464000Y-44990000D02*
X117464000Y-48530000D01*
X119264000Y-44990000D02*
X119264000Y-48530000D01*
X115824000Y-47307500D02*
X115824000Y-47688500D01*
X115824000Y-46291500D02*
X115824000Y-46672500D01*
X115824000Y-46672500D02*
X116205000Y-47307500D01*
X116205000Y-47307500D02*
X115443000Y-47307500D01*
X115443000Y-47307500D02*
X115824000Y-46672500D01*
X116332000Y-46672500D02*
X115316000Y-46672500D01*
X114924000Y-44990000D02*
X114924000Y-48530000D01*
X116724000Y-44990000D02*
X116724000Y-48530000D01*
X110998000Y-68135500D02*
X110998000Y-67754500D01*
X110998000Y-69151500D02*
X110998000Y-68770500D01*
X110998000Y-68770500D02*
X110617000Y-68135500D01*
X110617000Y-68135500D02*
X111379000Y-68135500D01*
X111379000Y-68135500D02*
X110998000Y-68770500D01*
X110490000Y-68770500D02*
X111506000Y-68770500D01*
X111898000Y-70453000D02*
X111898000Y-66913000D01*
X110098000Y-70453000D02*
X110098000Y-66913000D01*
X98806000Y-64770000D02*
X98806000Y-65151000D01*
X98806000Y-63754000D02*
X98806000Y-64135000D01*
X98806000Y-64135000D02*
X99187000Y-64770000D01*
X99187000Y-64770000D02*
X98425000Y-64770000D01*
X98425000Y-64770000D02*
X98806000Y-64135000D01*
X99314000Y-64135000D02*
X98298000Y-64135000D01*
X97906000Y-62452500D02*
X97906000Y-65992500D01*
X99706000Y-62452500D02*
X99706000Y-65992500D01*
X96520000Y-64706500D02*
X96520000Y-65087500D01*
X96520000Y-63690500D02*
X96520000Y-64071500D01*
X96520000Y-64071500D02*
X96901000Y-64706500D01*
X96901000Y-64706500D02*
X96139000Y-64706500D01*
X96139000Y-64706500D02*
X96520000Y-64071500D01*
X97028000Y-64071500D02*
X96012000Y-64071500D01*
X95620000Y-62389000D02*
X95620000Y-65929000D01*
X97420000Y-62389000D02*
X97420000Y-65929000D01*
X95123000Y-123507500D02*
X95123000Y-123126500D01*
X95123000Y-124523500D02*
X95123000Y-124142500D01*
X95123000Y-124142500D02*
X94742000Y-123507500D01*
X94742000Y-123507500D02*
X95504000Y-123507500D01*
X95504000Y-123507500D02*
X95123000Y-124142500D01*
X94615000Y-124142500D02*
X95631000Y-124142500D01*
X96023000Y-125825000D02*
X96023000Y-122285000D01*
X94223000Y-125825000D02*
X94223000Y-122285000D01*
X68707705Y-58292295D02*
X82804705Y-58292295D01*
X82804705Y-73278295D02*
X68707705Y-73278295D01*
X68707705Y-58292295D02*
X68707705Y-73278295D01*
X82804705Y-58292295D02*
X82804705Y-73278295D01*
X80491000Y-75411000D02*
X92991000Y-75411000D01*
X80491000Y-87911000D02*
X80491000Y-75411000D01*
X92991000Y-87911000D02*
X80491000Y-87911000D01*
X92991000Y-75411000D02*
X92991000Y-87911000D01*
X119380000Y-68580000D02*
G75*
G03X119380000Y-68580000I-3429000J0D01*
G01*
X80618000Y-89254000D02*
X93118000Y-89254000D01*
X80618000Y-101754000D02*
X80618000Y-89254000D01*
X93118000Y-101754000D02*
X80618000Y-101754000D01*
X93118000Y-89254000D02*
X93118000Y-101754000D01*
X80745000Y-102970000D02*
X93245000Y-102970000D01*
X80745000Y-115470000D02*
X80745000Y-102970000D01*
X93245000Y-115470000D02*
X80745000Y-115470000D01*
X93245000Y-102970000D02*
X93245000Y-115470000D01*
X80745000Y-116305000D02*
X93245000Y-116305000D01*
X80745000Y-128805000D02*
X80745000Y-116305000D01*
X93245000Y-128805000D02*
X80745000Y-128805000D01*
X93245000Y-116305000D02*
X93245000Y-128805000D01*
X71129000Y-74938000D02*
X71129000Y-116578000D01*
X78749000Y-74938000D02*
X78749000Y-116578000D01*
X78749000Y-116578000D02*
X71149000Y-116578000D01*
X78749000Y-74938000D02*
X71149000Y-74938000D01*
X127762000Y-48006000D02*
X127762000Y-51054000D01*
X127762000Y-51054000D02*
X134874000Y-51054000D01*
X134874000Y-51054000D02*
X134874000Y-48006000D01*
X127762000Y-44958000D02*
X127762000Y-44196000D01*
X127762000Y-44196000D02*
X129286000Y-41910000D01*
X129286000Y-41910000D02*
X133350000Y-41910000D01*
X133350000Y-41910000D02*
X134874000Y-44196000D01*
X134874000Y-44196000D02*
X134874000Y-44958000D01*
X97218500Y-46355000D02*
X97218500Y-49403000D01*
X97218500Y-49403000D02*
X104330500Y-49403000D01*
X104330500Y-49403000D02*
X104330500Y-46355000D01*
X97218500Y-43307000D02*
X97218500Y-42545000D01*
X97218500Y-42545000D02*
X98742500Y-40259000D01*
X98742500Y-40259000D02*
X102806500Y-40259000D01*
X102806500Y-40259000D02*
X104330500Y-42545000D01*
X104330500Y-42545000D02*
X104330500Y-43307000D01*
X116635000Y-83230000D02*
X116635000Y-79330000D01*
X119585000Y-79330000D02*
X119585000Y-83230000D01*
X119204000Y-92538000D02*
X119204000Y-96438000D01*
X116254000Y-96438000D02*
X116254000Y-92538000D01*
X82917000Y-35468000D02*
X82917000Y-36668000D01*
X81167000Y-36668000D02*
X81167000Y-35468000D01*
X96280000Y-78070000D02*
X96280000Y-76870000D01*
X98030000Y-76870000D02*
X98030000Y-78070000D01*
X110709705Y-80884295D02*
X109509705Y-80884295D01*
X109509705Y-79134295D02*
X110709705Y-79134295D01*
X110709705Y-83424295D02*
X109509705Y-83424295D01*
X109509705Y-81674295D02*
X110709705Y-81674295D01*
X109509705Y-84087295D02*
X110709705Y-84087295D01*
X110709705Y-85837295D02*
X109509705Y-85837295D01*
X104366205Y-84150795D02*
X105566205Y-84150795D01*
X105566205Y-85900795D02*
X104366205Y-85900795D01*
X122541000Y-120304000D02*
X122541000Y-121504000D01*
X120791000Y-121504000D02*
X120791000Y-120304000D01*
X123204000Y-121504000D02*
X123204000Y-120304000D01*
X124954000Y-120304000D02*
X124954000Y-121504000D01*
X108345000Y-37430000D02*
X108345000Y-36230000D01*
X110095000Y-36230000D02*
X110095000Y-37430000D01*
X104937000Y-37352000D02*
X106137000Y-37352000D01*
X106137000Y-39102000D02*
X104937000Y-39102000D01*
X123585000Y-86452000D02*
X123585000Y-85252000D01*
X125335000Y-85252000D02*
X125335000Y-86452000D01*
X95899000Y-35779000D02*
X95899000Y-34579000D01*
X97649000Y-34579000D02*
X97649000Y-35779000D01*
X122583500Y-61136500D02*
X121383500Y-61136500D01*
X121383500Y-59386500D02*
X122583500Y-59386500D01*
X122573500Y-55992500D02*
X126473500Y-55992500D01*
X126473500Y-58942500D02*
X122573500Y-58942500D01*
X127663500Y-61136500D02*
X126463500Y-61136500D01*
X126463500Y-59386500D02*
X127663500Y-59386500D01*
X110335205Y-56528295D02*
X111535205Y-56528295D01*
X111535205Y-58278295D02*
X110335205Y-58278295D01*
X125335000Y-41310000D02*
X125335000Y-42510000D01*
X123585000Y-42510000D02*
X123585000Y-41310000D01*
X105170000Y-48098000D02*
X105170000Y-46898000D01*
X106920000Y-46898000D02*
X106920000Y-48098000D01*
X125638000Y-51703000D02*
X126838000Y-51703000D01*
X126838000Y-53453000D02*
X125638000Y-53453000D01*
X108423000Y-52818000D02*
X107223000Y-52818000D01*
X107223000Y-51068000D02*
X108423000Y-51068000D01*
X105699000Y-70689500D02*
X106899000Y-70689500D01*
X106899000Y-72439500D02*
X105699000Y-72439500D01*
X105699000Y-64403000D02*
X106899000Y-64403000D01*
X106899000Y-66153000D02*
X105699000Y-66153000D01*
X105699000Y-62244000D02*
X106899000Y-62244000D01*
X106899000Y-63994000D02*
X105699000Y-63994000D01*
X101868000Y-62957000D02*
X101868000Y-61757000D01*
X103618000Y-61757000D02*
X103618000Y-62957000D01*
X87214000Y-64692500D02*
X86014000Y-64692500D01*
X86014000Y-62942500D02*
X87214000Y-62942500D01*
X98136000Y-59549000D02*
X96936000Y-59549000D01*
X96936000Y-57799000D02*
X98136000Y-57799000D01*
X96936000Y-60085000D02*
X98136000Y-60085000D01*
X98136000Y-61835000D02*
X96936000Y-61835000D01*
X95899000Y-91532000D02*
X95899000Y-90332000D01*
X97649000Y-90332000D02*
X97649000Y-91532000D01*
X110074705Y-94028795D02*
X108874705Y-94028795D01*
X108874705Y-92278795D02*
X110074705Y-92278795D01*
X108684205Y-97295295D02*
X109884205Y-97295295D01*
X109884205Y-99045295D02*
X108684205Y-99045295D01*
X103667705Y-97295295D02*
X104867705Y-97295295D01*
X104867705Y-99045295D02*
X103667705Y-99045295D01*
X96026000Y-104994000D02*
X96026000Y-103794000D01*
X97776000Y-103794000D02*
X97776000Y-104994000D01*
X110709705Y-110919795D02*
X109509705Y-110919795D01*
X109509705Y-109169795D02*
X110709705Y-109169795D01*
X109509705Y-111519295D02*
X110709705Y-111519295D01*
X110709705Y-113269295D02*
X109509705Y-113269295D01*
X104429705Y-111519295D02*
X105629705Y-111519295D01*
X105629705Y-113269295D02*
X104429705Y-113269295D01*
X96153000Y-118964000D02*
X96153000Y-117764000D01*
X97903000Y-117764000D02*
X97903000Y-118964000D01*
X110773205Y-122349795D02*
X109573205Y-122349795D01*
X109573205Y-120599795D02*
X110773205Y-120599795D01*
X110773205Y-124953295D02*
X109573205Y-124953295D01*
X109573205Y-123203295D02*
X110773205Y-123203295D01*
X109636705Y-125425795D02*
X110836705Y-125425795D01*
X110836705Y-127175795D02*
X109636705Y-127175795D01*
X104556705Y-125362295D02*
X105756705Y-125362295D01*
X105756705Y-127112295D02*
X104556705Y-127112295D01*
X191170000Y-38749000D02*
X192370000Y-38749000D01*
X192370000Y-40499000D02*
X191170000Y-40499000D01*
X192334001Y-38299000D02*
X191134001Y-38299000D01*
X191134001Y-36549000D02*
X192334001Y-36549000D01*
X191170000Y-43194000D02*
X192370000Y-43194000D01*
X192370000Y-44944000D02*
X191170000Y-44944000D01*
X192370000Y-42785000D02*
X191170000Y-42785000D01*
X191170000Y-41035000D02*
X192370000Y-41035000D01*
X186591500Y-44880500D02*
X185391500Y-44880500D01*
X185391500Y-43130500D02*
X186591500Y-43130500D01*
X185391500Y-40971500D02*
X186591500Y-40971500D01*
X186591500Y-42721500D02*
X185391500Y-42721500D01*
X125476000Y-44678000D02*
X127026000Y-44678000D01*
X127026000Y-46228000D02*
X127026000Y-44678000D01*
X124206000Y-44958000D02*
X124206000Y-47498000D01*
X126746000Y-50038000D02*
X126746000Y-47498000D01*
X126746000Y-47498000D02*
X124206000Y-47498000D01*
X124206000Y-47498000D02*
X124206000Y-50038000D01*
X124206000Y-50038000D02*
X126746000Y-50038000D01*
X108712000Y-44932000D02*
X110262000Y-44932000D01*
X110262000Y-46482000D02*
X110262000Y-44932000D01*
X107442000Y-45212000D02*
X107442000Y-47752000D01*
X109982000Y-50292000D02*
X109982000Y-47752000D01*
X109982000Y-47752000D02*
X107442000Y-47752000D01*
X107442000Y-47752000D02*
X107442000Y-50292000D01*
X107442000Y-50292000D02*
X109982000Y-50292000D01*
X128193800Y-37180520D02*
X128684020Y-37180520D01*
X128193800Y-36479480D02*
X128193800Y-37180520D01*
X131394200Y-36479480D02*
X131394200Y-37180520D01*
X98132000Y-80417000D02*
X98132000Y-80617000D01*
X102782000Y-80417000D02*
X102782000Y-80617000D01*
X102782000Y-83667000D02*
X102782000Y-83467000D01*
X98132000Y-83667000D02*
X98132000Y-83467000D01*
X98132000Y-80417000D02*
X102782000Y-80417000D01*
X98132000Y-83667000D02*
X102782000Y-83667000D01*
X98132000Y-80617000D02*
X96782000Y-80617000D01*
X125071000Y-79605000D02*
X125071000Y-79855000D01*
X128421000Y-79605000D02*
X128421000Y-79855000D01*
X128421000Y-82955000D02*
X128421000Y-82705000D01*
X125071000Y-82955000D02*
X125071000Y-82705000D01*
X125071000Y-79605000D02*
X128421000Y-79605000D01*
X125071000Y-82955000D02*
X128421000Y-82955000D01*
X125071000Y-79855000D02*
X123821000Y-79855000D01*
X103402000Y-36727000D02*
X103402000Y-36477000D01*
X100052000Y-36727000D02*
X100052000Y-36477000D01*
X100052000Y-33377000D02*
X100052000Y-33627000D01*
X103402000Y-33377000D02*
X103402000Y-33627000D01*
X103402000Y-36727000D02*
X100052000Y-36727000D01*
X103402000Y-33377000D02*
X100052000Y-33377000D01*
X103402000Y-36477000D02*
X104652000Y-36477000D01*
X85066000Y-35155000D02*
X85066000Y-35455000D01*
X88416000Y-35155000D02*
X88416000Y-35455000D01*
X88416000Y-38505000D02*
X88416000Y-38205000D01*
X85066000Y-38505000D02*
X85066000Y-38205000D01*
X85066000Y-35155000D02*
X88416000Y-35155000D01*
X85066000Y-38505000D02*
X88416000Y-38505000D01*
X85066000Y-35455000D02*
X83841000Y-35455000D01*
X123291000Y-47205000D02*
X123091000Y-47205000D01*
X123291000Y-51855000D02*
X123091000Y-51855000D01*
X120041000Y-51855000D02*
X120241000Y-51855000D01*
X120041000Y-47205000D02*
X120241000Y-47205000D01*
X123291000Y-47205000D02*
X123291000Y-51855000D01*
X120041000Y-47205000D02*
X120041000Y-51855000D01*
X123091000Y-47205000D02*
X123091000Y-45855000D01*
X113893000Y-47205000D02*
X113693000Y-47205000D01*
X113893000Y-51855000D02*
X113693000Y-51855000D01*
X110643000Y-51855000D02*
X110843000Y-51855000D01*
X110643000Y-47205000D02*
X110843000Y-47205000D01*
X113893000Y-47205000D02*
X113893000Y-51855000D01*
X110643000Y-47205000D02*
X110643000Y-51855000D01*
X113693000Y-47205000D02*
X113693000Y-45855000D01*
X127381000Y-69850000D02*
X127381000Y-73025000D01*
X127381000Y-73025000D02*
X129159000Y-73025000D01*
X129159000Y-73025000D02*
X129159000Y-69850000D01*
X122809000Y-69850000D02*
X122809000Y-73025000D01*
X122809000Y-73025000D02*
X124587000Y-73025000D01*
X124587000Y-73025000D02*
X124587000Y-69850000D01*
X129413000Y-63754000D02*
X129413000Y-69850000D01*
X129413000Y-69850000D02*
X122555000Y-69850000D01*
X122555000Y-69850000D02*
X122555000Y-61976000D01*
X122555000Y-61849000D02*
X129413000Y-61849000D01*
X129413000Y-61976000D02*
X129413000Y-63754000D01*
X104751000Y-66778000D02*
X104751000Y-67028000D01*
X108101000Y-66778000D02*
X108101000Y-67028000D01*
X108101000Y-70128000D02*
X108101000Y-69878000D01*
X104751000Y-70128000D02*
X104751000Y-69878000D01*
X104751000Y-66778000D02*
X108101000Y-66778000D01*
X104751000Y-70128000D02*
X108101000Y-70128000D01*
X104751000Y-67028000D02*
X103501000Y-67028000D01*
X89427500Y-62960500D02*
X89427500Y-66960500D01*
X94722500Y-61685500D02*
X94722500Y-66960500D01*
X97751000Y-93625000D02*
X97751000Y-93825000D01*
X102401000Y-93625000D02*
X102401000Y-93825000D01*
X102401000Y-96875000D02*
X102401000Y-96675000D01*
X97751000Y-96875000D02*
X97751000Y-96675000D01*
X97751000Y-93625000D02*
X102401000Y-93625000D01*
X97751000Y-96875000D02*
X102401000Y-96875000D01*
X97751000Y-93825000D02*
X96401000Y-93825000D01*
X98640000Y-107341000D02*
X98640000Y-107541000D01*
X103290000Y-107341000D02*
X103290000Y-107541000D01*
X103290000Y-110591000D02*
X103290000Y-110391000D01*
X98640000Y-110591000D02*
X98640000Y-110391000D01*
X98640000Y-107341000D02*
X103290000Y-107341000D01*
X98640000Y-110591000D02*
X103290000Y-110591000D01*
X98640000Y-107541000D02*
X97290000Y-107541000D01*
X98005000Y-121057000D02*
X98005000Y-121257000D01*
X102655000Y-121057000D02*
X102655000Y-121257000D01*
X102655000Y-124307000D02*
X102655000Y-124107000D01*
X98005000Y-124307000D02*
X98005000Y-124107000D01*
X98005000Y-121057000D02*
X102655000Y-121057000D01*
X98005000Y-124307000D02*
X102655000Y-124307000D01*
X98005000Y-121257000D02*
X96655000Y-121257000D01*
X184105571Y-37204000D02*
X184105571Y-37454000D01*
X187455571Y-37204000D02*
X187455571Y-37454000D01*
X187455571Y-40554000D02*
X187455571Y-40304000D01*
X184105571Y-40554000D02*
X184105571Y-40304000D01*
X184105571Y-37204000D02*
X187455571Y-37204000D01*
X184105571Y-40554000D02*
X187455571Y-40554000D01*
X184105571Y-37454000D02*
X182855571Y-37454000D01*
X174307500Y-41719500D02*
X174307500Y-36639500D01*
X174307500Y-36639500D02*
X178879500Y-36639500D01*
X178879500Y-36639500D02*
X178879500Y-41719500D01*
X178879500Y-41719500D02*
X174307500Y-41719500D01*
X175831500Y-41719500D02*
X175831500Y-41211500D01*
X175831500Y-41211500D02*
X177101500Y-41211500D01*
X177101500Y-41211500D02*
X177101500Y-41719500D01*
X75565000Y-49911000D02*
X71755000Y-49911000D01*
X75565000Y-53213000D02*
X71755000Y-53213000D01*
X110646205Y-108316295D02*
X109446205Y-108316295D01*
X109446205Y-106566295D02*
X110646205Y-106566295D01*
X94742000Y-95694500D02*
X94742000Y-95313500D01*
X94742000Y-96710500D02*
X94742000Y-96329500D01*
X94742000Y-96329500D02*
X94361000Y-95694500D01*
X94361000Y-95694500D02*
X95123000Y-95694500D01*
X95123000Y-95694500D02*
X94742000Y-96329500D01*
X94234000Y-96329500D02*
X95250000Y-96329500D01*
X95642000Y-98012000D02*
X95642000Y-94472000D01*
X93842000Y-98012000D02*
X93842000Y-94472000D01*
X95123000Y-109156500D02*
X95123000Y-108775500D01*
X95123000Y-110172500D02*
X95123000Y-109791500D01*
X95123000Y-109791500D02*
X94742000Y-109156500D01*
X94742000Y-109156500D02*
X95504000Y-109156500D01*
X95504000Y-109156500D02*
X95123000Y-109791500D01*
X94615000Y-109791500D02*
X95631000Y-109791500D01*
X96023000Y-111474000D02*
X96023000Y-107934000D01*
X94223000Y-111474000D02*
X94223000Y-107934000D01*
X116635000Y-110662000D02*
X116635000Y-106762000D01*
X119585000Y-106762000D02*
X119585000Y-110662000D01*
X119712000Y-120986000D02*
X119712000Y-124886000D01*
X116762000Y-124886000D02*
X116762000Y-120986000D01*
X123141000Y-79330000D02*
X123141000Y-83230000D01*
X120191000Y-83230000D02*
X120191000Y-79330000D01*
X134448000Y-33323000D02*
X138348000Y-33323000D01*
X138348000Y-36273000D02*
X134448000Y-36273000D01*
X113143205Y-83229295D02*
X113143205Y-79329295D01*
X116093205Y-79329295D02*
X116093205Y-83229295D01*
X115552205Y-61672295D02*
X111652205Y-61672295D01*
X111652205Y-58722295D02*
X115552205Y-58722295D01*
X87277500Y-67105500D02*
X86077500Y-67105500D01*
X86077500Y-65355500D02*
X87277500Y-65355500D01*
X109884205Y-96632295D02*
X108684205Y-96632295D01*
X108684205Y-94882295D02*
X109884205Y-94882295D01*
X112571705Y-96437295D02*
X112571705Y-92537295D01*
X115521705Y-92537295D02*
X115521705Y-96437295D01*
X113079705Y-110661295D02*
X113079705Y-106761295D01*
X116029705Y-106761295D02*
X116029705Y-110661295D01*
X113079705Y-124758295D02*
X113079705Y-120858295D01*
X116029705Y-120858295D02*
X116029705Y-124758295D01*
X80631000Y-35468000D02*
X80631000Y-36668000D01*
X78881000Y-36668000D02*
X78881000Y-35468000D01*
X91327000Y-35779000D02*
X91327000Y-34579000D01*
X93077000Y-34579000D02*
X93077000Y-35779000D01*
X128030000Y-86325000D02*
X128030000Y-85125000D01*
X129780000Y-85125000D02*
X129780000Y-86325000D01*
X126230000Y-38784000D02*
G75*
G03X126230000Y-38784000I-100000J0D01*
G01*
X125480000Y-38534000D02*
X125980000Y-38534000D01*
X125480000Y-35634000D02*
X125480000Y-38534000D01*
X125980000Y-35634000D02*
X125480000Y-35634000D01*
X125980000Y-38534000D02*
X125980000Y-35634000D01*
X93091000Y-55753000D02*
X98171000Y-55753000D01*
X90271000Y-56033000D02*
X90271000Y-54483000D01*
X90551000Y-53213000D02*
X93091000Y-53213000D01*
X93091000Y-53213000D02*
X93091000Y-55753000D01*
X98171000Y-55753000D02*
X98171000Y-50673000D01*
X98171000Y-50673000D02*
X93091000Y-50673000D01*
X90271000Y-56033000D02*
X91821000Y-56033000D01*
X90551000Y-50673000D02*
X90551000Y-53213000D01*
X93091000Y-50673000D02*
X90551000Y-50673000D01*
X115542205Y-56528295D02*
X116742205Y-56528295D01*
X116742205Y-58278295D02*
X115542205Y-58278295D01*
X91342205Y-46721295D02*
X90142205Y-46721295D01*
X90142205Y-44971295D02*
X91342205Y-44971295D01*
X91358000Y-44436000D02*
X90158000Y-44436000D01*
X90158000Y-42686000D02*
X91358000Y-42686000D01*
X182110705Y-127463295D02*
X181610705Y-123963295D01*
X182610705Y-127463295D02*
X181860705Y-121963295D01*
X183110705Y-127463295D02*
X182360705Y-121963295D01*
X183610705Y-127463295D02*
X182860705Y-121963295D01*
X184110705Y-127463295D02*
X183360705Y-121963295D01*
X184610705Y-127463295D02*
X183860705Y-121963295D01*
X185110705Y-127463295D02*
X184360705Y-121963295D01*
X185610705Y-127463295D02*
X184860705Y-121963295D01*
X181610705Y-127463295D02*
X185610705Y-127463295D01*
X185610705Y-127463295D02*
X185610705Y-121963295D01*
X185610705Y-121963295D02*
X181610705Y-121963295D01*
X181610705Y-119813295D02*
X181610705Y-127913295D01*
X181610705Y-127913295D02*
X167610705Y-127913295D01*
X167610705Y-127913295D02*
X167610705Y-120813295D01*
X167610705Y-120813295D02*
X167610705Y-119813295D01*
X167610705Y-119813295D02*
X181610705Y-119813295D01*
X182110705Y-118065295D02*
X181610705Y-114565295D01*
X182610705Y-118065295D02*
X181860705Y-112565295D01*
X183110705Y-118065295D02*
X182360705Y-112565295D01*
X183610705Y-118065295D02*
X182860705Y-112565295D01*
X184110705Y-118065295D02*
X183360705Y-112565295D01*
X184610705Y-118065295D02*
X183860705Y-112565295D01*
X185110705Y-118065295D02*
X184360705Y-112565295D01*
X185610705Y-118065295D02*
X184860705Y-112565295D01*
X181610705Y-118065295D02*
X185610705Y-118065295D01*
X185610705Y-118065295D02*
X185610705Y-112565295D01*
X185610705Y-112565295D02*
X181610705Y-112565295D01*
X181610705Y-110415295D02*
X181610705Y-118515295D01*
X181610705Y-118515295D02*
X167610705Y-118515295D01*
X167610705Y-118515295D02*
X167610705Y-111415295D01*
X167610705Y-111415295D02*
X167610705Y-110415295D01*
X167610705Y-110415295D02*
X181610705Y-110415295D01*
X120798971Y-40302161D02*
X120846590Y-40159304D01*
X120894210Y-40111685D01*
X120989448Y-40064066D01*
X121132305Y-40064066D01*
X121227543Y-40111685D01*
X121275162Y-40159304D01*
X121322781Y-40254542D01*
X121322781Y-40635495D01*
X120322781Y-40635495D01*
X120322781Y-40302161D01*
X120370400Y-40206923D01*
X120418019Y-40159304D01*
X120513257Y-40111685D01*
X120608495Y-40111685D01*
X120703733Y-40159304D01*
X120751352Y-40206923D01*
X120798971Y-40302161D01*
X120798971Y-40635495D01*
X121322781Y-39111685D02*
X121322781Y-39683114D01*
X121322781Y-39397400D02*
X120322781Y-39397400D01*
X120465638Y-39492638D01*
X120560876Y-39587876D01*
X120608495Y-39683114D01*
X114650571Y-40276761D02*
X114698190Y-40133904D01*
X114745810Y-40086285D01*
X114841048Y-40038666D01*
X114983905Y-40038666D01*
X115079143Y-40086285D01*
X115126762Y-40133904D01*
X115174381Y-40229142D01*
X115174381Y-40610095D01*
X114174381Y-40610095D01*
X114174381Y-40276761D01*
X114222000Y-40181523D01*
X114269619Y-40133904D01*
X114364857Y-40086285D01*
X114460095Y-40086285D01*
X114555333Y-40133904D01*
X114602952Y-40181523D01*
X114650571Y-40276761D01*
X114650571Y-40610095D01*
X114269619Y-39657714D02*
X114222000Y-39610095D01*
X114174381Y-39514857D01*
X114174381Y-39276761D01*
X114222000Y-39181523D01*
X114269619Y-39133904D01*
X114364857Y-39086285D01*
X114460095Y-39086285D01*
X114602952Y-39133904D01*
X115174381Y-39705333D01*
X115174381Y-39086285D01*
X81280800Y-42631676D02*
X81280800Y-43441200D01*
X81328419Y-43536438D01*
X81376038Y-43584057D01*
X81471276Y-43631676D01*
X81661753Y-43631676D01*
X81756991Y-43584057D01*
X81804610Y-43536438D01*
X81852229Y-43441200D01*
X81852229Y-42631676D01*
X82280800Y-42726914D02*
X82328419Y-42679295D01*
X82423657Y-42631676D01*
X82661753Y-42631676D01*
X82756991Y-42679295D01*
X82804610Y-42726914D01*
X82852229Y-42822152D01*
X82852229Y-42917390D01*
X82804610Y-43060247D01*
X82233181Y-43631676D01*
X82852229Y-43631676D01*
X230252229Y-44123866D02*
X230395086Y-44171485D01*
X230442705Y-44219105D01*
X230490324Y-44314343D01*
X230490324Y-44457200D01*
X230442705Y-44552438D01*
X230395086Y-44600057D01*
X230299848Y-44647676D01*
X229918895Y-44647676D01*
X229918895Y-43647676D01*
X230252229Y-43647676D01*
X230347467Y-43695295D01*
X230395086Y-43742914D01*
X230442705Y-43838152D01*
X230442705Y-43933390D01*
X230395086Y-44028628D01*
X230347467Y-44076247D01*
X230252229Y-44123866D01*
X229918895Y-44123866D01*
X231061752Y-44647676D02*
X230966514Y-44600057D01*
X230918895Y-44552438D01*
X230871276Y-44457200D01*
X230871276Y-44171485D01*
X230918895Y-44076247D01*
X230966514Y-44028628D01*
X231061752Y-43981009D01*
X231204610Y-43981009D01*
X231299848Y-44028628D01*
X231347467Y-44076247D01*
X231395086Y-44171485D01*
X231395086Y-44457200D01*
X231347467Y-44552438D01*
X231299848Y-44600057D01*
X231204610Y-44647676D01*
X231061752Y-44647676D01*
X232252229Y-44647676D02*
X232252229Y-44123866D01*
X232204610Y-44028628D01*
X232109372Y-43981009D01*
X231918895Y-43981009D01*
X231823657Y-44028628D01*
X232252229Y-44600057D02*
X232156991Y-44647676D01*
X231918895Y-44647676D01*
X231823657Y-44600057D01*
X231776038Y-44504819D01*
X231776038Y-44409581D01*
X231823657Y-44314343D01*
X231918895Y-44266724D01*
X232156991Y-44266724D01*
X232252229Y-44219105D01*
X232728419Y-44647676D02*
X232728419Y-43981009D01*
X232728419Y-44171485D02*
X232776038Y-44076247D01*
X232823657Y-44028628D01*
X232918895Y-43981009D01*
X233014134Y-43981009D01*
X233776039Y-44647676D02*
X233776039Y-43647676D01*
X233776039Y-44600057D02*
X233680801Y-44647676D01*
X233490324Y-44647676D01*
X233395086Y-44600057D01*
X233347467Y-44552438D01*
X233299848Y-44457200D01*
X233299848Y-44171485D01*
X233347467Y-44076247D01*
X233395086Y-44028628D01*
X233490324Y-43981009D01*
X233680801Y-43981009D01*
X233776039Y-44028628D01*
X235014134Y-44647676D02*
X235014134Y-43647676D01*
X235347468Y-44361962D01*
X235680801Y-43647676D01*
X235680801Y-44647676D01*
X236299848Y-44647676D02*
X236204610Y-44600057D01*
X236156991Y-44552438D01*
X236109372Y-44457200D01*
X236109372Y-44171485D01*
X236156991Y-44076247D01*
X236204610Y-44028628D01*
X236299848Y-43981009D01*
X236442706Y-43981009D01*
X236537944Y-44028628D01*
X236585563Y-44076247D01*
X236633182Y-44171485D01*
X236633182Y-44457200D01*
X236585563Y-44552438D01*
X236537944Y-44600057D01*
X236442706Y-44647676D01*
X236299848Y-44647676D01*
X237490325Y-43981009D02*
X237490325Y-44647676D01*
X237061753Y-43981009D02*
X237061753Y-44504819D01*
X237109372Y-44600057D01*
X237204610Y-44647676D01*
X237347468Y-44647676D01*
X237442706Y-44600057D01*
X237490325Y-44552438D01*
X237966515Y-43981009D02*
X237966515Y-44647676D01*
X237966515Y-44076247D02*
X238014134Y-44028628D01*
X238109372Y-43981009D01*
X238252230Y-43981009D01*
X238347468Y-44028628D01*
X238395087Y-44123866D01*
X238395087Y-44647676D01*
X238728420Y-43981009D02*
X239109372Y-43981009D01*
X238871277Y-43647676D02*
X238871277Y-44504819D01*
X238918896Y-44600057D01*
X239014134Y-44647676D01*
X239109372Y-44647676D01*
X230251524Y-118610071D02*
X230394381Y-118657690D01*
X230442000Y-118705310D01*
X230489619Y-118800548D01*
X230489619Y-118943405D01*
X230442000Y-119038643D01*
X230394381Y-119086262D01*
X230299143Y-119133881D01*
X229918190Y-119133881D01*
X229918190Y-118133881D01*
X230251524Y-118133881D01*
X230346762Y-118181500D01*
X230394381Y-118229119D01*
X230442000Y-118324357D01*
X230442000Y-118419595D01*
X230394381Y-118514833D01*
X230346762Y-118562452D01*
X230251524Y-118610071D01*
X229918190Y-118610071D01*
X231061047Y-119133881D02*
X230965809Y-119086262D01*
X230918190Y-119038643D01*
X230870571Y-118943405D01*
X230870571Y-118657690D01*
X230918190Y-118562452D01*
X230965809Y-118514833D01*
X231061047Y-118467214D01*
X231203905Y-118467214D01*
X231299143Y-118514833D01*
X231346762Y-118562452D01*
X231394381Y-118657690D01*
X231394381Y-118943405D01*
X231346762Y-119038643D01*
X231299143Y-119086262D01*
X231203905Y-119133881D01*
X231061047Y-119133881D01*
X232251524Y-119133881D02*
X232251524Y-118610071D01*
X232203905Y-118514833D01*
X232108667Y-118467214D01*
X231918190Y-118467214D01*
X231822952Y-118514833D01*
X232251524Y-119086262D02*
X232156286Y-119133881D01*
X231918190Y-119133881D01*
X231822952Y-119086262D01*
X231775333Y-118991024D01*
X231775333Y-118895786D01*
X231822952Y-118800548D01*
X231918190Y-118752929D01*
X232156286Y-118752929D01*
X232251524Y-118705310D01*
X232727714Y-119133881D02*
X232727714Y-118467214D01*
X232727714Y-118657690D02*
X232775333Y-118562452D01*
X232822952Y-118514833D01*
X232918190Y-118467214D01*
X233013429Y-118467214D01*
X233775334Y-119133881D02*
X233775334Y-118133881D01*
X233775334Y-119086262D02*
X233680096Y-119133881D01*
X233489619Y-119133881D01*
X233394381Y-119086262D01*
X233346762Y-119038643D01*
X233299143Y-118943405D01*
X233299143Y-118657690D01*
X233346762Y-118562452D01*
X233394381Y-118514833D01*
X233489619Y-118467214D01*
X233680096Y-118467214D01*
X233775334Y-118514833D01*
X235013429Y-119133881D02*
X235013429Y-118133881D01*
X235346763Y-118848167D01*
X235680096Y-118133881D01*
X235680096Y-119133881D01*
X236299143Y-119133881D02*
X236203905Y-119086262D01*
X236156286Y-119038643D01*
X236108667Y-118943405D01*
X236108667Y-118657690D01*
X236156286Y-118562452D01*
X236203905Y-118514833D01*
X236299143Y-118467214D01*
X236442001Y-118467214D01*
X236537239Y-118514833D01*
X236584858Y-118562452D01*
X236632477Y-118657690D01*
X236632477Y-118943405D01*
X236584858Y-119038643D01*
X236537239Y-119086262D01*
X236442001Y-119133881D01*
X236299143Y-119133881D01*
X237489620Y-118467214D02*
X237489620Y-119133881D01*
X237061048Y-118467214D02*
X237061048Y-118991024D01*
X237108667Y-119086262D01*
X237203905Y-119133881D01*
X237346763Y-119133881D01*
X237442001Y-119086262D01*
X237489620Y-119038643D01*
X237965810Y-118467214D02*
X237965810Y-119133881D01*
X237965810Y-118562452D02*
X238013429Y-118514833D01*
X238108667Y-118467214D01*
X238251525Y-118467214D01*
X238346763Y-118514833D01*
X238394382Y-118610071D01*
X238394382Y-119133881D01*
X238727715Y-118467214D02*
X239108667Y-118467214D01*
X238870572Y-118133881D02*
X238870572Y-118991024D01*
X238918191Y-119086262D01*
X239013429Y-119133881D01*
X239108667Y-119133881D01*
X95592039Y-49124438D02*
X95544420Y-49172057D01*
X95401563Y-49219676D01*
X95306325Y-49219676D01*
X95163467Y-49172057D01*
X95068229Y-49076819D01*
X95020610Y-48981581D01*
X94972991Y-48791105D01*
X94972991Y-48648247D01*
X95020610Y-48457771D01*
X95068229Y-48362533D01*
X95163467Y-48267295D01*
X95306325Y-48219676D01*
X95401563Y-48219676D01*
X95544420Y-48267295D01*
X95592039Y-48314914D01*
X96544420Y-49219676D02*
X95972991Y-49219676D01*
X96258705Y-49219676D02*
X96258705Y-48219676D01*
X96163467Y-48362533D01*
X96068229Y-48457771D01*
X95972991Y-48505390D01*
X69684039Y-48108438D02*
X69636420Y-48156057D01*
X69493563Y-48203676D01*
X69398325Y-48203676D01*
X69255467Y-48156057D01*
X69160229Y-48060819D01*
X69112610Y-47965581D01*
X69064991Y-47775105D01*
X69064991Y-47632247D01*
X69112610Y-47441771D01*
X69160229Y-47346533D01*
X69255467Y-47251295D01*
X69398325Y-47203676D01*
X69493563Y-47203676D01*
X69636420Y-47251295D01*
X69684039Y-47298914D01*
X70064991Y-47298914D02*
X70112610Y-47251295D01*
X70207848Y-47203676D01*
X70445944Y-47203676D01*
X70541182Y-47251295D01*
X70588801Y-47298914D01*
X70636420Y-47394152D01*
X70636420Y-47489390D01*
X70588801Y-47632247D01*
X70017372Y-48203676D01*
X70636420Y-48203676D01*
X69176039Y-45568438D02*
X69128420Y-45616057D01*
X68985563Y-45663676D01*
X68890325Y-45663676D01*
X68747467Y-45616057D01*
X68652229Y-45520819D01*
X68604610Y-45425581D01*
X68556991Y-45235105D01*
X68556991Y-45092247D01*
X68604610Y-44901771D01*
X68652229Y-44806533D01*
X68747467Y-44711295D01*
X68890325Y-44663676D01*
X68985563Y-44663676D01*
X69128420Y-44711295D01*
X69176039Y-44758914D01*
X69509372Y-44663676D02*
X70128420Y-44663676D01*
X69795086Y-45044628D01*
X69937944Y-45044628D01*
X70033182Y-45092247D01*
X70080801Y-45139866D01*
X70128420Y-45235105D01*
X70128420Y-45473200D01*
X70080801Y-45568438D01*
X70033182Y-45616057D01*
X69937944Y-45663676D01*
X69652229Y-45663676D01*
X69556991Y-45616057D01*
X69509372Y-45568438D01*
X69176039Y-56236438D02*
X69128420Y-56284057D01*
X68985563Y-56331676D01*
X68890325Y-56331676D01*
X68747467Y-56284057D01*
X68652229Y-56188819D01*
X68604610Y-56093581D01*
X68556991Y-55903105D01*
X68556991Y-55760247D01*
X68604610Y-55569771D01*
X68652229Y-55474533D01*
X68747467Y-55379295D01*
X68890325Y-55331676D01*
X68985563Y-55331676D01*
X69128420Y-55379295D01*
X69176039Y-55426914D01*
X70033182Y-55665009D02*
X70033182Y-56331676D01*
X69795086Y-55284057D02*
X69556991Y-55998343D01*
X70176039Y-55998343D01*
X95099848Y-73825961D02*
X95147467Y-73873580D01*
X95195086Y-74016437D01*
X95195086Y-74111675D01*
X95147467Y-74254533D01*
X95052229Y-74349771D01*
X94956991Y-74397390D01*
X94766515Y-74445009D01*
X94623657Y-74445009D01*
X94433181Y-74397390D01*
X94337943Y-74349771D01*
X94242705Y-74254533D01*
X94195086Y-74111675D01*
X94195086Y-74016437D01*
X94242705Y-73873580D01*
X94290324Y-73825961D01*
X94195086Y-72921199D02*
X94195086Y-73397390D01*
X94671276Y-73445009D01*
X94623657Y-73397390D01*
X94576038Y-73302152D01*
X94576038Y-73064056D01*
X94623657Y-72968818D01*
X94671276Y-72921199D01*
X94766515Y-72873580D01*
X95004610Y-72873580D01*
X95099848Y-72921199D01*
X95147467Y-72968818D01*
X95195086Y-73064056D01*
X95195086Y-73302152D01*
X95147467Y-73397390D01*
X95099848Y-73445009D01*
X100179848Y-73825961D02*
X100227467Y-73873580D01*
X100275086Y-74016437D01*
X100275086Y-74111675D01*
X100227467Y-74254533D01*
X100132229Y-74349771D01*
X100036991Y-74397390D01*
X99846515Y-74445009D01*
X99703657Y-74445009D01*
X99513181Y-74397390D01*
X99417943Y-74349771D01*
X99322705Y-74254533D01*
X99275086Y-74111675D01*
X99275086Y-74016437D01*
X99322705Y-73873580D01*
X99370324Y-73825961D01*
X99275086Y-72968818D02*
X99275086Y-73159295D01*
X99322705Y-73254533D01*
X99370324Y-73302152D01*
X99513181Y-73397390D01*
X99703657Y-73445009D01*
X100084610Y-73445009D01*
X100179848Y-73397390D01*
X100227467Y-73349771D01*
X100275086Y-73254533D01*
X100275086Y-73064056D01*
X100227467Y-72968818D01*
X100179848Y-72921199D01*
X100084610Y-72873580D01*
X99846515Y-72873580D01*
X99751276Y-72921199D01*
X99703657Y-72968818D01*
X99656038Y-73064056D01*
X99656038Y-73254533D01*
X99703657Y-73349771D01*
X99751276Y-73397390D01*
X99846515Y-73445009D01*
X104556848Y-81445961D02*
X104604467Y-81493580D01*
X104652086Y-81636437D01*
X104652086Y-81731675D01*
X104604467Y-81874533D01*
X104509229Y-81969771D01*
X104413991Y-82017390D01*
X104223515Y-82065009D01*
X104080657Y-82065009D01*
X103890181Y-82017390D01*
X103794943Y-81969771D01*
X103699705Y-81874533D01*
X103652086Y-81731675D01*
X103652086Y-81636437D01*
X103699705Y-81493580D01*
X103747324Y-81445961D01*
X103652086Y-81112628D02*
X103652086Y-80445961D01*
X104652086Y-80874533D01*
X95592039Y-88240438D02*
X95544420Y-88288057D01*
X95401563Y-88335676D01*
X95306325Y-88335676D01*
X95163467Y-88288057D01*
X95068229Y-88192819D01*
X95020610Y-88097581D01*
X94972991Y-87907105D01*
X94972991Y-87764247D01*
X95020610Y-87573771D01*
X95068229Y-87478533D01*
X95163467Y-87383295D01*
X95306325Y-87335676D01*
X95401563Y-87335676D01*
X95544420Y-87383295D01*
X95592039Y-87430914D01*
X96163467Y-87764247D02*
X96068229Y-87716628D01*
X96020610Y-87669009D01*
X95972991Y-87573771D01*
X95972991Y-87526152D01*
X96020610Y-87430914D01*
X96068229Y-87383295D01*
X96163467Y-87335676D01*
X96353944Y-87335676D01*
X96449182Y-87383295D01*
X96496801Y-87430914D01*
X96544420Y-87526152D01*
X96544420Y-87573771D01*
X96496801Y-87669009D01*
X96449182Y-87716628D01*
X96353944Y-87764247D01*
X96163467Y-87764247D01*
X96068229Y-87811866D01*
X96020610Y-87859485D01*
X95972991Y-87954724D01*
X95972991Y-88145200D01*
X96020610Y-88240438D01*
X96068229Y-88288057D01*
X96163467Y-88335676D01*
X96353944Y-88335676D01*
X96449182Y-88288057D01*
X96496801Y-88240438D01*
X96544420Y-88145200D01*
X96544420Y-87954724D01*
X96496801Y-87859485D01*
X96449182Y-87811866D01*
X96353944Y-87764247D01*
X104926539Y-89768938D02*
X104878920Y-89816557D01*
X104736063Y-89864176D01*
X104640825Y-89864176D01*
X104497967Y-89816557D01*
X104402729Y-89721319D01*
X104355110Y-89626081D01*
X104307491Y-89435605D01*
X104307491Y-89292747D01*
X104355110Y-89102271D01*
X104402729Y-89007033D01*
X104497967Y-88911795D01*
X104640825Y-88864176D01*
X104736063Y-88864176D01*
X104878920Y-88911795D01*
X104926539Y-88959414D01*
X105402729Y-89864176D02*
X105593205Y-89864176D01*
X105688444Y-89816557D01*
X105736063Y-89768938D01*
X105831301Y-89626081D01*
X105878920Y-89435605D01*
X105878920Y-89054652D01*
X105831301Y-88959414D01*
X105783682Y-88911795D01*
X105688444Y-88864176D01*
X105497967Y-88864176D01*
X105402729Y-88911795D01*
X105355110Y-88959414D01*
X105307491Y-89054652D01*
X105307491Y-89292747D01*
X105355110Y-89387985D01*
X105402729Y-89435605D01*
X105497967Y-89483224D01*
X105688444Y-89483224D01*
X105783682Y-89435605D01*
X105831301Y-89387985D01*
X105878920Y-89292747D01*
X129203143Y-86367857D02*
X129250762Y-86415476D01*
X129298381Y-86558333D01*
X129298381Y-86653571D01*
X129250762Y-86796429D01*
X129155524Y-86891667D01*
X129060286Y-86939286D01*
X128869810Y-86986905D01*
X128726952Y-86986905D01*
X128536476Y-86939286D01*
X128441238Y-86891667D01*
X128346000Y-86796429D01*
X128298381Y-86653571D01*
X128298381Y-86558333D01*
X128346000Y-86415476D01*
X128393619Y-86367857D01*
X129298381Y-85415476D02*
X129298381Y-85986905D01*
X129298381Y-85701191D02*
X128298381Y-85701191D01*
X128441238Y-85796429D01*
X128536476Y-85891667D01*
X128584095Y-85986905D01*
X128298381Y-84796429D02*
X128298381Y-84701190D01*
X128346000Y-84605952D01*
X128393619Y-84558333D01*
X128488857Y-84510714D01*
X128679333Y-84463095D01*
X128917429Y-84463095D01*
X129107905Y-84510714D01*
X129203143Y-84558333D01*
X129250762Y-84605952D01*
X129298381Y-84701190D01*
X129298381Y-84796429D01*
X129250762Y-84891667D01*
X129203143Y-84939286D01*
X129107905Y-84986905D01*
X128917429Y-85034524D01*
X128679333Y-85034524D01*
X128488857Y-84986905D01*
X128393619Y-84939286D01*
X128346000Y-84891667D01*
X128298381Y-84796429D01*
X95099848Y-40266152D02*
X95147467Y-40313771D01*
X95195086Y-40456628D01*
X95195086Y-40551866D01*
X95147467Y-40694724D01*
X95052229Y-40789962D01*
X94956991Y-40837581D01*
X94766515Y-40885200D01*
X94623657Y-40885200D01*
X94433181Y-40837581D01*
X94337943Y-40789962D01*
X94242705Y-40694724D01*
X94195086Y-40551866D01*
X94195086Y-40456628D01*
X94242705Y-40313771D01*
X94290324Y-40266152D01*
X95195086Y-39313771D02*
X95195086Y-39885200D01*
X95195086Y-39599486D02*
X94195086Y-39599486D01*
X94337943Y-39694724D01*
X94433181Y-39789962D01*
X94480800Y-39885200D01*
X95195086Y-38361390D02*
X95195086Y-38932819D01*
X95195086Y-38647105D02*
X94195086Y-38647105D01*
X94337943Y-38742343D01*
X94433181Y-38837581D01*
X94480800Y-38932819D01*
X116197143Y-48803143D02*
X116149524Y-48850762D01*
X116006667Y-48898381D01*
X115911429Y-48898381D01*
X115768571Y-48850762D01*
X115673333Y-48755524D01*
X115625714Y-48660286D01*
X115578095Y-48469810D01*
X115578095Y-48326952D01*
X115625714Y-48136476D01*
X115673333Y-48041238D01*
X115768571Y-47946000D01*
X115911429Y-47898381D01*
X116006667Y-47898381D01*
X116149524Y-47946000D01*
X116197143Y-47993619D01*
X117149524Y-48898381D02*
X116578095Y-48898381D01*
X116863809Y-48898381D02*
X116863809Y-47898381D01*
X116768571Y-48041238D01*
X116673333Y-48136476D01*
X116578095Y-48184095D01*
X117530476Y-47993619D02*
X117578095Y-47946000D01*
X117673333Y-47898381D01*
X117911429Y-47898381D01*
X118006667Y-47946000D01*
X118054286Y-47993619D01*
X118101905Y-48088857D01*
X118101905Y-48184095D01*
X118054286Y-48326952D01*
X117482857Y-48898381D01*
X118101905Y-48898381D01*
X116197143Y-55035143D02*
X116149524Y-55082762D01*
X116006667Y-55130381D01*
X115911429Y-55130381D01*
X115768571Y-55082762D01*
X115673333Y-54987524D01*
X115625714Y-54892286D01*
X115578095Y-54701810D01*
X115578095Y-54558952D01*
X115625714Y-54368476D01*
X115673333Y-54273238D01*
X115768571Y-54178000D01*
X115911429Y-54130381D01*
X116006667Y-54130381D01*
X116149524Y-54178000D01*
X116197143Y-54225619D01*
X117149524Y-55130381D02*
X116578095Y-55130381D01*
X116863809Y-55130381D02*
X116863809Y-54130381D01*
X116768571Y-54273238D01*
X116673333Y-54368476D01*
X116578095Y-54416095D01*
X117482857Y-54130381D02*
X118101905Y-54130381D01*
X117768571Y-54511333D01*
X117911429Y-54511333D01*
X118006667Y-54558952D01*
X118054286Y-54606571D01*
X118101905Y-54701810D01*
X118101905Y-54939905D01*
X118054286Y-55035143D01*
X118006667Y-55082762D01*
X117911429Y-55130381D01*
X117625714Y-55130381D01*
X117530476Y-55082762D01*
X117482857Y-55035143D01*
X128627848Y-42298152D02*
X128675467Y-42345771D01*
X128723086Y-42488628D01*
X128723086Y-42583866D01*
X128675467Y-42726724D01*
X128580229Y-42821962D01*
X128484991Y-42869581D01*
X128294515Y-42917200D01*
X128151657Y-42917200D01*
X127961181Y-42869581D01*
X127865943Y-42821962D01*
X127770705Y-42726724D01*
X127723086Y-42583866D01*
X127723086Y-42488628D01*
X127770705Y-42345771D01*
X127818324Y-42298152D01*
X128723086Y-41345771D02*
X128723086Y-41917200D01*
X128723086Y-41631486D02*
X127723086Y-41631486D01*
X127865943Y-41726724D01*
X127961181Y-41821962D01*
X128008800Y-41917200D01*
X128056419Y-40488628D02*
X128723086Y-40488628D01*
X127675467Y-40726724D02*
X128389753Y-40964819D01*
X128389753Y-40345771D01*
X100068143Y-41382643D02*
X100020524Y-41430262D01*
X99877667Y-41477881D01*
X99782429Y-41477881D01*
X99639571Y-41430262D01*
X99544333Y-41335024D01*
X99496714Y-41239786D01*
X99449095Y-41049310D01*
X99449095Y-40906452D01*
X99496714Y-40715976D01*
X99544333Y-40620738D01*
X99639571Y-40525500D01*
X99782429Y-40477881D01*
X99877667Y-40477881D01*
X100020524Y-40525500D01*
X100068143Y-40573119D01*
X101020524Y-41477881D02*
X100449095Y-41477881D01*
X100734809Y-41477881D02*
X100734809Y-40477881D01*
X100639571Y-40620738D01*
X100544333Y-40715976D01*
X100449095Y-40763595D01*
X101925286Y-40477881D02*
X101449095Y-40477881D01*
X101401476Y-40954071D01*
X101449095Y-40906452D01*
X101544333Y-40858833D01*
X101782429Y-40858833D01*
X101877667Y-40906452D01*
X101925286Y-40954071D01*
X101972905Y-41049310D01*
X101972905Y-41287405D01*
X101925286Y-41382643D01*
X101877667Y-41430262D01*
X101782429Y-41477881D01*
X101544333Y-41477881D01*
X101449095Y-41430262D01*
X101401476Y-41382643D01*
X115435848Y-75540438D02*
X115388229Y-75588057D01*
X115245372Y-75635676D01*
X115150134Y-75635676D01*
X115007276Y-75588057D01*
X114912038Y-75492819D01*
X114864419Y-75397581D01*
X114816800Y-75207105D01*
X114816800Y-75064247D01*
X114864419Y-74873771D01*
X114912038Y-74778533D01*
X115007276Y-74683295D01*
X115150134Y-74635676D01*
X115245372Y-74635676D01*
X115388229Y-74683295D01*
X115435848Y-74730914D01*
X116388229Y-75635676D02*
X115816800Y-75635676D01*
X116102514Y-75635676D02*
X116102514Y-74635676D01*
X116007276Y-74778533D01*
X115912038Y-74873771D01*
X115816800Y-74921390D01*
X117245372Y-74635676D02*
X117054895Y-74635676D01*
X116959657Y-74683295D01*
X116912038Y-74730914D01*
X116816800Y-74873771D01*
X116769181Y-75064247D01*
X116769181Y-75445200D01*
X116816800Y-75540438D01*
X116864419Y-75588057D01*
X116959657Y-75635676D01*
X117150134Y-75635676D01*
X117245372Y-75588057D01*
X117292991Y-75540438D01*
X117340610Y-75445200D01*
X117340610Y-75207105D01*
X117292991Y-75111866D01*
X117245372Y-75064247D01*
X117150134Y-75016628D01*
X116959657Y-75016628D01*
X116864419Y-75064247D01*
X116816800Y-75111866D01*
X116769181Y-75207105D01*
X120515848Y-74524438D02*
X120468229Y-74572057D01*
X120325372Y-74619676D01*
X120230134Y-74619676D01*
X120087276Y-74572057D01*
X119992038Y-74476819D01*
X119944419Y-74381581D01*
X119896800Y-74191105D01*
X119896800Y-74048247D01*
X119944419Y-73857771D01*
X119992038Y-73762533D01*
X120087276Y-73667295D01*
X120230134Y-73619676D01*
X120325372Y-73619676D01*
X120468229Y-73667295D01*
X120515848Y-73714914D01*
X121468229Y-74619676D02*
X120896800Y-74619676D01*
X121182514Y-74619676D02*
X121182514Y-73619676D01*
X121087276Y-73762533D01*
X120992038Y-73857771D01*
X120896800Y-73905390D01*
X121801562Y-73619676D02*
X122468229Y-73619676D01*
X122039657Y-74619676D01*
X126357143Y-77133143D02*
X126309524Y-77180762D01*
X126166667Y-77228381D01*
X126071429Y-77228381D01*
X125928571Y-77180762D01*
X125833333Y-77085524D01*
X125785714Y-76990286D01*
X125738095Y-76799810D01*
X125738095Y-76656952D01*
X125785714Y-76466476D01*
X125833333Y-76371238D01*
X125928571Y-76276000D01*
X126071429Y-76228381D01*
X126166667Y-76228381D01*
X126309524Y-76276000D01*
X126357143Y-76323619D01*
X127309524Y-77228381D02*
X126738095Y-77228381D01*
X127023809Y-77228381D02*
X127023809Y-76228381D01*
X126928571Y-76371238D01*
X126833333Y-76466476D01*
X126738095Y-76514095D01*
X127880952Y-76656952D02*
X127785714Y-76609333D01*
X127738095Y-76561714D01*
X127690476Y-76466476D01*
X127690476Y-76418857D01*
X127738095Y-76323619D01*
X127785714Y-76276000D01*
X127880952Y-76228381D01*
X128071429Y-76228381D01*
X128166667Y-76276000D01*
X128214286Y-76323619D01*
X128261905Y-76418857D01*
X128261905Y-76466476D01*
X128214286Y-76561714D01*
X128166667Y-76609333D01*
X128071429Y-76656952D01*
X127880952Y-76656952D01*
X127785714Y-76704571D01*
X127738095Y-76752190D01*
X127690476Y-76847429D01*
X127690476Y-77037905D01*
X127738095Y-77133143D01*
X127785714Y-77180762D01*
X127880952Y-77228381D01*
X128071429Y-77228381D01*
X128166667Y-77180762D01*
X128214286Y-77133143D01*
X128261905Y-77037905D01*
X128261905Y-76847429D01*
X128214286Y-76752190D01*
X128166667Y-76704571D01*
X128071429Y-76656952D01*
X108629143Y-75572857D02*
X108676762Y-75620476D01*
X108724381Y-75763333D01*
X108724381Y-75858571D01*
X108676762Y-76001429D01*
X108581524Y-76096667D01*
X108486286Y-76144286D01*
X108295810Y-76191905D01*
X108152952Y-76191905D01*
X107962476Y-76144286D01*
X107867238Y-76096667D01*
X107772000Y-76001429D01*
X107724381Y-75858571D01*
X107724381Y-75763333D01*
X107772000Y-75620476D01*
X107819619Y-75572857D01*
X108724381Y-74620476D02*
X108724381Y-75191905D01*
X108724381Y-74906191D02*
X107724381Y-74906191D01*
X107867238Y-75001429D01*
X107962476Y-75096667D01*
X108010095Y-75191905D01*
X108724381Y-74144286D02*
X108724381Y-73953810D01*
X108676762Y-73858571D01*
X108629143Y-73810952D01*
X108486286Y-73715714D01*
X108295810Y-73668095D01*
X107914857Y-73668095D01*
X107819619Y-73715714D01*
X107772000Y-73763333D01*
X107724381Y-73858571D01*
X107724381Y-74049048D01*
X107772000Y-74144286D01*
X107819619Y-74191905D01*
X107914857Y-74239524D01*
X108152952Y-74239524D01*
X108248190Y-74191905D01*
X108295810Y-74144286D01*
X108343429Y-74049048D01*
X108343429Y-73858571D01*
X108295810Y-73763333D01*
X108248190Y-73715714D01*
X108152952Y-73668095D01*
X105783848Y-59792438D02*
X105736229Y-59840057D01*
X105593372Y-59887676D01*
X105498134Y-59887676D01*
X105355276Y-59840057D01*
X105260038Y-59744819D01*
X105212419Y-59649581D01*
X105164800Y-59459105D01*
X105164800Y-59316247D01*
X105212419Y-59125771D01*
X105260038Y-59030533D01*
X105355276Y-58935295D01*
X105498134Y-58887676D01*
X105593372Y-58887676D01*
X105736229Y-58935295D01*
X105783848Y-58982914D01*
X106164800Y-58982914D02*
X106212419Y-58935295D01*
X106307657Y-58887676D01*
X106545753Y-58887676D01*
X106640991Y-58935295D01*
X106688610Y-58982914D01*
X106736229Y-59078152D01*
X106736229Y-59173390D01*
X106688610Y-59316247D01*
X106117181Y-59887676D01*
X106736229Y-59887676D01*
X107355276Y-58887676D02*
X107450515Y-58887676D01*
X107545753Y-58935295D01*
X107593372Y-58982914D01*
X107640991Y-59078152D01*
X107688610Y-59268628D01*
X107688610Y-59506724D01*
X107640991Y-59697200D01*
X107593372Y-59792438D01*
X107545753Y-59840057D01*
X107450515Y-59887676D01*
X107355276Y-59887676D01*
X107260038Y-59840057D01*
X107212419Y-59792438D01*
X107164800Y-59697200D01*
X107117181Y-59506724D01*
X107117181Y-59268628D01*
X107164800Y-59078152D01*
X107212419Y-58982914D01*
X107260038Y-58935295D01*
X107355276Y-58887676D01*
X114927848Y-63856438D02*
X114880229Y-63904057D01*
X114737372Y-63951676D01*
X114642134Y-63951676D01*
X114499276Y-63904057D01*
X114404038Y-63808819D01*
X114356419Y-63713581D01*
X114308800Y-63523105D01*
X114308800Y-63380247D01*
X114356419Y-63189771D01*
X114404038Y-63094533D01*
X114499276Y-62999295D01*
X114642134Y-62951676D01*
X114737372Y-62951676D01*
X114880229Y-62999295D01*
X114927848Y-63046914D01*
X115308800Y-63046914D02*
X115356419Y-62999295D01*
X115451657Y-62951676D01*
X115689753Y-62951676D01*
X115784991Y-62999295D01*
X115832610Y-63046914D01*
X115880229Y-63142152D01*
X115880229Y-63237390D01*
X115832610Y-63380247D01*
X115261181Y-63951676D01*
X115880229Y-63951676D01*
X116832610Y-63951676D02*
X116261181Y-63951676D01*
X116546895Y-63951676D02*
X116546895Y-62951676D01*
X116451657Y-63094533D01*
X116356419Y-63189771D01*
X116261181Y-63237390D01*
X83923848Y-69222152D02*
X83971467Y-69269771D01*
X84019086Y-69412628D01*
X84019086Y-69507866D01*
X83971467Y-69650724D01*
X83876229Y-69745962D01*
X83780991Y-69793581D01*
X83590515Y-69841200D01*
X83447657Y-69841200D01*
X83257181Y-69793581D01*
X83161943Y-69745962D01*
X83066705Y-69650724D01*
X83019086Y-69507866D01*
X83019086Y-69412628D01*
X83066705Y-69269771D01*
X83114324Y-69222152D01*
X83114324Y-68841200D02*
X83066705Y-68793581D01*
X83019086Y-68698343D01*
X83019086Y-68460247D01*
X83066705Y-68365009D01*
X83114324Y-68317390D01*
X83209562Y-68269771D01*
X83304800Y-68269771D01*
X83447657Y-68317390D01*
X84019086Y-68888819D01*
X84019086Y-68269771D01*
X83114324Y-67888819D02*
X83066705Y-67841200D01*
X83019086Y-67745962D01*
X83019086Y-67507866D01*
X83066705Y-67412628D01*
X83114324Y-67365009D01*
X83209562Y-67317390D01*
X83304800Y-67317390D01*
X83447657Y-67365009D01*
X84019086Y-67936438D01*
X84019086Y-67317390D01*
X86034643Y-59852143D02*
X85987024Y-59899762D01*
X85844167Y-59947381D01*
X85748929Y-59947381D01*
X85606071Y-59899762D01*
X85510833Y-59804524D01*
X85463214Y-59709286D01*
X85415595Y-59518810D01*
X85415595Y-59375952D01*
X85463214Y-59185476D01*
X85510833Y-59090238D01*
X85606071Y-58995000D01*
X85748929Y-58947381D01*
X85844167Y-58947381D01*
X85987024Y-58995000D01*
X86034643Y-59042619D01*
X86415595Y-59042619D02*
X86463214Y-58995000D01*
X86558452Y-58947381D01*
X86796548Y-58947381D01*
X86891786Y-58995000D01*
X86939405Y-59042619D01*
X86987024Y-59137857D01*
X86987024Y-59233095D01*
X86939405Y-59375952D01*
X86367976Y-59947381D01*
X86987024Y-59947381D01*
X87320357Y-58947381D02*
X87939405Y-58947381D01*
X87606071Y-59328333D01*
X87748929Y-59328333D01*
X87844167Y-59375952D01*
X87891786Y-59423571D01*
X87939405Y-59518810D01*
X87939405Y-59756905D01*
X87891786Y-59852143D01*
X87844167Y-59899762D01*
X87748929Y-59947381D01*
X87463214Y-59947381D01*
X87367976Y-59899762D01*
X87320357Y-59852143D01*
X93897143Y-71762857D02*
X93944762Y-71810476D01*
X93992381Y-71953333D01*
X93992381Y-72048571D01*
X93944762Y-72191429D01*
X93849524Y-72286667D01*
X93754286Y-72334286D01*
X93563810Y-72381905D01*
X93420952Y-72381905D01*
X93230476Y-72334286D01*
X93135238Y-72286667D01*
X93040000Y-72191429D01*
X92992381Y-72048571D01*
X92992381Y-71953333D01*
X93040000Y-71810476D01*
X93087619Y-71762857D01*
X93087619Y-71381905D02*
X93040000Y-71334286D01*
X92992381Y-71239048D01*
X92992381Y-71000952D01*
X93040000Y-70905714D01*
X93087619Y-70858095D01*
X93182857Y-70810476D01*
X93278095Y-70810476D01*
X93420952Y-70858095D01*
X93992381Y-71429524D01*
X93992381Y-70810476D01*
X93325714Y-69953333D02*
X93992381Y-69953333D01*
X92944762Y-70191429D02*
X93659048Y-70429524D01*
X93659048Y-69810476D01*
X86987143Y-73069143D02*
X86939524Y-73116762D01*
X86796667Y-73164381D01*
X86701429Y-73164381D01*
X86558571Y-73116762D01*
X86463333Y-73021524D01*
X86415714Y-72926286D01*
X86368095Y-72735810D01*
X86368095Y-72592952D01*
X86415714Y-72402476D01*
X86463333Y-72307238D01*
X86558571Y-72212000D01*
X86701429Y-72164381D01*
X86796667Y-72164381D01*
X86939524Y-72212000D01*
X86987143Y-72259619D01*
X87368095Y-72259619D02*
X87415714Y-72212000D01*
X87510952Y-72164381D01*
X87749048Y-72164381D01*
X87844286Y-72212000D01*
X87891905Y-72259619D01*
X87939524Y-72354857D01*
X87939524Y-72450095D01*
X87891905Y-72592952D01*
X87320476Y-73164381D01*
X87939524Y-73164381D01*
X88796667Y-72164381D02*
X88606190Y-72164381D01*
X88510952Y-72212000D01*
X88463333Y-72259619D01*
X88368095Y-72402476D01*
X88320476Y-72592952D01*
X88320476Y-72973905D01*
X88368095Y-73069143D01*
X88415714Y-73116762D01*
X88510952Y-73164381D01*
X88701429Y-73164381D01*
X88796667Y-73116762D01*
X88844286Y-73069143D01*
X88891905Y-72973905D01*
X88891905Y-72735810D01*
X88844286Y-72640571D01*
X88796667Y-72592952D01*
X88701429Y-72545333D01*
X88510952Y-72545333D01*
X88415714Y-72592952D01*
X88368095Y-72640571D01*
X88320476Y-72735810D01*
X89908143Y-61258143D02*
X89860524Y-61305762D01*
X89717667Y-61353381D01*
X89622429Y-61353381D01*
X89479571Y-61305762D01*
X89384333Y-61210524D01*
X89336714Y-61115286D01*
X89289095Y-60924810D01*
X89289095Y-60781952D01*
X89336714Y-60591476D01*
X89384333Y-60496238D01*
X89479571Y-60401000D01*
X89622429Y-60353381D01*
X89717667Y-60353381D01*
X89860524Y-60401000D01*
X89908143Y-60448619D01*
X90289095Y-60448619D02*
X90336714Y-60401000D01*
X90431952Y-60353381D01*
X90670048Y-60353381D01*
X90765286Y-60401000D01*
X90812905Y-60448619D01*
X90860524Y-60543857D01*
X90860524Y-60639095D01*
X90812905Y-60781952D01*
X90241476Y-61353381D01*
X90860524Y-61353381D01*
X91193857Y-60353381D02*
X91860524Y-60353381D01*
X91431952Y-61353381D01*
X93067848Y-91066152D02*
X93115467Y-91113771D01*
X93163086Y-91256628D01*
X93163086Y-91351866D01*
X93115467Y-91494724D01*
X93020229Y-91589962D01*
X92924991Y-91637581D01*
X92734515Y-91685200D01*
X92591657Y-91685200D01*
X92401181Y-91637581D01*
X92305943Y-91589962D01*
X92210705Y-91494724D01*
X92163086Y-91351866D01*
X92163086Y-91256628D01*
X92210705Y-91113771D01*
X92258324Y-91066152D01*
X92163086Y-90732819D02*
X92163086Y-90113771D01*
X92544038Y-90447105D01*
X92544038Y-90304247D01*
X92591657Y-90209009D01*
X92639276Y-90161390D01*
X92734515Y-90113771D01*
X92972610Y-90113771D01*
X93067848Y-90161390D01*
X93115467Y-90209009D01*
X93163086Y-90304247D01*
X93163086Y-90589962D01*
X93115467Y-90685200D01*
X93067848Y-90732819D01*
X93163086Y-89161390D02*
X93163086Y-89732819D01*
X93163086Y-89447105D02*
X92163086Y-89447105D01*
X92305943Y-89542343D01*
X92401181Y-89637581D01*
X92448800Y-89732819D01*
X101703848Y-90558152D02*
X101751467Y-90605771D01*
X101799086Y-90748628D01*
X101799086Y-90843866D01*
X101751467Y-90986724D01*
X101656229Y-91081962D01*
X101560991Y-91129581D01*
X101370515Y-91177200D01*
X101227657Y-91177200D01*
X101037181Y-91129581D01*
X100941943Y-91081962D01*
X100846705Y-90986724D01*
X100799086Y-90843866D01*
X100799086Y-90748628D01*
X100846705Y-90605771D01*
X100894324Y-90558152D01*
X100799086Y-90224819D02*
X100799086Y-89605771D01*
X101180038Y-89939105D01*
X101180038Y-89796247D01*
X101227657Y-89701009D01*
X101275276Y-89653390D01*
X101370515Y-89605771D01*
X101608610Y-89605771D01*
X101703848Y-89653390D01*
X101751467Y-89701009D01*
X101799086Y-89796247D01*
X101799086Y-90081962D01*
X101751467Y-90177200D01*
X101703848Y-90224819D01*
X100894324Y-89224819D02*
X100846705Y-89177200D01*
X100799086Y-89081962D01*
X100799086Y-88843866D01*
X100846705Y-88748628D01*
X100894324Y-88701009D01*
X100989562Y-88653390D01*
X101084800Y-88653390D01*
X101227657Y-88701009D01*
X101799086Y-89272438D01*
X101799086Y-88653390D01*
X103921848Y-95130152D02*
X103969467Y-95177771D01*
X104017086Y-95320628D01*
X104017086Y-95415866D01*
X103969467Y-95558724D01*
X103874229Y-95653962D01*
X103778991Y-95701581D01*
X103588515Y-95749200D01*
X103445657Y-95749200D01*
X103255181Y-95701581D01*
X103159943Y-95653962D01*
X103064705Y-95558724D01*
X103017086Y-95415866D01*
X103017086Y-95320628D01*
X103064705Y-95177771D01*
X103112324Y-95130152D01*
X103017086Y-94796819D02*
X103017086Y-94177771D01*
X103398038Y-94511105D01*
X103398038Y-94368247D01*
X103445657Y-94273009D01*
X103493276Y-94225390D01*
X103588515Y-94177771D01*
X103826610Y-94177771D01*
X103921848Y-94225390D01*
X103969467Y-94273009D01*
X104017086Y-94368247D01*
X104017086Y-94653962D01*
X103969467Y-94749200D01*
X103921848Y-94796819D01*
X103017086Y-93844438D02*
X103017086Y-93225390D01*
X103398038Y-93558724D01*
X103398038Y-93415866D01*
X103445657Y-93320628D01*
X103493276Y-93273009D01*
X103588515Y-93225390D01*
X103826610Y-93225390D01*
X103921848Y-93273009D01*
X103969467Y-93320628D01*
X104017086Y-93415866D01*
X104017086Y-93701581D01*
X103969467Y-93796819D01*
X103921848Y-93844438D01*
X99687848Y-101448438D02*
X99640229Y-101496057D01*
X99497372Y-101543676D01*
X99402134Y-101543676D01*
X99259276Y-101496057D01*
X99164038Y-101400819D01*
X99116419Y-101305581D01*
X99068800Y-101115105D01*
X99068800Y-100972247D01*
X99116419Y-100781771D01*
X99164038Y-100686533D01*
X99259276Y-100591295D01*
X99402134Y-100543676D01*
X99497372Y-100543676D01*
X99640229Y-100591295D01*
X99687848Y-100638914D01*
X100021181Y-100543676D02*
X100640229Y-100543676D01*
X100306895Y-100924628D01*
X100449753Y-100924628D01*
X100544991Y-100972247D01*
X100592610Y-101019866D01*
X100640229Y-101115105D01*
X100640229Y-101353200D01*
X100592610Y-101448438D01*
X100544991Y-101496057D01*
X100449753Y-101543676D01*
X100164038Y-101543676D01*
X100068800Y-101496057D01*
X100021181Y-101448438D01*
X101497372Y-100877009D02*
X101497372Y-101543676D01*
X101259276Y-100496057D02*
X101021181Y-101210343D01*
X101640229Y-101210343D01*
X103751848Y-102849938D02*
X103704229Y-102897557D01*
X103561372Y-102945176D01*
X103466134Y-102945176D01*
X103323276Y-102897557D01*
X103228038Y-102802319D01*
X103180419Y-102707081D01*
X103132800Y-102516605D01*
X103132800Y-102373747D01*
X103180419Y-102183271D01*
X103228038Y-102088033D01*
X103323276Y-101992795D01*
X103466134Y-101945176D01*
X103561372Y-101945176D01*
X103704229Y-101992795D01*
X103751848Y-102040414D01*
X104085181Y-101945176D02*
X104704229Y-101945176D01*
X104370895Y-102326128D01*
X104513753Y-102326128D01*
X104608991Y-102373747D01*
X104656610Y-102421366D01*
X104704229Y-102516605D01*
X104704229Y-102754700D01*
X104656610Y-102849938D01*
X104608991Y-102897557D01*
X104513753Y-102945176D01*
X104228038Y-102945176D01*
X104132800Y-102897557D01*
X104085181Y-102849938D01*
X105608991Y-101945176D02*
X105132800Y-101945176D01*
X105085181Y-102421366D01*
X105132800Y-102373747D01*
X105228038Y-102326128D01*
X105466134Y-102326128D01*
X105561372Y-102373747D01*
X105608991Y-102421366D01*
X105656610Y-102516605D01*
X105656610Y-102754700D01*
X105608991Y-102849938D01*
X105561372Y-102897557D01*
X105466134Y-102945176D01*
X105228038Y-102945176D01*
X105132800Y-102897557D01*
X105085181Y-102849938D01*
X93067848Y-104782152D02*
X93115467Y-104829771D01*
X93163086Y-104972628D01*
X93163086Y-105067866D01*
X93115467Y-105210724D01*
X93020229Y-105305962D01*
X92924991Y-105353581D01*
X92734515Y-105401200D01*
X92591657Y-105401200D01*
X92401181Y-105353581D01*
X92305943Y-105305962D01*
X92210705Y-105210724D01*
X92163086Y-105067866D01*
X92163086Y-104972628D01*
X92210705Y-104829771D01*
X92258324Y-104782152D01*
X92163086Y-104448819D02*
X92163086Y-103829771D01*
X92544038Y-104163105D01*
X92544038Y-104020247D01*
X92591657Y-103925009D01*
X92639276Y-103877390D01*
X92734515Y-103829771D01*
X92972610Y-103829771D01*
X93067848Y-103877390D01*
X93115467Y-103925009D01*
X93163086Y-104020247D01*
X93163086Y-104305962D01*
X93115467Y-104401200D01*
X93067848Y-104448819D01*
X92163086Y-102972628D02*
X92163086Y-103163105D01*
X92210705Y-103258343D01*
X92258324Y-103305962D01*
X92401181Y-103401200D01*
X92591657Y-103448819D01*
X92972610Y-103448819D01*
X93067848Y-103401200D01*
X93115467Y-103353581D01*
X93163086Y-103258343D01*
X93163086Y-103067866D01*
X93115467Y-102972628D01*
X93067848Y-102925009D01*
X92972610Y-102877390D01*
X92734515Y-102877390D01*
X92639276Y-102925009D01*
X92591657Y-102972628D01*
X92544038Y-103067866D01*
X92544038Y-103258343D01*
X92591657Y-103353581D01*
X92639276Y-103401200D01*
X92734515Y-103448819D01*
X102211848Y-104274152D02*
X102259467Y-104321771D01*
X102307086Y-104464628D01*
X102307086Y-104559866D01*
X102259467Y-104702724D01*
X102164229Y-104797962D01*
X102068991Y-104845581D01*
X101878515Y-104893200D01*
X101735657Y-104893200D01*
X101545181Y-104845581D01*
X101449943Y-104797962D01*
X101354705Y-104702724D01*
X101307086Y-104559866D01*
X101307086Y-104464628D01*
X101354705Y-104321771D01*
X101402324Y-104274152D01*
X101307086Y-103940819D02*
X101307086Y-103321771D01*
X101688038Y-103655105D01*
X101688038Y-103512247D01*
X101735657Y-103417009D01*
X101783276Y-103369390D01*
X101878515Y-103321771D01*
X102116610Y-103321771D01*
X102211848Y-103369390D01*
X102259467Y-103417009D01*
X102307086Y-103512247D01*
X102307086Y-103797962D01*
X102259467Y-103893200D01*
X102211848Y-103940819D01*
X101307086Y-102988438D02*
X101307086Y-102321771D01*
X102307086Y-102750343D01*
X107291848Y-105290152D02*
X107339467Y-105337771D01*
X107387086Y-105480628D01*
X107387086Y-105575866D01*
X107339467Y-105718724D01*
X107244229Y-105813962D01*
X107148991Y-105861581D01*
X106958515Y-105909200D01*
X106815657Y-105909200D01*
X106625181Y-105861581D01*
X106529943Y-105813962D01*
X106434705Y-105718724D01*
X106387086Y-105575866D01*
X106387086Y-105480628D01*
X106434705Y-105337771D01*
X106482324Y-105290152D01*
X106387086Y-104956819D02*
X106387086Y-104337771D01*
X106768038Y-104671105D01*
X106768038Y-104528247D01*
X106815657Y-104433009D01*
X106863276Y-104385390D01*
X106958515Y-104337771D01*
X107196610Y-104337771D01*
X107291848Y-104385390D01*
X107339467Y-104433009D01*
X107387086Y-104528247D01*
X107387086Y-104813962D01*
X107339467Y-104909200D01*
X107291848Y-104956819D01*
X106815657Y-103766343D02*
X106768038Y-103861581D01*
X106720419Y-103909200D01*
X106625181Y-103956819D01*
X106577562Y-103956819D01*
X106482324Y-103909200D01*
X106434705Y-103861581D01*
X106387086Y-103766343D01*
X106387086Y-103575866D01*
X106434705Y-103480628D01*
X106482324Y-103433009D01*
X106577562Y-103385390D01*
X106625181Y-103385390D01*
X106720419Y-103433009D01*
X106768038Y-103480628D01*
X106815657Y-103575866D01*
X106815657Y-103766343D01*
X106863276Y-103861581D01*
X106910895Y-103909200D01*
X107006134Y-103956819D01*
X107196610Y-103956819D01*
X107291848Y-103909200D01*
X107339467Y-103861581D01*
X107387086Y-103766343D01*
X107387086Y-103575866D01*
X107339467Y-103480628D01*
X107291848Y-103433009D01*
X107196610Y-103385390D01*
X107006134Y-103385390D01*
X106910895Y-103433009D01*
X106863276Y-103480628D01*
X106815657Y-103575866D01*
X93575848Y-113926152D02*
X93623467Y-113973771D01*
X93671086Y-114116628D01*
X93671086Y-114211866D01*
X93623467Y-114354724D01*
X93528229Y-114449962D01*
X93432991Y-114497581D01*
X93242515Y-114545200D01*
X93099657Y-114545200D01*
X92909181Y-114497581D01*
X92813943Y-114449962D01*
X92718705Y-114354724D01*
X92671086Y-114211866D01*
X92671086Y-114116628D01*
X92718705Y-113973771D01*
X92766324Y-113926152D01*
X92671086Y-113592819D02*
X92671086Y-112973771D01*
X93052038Y-113307105D01*
X93052038Y-113164247D01*
X93099657Y-113069009D01*
X93147276Y-113021390D01*
X93242515Y-112973771D01*
X93480610Y-112973771D01*
X93575848Y-113021390D01*
X93623467Y-113069009D01*
X93671086Y-113164247D01*
X93671086Y-113449962D01*
X93623467Y-113545200D01*
X93575848Y-113592819D01*
X93671086Y-112497581D02*
X93671086Y-112307105D01*
X93623467Y-112211866D01*
X93575848Y-112164247D01*
X93432991Y-112069009D01*
X93242515Y-112021390D01*
X92861562Y-112021390D01*
X92766324Y-112069009D01*
X92718705Y-112116628D01*
X92671086Y-112211866D01*
X92671086Y-112402343D01*
X92718705Y-112497581D01*
X92766324Y-112545200D01*
X92861562Y-112592819D01*
X93099657Y-112592819D01*
X93194895Y-112545200D01*
X93242515Y-112497581D01*
X93290134Y-112402343D01*
X93290134Y-112211866D01*
X93242515Y-112116628D01*
X93194895Y-112069009D01*
X93099657Y-112021390D01*
X104450348Y-117073938D02*
X104402729Y-117121557D01*
X104259872Y-117169176D01*
X104164634Y-117169176D01*
X104021776Y-117121557D01*
X103926538Y-117026319D01*
X103878919Y-116931081D01*
X103831300Y-116740605D01*
X103831300Y-116597747D01*
X103878919Y-116407271D01*
X103926538Y-116312033D01*
X104021776Y-116216795D01*
X104164634Y-116169176D01*
X104259872Y-116169176D01*
X104402729Y-116216795D01*
X104450348Y-116264414D01*
X105307491Y-116502509D02*
X105307491Y-117169176D01*
X105069395Y-116121557D02*
X104831300Y-116835843D01*
X105450348Y-116835843D01*
X106021776Y-116169176D02*
X106117015Y-116169176D01*
X106212253Y-116216795D01*
X106259872Y-116264414D01*
X106307491Y-116359652D01*
X106355110Y-116550128D01*
X106355110Y-116788224D01*
X106307491Y-116978700D01*
X106259872Y-117073938D01*
X106212253Y-117121557D01*
X106117015Y-117169176D01*
X106021776Y-117169176D01*
X105926538Y-117121557D01*
X105878919Y-117073938D01*
X105831300Y-116978700D01*
X105783681Y-116788224D01*
X105783681Y-116550128D01*
X105831300Y-116359652D01*
X105878919Y-116264414D01*
X105926538Y-116216795D01*
X106021776Y-116169176D01*
X93067848Y-119006152D02*
X93115467Y-119053771D01*
X93163086Y-119196628D01*
X93163086Y-119291866D01*
X93115467Y-119434724D01*
X93020229Y-119529962D01*
X92924991Y-119577581D01*
X92734515Y-119625200D01*
X92591657Y-119625200D01*
X92401181Y-119577581D01*
X92305943Y-119529962D01*
X92210705Y-119434724D01*
X92163086Y-119291866D01*
X92163086Y-119196628D01*
X92210705Y-119053771D01*
X92258324Y-119006152D01*
X92496419Y-118149009D02*
X93163086Y-118149009D01*
X92115467Y-118387105D02*
X92829753Y-118625200D01*
X92829753Y-118006152D01*
X93163086Y-117101390D02*
X93163086Y-117672819D01*
X93163086Y-117387105D02*
X92163086Y-117387105D01*
X92305943Y-117482343D01*
X92401181Y-117577581D01*
X92448800Y-117672819D01*
X101703848Y-117990152D02*
X101751467Y-118037771D01*
X101799086Y-118180628D01*
X101799086Y-118275866D01*
X101751467Y-118418724D01*
X101656229Y-118513962D01*
X101560991Y-118561581D01*
X101370515Y-118609200D01*
X101227657Y-118609200D01*
X101037181Y-118561581D01*
X100941943Y-118513962D01*
X100846705Y-118418724D01*
X100799086Y-118275866D01*
X100799086Y-118180628D01*
X100846705Y-118037771D01*
X100894324Y-117990152D01*
X101132419Y-117133009D02*
X101799086Y-117133009D01*
X100751467Y-117371105D02*
X101465753Y-117609200D01*
X101465753Y-116990152D01*
X100894324Y-116656819D02*
X100846705Y-116609200D01*
X100799086Y-116513962D01*
X100799086Y-116275866D01*
X100846705Y-116180628D01*
X100894324Y-116133009D01*
X100989562Y-116085390D01*
X101084800Y-116085390D01*
X101227657Y-116133009D01*
X101799086Y-116704438D01*
X101799086Y-116085390D01*
X104810848Y-123451152D02*
X104858467Y-123498771D01*
X104906086Y-123641628D01*
X104906086Y-123736866D01*
X104858467Y-123879724D01*
X104763229Y-123974962D01*
X104667991Y-124022581D01*
X104477515Y-124070200D01*
X104334657Y-124070200D01*
X104144181Y-124022581D01*
X104048943Y-123974962D01*
X103953705Y-123879724D01*
X103906086Y-123736866D01*
X103906086Y-123641628D01*
X103953705Y-123498771D01*
X104001324Y-123451152D01*
X104239419Y-122594009D02*
X104906086Y-122594009D01*
X103858467Y-122832105D02*
X104572753Y-123070200D01*
X104572753Y-122451152D01*
X103906086Y-122165438D02*
X103906086Y-121546390D01*
X104287038Y-121879724D01*
X104287038Y-121736866D01*
X104334657Y-121641628D01*
X104382276Y-121594009D01*
X104477515Y-121546390D01*
X104715610Y-121546390D01*
X104810848Y-121594009D01*
X104858467Y-121641628D01*
X104906086Y-121736866D01*
X104906086Y-122022581D01*
X104858467Y-122117819D01*
X104810848Y-122165438D01*
X95623848Y-129896438D02*
X95576229Y-129944057D01*
X95433372Y-129991676D01*
X95338134Y-129991676D01*
X95195276Y-129944057D01*
X95100038Y-129848819D01*
X95052419Y-129753581D01*
X95004800Y-129563105D01*
X95004800Y-129420247D01*
X95052419Y-129229771D01*
X95100038Y-129134533D01*
X95195276Y-129039295D01*
X95338134Y-128991676D01*
X95433372Y-128991676D01*
X95576229Y-129039295D01*
X95623848Y-129086914D01*
X96480991Y-129325009D02*
X96480991Y-129991676D01*
X96242895Y-128944057D02*
X96004800Y-129658343D01*
X96623848Y-129658343D01*
X97433372Y-129325009D02*
X97433372Y-129991676D01*
X97195276Y-128944057D02*
X96957181Y-129658343D01*
X97576229Y-129658343D01*
X100195848Y-128880438D02*
X100148229Y-128928057D01*
X100005372Y-128975676D01*
X99910134Y-128975676D01*
X99767276Y-128928057D01*
X99672038Y-128832819D01*
X99624419Y-128737581D01*
X99576800Y-128547105D01*
X99576800Y-128404247D01*
X99624419Y-128213771D01*
X99672038Y-128118533D01*
X99767276Y-128023295D01*
X99910134Y-127975676D01*
X100005372Y-127975676D01*
X100148229Y-128023295D01*
X100195848Y-128070914D01*
X101052991Y-128309009D02*
X101052991Y-128975676D01*
X100814895Y-127928057D02*
X100576800Y-128642343D01*
X101195848Y-128642343D01*
X102052991Y-127975676D02*
X101576800Y-127975676D01*
X101529181Y-128451866D01*
X101576800Y-128404247D01*
X101672038Y-128356628D01*
X101910134Y-128356628D01*
X102005372Y-128404247D01*
X102052991Y-128451866D01*
X102100610Y-128547105D01*
X102100610Y-128785200D01*
X102052991Y-128880438D01*
X102005372Y-128928057D01*
X101910134Y-128975676D01*
X101672038Y-128975676D01*
X101576800Y-128928057D01*
X101529181Y-128880438D01*
X184523848Y-34392438D02*
X184476229Y-34440057D01*
X184333372Y-34487676D01*
X184238134Y-34487676D01*
X184095276Y-34440057D01*
X184000038Y-34344819D01*
X183952419Y-34249581D01*
X183904800Y-34059105D01*
X183904800Y-33916247D01*
X183952419Y-33725771D01*
X184000038Y-33630533D01*
X184095276Y-33535295D01*
X184238134Y-33487676D01*
X184333372Y-33487676D01*
X184476229Y-33535295D01*
X184523848Y-33582914D01*
X185380991Y-33821009D02*
X185380991Y-34487676D01*
X185142895Y-33440057D02*
X184904800Y-34154343D01*
X185523848Y-34154343D01*
X186333372Y-33487676D02*
X186142895Y-33487676D01*
X186047657Y-33535295D01*
X186000038Y-33582914D01*
X185904800Y-33725771D01*
X185857181Y-33916247D01*
X185857181Y-34297200D01*
X185904800Y-34392438D01*
X185952419Y-34440057D01*
X186047657Y-34487676D01*
X186238134Y-34487676D01*
X186333372Y-34440057D01*
X186380991Y-34392438D01*
X186428610Y-34297200D01*
X186428610Y-34059105D01*
X186380991Y-33963866D01*
X186333372Y-33916247D01*
X186238134Y-33868628D01*
X186047657Y-33868628D01*
X185952419Y-33916247D01*
X185904800Y-33963866D01*
X185857181Y-34059105D01*
X173347848Y-45568438D02*
X173300229Y-45616057D01*
X173157372Y-45663676D01*
X173062134Y-45663676D01*
X172919276Y-45616057D01*
X172824038Y-45520819D01*
X172776419Y-45425581D01*
X172728800Y-45235105D01*
X172728800Y-45092247D01*
X172776419Y-44901771D01*
X172824038Y-44806533D01*
X172919276Y-44711295D01*
X173062134Y-44663676D01*
X173157372Y-44663676D01*
X173300229Y-44711295D01*
X173347848Y-44758914D01*
X174204991Y-44997009D02*
X174204991Y-45663676D01*
X173966895Y-44616057D02*
X173728800Y-45330343D01*
X174347848Y-45330343D01*
X174633562Y-44663676D02*
X175300229Y-44663676D01*
X174871657Y-45663676D01*
X178236643Y-45573643D02*
X178189024Y-45621262D01*
X178046167Y-45668881D01*
X177950929Y-45668881D01*
X177808071Y-45621262D01*
X177712833Y-45526024D01*
X177665214Y-45430786D01*
X177617595Y-45240310D01*
X177617595Y-45097452D01*
X177665214Y-44906976D01*
X177712833Y-44811738D01*
X177808071Y-44716500D01*
X177950929Y-44668881D01*
X178046167Y-44668881D01*
X178189024Y-44716500D01*
X178236643Y-44764119D01*
X179093786Y-45002214D02*
X179093786Y-45668881D01*
X178855690Y-44621262D02*
X178617595Y-45335548D01*
X179236643Y-45335548D01*
X179760452Y-45097452D02*
X179665214Y-45049833D01*
X179617595Y-45002214D01*
X179569976Y-44906976D01*
X179569976Y-44859357D01*
X179617595Y-44764119D01*
X179665214Y-44716500D01*
X179760452Y-44668881D01*
X179950929Y-44668881D01*
X180046167Y-44716500D01*
X180093786Y-44764119D01*
X180141405Y-44859357D01*
X180141405Y-44906976D01*
X180093786Y-45002214D01*
X180046167Y-45049833D01*
X179950929Y-45097452D01*
X179760452Y-45097452D01*
X179665214Y-45145071D01*
X179617595Y-45192690D01*
X179569976Y-45287929D01*
X179569976Y-45478405D01*
X179617595Y-45573643D01*
X179665214Y-45621262D01*
X179760452Y-45668881D01*
X179950929Y-45668881D01*
X180046167Y-45621262D01*
X180093786Y-45573643D01*
X180141405Y-45478405D01*
X180141405Y-45287929D01*
X180093786Y-45192690D01*
X180046167Y-45145071D01*
X179950929Y-45097452D01*
X121436610Y-34487676D02*
X121436610Y-33487676D01*
X121674705Y-33487676D01*
X121817563Y-33535295D01*
X121912801Y-33630533D01*
X121960420Y-33725771D01*
X122008039Y-33916247D01*
X122008039Y-34059105D01*
X121960420Y-34249581D01*
X121912801Y-34344819D01*
X121817563Y-34440057D01*
X121674705Y-34487676D01*
X121436610Y-34487676D01*
X122960420Y-34487676D02*
X122388991Y-34487676D01*
X122674705Y-34487676D02*
X122674705Y-33487676D01*
X122579467Y-33630533D01*
X122484229Y-33725771D01*
X122388991Y-33773390D01*
X93067381Y-83034095D02*
X92067381Y-83034095D01*
X92067381Y-82796000D01*
X92115000Y-82653142D01*
X92210238Y-82557904D01*
X92305476Y-82510285D01*
X92495952Y-82462666D01*
X92638810Y-82462666D01*
X92829286Y-82510285D01*
X92924524Y-82557904D01*
X93019762Y-82653142D01*
X93067381Y-82796000D01*
X93067381Y-83034095D01*
X92162619Y-82081714D02*
X92115000Y-82034095D01*
X92067381Y-81938857D01*
X92067381Y-81700761D01*
X92115000Y-81605523D01*
X92162619Y-81557904D01*
X92257857Y-81510285D01*
X92353095Y-81510285D01*
X92495952Y-81557904D01*
X93067381Y-82129333D01*
X93067381Y-81510285D01*
X120816381Y-47728095D02*
X119816381Y-47728095D01*
X119816381Y-47490000D01*
X119864000Y-47347142D01*
X119959238Y-47251904D01*
X120054476Y-47204285D01*
X120244952Y-47156666D01*
X120387810Y-47156666D01*
X120578286Y-47204285D01*
X120673524Y-47251904D01*
X120768762Y-47347142D01*
X120816381Y-47490000D01*
X120816381Y-47728095D01*
X119816381Y-46823333D02*
X119816381Y-46204285D01*
X120197333Y-46537619D01*
X120197333Y-46394761D01*
X120244952Y-46299523D01*
X120292571Y-46251904D01*
X120387810Y-46204285D01*
X120625905Y-46204285D01*
X120721143Y-46251904D01*
X120768762Y-46299523D01*
X120816381Y-46394761D01*
X120816381Y-46680476D01*
X120768762Y-46775714D01*
X120721143Y-46823333D01*
X118276381Y-47728095D02*
X117276381Y-47728095D01*
X117276381Y-47490000D01*
X117324000Y-47347142D01*
X117419238Y-47251904D01*
X117514476Y-47204285D01*
X117704952Y-47156666D01*
X117847810Y-47156666D01*
X118038286Y-47204285D01*
X118133524Y-47251904D01*
X118228762Y-47347142D01*
X118276381Y-47490000D01*
X118276381Y-47728095D01*
X117609714Y-46299523D02*
X118276381Y-46299523D01*
X117228762Y-46537619D02*
X117943048Y-46775714D01*
X117943048Y-46156666D01*
X110260610Y-72587676D02*
X110260610Y-71587676D01*
X110498705Y-71587676D01*
X110641563Y-71635295D01*
X110736801Y-71730533D01*
X110784420Y-71825771D01*
X110832039Y-72016247D01*
X110832039Y-72159105D01*
X110784420Y-72349581D01*
X110736801Y-72444819D01*
X110641563Y-72540057D01*
X110498705Y-72587676D01*
X110260610Y-72587676D01*
X111736801Y-71587676D02*
X111260610Y-71587676D01*
X111212991Y-72063866D01*
X111260610Y-72016247D01*
X111355848Y-71968628D01*
X111593944Y-71968628D01*
X111689182Y-72016247D01*
X111736801Y-72063866D01*
X111784420Y-72159105D01*
X111784420Y-72397200D01*
X111736801Y-72492438D01*
X111689182Y-72540057D01*
X111593944Y-72587676D01*
X111355848Y-72587676D01*
X111260610Y-72540057D01*
X111212991Y-72492438D01*
X99259086Y-68809390D02*
X98259086Y-68809390D01*
X98259086Y-68571295D01*
X98306705Y-68428437D01*
X98401943Y-68333199D01*
X98497181Y-68285580D01*
X98687657Y-68237961D01*
X98830515Y-68237961D01*
X99020991Y-68285580D01*
X99116229Y-68333199D01*
X99211467Y-68428437D01*
X99259086Y-68571295D01*
X99259086Y-68809390D01*
X98259086Y-67380818D02*
X98259086Y-67571295D01*
X98306705Y-67666533D01*
X98354324Y-67714152D01*
X98497181Y-67809390D01*
X98687657Y-67857009D01*
X99068610Y-67857009D01*
X99163848Y-67809390D01*
X99211467Y-67761771D01*
X99259086Y-67666533D01*
X99259086Y-67476056D01*
X99211467Y-67380818D01*
X99163848Y-67333199D01*
X99068610Y-67285580D01*
X98830515Y-67285580D01*
X98735276Y-67333199D01*
X98687657Y-67380818D01*
X98640038Y-67476056D01*
X98640038Y-67666533D01*
X98687657Y-67761771D01*
X98735276Y-67809390D01*
X98830515Y-67857009D01*
X97227086Y-68809390D02*
X96227086Y-68809390D01*
X96227086Y-68571295D01*
X96274705Y-68428437D01*
X96369943Y-68333199D01*
X96465181Y-68285580D01*
X96655657Y-68237961D01*
X96798515Y-68237961D01*
X96988991Y-68285580D01*
X97084229Y-68333199D01*
X97179467Y-68428437D01*
X97227086Y-68571295D01*
X97227086Y-68809390D01*
X96227086Y-67904628D02*
X96227086Y-67237961D01*
X97227086Y-67666533D01*
X93575381Y-125039286D02*
X92575381Y-125039286D01*
X92575381Y-124801191D01*
X92623000Y-124658333D01*
X92718238Y-124563095D01*
X92813476Y-124515476D01*
X93003952Y-124467857D01*
X93146810Y-124467857D01*
X93337286Y-124515476D01*
X93432524Y-124563095D01*
X93527762Y-124658333D01*
X93575381Y-124801191D01*
X93575381Y-125039286D01*
X93575381Y-123515476D02*
X93575381Y-124086905D01*
X93575381Y-123801191D02*
X92575381Y-123801191D01*
X92718238Y-123896429D01*
X92813476Y-123991667D01*
X92861095Y-124086905D01*
X92575381Y-122896429D02*
X92575381Y-122801190D01*
X92623000Y-122705952D01*
X92670619Y-122658333D01*
X92765857Y-122610714D01*
X92956333Y-122563095D01*
X93194429Y-122563095D01*
X93384905Y-122610714D01*
X93480143Y-122658333D01*
X93527762Y-122705952D01*
X93575381Y-122801190D01*
X93575381Y-122896429D01*
X93527762Y-122991667D01*
X93480143Y-123039286D01*
X93384905Y-123086905D01*
X93194429Y-123134524D01*
X92956333Y-123134524D01*
X92765857Y-123086905D01*
X92670619Y-123039286D01*
X92623000Y-122991667D01*
X92575381Y-122896429D01*
X77137372Y-67777676D02*
X77137372Y-68491962D01*
X77089752Y-68634819D01*
X76994514Y-68730057D01*
X76851657Y-68777676D01*
X76756419Y-68777676D01*
X77565943Y-67872914D02*
X77613562Y-67825295D01*
X77708800Y-67777676D01*
X77946896Y-67777676D01*
X78042134Y-67825295D01*
X78089753Y-67872914D01*
X78137372Y-67968152D01*
X78137372Y-68063390D01*
X78089753Y-68206247D01*
X77518324Y-68777676D01*
X78137372Y-68777676D01*
X83510381Y-81827666D02*
X83510381Y-82303857D01*
X82510381Y-82303857D01*
X83510381Y-80970523D02*
X83510381Y-81541952D01*
X83510381Y-81256238D02*
X82510381Y-81256238D01*
X82653238Y-81351476D01*
X82748476Y-81446714D01*
X82796095Y-81541952D01*
X118452039Y-64459676D02*
X117975848Y-64459676D01*
X117975848Y-63459676D01*
X118737753Y-63554914D02*
X118785372Y-63507295D01*
X118880610Y-63459676D01*
X119118706Y-63459676D01*
X119213944Y-63507295D01*
X119261563Y-63554914D01*
X119309182Y-63650152D01*
X119309182Y-63745390D01*
X119261563Y-63888247D01*
X118690134Y-64459676D01*
X119309182Y-64459676D01*
X83637381Y-95670666D02*
X83637381Y-96146857D01*
X82637381Y-96146857D01*
X82637381Y-95432571D02*
X82637381Y-94813523D01*
X83018333Y-95146857D01*
X83018333Y-95003999D01*
X83065952Y-94908761D01*
X83113571Y-94861142D01*
X83208810Y-94813523D01*
X83446905Y-94813523D01*
X83542143Y-94861142D01*
X83589762Y-94908761D01*
X83637381Y-95003999D01*
X83637381Y-95289714D01*
X83589762Y-95384952D01*
X83542143Y-95432571D01*
X83764381Y-109386666D02*
X83764381Y-109862857D01*
X82764381Y-109862857D01*
X83097714Y-108624761D02*
X83764381Y-108624761D01*
X82716762Y-108862857D02*
X83431048Y-109100952D01*
X83431048Y-108481904D01*
X83764381Y-122721666D02*
X83764381Y-123197857D01*
X82764381Y-123197857D01*
X82764381Y-121912142D02*
X82764381Y-122388333D01*
X83240571Y-122435952D01*
X83192952Y-122388333D01*
X83145333Y-122293095D01*
X83145333Y-122054999D01*
X83192952Y-121959761D01*
X83240571Y-121912142D01*
X83335810Y-121864523D01*
X83573905Y-121864523D01*
X83669143Y-121912142D01*
X83716762Y-121959761D01*
X83764381Y-122054999D01*
X83764381Y-122293095D01*
X83716762Y-122388333D01*
X83669143Y-122435952D01*
X72461381Y-96496095D02*
X71461381Y-96496095D01*
X71461381Y-96115142D01*
X71509000Y-96019904D01*
X71556619Y-95972285D01*
X71651857Y-95924666D01*
X71794714Y-95924666D01*
X71889952Y-95972285D01*
X71937571Y-96019904D01*
X71985190Y-96115142D01*
X71985190Y-96496095D01*
X72461381Y-94972285D02*
X72461381Y-95543714D01*
X72461381Y-95258000D02*
X71461381Y-95258000D01*
X71604238Y-95353238D01*
X71699476Y-95448476D01*
X71747095Y-95543714D01*
X133255467Y-46774914D02*
X133160229Y-46727295D01*
X133064991Y-46632057D01*
X132922134Y-46489200D01*
X132826895Y-46441581D01*
X132731657Y-46441581D01*
X132779276Y-46679676D02*
X132684038Y-46632057D01*
X132588800Y-46536819D01*
X132541181Y-46346343D01*
X132541181Y-46013009D01*
X132588800Y-45822533D01*
X132684038Y-45727295D01*
X132779276Y-45679676D01*
X132969753Y-45679676D01*
X133064991Y-45727295D01*
X133160229Y-45822533D01*
X133207848Y-46013009D01*
X133207848Y-46346343D01*
X133160229Y-46536819D01*
X133064991Y-46632057D01*
X132969753Y-46679676D01*
X132779276Y-46679676D01*
X133588800Y-45774914D02*
X133636419Y-45727295D01*
X133731657Y-45679676D01*
X133969753Y-45679676D01*
X134064991Y-45727295D01*
X134112610Y-45774914D01*
X134160229Y-45870152D01*
X134160229Y-45965390D01*
X134112610Y-46108247D01*
X133541181Y-46679676D01*
X134160229Y-46679676D01*
X100679262Y-44616619D02*
X100584024Y-44569000D01*
X100488786Y-44473762D01*
X100345929Y-44330905D01*
X100250690Y-44283286D01*
X100155452Y-44283286D01*
X100203071Y-44521381D02*
X100107833Y-44473762D01*
X100012595Y-44378524D01*
X99964976Y-44188048D01*
X99964976Y-43854714D01*
X100012595Y-43664238D01*
X100107833Y-43569000D01*
X100203071Y-43521381D01*
X100393548Y-43521381D01*
X100488786Y-43569000D01*
X100584024Y-43664238D01*
X100631643Y-43854714D01*
X100631643Y-44188048D01*
X100584024Y-44378524D01*
X100488786Y-44473762D01*
X100393548Y-44521381D01*
X100203071Y-44521381D01*
X100964976Y-43521381D02*
X101584024Y-43521381D01*
X101250690Y-43902333D01*
X101393548Y-43902333D01*
X101488786Y-43949952D01*
X101536405Y-43997571D01*
X101584024Y-44092810D01*
X101584024Y-44330905D01*
X101536405Y-44426143D01*
X101488786Y-44473762D01*
X101393548Y-44521381D01*
X101107833Y-44521381D01*
X101012595Y-44473762D01*
X100964976Y-44426143D01*
X117944039Y-87319676D02*
X117610705Y-86843485D01*
X117372610Y-87319676D02*
X117372610Y-86319676D01*
X117753563Y-86319676D01*
X117848801Y-86367295D01*
X117896420Y-86414914D01*
X117944039Y-86510152D01*
X117944039Y-86653009D01*
X117896420Y-86748247D01*
X117848801Y-86795866D01*
X117753563Y-86843485D01*
X117372610Y-86843485D01*
X118896420Y-87319676D02*
X118324991Y-87319676D01*
X118610705Y-87319676D02*
X118610705Y-86319676D01*
X118515467Y-86462533D01*
X118420229Y-86557771D01*
X118324991Y-86605390D01*
X117436039Y-94939676D02*
X117102705Y-94463485D01*
X116864610Y-94939676D02*
X116864610Y-93939676D01*
X117245563Y-93939676D01*
X117340801Y-93987295D01*
X117388420Y-94034914D01*
X117436039Y-94130152D01*
X117436039Y-94273009D01*
X117388420Y-94368247D01*
X117340801Y-94415866D01*
X117245563Y-94463485D01*
X116864610Y-94463485D01*
X117816991Y-94034914D02*
X117864610Y-93987295D01*
X117959848Y-93939676D01*
X118197944Y-93939676D01*
X118293182Y-93987295D01*
X118340801Y-94034914D01*
X118388420Y-94130152D01*
X118388420Y-94225390D01*
X118340801Y-94368247D01*
X117769372Y-94939676D01*
X118388420Y-94939676D01*
X82495086Y-41313961D02*
X82018895Y-41647295D01*
X82495086Y-41885390D02*
X81495086Y-41885390D01*
X81495086Y-41504437D01*
X81542705Y-41409199D01*
X81590324Y-41361580D01*
X81685562Y-41313961D01*
X81828419Y-41313961D01*
X81923657Y-41361580D01*
X81971276Y-41409199D01*
X82018895Y-41504437D01*
X82018895Y-41885390D01*
X81923657Y-40742533D02*
X81876038Y-40837771D01*
X81828419Y-40885390D01*
X81733181Y-40933009D01*
X81685562Y-40933009D01*
X81590324Y-40885390D01*
X81542705Y-40837771D01*
X81495086Y-40742533D01*
X81495086Y-40552056D01*
X81542705Y-40456818D01*
X81590324Y-40409199D01*
X81685562Y-40361580D01*
X81733181Y-40361580D01*
X81828419Y-40409199D01*
X81876038Y-40456818D01*
X81923657Y-40552056D01*
X81923657Y-40742533D01*
X81971276Y-40837771D01*
X82018895Y-40885390D01*
X82114134Y-40933009D01*
X82304610Y-40933009D01*
X82399848Y-40885390D01*
X82447467Y-40837771D01*
X82495086Y-40742533D01*
X82495086Y-40552056D01*
X82447467Y-40456818D01*
X82399848Y-40409199D01*
X82304610Y-40361580D01*
X82114134Y-40361580D01*
X82018895Y-40409199D01*
X81971276Y-40456818D01*
X81923657Y-40552056D01*
X97735086Y-73825961D02*
X97258895Y-74159295D01*
X97735086Y-74397390D02*
X96735086Y-74397390D01*
X96735086Y-74016437D01*
X96782705Y-73921199D01*
X96830324Y-73873580D01*
X96925562Y-73825961D01*
X97068419Y-73825961D01*
X97163657Y-73873580D01*
X97211276Y-73921199D01*
X97258895Y-74016437D01*
X97258895Y-74397390D01*
X97735086Y-73349771D02*
X97735086Y-73159295D01*
X97687467Y-73064056D01*
X97639848Y-73016437D01*
X97496991Y-72921199D01*
X97306515Y-72873580D01*
X96925562Y-72873580D01*
X96830324Y-72921199D01*
X96782705Y-72968818D01*
X96735086Y-73064056D01*
X96735086Y-73254533D01*
X96782705Y-73349771D01*
X96830324Y-73397390D01*
X96925562Y-73445009D01*
X97163657Y-73445009D01*
X97258895Y-73397390D01*
X97306515Y-73349771D01*
X97354134Y-73254533D01*
X97354134Y-73064056D01*
X97306515Y-72968818D01*
X97258895Y-72921199D01*
X97163657Y-72873580D01*
X109466848Y-78361676D02*
X109133514Y-77885485D01*
X108895419Y-78361676D02*
X108895419Y-77361676D01*
X109276372Y-77361676D01*
X109371610Y-77409295D01*
X109419229Y-77456914D01*
X109466848Y-77552152D01*
X109466848Y-77695009D01*
X109419229Y-77790247D01*
X109371610Y-77837866D01*
X109276372Y-77885485D01*
X108895419Y-77885485D01*
X110419229Y-78361676D02*
X109847800Y-78361676D01*
X110133514Y-78361676D02*
X110133514Y-77361676D01*
X110038276Y-77504533D01*
X109943038Y-77599771D01*
X109847800Y-77647390D01*
X111038276Y-77361676D02*
X111133515Y-77361676D01*
X111228753Y-77409295D01*
X111276372Y-77456914D01*
X111323991Y-77552152D01*
X111371610Y-77742628D01*
X111371610Y-77980724D01*
X111323991Y-78171200D01*
X111276372Y-78266438D01*
X111228753Y-78314057D01*
X111133515Y-78361676D01*
X111038276Y-78361676D01*
X110943038Y-78314057D01*
X110895419Y-78266438D01*
X110847800Y-78171200D01*
X110800181Y-77980724D01*
X110800181Y-77742628D01*
X110847800Y-77552152D01*
X110895419Y-77456914D01*
X110943038Y-77409295D01*
X111038276Y-77361676D01*
X109466848Y-80901676D02*
X109133514Y-80425485D01*
X108895419Y-80901676D02*
X108895419Y-79901676D01*
X109276372Y-79901676D01*
X109371610Y-79949295D01*
X109419229Y-79996914D01*
X109466848Y-80092152D01*
X109466848Y-80235009D01*
X109419229Y-80330247D01*
X109371610Y-80377866D01*
X109276372Y-80425485D01*
X108895419Y-80425485D01*
X110419229Y-80901676D02*
X109847800Y-80901676D01*
X110133514Y-80901676D02*
X110133514Y-79901676D01*
X110038276Y-80044533D01*
X109943038Y-80139771D01*
X109847800Y-80187390D01*
X111371610Y-80901676D02*
X110800181Y-80901676D01*
X111085895Y-80901676D02*
X111085895Y-79901676D01*
X110990657Y-80044533D01*
X110895419Y-80139771D01*
X110800181Y-80187390D01*
X109466848Y-87514676D02*
X109133514Y-87038485D01*
X108895419Y-87514676D02*
X108895419Y-86514676D01*
X109276372Y-86514676D01*
X109371610Y-86562295D01*
X109419229Y-86609914D01*
X109466848Y-86705152D01*
X109466848Y-86848009D01*
X109419229Y-86943247D01*
X109371610Y-86990866D01*
X109276372Y-87038485D01*
X108895419Y-87038485D01*
X110419229Y-87514676D02*
X109847800Y-87514676D01*
X110133514Y-87514676D02*
X110133514Y-86514676D01*
X110038276Y-86657533D01*
X109943038Y-86752771D01*
X109847800Y-86800390D01*
X110752562Y-86514676D02*
X111371610Y-86514676D01*
X111038276Y-86895628D01*
X111181134Y-86895628D01*
X111276372Y-86943247D01*
X111323991Y-86990866D01*
X111371610Y-87086105D01*
X111371610Y-87324200D01*
X111323991Y-87419438D01*
X111276372Y-87467057D01*
X111181134Y-87514676D01*
X110895419Y-87514676D01*
X110800181Y-87467057D01*
X110752562Y-87419438D01*
X100195848Y-85287676D02*
X99862514Y-84811485D01*
X99624419Y-85287676D02*
X99624419Y-84287676D01*
X100005372Y-84287676D01*
X100100610Y-84335295D01*
X100148229Y-84382914D01*
X100195848Y-84478152D01*
X100195848Y-84621009D01*
X100148229Y-84716247D01*
X100100610Y-84763866D01*
X100005372Y-84811485D01*
X99624419Y-84811485D01*
X101148229Y-85287676D02*
X100576800Y-85287676D01*
X100862514Y-85287676D02*
X100862514Y-84287676D01*
X100767276Y-84430533D01*
X100672038Y-84525771D01*
X100576800Y-84573390D01*
X102005372Y-84621009D02*
X102005372Y-85287676D01*
X101767276Y-84240057D02*
X101529181Y-84954343D01*
X102148229Y-84954343D01*
X122119086Y-117482152D02*
X121642895Y-117815486D01*
X122119086Y-118053581D02*
X121119086Y-118053581D01*
X121119086Y-117672628D01*
X121166705Y-117577390D01*
X121214324Y-117529771D01*
X121309562Y-117482152D01*
X121452419Y-117482152D01*
X121547657Y-117529771D01*
X121595276Y-117577390D01*
X121642895Y-117672628D01*
X121642895Y-118053581D01*
X122119086Y-116529771D02*
X122119086Y-117101200D01*
X122119086Y-116815486D02*
X121119086Y-116815486D01*
X121261943Y-116910724D01*
X121357181Y-117005962D01*
X121404800Y-117101200D01*
X121119086Y-115625009D02*
X121119086Y-116101200D01*
X121595276Y-116148819D01*
X121547657Y-116101200D01*
X121500038Y-116005962D01*
X121500038Y-115767866D01*
X121547657Y-115672628D01*
X121595276Y-115625009D01*
X121690515Y-115577390D01*
X121928610Y-115577390D01*
X122023848Y-115625009D01*
X122071467Y-115672628D01*
X122119086Y-115767866D01*
X122119086Y-116005962D01*
X122071467Y-116101200D01*
X122023848Y-116148819D01*
X126631381Y-121546857D02*
X126155190Y-121880191D01*
X126631381Y-122118286D02*
X125631381Y-122118286D01*
X125631381Y-121737333D01*
X125679000Y-121642095D01*
X125726619Y-121594476D01*
X125821857Y-121546857D01*
X125964714Y-121546857D01*
X126059952Y-121594476D01*
X126107571Y-121642095D01*
X126155190Y-121737333D01*
X126155190Y-122118286D01*
X126631381Y-120594476D02*
X126631381Y-121165905D01*
X126631381Y-120880191D02*
X125631381Y-120880191D01*
X125774238Y-120975429D01*
X125869476Y-121070667D01*
X125917095Y-121165905D01*
X125631381Y-119737333D02*
X125631381Y-119927810D01*
X125679000Y-120023048D01*
X125726619Y-120070667D01*
X125869476Y-120165905D01*
X126059952Y-120213524D01*
X126440905Y-120213524D01*
X126536143Y-120165905D01*
X126583762Y-120118286D01*
X126631381Y-120023048D01*
X126631381Y-119832571D01*
X126583762Y-119737333D01*
X126536143Y-119689714D01*
X126440905Y-119642095D01*
X126202810Y-119642095D01*
X126107571Y-119689714D01*
X126059952Y-119737333D01*
X126012333Y-119832571D01*
X126012333Y-120023048D01*
X126059952Y-120118286D01*
X126107571Y-120165905D01*
X126202810Y-120213524D01*
X111772381Y-37472857D02*
X111296190Y-37806191D01*
X111772381Y-38044286D02*
X110772381Y-38044286D01*
X110772381Y-37663333D01*
X110820000Y-37568095D01*
X110867619Y-37520476D01*
X110962857Y-37472857D01*
X111105714Y-37472857D01*
X111200952Y-37520476D01*
X111248571Y-37568095D01*
X111296190Y-37663333D01*
X111296190Y-38044286D01*
X111772381Y-36520476D02*
X111772381Y-37091905D01*
X111772381Y-36806191D02*
X110772381Y-36806191D01*
X110915238Y-36901429D01*
X111010476Y-36996667D01*
X111058095Y-37091905D01*
X110772381Y-36187143D02*
X110772381Y-35520476D01*
X111772381Y-35949048D01*
X104894143Y-40779381D02*
X104560809Y-40303190D01*
X104322714Y-40779381D02*
X104322714Y-39779381D01*
X104703667Y-39779381D01*
X104798905Y-39827000D01*
X104846524Y-39874619D01*
X104894143Y-39969857D01*
X104894143Y-40112714D01*
X104846524Y-40207952D01*
X104798905Y-40255571D01*
X104703667Y-40303190D01*
X104322714Y-40303190D01*
X105846524Y-40779381D02*
X105275095Y-40779381D01*
X105560809Y-40779381D02*
X105560809Y-39779381D01*
X105465571Y-39922238D01*
X105370333Y-40017476D01*
X105275095Y-40065095D01*
X106417952Y-40207952D02*
X106322714Y-40160333D01*
X106275095Y-40112714D01*
X106227476Y-40017476D01*
X106227476Y-39969857D01*
X106275095Y-39874619D01*
X106322714Y-39827000D01*
X106417952Y-39779381D01*
X106608429Y-39779381D01*
X106703667Y-39827000D01*
X106751286Y-39874619D01*
X106798905Y-39969857D01*
X106798905Y-40017476D01*
X106751286Y-40112714D01*
X106703667Y-40160333D01*
X106608429Y-40207952D01*
X106417952Y-40207952D01*
X106322714Y-40255571D01*
X106275095Y-40303190D01*
X106227476Y-40398429D01*
X106227476Y-40588905D01*
X106275095Y-40684143D01*
X106322714Y-40731762D01*
X106417952Y-40779381D01*
X106608429Y-40779381D01*
X106703667Y-40731762D01*
X106751286Y-40684143D01*
X106798905Y-40588905D01*
X106798905Y-40398429D01*
X106751286Y-40303190D01*
X106703667Y-40255571D01*
X106608429Y-40207952D01*
X127012381Y-86494857D02*
X126536190Y-86828191D01*
X127012381Y-87066286D02*
X126012381Y-87066286D01*
X126012381Y-86685333D01*
X126060000Y-86590095D01*
X126107619Y-86542476D01*
X126202857Y-86494857D01*
X126345714Y-86494857D01*
X126440952Y-86542476D01*
X126488571Y-86590095D01*
X126536190Y-86685333D01*
X126536190Y-87066286D01*
X127012381Y-85542476D02*
X127012381Y-86113905D01*
X127012381Y-85828191D02*
X126012381Y-85828191D01*
X126155238Y-85923429D01*
X126250476Y-86018667D01*
X126298095Y-86113905D01*
X127012381Y-85066286D02*
X127012381Y-84875810D01*
X126964762Y-84780571D01*
X126917143Y-84732952D01*
X126774286Y-84637714D01*
X126583810Y-84590095D01*
X126202857Y-84590095D01*
X126107619Y-84637714D01*
X126060000Y-84685333D01*
X126012381Y-84780571D01*
X126012381Y-84971048D01*
X126060000Y-85066286D01*
X126107619Y-85113905D01*
X126202857Y-85161524D01*
X126440952Y-85161524D01*
X126536190Y-85113905D01*
X126583810Y-85066286D01*
X126631429Y-84971048D01*
X126631429Y-84780571D01*
X126583810Y-84685333D01*
X126536190Y-84637714D01*
X126440952Y-84590095D01*
X97227086Y-41282152D02*
X96750895Y-41615486D01*
X97227086Y-41853581D02*
X96227086Y-41853581D01*
X96227086Y-41472628D01*
X96274705Y-41377390D01*
X96322324Y-41329771D01*
X96417562Y-41282152D01*
X96560419Y-41282152D01*
X96655657Y-41329771D01*
X96703276Y-41377390D01*
X96750895Y-41472628D01*
X96750895Y-41853581D01*
X96322324Y-40901200D02*
X96274705Y-40853581D01*
X96227086Y-40758343D01*
X96227086Y-40520247D01*
X96274705Y-40425009D01*
X96322324Y-40377390D01*
X96417562Y-40329771D01*
X96512800Y-40329771D01*
X96655657Y-40377390D01*
X97227086Y-40948819D01*
X97227086Y-40329771D01*
X96322324Y-39948819D02*
X96274705Y-39901200D01*
X96227086Y-39805962D01*
X96227086Y-39567866D01*
X96274705Y-39472628D01*
X96322324Y-39425009D01*
X96417562Y-39377390D01*
X96512800Y-39377390D01*
X96655657Y-39425009D01*
X97227086Y-39996438D01*
X97227086Y-39377390D01*
X121340643Y-58613881D02*
X121007309Y-58137690D01*
X120769214Y-58613881D02*
X120769214Y-57613881D01*
X121150167Y-57613881D01*
X121245405Y-57661500D01*
X121293024Y-57709119D01*
X121340643Y-57804357D01*
X121340643Y-57947214D01*
X121293024Y-58042452D01*
X121245405Y-58090071D01*
X121150167Y-58137690D01*
X120769214Y-58137690D01*
X121721595Y-57709119D02*
X121769214Y-57661500D01*
X121864452Y-57613881D01*
X122102548Y-57613881D01*
X122197786Y-57661500D01*
X122245405Y-57709119D01*
X122293024Y-57804357D01*
X122293024Y-57899595D01*
X122245405Y-58042452D01*
X121673976Y-58613881D01*
X122293024Y-58613881D01*
X122626357Y-57613881D02*
X123245405Y-57613881D01*
X122912071Y-57994833D01*
X123054929Y-57994833D01*
X123150167Y-58042452D01*
X123197786Y-58090071D01*
X123245405Y-58185310D01*
X123245405Y-58423405D01*
X123197786Y-58518643D01*
X123150167Y-58566262D01*
X123054929Y-58613881D01*
X122769214Y-58613881D01*
X122673976Y-58566262D01*
X122626357Y-58518643D01*
X125167086Y-58046152D02*
X124690895Y-58379486D01*
X125167086Y-58617581D02*
X124167086Y-58617581D01*
X124167086Y-58236628D01*
X124214705Y-58141390D01*
X124262324Y-58093771D01*
X124357562Y-58046152D01*
X124500419Y-58046152D01*
X124595657Y-58093771D01*
X124643276Y-58141390D01*
X124690895Y-58236628D01*
X124690895Y-58617581D01*
X124262324Y-57665200D02*
X124214705Y-57617581D01*
X124167086Y-57522343D01*
X124167086Y-57284247D01*
X124214705Y-57189009D01*
X124262324Y-57141390D01*
X124357562Y-57093771D01*
X124452800Y-57093771D01*
X124595657Y-57141390D01*
X125167086Y-57712819D01*
X125167086Y-57093771D01*
X124167086Y-56189009D02*
X124167086Y-56665200D01*
X124643276Y-56712819D01*
X124595657Y-56665200D01*
X124548038Y-56569962D01*
X124548038Y-56331866D01*
X124595657Y-56236628D01*
X124643276Y-56189009D01*
X124738515Y-56141390D01*
X124976610Y-56141390D01*
X125071848Y-56189009D01*
X125119467Y-56236628D01*
X125167086Y-56331866D01*
X125167086Y-56569962D01*
X125119467Y-56665200D01*
X125071848Y-56712819D01*
X130675848Y-60395676D02*
X130342514Y-59919485D01*
X130104419Y-60395676D02*
X130104419Y-59395676D01*
X130485372Y-59395676D01*
X130580610Y-59443295D01*
X130628229Y-59490914D01*
X130675848Y-59586152D01*
X130675848Y-59729009D01*
X130628229Y-59824247D01*
X130580610Y-59871866D01*
X130485372Y-59919485D01*
X130104419Y-59919485D01*
X131056800Y-59490914D02*
X131104419Y-59443295D01*
X131199657Y-59395676D01*
X131437753Y-59395676D01*
X131532991Y-59443295D01*
X131580610Y-59490914D01*
X131628229Y-59586152D01*
X131628229Y-59681390D01*
X131580610Y-59824247D01*
X131009181Y-60395676D01*
X131628229Y-60395676D01*
X131961562Y-59395676D02*
X132628229Y-59395676D01*
X132199657Y-60395676D01*
X106291848Y-57855676D02*
X105958514Y-57379485D01*
X105720419Y-57855676D02*
X105720419Y-56855676D01*
X106101372Y-56855676D01*
X106196610Y-56903295D01*
X106244229Y-56950914D01*
X106291848Y-57046152D01*
X106291848Y-57189009D01*
X106244229Y-57284247D01*
X106196610Y-57331866D01*
X106101372Y-57379485D01*
X105720419Y-57379485D01*
X106672800Y-56950914D02*
X106720419Y-56903295D01*
X106815657Y-56855676D01*
X107053753Y-56855676D01*
X107148991Y-56903295D01*
X107196610Y-56950914D01*
X107244229Y-57046152D01*
X107244229Y-57141390D01*
X107196610Y-57284247D01*
X106625181Y-57855676D01*
X107244229Y-57855676D01*
X107815657Y-57284247D02*
X107720419Y-57236628D01*
X107672800Y-57189009D01*
X107625181Y-57093771D01*
X107625181Y-57046152D01*
X107672800Y-56950914D01*
X107720419Y-56903295D01*
X107815657Y-56855676D01*
X108006134Y-56855676D01*
X108101372Y-56903295D01*
X108148991Y-56950914D01*
X108196610Y-57046152D01*
X108196610Y-57093771D01*
X108148991Y-57189009D01*
X108101372Y-57236628D01*
X108006134Y-57284247D01*
X107815657Y-57284247D01*
X107720419Y-57331866D01*
X107672800Y-57379485D01*
X107625181Y-57474724D01*
X107625181Y-57665200D01*
X107672800Y-57760438D01*
X107720419Y-57808057D01*
X107815657Y-57855676D01*
X108006134Y-57855676D01*
X108101372Y-57808057D01*
X108148991Y-57760438D01*
X108196610Y-57665200D01*
X108196610Y-57474724D01*
X108148991Y-57379485D01*
X108101372Y-57331866D01*
X108006134Y-57284247D01*
X122812381Y-42552857D02*
X122336190Y-42886191D01*
X122812381Y-43124286D02*
X121812381Y-43124286D01*
X121812381Y-42743333D01*
X121860000Y-42648095D01*
X121907619Y-42600476D01*
X122002857Y-42552857D01*
X122145714Y-42552857D01*
X122240952Y-42600476D01*
X122288571Y-42648095D01*
X122336190Y-42743333D01*
X122336190Y-43124286D01*
X121907619Y-42171905D02*
X121860000Y-42124286D01*
X121812381Y-42029048D01*
X121812381Y-41790952D01*
X121860000Y-41695714D01*
X121907619Y-41648095D01*
X122002857Y-41600476D01*
X122098095Y-41600476D01*
X122240952Y-41648095D01*
X122812381Y-42219524D01*
X122812381Y-41600476D01*
X122812381Y-41124286D02*
X122812381Y-40933810D01*
X122764762Y-40838571D01*
X122717143Y-40790952D01*
X122574286Y-40695714D01*
X122383810Y-40648095D01*
X122002857Y-40648095D01*
X121907619Y-40695714D01*
X121860000Y-40743333D01*
X121812381Y-40838571D01*
X121812381Y-41029048D01*
X121860000Y-41124286D01*
X121907619Y-41171905D01*
X122002857Y-41219524D01*
X122240952Y-41219524D01*
X122336190Y-41171905D01*
X122383810Y-41124286D01*
X122431429Y-41029048D01*
X122431429Y-40838571D01*
X122383810Y-40743333D01*
X122336190Y-40695714D01*
X122240952Y-40648095D01*
X108597381Y-48140857D02*
X108121190Y-48474191D01*
X108597381Y-48712286D02*
X107597381Y-48712286D01*
X107597381Y-48331333D01*
X107645000Y-48236095D01*
X107692619Y-48188476D01*
X107787857Y-48140857D01*
X107930714Y-48140857D01*
X108025952Y-48188476D01*
X108073571Y-48236095D01*
X108121190Y-48331333D01*
X108121190Y-48712286D01*
X107597381Y-47807524D02*
X107597381Y-47188476D01*
X107978333Y-47521810D01*
X107978333Y-47378952D01*
X108025952Y-47283714D01*
X108073571Y-47236095D01*
X108168810Y-47188476D01*
X108406905Y-47188476D01*
X108502143Y-47236095D01*
X108549762Y-47283714D01*
X108597381Y-47378952D01*
X108597381Y-47664667D01*
X108549762Y-47759905D01*
X108502143Y-47807524D01*
X107597381Y-46569429D02*
X107597381Y-46474190D01*
X107645000Y-46378952D01*
X107692619Y-46331333D01*
X107787857Y-46283714D01*
X107978333Y-46236095D01*
X108216429Y-46236095D01*
X108406905Y-46283714D01*
X108502143Y-46331333D01*
X108549762Y-46378952D01*
X108597381Y-46474190D01*
X108597381Y-46569429D01*
X108549762Y-46664667D01*
X108502143Y-46712286D01*
X108406905Y-46759905D01*
X108216429Y-46807524D01*
X107978333Y-46807524D01*
X107787857Y-46759905D01*
X107692619Y-46712286D01*
X107645000Y-46664667D01*
X107597381Y-46569429D01*
X125595848Y-54807676D02*
X125262514Y-54331485D01*
X125024419Y-54807676D02*
X125024419Y-53807676D01*
X125405372Y-53807676D01*
X125500610Y-53855295D01*
X125548229Y-53902914D01*
X125595848Y-53998152D01*
X125595848Y-54141009D01*
X125548229Y-54236247D01*
X125500610Y-54283866D01*
X125405372Y-54331485D01*
X125024419Y-54331485D01*
X125929181Y-53807676D02*
X126548229Y-53807676D01*
X126214895Y-54188628D01*
X126357753Y-54188628D01*
X126452991Y-54236247D01*
X126500610Y-54283866D01*
X126548229Y-54379105D01*
X126548229Y-54617200D01*
X126500610Y-54712438D01*
X126452991Y-54760057D01*
X126357753Y-54807676D01*
X126072038Y-54807676D01*
X125976800Y-54760057D01*
X125929181Y-54712438D01*
X127500610Y-54807676D02*
X126929181Y-54807676D01*
X127214895Y-54807676D02*
X127214895Y-53807676D01*
X127119657Y-53950533D01*
X127024419Y-54045771D01*
X126929181Y-54093390D01*
X107180143Y-50295381D02*
X106846809Y-49819190D01*
X106608714Y-50295381D02*
X106608714Y-49295381D01*
X106989667Y-49295381D01*
X107084905Y-49343000D01*
X107132524Y-49390619D01*
X107180143Y-49485857D01*
X107180143Y-49628714D01*
X107132524Y-49723952D01*
X107084905Y-49771571D01*
X106989667Y-49819190D01*
X106608714Y-49819190D01*
X107513476Y-49295381D02*
X108132524Y-49295381D01*
X107799190Y-49676333D01*
X107942048Y-49676333D01*
X108037286Y-49723952D01*
X108084905Y-49771571D01*
X108132524Y-49866810D01*
X108132524Y-50104905D01*
X108084905Y-50200143D01*
X108037286Y-50247762D01*
X107942048Y-50295381D01*
X107656333Y-50295381D01*
X107561095Y-50247762D01*
X107513476Y-50200143D01*
X108513476Y-49390619D02*
X108561095Y-49343000D01*
X108656333Y-49295381D01*
X108894429Y-49295381D01*
X108989667Y-49343000D01*
X109037286Y-49390619D01*
X109084905Y-49485857D01*
X109084905Y-49581095D01*
X109037286Y-49723952D01*
X108465857Y-50295381D01*
X109084905Y-50295381D01*
X101211848Y-72079676D02*
X100878514Y-71603485D01*
X100640419Y-72079676D02*
X100640419Y-71079676D01*
X101021372Y-71079676D01*
X101116610Y-71127295D01*
X101164229Y-71174914D01*
X101211848Y-71270152D01*
X101211848Y-71413009D01*
X101164229Y-71508247D01*
X101116610Y-71555866D01*
X101021372Y-71603485D01*
X100640419Y-71603485D01*
X101545181Y-71079676D02*
X102164229Y-71079676D01*
X101830895Y-71460628D01*
X101973753Y-71460628D01*
X102068991Y-71508247D01*
X102116610Y-71555866D01*
X102164229Y-71651105D01*
X102164229Y-71889200D01*
X102116610Y-71984438D01*
X102068991Y-72032057D01*
X101973753Y-72079676D01*
X101688038Y-72079676D01*
X101592800Y-72032057D01*
X101545181Y-71984438D01*
X102497562Y-71079676D02*
X103116610Y-71079676D01*
X102783276Y-71460628D01*
X102926134Y-71460628D01*
X103021372Y-71508247D01*
X103068991Y-71555866D01*
X103116610Y-71651105D01*
X103116610Y-71889200D01*
X103068991Y-71984438D01*
X103021372Y-72032057D01*
X102926134Y-72079676D01*
X102640419Y-72079676D01*
X102545181Y-72032057D01*
X102497562Y-71984438D01*
X101719848Y-65983676D02*
X101386514Y-65507485D01*
X101148419Y-65983676D02*
X101148419Y-64983676D01*
X101529372Y-64983676D01*
X101624610Y-65031295D01*
X101672229Y-65078914D01*
X101719848Y-65174152D01*
X101719848Y-65317009D01*
X101672229Y-65412247D01*
X101624610Y-65459866D01*
X101529372Y-65507485D01*
X101148419Y-65507485D01*
X102053181Y-64983676D02*
X102672229Y-64983676D01*
X102338895Y-65364628D01*
X102481753Y-65364628D01*
X102576991Y-65412247D01*
X102624610Y-65459866D01*
X102672229Y-65555105D01*
X102672229Y-65793200D01*
X102624610Y-65888438D01*
X102576991Y-65936057D01*
X102481753Y-65983676D01*
X102196038Y-65983676D01*
X102100800Y-65936057D01*
X102053181Y-65888438D01*
X103529372Y-65317009D02*
X103529372Y-65983676D01*
X103291276Y-64936057D02*
X103053181Y-65650343D01*
X103672229Y-65650343D01*
X105656143Y-65671381D02*
X105322809Y-65195190D01*
X105084714Y-65671381D02*
X105084714Y-64671381D01*
X105465667Y-64671381D01*
X105560905Y-64719000D01*
X105608524Y-64766619D01*
X105656143Y-64861857D01*
X105656143Y-65004714D01*
X105608524Y-65099952D01*
X105560905Y-65147571D01*
X105465667Y-65195190D01*
X105084714Y-65195190D01*
X105989476Y-64671381D02*
X106608524Y-64671381D01*
X106275190Y-65052333D01*
X106418048Y-65052333D01*
X106513286Y-65099952D01*
X106560905Y-65147571D01*
X106608524Y-65242810D01*
X106608524Y-65480905D01*
X106560905Y-65576143D01*
X106513286Y-65623762D01*
X106418048Y-65671381D01*
X106132333Y-65671381D01*
X106037095Y-65623762D01*
X105989476Y-65576143D01*
X107513286Y-64671381D02*
X107037095Y-64671381D01*
X106989476Y-65147571D01*
X107037095Y-65099952D01*
X107132333Y-65052333D01*
X107370429Y-65052333D01*
X107465667Y-65099952D01*
X107513286Y-65147571D01*
X107560905Y-65242810D01*
X107560905Y-65480905D01*
X107513286Y-65576143D01*
X107465667Y-65623762D01*
X107370429Y-65671381D01*
X107132333Y-65671381D01*
X107037095Y-65623762D01*
X106989476Y-65576143D01*
X102227848Y-59887676D02*
X101894514Y-59411485D01*
X101656419Y-59887676D02*
X101656419Y-58887676D01*
X102037372Y-58887676D01*
X102132610Y-58935295D01*
X102180229Y-58982914D01*
X102227848Y-59078152D01*
X102227848Y-59221009D01*
X102180229Y-59316247D01*
X102132610Y-59363866D01*
X102037372Y-59411485D01*
X101656419Y-59411485D01*
X102561181Y-58887676D02*
X103180229Y-58887676D01*
X102846895Y-59268628D01*
X102989753Y-59268628D01*
X103084991Y-59316247D01*
X103132610Y-59363866D01*
X103180229Y-59459105D01*
X103180229Y-59697200D01*
X103132610Y-59792438D01*
X103084991Y-59840057D01*
X102989753Y-59887676D01*
X102704038Y-59887676D01*
X102608800Y-59840057D01*
X102561181Y-59792438D01*
X104037372Y-58887676D02*
X103846895Y-58887676D01*
X103751657Y-58935295D01*
X103704038Y-58982914D01*
X103608800Y-59125771D01*
X103561181Y-59316247D01*
X103561181Y-59697200D01*
X103608800Y-59792438D01*
X103656419Y-59840057D01*
X103751657Y-59887676D01*
X103942134Y-59887676D01*
X104037372Y-59840057D01*
X104084991Y-59792438D01*
X104132610Y-59697200D01*
X104132610Y-59459105D01*
X104084991Y-59363866D01*
X104037372Y-59316247D01*
X103942134Y-59268628D01*
X103751657Y-59268628D01*
X103656419Y-59316247D01*
X103608800Y-59363866D01*
X103561181Y-59459105D01*
X87067086Y-64650152D02*
X86590895Y-64983486D01*
X87067086Y-65221581D02*
X86067086Y-65221581D01*
X86067086Y-64840628D01*
X86114705Y-64745390D01*
X86162324Y-64697771D01*
X86257562Y-64650152D01*
X86400419Y-64650152D01*
X86495657Y-64697771D01*
X86543276Y-64745390D01*
X86590895Y-64840628D01*
X86590895Y-65221581D01*
X86067086Y-64316819D02*
X86067086Y-63697771D01*
X86448038Y-64031105D01*
X86448038Y-63888247D01*
X86495657Y-63793009D01*
X86543276Y-63745390D01*
X86638515Y-63697771D01*
X86876610Y-63697771D01*
X86971848Y-63745390D01*
X87019467Y-63793009D01*
X87067086Y-63888247D01*
X87067086Y-64173962D01*
X87019467Y-64269200D01*
X86971848Y-64316819D01*
X86067086Y-63364438D02*
X86067086Y-62697771D01*
X87067086Y-63126343D01*
X100195848Y-57347676D02*
X99862514Y-56871485D01*
X99624419Y-57347676D02*
X99624419Y-56347676D01*
X100005372Y-56347676D01*
X100100610Y-56395295D01*
X100148229Y-56442914D01*
X100195848Y-56538152D01*
X100195848Y-56681009D01*
X100148229Y-56776247D01*
X100100610Y-56823866D01*
X100005372Y-56871485D01*
X99624419Y-56871485D01*
X100529181Y-56347676D02*
X101148229Y-56347676D01*
X100814895Y-56728628D01*
X100957753Y-56728628D01*
X101052991Y-56776247D01*
X101100610Y-56823866D01*
X101148229Y-56919105D01*
X101148229Y-57157200D01*
X101100610Y-57252438D01*
X101052991Y-57300057D01*
X100957753Y-57347676D01*
X100672038Y-57347676D01*
X100576800Y-57300057D01*
X100529181Y-57252438D01*
X101624419Y-57347676D02*
X101814895Y-57347676D01*
X101910134Y-57300057D01*
X101957753Y-57252438D01*
X102052991Y-57109581D01*
X102100610Y-56919105D01*
X102100610Y-56538152D01*
X102052991Y-56442914D01*
X102005372Y-56395295D01*
X101910134Y-56347676D01*
X101719657Y-56347676D01*
X101624419Y-56395295D01*
X101576800Y-56442914D01*
X101529181Y-56538152D01*
X101529181Y-56776247D01*
X101576800Y-56871485D01*
X101624419Y-56919105D01*
X101719657Y-56966724D01*
X101910134Y-56966724D01*
X102005372Y-56919105D01*
X102052991Y-56871485D01*
X102100610Y-56776247D01*
X101291086Y-61602152D02*
X100814895Y-61935486D01*
X101291086Y-62173581D02*
X100291086Y-62173581D01*
X100291086Y-61792628D01*
X100338705Y-61697390D01*
X100386324Y-61649771D01*
X100481562Y-61602152D01*
X100624419Y-61602152D01*
X100719657Y-61649771D01*
X100767276Y-61697390D01*
X100814895Y-61792628D01*
X100814895Y-62173581D01*
X100624419Y-60745009D02*
X101291086Y-60745009D01*
X100243467Y-60983105D02*
X100957753Y-61221200D01*
X100957753Y-60602152D01*
X100291086Y-60030724D02*
X100291086Y-59935485D01*
X100338705Y-59840247D01*
X100386324Y-59792628D01*
X100481562Y-59745009D01*
X100672038Y-59697390D01*
X100910134Y-59697390D01*
X101100610Y-59745009D01*
X101195848Y-59792628D01*
X101243467Y-59840247D01*
X101291086Y-59935485D01*
X101291086Y-60030724D01*
X101243467Y-60125962D01*
X101195848Y-60173581D01*
X101100610Y-60221200D01*
X100910134Y-60268819D01*
X100672038Y-60268819D01*
X100481562Y-60221200D01*
X100386324Y-60173581D01*
X100338705Y-60125962D01*
X100291086Y-60030724D01*
X97655848Y-88335676D02*
X97322514Y-87859485D01*
X97084419Y-88335676D02*
X97084419Y-87335676D01*
X97465372Y-87335676D01*
X97560610Y-87383295D01*
X97608229Y-87430914D01*
X97655848Y-87526152D01*
X97655848Y-87669009D01*
X97608229Y-87764247D01*
X97560610Y-87811866D01*
X97465372Y-87859485D01*
X97084419Y-87859485D01*
X98512991Y-87669009D02*
X98512991Y-88335676D01*
X98274895Y-87288057D02*
X98036800Y-88002343D01*
X98655848Y-88002343D01*
X99560610Y-88335676D02*
X98989181Y-88335676D01*
X99274895Y-88335676D02*
X99274895Y-87335676D01*
X99179657Y-87478533D01*
X99084419Y-87573771D01*
X98989181Y-87621390D01*
X108831848Y-91383676D02*
X108498514Y-90907485D01*
X108260419Y-91383676D02*
X108260419Y-90383676D01*
X108641372Y-90383676D01*
X108736610Y-90431295D01*
X108784229Y-90478914D01*
X108831848Y-90574152D01*
X108831848Y-90717009D01*
X108784229Y-90812247D01*
X108736610Y-90859866D01*
X108641372Y-90907485D01*
X108260419Y-90907485D01*
X109688991Y-90717009D02*
X109688991Y-91383676D01*
X109450895Y-90336057D02*
X109212800Y-91050343D01*
X109831848Y-91050343D01*
X110165181Y-90478914D02*
X110212800Y-90431295D01*
X110308038Y-90383676D01*
X110546134Y-90383676D01*
X110641372Y-90431295D01*
X110688991Y-90478914D01*
X110736610Y-90574152D01*
X110736610Y-90669390D01*
X110688991Y-90812247D01*
X110117562Y-91383676D01*
X110736610Y-91383676D01*
X108641348Y-100722676D02*
X108308014Y-100246485D01*
X108069919Y-100722676D02*
X108069919Y-99722676D01*
X108450872Y-99722676D01*
X108546110Y-99770295D01*
X108593729Y-99817914D01*
X108641348Y-99913152D01*
X108641348Y-100056009D01*
X108593729Y-100151247D01*
X108546110Y-100198866D01*
X108450872Y-100246485D01*
X108069919Y-100246485D01*
X109498491Y-100056009D02*
X109498491Y-100722676D01*
X109260395Y-99675057D02*
X109022300Y-100389343D01*
X109641348Y-100389343D01*
X110498491Y-99722676D02*
X110022300Y-99722676D01*
X109974681Y-100198866D01*
X110022300Y-100151247D01*
X110117538Y-100103628D01*
X110355634Y-100103628D01*
X110450872Y-100151247D01*
X110498491Y-100198866D01*
X110546110Y-100294105D01*
X110546110Y-100532200D01*
X110498491Y-100627438D01*
X110450872Y-100675057D01*
X110355634Y-100722676D01*
X110117538Y-100722676D01*
X110022300Y-100675057D01*
X109974681Y-100627438D01*
X99687848Y-98495676D02*
X99354514Y-98019485D01*
X99116419Y-98495676D02*
X99116419Y-97495676D01*
X99497372Y-97495676D01*
X99592610Y-97543295D01*
X99640229Y-97590914D01*
X99687848Y-97686152D01*
X99687848Y-97829009D01*
X99640229Y-97924247D01*
X99592610Y-97971866D01*
X99497372Y-98019485D01*
X99116419Y-98019485D01*
X100544991Y-97829009D02*
X100544991Y-98495676D01*
X100306895Y-97448057D02*
X100068800Y-98162343D01*
X100687848Y-98162343D01*
X101497372Y-97495676D02*
X101306895Y-97495676D01*
X101211657Y-97543295D01*
X101164038Y-97590914D01*
X101068800Y-97733771D01*
X101021181Y-97924247D01*
X101021181Y-98305200D01*
X101068800Y-98400438D01*
X101116419Y-98448057D01*
X101211657Y-98495676D01*
X101402134Y-98495676D01*
X101497372Y-98448057D01*
X101544991Y-98400438D01*
X101592610Y-98305200D01*
X101592610Y-98067105D01*
X101544991Y-97971866D01*
X101497372Y-97924247D01*
X101402134Y-97876628D01*
X101211657Y-97876628D01*
X101116419Y-97924247D01*
X101068800Y-97971866D01*
X101021181Y-98067105D01*
X96639848Y-101543676D02*
X96306514Y-101067485D01*
X96068419Y-101543676D02*
X96068419Y-100543676D01*
X96449372Y-100543676D01*
X96544610Y-100591295D01*
X96592229Y-100638914D01*
X96639848Y-100734152D01*
X96639848Y-100877009D01*
X96592229Y-100972247D01*
X96544610Y-101019866D01*
X96449372Y-101067485D01*
X96068419Y-101067485D01*
X97496991Y-100877009D02*
X97496991Y-101543676D01*
X97258895Y-100496057D02*
X97020800Y-101210343D01*
X97639848Y-101210343D01*
X97925562Y-100543676D02*
X98592229Y-100543676D01*
X98163657Y-101543676D01*
X110435086Y-110370152D02*
X109958895Y-110703486D01*
X110435086Y-110941581D02*
X109435086Y-110941581D01*
X109435086Y-110560628D01*
X109482705Y-110465390D01*
X109530324Y-110417771D01*
X109625562Y-110370152D01*
X109768419Y-110370152D01*
X109863657Y-110417771D01*
X109911276Y-110465390D01*
X109958895Y-110560628D01*
X109958895Y-110941581D01*
X109768419Y-109513009D02*
X110435086Y-109513009D01*
X109387467Y-109751105D02*
X110101753Y-109989200D01*
X110101753Y-109370152D01*
X110435086Y-108941581D02*
X110435086Y-108751105D01*
X110387467Y-108655866D01*
X110339848Y-108608247D01*
X110196991Y-108513009D01*
X110006515Y-108465390D01*
X109625562Y-108465390D01*
X109530324Y-108513009D01*
X109482705Y-108560628D01*
X109435086Y-108655866D01*
X109435086Y-108846343D01*
X109482705Y-108941581D01*
X109530324Y-108989200D01*
X109625562Y-109036819D01*
X109863657Y-109036819D01*
X109958895Y-108989200D01*
X110006515Y-108941581D01*
X110054134Y-108846343D01*
X110054134Y-108655866D01*
X110006515Y-108560628D01*
X109958895Y-108513009D01*
X109863657Y-108465390D01*
X109466848Y-114946676D02*
X109133514Y-114470485D01*
X108895419Y-114946676D02*
X108895419Y-113946676D01*
X109276372Y-113946676D01*
X109371610Y-113994295D01*
X109419229Y-114041914D01*
X109466848Y-114137152D01*
X109466848Y-114280009D01*
X109419229Y-114375247D01*
X109371610Y-114422866D01*
X109276372Y-114470485D01*
X108895419Y-114470485D01*
X110371610Y-113946676D02*
X109895419Y-113946676D01*
X109847800Y-114422866D01*
X109895419Y-114375247D01*
X109990657Y-114327628D01*
X110228753Y-114327628D01*
X110323991Y-114375247D01*
X110371610Y-114422866D01*
X110419229Y-114518105D01*
X110419229Y-114756200D01*
X110371610Y-114851438D01*
X110323991Y-114899057D01*
X110228753Y-114946676D01*
X109990657Y-114946676D01*
X109895419Y-114899057D01*
X109847800Y-114851438D01*
X111371610Y-114946676D02*
X110800181Y-114946676D01*
X111085895Y-114946676D02*
X111085895Y-113946676D01*
X110990657Y-114089533D01*
X110895419Y-114184771D01*
X110800181Y-114232390D01*
X100195848Y-112719676D02*
X99862514Y-112243485D01*
X99624419Y-112719676D02*
X99624419Y-111719676D01*
X100005372Y-111719676D01*
X100100610Y-111767295D01*
X100148229Y-111814914D01*
X100195848Y-111910152D01*
X100195848Y-112053009D01*
X100148229Y-112148247D01*
X100100610Y-112195866D01*
X100005372Y-112243485D01*
X99624419Y-112243485D01*
X101100610Y-111719676D02*
X100624419Y-111719676D01*
X100576800Y-112195866D01*
X100624419Y-112148247D01*
X100719657Y-112100628D01*
X100957753Y-112100628D01*
X101052991Y-112148247D01*
X101100610Y-112195866D01*
X101148229Y-112291105D01*
X101148229Y-112529200D01*
X101100610Y-112624438D01*
X101052991Y-112672057D01*
X100957753Y-112719676D01*
X100719657Y-112719676D01*
X100624419Y-112672057D01*
X100576800Y-112624438D01*
X101529181Y-111814914D02*
X101576800Y-111767295D01*
X101672038Y-111719676D01*
X101910134Y-111719676D01*
X102005372Y-111767295D01*
X102052991Y-111814914D01*
X102100610Y-111910152D01*
X102100610Y-112005390D01*
X102052991Y-112148247D01*
X101481562Y-112719676D01*
X102100610Y-112719676D01*
X96639848Y-115767676D02*
X96306514Y-115291485D01*
X96068419Y-115767676D02*
X96068419Y-114767676D01*
X96449372Y-114767676D01*
X96544610Y-114815295D01*
X96592229Y-114862914D01*
X96639848Y-114958152D01*
X96639848Y-115101009D01*
X96592229Y-115196247D01*
X96544610Y-115243866D01*
X96449372Y-115291485D01*
X96068419Y-115291485D01*
X97544610Y-114767676D02*
X97068419Y-114767676D01*
X97020800Y-115243866D01*
X97068419Y-115196247D01*
X97163657Y-115148628D01*
X97401753Y-115148628D01*
X97496991Y-115196247D01*
X97544610Y-115243866D01*
X97592229Y-115339105D01*
X97592229Y-115577200D01*
X97544610Y-115672438D01*
X97496991Y-115720057D01*
X97401753Y-115767676D01*
X97163657Y-115767676D01*
X97068419Y-115720057D01*
X97020800Y-115672438D01*
X97925562Y-114767676D02*
X98544610Y-114767676D01*
X98211276Y-115148628D01*
X98354134Y-115148628D01*
X98449372Y-115196247D01*
X98496991Y-115243866D01*
X98544610Y-115339105D01*
X98544610Y-115577200D01*
X98496991Y-115672438D01*
X98449372Y-115720057D01*
X98354134Y-115767676D01*
X98068419Y-115767676D01*
X97973181Y-115720057D01*
X97925562Y-115672438D01*
X109530348Y-119827176D02*
X109197014Y-119350985D01*
X108958919Y-119827176D02*
X108958919Y-118827176D01*
X109339872Y-118827176D01*
X109435110Y-118874795D01*
X109482729Y-118922414D01*
X109530348Y-119017652D01*
X109530348Y-119160509D01*
X109482729Y-119255747D01*
X109435110Y-119303366D01*
X109339872Y-119350985D01*
X108958919Y-119350985D01*
X110435110Y-118827176D02*
X109958919Y-118827176D01*
X109911300Y-119303366D01*
X109958919Y-119255747D01*
X110054157Y-119208128D01*
X110292253Y-119208128D01*
X110387491Y-119255747D01*
X110435110Y-119303366D01*
X110482729Y-119398605D01*
X110482729Y-119636700D01*
X110435110Y-119731938D01*
X110387491Y-119779557D01*
X110292253Y-119827176D01*
X110054157Y-119827176D01*
X109958919Y-119779557D01*
X109911300Y-119731938D01*
X111339872Y-119160509D02*
X111339872Y-119827176D01*
X111101776Y-118779557D02*
X110863681Y-119493843D01*
X111482729Y-119493843D01*
X110435086Y-124594152D02*
X109958895Y-124927486D01*
X110435086Y-125165581D02*
X109435086Y-125165581D01*
X109435086Y-124784628D01*
X109482705Y-124689390D01*
X109530324Y-124641771D01*
X109625562Y-124594152D01*
X109768419Y-124594152D01*
X109863657Y-124641771D01*
X109911276Y-124689390D01*
X109958895Y-124784628D01*
X109958895Y-125165581D01*
X109435086Y-123689390D02*
X109435086Y-124165581D01*
X109911276Y-124213200D01*
X109863657Y-124165581D01*
X109816038Y-124070343D01*
X109816038Y-123832247D01*
X109863657Y-123737009D01*
X109911276Y-123689390D01*
X110006515Y-123641771D01*
X110244610Y-123641771D01*
X110339848Y-123689390D01*
X110387467Y-123737009D01*
X110435086Y-123832247D01*
X110435086Y-124070343D01*
X110387467Y-124165581D01*
X110339848Y-124213200D01*
X109435086Y-122737009D02*
X109435086Y-123213200D01*
X109911276Y-123260819D01*
X109863657Y-123213200D01*
X109816038Y-123117962D01*
X109816038Y-122879866D01*
X109863657Y-122784628D01*
X109911276Y-122737009D01*
X110006515Y-122689390D01*
X110244610Y-122689390D01*
X110339848Y-122737009D01*
X110387467Y-122784628D01*
X110435086Y-122879866D01*
X110435086Y-123117962D01*
X110387467Y-123213200D01*
X110339848Y-123260819D01*
X109593848Y-128853176D02*
X109260514Y-128376985D01*
X109022419Y-128853176D02*
X109022419Y-127853176D01*
X109403372Y-127853176D01*
X109498610Y-127900795D01*
X109546229Y-127948414D01*
X109593848Y-128043652D01*
X109593848Y-128186509D01*
X109546229Y-128281747D01*
X109498610Y-128329366D01*
X109403372Y-128376985D01*
X109022419Y-128376985D01*
X110498610Y-127853176D02*
X110022419Y-127853176D01*
X109974800Y-128329366D01*
X110022419Y-128281747D01*
X110117657Y-128234128D01*
X110355753Y-128234128D01*
X110450991Y-128281747D01*
X110498610Y-128329366D01*
X110546229Y-128424605D01*
X110546229Y-128662700D01*
X110498610Y-128757938D01*
X110450991Y-128805557D01*
X110355753Y-128853176D01*
X110117657Y-128853176D01*
X110022419Y-128805557D01*
X109974800Y-128757938D01*
X110879562Y-127853176D02*
X111546229Y-127853176D01*
X111117657Y-128853176D01*
X100195848Y-126943676D02*
X99862514Y-126467485D01*
X99624419Y-126943676D02*
X99624419Y-125943676D01*
X100005372Y-125943676D01*
X100100610Y-125991295D01*
X100148229Y-126038914D01*
X100195848Y-126134152D01*
X100195848Y-126277009D01*
X100148229Y-126372247D01*
X100100610Y-126419866D01*
X100005372Y-126467485D01*
X99624419Y-126467485D01*
X101100610Y-125943676D02*
X100624419Y-125943676D01*
X100576800Y-126419866D01*
X100624419Y-126372247D01*
X100719657Y-126324628D01*
X100957753Y-126324628D01*
X101052991Y-126372247D01*
X101100610Y-126419866D01*
X101148229Y-126515105D01*
X101148229Y-126753200D01*
X101100610Y-126848438D01*
X101052991Y-126896057D01*
X100957753Y-126943676D01*
X100719657Y-126943676D01*
X100624419Y-126896057D01*
X100576800Y-126848438D01*
X101719657Y-126372247D02*
X101624419Y-126324628D01*
X101576800Y-126277009D01*
X101529181Y-126181771D01*
X101529181Y-126134152D01*
X101576800Y-126038914D01*
X101624419Y-125991295D01*
X101719657Y-125943676D01*
X101910134Y-125943676D01*
X102005372Y-125991295D01*
X102052991Y-126038914D01*
X102100610Y-126134152D01*
X102100610Y-126181771D01*
X102052991Y-126277009D01*
X102005372Y-126324628D01*
X101910134Y-126372247D01*
X101719657Y-126372247D01*
X101624419Y-126419866D01*
X101576800Y-126467485D01*
X101529181Y-126562724D01*
X101529181Y-126753200D01*
X101576800Y-126848438D01*
X101624419Y-126896057D01*
X101719657Y-126943676D01*
X101910134Y-126943676D01*
X102005372Y-126896057D01*
X102052991Y-126848438D01*
X102100610Y-126753200D01*
X102100610Y-126562724D01*
X102052991Y-126467485D01*
X102005372Y-126419866D01*
X101910134Y-126372247D01*
X195191848Y-40075676D02*
X194858514Y-39599485D01*
X194620419Y-40075676D02*
X194620419Y-39075676D01*
X195001372Y-39075676D01*
X195096610Y-39123295D01*
X195144229Y-39170914D01*
X195191848Y-39266152D01*
X195191848Y-39409009D01*
X195144229Y-39504247D01*
X195096610Y-39551866D01*
X195001372Y-39599485D01*
X194620419Y-39599485D01*
X196096610Y-39075676D02*
X195620419Y-39075676D01*
X195572800Y-39551866D01*
X195620419Y-39504247D01*
X195715657Y-39456628D01*
X195953753Y-39456628D01*
X196048991Y-39504247D01*
X196096610Y-39551866D01*
X196144229Y-39647105D01*
X196144229Y-39885200D01*
X196096610Y-39980438D01*
X196048991Y-40028057D01*
X195953753Y-40075676D01*
X195715657Y-40075676D01*
X195620419Y-40028057D01*
X195572800Y-39980438D01*
X196620419Y-40075676D02*
X196810895Y-40075676D01*
X196906134Y-40028057D01*
X196953753Y-39980438D01*
X197048991Y-39837581D01*
X197096610Y-39647105D01*
X197096610Y-39266152D01*
X197048991Y-39170914D01*
X197001372Y-39123295D01*
X196906134Y-39075676D01*
X196715657Y-39075676D01*
X196620419Y-39123295D01*
X196572800Y-39170914D01*
X196525181Y-39266152D01*
X196525181Y-39504247D01*
X196572800Y-39599485D01*
X196620419Y-39647105D01*
X196715657Y-39694724D01*
X196906134Y-39694724D01*
X197001372Y-39647105D01*
X197048991Y-39599485D01*
X197096610Y-39504247D01*
X191091144Y-35776381D02*
X190757810Y-35300190D01*
X190519715Y-35776381D02*
X190519715Y-34776381D01*
X190900668Y-34776381D01*
X190995906Y-34824000D01*
X191043525Y-34871619D01*
X191091144Y-34966857D01*
X191091144Y-35109714D01*
X191043525Y-35204952D01*
X190995906Y-35252571D01*
X190900668Y-35300190D01*
X190519715Y-35300190D01*
X191948287Y-34776381D02*
X191757810Y-34776381D01*
X191662572Y-34824000D01*
X191614953Y-34871619D01*
X191519715Y-35014476D01*
X191472096Y-35204952D01*
X191472096Y-35585905D01*
X191519715Y-35681143D01*
X191567334Y-35728762D01*
X191662572Y-35776381D01*
X191853049Y-35776381D01*
X191948287Y-35728762D01*
X191995906Y-35681143D01*
X192043525Y-35585905D01*
X192043525Y-35347810D01*
X191995906Y-35252571D01*
X191948287Y-35204952D01*
X191853049Y-35157333D01*
X191662572Y-35157333D01*
X191567334Y-35204952D01*
X191519715Y-35252571D01*
X191472096Y-35347810D01*
X192662572Y-34776381D02*
X192757811Y-34776381D01*
X192853049Y-34824000D01*
X192900668Y-34871619D01*
X192948287Y-34966857D01*
X192995906Y-35157333D01*
X192995906Y-35395429D01*
X192948287Y-35585905D01*
X192900668Y-35681143D01*
X192853049Y-35728762D01*
X192757811Y-35776381D01*
X192662572Y-35776381D01*
X192567334Y-35728762D01*
X192519715Y-35681143D01*
X192472096Y-35585905D01*
X192424477Y-35395429D01*
X192424477Y-35157333D01*
X192472096Y-34966857D01*
X192519715Y-34871619D01*
X192567334Y-34824000D01*
X192662572Y-34776381D01*
X195191848Y-44647676D02*
X194858514Y-44171485D01*
X194620419Y-44647676D02*
X194620419Y-43647676D01*
X195001372Y-43647676D01*
X195096610Y-43695295D01*
X195144229Y-43742914D01*
X195191848Y-43838152D01*
X195191848Y-43981009D01*
X195144229Y-44076247D01*
X195096610Y-44123866D01*
X195001372Y-44171485D01*
X194620419Y-44171485D01*
X196048991Y-43647676D02*
X195858514Y-43647676D01*
X195763276Y-43695295D01*
X195715657Y-43742914D01*
X195620419Y-43885771D01*
X195572800Y-44076247D01*
X195572800Y-44457200D01*
X195620419Y-44552438D01*
X195668038Y-44600057D01*
X195763276Y-44647676D01*
X195953753Y-44647676D01*
X196048991Y-44600057D01*
X196096610Y-44552438D01*
X196144229Y-44457200D01*
X196144229Y-44219105D01*
X196096610Y-44123866D01*
X196048991Y-44076247D01*
X195953753Y-44028628D01*
X195763276Y-44028628D01*
X195668038Y-44076247D01*
X195620419Y-44123866D01*
X195572800Y-44219105D01*
X197096610Y-44647676D02*
X196525181Y-44647676D01*
X196810895Y-44647676D02*
X196810895Y-43647676D01*
X196715657Y-43790533D01*
X196620419Y-43885771D01*
X196525181Y-43933390D01*
X196207848Y-42107676D02*
X195874514Y-41631485D01*
X195636419Y-42107676D02*
X195636419Y-41107676D01*
X196017372Y-41107676D01*
X196112610Y-41155295D01*
X196160229Y-41202914D01*
X196207848Y-41298152D01*
X196207848Y-41441009D01*
X196160229Y-41536247D01*
X196112610Y-41583866D01*
X196017372Y-41631485D01*
X195636419Y-41631485D01*
X197064991Y-41107676D02*
X196874514Y-41107676D01*
X196779276Y-41155295D01*
X196731657Y-41202914D01*
X196636419Y-41345771D01*
X196588800Y-41536247D01*
X196588800Y-41917200D01*
X196636419Y-42012438D01*
X196684038Y-42060057D01*
X196779276Y-42107676D01*
X196969753Y-42107676D01*
X197064991Y-42060057D01*
X197112610Y-42012438D01*
X197160229Y-41917200D01*
X197160229Y-41679105D01*
X197112610Y-41583866D01*
X197064991Y-41536247D01*
X196969753Y-41488628D01*
X196779276Y-41488628D01*
X196684038Y-41536247D01*
X196636419Y-41583866D01*
X196588800Y-41679105D01*
X197541181Y-41202914D02*
X197588800Y-41155295D01*
X197684038Y-41107676D01*
X197922134Y-41107676D01*
X198017372Y-41155295D01*
X198064991Y-41202914D01*
X198112610Y-41298152D01*
X198112610Y-41393390D01*
X198064991Y-41536247D01*
X197493562Y-42107676D01*
X198112610Y-42107676D01*
X185348643Y-42357881D02*
X185015309Y-41881690D01*
X184777214Y-42357881D02*
X184777214Y-41357881D01*
X185158167Y-41357881D01*
X185253405Y-41405500D01*
X185301024Y-41453119D01*
X185348643Y-41548357D01*
X185348643Y-41691214D01*
X185301024Y-41786452D01*
X185253405Y-41834071D01*
X185158167Y-41881690D01*
X184777214Y-41881690D01*
X186205786Y-41357881D02*
X186015309Y-41357881D01*
X185920071Y-41405500D01*
X185872452Y-41453119D01*
X185777214Y-41595976D01*
X185729595Y-41786452D01*
X185729595Y-42167405D01*
X185777214Y-42262643D01*
X185824833Y-42310262D01*
X185920071Y-42357881D01*
X186110548Y-42357881D01*
X186205786Y-42310262D01*
X186253405Y-42262643D01*
X186301024Y-42167405D01*
X186301024Y-41929310D01*
X186253405Y-41834071D01*
X186205786Y-41786452D01*
X186110548Y-41738833D01*
X185920071Y-41738833D01*
X185824833Y-41786452D01*
X185777214Y-41834071D01*
X185729595Y-41929310D01*
X186634357Y-41357881D02*
X187253405Y-41357881D01*
X186920071Y-41738833D01*
X187062929Y-41738833D01*
X187158167Y-41786452D01*
X187205786Y-41834071D01*
X187253405Y-41929310D01*
X187253405Y-42167405D01*
X187205786Y-42262643D01*
X187158167Y-42310262D01*
X187062929Y-42357881D01*
X186777214Y-42357881D01*
X186681976Y-42310262D01*
X186634357Y-42262643D01*
X185348643Y-44398881D02*
X185015309Y-43922690D01*
X184777214Y-44398881D02*
X184777214Y-43398881D01*
X185158167Y-43398881D01*
X185253405Y-43446500D01*
X185301024Y-43494119D01*
X185348643Y-43589357D01*
X185348643Y-43732214D01*
X185301024Y-43827452D01*
X185253405Y-43875071D01*
X185158167Y-43922690D01*
X184777214Y-43922690D01*
X186205786Y-43398881D02*
X186015309Y-43398881D01*
X185920071Y-43446500D01*
X185872452Y-43494119D01*
X185777214Y-43636976D01*
X185729595Y-43827452D01*
X185729595Y-44208405D01*
X185777214Y-44303643D01*
X185824833Y-44351262D01*
X185920071Y-44398881D01*
X186110548Y-44398881D01*
X186205786Y-44351262D01*
X186253405Y-44303643D01*
X186301024Y-44208405D01*
X186301024Y-43970310D01*
X186253405Y-43875071D01*
X186205786Y-43827452D01*
X186110548Y-43779833D01*
X185920071Y-43779833D01*
X185824833Y-43827452D01*
X185777214Y-43875071D01*
X185729595Y-43970310D01*
X187158167Y-43732214D02*
X187158167Y-44398881D01*
X186920071Y-43351262D02*
X186681976Y-44065548D01*
X187301024Y-44065548D01*
X127723086Y-48529009D02*
X127723086Y-47957580D01*
X128723086Y-48243295D02*
X127723086Y-48243295D01*
X128723086Y-47624247D02*
X127723086Y-47624247D01*
X128199276Y-47624247D02*
X128199276Y-47052818D01*
X128723086Y-47052818D02*
X127723086Y-47052818D01*
X128723086Y-46052818D02*
X128723086Y-46624247D01*
X128723086Y-46338533D02*
X127723086Y-46338533D01*
X127865943Y-46433771D01*
X127961181Y-46529009D01*
X128008800Y-46624247D01*
X113264381Y-47767714D02*
X113264381Y-47196285D01*
X114264381Y-47482000D02*
X113264381Y-47482000D01*
X114264381Y-46862952D02*
X113264381Y-46862952D01*
X113740571Y-46862952D02*
X113740571Y-46291523D01*
X114264381Y-46291523D02*
X113264381Y-46291523D01*
X113359619Y-45862952D02*
X113312000Y-45815333D01*
X113264381Y-45720095D01*
X113264381Y-45481999D01*
X113312000Y-45386761D01*
X113359619Y-45339142D01*
X113454857Y-45291523D01*
X113550095Y-45291523D01*
X113692952Y-45339142D01*
X114264381Y-45910571D01*
X114264381Y-45291523D01*
X132080800Y-37043676D02*
X132080800Y-37853200D01*
X132128419Y-37948438D01*
X132176038Y-37996057D01*
X132271276Y-38043676D01*
X132461753Y-38043676D01*
X132556991Y-37996057D01*
X132604610Y-37948438D01*
X132652229Y-37853200D01*
X132652229Y-37043676D01*
X133652229Y-38043676D02*
X133080800Y-38043676D01*
X133366514Y-38043676D02*
X133366514Y-37043676D01*
X133271276Y-37186533D01*
X133176038Y-37281771D01*
X133080800Y-37329390D01*
X101092800Y-79207676D02*
X101092800Y-80017200D01*
X101140419Y-80112438D01*
X101188038Y-80160057D01*
X101283276Y-80207676D01*
X101473753Y-80207676D01*
X101568991Y-80160057D01*
X101616610Y-80112438D01*
X101664229Y-80017200D01*
X101664229Y-79207676D01*
X102045181Y-79207676D02*
X102664229Y-79207676D01*
X102330895Y-79588628D01*
X102473753Y-79588628D01*
X102568991Y-79636247D01*
X102616610Y-79683866D01*
X102664229Y-79779105D01*
X102664229Y-80017200D01*
X102616610Y-80112438D01*
X102568991Y-80160057D01*
X102473753Y-80207676D01*
X102188038Y-80207676D01*
X102092800Y-80160057D01*
X102045181Y-80112438D01*
X125984095Y-78132381D02*
X125984095Y-78941905D01*
X126031714Y-79037143D01*
X126079333Y-79084762D01*
X126174571Y-79132381D01*
X126365048Y-79132381D01*
X126460286Y-79084762D01*
X126507905Y-79037143D01*
X126555524Y-78941905D01*
X126555524Y-78132381D01*
X127460286Y-78465714D02*
X127460286Y-79132381D01*
X127222190Y-78084762D02*
X126984095Y-78799048D01*
X127603143Y-78799048D01*
X100965095Y-37104381D02*
X100965095Y-37913905D01*
X101012714Y-38009143D01*
X101060333Y-38056762D01*
X101155571Y-38104381D01*
X101346048Y-38104381D01*
X101441286Y-38056762D01*
X101488905Y-38009143D01*
X101536524Y-37913905D01*
X101536524Y-37104381D01*
X102488905Y-37104381D02*
X102012714Y-37104381D01*
X101965095Y-37580571D01*
X102012714Y-37532952D01*
X102107952Y-37485333D01*
X102346048Y-37485333D01*
X102441286Y-37532952D01*
X102488905Y-37580571D01*
X102536524Y-37675810D01*
X102536524Y-37913905D01*
X102488905Y-38009143D01*
X102441286Y-38056762D01*
X102346048Y-38104381D01*
X102107952Y-38104381D01*
X102012714Y-38056762D01*
X101965095Y-38009143D01*
X85979095Y-33682381D02*
X85979095Y-34491905D01*
X86026714Y-34587143D01*
X86074333Y-34634762D01*
X86169571Y-34682381D01*
X86360048Y-34682381D01*
X86455286Y-34634762D01*
X86502905Y-34587143D01*
X86550524Y-34491905D01*
X86550524Y-33682381D01*
X87455286Y-33682381D02*
X87264809Y-33682381D01*
X87169571Y-33730000D01*
X87121952Y-33777619D01*
X87026714Y-33920476D01*
X86979095Y-34110952D01*
X86979095Y-34491905D01*
X87026714Y-34587143D01*
X87074333Y-34634762D01*
X87169571Y-34682381D01*
X87360048Y-34682381D01*
X87455286Y-34634762D01*
X87502905Y-34587143D01*
X87550524Y-34491905D01*
X87550524Y-34253810D01*
X87502905Y-34158571D01*
X87455286Y-34110952D01*
X87360048Y-34063333D01*
X87169571Y-34063333D01*
X87074333Y-34110952D01*
X87026714Y-34158571D01*
X86979095Y-34253810D01*
X123668381Y-50291905D02*
X124477905Y-50291905D01*
X124573143Y-50244286D01*
X124620762Y-50196667D01*
X124668381Y-50101429D01*
X124668381Y-49910952D01*
X124620762Y-49815714D01*
X124573143Y-49768095D01*
X124477905Y-49720476D01*
X123668381Y-49720476D01*
X123668381Y-49339524D02*
X123668381Y-48672857D01*
X124668381Y-49101429D01*
X114270381Y-50291905D02*
X115079905Y-50291905D01*
X115175143Y-50244286D01*
X115222762Y-50196667D01*
X115270381Y-50101429D01*
X115270381Y-49910952D01*
X115222762Y-49815714D01*
X115175143Y-49768095D01*
X115079905Y-49720476D01*
X114270381Y-49720476D01*
X114698952Y-49101429D02*
X114651333Y-49196667D01*
X114603714Y-49244286D01*
X114508476Y-49291905D01*
X114460857Y-49291905D01*
X114365619Y-49244286D01*
X114318000Y-49196667D01*
X114270381Y-49101429D01*
X114270381Y-48910952D01*
X114318000Y-48815714D01*
X114365619Y-48768095D01*
X114460857Y-48720476D01*
X114508476Y-48720476D01*
X114603714Y-48768095D01*
X114651333Y-48815714D01*
X114698952Y-48910952D01*
X114698952Y-49101429D01*
X114746571Y-49196667D01*
X114794190Y-49244286D01*
X114889429Y-49291905D01*
X115079905Y-49291905D01*
X115175143Y-49244286D01*
X115222762Y-49196667D01*
X115270381Y-49101429D01*
X115270381Y-48910952D01*
X115222762Y-48815714D01*
X115175143Y-48768095D01*
X115079905Y-48720476D01*
X114889429Y-48720476D01*
X114794190Y-48768095D01*
X114746571Y-48815714D01*
X114698952Y-48910952D01*
X125691086Y-72389200D02*
X126500610Y-72389200D01*
X126595848Y-72341581D01*
X126643467Y-72293962D01*
X126691086Y-72198724D01*
X126691086Y-72008247D01*
X126643467Y-71913009D01*
X126595848Y-71865390D01*
X126500610Y-71817771D01*
X125691086Y-71817771D01*
X126691086Y-71293962D02*
X126691086Y-71103486D01*
X126643467Y-71008247D01*
X126595848Y-70960628D01*
X126452991Y-70865390D01*
X126262515Y-70817771D01*
X125881562Y-70817771D01*
X125786324Y-70865390D01*
X125738705Y-70913009D01*
X125691086Y-71008247D01*
X125691086Y-71198724D01*
X125738705Y-71293962D01*
X125786324Y-71341581D01*
X125881562Y-71389200D01*
X126119657Y-71389200D01*
X126214895Y-71341581D01*
X126262515Y-71293962D01*
X126310134Y-71198724D01*
X126310134Y-71008247D01*
X126262515Y-70913009D01*
X126214895Y-70865390D01*
X126119657Y-70817771D01*
X100108610Y-67523676D02*
X100108610Y-68333200D01*
X100156229Y-68428438D01*
X100203848Y-68476057D01*
X100299086Y-68523676D01*
X100489563Y-68523676D01*
X100584801Y-68476057D01*
X100632420Y-68428438D01*
X100680039Y-68333200D01*
X100680039Y-67523676D01*
X101680039Y-68523676D02*
X101108610Y-68523676D01*
X101394324Y-68523676D02*
X101394324Y-67523676D01*
X101299086Y-67666533D01*
X101203848Y-67761771D01*
X101108610Y-67809390D01*
X102299086Y-67523676D02*
X102394325Y-67523676D01*
X102489563Y-67571295D01*
X102537182Y-67618914D01*
X102584801Y-67714152D01*
X102632420Y-67904628D01*
X102632420Y-68142724D01*
X102584801Y-68333200D01*
X102537182Y-68428438D01*
X102489563Y-68476057D01*
X102394325Y-68523676D01*
X102299086Y-68523676D01*
X102203848Y-68476057D01*
X102156229Y-68428438D01*
X102108610Y-68333200D01*
X102060991Y-68142724D01*
X102060991Y-67904628D01*
X102108610Y-67714152D01*
X102156229Y-67618914D01*
X102203848Y-67571295D01*
X102299086Y-67523676D01*
X90964610Y-64983676D02*
X90964610Y-65793200D01*
X91012229Y-65888438D01*
X91059848Y-65936057D01*
X91155086Y-65983676D01*
X91345563Y-65983676D01*
X91440801Y-65936057D01*
X91488420Y-65888438D01*
X91536039Y-65793200D01*
X91536039Y-64983676D01*
X92536039Y-65983676D02*
X91964610Y-65983676D01*
X92250324Y-65983676D02*
X92250324Y-64983676D01*
X92155086Y-65126533D01*
X92059848Y-65221771D01*
X91964610Y-65269390D01*
X93488420Y-65983676D02*
X92916991Y-65983676D01*
X93202705Y-65983676D02*
X93202705Y-64983676D01*
X93107467Y-65126533D01*
X93012229Y-65221771D01*
X92916991Y-65269390D01*
X98837905Y-92152381D02*
X98837905Y-92961905D01*
X98885524Y-93057143D01*
X98933143Y-93104762D01*
X99028381Y-93152381D01*
X99218858Y-93152381D01*
X99314096Y-93104762D01*
X99361715Y-93057143D01*
X99409334Y-92961905D01*
X99409334Y-92152381D01*
X100409334Y-93152381D02*
X99837905Y-93152381D01*
X100123619Y-93152381D02*
X100123619Y-92152381D01*
X100028381Y-92295238D01*
X99933143Y-92390476D01*
X99837905Y-92438095D01*
X100790286Y-92247619D02*
X100837905Y-92200000D01*
X100933143Y-92152381D01*
X101171239Y-92152381D01*
X101266477Y-92200000D01*
X101314096Y-92247619D01*
X101361715Y-92342857D01*
X101361715Y-92438095D01*
X101314096Y-92580952D01*
X100742667Y-93152381D01*
X101361715Y-93152381D01*
X101124610Y-105623676D02*
X101124610Y-106433200D01*
X101172229Y-106528438D01*
X101219848Y-106576057D01*
X101315086Y-106623676D01*
X101505563Y-106623676D01*
X101600801Y-106576057D01*
X101648420Y-106528438D01*
X101696039Y-106433200D01*
X101696039Y-105623676D01*
X102696039Y-106623676D02*
X102124610Y-106623676D01*
X102410324Y-106623676D02*
X102410324Y-105623676D01*
X102315086Y-105766533D01*
X102219848Y-105861771D01*
X102124610Y-105909390D01*
X103029372Y-105623676D02*
X103648420Y-105623676D01*
X103315086Y-106004628D01*
X103457944Y-106004628D01*
X103553182Y-106052247D01*
X103600801Y-106099866D01*
X103648420Y-106195105D01*
X103648420Y-106433200D01*
X103600801Y-106528438D01*
X103553182Y-106576057D01*
X103457944Y-106623676D01*
X103172229Y-106623676D01*
X103076991Y-106576057D01*
X103029372Y-106528438D01*
X101124610Y-119339676D02*
X101124610Y-120149200D01*
X101172229Y-120244438D01*
X101219848Y-120292057D01*
X101315086Y-120339676D01*
X101505563Y-120339676D01*
X101600801Y-120292057D01*
X101648420Y-120244438D01*
X101696039Y-120149200D01*
X101696039Y-119339676D01*
X102696039Y-120339676D02*
X102124610Y-120339676D01*
X102410324Y-120339676D02*
X102410324Y-119339676D01*
X102315086Y-119482533D01*
X102219848Y-119577771D01*
X102124610Y-119625390D01*
X103553182Y-119673009D02*
X103553182Y-120339676D01*
X103315086Y-119292057D02*
X103076991Y-120006343D01*
X103696039Y-120006343D01*
X185127086Y-40353390D02*
X185936610Y-40353390D01*
X186031848Y-40305771D01*
X186079467Y-40258152D01*
X186127086Y-40162914D01*
X186127086Y-39972437D01*
X186079467Y-39877199D01*
X186031848Y-39829580D01*
X185936610Y-39781961D01*
X185127086Y-39781961D01*
X186127086Y-38781961D02*
X186127086Y-39353390D01*
X186127086Y-39067676D02*
X185127086Y-39067676D01*
X185269943Y-39162914D01*
X185365181Y-39258152D01*
X185412800Y-39353390D01*
X185127086Y-37877199D02*
X185127086Y-38353390D01*
X185603276Y-38401009D01*
X185555657Y-38353390D01*
X185508038Y-38258152D01*
X185508038Y-38020056D01*
X185555657Y-37924818D01*
X185603276Y-37877199D01*
X185698515Y-37829580D01*
X185936610Y-37829580D01*
X186031848Y-37877199D01*
X186079467Y-37924818D01*
X186127086Y-38020056D01*
X186127086Y-38258152D01*
X186079467Y-38353390D01*
X186031848Y-38401009D01*
X174775881Y-40417595D02*
X175585405Y-40417595D01*
X175680643Y-40369976D01*
X175728262Y-40322357D01*
X175775881Y-40227119D01*
X175775881Y-40036642D01*
X175728262Y-39941404D01*
X175680643Y-39893785D01*
X175585405Y-39846166D01*
X174775881Y-39846166D01*
X175775881Y-38846166D02*
X175775881Y-39417595D01*
X175775881Y-39131881D02*
X174775881Y-39131881D01*
X174918738Y-39227119D01*
X175013976Y-39322357D01*
X175061595Y-39417595D01*
X174775881Y-37989023D02*
X174775881Y-38179500D01*
X174823500Y-38274738D01*
X174871119Y-38322357D01*
X175013976Y-38417595D01*
X175204452Y-38465214D01*
X175585405Y-38465214D01*
X175680643Y-38417595D01*
X175728262Y-38369976D01*
X175775881Y-38274738D01*
X175775881Y-38084261D01*
X175728262Y-37989023D01*
X175680643Y-37941404D01*
X175585405Y-37893785D01*
X175347310Y-37893785D01*
X175252071Y-37941404D01*
X175204452Y-37989023D01*
X175156833Y-38084261D01*
X175156833Y-38274738D01*
X175204452Y-38369976D01*
X175252071Y-38417595D01*
X175347310Y-38465214D01*
X72597181Y-50759676D02*
X73263848Y-51759676D01*
X73263848Y-50759676D02*
X72597181Y-51759676D01*
X74168610Y-51759676D02*
X73597181Y-51759676D01*
X73882895Y-51759676D02*
X73882895Y-50759676D01*
X73787657Y-50902533D01*
X73692419Y-50997771D01*
X73597181Y-51045390D01*
X164203848Y-120371438D02*
X164156229Y-120419057D01*
X164013372Y-120466676D01*
X163918134Y-120466676D01*
X163775276Y-120419057D01*
X163680038Y-120323819D01*
X163632419Y-120228581D01*
X163584800Y-120038105D01*
X163584800Y-119895247D01*
X163632419Y-119704771D01*
X163680038Y-119609533D01*
X163775276Y-119514295D01*
X163918134Y-119466676D01*
X164013372Y-119466676D01*
X164156229Y-119514295D01*
X164203848Y-119561914D01*
X164584800Y-119561914D02*
X164632419Y-119514295D01*
X164727657Y-119466676D01*
X164965753Y-119466676D01*
X165060991Y-119514295D01*
X165108610Y-119561914D01*
X165156229Y-119657152D01*
X165156229Y-119752390D01*
X165108610Y-119895247D01*
X164537181Y-120466676D01*
X165156229Y-120466676D01*
X166060991Y-119466676D02*
X165584800Y-119466676D01*
X165537181Y-119942866D01*
X165584800Y-119895247D01*
X165680038Y-119847628D01*
X165918134Y-119847628D01*
X166013372Y-119895247D01*
X166060991Y-119942866D01*
X166108610Y-120038105D01*
X166108610Y-120276200D01*
X166060991Y-120371438D01*
X166013372Y-120419057D01*
X165918134Y-120466676D01*
X165680038Y-120466676D01*
X165584800Y-120419057D01*
X165537181Y-120371438D01*
X164203848Y-124435438D02*
X164156229Y-124483057D01*
X164013372Y-124530676D01*
X163918134Y-124530676D01*
X163775276Y-124483057D01*
X163680038Y-124387819D01*
X163632419Y-124292581D01*
X163584800Y-124102105D01*
X163584800Y-123959247D01*
X163632419Y-123768771D01*
X163680038Y-123673533D01*
X163775276Y-123578295D01*
X163918134Y-123530676D01*
X164013372Y-123530676D01*
X164156229Y-123578295D01*
X164203848Y-123625914D01*
X164584800Y-123625914D02*
X164632419Y-123578295D01*
X164727657Y-123530676D01*
X164965753Y-123530676D01*
X165060991Y-123578295D01*
X165108610Y-123625914D01*
X165156229Y-123721152D01*
X165156229Y-123816390D01*
X165108610Y-123959247D01*
X164537181Y-124530676D01*
X165156229Y-124530676D01*
X165727657Y-123959247D02*
X165632419Y-123911628D01*
X165584800Y-123864009D01*
X165537181Y-123768771D01*
X165537181Y-123721152D01*
X165584800Y-123625914D01*
X165632419Y-123578295D01*
X165727657Y-123530676D01*
X165918134Y-123530676D01*
X166013372Y-123578295D01*
X166060991Y-123625914D01*
X166108610Y-123721152D01*
X166108610Y-123768771D01*
X166060991Y-123864009D01*
X166013372Y-123911628D01*
X165918134Y-123959247D01*
X165727657Y-123959247D01*
X165632419Y-124006866D01*
X165584800Y-124054485D01*
X165537181Y-124149724D01*
X165537181Y-124340200D01*
X165584800Y-124435438D01*
X165632419Y-124483057D01*
X165727657Y-124530676D01*
X165918134Y-124530676D01*
X166013372Y-124483057D01*
X166060991Y-124435438D01*
X166108610Y-124340200D01*
X166108610Y-124149724D01*
X166060991Y-124054485D01*
X166013372Y-124006866D01*
X165918134Y-123959247D01*
X164203848Y-113259438D02*
X164156229Y-113307057D01*
X164013372Y-113354676D01*
X163918134Y-113354676D01*
X163775276Y-113307057D01*
X163680038Y-113211819D01*
X163632419Y-113116581D01*
X163584800Y-112926105D01*
X163584800Y-112783247D01*
X163632419Y-112592771D01*
X163680038Y-112497533D01*
X163775276Y-112402295D01*
X163918134Y-112354676D01*
X164013372Y-112354676D01*
X164156229Y-112402295D01*
X164203848Y-112449914D01*
X164584800Y-112449914D02*
X164632419Y-112402295D01*
X164727657Y-112354676D01*
X164965753Y-112354676D01*
X165060991Y-112402295D01*
X165108610Y-112449914D01*
X165156229Y-112545152D01*
X165156229Y-112640390D01*
X165108610Y-112783247D01*
X164537181Y-113354676D01*
X165156229Y-113354676D01*
X165632419Y-113354676D02*
X165822895Y-113354676D01*
X165918134Y-113307057D01*
X165965753Y-113259438D01*
X166060991Y-113116581D01*
X166108610Y-112926105D01*
X166108610Y-112545152D01*
X166060991Y-112449914D01*
X166013372Y-112402295D01*
X165918134Y-112354676D01*
X165727657Y-112354676D01*
X165632419Y-112402295D01*
X165584800Y-112449914D01*
X165537181Y-112545152D01*
X165537181Y-112783247D01*
X165584800Y-112878485D01*
X165632419Y-112926105D01*
X165727657Y-112973724D01*
X165918134Y-112973724D01*
X166013372Y-112926105D01*
X166060991Y-112878485D01*
X166108610Y-112783247D01*
X164203848Y-116815438D02*
X164156229Y-116863057D01*
X164013372Y-116910676D01*
X163918134Y-116910676D01*
X163775276Y-116863057D01*
X163680038Y-116767819D01*
X163632419Y-116672581D01*
X163584800Y-116482105D01*
X163584800Y-116339247D01*
X163632419Y-116148771D01*
X163680038Y-116053533D01*
X163775276Y-115958295D01*
X163918134Y-115910676D01*
X164013372Y-115910676D01*
X164156229Y-115958295D01*
X164203848Y-116005914D01*
X164537181Y-115910676D02*
X165156229Y-115910676D01*
X164822895Y-116291628D01*
X164965753Y-116291628D01*
X165060991Y-116339247D01*
X165108610Y-116386866D01*
X165156229Y-116482105D01*
X165156229Y-116720200D01*
X165108610Y-116815438D01*
X165060991Y-116863057D01*
X164965753Y-116910676D01*
X164680038Y-116910676D01*
X164584800Y-116863057D01*
X164537181Y-116815438D01*
X165775276Y-115910676D02*
X165870515Y-115910676D01*
X165965753Y-115958295D01*
X166013372Y-116005914D01*
X166060991Y-116101152D01*
X166108610Y-116291628D01*
X166108610Y-116529724D01*
X166060991Y-116720200D01*
X166013372Y-116815438D01*
X165965753Y-116863057D01*
X165870515Y-116910676D01*
X165775276Y-116910676D01*
X165680038Y-116863057D01*
X165632419Y-116815438D01*
X165584800Y-116720200D01*
X165537181Y-116529724D01*
X165537181Y-116291628D01*
X165584800Y-116101152D01*
X165632419Y-116005914D01*
X165680038Y-115958295D01*
X165775276Y-115910676D01*
X109403348Y-105793676D02*
X109070014Y-105317485D01*
X108831919Y-105793676D02*
X108831919Y-104793676D01*
X109212872Y-104793676D01*
X109308110Y-104841295D01*
X109355729Y-104888914D01*
X109403348Y-104984152D01*
X109403348Y-105127009D01*
X109355729Y-105222247D01*
X109308110Y-105269866D01*
X109212872Y-105317485D01*
X108831919Y-105317485D01*
X110260491Y-105127009D02*
X110260491Y-105793676D01*
X110022395Y-104746057D02*
X109784300Y-105460343D01*
X110403348Y-105460343D01*
X110927157Y-105222247D02*
X110831919Y-105174628D01*
X110784300Y-105127009D01*
X110736681Y-105031771D01*
X110736681Y-104984152D01*
X110784300Y-104888914D01*
X110831919Y-104841295D01*
X110927157Y-104793676D01*
X111117634Y-104793676D01*
X111212872Y-104841295D01*
X111260491Y-104888914D01*
X111308110Y-104984152D01*
X111308110Y-105031771D01*
X111260491Y-105127009D01*
X111212872Y-105174628D01*
X111117634Y-105222247D01*
X110927157Y-105222247D01*
X110831919Y-105269866D01*
X110784300Y-105317485D01*
X110736681Y-105412724D01*
X110736681Y-105603200D01*
X110784300Y-105698438D01*
X110831919Y-105746057D01*
X110927157Y-105793676D01*
X111117634Y-105793676D01*
X111212872Y-105746057D01*
X111260491Y-105698438D01*
X111308110Y-105603200D01*
X111308110Y-105412724D01*
X111260491Y-105317485D01*
X111212872Y-105269866D01*
X111117634Y-105222247D01*
X93194381Y-96750095D02*
X92194381Y-96750095D01*
X92194381Y-96512000D01*
X92242000Y-96369142D01*
X92337238Y-96273904D01*
X92432476Y-96226285D01*
X92622952Y-96178666D01*
X92765810Y-96178666D01*
X92956286Y-96226285D01*
X93051524Y-96273904D01*
X93146762Y-96369142D01*
X93194381Y-96512000D01*
X93194381Y-96750095D01*
X92622952Y-95607238D02*
X92575333Y-95702476D01*
X92527714Y-95750095D01*
X92432476Y-95797714D01*
X92384857Y-95797714D01*
X92289619Y-95750095D01*
X92242000Y-95702476D01*
X92194381Y-95607238D01*
X92194381Y-95416761D01*
X92242000Y-95321523D01*
X92289619Y-95273904D01*
X92384857Y-95226285D01*
X92432476Y-95226285D01*
X92527714Y-95273904D01*
X92575333Y-95321523D01*
X92622952Y-95416761D01*
X92622952Y-95607238D01*
X92670571Y-95702476D01*
X92718190Y-95750095D01*
X92813429Y-95797714D01*
X93003905Y-95797714D01*
X93099143Y-95750095D01*
X93146762Y-95702476D01*
X93194381Y-95607238D01*
X93194381Y-95416761D01*
X93146762Y-95321523D01*
X93099143Y-95273904D01*
X93003905Y-95226285D01*
X92813429Y-95226285D01*
X92718190Y-95273904D01*
X92670571Y-95321523D01*
X92622952Y-95416761D01*
X93575381Y-110212095D02*
X92575381Y-110212095D01*
X92575381Y-109974000D01*
X92623000Y-109831142D01*
X92718238Y-109735904D01*
X92813476Y-109688285D01*
X93003952Y-109640666D01*
X93146810Y-109640666D01*
X93337286Y-109688285D01*
X93432524Y-109735904D01*
X93527762Y-109831142D01*
X93575381Y-109974000D01*
X93575381Y-110212095D01*
X93575381Y-109164476D02*
X93575381Y-108974000D01*
X93527762Y-108878761D01*
X93480143Y-108831142D01*
X93337286Y-108735904D01*
X93146810Y-108688285D01*
X92765857Y-108688285D01*
X92670619Y-108735904D01*
X92623000Y-108783523D01*
X92575381Y-108878761D01*
X92575381Y-109069238D01*
X92623000Y-109164476D01*
X92670619Y-109212095D01*
X92765857Y-109259714D01*
X93003952Y-109259714D01*
X93099190Y-109212095D01*
X93146810Y-109164476D01*
X93194429Y-109069238D01*
X93194429Y-108878761D01*
X93146810Y-108783523D01*
X93099190Y-108735904D01*
X93003952Y-108688285D01*
X117944039Y-109163676D02*
X117610705Y-108687485D01*
X117372610Y-109163676D02*
X117372610Y-108163676D01*
X117753563Y-108163676D01*
X117848801Y-108211295D01*
X117896420Y-108258914D01*
X117944039Y-108354152D01*
X117944039Y-108497009D01*
X117896420Y-108592247D01*
X117848801Y-108639866D01*
X117753563Y-108687485D01*
X117372610Y-108687485D01*
X118277372Y-108163676D02*
X118896420Y-108163676D01*
X118563086Y-108544628D01*
X118705944Y-108544628D01*
X118801182Y-108592247D01*
X118848801Y-108639866D01*
X118896420Y-108735105D01*
X118896420Y-108973200D01*
X118848801Y-109068438D01*
X118801182Y-109116057D01*
X118705944Y-109163676D01*
X118420229Y-109163676D01*
X118324991Y-109116057D01*
X118277372Y-109068438D01*
X117944039Y-123387676D02*
X117610705Y-122911485D01*
X117372610Y-123387676D02*
X117372610Y-122387676D01*
X117753563Y-122387676D01*
X117848801Y-122435295D01*
X117896420Y-122482914D01*
X117944039Y-122578152D01*
X117944039Y-122721009D01*
X117896420Y-122816247D01*
X117848801Y-122863866D01*
X117753563Y-122911485D01*
X117372610Y-122911485D01*
X118801182Y-122721009D02*
X118801182Y-123387676D01*
X118563086Y-122340057D02*
X118324991Y-123054343D01*
X118944039Y-123054343D01*
X121500039Y-87319676D02*
X121166705Y-86843485D01*
X120928610Y-87319676D02*
X120928610Y-86319676D01*
X121309563Y-86319676D01*
X121404801Y-86367295D01*
X121452420Y-86414914D01*
X121500039Y-86510152D01*
X121500039Y-86653009D01*
X121452420Y-86748247D01*
X121404801Y-86795866D01*
X121309563Y-86843485D01*
X120928610Y-86843485D01*
X122404801Y-86319676D02*
X121928610Y-86319676D01*
X121880991Y-86795866D01*
X121928610Y-86748247D01*
X122023848Y-86700628D01*
X122261944Y-86700628D01*
X122357182Y-86748247D01*
X122404801Y-86795866D01*
X122452420Y-86891105D01*
X122452420Y-87129200D01*
X122404801Y-87224438D01*
X122357182Y-87272057D01*
X122261944Y-87319676D01*
X122023848Y-87319676D01*
X121928610Y-87272057D01*
X121880991Y-87224438D01*
X136231334Y-37950381D02*
X135898000Y-37474190D01*
X135659905Y-37950381D02*
X135659905Y-36950381D01*
X136040858Y-36950381D01*
X136136096Y-36998000D01*
X136183715Y-37045619D01*
X136231334Y-37140857D01*
X136231334Y-37283714D01*
X136183715Y-37378952D01*
X136136096Y-37426571D01*
X136040858Y-37474190D01*
X135659905Y-37474190D01*
X137088477Y-36950381D02*
X136898000Y-36950381D01*
X136802762Y-36998000D01*
X136755143Y-37045619D01*
X136659905Y-37188476D01*
X136612286Y-37378952D01*
X136612286Y-37759905D01*
X136659905Y-37855143D01*
X136707524Y-37902762D01*
X136802762Y-37950381D01*
X136993239Y-37950381D01*
X137088477Y-37902762D01*
X137136096Y-37855143D01*
X137183715Y-37759905D01*
X137183715Y-37521810D01*
X137136096Y-37426571D01*
X137088477Y-37378952D01*
X136993239Y-37331333D01*
X136802762Y-37331333D01*
X136707524Y-37378952D01*
X136659905Y-37426571D01*
X136612286Y-37521810D01*
X113911848Y-87319676D02*
X113578514Y-86843485D01*
X113340419Y-87319676D02*
X113340419Y-86319676D01*
X113721372Y-86319676D01*
X113816610Y-86367295D01*
X113864229Y-86414914D01*
X113911848Y-86510152D01*
X113911848Y-86653009D01*
X113864229Y-86748247D01*
X113816610Y-86795866D01*
X113721372Y-86843485D01*
X113340419Y-86843485D01*
X114864229Y-87319676D02*
X114292800Y-87319676D01*
X114578514Y-87319676D02*
X114578514Y-86319676D01*
X114483276Y-86462533D01*
X114388038Y-86557771D01*
X114292800Y-86605390D01*
X115245181Y-86414914D02*
X115292800Y-86367295D01*
X115388038Y-86319676D01*
X115626134Y-86319676D01*
X115721372Y-86367295D01*
X115768991Y-86414914D01*
X115816610Y-86510152D01*
X115816610Y-86605390D01*
X115768991Y-86748247D01*
X115197562Y-87319676D01*
X115816610Y-87319676D01*
X113991086Y-60586152D02*
X113514895Y-60919486D01*
X113991086Y-61157581D02*
X112991086Y-61157581D01*
X112991086Y-60776628D01*
X113038705Y-60681390D01*
X113086324Y-60633771D01*
X113181562Y-60586152D01*
X113324419Y-60586152D01*
X113419657Y-60633771D01*
X113467276Y-60681390D01*
X113514895Y-60776628D01*
X113514895Y-61157581D01*
X113086324Y-60205200D02*
X113038705Y-60157581D01*
X112991086Y-60062343D01*
X112991086Y-59824247D01*
X113038705Y-59729009D01*
X113086324Y-59681390D01*
X113181562Y-59633771D01*
X113276800Y-59633771D01*
X113419657Y-59681390D01*
X113991086Y-60252819D01*
X113991086Y-59633771D01*
X112991086Y-58776628D02*
X112991086Y-58967105D01*
X113038705Y-59062343D01*
X113086324Y-59109962D01*
X113229181Y-59205200D01*
X113419657Y-59252819D01*
X113800610Y-59252819D01*
X113895848Y-59205200D01*
X113943467Y-59157581D01*
X113991086Y-59062343D01*
X113991086Y-58871866D01*
X113943467Y-58776628D01*
X113895848Y-58729009D01*
X113800610Y-58681390D01*
X113562515Y-58681390D01*
X113467276Y-58729009D01*
X113419657Y-58776628D01*
X113372038Y-58871866D01*
X113372038Y-59062343D01*
X113419657Y-59157581D01*
X113467276Y-59205200D01*
X113562515Y-59252819D01*
X87067086Y-66682152D02*
X86590895Y-67015486D01*
X87067086Y-67253581D02*
X86067086Y-67253581D01*
X86067086Y-66872628D01*
X86114705Y-66777390D01*
X86162324Y-66729771D01*
X86257562Y-66682152D01*
X86400419Y-66682152D01*
X86495657Y-66729771D01*
X86543276Y-66777390D01*
X86590895Y-66872628D01*
X86590895Y-67253581D01*
X86067086Y-66348819D02*
X86067086Y-65729771D01*
X86448038Y-66063105D01*
X86448038Y-65920247D01*
X86495657Y-65825009D01*
X86543276Y-65777390D01*
X86638515Y-65729771D01*
X86876610Y-65729771D01*
X86971848Y-65777390D01*
X87019467Y-65825009D01*
X87067086Y-65920247D01*
X87067086Y-66205962D01*
X87019467Y-66301200D01*
X86971848Y-66348819D01*
X86495657Y-65158343D02*
X86448038Y-65253581D01*
X86400419Y-65301200D01*
X86305181Y-65348819D01*
X86257562Y-65348819D01*
X86162324Y-65301200D01*
X86114705Y-65253581D01*
X86067086Y-65158343D01*
X86067086Y-64967866D01*
X86114705Y-64872628D01*
X86162324Y-64825009D01*
X86257562Y-64777390D01*
X86305181Y-64777390D01*
X86400419Y-64825009D01*
X86448038Y-64872628D01*
X86495657Y-64967866D01*
X86495657Y-65158343D01*
X86543276Y-65253581D01*
X86590895Y-65301200D01*
X86686134Y-65348819D01*
X86876610Y-65348819D01*
X86971848Y-65301200D01*
X87019467Y-65253581D01*
X87067086Y-65158343D01*
X87067086Y-64967866D01*
X87019467Y-64872628D01*
X86971848Y-64825009D01*
X86876610Y-64777390D01*
X86686134Y-64777390D01*
X86590895Y-64825009D01*
X86543276Y-64872628D01*
X86495657Y-64967866D01*
X109927086Y-96146152D02*
X109450895Y-96479486D01*
X109927086Y-96717581D02*
X108927086Y-96717581D01*
X108927086Y-96336628D01*
X108974705Y-96241390D01*
X109022324Y-96193771D01*
X109117562Y-96146152D01*
X109260419Y-96146152D01*
X109355657Y-96193771D01*
X109403276Y-96241390D01*
X109450895Y-96336628D01*
X109450895Y-96717581D01*
X109260419Y-95289009D02*
X109927086Y-95289009D01*
X108879467Y-95527105D02*
X109593753Y-95765200D01*
X109593753Y-95146152D01*
X108927086Y-94860438D02*
X108927086Y-94241390D01*
X109308038Y-94574724D01*
X109308038Y-94431866D01*
X109355657Y-94336628D01*
X109403276Y-94289009D01*
X109498515Y-94241390D01*
X109736610Y-94241390D01*
X109831848Y-94289009D01*
X109879467Y-94336628D01*
X109927086Y-94431866D01*
X109927086Y-94717581D01*
X109879467Y-94812819D01*
X109831848Y-94860438D01*
X113403848Y-94939676D02*
X113070514Y-94463485D01*
X112832419Y-94939676D02*
X112832419Y-93939676D01*
X113213372Y-93939676D01*
X113308610Y-93987295D01*
X113356229Y-94034914D01*
X113403848Y-94130152D01*
X113403848Y-94273009D01*
X113356229Y-94368247D01*
X113308610Y-94415866D01*
X113213372Y-94463485D01*
X112832419Y-94463485D01*
X114260991Y-94273009D02*
X114260991Y-94939676D01*
X114022895Y-93892057D02*
X113784800Y-94606343D01*
X114403848Y-94606343D01*
X115213372Y-94273009D02*
X115213372Y-94939676D01*
X114975276Y-93892057D02*
X114737181Y-94606343D01*
X115356229Y-94606343D01*
X113911848Y-109163676D02*
X113578514Y-108687485D01*
X113340419Y-109163676D02*
X113340419Y-108163676D01*
X113721372Y-108163676D01*
X113816610Y-108211295D01*
X113864229Y-108258914D01*
X113911848Y-108354152D01*
X113911848Y-108497009D01*
X113864229Y-108592247D01*
X113816610Y-108639866D01*
X113721372Y-108687485D01*
X113340419Y-108687485D01*
X114816610Y-108163676D02*
X114340419Y-108163676D01*
X114292800Y-108639866D01*
X114340419Y-108592247D01*
X114435657Y-108544628D01*
X114673753Y-108544628D01*
X114768991Y-108592247D01*
X114816610Y-108639866D01*
X114864229Y-108735105D01*
X114864229Y-108973200D01*
X114816610Y-109068438D01*
X114768991Y-109116057D01*
X114673753Y-109163676D01*
X114435657Y-109163676D01*
X114340419Y-109116057D01*
X114292800Y-109068438D01*
X115483276Y-108163676D02*
X115578515Y-108163676D01*
X115673753Y-108211295D01*
X115721372Y-108258914D01*
X115768991Y-108354152D01*
X115816610Y-108544628D01*
X115816610Y-108782724D01*
X115768991Y-108973200D01*
X115721372Y-109068438D01*
X115673753Y-109116057D01*
X115578515Y-109163676D01*
X115483276Y-109163676D01*
X115388038Y-109116057D01*
X115340419Y-109068438D01*
X115292800Y-108973200D01*
X115245181Y-108782724D01*
X115245181Y-108544628D01*
X115292800Y-108354152D01*
X115340419Y-108258914D01*
X115388038Y-108211295D01*
X115483276Y-108163676D01*
X113911848Y-123387676D02*
X113578514Y-122911485D01*
X113340419Y-123387676D02*
X113340419Y-122387676D01*
X113721372Y-122387676D01*
X113816610Y-122435295D01*
X113864229Y-122482914D01*
X113911848Y-122578152D01*
X113911848Y-122721009D01*
X113864229Y-122816247D01*
X113816610Y-122863866D01*
X113721372Y-122911485D01*
X113340419Y-122911485D01*
X114816610Y-122387676D02*
X114340419Y-122387676D01*
X114292800Y-122863866D01*
X114340419Y-122816247D01*
X114435657Y-122768628D01*
X114673753Y-122768628D01*
X114768991Y-122816247D01*
X114816610Y-122863866D01*
X114864229Y-122959105D01*
X114864229Y-123197200D01*
X114816610Y-123292438D01*
X114768991Y-123340057D01*
X114673753Y-123387676D01*
X114435657Y-123387676D01*
X114340419Y-123340057D01*
X114292800Y-123292438D01*
X115721372Y-122387676D02*
X115530895Y-122387676D01*
X115435657Y-122435295D01*
X115388038Y-122482914D01*
X115292800Y-122625771D01*
X115245181Y-122816247D01*
X115245181Y-123197200D01*
X115292800Y-123292438D01*
X115340419Y-123340057D01*
X115435657Y-123387676D01*
X115626134Y-123387676D01*
X115721372Y-123340057D01*
X115768991Y-123292438D01*
X115816610Y-123197200D01*
X115816610Y-122959105D01*
X115768991Y-122863866D01*
X115721372Y-122816247D01*
X115626134Y-122768628D01*
X115435657Y-122768628D01*
X115340419Y-122816247D01*
X115292800Y-122863866D01*
X115245181Y-122959105D01*
X80463086Y-41313961D02*
X79986895Y-41647295D01*
X80463086Y-41885390D02*
X79463086Y-41885390D01*
X79463086Y-41504437D01*
X79510705Y-41409199D01*
X79558324Y-41361580D01*
X79653562Y-41313961D01*
X79796419Y-41313961D01*
X79891657Y-41361580D01*
X79939276Y-41409199D01*
X79986895Y-41504437D01*
X79986895Y-41885390D01*
X79463086Y-40980628D02*
X79463086Y-40313961D01*
X80463086Y-40742533D01*
X92147086Y-39758152D02*
X91670895Y-40091486D01*
X92147086Y-40329581D02*
X91147086Y-40329581D01*
X91147086Y-39948628D01*
X91194705Y-39853390D01*
X91242324Y-39805771D01*
X91337562Y-39758152D01*
X91480419Y-39758152D01*
X91575657Y-39805771D01*
X91623276Y-39853390D01*
X91670895Y-39948628D01*
X91670895Y-40329581D01*
X91242324Y-39377200D02*
X91194705Y-39329581D01*
X91147086Y-39234343D01*
X91147086Y-38996247D01*
X91194705Y-38901009D01*
X91242324Y-38853390D01*
X91337562Y-38805771D01*
X91432800Y-38805771D01*
X91575657Y-38853390D01*
X92147086Y-39424819D01*
X92147086Y-38805771D01*
X91147086Y-38186724D02*
X91147086Y-38091485D01*
X91194705Y-37996247D01*
X91242324Y-37948628D01*
X91337562Y-37901009D01*
X91528038Y-37853390D01*
X91766134Y-37853390D01*
X91956610Y-37901009D01*
X92051848Y-37948628D01*
X92099467Y-37996247D01*
X92147086Y-38091485D01*
X92147086Y-38186724D01*
X92099467Y-38281962D01*
X92051848Y-38329581D01*
X91956610Y-38377200D01*
X91766134Y-38424819D01*
X91528038Y-38424819D01*
X91337562Y-38377200D01*
X91242324Y-38329581D01*
X91194705Y-38281962D01*
X91147086Y-38186724D01*
X131457381Y-86367857D02*
X130981190Y-86701191D01*
X131457381Y-86939286D02*
X130457381Y-86939286D01*
X130457381Y-86558333D01*
X130505000Y-86463095D01*
X130552619Y-86415476D01*
X130647857Y-86367857D01*
X130790714Y-86367857D01*
X130885952Y-86415476D01*
X130933571Y-86463095D01*
X130981190Y-86558333D01*
X130981190Y-86939286D01*
X130552619Y-85986905D02*
X130505000Y-85939286D01*
X130457381Y-85844048D01*
X130457381Y-85605952D01*
X130505000Y-85510714D01*
X130552619Y-85463095D01*
X130647857Y-85415476D01*
X130743095Y-85415476D01*
X130885952Y-85463095D01*
X131457381Y-86034524D01*
X131457381Y-85415476D01*
X131457381Y-84463095D02*
X131457381Y-85034524D01*
X131457381Y-84748810D02*
X130457381Y-84748810D01*
X130600238Y-84844048D01*
X130695476Y-84939286D01*
X130743095Y-85034524D01*
X125634762Y-40531619D02*
X125539524Y-40484000D01*
X125444286Y-40388762D01*
X125301429Y-40245905D01*
X125206190Y-40198286D01*
X125110952Y-40198286D01*
X125158571Y-40436381D02*
X125063333Y-40388762D01*
X124968095Y-40293524D01*
X124920476Y-40103048D01*
X124920476Y-39769714D01*
X124968095Y-39579238D01*
X125063333Y-39484000D01*
X125158571Y-39436381D01*
X125349048Y-39436381D01*
X125444286Y-39484000D01*
X125539524Y-39579238D01*
X125587143Y-39769714D01*
X125587143Y-40103048D01*
X125539524Y-40293524D01*
X125444286Y-40388762D01*
X125349048Y-40436381D01*
X125158571Y-40436381D01*
X126539524Y-40436381D02*
X125968095Y-40436381D01*
X126253809Y-40436381D02*
X126253809Y-39436381D01*
X126158571Y-39579238D01*
X126063333Y-39674476D01*
X125968095Y-39722095D01*
X88607086Y-55704628D02*
X89321372Y-55704628D01*
X89464229Y-55752248D01*
X89559467Y-55847486D01*
X89607086Y-55990343D01*
X89607086Y-56085581D01*
X89607086Y-54704628D02*
X89607086Y-55276057D01*
X89607086Y-54990343D02*
X88607086Y-54990343D01*
X88749943Y-55085581D01*
X88845181Y-55180819D01*
X88892800Y-55276057D01*
X119579086Y-58046152D02*
X119102895Y-58379486D01*
X119579086Y-58617581D02*
X118579086Y-58617581D01*
X118579086Y-58236628D01*
X118626705Y-58141390D01*
X118674324Y-58093771D01*
X118769562Y-58046152D01*
X118912419Y-58046152D01*
X119007657Y-58093771D01*
X119055276Y-58141390D01*
X119102895Y-58236628D01*
X119102895Y-58617581D01*
X118674324Y-57665200D02*
X118626705Y-57617581D01*
X118579086Y-57522343D01*
X118579086Y-57284247D01*
X118626705Y-57189009D01*
X118674324Y-57141390D01*
X118769562Y-57093771D01*
X118864800Y-57093771D01*
X119007657Y-57141390D01*
X119579086Y-57712819D01*
X119579086Y-57093771D01*
X118912419Y-56236628D02*
X119579086Y-56236628D01*
X118531467Y-56474724D02*
X119245753Y-56712819D01*
X119245753Y-56093771D01*
X71247524Y-118610071D02*
X71390381Y-118657690D01*
X71438000Y-118705310D01*
X71485619Y-118800548D01*
X71485619Y-118943405D01*
X71438000Y-119038643D01*
X71390381Y-119086262D01*
X71295143Y-119133881D01*
X70914190Y-119133881D01*
X70914190Y-118133881D01*
X71247524Y-118133881D01*
X71342762Y-118181500D01*
X71390381Y-118229119D01*
X71438000Y-118324357D01*
X71438000Y-118419595D01*
X71390381Y-118514833D01*
X71342762Y-118562452D01*
X71247524Y-118610071D01*
X70914190Y-118610071D01*
X72057047Y-119133881D02*
X71961809Y-119086262D01*
X71914190Y-119038643D01*
X71866571Y-118943405D01*
X71866571Y-118657690D01*
X71914190Y-118562452D01*
X71961809Y-118514833D01*
X72057047Y-118467214D01*
X72199905Y-118467214D01*
X72295143Y-118514833D01*
X72342762Y-118562452D01*
X72390381Y-118657690D01*
X72390381Y-118943405D01*
X72342762Y-119038643D01*
X72295143Y-119086262D01*
X72199905Y-119133881D01*
X72057047Y-119133881D01*
X73247524Y-119133881D02*
X73247524Y-118610071D01*
X73199905Y-118514833D01*
X73104667Y-118467214D01*
X72914190Y-118467214D01*
X72818952Y-118514833D01*
X73247524Y-119086262D02*
X73152286Y-119133881D01*
X72914190Y-119133881D01*
X72818952Y-119086262D01*
X72771333Y-118991024D01*
X72771333Y-118895786D01*
X72818952Y-118800548D01*
X72914190Y-118752929D01*
X73152286Y-118752929D01*
X73247524Y-118705310D01*
X73723714Y-119133881D02*
X73723714Y-118467214D01*
X73723714Y-118657690D02*
X73771333Y-118562452D01*
X73818952Y-118514833D01*
X73914190Y-118467214D01*
X74009429Y-118467214D01*
X74771334Y-119133881D02*
X74771334Y-118133881D01*
X74771334Y-119086262D02*
X74676096Y-119133881D01*
X74485619Y-119133881D01*
X74390381Y-119086262D01*
X74342762Y-119038643D01*
X74295143Y-118943405D01*
X74295143Y-118657690D01*
X74342762Y-118562452D01*
X74390381Y-118514833D01*
X74485619Y-118467214D01*
X74676096Y-118467214D01*
X74771334Y-118514833D01*
X76009429Y-119133881D02*
X76009429Y-118133881D01*
X76342763Y-118848167D01*
X76676096Y-118133881D01*
X76676096Y-119133881D01*
X77295143Y-119133881D02*
X77199905Y-119086262D01*
X77152286Y-119038643D01*
X77104667Y-118943405D01*
X77104667Y-118657690D01*
X77152286Y-118562452D01*
X77199905Y-118514833D01*
X77295143Y-118467214D01*
X77438001Y-118467214D01*
X77533239Y-118514833D01*
X77580858Y-118562452D01*
X77628477Y-118657690D01*
X77628477Y-118943405D01*
X77580858Y-119038643D01*
X77533239Y-119086262D01*
X77438001Y-119133881D01*
X77295143Y-119133881D01*
X78485620Y-118467214D02*
X78485620Y-119133881D01*
X78057048Y-118467214D02*
X78057048Y-118991024D01*
X78104667Y-119086262D01*
X78199905Y-119133881D01*
X78342763Y-119133881D01*
X78438001Y-119086262D01*
X78485620Y-119038643D01*
X78961810Y-118467214D02*
X78961810Y-119133881D01*
X78961810Y-118562452D02*
X79009429Y-118514833D01*
X79104667Y-118467214D01*
X79247525Y-118467214D01*
X79342763Y-118514833D01*
X79390382Y-118610071D01*
X79390382Y-119133881D01*
X79723715Y-118467214D02*
X80104667Y-118467214D01*
X79866572Y-118133881D02*
X79866572Y-118991024D01*
X79914191Y-119086262D01*
X80009429Y-119133881D01*
X80104667Y-119133881D01*
X69216229Y-43615866D02*
X69359086Y-43663485D01*
X69406705Y-43711105D01*
X69454324Y-43806343D01*
X69454324Y-43949200D01*
X69406705Y-44044438D01*
X69359086Y-44092057D01*
X69263848Y-44139676D01*
X68882895Y-44139676D01*
X68882895Y-43139676D01*
X69216229Y-43139676D01*
X69311467Y-43187295D01*
X69359086Y-43234914D01*
X69406705Y-43330152D01*
X69406705Y-43425390D01*
X69359086Y-43520628D01*
X69311467Y-43568247D01*
X69216229Y-43615866D01*
X68882895Y-43615866D01*
X70025752Y-44139676D02*
X69930514Y-44092057D01*
X69882895Y-44044438D01*
X69835276Y-43949200D01*
X69835276Y-43663485D01*
X69882895Y-43568247D01*
X69930514Y-43520628D01*
X70025752Y-43473009D01*
X70168610Y-43473009D01*
X70263848Y-43520628D01*
X70311467Y-43568247D01*
X70359086Y-43663485D01*
X70359086Y-43949200D01*
X70311467Y-44044438D01*
X70263848Y-44092057D01*
X70168610Y-44139676D01*
X70025752Y-44139676D01*
X71216229Y-44139676D02*
X71216229Y-43615866D01*
X71168610Y-43520628D01*
X71073372Y-43473009D01*
X70882895Y-43473009D01*
X70787657Y-43520628D01*
X71216229Y-44092057D02*
X71120991Y-44139676D01*
X70882895Y-44139676D01*
X70787657Y-44092057D01*
X70740038Y-43996819D01*
X70740038Y-43901581D01*
X70787657Y-43806343D01*
X70882895Y-43758724D01*
X71120991Y-43758724D01*
X71216229Y-43711105D01*
X71692419Y-44139676D02*
X71692419Y-43473009D01*
X71692419Y-43663485D02*
X71740038Y-43568247D01*
X71787657Y-43520628D01*
X71882895Y-43473009D01*
X71978134Y-43473009D01*
X72740039Y-44139676D02*
X72740039Y-43139676D01*
X72740039Y-44092057D02*
X72644801Y-44139676D01*
X72454324Y-44139676D01*
X72359086Y-44092057D01*
X72311467Y-44044438D01*
X72263848Y-43949200D01*
X72263848Y-43663485D01*
X72311467Y-43568247D01*
X72359086Y-43520628D01*
X72454324Y-43473009D01*
X72644801Y-43473009D01*
X72740039Y-43520628D01*
X73978134Y-44139676D02*
X73978134Y-43139676D01*
X74311468Y-43853962D01*
X74644801Y-43139676D01*
X74644801Y-44139676D01*
X75263848Y-44139676D02*
X75168610Y-44092057D01*
X75120991Y-44044438D01*
X75073372Y-43949200D01*
X75073372Y-43663485D01*
X75120991Y-43568247D01*
X75168610Y-43520628D01*
X75263848Y-43473009D01*
X75406706Y-43473009D01*
X75501944Y-43520628D01*
X75549563Y-43568247D01*
X75597182Y-43663485D01*
X75597182Y-43949200D01*
X75549563Y-44044438D01*
X75501944Y-44092057D01*
X75406706Y-44139676D01*
X75263848Y-44139676D01*
X76454325Y-43473009D02*
X76454325Y-44139676D01*
X76025753Y-43473009D02*
X76025753Y-43996819D01*
X76073372Y-44092057D01*
X76168610Y-44139676D01*
X76311468Y-44139676D01*
X76406706Y-44092057D01*
X76454325Y-44044438D01*
X76930515Y-43473009D02*
X76930515Y-44139676D01*
X76930515Y-43568247D02*
X76978134Y-43520628D01*
X77073372Y-43473009D01*
X77216230Y-43473009D01*
X77311468Y-43520628D01*
X77359087Y-43615866D01*
X77359087Y-44139676D01*
X77692420Y-43473009D02*
X78073372Y-43473009D01*
X77835277Y-43139676D02*
X77835277Y-43996819D01*
X77882896Y-44092057D01*
X77978134Y-44139676D01*
X78073372Y-44139676D01*
X201351847Y-47695676D02*
X201351847Y-46695676D01*
X201732800Y-46695676D01*
X201828038Y-46743295D01*
X201875657Y-46790914D01*
X201923276Y-46886152D01*
X201923276Y-47029009D01*
X201875657Y-47124247D01*
X201828038Y-47171866D01*
X201732800Y-47219485D01*
X201351847Y-47219485D01*
X202351847Y-47695676D02*
X202351847Y-46695676D01*
X202780419Y-47695676D02*
X202780419Y-47171866D01*
X202732800Y-47076628D01*
X202637562Y-47029009D01*
X202494704Y-47029009D01*
X202399466Y-47076628D01*
X202351847Y-47124247D01*
X203399466Y-47695676D02*
X203304228Y-47648057D01*
X203256609Y-47600438D01*
X203208990Y-47505200D01*
X203208990Y-47219485D01*
X203256609Y-47124247D01*
X203304228Y-47076628D01*
X203399466Y-47029009D01*
X203542324Y-47029009D01*
X203637562Y-47076628D01*
X203685181Y-47124247D01*
X203732800Y-47219485D01*
X203732800Y-47505200D01*
X203685181Y-47600438D01*
X203637562Y-47648057D01*
X203542324Y-47695676D01*
X203399466Y-47695676D01*
X204161371Y-47029009D02*
X204161371Y-47695676D01*
X204161371Y-47124247D02*
X204208990Y-47076628D01*
X204304228Y-47029009D01*
X204447086Y-47029009D01*
X204542324Y-47076628D01*
X204589943Y-47171866D01*
X204589943Y-47695676D01*
X205447086Y-47648057D02*
X205351848Y-47695676D01*
X205161371Y-47695676D01*
X205066133Y-47648057D01*
X205018514Y-47552819D01*
X205018514Y-47171866D01*
X205066133Y-47076628D01*
X205161371Y-47029009D01*
X205351848Y-47029009D01*
X205447086Y-47076628D01*
X205494705Y-47171866D01*
X205494705Y-47267105D01*
X205018514Y-47362343D01*
X206685181Y-47695676D02*
X206685181Y-46695676D01*
X207018515Y-47409962D01*
X207351848Y-46695676D01*
X207351848Y-47695676D01*
X207970895Y-47695676D02*
X207875657Y-47648057D01*
X207828038Y-47600438D01*
X207780419Y-47505200D01*
X207780419Y-47219485D01*
X207828038Y-47124247D01*
X207875657Y-47076628D01*
X207970895Y-47029009D01*
X208113753Y-47029009D01*
X208208991Y-47076628D01*
X208256610Y-47124247D01*
X208304229Y-47219485D01*
X208304229Y-47505200D01*
X208256610Y-47600438D01*
X208208991Y-47648057D01*
X208113753Y-47695676D01*
X207970895Y-47695676D01*
X209161372Y-47029009D02*
X209161372Y-47695676D01*
X208732800Y-47029009D02*
X208732800Y-47552819D01*
X208780419Y-47648057D01*
X208875657Y-47695676D01*
X209018515Y-47695676D01*
X209113753Y-47648057D01*
X209161372Y-47600438D01*
X209637562Y-47029009D02*
X209637562Y-47695676D01*
X209637562Y-47124247D02*
X209685181Y-47076628D01*
X209780419Y-47029009D01*
X209923277Y-47029009D01*
X210018515Y-47076628D01*
X210066134Y-47171866D01*
X210066134Y-47695676D01*
X210399467Y-47029009D02*
X210780419Y-47029009D01*
X210542324Y-46695676D02*
X210542324Y-47552819D01*
X210589943Y-47648057D01*
X210685181Y-47695676D01*
X210780419Y-47695676D01*
X150551847Y-47695676D02*
X150551847Y-46695676D01*
X150932800Y-46695676D01*
X151028038Y-46743295D01*
X151075657Y-46790914D01*
X151123276Y-46886152D01*
X151123276Y-47029009D01*
X151075657Y-47124247D01*
X151028038Y-47171866D01*
X150932800Y-47219485D01*
X150551847Y-47219485D01*
X151551847Y-47695676D02*
X151551847Y-46695676D01*
X151980419Y-47695676D02*
X151980419Y-47171866D01*
X151932800Y-47076628D01*
X151837562Y-47029009D01*
X151694704Y-47029009D01*
X151599466Y-47076628D01*
X151551847Y-47124247D01*
X152599466Y-47695676D02*
X152504228Y-47648057D01*
X152456609Y-47600438D01*
X152408990Y-47505200D01*
X152408990Y-47219485D01*
X152456609Y-47124247D01*
X152504228Y-47076628D01*
X152599466Y-47029009D01*
X152742324Y-47029009D01*
X152837562Y-47076628D01*
X152885181Y-47124247D01*
X152932800Y-47219485D01*
X152932800Y-47505200D01*
X152885181Y-47600438D01*
X152837562Y-47648057D01*
X152742324Y-47695676D01*
X152599466Y-47695676D01*
X153361371Y-47029009D02*
X153361371Y-47695676D01*
X153361371Y-47124247D02*
X153408990Y-47076628D01*
X153504228Y-47029009D01*
X153647086Y-47029009D01*
X153742324Y-47076628D01*
X153789943Y-47171866D01*
X153789943Y-47695676D01*
X154647086Y-47648057D02*
X154551848Y-47695676D01*
X154361371Y-47695676D01*
X154266133Y-47648057D01*
X154218514Y-47552819D01*
X154218514Y-47171866D01*
X154266133Y-47076628D01*
X154361371Y-47029009D01*
X154551848Y-47029009D01*
X154647086Y-47076628D01*
X154694705Y-47171866D01*
X154694705Y-47267105D01*
X154218514Y-47362343D01*
X155885181Y-47695676D02*
X155885181Y-46695676D01*
X156218515Y-47409962D01*
X156551848Y-46695676D01*
X156551848Y-47695676D01*
X157170895Y-47695676D02*
X157075657Y-47648057D01*
X157028038Y-47600438D01*
X156980419Y-47505200D01*
X156980419Y-47219485D01*
X157028038Y-47124247D01*
X157075657Y-47076628D01*
X157170895Y-47029009D01*
X157313753Y-47029009D01*
X157408991Y-47076628D01*
X157456610Y-47124247D01*
X157504229Y-47219485D01*
X157504229Y-47505200D01*
X157456610Y-47600438D01*
X157408991Y-47648057D01*
X157313753Y-47695676D01*
X157170895Y-47695676D01*
X158361372Y-47029009D02*
X158361372Y-47695676D01*
X157932800Y-47029009D02*
X157932800Y-47552819D01*
X157980419Y-47648057D01*
X158075657Y-47695676D01*
X158218515Y-47695676D01*
X158313753Y-47648057D01*
X158361372Y-47600438D01*
X158837562Y-47029009D02*
X158837562Y-47695676D01*
X158837562Y-47124247D02*
X158885181Y-47076628D01*
X158980419Y-47029009D01*
X159123277Y-47029009D01*
X159218515Y-47076628D01*
X159266134Y-47171866D01*
X159266134Y-47695676D01*
X159599467Y-47029009D02*
X159980419Y-47029009D01*
X159742324Y-46695676D02*
X159742324Y-47552819D01*
X159789943Y-47648057D01*
X159885181Y-47695676D01*
X159980419Y-47695676D01*
X201605142Y-115133381D02*
X201605142Y-114133381D01*
X201986095Y-114133381D01*
X202081333Y-114181000D01*
X202128952Y-114228619D01*
X202176571Y-114323857D01*
X202176571Y-114466714D01*
X202128952Y-114561952D01*
X202081333Y-114609571D01*
X201986095Y-114657190D01*
X201605142Y-114657190D01*
X202605142Y-115133381D02*
X202605142Y-114133381D01*
X203033714Y-115133381D02*
X203033714Y-114609571D01*
X202986095Y-114514333D01*
X202890857Y-114466714D01*
X202747999Y-114466714D01*
X202652761Y-114514333D01*
X202605142Y-114561952D01*
X203652761Y-115133381D02*
X203557523Y-115085762D01*
X203509904Y-115038143D01*
X203462285Y-114942905D01*
X203462285Y-114657190D01*
X203509904Y-114561952D01*
X203557523Y-114514333D01*
X203652761Y-114466714D01*
X203795619Y-114466714D01*
X203890857Y-114514333D01*
X203938476Y-114561952D01*
X203986095Y-114657190D01*
X203986095Y-114942905D01*
X203938476Y-115038143D01*
X203890857Y-115085762D01*
X203795619Y-115133381D01*
X203652761Y-115133381D01*
X204414666Y-114466714D02*
X204414666Y-115133381D01*
X204414666Y-114561952D02*
X204462285Y-114514333D01*
X204557523Y-114466714D01*
X204700381Y-114466714D01*
X204795619Y-114514333D01*
X204843238Y-114609571D01*
X204843238Y-115133381D01*
X205700381Y-115085762D02*
X205605143Y-115133381D01*
X205414666Y-115133381D01*
X205319428Y-115085762D01*
X205271809Y-114990524D01*
X205271809Y-114609571D01*
X205319428Y-114514333D01*
X205414666Y-114466714D01*
X205605143Y-114466714D01*
X205700381Y-114514333D01*
X205748000Y-114609571D01*
X205748000Y-114704810D01*
X205271809Y-114800048D01*
X206938476Y-115133381D02*
X206938476Y-114133381D01*
X207271810Y-114847667D01*
X207605143Y-114133381D01*
X207605143Y-115133381D01*
X208224190Y-115133381D02*
X208128952Y-115085762D01*
X208081333Y-115038143D01*
X208033714Y-114942905D01*
X208033714Y-114657190D01*
X208081333Y-114561952D01*
X208128952Y-114514333D01*
X208224190Y-114466714D01*
X208367048Y-114466714D01*
X208462286Y-114514333D01*
X208509905Y-114561952D01*
X208557524Y-114657190D01*
X208557524Y-114942905D01*
X208509905Y-115038143D01*
X208462286Y-115085762D01*
X208367048Y-115133381D01*
X208224190Y-115133381D01*
X209414667Y-114466714D02*
X209414667Y-115133381D01*
X208986095Y-114466714D02*
X208986095Y-114990524D01*
X209033714Y-115085762D01*
X209128952Y-115133381D01*
X209271810Y-115133381D01*
X209367048Y-115085762D01*
X209414667Y-115038143D01*
X209890857Y-114466714D02*
X209890857Y-115133381D01*
X209890857Y-114561952D02*
X209938476Y-114514333D01*
X210033714Y-114466714D01*
X210176572Y-114466714D01*
X210271810Y-114514333D01*
X210319429Y-114609571D01*
X210319429Y-115133381D01*
X210652762Y-114466714D02*
X211033714Y-114466714D01*
X210795619Y-114133381D02*
X210795619Y-114990524D01*
X210843238Y-115085762D01*
X210938476Y-115133381D01*
X211033714Y-115133381D01*
X150805142Y-115133381D02*
X150805142Y-114133381D01*
X151186095Y-114133381D01*
X151281333Y-114181000D01*
X151328952Y-114228619D01*
X151376571Y-114323857D01*
X151376571Y-114466714D01*
X151328952Y-114561952D01*
X151281333Y-114609571D01*
X151186095Y-114657190D01*
X150805142Y-114657190D01*
X151805142Y-115133381D02*
X151805142Y-114133381D01*
X152233714Y-115133381D02*
X152233714Y-114609571D01*
X152186095Y-114514333D01*
X152090857Y-114466714D01*
X151947999Y-114466714D01*
X151852761Y-114514333D01*
X151805142Y-114561952D01*
X152852761Y-115133381D02*
X152757523Y-115085762D01*
X152709904Y-115038143D01*
X152662285Y-114942905D01*
X152662285Y-114657190D01*
X152709904Y-114561952D01*
X152757523Y-114514333D01*
X152852761Y-114466714D01*
X152995619Y-114466714D01*
X153090857Y-114514333D01*
X153138476Y-114561952D01*
X153186095Y-114657190D01*
X153186095Y-114942905D01*
X153138476Y-115038143D01*
X153090857Y-115085762D01*
X152995619Y-115133381D01*
X152852761Y-115133381D01*
X153614666Y-114466714D02*
X153614666Y-115133381D01*
X153614666Y-114561952D02*
X153662285Y-114514333D01*
X153757523Y-114466714D01*
X153900381Y-114466714D01*
X153995619Y-114514333D01*
X154043238Y-114609571D01*
X154043238Y-115133381D01*
X154900381Y-115085762D02*
X154805143Y-115133381D01*
X154614666Y-115133381D01*
X154519428Y-115085762D01*
X154471809Y-114990524D01*
X154471809Y-114609571D01*
X154519428Y-114514333D01*
X154614666Y-114466714D01*
X154805143Y-114466714D01*
X154900381Y-114514333D01*
X154948000Y-114609571D01*
X154948000Y-114704810D01*
X154471809Y-114800048D01*
X156138476Y-115133381D02*
X156138476Y-114133381D01*
X156471810Y-114847667D01*
X156805143Y-114133381D01*
X156805143Y-115133381D01*
X157424190Y-115133381D02*
X157328952Y-115085762D01*
X157281333Y-115038143D01*
X157233714Y-114942905D01*
X157233714Y-114657190D01*
X157281333Y-114561952D01*
X157328952Y-114514333D01*
X157424190Y-114466714D01*
X157567048Y-114466714D01*
X157662286Y-114514333D01*
X157709905Y-114561952D01*
X157757524Y-114657190D01*
X157757524Y-114942905D01*
X157709905Y-115038143D01*
X157662286Y-115085762D01*
X157567048Y-115133381D01*
X157424190Y-115133381D01*
X158614667Y-114466714D02*
X158614667Y-115133381D01*
X158186095Y-114466714D02*
X158186095Y-114990524D01*
X158233714Y-115085762D01*
X158328952Y-115133381D01*
X158471810Y-115133381D01*
X158567048Y-115085762D01*
X158614667Y-115038143D01*
X159090857Y-114466714D02*
X159090857Y-115133381D01*
X159090857Y-114561952D02*
X159138476Y-114514333D01*
X159233714Y-114466714D01*
X159376572Y-114466714D01*
X159471810Y-114514333D01*
X159519429Y-114609571D01*
X159519429Y-115133381D01*
X159852762Y-114466714D02*
X160233714Y-114466714D01*
X159995619Y-114133381D02*
X159995619Y-114990524D01*
X160043238Y-115085762D01*
X160138476Y-115133381D01*
X160233714Y-115133381D01*
X94099848Y-46171676D02*
X93766514Y-45695485D01*
X93528419Y-46171676D02*
X93528419Y-45171676D01*
X93909372Y-45171676D01*
X94004610Y-45219295D01*
X94052229Y-45266914D01*
X94099848Y-45362152D01*
X94099848Y-45505009D01*
X94052229Y-45600247D01*
X94004610Y-45647866D01*
X93909372Y-45695485D01*
X93528419Y-45695485D01*
X94956991Y-45171676D02*
X94766514Y-45171676D01*
X94671276Y-45219295D01*
X94623657Y-45266914D01*
X94528419Y-45409771D01*
X94480800Y-45600247D01*
X94480800Y-45981200D01*
X94528419Y-46076438D01*
X94576038Y-46124057D01*
X94671276Y-46171676D01*
X94861753Y-46171676D01*
X94956991Y-46124057D01*
X95004610Y-46076438D01*
X95052229Y-45981200D01*
X95052229Y-45743105D01*
X95004610Y-45647866D01*
X94956991Y-45600247D01*
X94861753Y-45552628D01*
X94671276Y-45552628D01*
X94576038Y-45600247D01*
X94528419Y-45647866D01*
X94480800Y-45743105D01*
X95956991Y-45171676D02*
X95480800Y-45171676D01*
X95433181Y-45647866D01*
X95480800Y-45600247D01*
X95576038Y-45552628D01*
X95814134Y-45552628D01*
X95909372Y-45600247D01*
X95956991Y-45647866D01*
X96004610Y-45743105D01*
X96004610Y-45981200D01*
X95956991Y-46076438D01*
X95909372Y-46124057D01*
X95814134Y-46171676D01*
X95576038Y-46171676D01*
X95480800Y-46124057D01*
X95433181Y-46076438D01*
X90035848Y-42107676D02*
X89702514Y-41631485D01*
X89464419Y-42107676D02*
X89464419Y-41107676D01*
X89845372Y-41107676D01*
X89940610Y-41155295D01*
X89988229Y-41202914D01*
X90035848Y-41298152D01*
X90035848Y-41441009D01*
X89988229Y-41536247D01*
X89940610Y-41583866D01*
X89845372Y-41631485D01*
X89464419Y-41631485D01*
X90892991Y-41107676D02*
X90702514Y-41107676D01*
X90607276Y-41155295D01*
X90559657Y-41202914D01*
X90464419Y-41345771D01*
X90416800Y-41536247D01*
X90416800Y-41917200D01*
X90464419Y-42012438D01*
X90512038Y-42060057D01*
X90607276Y-42107676D01*
X90797753Y-42107676D01*
X90892991Y-42060057D01*
X90940610Y-42012438D01*
X90988229Y-41917200D01*
X90988229Y-41679105D01*
X90940610Y-41583866D01*
X90892991Y-41536247D01*
X90797753Y-41488628D01*
X90607276Y-41488628D01*
X90512038Y-41536247D01*
X90464419Y-41583866D01*
X90416800Y-41679105D01*
X91845372Y-41107676D02*
X91654895Y-41107676D01*
X91559657Y-41155295D01*
X91512038Y-41202914D01*
X91416800Y-41345771D01*
X91369181Y-41536247D01*
X91369181Y-41917200D01*
X91416800Y-42012438D01*
X91464419Y-42060057D01*
X91559657Y-42107676D01*
X91750134Y-42107676D01*
X91845372Y-42060057D01*
X91892991Y-42012438D01*
X91940610Y-41917200D01*
X91940610Y-41679105D01*
X91892991Y-41583866D01*
X91845372Y-41536247D01*
X91750134Y-41488628D01*
X91559657Y-41488628D01*
X91464419Y-41536247D01*
X91416800Y-41583866D01*
X91369181Y-41679105D01*
X175027372Y-121665676D02*
X175027372Y-122379962D01*
X174979752Y-122522819D01*
X174884514Y-122618057D01*
X174741657Y-122665676D01*
X174646419Y-122665676D01*
X175408324Y-121665676D02*
X176027372Y-121665676D01*
X175694038Y-122046628D01*
X175836896Y-122046628D01*
X175932134Y-122094247D01*
X175979753Y-122141866D01*
X176027372Y-122237105D01*
X176027372Y-122475200D01*
X175979753Y-122570438D01*
X175932134Y-122618057D01*
X175836896Y-122665676D01*
X175551181Y-122665676D01*
X175455943Y-122618057D01*
X175408324Y-122570438D01*
X175027372Y-112267676D02*
X175027372Y-112981962D01*
X174979752Y-113124819D01*
X174884514Y-113220057D01*
X174741657Y-113267676D01*
X174646419Y-113267676D01*
X175932134Y-112601009D02*
X175932134Y-113267676D01*
X175694038Y-112220057D02*
X175455943Y-112934343D01*
X176074991Y-112934343D01*
M02*
