M48
;DRILL file {kicad (after 2015-mar-04 BZR unknown)-product} date Wed 13 May 2015 01:09:39 AM EDT
;FORMAT={2:4/ absolute / inch / suppress leading zeros}
FMAT,2
INCH,TZ
T1C0.016
T2C0.030
T3C0.031
T4C0.039
T5C0.040
T6C0.051
T7C0.071
T8C0.079
T9C0.091
T10C0.106
T11C0.236
%
G90
G05
M72
T1
X30625Y-17325
X31200Y-26100
X31660Y-16840
X31700Y-19500
X31980Y-18440
X32020Y-22340
X32100Y-24400
X32200Y-21920
X32240Y-23120
X32300Y-15425
X32840Y-18700
X33320Y-19300
X33400Y-15500
X33580Y-16840
X33600Y-16025
X33640Y-19620
X34150Y-23300
X34240Y-16200
X34440Y-14680
X34775Y-13350
X35150Y-19050
X35250Y-13075
X35420Y-25700
X36000Y-25200
X36240Y-23800
X36560Y-25160
X36650Y-14950
X36900Y-27500
X37050Y-23750
X37825Y-15175
X38000Y-18425
X39050Y-33900
X39100Y-37400
X39100Y-48200
X39275Y-39200
X39325Y-48675
X39400Y-32300
X39500Y-42800
X39500Y-44600
X39675Y-14725
X39725Y-37625
X39760Y-21740
X39825Y-43200
X39900Y-32400
X40350Y-26000
X40650Y-19900
X40850Y-30900
X40900Y-29325
X41000Y-47200
X41675Y-41600
X41775Y-22125
X41875Y-13075
X41975Y-35875
X42025Y-14325
X43550Y-21725
X43650Y-28350
X44082Y-21369
X45650Y-21625
X47300Y-19425
X47325Y-21625
X47550Y-17850
X47700Y-29700
X47750Y-26100
X48000Y-34350
X48550Y-29475
X49475Y-30425
X49800Y-31850
X50540Y-17760
X50800Y-32700
X53050Y-24450
X53075Y-23425
X54800Y-18200
X56425Y-13525
X56900Y-13250
X66940Y-14680
X67300Y-15200
X70700Y-17600
X71775Y-16375
X76850Y-16450
X77100Y-14775
T2
X64717Y-24173
X64717Y-24960
X64717Y-25747
X64717Y-26535
X64717Y-27322
X64717Y-28110
X64717Y-28897
X64717Y-29684
X64717Y-30472
X64717Y-31259
X64717Y-32047
X64717Y-32834
X64717Y-33621
X64717Y-34409
X64717Y-35196
X64717Y-35984
X64717Y-36771
X64717Y-37558
X64717Y-38346
X64717Y-39133
X65504Y-24173
X65504Y-24960
X65504Y-25747
X65504Y-26535
X65504Y-27322
X65504Y-28110
X65504Y-28897
X65504Y-29684
X65504Y-30472
X65504Y-31259
X65504Y-32047
X65504Y-32834
X65504Y-33621
X65504Y-34409
X65504Y-35196
X65504Y-35984
X65504Y-36771
X65504Y-37558
X65504Y-38346
X65504Y-39133
X66292Y-24173
X66292Y-24960
X66292Y-25747
X66292Y-26535
X66292Y-27322
X66292Y-28110
X66292Y-28897
X66292Y-29684
X66292Y-30472
X66292Y-31259
X66292Y-32047
X66292Y-32834
X66292Y-33621
X66292Y-34409
X66292Y-35196
X66292Y-35984
X66292Y-36771
X66292Y-37558
X66292Y-38346
X66292Y-39133
X67079Y-24173
X67079Y-24960
X67079Y-25747
X67079Y-26535
X67079Y-27322
X67079Y-28110
X67079Y-28897
X67079Y-29684
X67079Y-30472
X67079Y-31259
X67079Y-32047
X67079Y-32834
X67079Y-33621
X67079Y-34409
X67079Y-35196
X67079Y-35984
X67079Y-36771
X67079Y-37558
X67079Y-38346
X67079Y-39133
X67866Y-24173
X67866Y-24960
X67866Y-25747
X67866Y-26535
X67866Y-27322
X67866Y-28110
X67866Y-28897
X67866Y-29684
X67866Y-30472
X67866Y-31259
X67866Y-32047
X67866Y-32834
X67866Y-33621
X67866Y-34409
X67866Y-35196
X67866Y-35984
X67866Y-36771
X67866Y-37558
X67866Y-38346
X67866Y-39133
X68654Y-24173
X68654Y-24960
X68654Y-25747
X68654Y-26535
X68654Y-27322
X68654Y-28110
X68654Y-28897
X68654Y-29684
X68654Y-30472
X68654Y-31259
X68654Y-32047
X68654Y-32834
X68654Y-33621
X68654Y-34409
X68654Y-35196
X68654Y-35984
X68654Y-36771
X68654Y-37558
X68654Y-38346
X68654Y-39133
X69441Y-24173
X69441Y-24960
X69441Y-25747
X69441Y-26535
X69441Y-27322
X69441Y-28110
X69441Y-28897
X69441Y-29684
X69441Y-30472
X69441Y-31259
X69441Y-32047
X69441Y-32834
X69441Y-33621
X69441Y-34409
X69441Y-35196
X69441Y-35984
X69441Y-36771
X69441Y-37558
X69441Y-38346
X69441Y-39133
X70229Y-24173
X70229Y-24960
X70229Y-25747
X70229Y-26535
X70229Y-27322
X70229Y-28110
X70229Y-28897
X70229Y-29684
X70229Y-30472
X70229Y-31259
X70229Y-32047
X70229Y-32834
X70229Y-33621
X70229Y-34409
X70229Y-35196
X70229Y-35984
X70229Y-36771
X70229Y-37558
X70229Y-38346
X70229Y-39133
X71016Y-24173
X71016Y-24960
X71016Y-25747
X71016Y-26535
X71016Y-27322
X71016Y-28110
X71016Y-28897
X71016Y-29684
X71016Y-30472
X71016Y-31259
X71016Y-32047
X71016Y-32834
X71016Y-33621
X71016Y-34409
X71016Y-35196
X71016Y-35984
X71016Y-36771
X71016Y-37558
X71016Y-38346
X71016Y-39133
X71803Y-24173
X71803Y-24960
X71803Y-25747
X71803Y-26535
X71803Y-27322
X71803Y-28110
X71803Y-28897
X71803Y-29684
X71803Y-30472
X71803Y-31259
X71803Y-32047
X71803Y-32834
X71803Y-33621
X71803Y-34409
X71803Y-35196
X71803Y-35984
X71803Y-36771
X71803Y-37558
X71803Y-38346
X71803Y-39133
X72591Y-24173
X72591Y-24960
X72591Y-25747
X72591Y-26535
X72591Y-27322
X72591Y-28110
X72591Y-28897
X72591Y-29684
X72591Y-30472
X72591Y-31259
X72591Y-32047
X72591Y-32834
X72591Y-33621
X72591Y-34409
X72591Y-35196
X72591Y-35984
X72591Y-36771
X72591Y-37558
X72591Y-38346
X72591Y-39133
X73378Y-24173
X73378Y-24960
X73378Y-25747
X73378Y-26535
X73378Y-27322
X73378Y-28110
X73378Y-28897
X73378Y-29684
X73378Y-30472
X73378Y-31259
X73378Y-32047
X73378Y-32834
X73378Y-33621
X73378Y-34409
X73378Y-35196
X73378Y-35984
X73378Y-36771
X73378Y-37558
X73378Y-38346
X73378Y-39133
X74166Y-24173
X74166Y-24960
X74166Y-25747
X74166Y-26535
X74166Y-27322
X74166Y-28110
X74166Y-28897
X74166Y-29684
X74166Y-30472
X74166Y-31259
X74166Y-32047
X74166Y-32834
X74166Y-33621
X74166Y-34409
X74166Y-35196
X74166Y-35984
X74166Y-36771
X74166Y-37558
X74166Y-38346
X74166Y-39133
X74953Y-24173
X74953Y-24960
X74953Y-25747
X74953Y-26535
X74953Y-27322
X74953Y-28110
X74953Y-28897
X74953Y-29684
X74953Y-30472
X74953Y-31259
X74953Y-32047
X74953Y-32834
X74953Y-33621
X74953Y-34409
X74953Y-35196
X74953Y-35984
X74953Y-36771
X74953Y-37558
X74953Y-38346
X74953Y-39133
X75740Y-24173
X75740Y-24960
X75740Y-25747
X75740Y-26535
X75740Y-27322
X75740Y-28110
X75740Y-28897
X75740Y-29684
X75740Y-30472
X75740Y-31259
X75740Y-32047
X75740Y-32834
X75740Y-33621
X75740Y-34409
X75740Y-35196
X75740Y-35984
X75740Y-36771
X75740Y-37558
X75740Y-38346
X75740Y-39133
X76528Y-24173
X76528Y-24960
X76528Y-25747
X76528Y-26535
X76528Y-27322
X76528Y-28110
X76528Y-28897
X76528Y-29684
X76528Y-30472
X76528Y-31259
X76528Y-32047
X76528Y-32834
X76528Y-33621
X76528Y-34409
X76528Y-35196
X76528Y-35984
X76528Y-36771
X76528Y-37558
X76528Y-38346
X76528Y-39133
X77315Y-24173
X77315Y-24960
X77315Y-25747
X77315Y-26535
X77315Y-27322
X77315Y-28110
X77315Y-28897
X77315Y-29684
X77315Y-30472
X77315Y-31259
X77315Y-32047
X77315Y-32834
X77315Y-33621
X77315Y-34409
X77315Y-35196
X77315Y-35984
X77315Y-36771
X77315Y-37558
X77315Y-38346
X77315Y-39133
X78103Y-24173
X78103Y-24960
X78103Y-25747
X78103Y-26535
X78103Y-27322
X78103Y-28110
X78103Y-28897
X78103Y-29684
X78103Y-30472
X78103Y-31259
X78103Y-32047
X78103Y-32834
X78103Y-33621
X78103Y-34409
X78103Y-35196
X78103Y-35984
X78103Y-36771
X78103Y-37558
X78103Y-38346
X78103Y-39133
X78890Y-24173
X78890Y-24960
X78890Y-25747
X78890Y-26535
X78890Y-27322
X78890Y-28110
X78890Y-28897
X78890Y-29684
X78890Y-30472
X78890Y-31259
X78890Y-32047
X78890Y-32834
X78890Y-33621
X78890Y-34409
X78890Y-35196
X78890Y-35984
X78890Y-36771
X78890Y-37558
X78890Y-38346
X78890Y-39133
X79677Y-24173
X79677Y-24960
X79677Y-25747
X79677Y-26535
X79677Y-27322
X79677Y-28110
X79677Y-28897
X79677Y-29684
X79677Y-30472
X79677Y-31259
X79677Y-32047
X79677Y-32834
X79677Y-33621
X79677Y-34409
X79677Y-35196
X79677Y-35984
X79677Y-36771
X79677Y-37558
X79677Y-38346
X79677Y-39133
T3
X44300Y-16800
X45087Y-16800
X46760Y-16810
X47547Y-16810
T4
X27500Y-24500
X27500Y-25500
X27500Y-26300
X27500Y-27300
T5
X36150Y-20450
X36150Y-21450
X37150Y-20450
X37150Y-21450
X38150Y-20450
X38150Y-21450
X42800Y-18300
X42800Y-19300
X49400Y-18200
X49400Y-19200
T6
X29350Y-30700
X29350Y-32700
X29350Y-34700
X29350Y-36700
X29350Y-38700
X29350Y-40700
X29350Y-42700
X29350Y-44700
T7
X67859Y-45852
X67859Y-49552
X70063Y-45852
X70063Y-49552
X71028Y-45065
X71028Y-48765
T8
X62748Y-22598
X62748Y-41102
X81252Y-22598
X81252Y-41102
T9
X28550Y-23300
X28550Y-28700
T10
X29700Y-15800
X29700Y-48300
X92300Y-15800
X92300Y-48300
T11
X61200Y-15800
X61200Y-48300
X81200Y-15800
X81200Y-48300
T0
M30
