G04 #@! TF.FileFunction,Soldermask,Bot*
%FSLAX46Y46*%
G04 Gerber Fmt 4.6, Leading zero omitted, Abs format (unit mm)*
G04 Created by KiCad (PCBNEW (after 2015-mar-04 BZR unknown)-product) date Wed 13 May 2015 01:15:45 AM EDT*
%MOMM*%
G01*
G04 APERTURE LIST*
%ADD10C,0.100000*%
%ADD11R,1.500000X1.500000*%
%ADD12C,1.500000*%
%ADD13C,1.501140*%
%ADD14C,2.999740*%
%ADD15C,2.300000*%
%ADD16R,1.727200X1.727200*%
%ADD17O,1.727200X1.727200*%
%ADD18R,1.524000X1.524000*%
%ADD19C,2.000000*%
%ADD20C,2.500000*%
G04 APERTURE END LIST*
D10*
D11*
X118770400Y-42697400D03*
D12*
X120770400Y-42697400D03*
D11*
X112522000Y-42672000D03*
D12*
X114522000Y-42672000D03*
D13*
X69850705Y-62229295D03*
X69850705Y-64769295D03*
X69850705Y-66801295D03*
X69850705Y-69341295D03*
D14*
X72517705Y-59181295D03*
X72517705Y-72897295D03*
D15*
X74549000Y-77978000D03*
X74549000Y-83058000D03*
X74549000Y-88138000D03*
X74549000Y-93218000D03*
X74549000Y-98298000D03*
X74549000Y-103378000D03*
X74549000Y-108458000D03*
X74549000Y-113538000D03*
D16*
X125476000Y-46228000D03*
D17*
X125476000Y-48768000D03*
D16*
X108712000Y-46482000D03*
D17*
X108712000Y-49022000D03*
D16*
X91821000Y-54483000D03*
D17*
X91821000Y-51943000D03*
X94361000Y-54483000D03*
X94361000Y-51943000D03*
X96901000Y-54483000D03*
X96901000Y-51943000D03*
D18*
X164380705Y-79398295D03*
X166380705Y-79398295D03*
X170380705Y-79398295D03*
X168380705Y-79398295D03*
X176380705Y-79398295D03*
X178380705Y-79398295D03*
X174380705Y-79398295D03*
X172380705Y-79398295D03*
X182380705Y-79398295D03*
X180380705Y-79398295D03*
X200380705Y-79398295D03*
X202380705Y-79398295D03*
X192380705Y-79398295D03*
X194380705Y-79398295D03*
X198380705Y-79398295D03*
X196380705Y-79398295D03*
X188380705Y-79398295D03*
X190380705Y-79398295D03*
X186380705Y-79398295D03*
X184380705Y-79398295D03*
X184380705Y-77398295D03*
X186380705Y-77398295D03*
X190380705Y-77398295D03*
X188380705Y-77398295D03*
X196380705Y-77398295D03*
X198380705Y-77398295D03*
X194380705Y-77398295D03*
X192380705Y-77398295D03*
X202380705Y-77398295D03*
X200380705Y-77398295D03*
X180380705Y-77398295D03*
X182380705Y-77398295D03*
X172380705Y-77398295D03*
X174380705Y-77398295D03*
X178380705Y-77398295D03*
X176380705Y-77398295D03*
X168380705Y-77398295D03*
X170380705Y-77398295D03*
X166380705Y-77398295D03*
X164380705Y-77398295D03*
X164380705Y-73398295D03*
X166380705Y-73398295D03*
X170380705Y-73398295D03*
X168380705Y-73398295D03*
X176380705Y-73398295D03*
X178380705Y-73398295D03*
X174380705Y-73398295D03*
X172380705Y-73398295D03*
X182380705Y-73398295D03*
X180380705Y-73398295D03*
X200380705Y-73398295D03*
X202380705Y-73398295D03*
X192380705Y-73398295D03*
X194380705Y-73398295D03*
X198380705Y-73398295D03*
X196380705Y-73398295D03*
X188380705Y-73398295D03*
X190380705Y-73398295D03*
X186380705Y-73398295D03*
X184380705Y-73398295D03*
X184380705Y-75398295D03*
X186380705Y-75398295D03*
X190380705Y-75398295D03*
X188380705Y-75398295D03*
X196380705Y-75398295D03*
X198380705Y-75398295D03*
X194380705Y-75398295D03*
X192380705Y-75398295D03*
X202380705Y-75398295D03*
X200380705Y-75398295D03*
X180380705Y-75398295D03*
X182380705Y-75398295D03*
X172380705Y-75398295D03*
X174380705Y-75398295D03*
X178380705Y-75398295D03*
X176380705Y-75398295D03*
X168380705Y-75398295D03*
X170380705Y-75398295D03*
X166380705Y-75398295D03*
X164380705Y-75398295D03*
X164380705Y-67398295D03*
X166380705Y-67398295D03*
X170380705Y-67398295D03*
X168380705Y-67398295D03*
X176380705Y-67398295D03*
X178380705Y-67398295D03*
X174380705Y-67398295D03*
X172380705Y-67398295D03*
X182380705Y-67398295D03*
X180380705Y-67398295D03*
X200380705Y-67398295D03*
X202380705Y-67398295D03*
X192380705Y-67398295D03*
X194380705Y-67398295D03*
X198380705Y-67398295D03*
X196380705Y-67398295D03*
X188380705Y-67398295D03*
X190380705Y-67398295D03*
X186380705Y-67398295D03*
X184380705Y-67398295D03*
X184380705Y-65398295D03*
X186380705Y-65398295D03*
X190380705Y-65398295D03*
X188380705Y-65398295D03*
X196380705Y-65398295D03*
X198380705Y-65398295D03*
X194380705Y-65398295D03*
X192380705Y-65398295D03*
X202380705Y-65398295D03*
X200380705Y-65398295D03*
X180380705Y-65398295D03*
X182380705Y-65398295D03*
X172380705Y-65398295D03*
X174380705Y-65398295D03*
X178380705Y-65398295D03*
X176380705Y-65398295D03*
X168380705Y-65398295D03*
X170380705Y-65398295D03*
X166380705Y-65398295D03*
X164380705Y-65398295D03*
X164380705Y-69398295D03*
X166380705Y-69398295D03*
X170380705Y-69398295D03*
X168380705Y-69398295D03*
X176380705Y-69398295D03*
X178380705Y-69398295D03*
X174380705Y-69398295D03*
X172380705Y-69398295D03*
X182380705Y-69398295D03*
X180380705Y-69398295D03*
X200380705Y-69398295D03*
X202380705Y-69398295D03*
X192380705Y-69398295D03*
X194380705Y-69398295D03*
X198380705Y-69398295D03*
X196380705Y-69398295D03*
X188380705Y-69398295D03*
X190380705Y-69398295D03*
X186380705Y-69398295D03*
X184380705Y-69398295D03*
X184380705Y-71398295D03*
X186380705Y-71398295D03*
X190380705Y-71398295D03*
X188380705Y-71398295D03*
X196380705Y-71398295D03*
X198380705Y-71398295D03*
X194380705Y-71398295D03*
X192380705Y-71398295D03*
X202380705Y-71398295D03*
X200380705Y-71398295D03*
X180380705Y-71398295D03*
X182380705Y-71398295D03*
X172380705Y-71398295D03*
X174380705Y-71398295D03*
X178380705Y-71398295D03*
X176380705Y-71398295D03*
X168380705Y-71398295D03*
X170380705Y-71398295D03*
X166380705Y-71398295D03*
X164380705Y-71398295D03*
X164380705Y-61398295D03*
X166380705Y-61398295D03*
X170380705Y-61398295D03*
X168380705Y-61398295D03*
X176380705Y-61398295D03*
X178380705Y-61398295D03*
X174380705Y-61398295D03*
X172380705Y-61398295D03*
X182380705Y-61398295D03*
X180380705Y-61398295D03*
X200380705Y-61398295D03*
X202380705Y-61398295D03*
X192380705Y-61398295D03*
X194380705Y-61398295D03*
X198380705Y-61398295D03*
X196380705Y-61398295D03*
X188380705Y-61398295D03*
X190380705Y-61398295D03*
X186380705Y-61398295D03*
X184380705Y-61398295D03*
X184380705Y-63398295D03*
X186380705Y-63398295D03*
X190380705Y-63398295D03*
X188380705Y-63398295D03*
X196380705Y-63398295D03*
X198380705Y-63398295D03*
X194380705Y-63398295D03*
X192380705Y-63398295D03*
X202380705Y-63398295D03*
X200380705Y-63398295D03*
X180380705Y-63398295D03*
X182380705Y-63398295D03*
X172380705Y-63398295D03*
X174380705Y-63398295D03*
X178380705Y-63398295D03*
X176380705Y-63398295D03*
X168380705Y-63398295D03*
X170380705Y-63398295D03*
X166380705Y-63398295D03*
X164380705Y-63398295D03*
X164380705Y-83398295D03*
X166380705Y-83398295D03*
X170380705Y-83398295D03*
X168380705Y-83398295D03*
X176380705Y-83398295D03*
X178380705Y-83398295D03*
X174380705Y-83398295D03*
X172380705Y-83398295D03*
X182380705Y-83398295D03*
X180380705Y-83398295D03*
X200380705Y-83398295D03*
X202380705Y-83398295D03*
X192380705Y-83398295D03*
X194380705Y-83398295D03*
X198380705Y-83398295D03*
X196380705Y-83398295D03*
X188380705Y-83398295D03*
X190380705Y-83398295D03*
X186380705Y-83398295D03*
X184380705Y-83398295D03*
X184380705Y-81398295D03*
X186380705Y-81398295D03*
X190380705Y-81398295D03*
X188380705Y-81398295D03*
X196380705Y-81398295D03*
X198380705Y-81398295D03*
X194380705Y-81398295D03*
X192380705Y-81398295D03*
X202380705Y-81398295D03*
X200380705Y-81398295D03*
X180380705Y-81398295D03*
X182380705Y-81398295D03*
X172380705Y-81398295D03*
X174380705Y-81398295D03*
X178380705Y-81398295D03*
X176380705Y-81398295D03*
X168380705Y-81398295D03*
X170380705Y-81398295D03*
X166380705Y-81398295D03*
X164380705Y-81398295D03*
X164380705Y-91398295D03*
X166380705Y-91398295D03*
X170380705Y-91398295D03*
X168380705Y-91398295D03*
X176380705Y-91398295D03*
X178380705Y-91398295D03*
X174380705Y-91398295D03*
X172380705Y-91398295D03*
X182380705Y-91398295D03*
X180380705Y-91398295D03*
X200380705Y-91398295D03*
X202380705Y-91398295D03*
X192380705Y-91398295D03*
X194380705Y-91398295D03*
X198380705Y-91398295D03*
X196380705Y-91398295D03*
X188380705Y-91398295D03*
X190380705Y-91398295D03*
X186380705Y-91398295D03*
X184380705Y-91398295D03*
X184380705Y-89398295D03*
X186380705Y-89398295D03*
X190380705Y-89398295D03*
X188380705Y-89398295D03*
X196380705Y-89398295D03*
X198380705Y-89398295D03*
X194380705Y-89398295D03*
X192380705Y-89398295D03*
X202380705Y-89398295D03*
X200380705Y-89398295D03*
X180380705Y-89398295D03*
X182380705Y-89398295D03*
X172380705Y-89398295D03*
X174380705Y-89398295D03*
X178380705Y-89398295D03*
X176380705Y-89398295D03*
X168380705Y-89398295D03*
X170380705Y-89398295D03*
X166380705Y-89398295D03*
X164380705Y-89398295D03*
X164380705Y-85398295D03*
X166380705Y-85398295D03*
X170380705Y-85398295D03*
X168380705Y-85398295D03*
X176380705Y-85398295D03*
X178380705Y-85398295D03*
X174380705Y-85398295D03*
X172380705Y-85398295D03*
X182380705Y-85398295D03*
X180380705Y-85398295D03*
X200380705Y-85398295D03*
X202380705Y-85398295D03*
X192380705Y-85398295D03*
X194380705Y-85398295D03*
X198380705Y-85398295D03*
X196380705Y-85398295D03*
X188380705Y-85398295D03*
X190380705Y-85398295D03*
X186380705Y-85398295D03*
X184380705Y-85398295D03*
X184380705Y-87398295D03*
X186380705Y-87398295D03*
X190380705Y-87398295D03*
X188380705Y-87398295D03*
X196380705Y-87398295D03*
X198380705Y-87398295D03*
X194380705Y-87398295D03*
X192380705Y-87398295D03*
X202380705Y-87398295D03*
X200380705Y-87398295D03*
X180380705Y-87398295D03*
X182380705Y-87398295D03*
X172380705Y-87398295D03*
X174380705Y-87398295D03*
X178380705Y-87398295D03*
X176380705Y-87398295D03*
X168380705Y-87398295D03*
X170380705Y-87398295D03*
X166380705Y-87398295D03*
X164380705Y-87398295D03*
X164380705Y-95398295D03*
X166380705Y-95398295D03*
X170380705Y-95398295D03*
X168380705Y-95398295D03*
X176380705Y-95398295D03*
X178380705Y-95398295D03*
X174380705Y-95398295D03*
X172380705Y-95398295D03*
X182380705Y-95398295D03*
X180380705Y-95398295D03*
X200380705Y-95398295D03*
X202380705Y-95398295D03*
X192380705Y-95398295D03*
X194380705Y-95398295D03*
X198380705Y-95398295D03*
X196380705Y-95398295D03*
X188380705Y-95398295D03*
X190380705Y-95398295D03*
X186380705Y-95398295D03*
X184380705Y-95398295D03*
X184380705Y-93398295D03*
X186380705Y-93398295D03*
X190380705Y-93398295D03*
X188380705Y-93398295D03*
X196380705Y-93398295D03*
X198380705Y-93398295D03*
X194380705Y-93398295D03*
X192380705Y-93398295D03*
X202380705Y-93398295D03*
X200380705Y-93398295D03*
X180380705Y-93398295D03*
X182380705Y-93398295D03*
X172380705Y-93398295D03*
X174380705Y-93398295D03*
X178380705Y-93398295D03*
X176380705Y-93398295D03*
X168380705Y-93398295D03*
X170380705Y-93398295D03*
X166380705Y-93398295D03*
X164380705Y-93398295D03*
X164380705Y-97398295D03*
X166380705Y-97398295D03*
X170380705Y-97398295D03*
X168380705Y-97398295D03*
X176380705Y-97398295D03*
X178380705Y-97398295D03*
X174380705Y-97398295D03*
X172380705Y-97398295D03*
X182380705Y-97398295D03*
X180380705Y-97398295D03*
X200380705Y-97398295D03*
X202380705Y-97398295D03*
X192380705Y-97398295D03*
X194380705Y-97398295D03*
X198380705Y-97398295D03*
X196380705Y-97398295D03*
X188380705Y-97398295D03*
X190380705Y-97398295D03*
X186380705Y-97398295D03*
X184380705Y-97398295D03*
X184380705Y-99398295D03*
X186380705Y-99398295D03*
X190380705Y-99398295D03*
X188380705Y-99398295D03*
X196380705Y-99398295D03*
X198380705Y-99398295D03*
X194380705Y-99398295D03*
X192380705Y-99398295D03*
X202380705Y-99398295D03*
X200380705Y-99398295D03*
X180380705Y-99398295D03*
X182380705Y-99398295D03*
X172380705Y-99398295D03*
X174380705Y-99398295D03*
X178380705Y-99398295D03*
X176380705Y-99398295D03*
X168380705Y-99398295D03*
X170380705Y-99398295D03*
X166380705Y-99398295D03*
D19*
X159380705Y-104398295D03*
X206380705Y-104398295D03*
X159380705Y-57398295D03*
X206380705Y-57398295D03*
D18*
X164380705Y-99398295D03*
D20*
X180410705Y-123863295D03*
X177960705Y-125863295D03*
X172360705Y-125863295D03*
X180410705Y-114465295D03*
X177960705Y-116465295D03*
X172360705Y-116465295D03*
M02*
