<?xml version="1.0" encoding="UTF-8" standalone="no"?>
<!-- Created with Inkscape (http://www.inkscape.org/) -->

<svg
   xmlns:dc="http://purl.org/dc/elements/1.1/"
   xmlns:cc="http://creativecommons.org/ns#"
   xmlns:rdf="http://www.w3.org/1999/02/22-rdf-syntax-ns#"
   xmlns:svg="http://www.w3.org/2000/svg"
   xmlns="http://www.w3.org/2000/svg"
   xmlns:sodipodi="http://sodipodi.sourceforge.net/DTD/sodipodi-0.dtd"
   xmlns:inkscape="http://www.inkscape.org/namespaces/inkscape"
   id="svg3039"
   version="1.1"
   inkscape:version="0.48.4 r9939"
   width="247.5"
   height="360"
   sodipodi:docname="rfcxlogo.svg"
   inkscape:export-filename="/home/jesse/millwooj@mail.gvsu.edu/RFCx/Design/PCB/Kicad Project/rfcxlogo.png"
   inkscape:export-xdpi="90"
   inkscape:export-ydpi="90">
  <metadata
     id="metadata3045">
    <rdf:RDF>
      <cc:Work
         rdf:about="">
        <dc:format>image/svg+xml</dc:format>
        <dc:type
           rdf:resource="http://purl.org/dc/dcmitype/StillImage" />
        <dc:title></dc:title>
      </cc:Work>
    </rdf:RDF>
  </metadata>
  <defs
     id="defs3043" />
  <sodipodi:namedview
     pagecolor="#ffffff"
     bordercolor="#666666"
     borderopacity="1"
     objecttolerance="10"
     gridtolerance="10"
     guidetolerance="10"
     inkscape:pageopacity="0"
     inkscape:pageshadow="2"
     inkscape:window-width="1280"
     inkscape:window-height="998"
     id="namedview3041"
     showgrid="false"
     units="in"
     inkscape:zoom="1.175565"
     inkscape:cx="189.87978"
     inkscape:cy="72.48238"
     inkscape:window-x="1440"
     inkscape:window-y="0"
     inkscape:window-maximized="1"
     inkscape:current-layer="svg3039" />
  <path
     style="fill:#000000"
     d="M 3.0684322,356.31954 C 1.9235562,354.31946 17.379386,336.03871 37.414717,315.39787 91.124038,260.07561 116.23592,219.35394 118.94939,183.19246 l 1.32541,-17.64072 -4.18047,16.04066 c -8.02645,30.80126 -24.424801,56.00229 -59.559245,91.44373 L 23.158868,306.75751 15.434329,290.71686 C 9.2759821,277.91633 7.9258222,270.67604 8.7752585,254.9954 10.280748,227.15426 19.383081,215.27378 68.038511,177.47223 90.595561,159.95152 112.8697,140.23071 117.5366,133.63044 l 8.48525,-11.96049 6.61918,17.68072 c 21.06415,56.3223 15.68244,125.96515 -12.3574,159.96654 -11.26308,13.64056 -33.38822,23.04094 -62.57016,26.56108 -22.120936,2.80012 -25.431968,4.8002 -33.9902,21.56088 -6.150154,12.0405 -16.0591429,16.32067 -20.6548378,8.88037 z M 161.99349,234.91458 c 0,-7.68032 2.54198,-10.88045 13.90502,-17.52072 16.84986,-9.8804 34.66544,-29.08119 44.26511,-47.68195 10.66432,-20.68084 12.03019,-59.28242 2.9482,-83.363401 C 201.86048,30.026208 134.39236,2.025064 80.173779,27.106089 27.772133,51.307077 3.5988094,111.86955 25.29382,164.63171 c 7.071147,17.2007 7.199241,18.64076 2.077657,23.28095 -3.001951,2.80011 -6.50719,4.9202 -7.789417,4.9202 -1.282232,0 -6.222111,-8.28034 -10.9775097,-18.44075 C 1.0078012,158.19144 -0.03646246,152.03119 9.43602e-4,123.87004 0.03806728,95.868898 1.1380129,89.428634 8.6002153,73.427981 53.625975,-23.135964 189.67227,-24.856034 236.6218,70.627866 c 9.63034,19.560799 10.40002,23.520961 10.40002,53.282174 0,34.48141 -4.53528,49.44202 -23.11294,76.36312 -9.42679,13.64056 -32.95686,32.00131 -50.3388,39.28161 l -11.57659,4.84019 0,-9.36038 z m 0,-40.80167 c 0,-5.08021 4.77833,-13.76056 12.26972,-22.24091 13.01565,-14.8006 19.81645,-32.04131 19.81645,-50.24205 0,-17.1607 -15.43891,-44.321811 -31.56041,-55.522268 -12.53718,-8.680355 -16.36786,-9.640394 -38.73772,-9.640394 -21.66064,0 -26.510292,1.200049 -38.049632,8.760358 -26.04604,17.240704 -38.423349,52.002124 -28.685332,80.603294 4.677479,13.72056 4.602364,14.7206 -1.505581,20.24083 -6.211882,5.64023 -6.576477,5.64023 -10.811906,0 -6.697732,-9.16038 -11.862876,-39.1216 -9.345252,-54.20222 C 47.062431,41.82669 129.40674,11.865466 182.2874,58.427368 c 42.17675,37.121516 39.13007,106.284342 -6.0537,137.445612 -12.63065,8.72036 -14.24022,8.52035 -14.24022,-1.60006 z m -6.0434,-40.44165 c -1.82279,-4.7602 -2.46102,-15.88065 -1.41825,-24.68101 1.74887,-14.7606 1.13528,-16.76068 -7.90886,-25.80105 -7.68287,-7.680317 -12.59699,-9.800404 -22.70712,-9.800404 -18.48571,0 -29.441057,10.240414 -31.625522,29.641214 -0.98772,8.76035 -4.15843,17.2407 -7.624299,20.36083 -5.617342,5.08021 -6.123162,4.8802 -9.496416,-4.00016 -11.327975,-29.40121 14.735954,-65.402676 47.350037,-65.402676 34.454,0 59.18479,31.801296 49.60794,63.762606 -1.94188,6.48026 -5.63054,14.6406 -8.19699,18.12074 -4.55107,6.20025 -4.74814,6.16025 -7.9805,-2.4001 z"
     id="path3049"
     inkscape:connector-curvature="0"
     inkscape:export-xdpi="90"
     inkscape:export-ydpi="90" />
</svg>
