M48
;DRILL file {KiCad (2015-08-13 BZR 6091, Git 3774262)-product} date Mon 14 Sep 2015 01:09:16 PM EDT
;FORMAT={2:4/ absolute / inch / suppress leading zeros}
FMAT,2
INCH,TZ
T1C0.016
T2C0.020
T3C0.024
T4C0.039
T5C0.040
T6C0.047
T7C0.055
T8C0.091
T9C0.106
%
G90
G05
M72
T1
X40304Y-43050
X40650Y-44150
X40985Y-33925
X41300Y-42350
X42278Y-42650
X43250Y-41050
X44000Y-26250
X44050Y-22350
X44075Y-30300
X44280Y-44270
X44450Y-43350
X44500Y-38900
X44500Y-40700
X44700Y-31225
X44887Y-25463
X45750Y-39750
X45787Y-23913
X45900Y-28350
X46205Y-24147
X46237Y-28063
X46387Y-26013
X46387Y-26592
X46537Y-24163
X46739Y-26013
X46739Y-26592
X46850Y-24564
X46887Y-24163
X47750Y-40950
X47750Y-44050
X47787Y-25063
X49100Y-23150
X49250Y-19450
X49250Y-20150
X49287Y-24763
X49350Y-27950
X49450Y-40150
X49680Y-33180
X49964Y-45450
X50250Y-40650
X51450Y-43550
X51900Y-27300
X52550Y-28750
X53350Y-39050
X53450Y-29900
X53558Y-27908
X53558Y-28400
X53600Y-26850
X53900Y-30000
X54050Y-27908
X54050Y-28400
X54150Y-21050
X54231Y-29400
X58950Y-28800
X59650Y-36050
X59710Y-38890
X59850Y-29900
X59900Y-26800
X59908Y-27900
X59908Y-28392
X60250Y-30000
X60400Y-27900
X60400Y-28392
X60631Y-29443
X61050Y-30000
X61450Y-35650
X61950Y-31450
X62800Y-37750
X62900Y-38800
X63650Y-30650
X63650Y-33450
X63750Y-35150
X63750Y-36950
X64100Y-30700
X64100Y-33800
X64250Y-34450
X64650Y-26650
X64650Y-31850
X64950Y-24050
X65172Y-35345
X65350Y-28200
X65550Y-34350
X65750Y-29500
X65750Y-33450
X66650Y-24050
X67450Y-33150
X67750Y-32250
X69000Y-28300
X69725Y-24425
X69950Y-22300
X70200Y-29600
X71200Y-30550
T2
X53463Y-25950
X54250Y-25950
X59806Y-25950
X60594Y-25950
T3
X55409Y-31500
X56000Y-31500
X57855Y-33300
X58445Y-33300
T4
X55500Y-41200
X55500Y-42200
X55500Y-43000
X55500Y-44000
T5
X69250Y-34000
X69250Y-35000
X69250Y-36000
X70250Y-34000
X70250Y-35000
X70250Y-36000
T6
X42150Y-35661
X42150Y-37039
T7
X48150Y-40250
X48450Y-31550
X49350Y-42950
T8
X56550Y-40000
X56550Y-45400
T9
X40800Y-18300
X57300Y-18300
X71700Y-18300
X71700Y-45200
T0
M30
