M48
;DRILL file {KiCad (2015-08-13 BZR 6091, Git 3774262)-product} date Mon 31 Aug 2015 09:38:25 AM EDT
;FORMAT={2:4/ absolute / inch / suppress leading zeros}
FMAT,2
INCH,TZ
T1C0.016
T2C0.020
T3C0.024
T4C0.039
T5C0.039
T6C0.040
T7C0.047
T8C0.055
T9C0.059
T10C0.091
T11C0.106
%
G90
G05
M72
T1
X42207Y-40493
X42400Y-42700
X42550Y-37775
X42650Y-33850
X43500Y-31800
X43600Y-32900
X44200Y-40350
X44550Y-31675
X44550Y-36150
X45050Y-39500
X45500Y-41900
X45650Y-39825
X46000Y-24400
X46300Y-42000
X46425Y-32300
X46950Y-38625
X47850Y-25700
X47900Y-37600
X48200Y-30100
X49200Y-43700
X49500Y-38000
X50000Y-40600
X51900Y-40700
X52100Y-45000
X52500Y-29200
X52500Y-42100
X52500Y-45600
X52700Y-37900
X52700Y-39500
X52700Y-45000
X53400Y-27400
X53450Y-30600
X53700Y-30850
X53700Y-44800
X54200Y-30050
X55400Y-31800
X58204Y-28988
X58500Y-36800
X58700Y-38700
X59000Y-37900
X59500Y-27600
X59950Y-32700
X60000Y-30800
X60100Y-32250
X60150Y-30000
X61200Y-31400
X62100Y-32750
X62100Y-33400
X62150Y-34075
X62800Y-39100
X62850Y-32250
X63900Y-33200
X64275Y-35025
X64500Y-29425
X64500Y-36750
X64550Y-31850
X64550Y-33175
X64700Y-34450
X64875Y-29975
X65172Y-31848
X65600Y-29475
X65668Y-41000
X65775Y-30725
X67267Y-39400
X67350Y-28175
X67700Y-33900
X68800Y-31250
X69150Y-23500
X69150Y-24850
X70300Y-36350
T2
X48700Y-39900
X53456Y-26400
X54244Y-26400
X59413Y-26600
X60200Y-26600
T3
X51305Y-32800
X51895Y-32800
X56805Y-32900
X57395Y-32900
T4
X44600Y-43800
X45300Y-44500
X46000Y-43800
X46700Y-44500
T5
X55500Y-41200
X55500Y-42200
X55500Y-43000
X55500Y-44000
T6
X68100Y-37450
X68100Y-38450
X69100Y-37450
X69100Y-38450
X70100Y-37450
X70100Y-38450
T7
X42750Y-35261
X42750Y-36639
T8
X49850Y-26500
X52300Y-42900
T9
X45900Y-27200
T10
X56550Y-40000
X56550Y-45400
T11
X40750Y-22250
X40750Y-45250
X71750Y-22250
X71750Y-45250
T0
M30
