G04 #@! TF.FileFunction,Legend,Bot*
%FSLAX46Y46*%
G04 Gerber Fmt 4.6, Leading zero omitted, Abs format (unit mm)*
G04 Created by KiCad (PCBNEW (2015-08-13 BZR 6091, Git 3774262)-product) date Mon 14 Sep 2015 01:10:19 PM EDT*
%MOMM*%
G01*
G04 APERTURE LIST*
%ADD10C,0.100000*%
%ADD11C,0.250000*%
%ADD12C,0.150000*%
G04 APERTURE END LIST*
D10*
D11*
X178133476Y-110880381D02*
X178466810Y-110404190D01*
X178704905Y-110880381D02*
X178704905Y-109880381D01*
X178323952Y-109880381D01*
X178228714Y-109928000D01*
X178181095Y-109975619D01*
X178133476Y-110070857D01*
X178133476Y-110213714D01*
X178181095Y-110308952D01*
X178228714Y-110356571D01*
X178323952Y-110404190D01*
X178704905Y-110404190D01*
X177276333Y-110880381D02*
X177276333Y-110356571D01*
X177323952Y-110261333D01*
X177419190Y-110213714D01*
X177609667Y-110213714D01*
X177704905Y-110261333D01*
X177276333Y-110832762D02*
X177371571Y-110880381D01*
X177609667Y-110880381D01*
X177704905Y-110832762D01*
X177752524Y-110737524D01*
X177752524Y-110642286D01*
X177704905Y-110547048D01*
X177609667Y-110499429D01*
X177371571Y-110499429D01*
X177276333Y-110451810D01*
X176800143Y-110880381D02*
X176800143Y-110213714D01*
X176800143Y-109880381D02*
X176847762Y-109928000D01*
X176800143Y-109975619D01*
X176752524Y-109928000D01*
X176800143Y-109880381D01*
X176800143Y-109975619D01*
X176323953Y-110213714D02*
X176323953Y-110880381D01*
X176323953Y-110308952D02*
X176276334Y-110261333D01*
X176181096Y-110213714D01*
X176038238Y-110213714D01*
X175943000Y-110261333D01*
X175895381Y-110356571D01*
X175895381Y-110880381D01*
X175562048Y-110213714D02*
X175181096Y-110213714D01*
X175419191Y-110880381D02*
X175419191Y-110023238D01*
X175371572Y-109928000D01*
X175276334Y-109880381D01*
X175181096Y-109880381D01*
X174704905Y-110880381D02*
X174800143Y-110832762D01*
X174847762Y-110785143D01*
X174895381Y-110689905D01*
X174895381Y-110404190D01*
X174847762Y-110308952D01*
X174800143Y-110261333D01*
X174704905Y-110213714D01*
X174562047Y-110213714D01*
X174466809Y-110261333D01*
X174419190Y-110308952D01*
X174371571Y-110404190D01*
X174371571Y-110689905D01*
X174419190Y-110785143D01*
X174466809Y-110832762D01*
X174562047Y-110880381D01*
X174704905Y-110880381D01*
X173943000Y-110880381D02*
X173943000Y-110213714D01*
X173943000Y-110404190D02*
X173895381Y-110308952D01*
X173847762Y-110261333D01*
X173752524Y-110213714D01*
X173657285Y-110213714D01*
X172942999Y-110832762D02*
X173038237Y-110880381D01*
X173228714Y-110880381D01*
X173323952Y-110832762D01*
X173371571Y-110737524D01*
X173371571Y-110356571D01*
X173323952Y-110261333D01*
X173228714Y-110213714D01*
X173038237Y-110213714D01*
X172942999Y-110261333D01*
X172895380Y-110356571D01*
X172895380Y-110451810D01*
X173371571Y-110547048D01*
X172514428Y-110832762D02*
X172419190Y-110880381D01*
X172228714Y-110880381D01*
X172133475Y-110832762D01*
X172085856Y-110737524D01*
X172085856Y-110689905D01*
X172133475Y-110594667D01*
X172228714Y-110547048D01*
X172371571Y-110547048D01*
X172466809Y-110499429D01*
X172514428Y-110404190D01*
X172514428Y-110356571D01*
X172466809Y-110261333D01*
X172371571Y-110213714D01*
X172228714Y-110213714D01*
X172133475Y-110261333D01*
X171800142Y-110213714D02*
X171419190Y-110213714D01*
X171657285Y-109880381D02*
X171657285Y-110737524D01*
X171609666Y-110832762D01*
X171514428Y-110880381D01*
X171419190Y-110880381D01*
X169752522Y-110785143D02*
X169800141Y-110832762D01*
X169942998Y-110880381D01*
X170038236Y-110880381D01*
X170181094Y-110832762D01*
X170276332Y-110737524D01*
X170323951Y-110642286D01*
X170371570Y-110451810D01*
X170371570Y-110308952D01*
X170323951Y-110118476D01*
X170276332Y-110023238D01*
X170181094Y-109928000D01*
X170038236Y-109880381D01*
X169942998Y-109880381D01*
X169800141Y-109928000D01*
X169752522Y-109975619D01*
X169181094Y-110880381D02*
X169276332Y-110832762D01*
X169323951Y-110785143D01*
X169371570Y-110689905D01*
X169371570Y-110404190D01*
X169323951Y-110308952D01*
X169276332Y-110261333D01*
X169181094Y-110213714D01*
X169038236Y-110213714D01*
X168942998Y-110261333D01*
X168895379Y-110308952D01*
X168847760Y-110404190D01*
X168847760Y-110689905D01*
X168895379Y-110785143D01*
X168942998Y-110832762D01*
X169038236Y-110880381D01*
X169181094Y-110880381D01*
X168419189Y-110213714D02*
X168419189Y-110880381D01*
X168419189Y-110308952D02*
X168371570Y-110261333D01*
X168276332Y-110213714D01*
X168133474Y-110213714D01*
X168038236Y-110261333D01*
X167990617Y-110356571D01*
X167990617Y-110880381D01*
X167514427Y-110213714D02*
X167514427Y-110880381D01*
X167514427Y-110308952D02*
X167466808Y-110261333D01*
X167371570Y-110213714D01*
X167228712Y-110213714D01*
X167133474Y-110261333D01*
X167085855Y-110356571D01*
X167085855Y-110880381D01*
X166228712Y-110832762D02*
X166323950Y-110880381D01*
X166514427Y-110880381D01*
X166609665Y-110832762D01*
X166657284Y-110737524D01*
X166657284Y-110356571D01*
X166609665Y-110261333D01*
X166514427Y-110213714D01*
X166323950Y-110213714D01*
X166228712Y-110261333D01*
X166181093Y-110356571D01*
X166181093Y-110451810D01*
X166657284Y-110547048D01*
X165323950Y-110832762D02*
X165419188Y-110880381D01*
X165609665Y-110880381D01*
X165704903Y-110832762D01*
X165752522Y-110785143D01*
X165800141Y-110689905D01*
X165800141Y-110404190D01*
X165752522Y-110308952D01*
X165704903Y-110261333D01*
X165609665Y-110213714D01*
X165419188Y-110213714D01*
X165323950Y-110261333D01*
X165038236Y-110213714D02*
X164657284Y-110213714D01*
X164895379Y-109880381D02*
X164895379Y-110737524D01*
X164847760Y-110832762D01*
X164752522Y-110880381D01*
X164657284Y-110880381D01*
X164323950Y-110880381D02*
X164323950Y-110213714D01*
X164323950Y-109880381D02*
X164371569Y-109928000D01*
X164323950Y-109975619D01*
X164276331Y-109928000D01*
X164323950Y-109880381D01*
X164323950Y-109975619D01*
X163704903Y-110880381D02*
X163800141Y-110832762D01*
X163847760Y-110785143D01*
X163895379Y-110689905D01*
X163895379Y-110404190D01*
X163847760Y-110308952D01*
X163800141Y-110261333D01*
X163704903Y-110213714D01*
X163562045Y-110213714D01*
X163466807Y-110261333D01*
X163419188Y-110308952D01*
X163371569Y-110404190D01*
X163371569Y-110689905D01*
X163419188Y-110785143D01*
X163466807Y-110832762D01*
X163562045Y-110880381D01*
X163704903Y-110880381D01*
X162942998Y-110213714D02*
X162942998Y-110880381D01*
X162942998Y-110308952D02*
X162895379Y-110261333D01*
X162800141Y-110213714D01*
X162657283Y-110213714D01*
X162562045Y-110261333D01*
X162514426Y-110356571D01*
X162514426Y-110880381D01*
X178704905Y-112530381D02*
X178704905Y-111530381D01*
X178371571Y-112244667D01*
X178038238Y-111530381D01*
X178038238Y-112530381D01*
X177133476Y-112530381D02*
X177133476Y-112006571D01*
X177181095Y-111911333D01*
X177276333Y-111863714D01*
X177466810Y-111863714D01*
X177562048Y-111911333D01*
X177133476Y-112482762D02*
X177228714Y-112530381D01*
X177466810Y-112530381D01*
X177562048Y-112482762D01*
X177609667Y-112387524D01*
X177609667Y-112292286D01*
X177562048Y-112197048D01*
X177466810Y-112149429D01*
X177228714Y-112149429D01*
X177133476Y-112101810D01*
X176657286Y-112530381D02*
X176657286Y-111863714D01*
X176657286Y-111530381D02*
X176704905Y-111578000D01*
X176657286Y-111625619D01*
X176609667Y-111578000D01*
X176657286Y-111530381D01*
X176657286Y-111625619D01*
X176181096Y-111863714D02*
X176181096Y-112530381D01*
X176181096Y-111958952D02*
X176133477Y-111911333D01*
X176038239Y-111863714D01*
X175895381Y-111863714D01*
X175800143Y-111911333D01*
X175752524Y-112006571D01*
X175752524Y-112530381D01*
X175276334Y-112530381D02*
X175276334Y-111530381D01*
X175276334Y-111911333D02*
X175181096Y-111863714D01*
X174990619Y-111863714D01*
X174895381Y-111911333D01*
X174847762Y-111958952D01*
X174800143Y-112054190D01*
X174800143Y-112339905D01*
X174847762Y-112435143D01*
X174895381Y-112482762D01*
X174990619Y-112530381D01*
X175181096Y-112530381D01*
X175276334Y-112482762D01*
X174228715Y-112530381D02*
X174323953Y-112482762D01*
X174371572Y-112435143D01*
X174419191Y-112339905D01*
X174419191Y-112054190D01*
X174371572Y-111958952D01*
X174323953Y-111911333D01*
X174228715Y-111863714D01*
X174085857Y-111863714D01*
X173990619Y-111911333D01*
X173943000Y-111958952D01*
X173895381Y-112054190D01*
X173895381Y-112339905D01*
X173943000Y-112435143D01*
X173990619Y-112482762D01*
X174085857Y-112530381D01*
X174228715Y-112530381D01*
X173038238Y-112530381D02*
X173038238Y-112006571D01*
X173085857Y-111911333D01*
X173181095Y-111863714D01*
X173371572Y-111863714D01*
X173466810Y-111911333D01*
X173038238Y-112482762D02*
X173133476Y-112530381D01*
X173371572Y-112530381D01*
X173466810Y-112482762D01*
X173514429Y-112387524D01*
X173514429Y-112292286D01*
X173466810Y-112197048D01*
X173371572Y-112149429D01*
X173133476Y-112149429D01*
X173038238Y-112101810D01*
X172562048Y-112530381D02*
X172562048Y-111863714D01*
X172562048Y-112054190D02*
X172514429Y-111958952D01*
X172466810Y-111911333D01*
X172371572Y-111863714D01*
X172276333Y-111863714D01*
X171514428Y-112530381D02*
X171514428Y-111530381D01*
X171514428Y-112482762D02*
X171609666Y-112530381D01*
X171800143Y-112530381D01*
X171895381Y-112482762D01*
X171943000Y-112435143D01*
X171990619Y-112339905D01*
X171990619Y-112054190D01*
X171943000Y-111958952D01*
X171895381Y-111911333D01*
X171800143Y-111863714D01*
X171609666Y-111863714D01*
X171514428Y-111911333D01*
X178133476Y-114180381D02*
X178466810Y-113704190D01*
X178704905Y-114180381D02*
X178704905Y-113180381D01*
X178323952Y-113180381D01*
X178228714Y-113228000D01*
X178181095Y-113275619D01*
X178133476Y-113370857D01*
X178133476Y-113513714D01*
X178181095Y-113608952D01*
X178228714Y-113656571D01*
X178323952Y-113704190D01*
X178704905Y-113704190D01*
X177323952Y-114132762D02*
X177419190Y-114180381D01*
X177609667Y-114180381D01*
X177704905Y-114132762D01*
X177752524Y-114037524D01*
X177752524Y-113656571D01*
X177704905Y-113561333D01*
X177609667Y-113513714D01*
X177419190Y-113513714D01*
X177323952Y-113561333D01*
X177276333Y-113656571D01*
X177276333Y-113751810D01*
X177752524Y-113847048D01*
X176943000Y-113513714D02*
X176704905Y-114180381D01*
X176466809Y-113513714D01*
X174752523Y-114085143D02*
X174800142Y-114132762D01*
X174942999Y-114180381D01*
X175038237Y-114180381D01*
X175181095Y-114132762D01*
X175276333Y-114037524D01*
X175323952Y-113942286D01*
X175371571Y-113751810D01*
X175371571Y-113608952D01*
X175323952Y-113418476D01*
X175276333Y-113323238D01*
X175181095Y-113228000D01*
X175038237Y-113180381D01*
X174942999Y-113180381D01*
X174800142Y-113228000D01*
X174752523Y-113275619D01*
X173276332Y-114561333D02*
X173323952Y-114513714D01*
X173419190Y-114370857D01*
X173466809Y-114275619D01*
X173514428Y-114132762D01*
X173562047Y-113894667D01*
X173562047Y-113704190D01*
X173514428Y-113466095D01*
X173466809Y-113323238D01*
X173419190Y-113228000D01*
X173323952Y-113085143D01*
X173276332Y-113037524D01*
X172942999Y-114132762D02*
X172800142Y-114180381D01*
X172562046Y-114180381D01*
X172466808Y-114132762D01*
X172419189Y-114085143D01*
X172371570Y-113989905D01*
X172371570Y-113894667D01*
X172419189Y-113799429D01*
X172466808Y-113751810D01*
X172562046Y-113704190D01*
X172752523Y-113656571D01*
X172847761Y-113608952D01*
X172895380Y-113561333D01*
X172942999Y-113466095D01*
X172942999Y-113370857D01*
X172895380Y-113275619D01*
X172847761Y-113228000D01*
X172752523Y-113180381D01*
X172514427Y-113180381D01*
X172371570Y-113228000D01*
X171562046Y-114132762D02*
X171657284Y-114180381D01*
X171847761Y-114180381D01*
X171942999Y-114132762D01*
X171990618Y-114037524D01*
X171990618Y-113656571D01*
X171942999Y-113561333D01*
X171847761Y-113513714D01*
X171657284Y-113513714D01*
X171562046Y-113561333D01*
X171514427Y-113656571D01*
X171514427Y-113751810D01*
X171990618Y-113847048D01*
X171085856Y-113513714D02*
X171085856Y-114513714D01*
X171085856Y-113561333D02*
X170990618Y-113513714D01*
X170800141Y-113513714D01*
X170704903Y-113561333D01*
X170657284Y-113608952D01*
X170609665Y-113704190D01*
X170609665Y-113989905D01*
X170657284Y-114085143D01*
X170704903Y-114132762D01*
X170800141Y-114180381D01*
X170990618Y-114180381D01*
X171085856Y-114132762D01*
X170181094Y-114085143D02*
X170133475Y-114132762D01*
X170181094Y-114180381D01*
X170228713Y-114132762D01*
X170181094Y-114085143D01*
X170181094Y-114180381D01*
X168990618Y-113275619D02*
X168942999Y-113228000D01*
X168847761Y-113180381D01*
X168609665Y-113180381D01*
X168514427Y-113228000D01*
X168466808Y-113275619D01*
X168419189Y-113370857D01*
X168419189Y-113466095D01*
X168466808Y-113608952D01*
X169038237Y-114180381D01*
X168419189Y-114180381D01*
X167800142Y-113180381D02*
X167704903Y-113180381D01*
X167609665Y-113228000D01*
X167562046Y-113275619D01*
X167514427Y-113370857D01*
X167466808Y-113561333D01*
X167466808Y-113799429D01*
X167514427Y-113989905D01*
X167562046Y-114085143D01*
X167609665Y-114132762D01*
X167704903Y-114180381D01*
X167800142Y-114180381D01*
X167895380Y-114132762D01*
X167942999Y-114085143D01*
X167990618Y-113989905D01*
X168038237Y-113799429D01*
X168038237Y-113561333D01*
X167990618Y-113370857D01*
X167942999Y-113275619D01*
X167895380Y-113228000D01*
X167800142Y-113180381D01*
X166514427Y-114180381D02*
X167085856Y-114180381D01*
X166800142Y-114180381D02*
X166800142Y-113180381D01*
X166895380Y-113323238D01*
X166990618Y-113418476D01*
X167085856Y-113466095D01*
X165609665Y-113180381D02*
X166085856Y-113180381D01*
X166133475Y-113656571D01*
X166085856Y-113608952D01*
X165990618Y-113561333D01*
X165752522Y-113561333D01*
X165657284Y-113608952D01*
X165609665Y-113656571D01*
X165562046Y-113751810D01*
X165562046Y-113989905D01*
X165609665Y-114085143D01*
X165657284Y-114132762D01*
X165752522Y-114180381D01*
X165990618Y-114180381D01*
X166085856Y-114132762D01*
X166133475Y-114085143D01*
X165228713Y-114561333D02*
X165181094Y-114513714D01*
X165085856Y-114370857D01*
X165038237Y-114275619D01*
X164990618Y-114132762D01*
X164942999Y-113894667D01*
X164942999Y-113704190D01*
X164990618Y-113466095D01*
X165038237Y-113323238D01*
X165085856Y-113228000D01*
X165181094Y-113085143D01*
X165228713Y-113037524D01*
X178419190Y-114830381D02*
X178419190Y-115544667D01*
X178466810Y-115687524D01*
X178562048Y-115782762D01*
X178704905Y-115830381D01*
X178800143Y-115830381D01*
X177562047Y-115782762D02*
X177657285Y-115830381D01*
X177847762Y-115830381D01*
X177943000Y-115782762D01*
X177990619Y-115687524D01*
X177990619Y-115306571D01*
X177943000Y-115211333D01*
X177847762Y-115163714D01*
X177657285Y-115163714D01*
X177562047Y-115211333D01*
X177514428Y-115306571D01*
X177514428Y-115401810D01*
X177990619Y-115497048D01*
X177133476Y-115782762D02*
X177038238Y-115830381D01*
X176847762Y-115830381D01*
X176752523Y-115782762D01*
X176704904Y-115687524D01*
X176704904Y-115639905D01*
X176752523Y-115544667D01*
X176847762Y-115497048D01*
X176990619Y-115497048D01*
X177085857Y-115449429D01*
X177133476Y-115354190D01*
X177133476Y-115306571D01*
X177085857Y-115211333D01*
X176990619Y-115163714D01*
X176847762Y-115163714D01*
X176752523Y-115211333D01*
X176323952Y-115782762D02*
X176228714Y-115830381D01*
X176038238Y-115830381D01*
X175942999Y-115782762D01*
X175895380Y-115687524D01*
X175895380Y-115639905D01*
X175942999Y-115544667D01*
X176038238Y-115497048D01*
X176181095Y-115497048D01*
X176276333Y-115449429D01*
X176323952Y-115354190D01*
X176323952Y-115306571D01*
X176276333Y-115211333D01*
X176181095Y-115163714D01*
X176038238Y-115163714D01*
X175942999Y-115211333D01*
X175085856Y-115782762D02*
X175181094Y-115830381D01*
X175371571Y-115830381D01*
X175466809Y-115782762D01*
X175514428Y-115687524D01*
X175514428Y-115306571D01*
X175466809Y-115211333D01*
X175371571Y-115163714D01*
X175181094Y-115163714D01*
X175085856Y-115211333D01*
X175038237Y-115306571D01*
X175038237Y-115401810D01*
X175514428Y-115497048D01*
X173847761Y-115830381D02*
X173847761Y-114830381D01*
X173514427Y-115544667D01*
X173181094Y-114830381D01*
X173181094Y-115830381D01*
X172704904Y-115830381D02*
X172704904Y-115163714D01*
X172704904Y-114830381D02*
X172752523Y-114878000D01*
X172704904Y-114925619D01*
X172657285Y-114878000D01*
X172704904Y-114830381D01*
X172704904Y-114925619D01*
X172085857Y-115830381D02*
X172181095Y-115782762D01*
X172228714Y-115687524D01*
X172228714Y-114830381D01*
X171562047Y-115830381D02*
X171657285Y-115782762D01*
X171704904Y-115687524D01*
X171704904Y-114830381D01*
X171276332Y-115163714D02*
X171085856Y-115830381D01*
X170895379Y-115354190D01*
X170704903Y-115830381D01*
X170514427Y-115163714D01*
X169990618Y-115830381D02*
X170085856Y-115782762D01*
X170133475Y-115735143D01*
X170181094Y-115639905D01*
X170181094Y-115354190D01*
X170133475Y-115258952D01*
X170085856Y-115211333D01*
X169990618Y-115163714D01*
X169847760Y-115163714D01*
X169752522Y-115211333D01*
X169704903Y-115258952D01*
X169657284Y-115354190D01*
X169657284Y-115639905D01*
X169704903Y-115735143D01*
X169752522Y-115782762D01*
X169847760Y-115830381D01*
X169990618Y-115830381D01*
X169085856Y-115830381D02*
X169181094Y-115782762D01*
X169228713Y-115735143D01*
X169276332Y-115639905D01*
X169276332Y-115354190D01*
X169228713Y-115258952D01*
X169181094Y-115211333D01*
X169085856Y-115163714D01*
X168942998Y-115163714D01*
X168847760Y-115211333D01*
X168800141Y-115258952D01*
X168752522Y-115354190D01*
X168752522Y-115639905D01*
X168800141Y-115735143D01*
X168847760Y-115782762D01*
X168942998Y-115830381D01*
X169085856Y-115830381D01*
X167895379Y-115830381D02*
X167895379Y-114830381D01*
X167895379Y-115782762D02*
X167990617Y-115830381D01*
X168181094Y-115830381D01*
X168276332Y-115782762D01*
X168323951Y-115735143D01*
X168371570Y-115639905D01*
X168371570Y-115354190D01*
X168323951Y-115258952D01*
X168276332Y-115211333D01*
X168181094Y-115163714D01*
X167990617Y-115163714D01*
X167895379Y-115211333D01*
D10*
G36*
X152161685Y-108159640D02*
X152283939Y-110170313D01*
X152672073Y-111725466D01*
X153363694Y-112885809D01*
X154135667Y-113503437D01*
X154135667Y-108669667D01*
X154276778Y-108528556D01*
X154417889Y-108669667D01*
X154276778Y-108810778D01*
X154135667Y-108669667D01*
X154135667Y-113503437D01*
X154396413Y-113712051D01*
X154487084Y-113747566D01*
X154487084Y-109111375D01*
X154525689Y-109093000D01*
X154783240Y-109291679D01*
X154841223Y-109375222D01*
X154913139Y-109639069D01*
X154874534Y-109657445D01*
X154616983Y-109458766D01*
X154559000Y-109375222D01*
X154487084Y-109111375D01*
X154487084Y-113747566D01*
X155807838Y-114264898D01*
X155970111Y-114307196D01*
X157356849Y-114790964D01*
X158212536Y-115409360D01*
X158238491Y-115440491D01*
X158746164Y-115891424D01*
X159285087Y-116138448D01*
X159681133Y-116126090D01*
X159780111Y-115931604D01*
X159604468Y-115640727D01*
X159131319Y-115031700D01*
X158441336Y-114205395D01*
X157918054Y-113603271D01*
X156991175Y-112531691D01*
X156255553Y-111642669D01*
X155737962Y-110976892D01*
X155465181Y-110575051D01*
X155463984Y-110477833D01*
X155761150Y-110725928D01*
X156383454Y-111360024D01*
X156579280Y-111568921D01*
X157366101Y-112372825D01*
X158037444Y-112984361D01*
X158483765Y-113306434D01*
X158569338Y-113332810D01*
X158898575Y-113072541D01*
X159178321Y-112418146D01*
X159367233Y-111539886D01*
X159423971Y-110608022D01*
X159368242Y-110042632D01*
X159020084Y-109108355D01*
X158277219Y-108129399D01*
X157841406Y-107687075D01*
X156544024Y-106462855D01*
X155355105Y-105388224D01*
X154339940Y-104518222D01*
X153563818Y-103907888D01*
X153092030Y-103612262D01*
X152991827Y-103598907D01*
X152747630Y-104006107D01*
X152516149Y-104831675D01*
X152323940Y-105929705D01*
X152197561Y-107154292D01*
X152161685Y-108159640D01*
X152161685Y-108159640D01*
X152161685Y-108159640D01*
G37*
X152161685Y-108159640D02*
X152283939Y-110170313D01*
X152672073Y-111725466D01*
X153363694Y-112885809D01*
X154135667Y-113503437D01*
X154135667Y-108669667D01*
X154276778Y-108528556D01*
X154417889Y-108669667D01*
X154276778Y-108810778D01*
X154135667Y-108669667D01*
X154135667Y-113503437D01*
X154396413Y-113712051D01*
X154487084Y-113747566D01*
X154487084Y-109111375D01*
X154525689Y-109093000D01*
X154783240Y-109291679D01*
X154841223Y-109375222D01*
X154913139Y-109639069D01*
X154874534Y-109657445D01*
X154616983Y-109458766D01*
X154559000Y-109375222D01*
X154487084Y-109111375D01*
X154487084Y-113747566D01*
X155807838Y-114264898D01*
X155970111Y-114307196D01*
X157356849Y-114790964D01*
X158212536Y-115409360D01*
X158238491Y-115440491D01*
X158746164Y-115891424D01*
X159285087Y-116138448D01*
X159681133Y-116126090D01*
X159780111Y-115931604D01*
X159604468Y-115640727D01*
X159131319Y-115031700D01*
X158441336Y-114205395D01*
X157918054Y-113603271D01*
X156991175Y-112531691D01*
X156255553Y-111642669D01*
X155737962Y-110976892D01*
X155465181Y-110575051D01*
X155463984Y-110477833D01*
X155761150Y-110725928D01*
X156383454Y-111360024D01*
X156579280Y-111568921D01*
X157366101Y-112372825D01*
X158037444Y-112984361D01*
X158483765Y-113306434D01*
X158569338Y-113332810D01*
X158898575Y-113072541D01*
X159178321Y-112418146D01*
X159367233Y-111539886D01*
X159423971Y-110608022D01*
X159368242Y-110042632D01*
X159020084Y-109108355D01*
X158277219Y-108129399D01*
X157841406Y-107687075D01*
X156544024Y-106462855D01*
X155355105Y-105388224D01*
X154339940Y-104518222D01*
X153563818Y-103907888D01*
X153092030Y-103612262D01*
X152991827Y-103598907D01*
X152747630Y-104006107D01*
X152516149Y-104831675D01*
X152323940Y-105929705D01*
X152197561Y-107154292D01*
X152161685Y-108159640D01*
X152161685Y-108159640D01*
G36*
X146797889Y-103589667D02*
X146984867Y-105573619D01*
X147573178Y-107192110D01*
X148603889Y-108514198D01*
X150118067Y-109608939D01*
X150500611Y-109816051D01*
X151056442Y-110074231D01*
X151275452Y-110024339D01*
X151313445Y-109646369D01*
X151113719Y-109140118D01*
X150581420Y-108411304D01*
X149902304Y-107681860D01*
X148907124Y-106618383D01*
X148302362Y-105684387D01*
X148003722Y-104703993D01*
X147926778Y-103560051D01*
X148194988Y-101907970D01*
X148954163Y-100432521D01*
X150136119Y-99233193D01*
X151378787Y-98523137D01*
X152943110Y-98128520D01*
X154497262Y-98281318D01*
X155417343Y-98616816D01*
X156860530Y-99559553D01*
X157891444Y-100849172D01*
X158467428Y-102405968D01*
X158545827Y-104150231D01*
X158514698Y-104404631D01*
X158344545Y-105712057D01*
X158282887Y-106562936D01*
X158331382Y-107054961D01*
X158491685Y-107285827D01*
X158564111Y-107319561D01*
X158983264Y-107214823D01*
X159325611Y-106662195D01*
X159580391Y-105774357D01*
X159736841Y-104663986D01*
X159784198Y-103443762D01*
X159711703Y-102226362D01*
X159508591Y-101124466D01*
X159228042Y-100368369D01*
X158169801Y-98885230D01*
X156740278Y-97799324D01*
X155001475Y-97146134D01*
X153267814Y-96957445D01*
X151846060Y-97052196D01*
X150674368Y-97393311D01*
X149508837Y-98066085D01*
X148974435Y-98458886D01*
X147904275Y-99487993D01*
X147220445Y-100690379D01*
X146871261Y-102187878D01*
X146797889Y-103589667D01*
X146797889Y-103589667D01*
X146797889Y-103589667D01*
G37*
X146797889Y-103589667D02*
X146984867Y-105573619D01*
X147573178Y-107192110D01*
X148603889Y-108514198D01*
X150118067Y-109608939D01*
X150500611Y-109816051D01*
X151056442Y-110074231D01*
X151275452Y-110024339D01*
X151313445Y-109646369D01*
X151113719Y-109140118D01*
X150581420Y-108411304D01*
X149902304Y-107681860D01*
X148907124Y-106618383D01*
X148302362Y-105684387D01*
X148003722Y-104703993D01*
X147926778Y-103560051D01*
X148194988Y-101907970D01*
X148954163Y-100432521D01*
X150136119Y-99233193D01*
X151378787Y-98523137D01*
X152943110Y-98128520D01*
X154497262Y-98281318D01*
X155417343Y-98616816D01*
X156860530Y-99559553D01*
X157891444Y-100849172D01*
X158467428Y-102405968D01*
X158545827Y-104150231D01*
X158514698Y-104404631D01*
X158344545Y-105712057D01*
X158282887Y-106562936D01*
X158331382Y-107054961D01*
X158491685Y-107285827D01*
X158564111Y-107319561D01*
X158983264Y-107214823D01*
X159325611Y-106662195D01*
X159580391Y-105774357D01*
X159736841Y-104663986D01*
X159784198Y-103443762D01*
X159711703Y-102226362D01*
X159508591Y-101124466D01*
X159228042Y-100368369D01*
X158169801Y-98885230D01*
X156740278Y-97799324D01*
X155001475Y-97146134D01*
X153267814Y-96957445D01*
X151846060Y-97052196D01*
X150674368Y-97393311D01*
X149508837Y-98066085D01*
X148974435Y-98458886D01*
X147904275Y-99487993D01*
X147220445Y-100690379D01*
X146871261Y-102187878D01*
X146797889Y-103589667D01*
X146797889Y-103589667D01*
G36*
X148543526Y-103100192D02*
X148603688Y-104722855D01*
X148628101Y-104840397D01*
X149031795Y-105805955D01*
X149734965Y-106794310D01*
X150549588Y-107555701D01*
X150779441Y-107698180D01*
X151189550Y-107829141D01*
X151310721Y-107516229D01*
X151313445Y-107382608D01*
X151153417Y-106745498D01*
X150764615Y-106011599D01*
X150728974Y-105960431D01*
X150000200Y-104583767D01*
X149830001Y-103286687D01*
X150218158Y-102071173D01*
X151164451Y-100939207D01*
X151296723Y-100824823D01*
X152441536Y-100149620D01*
X153596183Y-100038018D01*
X154753690Y-100489426D01*
X155613853Y-101191447D01*
X156238060Y-101845040D01*
X156563149Y-102354302D01*
X156668583Y-102942719D01*
X156633825Y-103833779D01*
X156620357Y-104022210D01*
X156635576Y-105186982D01*
X156833888Y-105912320D01*
X157145517Y-106175103D01*
X157500685Y-105952209D01*
X157829616Y-105220516D01*
X157993691Y-104477287D01*
X158021923Y-102855825D01*
X157528789Y-101429023D01*
X156733070Y-100371490D01*
X155412069Y-99340786D01*
X153966914Y-98836639D01*
X152478571Y-98859755D01*
X151028009Y-99410835D01*
X149868210Y-100311830D01*
X148977333Y-101584934D01*
X148543526Y-103100192D01*
X148543526Y-103100192D01*
X148543526Y-103100192D01*
G37*
X148543526Y-103100192D02*
X148603688Y-104722855D01*
X148628101Y-104840397D01*
X149031795Y-105805955D01*
X149734965Y-106794310D01*
X150549588Y-107555701D01*
X150779441Y-107698180D01*
X151189550Y-107829141D01*
X151310721Y-107516229D01*
X151313445Y-107382608D01*
X151153417Y-106745498D01*
X150764615Y-106011599D01*
X150728974Y-105960431D01*
X150000200Y-104583767D01*
X149830001Y-103286687D01*
X150218158Y-102071173D01*
X151164451Y-100939207D01*
X151296723Y-100824823D01*
X152441536Y-100149620D01*
X153596183Y-100038018D01*
X154753690Y-100489426D01*
X155613853Y-101191447D01*
X156238060Y-101845040D01*
X156563149Y-102354302D01*
X156668583Y-102942719D01*
X156633825Y-103833779D01*
X156620357Y-104022210D01*
X156635576Y-105186982D01*
X156833888Y-105912320D01*
X157145517Y-106175103D01*
X157500685Y-105952209D01*
X157829616Y-105220516D01*
X157993691Y-104477287D01*
X158021923Y-102855825D01*
X157528789Y-101429023D01*
X156733070Y-100371490D01*
X155412069Y-99340786D01*
X153966914Y-98836639D01*
X152478571Y-98859755D01*
X151028009Y-99410835D01*
X149868210Y-100311830D01*
X148977333Y-101584934D01*
X148543526Y-103100192D01*
X148543526Y-103100192D01*
G36*
X150480064Y-103729369D02*
X150700472Y-104717749D01*
X150956068Y-105119160D01*
X151349373Y-105551307D01*
X151561675Y-105558249D01*
X151689905Y-105303381D01*
X151824100Y-104676061D01*
X151877889Y-103892548D01*
X152081597Y-102957357D01*
X152617535Y-102324126D01*
X153372924Y-102102414D01*
X153677252Y-102144532D01*
X154237252Y-102475400D01*
X154661562Y-103216761D01*
X154770476Y-103518537D01*
X155140852Y-104313385D01*
X155531598Y-104676555D01*
X155862927Y-104578344D01*
X156054204Y-103996423D01*
X155943445Y-102786824D01*
X155375252Y-101793528D01*
X154444488Y-101116364D01*
X153246015Y-100855157D01*
X153071018Y-100857123D01*
X152039330Y-101137038D01*
X151217962Y-101801036D01*
X150675384Y-102711139D01*
X150480064Y-103729369D01*
X150480064Y-103729369D01*
X150480064Y-103729369D01*
G37*
X150480064Y-103729369D02*
X150700472Y-104717749D01*
X150956068Y-105119160D01*
X151349373Y-105551307D01*
X151561675Y-105558249D01*
X151689905Y-105303381D01*
X151824100Y-104676061D01*
X151877889Y-103892548D01*
X152081597Y-102957357D01*
X152617535Y-102324126D01*
X153372924Y-102102414D01*
X153677252Y-102144532D01*
X154237252Y-102475400D01*
X154661562Y-103216761D01*
X154770476Y-103518537D01*
X155140852Y-104313385D01*
X155531598Y-104676555D01*
X155862927Y-104578344D01*
X156054204Y-103996423D01*
X155943445Y-102786824D01*
X155375252Y-101793528D01*
X154444488Y-101116364D01*
X153246015Y-100855157D01*
X153071018Y-100857123D01*
X152039330Y-101137038D01*
X151217962Y-101801036D01*
X150675384Y-102711139D01*
X150480064Y-103729369D01*
X150480064Y-103729369D01*
D12*
X173972220Y-107210860D02*
X173611540Y-108681520D01*
X173611540Y-108681520D02*
X173332140Y-107619800D01*
X173332140Y-107619800D02*
X173022260Y-108691680D01*
X173022260Y-108691680D02*
X172681900Y-107241340D01*
X175392080Y-107901740D02*
X174602140Y-107891580D01*
X174602140Y-107891580D02*
X174591980Y-107901740D01*
X174591980Y-107901740D02*
X174591980Y-107891580D01*
X174551340Y-107180380D02*
X174551340Y-108722160D01*
X175440340Y-107170220D02*
X175440340Y-108739940D01*
X175440340Y-108739940D02*
X175430180Y-108729780D01*
X175991520Y-107271820D02*
X176342040Y-107190540D01*
X176342040Y-107190540D02*
X176662080Y-107180380D01*
X176662080Y-107180380D02*
X176900840Y-107381040D01*
X176900840Y-107381040D02*
X176931320Y-107650280D01*
X176931320Y-107650280D02*
X176690020Y-107891580D01*
X176690020Y-107891580D02*
X176301400Y-108021120D01*
X176301400Y-108021120D02*
X176121060Y-108181140D01*
X176121060Y-108181140D02*
X176080420Y-108480860D01*
X176080420Y-108480860D02*
X176311560Y-108701840D01*
X176311560Y-108701840D02*
X176631600Y-108729780D01*
X176631600Y-108729780D02*
X176982120Y-108620560D01*
X178020980Y-107170220D02*
X178269900Y-107190540D01*
X178269900Y-107190540D02*
X178511200Y-107431840D01*
X178511200Y-107431840D02*
X178600100Y-107922060D01*
X178600100Y-107922060D02*
X178572160Y-108270040D01*
X178572160Y-108270040D02*
X178371500Y-108590080D01*
X178371500Y-108590080D02*
X178120040Y-108712000D01*
X178120040Y-108712000D02*
X177810160Y-108640880D01*
X177810160Y-108640880D02*
X177591720Y-108460540D01*
X177591720Y-108460540D02*
X177520600Y-108000800D01*
X177520600Y-108000800D02*
X177571400Y-107591860D01*
X177571400Y-107591860D02*
X177680620Y-107309920D01*
X177680620Y-107309920D02*
X178041300Y-107180380D01*
X177421540Y-105450640D02*
X177680620Y-106011980D01*
X177680620Y-106011980D02*
X177142140Y-106530140D01*
X177142140Y-106530140D02*
X176621440Y-106260900D01*
X176621440Y-106260900D02*
X176342040Y-106420920D01*
X174901860Y-106400600D02*
X174571660Y-106210100D01*
X174571660Y-106210100D02*
X174132240Y-106540300D01*
X174132240Y-106540300D02*
X173659800Y-106050080D01*
X173659800Y-106050080D02*
X173941740Y-105570020D01*
X173941740Y-105570020D02*
X173751240Y-105100120D01*
X173751240Y-105100120D02*
X173141640Y-104912160D01*
X173141640Y-104912160D02*
X173141640Y-104231440D01*
X173141640Y-104231440D02*
X173700440Y-104091740D01*
X173700440Y-104091740D02*
X173901100Y-103520240D01*
X173901100Y-103520240D02*
X173631860Y-103050340D01*
X173631860Y-103050340D02*
X174101760Y-102539800D01*
X174101760Y-102539800D02*
X174619920Y-102801420D01*
X174619920Y-102801420D02*
X175089820Y-102600760D01*
X175089820Y-102600760D02*
X175260000Y-102059740D01*
X175260000Y-102059740D02*
X175950880Y-102041960D01*
X175950880Y-102041960D02*
X176161700Y-102590600D01*
X176161700Y-102590600D02*
X176580800Y-102760780D01*
X176580800Y-102760780D02*
X177131980Y-102491540D01*
X177131980Y-102491540D02*
X177650140Y-103019860D01*
X177650140Y-103019860D02*
X177401220Y-103560880D01*
X177401220Y-103560880D02*
X177571400Y-104040940D01*
X177571400Y-104040940D02*
X178120040Y-104140000D01*
X178120040Y-104140000D02*
X178130200Y-104841040D01*
X178130200Y-104841040D02*
X177571400Y-105041700D01*
X177571400Y-105041700D02*
X177431700Y-105440480D01*
X175290480Y-105420160D02*
X174990760Y-105270300D01*
X174990760Y-105270300D02*
X174790100Y-105072180D01*
X174790100Y-105072180D02*
X174640240Y-104670860D01*
X174640240Y-104670860D02*
X174640240Y-104272080D01*
X174640240Y-104272080D02*
X174790100Y-103921560D01*
X174790100Y-103921560D02*
X175242220Y-103571040D01*
X175242220Y-103571040D02*
X175691800Y-103520240D01*
X175691800Y-103520240D02*
X176090580Y-103621840D01*
X176090580Y-103621840D02*
X176491900Y-103969820D01*
X176491900Y-103969820D02*
X176641760Y-104421940D01*
X176641760Y-104421940D02*
X176590960Y-104919780D01*
X176590960Y-104919780D02*
X176342040Y-105222040D01*
X176342040Y-105222040D02*
X175991520Y-105420160D01*
X175991520Y-105420160D02*
X176342040Y-106420920D01*
X175290480Y-105420160D02*
X174891700Y-106420920D01*
M02*
