G04 #@! TF.FileFunction,Legend,Top*
%FSLAX46Y46*%
G04 Gerber Fmt 4.6, Leading zero omitted, Abs format (unit mm)*
G04 Created by KiCad (PCBNEW (2015-08-13 BZR 6091, Git 3774262)-product) date Mon 14 Sep 2015 01:10:19 PM EDT*
%MOMM*%
G01*
G04 APERTURE LIST*
%ADD10C,0.100000*%
%ADD11C,0.300000*%
%ADD12C,0.150000*%
G04 APERTURE END LIST*
D10*
D11*
X154495572Y-62210143D02*
X155638429Y-62210143D01*
X155067000Y-62781571D02*
X155067000Y-61638714D01*
X138493572Y-61956143D02*
X139636429Y-61956143D01*
X139065000Y-62527571D02*
X139065000Y-61384714D01*
X103294571Y-99067143D02*
X101794571Y-99067143D01*
X102294571Y-98352857D02*
X103294571Y-98352857D01*
X102437429Y-98352857D02*
X102366000Y-98281429D01*
X102294571Y-98138571D01*
X102294571Y-97924286D01*
X102366000Y-97781429D01*
X102508857Y-97710000D01*
X103294571Y-97710000D01*
X102294571Y-96995714D02*
X103794571Y-96995714D01*
X102366000Y-96995714D02*
X102294571Y-96852857D01*
X102294571Y-96567143D01*
X102366000Y-96424286D01*
X102437429Y-96352857D01*
X102580286Y-96281428D01*
X103008857Y-96281428D01*
X103151714Y-96352857D01*
X103223143Y-96424286D01*
X103294571Y-96567143D01*
X103294571Y-96852857D01*
X103223143Y-96995714D01*
X102294571Y-94995714D02*
X103294571Y-94995714D01*
X102294571Y-95638571D02*
X103080286Y-95638571D01*
X103223143Y-95567143D01*
X103294571Y-95424285D01*
X103294571Y-95210000D01*
X103223143Y-95067143D01*
X103151714Y-94995714D01*
X102294571Y-94495714D02*
X102294571Y-93924285D01*
X101794571Y-94281428D02*
X103080286Y-94281428D01*
X103223143Y-94210000D01*
X103294571Y-94067142D01*
X103294571Y-93924285D01*
X103294571Y-92281428D02*
X101794571Y-92281428D01*
X101794571Y-91710000D01*
X101866000Y-91567142D01*
X101937429Y-91495714D01*
X102080286Y-91424285D01*
X102294571Y-91424285D01*
X102437429Y-91495714D01*
X102508857Y-91567142D01*
X102580286Y-91710000D01*
X102580286Y-92281428D01*
X103294571Y-90567142D02*
X103223143Y-90710000D01*
X103151714Y-90781428D01*
X103008857Y-90852857D01*
X102580286Y-90852857D01*
X102437429Y-90781428D01*
X102366000Y-90710000D01*
X102294571Y-90567142D01*
X102294571Y-90352857D01*
X102366000Y-90210000D01*
X102437429Y-90138571D01*
X102580286Y-90067142D01*
X103008857Y-90067142D01*
X103151714Y-90138571D01*
X103223143Y-90210000D01*
X103294571Y-90352857D01*
X103294571Y-90567142D01*
X102294571Y-89567142D02*
X103294571Y-89281428D01*
X102580286Y-88995714D01*
X103294571Y-88709999D01*
X102294571Y-88424285D01*
X103223143Y-87281428D02*
X103294571Y-87424285D01*
X103294571Y-87709999D01*
X103223143Y-87852856D01*
X103080286Y-87924285D01*
X102508857Y-87924285D01*
X102366000Y-87852856D01*
X102294571Y-87709999D01*
X102294571Y-87424285D01*
X102366000Y-87281428D01*
X102508857Y-87209999D01*
X102651714Y-87209999D01*
X102794571Y-87924285D01*
X103294571Y-86567142D02*
X102294571Y-86567142D01*
X102580286Y-86567142D02*
X102437429Y-86495714D01*
X102366000Y-86424285D01*
X102294571Y-86281428D01*
X102294571Y-86138571D01*
D12*
X119443500Y-78867000D02*
X119062500Y-78867000D01*
X120459500Y-78867000D02*
X120078500Y-78867000D01*
X120078500Y-78867000D02*
X119443500Y-79248000D01*
X119443500Y-79248000D02*
X119443500Y-78486000D01*
X119443500Y-78486000D02*
X120078500Y-78867000D01*
X120078500Y-79375000D02*
X120078500Y-78359000D01*
X121761000Y-77967000D02*
X118221000Y-77967000D01*
X121761000Y-79767000D02*
X118221000Y-79767000D01*
X165520000Y-78367000D02*
X165520000Y-79367000D01*
X167220000Y-79367000D02*
X167220000Y-78367000D01*
X149901000Y-83282000D02*
X149901000Y-86782000D01*
X145501000Y-83282000D02*
X145501000Y-86782000D01*
X149901000Y-86782000D02*
X145501000Y-86782000D01*
X149901000Y-83282000D02*
X145501000Y-83282000D01*
X106751500Y-85305000D02*
X107751500Y-85305000D01*
X107751500Y-83605000D02*
X106751500Y-83605000D01*
X118246000Y-115443000D02*
G75*
G03X118246000Y-115443000I-1025000J0D01*
G01*
X116849000Y-113411000D02*
G75*
G03X116849000Y-113411000I-1025000J0D01*
G01*
X119262000Y-113411000D02*
G75*
G03X119262000Y-113411000I-1025000J0D01*
G01*
X115960000Y-115697000D02*
G75*
G03X115960000Y-115697000I-1025000J0D01*
G01*
X122253047Y-67378689D02*
X122253047Y-68578689D01*
X120503047Y-68578689D02*
X120503047Y-67378689D01*
X149338000Y-72552000D02*
X149338000Y-73752000D01*
X147588000Y-73752000D02*
X147588000Y-72552000D01*
X163283000Y-99179000D02*
X163283000Y-98179000D01*
X161583000Y-98179000D02*
X161583000Y-99179000D01*
X154598000Y-97036000D02*
X154598000Y-98036000D01*
X156298000Y-98036000D02*
X156298000Y-97036000D01*
X171919000Y-99179000D02*
X171919000Y-98179000D01*
X170219000Y-98179000D02*
X170219000Y-99179000D01*
X114927000Y-107735000D02*
X113927000Y-107735000D01*
X113927000Y-109435000D02*
X114927000Y-109435000D01*
X130945000Y-47205000D02*
X131945000Y-47205000D01*
X131945000Y-45505000D02*
X130945000Y-45505000D01*
X118449047Y-58111689D02*
X117449047Y-58111689D01*
X117449047Y-59811689D02*
X118449047Y-59811689D01*
X112908047Y-57445689D02*
X112908047Y-58445689D01*
X114608047Y-58445689D02*
X114608047Y-57445689D01*
X122783047Y-76829689D02*
X123783047Y-76829689D01*
X123783047Y-75129689D02*
X122783047Y-75129689D01*
X127689047Y-75336689D02*
X127689047Y-74336689D01*
X125989047Y-74336689D02*
X125989047Y-75336689D01*
X114608047Y-76225689D02*
X114608047Y-75225689D01*
X112908047Y-75225689D02*
X112908047Y-76225689D01*
X120655047Y-59731689D02*
X120655047Y-60731689D01*
X122355047Y-60731689D02*
X122355047Y-59731689D01*
X131245047Y-68351689D02*
X131245047Y-67351689D01*
X129545047Y-67351689D02*
X129545047Y-68351689D01*
X118703047Y-75129689D02*
X117703047Y-75129689D01*
X117703047Y-76829689D02*
X118703047Y-76829689D01*
X118703047Y-72843689D02*
X117703047Y-72843689D01*
X117703047Y-74543689D02*
X118703047Y-74543689D01*
X173347000Y-62523000D02*
X172347000Y-62523000D01*
X172347000Y-64223000D02*
X173347000Y-64223000D01*
X136279000Y-102577000D02*
X137279000Y-102577000D01*
X137279000Y-100877000D02*
X136279000Y-100877000D01*
X136279000Y-115785000D02*
X137279000Y-115785000D01*
X137279000Y-114085000D02*
X136279000Y-114085000D01*
X130167000Y-114085000D02*
X129167000Y-114085000D01*
X129167000Y-115785000D02*
X130167000Y-115785000D01*
X179705000Y-90170000D02*
X179705000Y-85090000D01*
X179985000Y-92990000D02*
X178435000Y-92990000D01*
X177165000Y-92710000D02*
X177165000Y-90170000D01*
X177165000Y-90170000D02*
X179705000Y-90170000D01*
X179705000Y-85090000D02*
X174625000Y-85090000D01*
X174625000Y-85090000D02*
X174625000Y-90170000D01*
X179985000Y-92990000D02*
X179985000Y-91440000D01*
X174625000Y-92710000D02*
X177165000Y-92710000D01*
X174625000Y-90170000D02*
X174625000Y-92710000D01*
X116443000Y-96090000D02*
X114443000Y-96090000D01*
X114443000Y-93140000D02*
X116443000Y-93140000D01*
X173390000Y-55132000D02*
X174590000Y-55132000D01*
X174590000Y-56882000D02*
X173390000Y-56882000D01*
X173390000Y-52846000D02*
X174590000Y-52846000D01*
X174590000Y-54596000D02*
X173390000Y-54596000D01*
X158482000Y-96809000D02*
X158482000Y-98009000D01*
X156732000Y-98009000D02*
X156732000Y-96809000D01*
X158482000Y-91729000D02*
X158482000Y-92929000D01*
X156732000Y-92929000D02*
X156732000Y-91729000D01*
X171718000Y-88611000D02*
X171718000Y-87411000D01*
X173468000Y-87411000D02*
X173468000Y-88611000D01*
X161509000Y-80758000D02*
X160309000Y-80758000D01*
X160309000Y-79008000D02*
X161509000Y-79008000D01*
X158228000Y-82839000D02*
X158228000Y-84039000D01*
X156478000Y-84039000D02*
X156478000Y-82839000D01*
X169785000Y-78140000D02*
X169785000Y-79340000D01*
X168035000Y-79340000D02*
X168035000Y-78140000D01*
X109742000Y-99787000D02*
X109742000Y-98587000D01*
X111492000Y-98587000D02*
X111492000Y-99787000D01*
X109206000Y-98587000D02*
X109206000Y-99787000D01*
X107456000Y-99787000D02*
X107456000Y-98587000D01*
X136871000Y-59168000D02*
X135671000Y-59168000D01*
X135671000Y-57418000D02*
X136871000Y-57418000D01*
X135671000Y-55132000D02*
X136871000Y-55132000D01*
X136871000Y-56882000D02*
X135671000Y-56882000D01*
X109996000Y-108169000D02*
X109996000Y-106969000D01*
X111746000Y-106969000D02*
X111746000Y-108169000D01*
X132094000Y-53051000D02*
X132094000Y-51851000D01*
X133844000Y-51851000D02*
X133844000Y-53051000D01*
X115027000Y-107174000D02*
X113827000Y-107174000D01*
X113827000Y-105424000D02*
X115027000Y-105424000D01*
X130845000Y-47766000D02*
X132045000Y-47766000D01*
X132045000Y-49516000D02*
X130845000Y-49516000D01*
X109460000Y-106969000D02*
X109460000Y-108169000D01*
X107710000Y-108169000D02*
X107710000Y-106969000D01*
X122636047Y-72818689D02*
X123836047Y-72818689D01*
X123836047Y-74568689D02*
X122636047Y-74568689D01*
X122789047Y-68578689D02*
X122789047Y-67378689D01*
X124539047Y-67378689D02*
X124539047Y-68578689D01*
X176516000Y-68107000D02*
X176516000Y-69307000D01*
X174766000Y-69307000D02*
X174766000Y-68107000D01*
X172480000Y-69307000D02*
X172480000Y-68107000D01*
X174230000Y-68107000D02*
X174230000Y-69307000D01*
X170194000Y-69307000D02*
X170194000Y-68107000D01*
X171944000Y-68107000D02*
X171944000Y-69307000D01*
X138924000Y-110271000D02*
X138924000Y-111471000D01*
X137174000Y-111471000D02*
X137174000Y-110271000D01*
X137174000Y-106137000D02*
X137174000Y-104937000D01*
X138924000Y-104937000D02*
X138924000Y-106137000D01*
X124954000Y-98460000D02*
X124954000Y-99660000D01*
X123204000Y-99660000D02*
X123204000Y-98460000D01*
X133893000Y-96407000D02*
X135093000Y-96407000D01*
X135093000Y-98157000D02*
X133893000Y-98157000D01*
X132955000Y-72552000D02*
X132955000Y-73752000D01*
X131205000Y-73752000D02*
X131205000Y-72552000D01*
X128792000Y-73752000D02*
X128792000Y-72552000D01*
X130542000Y-72552000D02*
X130542000Y-73752000D01*
X144921000Y-73752000D02*
X144921000Y-72552000D01*
X146671000Y-72552000D02*
X146671000Y-73752000D01*
X135798000Y-77103000D02*
X136998000Y-77103000D01*
X136998000Y-78853000D02*
X135798000Y-78853000D01*
X140857000Y-74133000D02*
X140857000Y-72933000D01*
X142607000Y-72933000D02*
X142607000Y-74133000D01*
X142607000Y-67853000D02*
X142607000Y-69053000D01*
X140857000Y-69053000D02*
X140857000Y-67853000D01*
X136998000Y-81139000D02*
X135798000Y-81139000D01*
X135798000Y-79389000D02*
X136998000Y-79389000D01*
X165100000Y-95250000D02*
X165100000Y-99060000D01*
X168402000Y-95250000D02*
X168402000Y-99060000D01*
X184118000Y-114808000D02*
G75*
G03X184118000Y-114808000I-2000000J0D01*
G01*
X147542000Y-46482000D02*
G75*
G03X147542000Y-46482000I-2000000J0D01*
G01*
X105632000Y-46482000D02*
G75*
G03X105632000Y-46482000I-2000000J0D01*
G01*
X184118000Y-46482000D02*
G75*
G03X184118000Y-46482000I-2000000J0D01*
G01*
X103661000Y-96379000D02*
X110661000Y-96379000D01*
X110661000Y-88279000D02*
X110661000Y-96379000D01*
X110661000Y-88279000D02*
X103661000Y-88279000D01*
X103661000Y-96379000D02*
X103661000Y-88279000D01*
X137295000Y-67013000D02*
X137295000Y-67613000D01*
X136295000Y-67013000D02*
X137295000Y-67013000D01*
X136295000Y-67613000D02*
X136295000Y-67013000D01*
X133845000Y-63113000D02*
X133845000Y-67613000D01*
X139745000Y-63113000D02*
X139745000Y-67613000D01*
X133845000Y-63113000D02*
X139745000Y-63113000D01*
X133845000Y-67613000D02*
X139745000Y-67613000D01*
X153408000Y-67013000D02*
X153408000Y-67613000D01*
X152408000Y-67013000D02*
X153408000Y-67013000D01*
X152408000Y-67613000D02*
X152408000Y-67013000D01*
X149958000Y-63113000D02*
X149958000Y-67613000D01*
X155858000Y-63113000D02*
X155858000Y-67613000D01*
X149958000Y-63113000D02*
X155858000Y-63113000D01*
X149958000Y-67613000D02*
X155858000Y-67613000D01*
X122442000Y-109439000D02*
X122442000Y-108239000D01*
X124192000Y-108239000D02*
X124192000Y-109439000D01*
X139827000Y-100711000D02*
X153924000Y-100711000D01*
X153924000Y-115697000D02*
X139827000Y-115697000D01*
X139827000Y-100711000D02*
X139827000Y-115697000D01*
X153924000Y-100711000D02*
X153924000Y-115697000D01*
X130667000Y-59768000D02*
X128667000Y-59768000D01*
X128667000Y-56818000D02*
X130667000Y-56818000D01*
X128984047Y-67251689D02*
X128984047Y-68451689D01*
X127234047Y-68451689D02*
X127234047Y-67251689D01*
X126825047Y-67378689D02*
X126825047Y-68578689D01*
X125075047Y-68578689D02*
X125075047Y-67378689D01*
X152054000Y-77103000D02*
X153254000Y-77103000D01*
X153254000Y-78853000D02*
X152054000Y-78853000D01*
X160768000Y-68361000D02*
X160768000Y-69561000D01*
X159018000Y-69561000D02*
X159018000Y-68361000D01*
X158482000Y-68361000D02*
X158482000Y-69561000D01*
X156732000Y-69561000D02*
X156732000Y-68361000D01*
X152054000Y-81675000D02*
X153254000Y-81675000D01*
X153254000Y-83425000D02*
X152054000Y-83425000D01*
X106771500Y-82447500D02*
X107771500Y-82447500D01*
X107771500Y-80747500D02*
X106771500Y-80747500D01*
X160917000Y-62191000D02*
X161917000Y-62191000D01*
X161917000Y-60491000D02*
X160917000Y-60491000D01*
X174109000Y-58459000D02*
X173109000Y-58459000D01*
X173109000Y-60159000D02*
X174109000Y-60159000D01*
X121627000Y-109339000D02*
X121627000Y-108339000D01*
X119927000Y-108339000D02*
X119927000Y-109339000D01*
X132373000Y-100719000D02*
X132373000Y-101719000D01*
X134073000Y-101719000D02*
X134073000Y-100719000D01*
X171700000Y-78486000D02*
G75*
G03X171700000Y-78486000I-250000J0D01*
G01*
X170450000Y-80986000D02*
X172450000Y-80986000D01*
X172950000Y-79986000D02*
X172950000Y-76986000D01*
X169950000Y-79986000D02*
X169950000Y-76986000D01*
X124953047Y-60901689D02*
X123403047Y-60901689D01*
X124953047Y-62101689D02*
X123403047Y-62101689D01*
X127123000Y-99134000D02*
G75*
G03X127123000Y-99134000I-250000J0D01*
G01*
X125873000Y-101634000D02*
X127873000Y-101634000D01*
X128373000Y-100634000D02*
X128373000Y-97634000D01*
X125373000Y-100634000D02*
X125373000Y-97634000D01*
X130425000Y-99134000D02*
G75*
G03X130425000Y-99134000I-250000J0D01*
G01*
X129175000Y-101634000D02*
X131175000Y-101634000D01*
X131675000Y-100634000D02*
X131675000Y-97634000D01*
X128675000Y-100634000D02*
X128675000Y-97634000D01*
X113870047Y-60785689D02*
X113870047Y-72885689D01*
X102470047Y-60785689D02*
X113870047Y-60785689D01*
X102470047Y-72885689D02*
X113870047Y-72885689D01*
X102470047Y-60785689D02*
X102470047Y-72885689D01*
X135798000Y-81548000D02*
X136998000Y-81548000D01*
X136998000Y-83298000D02*
X135798000Y-83298000D01*
X153254000Y-81139000D02*
X152054000Y-81139000D01*
X152054000Y-79389000D02*
X153254000Y-79389000D01*
X139290000Y-81310000D02*
X139290000Y-77810000D01*
X143690000Y-81310000D02*
X143690000Y-77810000D01*
X139290000Y-77810000D02*
X143690000Y-77810000D01*
X139290000Y-81310000D02*
X143690000Y-81310000D01*
X160713000Y-90620000D02*
X161038000Y-90620000D01*
X160713000Y-83370000D02*
X161038000Y-83370000D01*
X167963000Y-83370000D02*
X167638000Y-83370000D01*
X167963000Y-90620000D02*
X167638000Y-90620000D01*
X160713000Y-90620000D02*
X160713000Y-90295000D01*
X167963000Y-90620000D02*
X167963000Y-90295000D01*
X167963000Y-83370000D02*
X167963000Y-83695000D01*
X160713000Y-83370000D02*
X160713000Y-83695000D01*
X161038000Y-90620000D02*
X161038000Y-92045000D01*
X117118000Y-99290000D02*
X116868000Y-99290000D01*
X117118000Y-102640000D02*
X116868000Y-102640000D01*
X113768000Y-102640000D02*
X114018000Y-102640000D01*
X113768000Y-99290000D02*
X114018000Y-99290000D01*
X117118000Y-99290000D02*
X117118000Y-102640000D01*
X113768000Y-99290000D02*
X113768000Y-102640000D01*
X116868000Y-99290000D02*
X116868000Y-98040000D01*
X127992000Y-54888000D02*
X128242000Y-54888000D01*
X127992000Y-51538000D02*
X128242000Y-51538000D01*
X131342000Y-51538000D02*
X131092000Y-51538000D01*
X131342000Y-54888000D02*
X131092000Y-54888000D01*
X127992000Y-54888000D02*
X127992000Y-51538000D01*
X131342000Y-54888000D02*
X131342000Y-51538000D01*
X128242000Y-54888000D02*
X128242000Y-56138000D01*
X106450000Y-106148000D02*
X106150000Y-106148000D01*
X106450000Y-109498000D02*
X106150000Y-109498000D01*
X103100000Y-109498000D02*
X103400000Y-109498000D01*
X103100000Y-106148000D02*
X103400000Y-106148000D01*
X106450000Y-106148000D02*
X106450000Y-109498000D01*
X103100000Y-106148000D02*
X103100000Y-109498000D01*
X106150000Y-106148000D02*
X106150000Y-104923000D01*
X120099547Y-69058689D02*
X120099547Y-64558689D01*
X114649547Y-70183689D02*
X114649547Y-64558689D01*
X113220500Y-85280500D02*
X110045500Y-85280500D01*
X110045500Y-85280500D02*
X110045500Y-87058500D01*
X110045500Y-87058500D02*
X113220500Y-87058500D01*
X113220500Y-80708500D02*
X110045500Y-80708500D01*
X110045500Y-80708500D02*
X110045500Y-82486500D01*
X110045500Y-82486500D02*
X113220500Y-82486500D01*
X119316500Y-87312500D02*
X113220500Y-87312500D01*
X113220500Y-87312500D02*
X113220500Y-80454500D01*
X113220500Y-80454500D02*
X121094500Y-80454500D01*
X121221500Y-80454500D02*
X121221500Y-87312500D01*
X121094500Y-87312500D02*
X119316500Y-87312500D01*
X164568000Y-63222000D02*
X164568000Y-63472000D01*
X167918000Y-63222000D02*
X167918000Y-63472000D01*
X167918000Y-66572000D02*
X167918000Y-66322000D01*
X164568000Y-66572000D02*
X164568000Y-66322000D01*
X164568000Y-63222000D02*
X167918000Y-63222000D01*
X164568000Y-66572000D02*
X167918000Y-66572000D01*
X164568000Y-63472000D02*
X163318000Y-63472000D01*
X169179843Y-60777000D02*
G75*
G03X169179843Y-60777000I-282843J0D01*
G01*
X168497000Y-54277000D02*
X164497000Y-54277000D01*
X168497000Y-60277000D02*
X164497000Y-60277000D01*
X125104000Y-111587000D02*
X125754000Y-111587000D01*
X125104000Y-105837000D02*
X125754000Y-105837000D01*
X135754000Y-105837000D02*
X135104000Y-105837000D01*
X135754000Y-111587000D02*
X135104000Y-111587000D01*
X125104000Y-111587000D02*
X125104000Y-105837000D01*
X135754000Y-111587000D02*
X135754000Y-105837000D01*
X125754000Y-111587000D02*
X125754000Y-113187000D01*
X138812000Y-69361000D02*
X138812000Y-70136000D01*
X134512000Y-73661000D02*
X134512000Y-72886000D01*
X138812000Y-73661000D02*
X138812000Y-72886000D01*
X134512000Y-69361000D02*
X135287000Y-69361000D01*
X134512000Y-73661000D02*
X135287000Y-73661000D01*
X138812000Y-73661000D02*
X138037000Y-73661000D01*
X138812000Y-69361000D02*
X138037000Y-69361000D01*
X154941000Y-69341000D02*
X154941000Y-70116000D01*
X150641000Y-73641000D02*
X150641000Y-72866000D01*
X154941000Y-73641000D02*
X154941000Y-72866000D01*
X150641000Y-69341000D02*
X151416000Y-69341000D01*
X150641000Y-73641000D02*
X151416000Y-73641000D01*
X154941000Y-73641000D02*
X154166000Y-73641000D01*
X154941000Y-69341000D02*
X154166000Y-69341000D01*
X114958905Y-80081381D02*
X114958905Y-79081381D01*
X115197000Y-79081381D01*
X115339858Y-79129000D01*
X115435096Y-79224238D01*
X115482715Y-79319476D01*
X115530334Y-79509952D01*
X115530334Y-79652810D01*
X115482715Y-79843286D01*
X115435096Y-79938524D01*
X115339858Y-80033762D01*
X115197000Y-80081381D01*
X114958905Y-80081381D01*
X116435096Y-79081381D02*
X115958905Y-79081381D01*
X115911286Y-79557571D01*
X115958905Y-79509952D01*
X116054143Y-79462333D01*
X116292239Y-79462333D01*
X116387477Y-79509952D01*
X116435096Y-79557571D01*
X116482715Y-79652810D01*
X116482715Y-79890905D01*
X116435096Y-79986143D01*
X116387477Y-80033762D01*
X116292239Y-80081381D01*
X116054143Y-80081381D01*
X115958905Y-80033762D01*
X115911286Y-79986143D01*
X164627143Y-79033666D02*
X164674762Y-79081285D01*
X164722381Y-79224142D01*
X164722381Y-79319380D01*
X164674762Y-79462238D01*
X164579524Y-79557476D01*
X164484286Y-79605095D01*
X164293810Y-79652714D01*
X164150952Y-79652714D01*
X163960476Y-79605095D01*
X163865238Y-79557476D01*
X163770000Y-79462238D01*
X163722381Y-79319380D01*
X163722381Y-79224142D01*
X163770000Y-79081285D01*
X163817619Y-79033666D01*
X164722381Y-78081285D02*
X164722381Y-78652714D01*
X164722381Y-78367000D02*
X163722381Y-78367000D01*
X163865238Y-78462238D01*
X163960476Y-78557476D01*
X164008095Y-78652714D01*
X147058143Y-82834381D02*
X146724809Y-82358190D01*
X146486714Y-82834381D02*
X146486714Y-81834381D01*
X146867667Y-81834381D01*
X146962905Y-81882000D01*
X147010524Y-81929619D01*
X147058143Y-82024857D01*
X147058143Y-82167714D01*
X147010524Y-82262952D01*
X146962905Y-82310571D01*
X146867667Y-82358190D01*
X146486714Y-82358190D01*
X147915286Y-82167714D02*
X147915286Y-82834381D01*
X147677190Y-81786762D02*
X147439095Y-82501048D01*
X148058143Y-82501048D01*
X148343857Y-81834381D02*
X149010524Y-81834381D01*
X148581952Y-82834381D01*
X102608143Y-84558143D02*
X102560524Y-84605762D01*
X102417667Y-84653381D01*
X102322429Y-84653381D01*
X102179571Y-84605762D01*
X102084333Y-84510524D01*
X102036714Y-84415286D01*
X101989095Y-84224810D01*
X101989095Y-84081952D01*
X102036714Y-83891476D01*
X102084333Y-83796238D01*
X102179571Y-83701000D01*
X102322429Y-83653381D01*
X102417667Y-83653381D01*
X102560524Y-83701000D01*
X102608143Y-83748619D01*
X103560524Y-84653381D02*
X102989095Y-84653381D01*
X103274809Y-84653381D02*
X103274809Y-83653381D01*
X103179571Y-83796238D01*
X103084333Y-83891476D01*
X102989095Y-83939095D01*
X103893857Y-83653381D02*
X104512905Y-83653381D01*
X104179571Y-84034333D01*
X104322429Y-84034333D01*
X104417667Y-84081952D01*
X104465286Y-84129571D01*
X104512905Y-84224810D01*
X104512905Y-84462905D01*
X104465286Y-84558143D01*
X104417667Y-84605762D01*
X104322429Y-84653381D01*
X104036714Y-84653381D01*
X103941476Y-84605762D01*
X103893857Y-84558143D01*
X119276905Y-116149381D02*
X119276905Y-115149381D01*
X119657858Y-115149381D01*
X119753096Y-115197000D01*
X119800715Y-115244619D01*
X119848334Y-115339857D01*
X119848334Y-115482714D01*
X119800715Y-115577952D01*
X119753096Y-115625571D01*
X119657858Y-115673190D01*
X119276905Y-115673190D01*
X120705477Y-115149381D02*
X120515000Y-115149381D01*
X120419762Y-115197000D01*
X120372143Y-115244619D01*
X120276905Y-115387476D01*
X120229286Y-115577952D01*
X120229286Y-115958905D01*
X120276905Y-116054143D01*
X120324524Y-116101762D01*
X120419762Y-116149381D01*
X120610239Y-116149381D01*
X120705477Y-116101762D01*
X120753096Y-116054143D01*
X120800715Y-115958905D01*
X120800715Y-115720810D01*
X120753096Y-115625571D01*
X120705477Y-115577952D01*
X120610239Y-115530333D01*
X120419762Y-115530333D01*
X120324524Y-115577952D01*
X120276905Y-115625571D01*
X120229286Y-115720810D01*
X112672905Y-113863381D02*
X112672905Y-112863381D01*
X113053858Y-112863381D01*
X113149096Y-112911000D01*
X113196715Y-112958619D01*
X113244334Y-113053857D01*
X113244334Y-113196714D01*
X113196715Y-113291952D01*
X113149096Y-113339571D01*
X113053858Y-113387190D01*
X112672905Y-113387190D01*
X114149096Y-112863381D02*
X113672905Y-112863381D01*
X113625286Y-113339571D01*
X113672905Y-113291952D01*
X113768143Y-113244333D01*
X114006239Y-113244333D01*
X114101477Y-113291952D01*
X114149096Y-113339571D01*
X114196715Y-113434810D01*
X114196715Y-113672905D01*
X114149096Y-113768143D01*
X114101477Y-113815762D01*
X114006239Y-113863381D01*
X113768143Y-113863381D01*
X113672905Y-113815762D01*
X113625286Y-113768143D01*
X119784905Y-114625381D02*
X119784905Y-113625381D01*
X120165858Y-113625381D01*
X120261096Y-113673000D01*
X120308715Y-113720619D01*
X120356334Y-113815857D01*
X120356334Y-113958714D01*
X120308715Y-114053952D01*
X120261096Y-114101571D01*
X120165858Y-114149190D01*
X119784905Y-114149190D01*
X120689667Y-113625381D02*
X121308715Y-113625381D01*
X120975381Y-114006333D01*
X121118239Y-114006333D01*
X121213477Y-114053952D01*
X121261096Y-114101571D01*
X121308715Y-114196810D01*
X121308715Y-114434905D01*
X121261096Y-114530143D01*
X121213477Y-114577762D01*
X121118239Y-114625381D01*
X120832524Y-114625381D01*
X120737286Y-114577762D01*
X120689667Y-114530143D01*
X111656905Y-116149381D02*
X111656905Y-115149381D01*
X112037858Y-115149381D01*
X112133096Y-115197000D01*
X112180715Y-115244619D01*
X112228334Y-115339857D01*
X112228334Y-115482714D01*
X112180715Y-115577952D01*
X112133096Y-115625571D01*
X112037858Y-115673190D01*
X111656905Y-115673190D01*
X113085477Y-115482714D02*
X113085477Y-116149381D01*
X112847381Y-115101762D02*
X112609286Y-115816048D01*
X113228334Y-115816048D01*
X120896143Y-71699381D02*
X120562809Y-71223190D01*
X120324714Y-71699381D02*
X120324714Y-70699381D01*
X120705667Y-70699381D01*
X120800905Y-70747000D01*
X120848524Y-70794619D01*
X120896143Y-70889857D01*
X120896143Y-71032714D01*
X120848524Y-71127952D01*
X120800905Y-71175571D01*
X120705667Y-71223190D01*
X120324714Y-71223190D01*
X121277095Y-70794619D02*
X121324714Y-70747000D01*
X121419952Y-70699381D01*
X121658048Y-70699381D01*
X121753286Y-70747000D01*
X121800905Y-70794619D01*
X121848524Y-70889857D01*
X121848524Y-70985095D01*
X121800905Y-71127952D01*
X121229476Y-71699381D01*
X121848524Y-71699381D01*
X122705667Y-71032714D02*
X122705667Y-71699381D01*
X122467571Y-70651762D02*
X122229476Y-71366048D01*
X122848524Y-71366048D01*
X148915381Y-69603857D02*
X148439190Y-69937191D01*
X148915381Y-70175286D02*
X147915381Y-70175286D01*
X147915381Y-69794333D01*
X147963000Y-69699095D01*
X148010619Y-69651476D01*
X148105857Y-69603857D01*
X148248714Y-69603857D01*
X148343952Y-69651476D01*
X148391571Y-69699095D01*
X148439190Y-69794333D01*
X148439190Y-70175286D01*
X147915381Y-69270524D02*
X147915381Y-68651476D01*
X148296333Y-68984810D01*
X148296333Y-68841952D01*
X148343952Y-68746714D01*
X148391571Y-68699095D01*
X148486810Y-68651476D01*
X148724905Y-68651476D01*
X148820143Y-68699095D01*
X148867762Y-68746714D01*
X148915381Y-68841952D01*
X148915381Y-69127667D01*
X148867762Y-69222905D01*
X148820143Y-69270524D01*
X148248714Y-67794333D02*
X148915381Y-67794333D01*
X147867762Y-68032429D02*
X148582048Y-68270524D01*
X148582048Y-67651476D01*
X161075643Y-98845666D02*
X161123262Y-98893285D01*
X161170881Y-99036142D01*
X161170881Y-99131380D01*
X161123262Y-99274238D01*
X161028024Y-99369476D01*
X160932786Y-99417095D01*
X160742310Y-99464714D01*
X160599452Y-99464714D01*
X160408976Y-99417095D01*
X160313738Y-99369476D01*
X160218500Y-99274238D01*
X160170881Y-99131380D01*
X160170881Y-99036142D01*
X160218500Y-98893285D01*
X160266119Y-98845666D01*
X160266119Y-98464714D02*
X160218500Y-98417095D01*
X160170881Y-98321857D01*
X160170881Y-98083761D01*
X160218500Y-97988523D01*
X160266119Y-97940904D01*
X160361357Y-97893285D01*
X160456595Y-97893285D01*
X160599452Y-97940904D01*
X161170881Y-98512333D01*
X161170881Y-97893285D01*
X153705143Y-97702666D02*
X153752762Y-97750285D01*
X153800381Y-97893142D01*
X153800381Y-97988380D01*
X153752762Y-98131238D01*
X153657524Y-98226476D01*
X153562286Y-98274095D01*
X153371810Y-98321714D01*
X153228952Y-98321714D01*
X153038476Y-98274095D01*
X152943238Y-98226476D01*
X152848000Y-98131238D01*
X152800381Y-97988380D01*
X152800381Y-97893142D01*
X152848000Y-97750285D01*
X152895619Y-97702666D01*
X152800381Y-97369333D02*
X152800381Y-96750285D01*
X153181333Y-97083619D01*
X153181333Y-96940761D01*
X153228952Y-96845523D01*
X153276571Y-96797904D01*
X153371810Y-96750285D01*
X153609905Y-96750285D01*
X153705143Y-96797904D01*
X153752762Y-96845523D01*
X153800381Y-96940761D01*
X153800381Y-97226476D01*
X153752762Y-97321714D01*
X153705143Y-97369333D01*
X173526143Y-98845666D02*
X173573762Y-98893285D01*
X173621381Y-99036142D01*
X173621381Y-99131380D01*
X173573762Y-99274238D01*
X173478524Y-99369476D01*
X173383286Y-99417095D01*
X173192810Y-99464714D01*
X173049952Y-99464714D01*
X172859476Y-99417095D01*
X172764238Y-99369476D01*
X172669000Y-99274238D01*
X172621381Y-99131380D01*
X172621381Y-99036142D01*
X172669000Y-98893285D01*
X172716619Y-98845666D01*
X172954714Y-97988523D02*
X173621381Y-97988523D01*
X172573762Y-98226619D02*
X173288048Y-98464714D01*
X173288048Y-97845666D01*
X114260334Y-111228143D02*
X114212715Y-111275762D01*
X114069858Y-111323381D01*
X113974620Y-111323381D01*
X113831762Y-111275762D01*
X113736524Y-111180524D01*
X113688905Y-111085286D01*
X113641286Y-110894810D01*
X113641286Y-110751952D01*
X113688905Y-110561476D01*
X113736524Y-110466238D01*
X113831762Y-110371000D01*
X113974620Y-110323381D01*
X114069858Y-110323381D01*
X114212715Y-110371000D01*
X114260334Y-110418619D01*
X115165096Y-110323381D02*
X114688905Y-110323381D01*
X114641286Y-110799571D01*
X114688905Y-110751952D01*
X114784143Y-110704333D01*
X115022239Y-110704333D01*
X115117477Y-110751952D01*
X115165096Y-110799571D01*
X115212715Y-110894810D01*
X115212715Y-111132905D01*
X115165096Y-111228143D01*
X115117477Y-111275762D01*
X115022239Y-111323381D01*
X114784143Y-111323381D01*
X114688905Y-111275762D01*
X114641286Y-111228143D01*
X134834334Y-46712143D02*
X134786715Y-46759762D01*
X134643858Y-46807381D01*
X134548620Y-46807381D01*
X134405762Y-46759762D01*
X134310524Y-46664524D01*
X134262905Y-46569286D01*
X134215286Y-46378810D01*
X134215286Y-46235952D01*
X134262905Y-46045476D01*
X134310524Y-45950238D01*
X134405762Y-45855000D01*
X134548620Y-45807381D01*
X134643858Y-45807381D01*
X134786715Y-45855000D01*
X134834334Y-45902619D01*
X135691477Y-45807381D02*
X135501000Y-45807381D01*
X135405762Y-45855000D01*
X135358143Y-45902619D01*
X135262905Y-46045476D01*
X135215286Y-46235952D01*
X135215286Y-46616905D01*
X135262905Y-46712143D01*
X135310524Y-46759762D01*
X135405762Y-46807381D01*
X135596239Y-46807381D01*
X135691477Y-46759762D01*
X135739096Y-46712143D01*
X135786715Y-46616905D01*
X135786715Y-46378810D01*
X135739096Y-46283571D01*
X135691477Y-46235952D01*
X135596239Y-46188333D01*
X135405762Y-46188333D01*
X135310524Y-46235952D01*
X135262905Y-46283571D01*
X135215286Y-46378810D01*
X117782381Y-57218832D02*
X117734762Y-57266451D01*
X117591905Y-57314070D01*
X117496667Y-57314070D01*
X117353809Y-57266451D01*
X117258571Y-57171213D01*
X117210952Y-57075975D01*
X117163333Y-56885499D01*
X117163333Y-56742641D01*
X117210952Y-56552165D01*
X117258571Y-56456927D01*
X117353809Y-56361689D01*
X117496667Y-56314070D01*
X117591905Y-56314070D01*
X117734762Y-56361689D01*
X117782381Y-56409308D01*
X118115714Y-56314070D02*
X118782381Y-56314070D01*
X118353809Y-57314070D01*
X112244143Y-58205666D02*
X112291762Y-58253285D01*
X112339381Y-58396142D01*
X112339381Y-58491380D01*
X112291762Y-58634238D01*
X112196524Y-58729476D01*
X112101286Y-58777095D01*
X111910810Y-58824714D01*
X111767952Y-58824714D01*
X111577476Y-58777095D01*
X111482238Y-58729476D01*
X111387000Y-58634238D01*
X111339381Y-58491380D01*
X111339381Y-58396142D01*
X111387000Y-58253285D01*
X111434619Y-58205666D01*
X111767952Y-57634238D02*
X111720333Y-57729476D01*
X111672714Y-57777095D01*
X111577476Y-57824714D01*
X111529857Y-57824714D01*
X111434619Y-57777095D01*
X111387000Y-57729476D01*
X111339381Y-57634238D01*
X111339381Y-57443761D01*
X111387000Y-57348523D01*
X111434619Y-57300904D01*
X111529857Y-57253285D01*
X111577476Y-57253285D01*
X111672714Y-57300904D01*
X111720333Y-57348523D01*
X111767952Y-57443761D01*
X111767952Y-57634238D01*
X111815571Y-57729476D01*
X111863190Y-57777095D01*
X111958429Y-57824714D01*
X112148905Y-57824714D01*
X112244143Y-57777095D01*
X112291762Y-57729476D01*
X112339381Y-57634238D01*
X112339381Y-57443761D01*
X112291762Y-57348523D01*
X112244143Y-57300904D01*
X112148905Y-57253285D01*
X111958429Y-57253285D01*
X111863190Y-57300904D01*
X111815571Y-57348523D01*
X111767952Y-57443761D01*
X124166334Y-78208143D02*
X124118715Y-78255762D01*
X123975858Y-78303381D01*
X123880620Y-78303381D01*
X123737762Y-78255762D01*
X123642524Y-78160524D01*
X123594905Y-78065286D01*
X123547286Y-77874810D01*
X123547286Y-77731952D01*
X123594905Y-77541476D01*
X123642524Y-77446238D01*
X123737762Y-77351000D01*
X123880620Y-77303381D01*
X123975858Y-77303381D01*
X124118715Y-77351000D01*
X124166334Y-77398619D01*
X124642524Y-78303381D02*
X124833000Y-78303381D01*
X124928239Y-78255762D01*
X124975858Y-78208143D01*
X125071096Y-78065286D01*
X125118715Y-77874810D01*
X125118715Y-77493857D01*
X125071096Y-77398619D01*
X125023477Y-77351000D01*
X124928239Y-77303381D01*
X124737762Y-77303381D01*
X124642524Y-77351000D01*
X124594905Y-77398619D01*
X124547286Y-77493857D01*
X124547286Y-77731952D01*
X124594905Y-77827190D01*
X124642524Y-77874810D01*
X124737762Y-77922429D01*
X124928239Y-77922429D01*
X125023477Y-77874810D01*
X125071096Y-77827190D01*
X125118715Y-77731952D01*
X127230143Y-79509857D02*
X127277762Y-79557476D01*
X127325381Y-79700333D01*
X127325381Y-79795571D01*
X127277762Y-79938429D01*
X127182524Y-80033667D01*
X127087286Y-80081286D01*
X126896810Y-80128905D01*
X126753952Y-80128905D01*
X126563476Y-80081286D01*
X126468238Y-80033667D01*
X126373000Y-79938429D01*
X126325381Y-79795571D01*
X126325381Y-79700333D01*
X126373000Y-79557476D01*
X126420619Y-79509857D01*
X127325381Y-78557476D02*
X127325381Y-79128905D01*
X127325381Y-78843191D02*
X126325381Y-78843191D01*
X126468238Y-78938429D01*
X126563476Y-79033667D01*
X126611095Y-79128905D01*
X127325381Y-77605095D02*
X127325381Y-78176524D01*
X127325381Y-77890810D02*
X126325381Y-77890810D01*
X126468238Y-77986048D01*
X126563476Y-78081286D01*
X126611095Y-78176524D01*
X112244143Y-76368546D02*
X112291762Y-76416165D01*
X112339381Y-76559022D01*
X112339381Y-76654260D01*
X112291762Y-76797118D01*
X112196524Y-76892356D01*
X112101286Y-76939975D01*
X111910810Y-76987594D01*
X111767952Y-76987594D01*
X111577476Y-76939975D01*
X111482238Y-76892356D01*
X111387000Y-76797118D01*
X111339381Y-76654260D01*
X111339381Y-76559022D01*
X111387000Y-76416165D01*
X111434619Y-76368546D01*
X112339381Y-75416165D02*
X112339381Y-75987594D01*
X112339381Y-75701880D02*
X111339381Y-75701880D01*
X111482238Y-75797118D01*
X111577476Y-75892356D01*
X111625095Y-75987594D01*
X111434619Y-75035213D02*
X111387000Y-74987594D01*
X111339381Y-74892356D01*
X111339381Y-74654260D01*
X111387000Y-74559022D01*
X111434619Y-74511403D01*
X111529857Y-74463784D01*
X111625095Y-74463784D01*
X111767952Y-74511403D01*
X112339381Y-75082832D01*
X112339381Y-74463784D01*
X120896143Y-57380143D02*
X120848524Y-57427762D01*
X120705667Y-57475381D01*
X120610429Y-57475381D01*
X120467571Y-57427762D01*
X120372333Y-57332524D01*
X120324714Y-57237286D01*
X120277095Y-57046810D01*
X120277095Y-56903952D01*
X120324714Y-56713476D01*
X120372333Y-56618238D01*
X120467571Y-56523000D01*
X120610429Y-56475381D01*
X120705667Y-56475381D01*
X120848524Y-56523000D01*
X120896143Y-56570619D01*
X121848524Y-57475381D02*
X121277095Y-57475381D01*
X121562809Y-57475381D02*
X121562809Y-56475381D01*
X121467571Y-56618238D01*
X121372333Y-56713476D01*
X121277095Y-56761095D01*
X122705667Y-56808714D02*
X122705667Y-57475381D01*
X122467571Y-56427762D02*
X122229476Y-57142048D01*
X122848524Y-57142048D01*
X132852190Y-68494546D02*
X132899809Y-68542165D01*
X132947428Y-68685022D01*
X132947428Y-68780260D01*
X132899809Y-68923118D01*
X132804571Y-69018356D01*
X132709333Y-69065975D01*
X132518857Y-69113594D01*
X132375999Y-69113594D01*
X132185523Y-69065975D01*
X132090285Y-69018356D01*
X131995047Y-68923118D01*
X131947428Y-68780260D01*
X131947428Y-68685022D01*
X131995047Y-68542165D01*
X132042666Y-68494546D01*
X132947428Y-67542165D02*
X132947428Y-68113594D01*
X132947428Y-67827880D02*
X131947428Y-67827880D01*
X132090285Y-67923118D01*
X132185523Y-68018356D01*
X132233142Y-68113594D01*
X131947428Y-66637403D02*
X131947428Y-67113594D01*
X132423618Y-67161213D01*
X132375999Y-67113594D01*
X132328380Y-67018356D01*
X132328380Y-66780260D01*
X132375999Y-66685022D01*
X132423618Y-66637403D01*
X132518857Y-66589784D01*
X132756952Y-66589784D01*
X132852190Y-66637403D01*
X132899809Y-66685022D01*
X132947428Y-66780260D01*
X132947428Y-67018356D01*
X132899809Y-67113594D01*
X132852190Y-67161213D01*
X115308143Y-78462143D02*
X115260524Y-78509762D01*
X115117667Y-78557381D01*
X115022429Y-78557381D01*
X114879571Y-78509762D01*
X114784333Y-78414524D01*
X114736714Y-78319286D01*
X114689095Y-78128810D01*
X114689095Y-77985952D01*
X114736714Y-77795476D01*
X114784333Y-77700238D01*
X114879571Y-77605000D01*
X115022429Y-77557381D01*
X115117667Y-77557381D01*
X115260524Y-77605000D01*
X115308143Y-77652619D01*
X116260524Y-78557381D02*
X115689095Y-78557381D01*
X115974809Y-78557381D02*
X115974809Y-77557381D01*
X115879571Y-77700238D01*
X115784333Y-77795476D01*
X115689095Y-77843095D01*
X117117667Y-77557381D02*
X116927190Y-77557381D01*
X116831952Y-77605000D01*
X116784333Y-77652619D01*
X116689095Y-77795476D01*
X116641476Y-77985952D01*
X116641476Y-78366905D01*
X116689095Y-78462143D01*
X116736714Y-78509762D01*
X116831952Y-78557381D01*
X117022429Y-78557381D01*
X117117667Y-78509762D01*
X117165286Y-78462143D01*
X117212905Y-78366905D01*
X117212905Y-78128810D01*
X117165286Y-78033571D01*
X117117667Y-77985952D01*
X117022429Y-77938333D01*
X116831952Y-77938333D01*
X116736714Y-77985952D01*
X116689095Y-78033571D01*
X116641476Y-78128810D01*
X117340143Y-72112143D02*
X117292524Y-72159762D01*
X117149667Y-72207381D01*
X117054429Y-72207381D01*
X116911571Y-72159762D01*
X116816333Y-72064524D01*
X116768714Y-71969286D01*
X116721095Y-71778810D01*
X116721095Y-71635952D01*
X116768714Y-71445476D01*
X116816333Y-71350238D01*
X116911571Y-71255000D01*
X117054429Y-71207381D01*
X117149667Y-71207381D01*
X117292524Y-71255000D01*
X117340143Y-71302619D01*
X118292524Y-72207381D02*
X117721095Y-72207381D01*
X118006809Y-72207381D02*
X118006809Y-71207381D01*
X117911571Y-71350238D01*
X117816333Y-71445476D01*
X117721095Y-71493095D01*
X118625857Y-71207381D02*
X119292524Y-71207381D01*
X118863952Y-72207381D01*
X176252143Y-64015857D02*
X176299762Y-64063476D01*
X176347381Y-64206333D01*
X176347381Y-64301571D01*
X176299762Y-64444429D01*
X176204524Y-64539667D01*
X176109286Y-64587286D01*
X175918810Y-64634905D01*
X175775952Y-64634905D01*
X175585476Y-64587286D01*
X175490238Y-64539667D01*
X175395000Y-64444429D01*
X175347381Y-64301571D01*
X175347381Y-64206333D01*
X175395000Y-64063476D01*
X175442619Y-64015857D01*
X176347381Y-63063476D02*
X176347381Y-63634905D01*
X176347381Y-63349191D02*
X175347381Y-63349191D01*
X175490238Y-63444429D01*
X175585476Y-63539667D01*
X175633095Y-63634905D01*
X175775952Y-62492048D02*
X175728333Y-62587286D01*
X175680714Y-62634905D01*
X175585476Y-62682524D01*
X175537857Y-62682524D01*
X175442619Y-62634905D01*
X175395000Y-62587286D01*
X175347381Y-62492048D01*
X175347381Y-62301571D01*
X175395000Y-62206333D01*
X175442619Y-62158714D01*
X175537857Y-62111095D01*
X175585476Y-62111095D01*
X175680714Y-62158714D01*
X175728333Y-62206333D01*
X175775952Y-62301571D01*
X175775952Y-62492048D01*
X175823571Y-62587286D01*
X175871190Y-62634905D01*
X175966429Y-62682524D01*
X176156905Y-62682524D01*
X176252143Y-62634905D01*
X176299762Y-62587286D01*
X176347381Y-62492048D01*
X176347381Y-62301571D01*
X176299762Y-62206333D01*
X176252143Y-62158714D01*
X176156905Y-62111095D01*
X175966429Y-62111095D01*
X175871190Y-62158714D01*
X175823571Y-62206333D01*
X175775952Y-62301571D01*
X137406143Y-100306143D02*
X137358524Y-100353762D01*
X137215667Y-100401381D01*
X137120429Y-100401381D01*
X136977571Y-100353762D01*
X136882333Y-100258524D01*
X136834714Y-100163286D01*
X136787095Y-99972810D01*
X136787095Y-99829952D01*
X136834714Y-99639476D01*
X136882333Y-99544238D01*
X136977571Y-99449000D01*
X137120429Y-99401381D01*
X137215667Y-99401381D01*
X137358524Y-99449000D01*
X137406143Y-99496619D01*
X137787095Y-99496619D02*
X137834714Y-99449000D01*
X137929952Y-99401381D01*
X138168048Y-99401381D01*
X138263286Y-99449000D01*
X138310905Y-99496619D01*
X138358524Y-99591857D01*
X138358524Y-99687095D01*
X138310905Y-99829952D01*
X137739476Y-100401381D01*
X138358524Y-100401381D01*
X138739476Y-99496619D02*
X138787095Y-99449000D01*
X138882333Y-99401381D01*
X139120429Y-99401381D01*
X139215667Y-99449000D01*
X139263286Y-99496619D01*
X139310905Y-99591857D01*
X139310905Y-99687095D01*
X139263286Y-99829952D01*
X138691857Y-100401381D01*
X139310905Y-100401381D01*
X139438143Y-116562143D02*
X139390524Y-116609762D01*
X139247667Y-116657381D01*
X139152429Y-116657381D01*
X139009571Y-116609762D01*
X138914333Y-116514524D01*
X138866714Y-116419286D01*
X138819095Y-116228810D01*
X138819095Y-116085952D01*
X138866714Y-115895476D01*
X138914333Y-115800238D01*
X139009571Y-115705000D01*
X139152429Y-115657381D01*
X139247667Y-115657381D01*
X139390524Y-115705000D01*
X139438143Y-115752619D01*
X139819095Y-115752619D02*
X139866714Y-115705000D01*
X139961952Y-115657381D01*
X140200048Y-115657381D01*
X140295286Y-115705000D01*
X140342905Y-115752619D01*
X140390524Y-115847857D01*
X140390524Y-115943095D01*
X140342905Y-116085952D01*
X139771476Y-116657381D01*
X140390524Y-116657381D01*
X140723857Y-115657381D02*
X141342905Y-115657381D01*
X141009571Y-116038333D01*
X141152429Y-116038333D01*
X141247667Y-116085952D01*
X141295286Y-116133571D01*
X141342905Y-116228810D01*
X141342905Y-116466905D01*
X141295286Y-116562143D01*
X141247667Y-116609762D01*
X141152429Y-116657381D01*
X140866714Y-116657381D01*
X140771476Y-116609762D01*
X140723857Y-116562143D01*
X124960143Y-115292143D02*
X124912524Y-115339762D01*
X124769667Y-115387381D01*
X124674429Y-115387381D01*
X124531571Y-115339762D01*
X124436333Y-115244524D01*
X124388714Y-115149286D01*
X124341095Y-114958810D01*
X124341095Y-114815952D01*
X124388714Y-114625476D01*
X124436333Y-114530238D01*
X124531571Y-114435000D01*
X124674429Y-114387381D01*
X124769667Y-114387381D01*
X124912524Y-114435000D01*
X124960143Y-114482619D01*
X125341095Y-114482619D02*
X125388714Y-114435000D01*
X125483952Y-114387381D01*
X125722048Y-114387381D01*
X125817286Y-114435000D01*
X125864905Y-114482619D01*
X125912524Y-114577857D01*
X125912524Y-114673095D01*
X125864905Y-114815952D01*
X125293476Y-115387381D01*
X125912524Y-115387381D01*
X126769667Y-114720714D02*
X126769667Y-115387381D01*
X126531571Y-114339762D02*
X126293476Y-115054048D01*
X126912524Y-115054048D01*
X181022667Y-86320381D02*
X181022667Y-87034667D01*
X180975047Y-87177524D01*
X180879809Y-87272762D01*
X180736952Y-87320381D01*
X180641714Y-87320381D01*
X182022667Y-87320381D02*
X181451238Y-87320381D01*
X181736952Y-87320381D02*
X181736952Y-86320381D01*
X181641714Y-86463238D01*
X181546476Y-86558476D01*
X181451238Y-86606095D01*
X119594334Y-95067381D02*
X119261000Y-94591190D01*
X119022905Y-95067381D02*
X119022905Y-94067381D01*
X119403858Y-94067381D01*
X119499096Y-94115000D01*
X119546715Y-94162619D01*
X119594334Y-94257857D01*
X119594334Y-94400714D01*
X119546715Y-94495952D01*
X119499096Y-94543571D01*
X119403858Y-94591190D01*
X119022905Y-94591190D01*
X120546715Y-95067381D02*
X119975286Y-95067381D01*
X120261000Y-95067381D02*
X120261000Y-94067381D01*
X120165762Y-94210238D01*
X120070524Y-94305476D01*
X119975286Y-94353095D01*
X177887334Y-56459381D02*
X177554000Y-55983190D01*
X177315905Y-56459381D02*
X177315905Y-55459381D01*
X177696858Y-55459381D01*
X177792096Y-55507000D01*
X177839715Y-55554619D01*
X177887334Y-55649857D01*
X177887334Y-55792714D01*
X177839715Y-55887952D01*
X177792096Y-55935571D01*
X177696858Y-55983190D01*
X177315905Y-55983190D01*
X178220667Y-55459381D02*
X178839715Y-55459381D01*
X178506381Y-55840333D01*
X178649239Y-55840333D01*
X178744477Y-55887952D01*
X178792096Y-55935571D01*
X178839715Y-56030810D01*
X178839715Y-56268905D01*
X178792096Y-56364143D01*
X178744477Y-56411762D01*
X178649239Y-56459381D01*
X178363524Y-56459381D01*
X178268286Y-56411762D01*
X178220667Y-56364143D01*
X177887334Y-53919381D02*
X177554000Y-53443190D01*
X177315905Y-53919381D02*
X177315905Y-52919381D01*
X177696858Y-52919381D01*
X177792096Y-52967000D01*
X177839715Y-53014619D01*
X177887334Y-53109857D01*
X177887334Y-53252714D01*
X177839715Y-53347952D01*
X177792096Y-53395571D01*
X177696858Y-53443190D01*
X177315905Y-53443190D01*
X178744477Y-53252714D02*
X178744477Y-53919381D01*
X178506381Y-52871762D02*
X178268286Y-53586048D01*
X178887334Y-53586048D01*
X158059381Y-101639666D02*
X157583190Y-101973000D01*
X158059381Y-102211095D02*
X157059381Y-102211095D01*
X157059381Y-101830142D01*
X157107000Y-101734904D01*
X157154619Y-101687285D01*
X157249857Y-101639666D01*
X157392714Y-101639666D01*
X157487952Y-101687285D01*
X157535571Y-101734904D01*
X157583190Y-101830142D01*
X157583190Y-102211095D01*
X157059381Y-100734904D02*
X157059381Y-101211095D01*
X157535571Y-101258714D01*
X157487952Y-101211095D01*
X157440333Y-101115857D01*
X157440333Y-100877761D01*
X157487952Y-100782523D01*
X157535571Y-100734904D01*
X157630810Y-100687285D01*
X157868905Y-100687285D01*
X157964143Y-100734904D01*
X158011762Y-100782523D01*
X158059381Y-100877761D01*
X158059381Y-101115857D01*
X158011762Y-101211095D01*
X157964143Y-101258714D01*
X156154381Y-90209666D02*
X155678190Y-90543000D01*
X156154381Y-90781095D02*
X155154381Y-90781095D01*
X155154381Y-90400142D01*
X155202000Y-90304904D01*
X155249619Y-90257285D01*
X155344857Y-90209666D01*
X155487714Y-90209666D01*
X155582952Y-90257285D01*
X155630571Y-90304904D01*
X155678190Y-90400142D01*
X155678190Y-90781095D01*
X155154381Y-89352523D02*
X155154381Y-89543000D01*
X155202000Y-89638238D01*
X155249619Y-89685857D01*
X155392476Y-89781095D01*
X155582952Y-89828714D01*
X155963905Y-89828714D01*
X156059143Y-89781095D01*
X156106762Y-89733476D01*
X156154381Y-89638238D01*
X156154381Y-89447761D01*
X156106762Y-89352523D01*
X156059143Y-89304904D01*
X155963905Y-89257285D01*
X155725810Y-89257285D01*
X155630571Y-89304904D01*
X155582952Y-89352523D01*
X155535333Y-89447761D01*
X155535333Y-89638238D01*
X155582952Y-89733476D01*
X155630571Y-89781095D01*
X155725810Y-89828714D01*
X173299381Y-84621666D02*
X172823190Y-84955000D01*
X173299381Y-85193095D02*
X172299381Y-85193095D01*
X172299381Y-84812142D01*
X172347000Y-84716904D01*
X172394619Y-84669285D01*
X172489857Y-84621666D01*
X172632714Y-84621666D01*
X172727952Y-84669285D01*
X172775571Y-84716904D01*
X172823190Y-84812142D01*
X172823190Y-85193095D01*
X172299381Y-84288333D02*
X172299381Y-83621666D01*
X173299381Y-84050238D01*
X160742334Y-78235381D02*
X160409000Y-77759190D01*
X160170905Y-78235381D02*
X160170905Y-77235381D01*
X160551858Y-77235381D01*
X160647096Y-77283000D01*
X160694715Y-77330619D01*
X160742334Y-77425857D01*
X160742334Y-77568714D01*
X160694715Y-77663952D01*
X160647096Y-77711571D01*
X160551858Y-77759190D01*
X160170905Y-77759190D01*
X161313762Y-77663952D02*
X161218524Y-77616333D01*
X161170905Y-77568714D01*
X161123286Y-77473476D01*
X161123286Y-77425857D01*
X161170905Y-77330619D01*
X161218524Y-77283000D01*
X161313762Y-77235381D01*
X161504239Y-77235381D01*
X161599477Y-77283000D01*
X161647096Y-77330619D01*
X161694715Y-77425857D01*
X161694715Y-77473476D01*
X161647096Y-77568714D01*
X161599477Y-77616333D01*
X161504239Y-77663952D01*
X161313762Y-77663952D01*
X161218524Y-77711571D01*
X161170905Y-77759190D01*
X161123286Y-77854429D01*
X161123286Y-78044905D01*
X161170905Y-78140143D01*
X161218524Y-78187762D01*
X161313762Y-78235381D01*
X161504239Y-78235381D01*
X161599477Y-78187762D01*
X161647096Y-78140143D01*
X161694715Y-78044905D01*
X161694715Y-77854429D01*
X161647096Y-77759190D01*
X161599477Y-77711571D01*
X161504239Y-77663952D01*
X157805381Y-80049666D02*
X157329190Y-80383000D01*
X157805381Y-80621095D02*
X156805381Y-80621095D01*
X156805381Y-80240142D01*
X156853000Y-80144904D01*
X156900619Y-80097285D01*
X156995857Y-80049666D01*
X157138714Y-80049666D01*
X157233952Y-80097285D01*
X157281571Y-80144904D01*
X157329190Y-80240142D01*
X157329190Y-80621095D01*
X157805381Y-79573476D02*
X157805381Y-79383000D01*
X157757762Y-79287761D01*
X157710143Y-79240142D01*
X157567286Y-79144904D01*
X157376810Y-79097285D01*
X156995857Y-79097285D01*
X156900619Y-79144904D01*
X156853000Y-79192523D01*
X156805381Y-79287761D01*
X156805381Y-79478238D01*
X156853000Y-79573476D01*
X156900619Y-79621095D01*
X156995857Y-79668714D01*
X157233952Y-79668714D01*
X157329190Y-79621095D01*
X157376810Y-79573476D01*
X157424429Y-79478238D01*
X157424429Y-79287761D01*
X157376810Y-79192523D01*
X157329190Y-79144904D01*
X157233952Y-79097285D01*
X169108381Y-83192857D02*
X168632190Y-83526191D01*
X169108381Y-83764286D02*
X168108381Y-83764286D01*
X168108381Y-83383333D01*
X168156000Y-83288095D01*
X168203619Y-83240476D01*
X168298857Y-83192857D01*
X168441714Y-83192857D01*
X168536952Y-83240476D01*
X168584571Y-83288095D01*
X168632190Y-83383333D01*
X168632190Y-83764286D01*
X169108381Y-82240476D02*
X169108381Y-82811905D01*
X169108381Y-82526191D02*
X168108381Y-82526191D01*
X168251238Y-82621429D01*
X168346476Y-82716667D01*
X168394095Y-82811905D01*
X168108381Y-81621429D02*
X168108381Y-81526190D01*
X168156000Y-81430952D01*
X168203619Y-81383333D01*
X168298857Y-81335714D01*
X168489333Y-81288095D01*
X168727429Y-81288095D01*
X168917905Y-81335714D01*
X169013143Y-81383333D01*
X169060762Y-81430952D01*
X169108381Y-81526190D01*
X169108381Y-81621429D01*
X169060762Y-81716667D01*
X169013143Y-81764286D01*
X168917905Y-81811905D01*
X168727429Y-81859524D01*
X168489333Y-81859524D01*
X168298857Y-81811905D01*
X168203619Y-81764286D01*
X168156000Y-81716667D01*
X168108381Y-81621429D01*
X113169381Y-99829857D02*
X112693190Y-100163191D01*
X113169381Y-100401286D02*
X112169381Y-100401286D01*
X112169381Y-100020333D01*
X112217000Y-99925095D01*
X112264619Y-99877476D01*
X112359857Y-99829857D01*
X112502714Y-99829857D01*
X112597952Y-99877476D01*
X112645571Y-99925095D01*
X112693190Y-100020333D01*
X112693190Y-100401286D01*
X113169381Y-98877476D02*
X113169381Y-99448905D01*
X113169381Y-99163191D02*
X112169381Y-99163191D01*
X112312238Y-99258429D01*
X112407476Y-99353667D01*
X112455095Y-99448905D01*
X113169381Y-97925095D02*
X113169381Y-98496524D01*
X113169381Y-98210810D02*
X112169381Y-98210810D01*
X112312238Y-98306048D01*
X112407476Y-98401286D01*
X112455095Y-98496524D01*
X108783381Y-103766857D02*
X108307190Y-104100191D01*
X108783381Y-104338286D02*
X107783381Y-104338286D01*
X107783381Y-103957333D01*
X107831000Y-103862095D01*
X107878619Y-103814476D01*
X107973857Y-103766857D01*
X108116714Y-103766857D01*
X108211952Y-103814476D01*
X108259571Y-103862095D01*
X108307190Y-103957333D01*
X108307190Y-104338286D01*
X108783381Y-102814476D02*
X108783381Y-103385905D01*
X108783381Y-103100191D02*
X107783381Y-103100191D01*
X107926238Y-103195429D01*
X108021476Y-103290667D01*
X108069095Y-103385905D01*
X107878619Y-102433524D02*
X107831000Y-102385905D01*
X107783381Y-102290667D01*
X107783381Y-102052571D01*
X107831000Y-101957333D01*
X107878619Y-101909714D01*
X107973857Y-101862095D01*
X108069095Y-101862095D01*
X108211952Y-101909714D01*
X108783381Y-102481143D01*
X108783381Y-101862095D01*
X139692143Y-58872381D02*
X139358809Y-58396190D01*
X139120714Y-58872381D02*
X139120714Y-57872381D01*
X139501667Y-57872381D01*
X139596905Y-57920000D01*
X139644524Y-57967619D01*
X139692143Y-58062857D01*
X139692143Y-58205714D01*
X139644524Y-58300952D01*
X139596905Y-58348571D01*
X139501667Y-58396190D01*
X139120714Y-58396190D01*
X140644524Y-58872381D02*
X140073095Y-58872381D01*
X140358809Y-58872381D02*
X140358809Y-57872381D01*
X140263571Y-58015238D01*
X140168333Y-58110476D01*
X140073095Y-58158095D01*
X140977857Y-57872381D02*
X141596905Y-57872381D01*
X141263571Y-58253333D01*
X141406429Y-58253333D01*
X141501667Y-58300952D01*
X141549286Y-58348571D01*
X141596905Y-58443810D01*
X141596905Y-58681905D01*
X141549286Y-58777143D01*
X141501667Y-58824762D01*
X141406429Y-58872381D01*
X141120714Y-58872381D01*
X141025476Y-58824762D01*
X140977857Y-58777143D01*
X139692143Y-56332381D02*
X139358809Y-55856190D01*
X139120714Y-56332381D02*
X139120714Y-55332381D01*
X139501667Y-55332381D01*
X139596905Y-55380000D01*
X139644524Y-55427619D01*
X139692143Y-55522857D01*
X139692143Y-55665714D01*
X139644524Y-55760952D01*
X139596905Y-55808571D01*
X139501667Y-55856190D01*
X139120714Y-55856190D01*
X140644524Y-56332381D02*
X140073095Y-56332381D01*
X140358809Y-56332381D02*
X140358809Y-55332381D01*
X140263571Y-55475238D01*
X140168333Y-55570476D01*
X140073095Y-55618095D01*
X141501667Y-55665714D02*
X141501667Y-56332381D01*
X141263571Y-55284762D02*
X141025476Y-55999048D01*
X141644524Y-55999048D01*
X111323381Y-112148857D02*
X110847190Y-112482191D01*
X111323381Y-112720286D02*
X110323381Y-112720286D01*
X110323381Y-112339333D01*
X110371000Y-112244095D01*
X110418619Y-112196476D01*
X110513857Y-112148857D01*
X110656714Y-112148857D01*
X110751952Y-112196476D01*
X110799571Y-112244095D01*
X110847190Y-112339333D01*
X110847190Y-112720286D01*
X111323381Y-111196476D02*
X111323381Y-111767905D01*
X111323381Y-111482191D02*
X110323381Y-111482191D01*
X110466238Y-111577429D01*
X110561476Y-111672667D01*
X110609095Y-111767905D01*
X110323381Y-110291714D02*
X110323381Y-110767905D01*
X110799571Y-110815524D01*
X110751952Y-110767905D01*
X110704333Y-110672667D01*
X110704333Y-110434571D01*
X110751952Y-110339333D01*
X110799571Y-110291714D01*
X110894810Y-110244095D01*
X111132905Y-110244095D01*
X111228143Y-110291714D01*
X111275762Y-110339333D01*
X111323381Y-110434571D01*
X111323381Y-110672667D01*
X111275762Y-110767905D01*
X111228143Y-110815524D01*
X135707381Y-53347857D02*
X135231190Y-53681191D01*
X135707381Y-53919286D02*
X134707381Y-53919286D01*
X134707381Y-53538333D01*
X134755000Y-53443095D01*
X134802619Y-53395476D01*
X134897857Y-53347857D01*
X135040714Y-53347857D01*
X135135952Y-53395476D01*
X135183571Y-53443095D01*
X135231190Y-53538333D01*
X135231190Y-53919286D01*
X135707381Y-52395476D02*
X135707381Y-52966905D01*
X135707381Y-52681191D02*
X134707381Y-52681191D01*
X134850238Y-52776429D01*
X134945476Y-52871667D01*
X134993095Y-52966905D01*
X134707381Y-51538333D02*
X134707381Y-51728810D01*
X134755000Y-51824048D01*
X134802619Y-51871667D01*
X134945476Y-51966905D01*
X135135952Y-52014524D01*
X135516905Y-52014524D01*
X135612143Y-51966905D01*
X135659762Y-51919286D01*
X135707381Y-51824048D01*
X135707381Y-51633571D01*
X135659762Y-51538333D01*
X135612143Y-51490714D01*
X135516905Y-51443095D01*
X135278810Y-51443095D01*
X135183571Y-51490714D01*
X135135952Y-51538333D01*
X135088333Y-51633571D01*
X135088333Y-51824048D01*
X135135952Y-51919286D01*
X135183571Y-51966905D01*
X135278810Y-52014524D01*
X117848143Y-108021381D02*
X117514809Y-107545190D01*
X117276714Y-108021381D02*
X117276714Y-107021381D01*
X117657667Y-107021381D01*
X117752905Y-107069000D01*
X117800524Y-107116619D01*
X117848143Y-107211857D01*
X117848143Y-107354714D01*
X117800524Y-107449952D01*
X117752905Y-107497571D01*
X117657667Y-107545190D01*
X117276714Y-107545190D01*
X118800524Y-108021381D02*
X118229095Y-108021381D01*
X118514809Y-108021381D02*
X118514809Y-107021381D01*
X118419571Y-107164238D01*
X118324333Y-107259476D01*
X118229095Y-107307095D01*
X119133857Y-107021381D02*
X119800524Y-107021381D01*
X119371952Y-108021381D01*
X134929643Y-49156881D02*
X134596309Y-48680690D01*
X134358214Y-49156881D02*
X134358214Y-48156881D01*
X134739167Y-48156881D01*
X134834405Y-48204500D01*
X134882024Y-48252119D01*
X134929643Y-48347357D01*
X134929643Y-48490214D01*
X134882024Y-48585452D01*
X134834405Y-48633071D01*
X134739167Y-48680690D01*
X134358214Y-48680690D01*
X135882024Y-49156881D02*
X135310595Y-49156881D01*
X135596309Y-49156881D02*
X135596309Y-48156881D01*
X135501071Y-48299738D01*
X135405833Y-48394976D01*
X135310595Y-48442595D01*
X136453452Y-48585452D02*
X136358214Y-48537833D01*
X136310595Y-48490214D01*
X136262976Y-48394976D01*
X136262976Y-48347357D01*
X136310595Y-48252119D01*
X136358214Y-48204500D01*
X136453452Y-48156881D01*
X136643929Y-48156881D01*
X136739167Y-48204500D01*
X136786786Y-48252119D01*
X136834405Y-48347357D01*
X136834405Y-48394976D01*
X136786786Y-48490214D01*
X136739167Y-48537833D01*
X136643929Y-48585452D01*
X136453452Y-48585452D01*
X136358214Y-48633071D01*
X136310595Y-48680690D01*
X136262976Y-48775929D01*
X136262976Y-48966405D01*
X136310595Y-49061643D01*
X136358214Y-49109262D01*
X136453452Y-49156881D01*
X136643929Y-49156881D01*
X136739167Y-49109262D01*
X136786786Y-49061643D01*
X136834405Y-48966405D01*
X136834405Y-48775929D01*
X136786786Y-48680690D01*
X136739167Y-48633071D01*
X136643929Y-48585452D01*
X108910381Y-112275857D02*
X108434190Y-112609191D01*
X108910381Y-112847286D02*
X107910381Y-112847286D01*
X107910381Y-112466333D01*
X107958000Y-112371095D01*
X108005619Y-112323476D01*
X108100857Y-112275857D01*
X108243714Y-112275857D01*
X108338952Y-112323476D01*
X108386571Y-112371095D01*
X108434190Y-112466333D01*
X108434190Y-112847286D01*
X108910381Y-111323476D02*
X108910381Y-111894905D01*
X108910381Y-111609191D02*
X107910381Y-111609191D01*
X108053238Y-111704429D01*
X108148476Y-111799667D01*
X108196095Y-111894905D01*
X108910381Y-110847286D02*
X108910381Y-110656810D01*
X108862762Y-110561571D01*
X108815143Y-110513952D01*
X108672286Y-110418714D01*
X108481810Y-110371095D01*
X108100857Y-110371095D01*
X108005619Y-110418714D01*
X107958000Y-110466333D01*
X107910381Y-110561571D01*
X107910381Y-110752048D01*
X107958000Y-110847286D01*
X108005619Y-110894905D01*
X108100857Y-110942524D01*
X108338952Y-110942524D01*
X108434190Y-110894905D01*
X108481810Y-110847286D01*
X108529429Y-110752048D01*
X108529429Y-110561571D01*
X108481810Y-110466333D01*
X108434190Y-110418714D01*
X108338952Y-110371095D01*
X123690143Y-72461381D02*
X123356809Y-71985190D01*
X123118714Y-72461381D02*
X123118714Y-71461381D01*
X123499667Y-71461381D01*
X123594905Y-71509000D01*
X123642524Y-71556619D01*
X123690143Y-71651857D01*
X123690143Y-71794714D01*
X123642524Y-71889952D01*
X123594905Y-71937571D01*
X123499667Y-71985190D01*
X123118714Y-71985190D01*
X124071095Y-71556619D02*
X124118714Y-71509000D01*
X124213952Y-71461381D01*
X124452048Y-71461381D01*
X124547286Y-71509000D01*
X124594905Y-71556619D01*
X124642524Y-71651857D01*
X124642524Y-71747095D01*
X124594905Y-71889952D01*
X124023476Y-72461381D01*
X124642524Y-72461381D01*
X125261571Y-71461381D02*
X125356810Y-71461381D01*
X125452048Y-71509000D01*
X125499667Y-71556619D01*
X125547286Y-71651857D01*
X125594905Y-71842333D01*
X125594905Y-72080429D01*
X125547286Y-72270905D01*
X125499667Y-72366143D01*
X125452048Y-72413762D01*
X125356810Y-72461381D01*
X125261571Y-72461381D01*
X125166333Y-72413762D01*
X125118714Y-72366143D01*
X125071095Y-72270905D01*
X125023476Y-72080429D01*
X125023476Y-71842333D01*
X125071095Y-71651857D01*
X125118714Y-71556619D01*
X125166333Y-71509000D01*
X125261571Y-71461381D01*
X124277381Y-64523857D02*
X123801190Y-64857191D01*
X124277381Y-65095286D02*
X123277381Y-65095286D01*
X123277381Y-64714333D01*
X123325000Y-64619095D01*
X123372619Y-64571476D01*
X123467857Y-64523857D01*
X123610714Y-64523857D01*
X123705952Y-64571476D01*
X123753571Y-64619095D01*
X123801190Y-64714333D01*
X123801190Y-65095286D01*
X123372619Y-64142905D02*
X123325000Y-64095286D01*
X123277381Y-64000048D01*
X123277381Y-63761952D01*
X123325000Y-63666714D01*
X123372619Y-63619095D01*
X123467857Y-63571476D01*
X123563095Y-63571476D01*
X123705952Y-63619095D01*
X124277381Y-64190524D01*
X124277381Y-63571476D01*
X123277381Y-63238143D02*
X123277381Y-62619095D01*
X123658333Y-62952429D01*
X123658333Y-62809571D01*
X123705952Y-62714333D01*
X123753571Y-62666714D01*
X123848810Y-62619095D01*
X124086905Y-62619095D01*
X124182143Y-62666714D01*
X124229762Y-62714333D01*
X124277381Y-62809571D01*
X124277381Y-63095286D01*
X124229762Y-63190524D01*
X124182143Y-63238143D01*
X178379381Y-69349857D02*
X177903190Y-69683191D01*
X178379381Y-69921286D02*
X177379381Y-69921286D01*
X177379381Y-69540333D01*
X177427000Y-69445095D01*
X177474619Y-69397476D01*
X177569857Y-69349857D01*
X177712714Y-69349857D01*
X177807952Y-69397476D01*
X177855571Y-69445095D01*
X177903190Y-69540333D01*
X177903190Y-69921286D01*
X177474619Y-68968905D02*
X177427000Y-68921286D01*
X177379381Y-68826048D01*
X177379381Y-68587952D01*
X177427000Y-68492714D01*
X177474619Y-68445095D01*
X177569857Y-68397476D01*
X177665095Y-68397476D01*
X177807952Y-68445095D01*
X178379381Y-69016524D01*
X178379381Y-68397476D01*
X177379381Y-67492714D02*
X177379381Y-67968905D01*
X177855571Y-68016524D01*
X177807952Y-67968905D01*
X177760333Y-67873667D01*
X177760333Y-67635571D01*
X177807952Y-67540333D01*
X177855571Y-67492714D01*
X177950810Y-67445095D01*
X178188905Y-67445095D01*
X178284143Y-67492714D01*
X178331762Y-67540333D01*
X178379381Y-67635571D01*
X178379381Y-67873667D01*
X178331762Y-67968905D01*
X178284143Y-68016524D01*
X173807381Y-73413857D02*
X173331190Y-73747191D01*
X173807381Y-73985286D02*
X172807381Y-73985286D01*
X172807381Y-73604333D01*
X172855000Y-73509095D01*
X172902619Y-73461476D01*
X172997857Y-73413857D01*
X173140714Y-73413857D01*
X173235952Y-73461476D01*
X173283571Y-73509095D01*
X173331190Y-73604333D01*
X173331190Y-73985286D01*
X172902619Y-73032905D02*
X172855000Y-72985286D01*
X172807381Y-72890048D01*
X172807381Y-72651952D01*
X172855000Y-72556714D01*
X172902619Y-72509095D01*
X172997857Y-72461476D01*
X173093095Y-72461476D01*
X173235952Y-72509095D01*
X173807381Y-73080524D01*
X173807381Y-72461476D01*
X172807381Y-71604333D02*
X172807381Y-71794810D01*
X172855000Y-71890048D01*
X172902619Y-71937667D01*
X173045476Y-72032905D01*
X173235952Y-72080524D01*
X173616905Y-72080524D01*
X173712143Y-72032905D01*
X173759762Y-71985286D01*
X173807381Y-71890048D01*
X173807381Y-71699571D01*
X173759762Y-71604333D01*
X173712143Y-71556714D01*
X173616905Y-71509095D01*
X173378810Y-71509095D01*
X173283571Y-71556714D01*
X173235952Y-71604333D01*
X173188333Y-71699571D01*
X173188333Y-71890048D01*
X173235952Y-71985286D01*
X173283571Y-72032905D01*
X173378810Y-72080524D01*
X171521381Y-73413857D02*
X171045190Y-73747191D01*
X171521381Y-73985286D02*
X170521381Y-73985286D01*
X170521381Y-73604333D01*
X170569000Y-73509095D01*
X170616619Y-73461476D01*
X170711857Y-73413857D01*
X170854714Y-73413857D01*
X170949952Y-73461476D01*
X170997571Y-73509095D01*
X171045190Y-73604333D01*
X171045190Y-73985286D01*
X170616619Y-73032905D02*
X170569000Y-72985286D01*
X170521381Y-72890048D01*
X170521381Y-72651952D01*
X170569000Y-72556714D01*
X170616619Y-72509095D01*
X170711857Y-72461476D01*
X170807095Y-72461476D01*
X170949952Y-72509095D01*
X171521381Y-73080524D01*
X171521381Y-72461476D01*
X170521381Y-72128143D02*
X170521381Y-71461476D01*
X171521381Y-71890048D01*
X136596381Y-112529857D02*
X136120190Y-112863191D01*
X136596381Y-113101286D02*
X135596381Y-113101286D01*
X135596381Y-112720333D01*
X135644000Y-112625095D01*
X135691619Y-112577476D01*
X135786857Y-112529857D01*
X135929714Y-112529857D01*
X136024952Y-112577476D01*
X136072571Y-112625095D01*
X136120190Y-112720333D01*
X136120190Y-113101286D01*
X135691619Y-112148905D02*
X135644000Y-112101286D01*
X135596381Y-112006048D01*
X135596381Y-111767952D01*
X135644000Y-111672714D01*
X135691619Y-111625095D01*
X135786857Y-111577476D01*
X135882095Y-111577476D01*
X136024952Y-111625095D01*
X136596381Y-112196524D01*
X136596381Y-111577476D01*
X136024952Y-111006048D02*
X135977333Y-111101286D01*
X135929714Y-111148905D01*
X135834476Y-111196524D01*
X135786857Y-111196524D01*
X135691619Y-111148905D01*
X135644000Y-111101286D01*
X135596381Y-111006048D01*
X135596381Y-110815571D01*
X135644000Y-110720333D01*
X135691619Y-110672714D01*
X135786857Y-110625095D01*
X135834476Y-110625095D01*
X135929714Y-110672714D01*
X135977333Y-110720333D01*
X136024952Y-110815571D01*
X136024952Y-111006048D01*
X136072571Y-111101286D01*
X136120190Y-111148905D01*
X136215429Y-111196524D01*
X136405905Y-111196524D01*
X136501143Y-111148905D01*
X136548762Y-111101286D01*
X136596381Y-111006048D01*
X136596381Y-110815571D01*
X136548762Y-110720333D01*
X136501143Y-110672714D01*
X136405905Y-110625095D01*
X136215429Y-110625095D01*
X136120190Y-110672714D01*
X136072571Y-110720333D01*
X136024952Y-110815571D01*
X136977381Y-105417857D02*
X136501190Y-105751191D01*
X136977381Y-105989286D02*
X135977381Y-105989286D01*
X135977381Y-105608333D01*
X136025000Y-105513095D01*
X136072619Y-105465476D01*
X136167857Y-105417857D01*
X136310714Y-105417857D01*
X136405952Y-105465476D01*
X136453571Y-105513095D01*
X136501190Y-105608333D01*
X136501190Y-105989286D01*
X136072619Y-105036905D02*
X136025000Y-104989286D01*
X135977381Y-104894048D01*
X135977381Y-104655952D01*
X136025000Y-104560714D01*
X136072619Y-104513095D01*
X136167857Y-104465476D01*
X136263095Y-104465476D01*
X136405952Y-104513095D01*
X136977381Y-105084524D01*
X136977381Y-104465476D01*
X136977381Y-103989286D02*
X136977381Y-103798810D01*
X136929762Y-103703571D01*
X136882143Y-103655952D01*
X136739286Y-103560714D01*
X136548810Y-103513095D01*
X136167857Y-103513095D01*
X136072619Y-103560714D01*
X136025000Y-103608333D01*
X135977381Y-103703571D01*
X135977381Y-103894048D01*
X136025000Y-103989286D01*
X136072619Y-104036905D01*
X136167857Y-104084524D01*
X136405952Y-104084524D01*
X136501190Y-104036905D01*
X136548810Y-103989286D01*
X136596429Y-103894048D01*
X136596429Y-103703571D01*
X136548810Y-103608333D01*
X136501190Y-103560714D01*
X136405952Y-103513095D01*
X122753381Y-99829857D02*
X122277190Y-100163191D01*
X122753381Y-100401286D02*
X121753381Y-100401286D01*
X121753381Y-100020333D01*
X121801000Y-99925095D01*
X121848619Y-99877476D01*
X121943857Y-99829857D01*
X122086714Y-99829857D01*
X122181952Y-99877476D01*
X122229571Y-99925095D01*
X122277190Y-100020333D01*
X122277190Y-100401286D01*
X121753381Y-99496524D02*
X121753381Y-98877476D01*
X122134333Y-99210810D01*
X122134333Y-99067952D01*
X122181952Y-98972714D01*
X122229571Y-98925095D01*
X122324810Y-98877476D01*
X122562905Y-98877476D01*
X122658143Y-98925095D01*
X122705762Y-98972714D01*
X122753381Y-99067952D01*
X122753381Y-99353667D01*
X122705762Y-99448905D01*
X122658143Y-99496524D01*
X121753381Y-98258429D02*
X121753381Y-98163190D01*
X121801000Y-98067952D01*
X121848619Y-98020333D01*
X121943857Y-97972714D01*
X122134333Y-97925095D01*
X122372429Y-97925095D01*
X122562905Y-97972714D01*
X122658143Y-98020333D01*
X122705762Y-98067952D01*
X122753381Y-98163190D01*
X122753381Y-98258429D01*
X122705762Y-98353667D01*
X122658143Y-98401286D01*
X122562905Y-98448905D01*
X122372429Y-98496524D01*
X122134333Y-98496524D01*
X121943857Y-98448905D01*
X121848619Y-98401286D01*
X121801000Y-98353667D01*
X121753381Y-98258429D01*
X133596143Y-96083381D02*
X133262809Y-95607190D01*
X133024714Y-96083381D02*
X133024714Y-95083381D01*
X133405667Y-95083381D01*
X133500905Y-95131000D01*
X133548524Y-95178619D01*
X133596143Y-95273857D01*
X133596143Y-95416714D01*
X133548524Y-95511952D01*
X133500905Y-95559571D01*
X133405667Y-95607190D01*
X133024714Y-95607190D01*
X133929476Y-95083381D02*
X134548524Y-95083381D01*
X134215190Y-95464333D01*
X134358048Y-95464333D01*
X134453286Y-95511952D01*
X134500905Y-95559571D01*
X134548524Y-95654810D01*
X134548524Y-95892905D01*
X134500905Y-95988143D01*
X134453286Y-96035762D01*
X134358048Y-96083381D01*
X134072333Y-96083381D01*
X133977095Y-96035762D01*
X133929476Y-95988143D01*
X135500905Y-96083381D02*
X134929476Y-96083381D01*
X135215190Y-96083381D02*
X135215190Y-95083381D01*
X135119952Y-95226238D01*
X135024714Y-95321476D01*
X134929476Y-95369095D01*
X132659381Y-77731857D02*
X132183190Y-78065191D01*
X132659381Y-78303286D02*
X131659381Y-78303286D01*
X131659381Y-77922333D01*
X131707000Y-77827095D01*
X131754619Y-77779476D01*
X131849857Y-77731857D01*
X131992714Y-77731857D01*
X132087952Y-77779476D01*
X132135571Y-77827095D01*
X132183190Y-77922333D01*
X132183190Y-78303286D01*
X131659381Y-77398524D02*
X131659381Y-76779476D01*
X132040333Y-77112810D01*
X132040333Y-76969952D01*
X132087952Y-76874714D01*
X132135571Y-76827095D01*
X132230810Y-76779476D01*
X132468905Y-76779476D01*
X132564143Y-76827095D01*
X132611762Y-76874714D01*
X132659381Y-76969952D01*
X132659381Y-77255667D01*
X132611762Y-77350905D01*
X132564143Y-77398524D01*
X131754619Y-76398524D02*
X131707000Y-76350905D01*
X131659381Y-76255667D01*
X131659381Y-76017571D01*
X131707000Y-75922333D01*
X131754619Y-75874714D01*
X131849857Y-75827095D01*
X131945095Y-75827095D01*
X132087952Y-75874714D01*
X132659381Y-76446143D01*
X132659381Y-75827095D01*
X130119381Y-77985857D02*
X129643190Y-78319191D01*
X130119381Y-78557286D02*
X129119381Y-78557286D01*
X129119381Y-78176333D01*
X129167000Y-78081095D01*
X129214619Y-78033476D01*
X129309857Y-77985857D01*
X129452714Y-77985857D01*
X129547952Y-78033476D01*
X129595571Y-78081095D01*
X129643190Y-78176333D01*
X129643190Y-78557286D01*
X129119381Y-77652524D02*
X129119381Y-77033476D01*
X129500333Y-77366810D01*
X129500333Y-77223952D01*
X129547952Y-77128714D01*
X129595571Y-77081095D01*
X129690810Y-77033476D01*
X129928905Y-77033476D01*
X130024143Y-77081095D01*
X130071762Y-77128714D01*
X130119381Y-77223952D01*
X130119381Y-77509667D01*
X130071762Y-77604905D01*
X130024143Y-77652524D01*
X129119381Y-76700143D02*
X129119381Y-76081095D01*
X129500333Y-76414429D01*
X129500333Y-76271571D01*
X129547952Y-76176333D01*
X129595571Y-76128714D01*
X129690810Y-76081095D01*
X129928905Y-76081095D01*
X130024143Y-76128714D01*
X130071762Y-76176333D01*
X130119381Y-76271571D01*
X130119381Y-76557286D01*
X130071762Y-76652524D01*
X130024143Y-76700143D01*
X146248381Y-69730857D02*
X145772190Y-70064191D01*
X146248381Y-70302286D02*
X145248381Y-70302286D01*
X145248381Y-69921333D01*
X145296000Y-69826095D01*
X145343619Y-69778476D01*
X145438857Y-69730857D01*
X145581714Y-69730857D01*
X145676952Y-69778476D01*
X145724571Y-69826095D01*
X145772190Y-69921333D01*
X145772190Y-70302286D01*
X145248381Y-69397524D02*
X145248381Y-68778476D01*
X145629333Y-69111810D01*
X145629333Y-68968952D01*
X145676952Y-68873714D01*
X145724571Y-68826095D01*
X145819810Y-68778476D01*
X146057905Y-68778476D01*
X146153143Y-68826095D01*
X146200762Y-68873714D01*
X146248381Y-68968952D01*
X146248381Y-69254667D01*
X146200762Y-69349905D01*
X146153143Y-69397524D01*
X145248381Y-67873714D02*
X145248381Y-68349905D01*
X145724571Y-68397524D01*
X145676952Y-68349905D01*
X145629333Y-68254667D01*
X145629333Y-68016571D01*
X145676952Y-67921333D01*
X145724571Y-67873714D01*
X145819810Y-67826095D01*
X146057905Y-67826095D01*
X146153143Y-67873714D01*
X146200762Y-67921333D01*
X146248381Y-68016571D01*
X146248381Y-68254667D01*
X146200762Y-68349905D01*
X146153143Y-68397524D01*
X139946143Y-77287381D02*
X139612809Y-76811190D01*
X139374714Y-77287381D02*
X139374714Y-76287381D01*
X139755667Y-76287381D01*
X139850905Y-76335000D01*
X139898524Y-76382619D01*
X139946143Y-76477857D01*
X139946143Y-76620714D01*
X139898524Y-76715952D01*
X139850905Y-76763571D01*
X139755667Y-76811190D01*
X139374714Y-76811190D01*
X140279476Y-76287381D02*
X140898524Y-76287381D01*
X140565190Y-76668333D01*
X140708048Y-76668333D01*
X140803286Y-76715952D01*
X140850905Y-76763571D01*
X140898524Y-76858810D01*
X140898524Y-77096905D01*
X140850905Y-77192143D01*
X140803286Y-77239762D01*
X140708048Y-77287381D01*
X140422333Y-77287381D01*
X140327095Y-77239762D01*
X140279476Y-77192143D01*
X141755667Y-76287381D02*
X141565190Y-76287381D01*
X141469952Y-76335000D01*
X141422333Y-76382619D01*
X141327095Y-76525476D01*
X141279476Y-76715952D01*
X141279476Y-77096905D01*
X141327095Y-77192143D01*
X141374714Y-77239762D01*
X141469952Y-77287381D01*
X141660429Y-77287381D01*
X141755667Y-77239762D01*
X141803286Y-77192143D01*
X141850905Y-77096905D01*
X141850905Y-76858810D01*
X141803286Y-76763571D01*
X141755667Y-76715952D01*
X141660429Y-76668333D01*
X141469952Y-76668333D01*
X141374714Y-76715952D01*
X141327095Y-76763571D01*
X141279476Y-76858810D01*
X144089381Y-73921857D02*
X143613190Y-74255191D01*
X144089381Y-74493286D02*
X143089381Y-74493286D01*
X143089381Y-74112333D01*
X143137000Y-74017095D01*
X143184619Y-73969476D01*
X143279857Y-73921857D01*
X143422714Y-73921857D01*
X143517952Y-73969476D01*
X143565571Y-74017095D01*
X143613190Y-74112333D01*
X143613190Y-74493286D01*
X143089381Y-73588524D02*
X143089381Y-72969476D01*
X143470333Y-73302810D01*
X143470333Y-73159952D01*
X143517952Y-73064714D01*
X143565571Y-73017095D01*
X143660810Y-72969476D01*
X143898905Y-72969476D01*
X143994143Y-73017095D01*
X144041762Y-73064714D01*
X144089381Y-73159952D01*
X144089381Y-73445667D01*
X144041762Y-73540905D01*
X143994143Y-73588524D01*
X143517952Y-72398048D02*
X143470333Y-72493286D01*
X143422714Y-72540905D01*
X143327476Y-72588524D01*
X143279857Y-72588524D01*
X143184619Y-72540905D01*
X143137000Y-72493286D01*
X143089381Y-72398048D01*
X143089381Y-72207571D01*
X143137000Y-72112333D01*
X143184619Y-72064714D01*
X143279857Y-72017095D01*
X143327476Y-72017095D01*
X143422714Y-72064714D01*
X143470333Y-72112333D01*
X143517952Y-72207571D01*
X143517952Y-72398048D01*
X143565571Y-72493286D01*
X143613190Y-72540905D01*
X143708429Y-72588524D01*
X143898905Y-72588524D01*
X143994143Y-72540905D01*
X144041762Y-72493286D01*
X144089381Y-72398048D01*
X144089381Y-72207571D01*
X144041762Y-72112333D01*
X143994143Y-72064714D01*
X143898905Y-72017095D01*
X143708429Y-72017095D01*
X143613190Y-72064714D01*
X143565571Y-72112333D01*
X143517952Y-72207571D01*
X142184381Y-65285857D02*
X141708190Y-65619191D01*
X142184381Y-65857286D02*
X141184381Y-65857286D01*
X141184381Y-65476333D01*
X141232000Y-65381095D01*
X141279619Y-65333476D01*
X141374857Y-65285857D01*
X141517714Y-65285857D01*
X141612952Y-65333476D01*
X141660571Y-65381095D01*
X141708190Y-65476333D01*
X141708190Y-65857286D01*
X141517714Y-64428714D02*
X142184381Y-64428714D01*
X141136762Y-64666810D02*
X141851048Y-64904905D01*
X141851048Y-64285857D01*
X141184381Y-63714429D02*
X141184381Y-63619190D01*
X141232000Y-63523952D01*
X141279619Y-63476333D01*
X141374857Y-63428714D01*
X141565333Y-63381095D01*
X141803429Y-63381095D01*
X141993905Y-63428714D01*
X142089143Y-63476333D01*
X142136762Y-63523952D01*
X142184381Y-63619190D01*
X142184381Y-63714429D01*
X142136762Y-63809667D01*
X142089143Y-63857286D01*
X141993905Y-63904905D01*
X141803429Y-63952524D01*
X141565333Y-63952524D01*
X141374857Y-63904905D01*
X141279619Y-63857286D01*
X141232000Y-63809667D01*
X141184381Y-63714429D01*
X131564143Y-80716381D02*
X131230809Y-80240190D01*
X130992714Y-80716381D02*
X130992714Y-79716381D01*
X131373667Y-79716381D01*
X131468905Y-79764000D01*
X131516524Y-79811619D01*
X131564143Y-79906857D01*
X131564143Y-80049714D01*
X131516524Y-80144952D01*
X131468905Y-80192571D01*
X131373667Y-80240190D01*
X130992714Y-80240190D01*
X132421286Y-80049714D02*
X132421286Y-80716381D01*
X132183190Y-79668762D02*
X131945095Y-80383048D01*
X132564143Y-80383048D01*
X132897476Y-79811619D02*
X132945095Y-79764000D01*
X133040333Y-79716381D01*
X133278429Y-79716381D01*
X133373667Y-79764000D01*
X133421286Y-79811619D01*
X133468905Y-79906857D01*
X133468905Y-80002095D01*
X133421286Y-80144952D01*
X132849857Y-80716381D01*
X133468905Y-80716381D01*
X166203381Y-97964524D02*
X167203381Y-97297857D01*
X166203381Y-97297857D02*
X167203381Y-97964524D01*
X167203381Y-96393095D02*
X167203381Y-96964524D01*
X167203381Y-96678810D02*
X166203381Y-96678810D01*
X166346238Y-96774048D01*
X166441476Y-96869286D01*
X166489095Y-96964524D01*
X106190667Y-115944571D02*
X105857333Y-115944571D01*
X105857333Y-116468381D02*
X105857333Y-115468381D01*
X106333524Y-115468381D01*
X107238286Y-116468381D02*
X106666857Y-116468381D01*
X106952571Y-116468381D02*
X106952571Y-115468381D01*
X106857333Y-115611238D01*
X106762095Y-115706476D01*
X106666857Y-115754095D01*
X181356095Y-112466381D02*
X181356095Y-111466381D01*
X181356095Y-111942571D02*
X181927524Y-111942571D01*
X181927524Y-112466381D02*
X181927524Y-111466381D01*
X182927524Y-112466381D02*
X182356095Y-112466381D01*
X182641809Y-112466381D02*
X182641809Y-111466381D01*
X182546571Y-111609238D01*
X182451333Y-111704476D01*
X182356095Y-111752095D01*
X144780095Y-49934381D02*
X144780095Y-48934381D01*
X144780095Y-49410571D02*
X145351524Y-49410571D01*
X145351524Y-49934381D02*
X145351524Y-48934381D01*
X145780095Y-49029619D02*
X145827714Y-48982000D01*
X145922952Y-48934381D01*
X146161048Y-48934381D01*
X146256286Y-48982000D01*
X146303905Y-49029619D01*
X146351524Y-49124857D01*
X146351524Y-49220095D01*
X146303905Y-49362952D01*
X145732476Y-49934381D01*
X146351524Y-49934381D01*
X102870095Y-49934381D02*
X102870095Y-48934381D01*
X102870095Y-49410571D02*
X103441524Y-49410571D01*
X103441524Y-49934381D02*
X103441524Y-48934381D01*
X103822476Y-48934381D02*
X104441524Y-48934381D01*
X104108190Y-49315333D01*
X104251048Y-49315333D01*
X104346286Y-49362952D01*
X104393905Y-49410571D01*
X104441524Y-49505810D01*
X104441524Y-49743905D01*
X104393905Y-49839143D01*
X104346286Y-49886762D01*
X104251048Y-49934381D01*
X103965333Y-49934381D01*
X103870095Y-49886762D01*
X103822476Y-49839143D01*
X181483095Y-50109381D02*
X181483095Y-49109381D01*
X181483095Y-49585571D02*
X182054524Y-49585571D01*
X182054524Y-50109381D02*
X182054524Y-49109381D01*
X182959286Y-49442714D02*
X182959286Y-50109381D01*
X182721190Y-49061762D02*
X182483095Y-49776048D01*
X183102143Y-49776048D01*
X104592381Y-87860095D02*
X103592381Y-87860095D01*
X103592381Y-87479142D01*
X103640000Y-87383904D01*
X103687619Y-87336285D01*
X103782857Y-87288666D01*
X103925714Y-87288666D01*
X104020952Y-87336285D01*
X104068571Y-87383904D01*
X104116190Y-87479142D01*
X104116190Y-87860095D01*
X104592381Y-86336285D02*
X104592381Y-86907714D01*
X104592381Y-86622000D02*
X103592381Y-86622000D01*
X103735238Y-86717238D01*
X103830476Y-86812476D01*
X103878095Y-86907714D01*
X136374239Y-62158571D02*
X136517096Y-62206190D01*
X136564715Y-62253810D01*
X136612334Y-62349048D01*
X136612334Y-62491905D01*
X136564715Y-62587143D01*
X136517096Y-62634762D01*
X136421858Y-62682381D01*
X136040905Y-62682381D01*
X136040905Y-61682381D01*
X136374239Y-61682381D01*
X136469477Y-61730000D01*
X136517096Y-61777619D01*
X136564715Y-61872857D01*
X136564715Y-61968095D01*
X136517096Y-62063333D01*
X136469477Y-62110952D01*
X136374239Y-62158571D01*
X136040905Y-62158571D01*
X137564715Y-62682381D02*
X136993286Y-62682381D01*
X137279000Y-62682381D02*
X137279000Y-61682381D01*
X137183762Y-61825238D01*
X137088524Y-61920476D01*
X136993286Y-61968095D01*
X152376239Y-62285571D02*
X152519096Y-62333190D01*
X152566715Y-62380810D01*
X152614334Y-62476048D01*
X152614334Y-62618905D01*
X152566715Y-62714143D01*
X152519096Y-62761762D01*
X152423858Y-62809381D01*
X152042905Y-62809381D01*
X152042905Y-61809381D01*
X152376239Y-61809381D01*
X152471477Y-61857000D01*
X152519096Y-61904619D01*
X152566715Y-61999857D01*
X152566715Y-62095095D01*
X152519096Y-62190333D01*
X152471477Y-62237952D01*
X152376239Y-62285571D01*
X152042905Y-62285571D01*
X152995286Y-61904619D02*
X153042905Y-61857000D01*
X153138143Y-61809381D01*
X153376239Y-61809381D01*
X153471477Y-61857000D01*
X153519096Y-61904619D01*
X153566715Y-61999857D01*
X153566715Y-62095095D01*
X153519096Y-62237952D01*
X152947667Y-62809381D01*
X153566715Y-62809381D01*
X123245571Y-105862333D02*
X123245571Y-106195667D01*
X123769381Y-106195667D02*
X122769381Y-106195667D01*
X122769381Y-105719476D01*
X123769381Y-104767095D02*
X123293190Y-105100429D01*
X123769381Y-105338524D02*
X122769381Y-105338524D01*
X122769381Y-104957571D01*
X122817000Y-104862333D01*
X122864619Y-104814714D01*
X122959857Y-104767095D01*
X123102714Y-104767095D01*
X123197952Y-104814714D01*
X123245571Y-104862333D01*
X123293190Y-104957571D01*
X123293190Y-105338524D01*
X123769381Y-103814714D02*
X123769381Y-104386143D01*
X123769381Y-104100429D02*
X122769381Y-104100429D01*
X122912238Y-104195667D01*
X123007476Y-104290905D01*
X123055095Y-104386143D01*
X146708905Y-99385381D02*
X146708905Y-98385381D01*
X147089858Y-98385381D01*
X147185096Y-98433000D01*
X147232715Y-98480619D01*
X147280334Y-98575857D01*
X147280334Y-98718714D01*
X147232715Y-98813952D01*
X147185096Y-98861571D01*
X147089858Y-98909190D01*
X146708905Y-98909190D01*
X147661286Y-98480619D02*
X147708905Y-98433000D01*
X147804143Y-98385381D01*
X148042239Y-98385381D01*
X148137477Y-98433000D01*
X148185096Y-98480619D01*
X148232715Y-98575857D01*
X148232715Y-98671095D01*
X148185096Y-98813952D01*
X147613667Y-99385381D01*
X148232715Y-99385381D01*
X129373334Y-61412381D02*
X129040000Y-60936190D01*
X128801905Y-61412381D02*
X128801905Y-60412381D01*
X129182858Y-60412381D01*
X129278096Y-60460000D01*
X129325715Y-60507619D01*
X129373334Y-60602857D01*
X129373334Y-60745714D01*
X129325715Y-60840952D01*
X129278096Y-60888571D01*
X129182858Y-60936190D01*
X128801905Y-60936190D01*
X129754286Y-60507619D02*
X129801905Y-60460000D01*
X129897143Y-60412381D01*
X130135239Y-60412381D01*
X130230477Y-60460000D01*
X130278096Y-60507619D01*
X130325715Y-60602857D01*
X130325715Y-60698095D01*
X130278096Y-60840952D01*
X129706667Y-61412381D01*
X130325715Y-61412381D01*
X128561428Y-72431546D02*
X128085237Y-72764880D01*
X128561428Y-73002975D02*
X127561428Y-73002975D01*
X127561428Y-72622022D01*
X127609047Y-72526784D01*
X127656666Y-72479165D01*
X127751904Y-72431546D01*
X127894761Y-72431546D01*
X127989999Y-72479165D01*
X128037618Y-72526784D01*
X128085237Y-72622022D01*
X128085237Y-73002975D01*
X127656666Y-72050594D02*
X127609047Y-72002975D01*
X127561428Y-71907737D01*
X127561428Y-71669641D01*
X127609047Y-71574403D01*
X127656666Y-71526784D01*
X127751904Y-71479165D01*
X127847142Y-71479165D01*
X127989999Y-71526784D01*
X128561428Y-72098213D01*
X128561428Y-71479165D01*
X128561428Y-70526784D02*
X128561428Y-71098213D01*
X128561428Y-70812499D02*
X127561428Y-70812499D01*
X127704285Y-70907737D01*
X127799523Y-71002975D01*
X127847142Y-71098213D01*
X126563381Y-64777857D02*
X126087190Y-65111191D01*
X126563381Y-65349286D02*
X125563381Y-65349286D01*
X125563381Y-64968333D01*
X125611000Y-64873095D01*
X125658619Y-64825476D01*
X125753857Y-64777857D01*
X125896714Y-64777857D01*
X125991952Y-64825476D01*
X126039571Y-64873095D01*
X126087190Y-64968333D01*
X126087190Y-65349286D01*
X125658619Y-64396905D02*
X125611000Y-64349286D01*
X125563381Y-64254048D01*
X125563381Y-64015952D01*
X125611000Y-63920714D01*
X125658619Y-63873095D01*
X125753857Y-63825476D01*
X125849095Y-63825476D01*
X125991952Y-63873095D01*
X126563381Y-64444524D01*
X126563381Y-63825476D01*
X125658619Y-63444524D02*
X125611000Y-63396905D01*
X125563381Y-63301667D01*
X125563381Y-63063571D01*
X125611000Y-62968333D01*
X125658619Y-62920714D01*
X125753857Y-62873095D01*
X125849095Y-62873095D01*
X125991952Y-62920714D01*
X126563381Y-63492143D01*
X126563381Y-62873095D01*
X148074143Y-78557381D02*
X147740809Y-78081190D01*
X147502714Y-78557381D02*
X147502714Y-77557381D01*
X147883667Y-77557381D01*
X147978905Y-77605000D01*
X148026524Y-77652619D01*
X148074143Y-77747857D01*
X148074143Y-77890714D01*
X148026524Y-77985952D01*
X147978905Y-78033571D01*
X147883667Y-78081190D01*
X147502714Y-78081190D01*
X148407476Y-77557381D02*
X149026524Y-77557381D01*
X148693190Y-77938333D01*
X148836048Y-77938333D01*
X148931286Y-77985952D01*
X148978905Y-78033571D01*
X149026524Y-78128810D01*
X149026524Y-78366905D01*
X148978905Y-78462143D01*
X148931286Y-78509762D01*
X148836048Y-78557381D01*
X148550333Y-78557381D01*
X148455095Y-78509762D01*
X148407476Y-78462143D01*
X149359857Y-77557381D02*
X150026524Y-77557381D01*
X149597952Y-78557381D01*
X160345381Y-73921857D02*
X159869190Y-74255191D01*
X160345381Y-74493286D02*
X159345381Y-74493286D01*
X159345381Y-74112333D01*
X159393000Y-74017095D01*
X159440619Y-73969476D01*
X159535857Y-73921857D01*
X159678714Y-73921857D01*
X159773952Y-73969476D01*
X159821571Y-74017095D01*
X159869190Y-74112333D01*
X159869190Y-74493286D01*
X159345381Y-73588524D02*
X159345381Y-72969476D01*
X159726333Y-73302810D01*
X159726333Y-73159952D01*
X159773952Y-73064714D01*
X159821571Y-73017095D01*
X159916810Y-72969476D01*
X160154905Y-72969476D01*
X160250143Y-73017095D01*
X160297762Y-73064714D01*
X160345381Y-73159952D01*
X160345381Y-73445667D01*
X160297762Y-73540905D01*
X160250143Y-73588524D01*
X160345381Y-72493286D02*
X160345381Y-72302810D01*
X160297762Y-72207571D01*
X160250143Y-72159952D01*
X160107286Y-72064714D01*
X159916810Y-72017095D01*
X159535857Y-72017095D01*
X159440619Y-72064714D01*
X159393000Y-72112333D01*
X159345381Y-72207571D01*
X159345381Y-72398048D01*
X159393000Y-72493286D01*
X159440619Y-72540905D01*
X159535857Y-72588524D01*
X159773952Y-72588524D01*
X159869190Y-72540905D01*
X159916810Y-72493286D01*
X159964429Y-72398048D01*
X159964429Y-72207571D01*
X159916810Y-72112333D01*
X159869190Y-72064714D01*
X159773952Y-72017095D01*
X158059381Y-73921857D02*
X157583190Y-74255191D01*
X158059381Y-74493286D02*
X157059381Y-74493286D01*
X157059381Y-74112333D01*
X157107000Y-74017095D01*
X157154619Y-73969476D01*
X157249857Y-73921857D01*
X157392714Y-73921857D01*
X157487952Y-73969476D01*
X157535571Y-74017095D01*
X157583190Y-74112333D01*
X157583190Y-74493286D01*
X157392714Y-73064714D02*
X158059381Y-73064714D01*
X157011762Y-73302810D02*
X157726048Y-73540905D01*
X157726048Y-72921857D01*
X158059381Y-72017095D02*
X158059381Y-72588524D01*
X158059381Y-72302810D02*
X157059381Y-72302810D01*
X157202238Y-72398048D01*
X157297476Y-72493286D01*
X157345095Y-72588524D01*
X152011143Y-85102381D02*
X151677809Y-84626190D01*
X151439714Y-85102381D02*
X151439714Y-84102381D01*
X151820667Y-84102381D01*
X151915905Y-84150000D01*
X151963524Y-84197619D01*
X152011143Y-84292857D01*
X152011143Y-84435714D01*
X151963524Y-84530952D01*
X151915905Y-84578571D01*
X151820667Y-84626190D01*
X151439714Y-84626190D01*
X152868286Y-84435714D02*
X152868286Y-85102381D01*
X152630190Y-84054762D02*
X152392095Y-84769048D01*
X153011143Y-84769048D01*
X153868286Y-84102381D02*
X153392095Y-84102381D01*
X153344476Y-84578571D01*
X153392095Y-84530952D01*
X153487333Y-84483333D01*
X153725429Y-84483333D01*
X153820667Y-84530952D01*
X153868286Y-84578571D01*
X153915905Y-84673810D01*
X153915905Y-84911905D01*
X153868286Y-85007143D01*
X153820667Y-85054762D01*
X153725429Y-85102381D01*
X153487333Y-85102381D01*
X153392095Y-85054762D01*
X153344476Y-85007143D01*
X106628643Y-79732143D02*
X106581024Y-79779762D01*
X106438167Y-79827381D01*
X106342929Y-79827381D01*
X106200071Y-79779762D01*
X106104833Y-79684524D01*
X106057214Y-79589286D01*
X106009595Y-79398810D01*
X106009595Y-79255952D01*
X106057214Y-79065476D01*
X106104833Y-78970238D01*
X106200071Y-78875000D01*
X106342929Y-78827381D01*
X106438167Y-78827381D01*
X106581024Y-78875000D01*
X106628643Y-78922619D01*
X107581024Y-79827381D02*
X107009595Y-79827381D01*
X107295309Y-79827381D02*
X107295309Y-78827381D01*
X107200071Y-78970238D01*
X107104833Y-79065476D01*
X107009595Y-79113095D01*
X108200071Y-78827381D02*
X108295310Y-78827381D01*
X108390548Y-78875000D01*
X108438167Y-78922619D01*
X108485786Y-79017857D01*
X108533405Y-79208333D01*
X108533405Y-79446429D01*
X108485786Y-79636905D01*
X108438167Y-79732143D01*
X108390548Y-79779762D01*
X108295310Y-79827381D01*
X108200071Y-79827381D01*
X108104833Y-79779762D01*
X108057214Y-79732143D01*
X108009595Y-79636905D01*
X107961976Y-79446429D01*
X107961976Y-79208333D01*
X108009595Y-79017857D01*
X108057214Y-78922619D01*
X108104833Y-78875000D01*
X108200071Y-78827381D01*
X160774143Y-63798143D02*
X160726524Y-63845762D01*
X160583667Y-63893381D01*
X160488429Y-63893381D01*
X160345571Y-63845762D01*
X160250333Y-63750524D01*
X160202714Y-63655286D01*
X160155095Y-63464810D01*
X160155095Y-63321952D01*
X160202714Y-63131476D01*
X160250333Y-63036238D01*
X160345571Y-62941000D01*
X160488429Y-62893381D01*
X160583667Y-62893381D01*
X160726524Y-62941000D01*
X160774143Y-62988619D01*
X161726524Y-63893381D02*
X161155095Y-63893381D01*
X161440809Y-63893381D02*
X161440809Y-62893381D01*
X161345571Y-63036238D01*
X161250333Y-63131476D01*
X161155095Y-63179095D01*
X162202714Y-63893381D02*
X162393190Y-63893381D01*
X162488429Y-63845762D01*
X162536048Y-63798143D01*
X162631286Y-63655286D01*
X162678905Y-63464810D01*
X162678905Y-63083857D01*
X162631286Y-62988619D01*
X162583667Y-62941000D01*
X162488429Y-62893381D01*
X162297952Y-62893381D01*
X162202714Y-62941000D01*
X162155095Y-62988619D01*
X162107476Y-63083857D01*
X162107476Y-63321952D01*
X162155095Y-63417190D01*
X162202714Y-63464810D01*
X162297952Y-63512429D01*
X162488429Y-63512429D01*
X162583667Y-63464810D01*
X162631286Y-63417190D01*
X162678905Y-63321952D01*
X177284143Y-59666143D02*
X177236524Y-59713762D01*
X177093667Y-59761381D01*
X176998429Y-59761381D01*
X176855571Y-59713762D01*
X176760333Y-59618524D01*
X176712714Y-59523286D01*
X176665095Y-59332810D01*
X176665095Y-59189952D01*
X176712714Y-58999476D01*
X176760333Y-58904238D01*
X176855571Y-58809000D01*
X176998429Y-58761381D01*
X177093667Y-58761381D01*
X177236524Y-58809000D01*
X177284143Y-58856619D01*
X177665095Y-58856619D02*
X177712714Y-58809000D01*
X177807952Y-58761381D01*
X178046048Y-58761381D01*
X178141286Y-58809000D01*
X178188905Y-58856619D01*
X178236524Y-58951857D01*
X178236524Y-59047095D01*
X178188905Y-59189952D01*
X177617476Y-59761381D01*
X178236524Y-59761381D01*
X178855571Y-58761381D02*
X178950810Y-58761381D01*
X179046048Y-58809000D01*
X179093667Y-58856619D01*
X179141286Y-58951857D01*
X179188905Y-59142333D01*
X179188905Y-59380429D01*
X179141286Y-59570905D01*
X179093667Y-59666143D01*
X179046048Y-59713762D01*
X178950810Y-59761381D01*
X178855571Y-59761381D01*
X178760333Y-59713762D01*
X178712714Y-59666143D01*
X178665095Y-59570905D01*
X178617476Y-59380429D01*
X178617476Y-59142333D01*
X178665095Y-58951857D01*
X178712714Y-58856619D01*
X178760333Y-58809000D01*
X178855571Y-58761381D01*
X121388143Y-105671857D02*
X121435762Y-105719476D01*
X121483381Y-105862333D01*
X121483381Y-105957571D01*
X121435762Y-106100429D01*
X121340524Y-106195667D01*
X121245286Y-106243286D01*
X121054810Y-106290905D01*
X120911952Y-106290905D01*
X120721476Y-106243286D01*
X120626238Y-106195667D01*
X120531000Y-106100429D01*
X120483381Y-105957571D01*
X120483381Y-105862333D01*
X120531000Y-105719476D01*
X120578619Y-105671857D01*
X120578619Y-105290905D02*
X120531000Y-105243286D01*
X120483381Y-105148048D01*
X120483381Y-104909952D01*
X120531000Y-104814714D01*
X120578619Y-104767095D01*
X120673857Y-104719476D01*
X120769095Y-104719476D01*
X120911952Y-104767095D01*
X121483381Y-105338524D01*
X121483381Y-104719476D01*
X121483381Y-103767095D02*
X121483381Y-104338524D01*
X121483381Y-104052810D02*
X120483381Y-104052810D01*
X120626238Y-104148048D01*
X120721476Y-104243286D01*
X120769095Y-104338524D01*
X130040143Y-103100143D02*
X129992524Y-103147762D01*
X129849667Y-103195381D01*
X129754429Y-103195381D01*
X129611571Y-103147762D01*
X129516333Y-103052524D01*
X129468714Y-102957286D01*
X129421095Y-102766810D01*
X129421095Y-102623952D01*
X129468714Y-102433476D01*
X129516333Y-102338238D01*
X129611571Y-102243000D01*
X129754429Y-102195381D01*
X129849667Y-102195381D01*
X129992524Y-102243000D01*
X130040143Y-102290619D01*
X130421095Y-102290619D02*
X130468714Y-102243000D01*
X130563952Y-102195381D01*
X130802048Y-102195381D01*
X130897286Y-102243000D01*
X130944905Y-102290619D01*
X130992524Y-102385857D01*
X130992524Y-102481095D01*
X130944905Y-102623952D01*
X130373476Y-103195381D01*
X130992524Y-103195381D01*
X131897286Y-102195381D02*
X131421095Y-102195381D01*
X131373476Y-102671571D01*
X131421095Y-102623952D01*
X131516333Y-102576333D01*
X131754429Y-102576333D01*
X131849667Y-102623952D01*
X131897286Y-102671571D01*
X131944905Y-102766810D01*
X131944905Y-103004905D01*
X131897286Y-103100143D01*
X131849667Y-103147762D01*
X131754429Y-103195381D01*
X131516333Y-103195381D01*
X131421095Y-103147762D01*
X131373476Y-103100143D01*
X174402381Y-79224095D02*
X173402381Y-79224095D01*
X173402381Y-78986000D01*
X173450000Y-78843142D01*
X173545238Y-78747904D01*
X173640476Y-78700285D01*
X173830952Y-78652666D01*
X173973810Y-78652666D01*
X174164286Y-78700285D01*
X174259524Y-78747904D01*
X174354762Y-78843142D01*
X174402381Y-78986000D01*
X174402381Y-79224095D01*
X174402381Y-77700285D02*
X174402381Y-78271714D01*
X174402381Y-77986000D02*
X173402381Y-77986000D01*
X173545238Y-78081238D01*
X173640476Y-78176476D01*
X173688095Y-78271714D01*
X123848905Y-60523381D02*
X123848905Y-59523381D01*
X124087000Y-59523381D01*
X124229858Y-59571000D01*
X124325096Y-59666238D01*
X124372715Y-59761476D01*
X124420334Y-59951952D01*
X124420334Y-60094810D01*
X124372715Y-60285286D01*
X124325096Y-60380524D01*
X124229858Y-60475762D01*
X124087000Y-60523381D01*
X123848905Y-60523381D01*
X124801286Y-59618619D02*
X124848905Y-59571000D01*
X124944143Y-59523381D01*
X125182239Y-59523381D01*
X125277477Y-59571000D01*
X125325096Y-59618619D01*
X125372715Y-59713857D01*
X125372715Y-59809095D01*
X125325096Y-59951952D01*
X124753667Y-60523381D01*
X125372715Y-60523381D01*
X126134905Y-96083381D02*
X126134905Y-95083381D01*
X126373000Y-95083381D01*
X126515858Y-95131000D01*
X126611096Y-95226238D01*
X126658715Y-95321476D01*
X126706334Y-95511952D01*
X126706334Y-95654810D01*
X126658715Y-95845286D01*
X126611096Y-95940524D01*
X126515858Y-96035762D01*
X126373000Y-96083381D01*
X126134905Y-96083381D01*
X127039667Y-95083381D02*
X127658715Y-95083381D01*
X127325381Y-95464333D01*
X127468239Y-95464333D01*
X127563477Y-95511952D01*
X127611096Y-95559571D01*
X127658715Y-95654810D01*
X127658715Y-95892905D01*
X127611096Y-95988143D01*
X127563477Y-96035762D01*
X127468239Y-96083381D01*
X127182524Y-96083381D01*
X127087286Y-96035762D01*
X127039667Y-95988143D01*
X129436905Y-96083381D02*
X129436905Y-95083381D01*
X129675000Y-95083381D01*
X129817858Y-95131000D01*
X129913096Y-95226238D01*
X129960715Y-95321476D01*
X130008334Y-95511952D01*
X130008334Y-95654810D01*
X129960715Y-95845286D01*
X129913096Y-95940524D01*
X129817858Y-96035762D01*
X129675000Y-96083381D01*
X129436905Y-96083381D01*
X130865477Y-95416714D02*
X130865477Y-96083381D01*
X130627381Y-95035762D02*
X130389286Y-95750048D01*
X131008334Y-95750048D01*
X104465381Y-59475666D02*
X104465381Y-59951857D01*
X103465381Y-59951857D01*
X104465381Y-58618523D02*
X104465381Y-59189952D01*
X104465381Y-58904238D02*
X103465381Y-58904238D01*
X103608238Y-58999476D01*
X103703476Y-59094714D01*
X103751095Y-59189952D01*
X135755143Y-84975381D02*
X135421809Y-84499190D01*
X135183714Y-84975381D02*
X135183714Y-83975381D01*
X135564667Y-83975381D01*
X135659905Y-84023000D01*
X135707524Y-84070619D01*
X135755143Y-84165857D01*
X135755143Y-84308714D01*
X135707524Y-84403952D01*
X135659905Y-84451571D01*
X135564667Y-84499190D01*
X135183714Y-84499190D01*
X136612286Y-84308714D02*
X136612286Y-84975381D01*
X136374190Y-83927762D02*
X136136095Y-84642048D01*
X136755143Y-84642048D01*
X137040857Y-83975381D02*
X137659905Y-83975381D01*
X137326571Y-84356333D01*
X137469429Y-84356333D01*
X137564667Y-84403952D01*
X137612286Y-84451571D01*
X137659905Y-84546810D01*
X137659905Y-84784905D01*
X137612286Y-84880143D01*
X137564667Y-84927762D01*
X137469429Y-84975381D01*
X137183714Y-84975381D01*
X137088476Y-84927762D01*
X137040857Y-84880143D01*
X147820143Y-80843381D02*
X147486809Y-80367190D01*
X147248714Y-80843381D02*
X147248714Y-79843381D01*
X147629667Y-79843381D01*
X147724905Y-79891000D01*
X147772524Y-79938619D01*
X147820143Y-80033857D01*
X147820143Y-80176714D01*
X147772524Y-80271952D01*
X147724905Y-80319571D01*
X147629667Y-80367190D01*
X147248714Y-80367190D01*
X148677286Y-80176714D02*
X148677286Y-80843381D01*
X148439190Y-79795762D02*
X148201095Y-80510048D01*
X148820143Y-80510048D01*
X149629667Y-80176714D02*
X149629667Y-80843381D01*
X149391571Y-79795762D02*
X149153476Y-80510048D01*
X149772524Y-80510048D01*
X140847143Y-82875381D02*
X140513809Y-82399190D01*
X140275714Y-82875381D02*
X140275714Y-81875381D01*
X140656667Y-81875381D01*
X140751905Y-81923000D01*
X140799524Y-81970619D01*
X140847143Y-82065857D01*
X140847143Y-82208714D01*
X140799524Y-82303952D01*
X140751905Y-82351571D01*
X140656667Y-82399190D01*
X140275714Y-82399190D01*
X141704286Y-82208714D02*
X141704286Y-82875381D01*
X141466190Y-81827762D02*
X141228095Y-82542048D01*
X141847143Y-82542048D01*
X142656667Y-81875381D02*
X142466190Y-81875381D01*
X142370952Y-81923000D01*
X142323333Y-81970619D01*
X142228095Y-82113476D01*
X142180476Y-82303952D01*
X142180476Y-82684905D01*
X142228095Y-82780143D01*
X142275714Y-82827762D01*
X142370952Y-82875381D01*
X142561429Y-82875381D01*
X142656667Y-82827762D01*
X142704286Y-82780143D01*
X142751905Y-82684905D01*
X142751905Y-82446810D01*
X142704286Y-82351571D01*
X142656667Y-82303952D01*
X142561429Y-82256333D01*
X142370952Y-82256333D01*
X142275714Y-82303952D01*
X142228095Y-82351571D01*
X142180476Y-82446810D01*
X157740381Y-87756905D02*
X158549905Y-87756905D01*
X158645143Y-87709286D01*
X158692762Y-87661667D01*
X158740381Y-87566429D01*
X158740381Y-87375952D01*
X158692762Y-87280714D01*
X158645143Y-87233095D01*
X158549905Y-87185476D01*
X157740381Y-87185476D01*
X158740381Y-86185476D02*
X158740381Y-86756905D01*
X158740381Y-86471191D02*
X157740381Y-86471191D01*
X157883238Y-86566429D01*
X157978476Y-86661667D01*
X158026095Y-86756905D01*
X117495381Y-101726905D02*
X118304905Y-101726905D01*
X118400143Y-101679286D01*
X118447762Y-101631667D01*
X118495381Y-101536429D01*
X118495381Y-101345952D01*
X118447762Y-101250714D01*
X118400143Y-101203095D01*
X118304905Y-101155476D01*
X117495381Y-101155476D01*
X117590619Y-100726905D02*
X117543000Y-100679286D01*
X117495381Y-100584048D01*
X117495381Y-100345952D01*
X117543000Y-100250714D01*
X117590619Y-100203095D01*
X117685857Y-100155476D01*
X117781095Y-100155476D01*
X117923952Y-100203095D01*
X118495381Y-100774524D01*
X118495381Y-100155476D01*
X126519381Y-53974905D02*
X127328905Y-53974905D01*
X127424143Y-53927286D01*
X127471762Y-53879667D01*
X127519381Y-53784429D01*
X127519381Y-53593952D01*
X127471762Y-53498714D01*
X127424143Y-53451095D01*
X127328905Y-53403476D01*
X126519381Y-53403476D01*
X126519381Y-53022524D02*
X126519381Y-52403476D01*
X126900333Y-52736810D01*
X126900333Y-52593952D01*
X126947952Y-52498714D01*
X126995571Y-52451095D01*
X127090810Y-52403476D01*
X127328905Y-52403476D01*
X127424143Y-52451095D01*
X127471762Y-52498714D01*
X127519381Y-52593952D01*
X127519381Y-52879667D01*
X127471762Y-52974905D01*
X127424143Y-53022524D01*
X104013095Y-102957381D02*
X104013095Y-103766905D01*
X104060714Y-103862143D01*
X104108333Y-103909762D01*
X104203571Y-103957381D01*
X104394048Y-103957381D01*
X104489286Y-103909762D01*
X104536905Y-103862143D01*
X104584524Y-103766905D01*
X104584524Y-102957381D01*
X105489286Y-103290714D02*
X105489286Y-103957381D01*
X105251190Y-102909762D02*
X105013095Y-103624048D01*
X105632143Y-103624048D01*
X120523095Y-64349381D02*
X120523095Y-65158905D01*
X120570714Y-65254143D01*
X120618333Y-65301762D01*
X120713571Y-65349381D01*
X120904048Y-65349381D01*
X120999286Y-65301762D01*
X121046905Y-65254143D01*
X121094524Y-65158905D01*
X121094524Y-64349381D01*
X122046905Y-64349381D02*
X121570714Y-64349381D01*
X121523095Y-64825571D01*
X121570714Y-64777952D01*
X121665952Y-64730333D01*
X121904048Y-64730333D01*
X121999286Y-64777952D01*
X122046905Y-64825571D01*
X122094524Y-64920810D01*
X122094524Y-65158905D01*
X122046905Y-65254143D01*
X121999286Y-65301762D01*
X121904048Y-65349381D01*
X121665952Y-65349381D01*
X121570714Y-65301762D01*
X121523095Y-65254143D01*
X121562881Y-84645405D02*
X122372405Y-84645405D01*
X122467643Y-84597786D01*
X122515262Y-84550167D01*
X122562881Y-84454929D01*
X122562881Y-84264452D01*
X122515262Y-84169214D01*
X122467643Y-84121595D01*
X122372405Y-84073976D01*
X121562881Y-84073976D01*
X121562881Y-83169214D02*
X121562881Y-83359691D01*
X121610500Y-83454929D01*
X121658119Y-83502548D01*
X121800976Y-83597786D01*
X121991452Y-83645405D01*
X122372405Y-83645405D01*
X122467643Y-83597786D01*
X122515262Y-83550167D01*
X122562881Y-83454929D01*
X122562881Y-83264452D01*
X122515262Y-83169214D01*
X122467643Y-83121595D01*
X122372405Y-83073976D01*
X122134310Y-83073976D01*
X122039071Y-83121595D01*
X121991452Y-83169214D01*
X121943833Y-83264452D01*
X121943833Y-83454929D01*
X121991452Y-83550167D01*
X122039071Y-83597786D01*
X122134310Y-83645405D01*
X165481095Y-61749381D02*
X165481095Y-62558905D01*
X165528714Y-62654143D01*
X165576333Y-62701762D01*
X165671571Y-62749381D01*
X165862048Y-62749381D01*
X165957286Y-62701762D01*
X166004905Y-62654143D01*
X166052524Y-62558905D01*
X166052524Y-61749381D01*
X166433476Y-61749381D02*
X167100143Y-61749381D01*
X166671571Y-62749381D01*
X165735095Y-52729381D02*
X165735095Y-53538905D01*
X165782714Y-53634143D01*
X165830333Y-53681762D01*
X165925571Y-53729381D01*
X166116048Y-53729381D01*
X166211286Y-53681762D01*
X166258905Y-53634143D01*
X166306524Y-53538905D01*
X166306524Y-52729381D01*
X166925571Y-53157952D02*
X166830333Y-53110333D01*
X166782714Y-53062714D01*
X166735095Y-52967476D01*
X166735095Y-52919857D01*
X166782714Y-52824619D01*
X166830333Y-52777000D01*
X166925571Y-52729381D01*
X167116048Y-52729381D01*
X167211286Y-52777000D01*
X167258905Y-52824619D01*
X167306524Y-52919857D01*
X167306524Y-52967476D01*
X167258905Y-53062714D01*
X167211286Y-53110333D01*
X167116048Y-53157952D01*
X166925571Y-53157952D01*
X166830333Y-53205571D01*
X166782714Y-53253190D01*
X166735095Y-53348429D01*
X166735095Y-53538905D01*
X166782714Y-53634143D01*
X166830333Y-53681762D01*
X166925571Y-53729381D01*
X167116048Y-53729381D01*
X167211286Y-53681762D01*
X167258905Y-53634143D01*
X167306524Y-53538905D01*
X167306524Y-53348429D01*
X167258905Y-53253190D01*
X167211286Y-53205571D01*
X167116048Y-53157952D01*
X124293381Y-105282905D02*
X125102905Y-105282905D01*
X125198143Y-105235286D01*
X125245762Y-105187667D01*
X125293381Y-105092429D01*
X125293381Y-104901952D01*
X125245762Y-104806714D01*
X125198143Y-104759095D01*
X125102905Y-104711476D01*
X124293381Y-104711476D01*
X125293381Y-104187667D02*
X125293381Y-103997191D01*
X125245762Y-103901952D01*
X125198143Y-103854333D01*
X125055286Y-103759095D01*
X124864810Y-103711476D01*
X124483857Y-103711476D01*
X124388619Y-103759095D01*
X124341000Y-103806714D01*
X124293381Y-103901952D01*
X124293381Y-104092429D01*
X124341000Y-104187667D01*
X124388619Y-104235286D01*
X124483857Y-104282905D01*
X124721952Y-104282905D01*
X124817190Y-104235286D01*
X124864810Y-104187667D01*
X124912429Y-104092429D01*
X124912429Y-103901952D01*
X124864810Y-103806714D01*
X124817190Y-103759095D01*
X124721952Y-103711476D01*
X134524905Y-74255381D02*
X134524905Y-75064905D01*
X134572524Y-75160143D01*
X134620143Y-75207762D01*
X134715381Y-75255381D01*
X134905858Y-75255381D01*
X135001096Y-75207762D01*
X135048715Y-75160143D01*
X135096334Y-75064905D01*
X135096334Y-74255381D01*
X136096334Y-75255381D02*
X135524905Y-75255381D01*
X135810619Y-75255381D02*
X135810619Y-74255381D01*
X135715381Y-74398238D01*
X135620143Y-74493476D01*
X135524905Y-74541095D01*
X136715381Y-74255381D02*
X136810620Y-74255381D01*
X136905858Y-74303000D01*
X136953477Y-74350619D01*
X137001096Y-74445857D01*
X137048715Y-74636333D01*
X137048715Y-74874429D01*
X137001096Y-75064905D01*
X136953477Y-75160143D01*
X136905858Y-75207762D01*
X136810620Y-75255381D01*
X136715381Y-75255381D01*
X136620143Y-75207762D01*
X136572524Y-75160143D01*
X136524905Y-75064905D01*
X136477286Y-74874429D01*
X136477286Y-74636333D01*
X136524905Y-74445857D01*
X136572524Y-74350619D01*
X136620143Y-74303000D01*
X136715381Y-74255381D01*
X151552905Y-67613381D02*
X151552905Y-68422905D01*
X151600524Y-68518143D01*
X151648143Y-68565762D01*
X151743381Y-68613381D01*
X151933858Y-68613381D01*
X152029096Y-68565762D01*
X152076715Y-68518143D01*
X152124334Y-68422905D01*
X152124334Y-67613381D01*
X153124334Y-68613381D02*
X152552905Y-68613381D01*
X152838619Y-68613381D02*
X152838619Y-67613381D01*
X152743381Y-67756238D01*
X152648143Y-67851476D01*
X152552905Y-67899095D01*
X154076715Y-68613381D02*
X153505286Y-68613381D01*
X153791000Y-68613381D02*
X153791000Y-67613381D01*
X153695762Y-67756238D01*
X153600524Y-67851476D01*
X153505286Y-67899095D01*
M02*
