G04 #@! TF.FileFunction,Copper,L2,Bot,Signal*
%FSLAX46Y46*%
G04 Gerber Fmt 4.6, Leading zero omitted, Abs format (unit mm)*
G04 Created by KiCad (PCBNEW (2015-08-13 BZR 6091, Git 3774262)-product) date Mon 31 Aug 2015 09:37:37 AM EDT*
%MOMM*%
G01*
G04 APERTURE LIST*
%ADD10C,0.100000*%
%ADD11C,1.500000*%
%ADD12R,1.727200X1.727200*%
%ADD13O,1.727200X1.727200*%
%ADD14C,2.700000*%
%ADD15C,1.700000*%
%ADD16C,1.000000*%
%ADD17C,1.501140*%
%ADD18C,2.999740*%
%ADD19C,0.800000*%
%ADD20C,0.600000*%
%ADD21C,0.700000*%
%ADD22C,1.600000*%
%ADD23C,0.250000*%
%ADD24C,1.400000*%
%ADD25C,0.600000*%
%ADD26C,0.500000*%
%ADD27C,0.254000*%
G04 APERTURE END LIST*
D10*
D11*
X115062000Y-113030000D03*
X118618000Y-113030000D03*
X116840000Y-111252000D03*
X113284000Y-111252000D03*
D12*
X172974000Y-97663000D03*
D13*
X172974000Y-95123000D03*
X175514000Y-97663000D03*
X175514000Y-95123000D03*
X178054000Y-97663000D03*
X178054000Y-95123000D03*
D14*
X103505000Y-114935000D03*
X103505000Y-56515000D03*
X182245000Y-56515000D03*
X182245000Y-114935000D03*
D15*
X108585000Y-93063000D03*
X108585000Y-89563000D03*
D16*
X135779000Y-67056000D03*
X137779000Y-67056000D03*
X150908000Y-67564000D03*
X152908000Y-67564000D03*
D17*
X140970000Y-104648000D03*
X140970000Y-107188000D03*
X140970000Y-109220000D03*
X140970000Y-111760000D03*
D18*
X143637000Y-101600000D03*
X143637000Y-115316000D03*
D19*
X131814000Y-83312000D03*
X130314000Y-83312000D03*
X145784000Y-83566000D03*
X144284000Y-83566000D03*
D20*
X140716000Y-80772000D03*
X136398000Y-113792000D03*
X127000000Y-103124000D03*
X131826000Y-103378000D03*
X133350000Y-106934000D03*
X122428000Y-76454000D03*
X159512000Y-99314000D03*
X149860000Y-96266000D03*
X174752000Y-79375000D03*
X166624000Y-74866500D03*
X171069000Y-71564500D03*
X116840000Y-61976000D03*
X113157000Y-80454500D03*
X119253000Y-98107500D03*
X157861000Y-86550500D03*
X117919500Y-82042000D03*
X108077000Y-95948500D03*
X115951000Y-101155500D03*
X121539000Y-65278000D03*
X171958000Y-86106000D03*
X166797083Y-104140000D03*
X170859303Y-100074961D03*
X124968000Y-110998000D03*
X107696000Y-108458000D03*
X149098000Y-98298000D03*
X164338000Y-87503000D03*
X121666000Y-95504000D03*
X110490000Y-80772000D03*
X107205476Y-102852524D03*
X178562000Y-92329000D03*
X163957000Y-84264500D03*
X133858000Y-96266000D03*
X133858000Y-100330000D03*
D21*
X123698000Y-101346000D03*
D22*
X126619000Y-67310000D03*
D15*
X116586000Y-69088000D03*
D20*
X125730000Y-96520000D03*
X148590000Y-93472000D03*
X115570000Y-106426000D03*
X157734000Y-84836000D03*
X163830000Y-74739500D03*
X163258500Y-88963500D03*
X175641000Y-63119000D03*
X175641000Y-59690000D03*
X165538000Y-80895107D03*
X163957000Y-80899000D03*
X114427000Y-100330000D03*
X113157000Y-91821000D03*
X112268000Y-102489000D03*
X117602000Y-106680000D03*
X108331000Y-85979000D03*
X110744000Y-83566000D03*
D11*
X132842000Y-108966000D03*
D20*
X133350000Y-115824000D03*
X132334000Y-114300000D03*
X133858000Y-114300000D03*
X152781000Y-76200000D03*
X137668000Y-76327000D03*
X133350000Y-74168000D03*
X135636000Y-69596000D03*
X151130000Y-70104000D03*
X147839185Y-73628815D03*
X162306000Y-84328000D03*
X136398000Y-78359000D03*
X155448000Y-79756000D03*
X135763000Y-77724000D03*
X167068500Y-78041500D03*
X164782500Y-76136500D03*
X157734000Y-83185000D03*
X152273000Y-83058000D03*
X152654000Y-81915000D03*
X159639000Y-81915000D03*
X163830000Y-93345000D03*
X152400000Y-78232000D03*
D23*
X122428000Y-76454000D02*
X117919500Y-80962500D01*
X117919500Y-80962500D02*
X117919500Y-82042000D01*
X105918000Y-90868500D02*
X106235500Y-90551000D01*
X105918000Y-94170500D02*
X105918000Y-90868500D01*
X107396001Y-95648501D02*
X105918000Y-94170500D01*
X108077000Y-95948500D02*
X107777001Y-95648501D01*
X107777001Y-95648501D02*
X107396001Y-95648501D01*
X170859303Y-100074961D02*
X167386000Y-103548264D01*
X167386000Y-103548264D02*
X167386000Y-103551083D01*
X167386000Y-103551083D02*
X166797083Y-104140000D01*
X121666000Y-95504000D02*
X121965999Y-95204001D01*
X121965999Y-95204001D02*
X125720307Y-95204001D01*
X125720307Y-95204001D02*
X125875153Y-95358847D01*
X126374999Y-101971001D02*
X126753487Y-101592513D01*
X121885722Y-109762278D02*
X126374999Y-105273001D01*
X126374999Y-105273001D02*
X126374999Y-101971001D01*
X121885722Y-109947722D02*
X120142000Y-108204000D01*
X122936000Y-110998000D02*
X121885722Y-109947722D01*
X121885722Y-109947722D02*
X121885722Y-109762278D01*
X124968000Y-110998000D02*
X122936000Y-110998000D01*
X125875153Y-95358847D02*
X127254000Y-93980000D01*
X126753487Y-96237181D02*
X125875153Y-95358847D01*
X107696000Y-108458000D02*
X107950000Y-108204000D01*
X107950000Y-108204000D02*
X120142000Y-108204000D01*
X126753487Y-101592513D02*
X126753487Y-96237181D01*
X127254000Y-93980000D02*
X144780000Y-93980000D01*
X144780000Y-93980000D02*
X149098000Y-98298000D01*
X171958000Y-95123000D02*
X170859303Y-94024303D01*
X170859303Y-94024303D02*
X164338000Y-87503000D01*
X170859303Y-100074961D02*
X170859303Y-94024303D01*
X172974000Y-95123000D02*
X171958000Y-95123000D01*
X110490000Y-80772000D02*
X113284000Y-83566000D01*
X113284000Y-83566000D02*
X113284000Y-87376000D01*
X113284000Y-87376000D02*
X111252000Y-89408000D01*
X111252000Y-98806000D02*
X107205476Y-102852524D01*
X111252000Y-89408000D02*
X111252000Y-98806000D01*
X179788663Y-97198337D02*
X179324000Y-97663000D01*
X178562000Y-92329000D02*
X179638621Y-93405621D01*
X179788663Y-97198337D02*
X179788663Y-93555663D01*
X179788663Y-93555663D02*
X179638621Y-93405621D01*
X163957000Y-84264500D02*
X163957000Y-85344000D01*
X163957000Y-85344000D02*
X170942000Y-92329000D01*
X170942000Y-92329000D02*
X178562000Y-92329000D01*
X179324000Y-97663000D02*
X178054000Y-97663000D01*
D24*
X126492000Y-68326000D02*
X126492000Y-67437000D01*
D23*
X126492000Y-67437000D02*
X126619000Y-67310000D01*
X133858000Y-100330000D02*
X133858000Y-96266000D01*
D25*
X123698000Y-101346000D02*
X122936000Y-100584000D01*
D24*
X122936000Y-100584000D02*
X117094000Y-100584000D01*
X117094000Y-100584000D02*
X116268500Y-99758500D01*
X116268500Y-99758500D02*
X116268500Y-69786500D01*
X116300250Y-69532500D02*
X116744750Y-69088000D01*
X125730000Y-69088000D02*
X126492000Y-68326000D01*
X116586000Y-69088000D02*
X125730000Y-69088000D01*
D23*
X125730000Y-96520000D02*
X125730000Y-105156000D01*
X125730000Y-105156000D02*
X122936000Y-107950000D01*
X122936000Y-107950000D02*
X120650000Y-107950000D01*
X115570000Y-106850264D02*
X115570000Y-106426000D01*
X120650000Y-107950000D02*
X120005001Y-107305001D01*
X120005001Y-107305001D02*
X116024737Y-107305001D01*
X116024737Y-107305001D02*
X115570000Y-106850264D01*
X153162000Y-89408000D02*
X153162000Y-92937194D01*
X148590000Y-93472000D02*
X152627194Y-93472000D01*
X152627194Y-93472000D02*
X153162000Y-92937194D01*
X157734000Y-84836000D02*
X153162000Y-89408000D01*
X163258500Y-75501500D02*
X163258500Y-75311000D01*
X163258500Y-75311000D02*
X163830000Y-74739500D01*
X163258500Y-88539236D02*
X163258500Y-75501500D01*
X163258500Y-88963500D02*
X163258500Y-88539236D01*
X175641000Y-63119000D02*
X175641000Y-59690000D01*
X163957000Y-80899000D02*
X165534107Y-80899000D01*
X165534107Y-80899000D02*
X165538000Y-80895107D01*
X112857001Y-92120999D02*
X112857001Y-99903001D01*
X113284000Y-100330000D02*
X114427000Y-100330000D01*
X112857001Y-99903001D02*
X113284000Y-100330000D01*
X113157000Y-91821000D02*
X112857001Y-92120999D01*
X112649000Y-102870000D02*
X112268000Y-102489000D01*
X117094000Y-102870000D02*
X112649000Y-102870000D01*
X117602000Y-103378000D02*
X117094000Y-102870000D01*
X117602000Y-106680000D02*
X117602000Y-103378000D01*
X110444001Y-83865999D02*
X108331000Y-85979000D01*
X110744000Y-83566000D02*
X110444001Y-83865999D01*
D24*
X132842000Y-108966000D02*
X135636000Y-111760000D01*
X135636000Y-111760000D02*
X137668000Y-111760000D01*
X137668000Y-111760000D02*
X140970000Y-111760000D01*
D23*
X115062000Y-115824000D02*
X113284000Y-114046000D01*
X113284000Y-114046000D02*
X113284000Y-111252000D01*
X133350000Y-115824000D02*
X115062000Y-115824000D01*
X122161999Y-113779999D02*
X122682000Y-114300000D01*
X122682000Y-114300000D02*
X132334000Y-114300000D01*
X118618000Y-113030000D02*
X119367999Y-113779999D01*
X119367999Y-113779999D02*
X122161999Y-113779999D01*
X117094000Y-115062000D02*
X133096000Y-115062000D01*
X133096000Y-115062000D02*
X133858000Y-114300000D01*
X116782010Y-114750010D02*
X117094000Y-115062000D01*
X115062000Y-113030000D02*
X116782010Y-114750010D01*
X152781000Y-76200000D02*
X152713163Y-76267837D01*
X152713163Y-76267837D02*
X152509000Y-76267837D01*
X145173427Y-76294573D02*
X145141000Y-76327000D01*
D26*
X145141000Y-76327000D02*
X137668000Y-76327000D01*
D23*
X137668000Y-76327000D02*
X137067427Y-76327000D01*
X137067427Y-76327000D02*
X137035000Y-76294573D01*
D26*
X145173427Y-76294573D02*
X147839185Y-73628815D01*
X133050001Y-75646001D02*
X133698573Y-76294573D01*
X133698573Y-76294573D02*
X137035000Y-76294573D01*
X133350000Y-74168000D02*
X133050001Y-74467999D01*
X133050001Y-74467999D02*
X133050001Y-75646001D01*
X133096000Y-71711736D02*
X133096000Y-73914000D01*
X133096000Y-73914000D02*
X133350000Y-74168000D01*
X135636000Y-69596000D02*
X135211736Y-69596000D01*
X135211736Y-69596000D02*
X133096000Y-71711736D01*
X147839185Y-73628815D02*
X148336000Y-73132000D01*
X148336000Y-73132000D02*
X148336000Y-70866000D01*
X148336000Y-70866000D02*
X149098000Y-70104000D01*
X149098000Y-70104000D02*
X151130000Y-70104000D01*
X147839185Y-75195185D02*
X148911837Y-76267837D01*
X148911837Y-76267837D02*
X152509000Y-76267837D01*
X147839185Y-73628815D02*
X147839185Y-75195185D01*
D23*
X136398000Y-78359000D02*
X136398000Y-82550000D01*
X137033000Y-83185000D02*
X140462000Y-83185000D01*
X136398000Y-82550000D02*
X137033000Y-83185000D01*
X140462000Y-83185000D02*
X143891000Y-79756000D01*
X149225000Y-79756000D02*
X151765000Y-77216000D01*
X143891000Y-79756000D02*
X149225000Y-79756000D01*
X151765000Y-77216000D02*
X159385000Y-77216000D01*
X159385000Y-77216000D02*
X162306000Y-80137000D01*
X162306000Y-80137000D02*
X162306000Y-84328000D01*
X144145000Y-80391000D02*
X154813000Y-80391000D01*
X154813000Y-80391000D02*
X155448000Y-79756000D01*
X140716000Y-83820000D02*
X144145000Y-80391000D01*
X136779000Y-83820000D02*
X140716000Y-83820000D01*
X135763000Y-82804000D02*
X136779000Y-83820000D01*
X135763000Y-80518000D02*
X135763000Y-82804000D01*
X135763000Y-77724000D02*
X135763000Y-80518000D01*
X165082499Y-76436499D02*
X166687500Y-78041500D01*
X166687500Y-78041500D02*
X167068500Y-78041500D01*
X164782500Y-76136500D02*
X165082499Y-76436499D01*
X152273000Y-83058000D02*
X157607000Y-83058000D01*
X157607000Y-83058000D02*
X157734000Y-83185000D01*
X152654000Y-81915000D02*
X153542114Y-81915000D01*
X159639000Y-81915000D02*
X153542114Y-81915000D01*
X163830000Y-93345000D02*
X163530001Y-93644999D01*
X163530001Y-93644999D02*
X162732999Y-93644999D01*
X162732999Y-93644999D02*
X161417000Y-92329000D01*
X161417000Y-92329000D02*
X161417000Y-80645000D01*
X161417000Y-80645000D02*
X159004000Y-78232000D01*
X159004000Y-78232000D02*
X152400000Y-78232000D01*
D27*
G36*
X181122057Y-54831218D02*
X180563181Y-55389120D01*
X180260346Y-56118427D01*
X180259657Y-56908109D01*
X180561218Y-57637943D01*
X181119120Y-58196819D01*
X181848427Y-58499654D01*
X182638109Y-58500343D01*
X183367943Y-58198782D01*
X183926819Y-57640880D01*
X184100000Y-57223814D01*
X184100000Y-114226437D01*
X183928782Y-113812057D01*
X183370880Y-113253181D01*
X182641573Y-112950346D01*
X181851891Y-112949657D01*
X181122057Y-113251218D01*
X180563181Y-113809120D01*
X180260346Y-114538427D01*
X180259657Y-115328109D01*
X180561218Y-116057943D01*
X181119120Y-116616819D01*
X181536186Y-116790000D01*
X145237792Y-116790000D01*
X145264200Y-116763592D01*
X145150879Y-116650271D01*
X145469632Y-116490505D01*
X145779595Y-115699783D01*
X145763367Y-114850634D01*
X145469632Y-114141495D01*
X145150877Y-113981728D01*
X143816605Y-115316000D01*
X143830748Y-115330143D01*
X143651143Y-115509748D01*
X143637000Y-115495605D01*
X143622858Y-115509748D01*
X143443253Y-115330143D01*
X143457395Y-115316000D01*
X142123123Y-113981728D01*
X141804368Y-114141495D01*
X141494405Y-114932217D01*
X141510633Y-115781366D01*
X141804368Y-116490505D01*
X142123121Y-116650271D01*
X142009800Y-116763592D01*
X142036208Y-116790000D01*
X104213563Y-116790000D01*
X104627943Y-116618782D01*
X105186819Y-116060880D01*
X105489654Y-115331573D01*
X105490343Y-114541891D01*
X105188782Y-113812057D01*
X104630880Y-113253181D01*
X103901573Y-112950346D01*
X103111891Y-112949657D01*
X102382057Y-113251218D01*
X101823181Y-113809120D01*
X101650000Y-114226186D01*
X101650000Y-111526285D01*
X111898760Y-111526285D01*
X112109169Y-112035515D01*
X112498436Y-112425461D01*
X112524000Y-112436076D01*
X112524000Y-114046000D01*
X112581852Y-114336839D01*
X112746599Y-114583401D01*
X114524599Y-116361401D01*
X114771161Y-116526148D01*
X115062000Y-116584000D01*
X132787537Y-116584000D01*
X132819673Y-116616192D01*
X133163201Y-116758838D01*
X133535167Y-116759162D01*
X133878943Y-116617117D01*
X134142192Y-116354327D01*
X134284838Y-116010799D01*
X134285162Y-115638833D01*
X134143117Y-115295057D01*
X134071599Y-115223414D01*
X134386943Y-115093117D01*
X134650192Y-114830327D01*
X134792838Y-114486799D01*
X134793162Y-114114833D01*
X134663954Y-113802123D01*
X142302728Y-113802123D01*
X143637000Y-115136395D01*
X144971272Y-113802123D01*
X144811505Y-113483368D01*
X144020783Y-113173405D01*
X143171634Y-113189633D01*
X142462495Y-113483368D01*
X142302728Y-113802123D01*
X134663954Y-113802123D01*
X134651117Y-113771057D01*
X134388327Y-113507808D01*
X134044799Y-113365162D01*
X133672833Y-113364838D01*
X133329057Y-113506883D01*
X133095824Y-113739709D01*
X132864327Y-113507808D01*
X132520799Y-113365162D01*
X132148833Y-113364838D01*
X131805057Y-113506883D01*
X131771882Y-113540000D01*
X122996802Y-113540000D01*
X122699400Y-113242598D01*
X122452838Y-113077851D01*
X122161999Y-113019999D01*
X120003009Y-113019999D01*
X120003240Y-112755715D01*
X119792831Y-112246485D01*
X119403564Y-111856539D01*
X118894702Y-111645241D01*
X118343715Y-111644760D01*
X118141950Y-111728127D01*
X118224759Y-111528702D01*
X118225240Y-110977715D01*
X118014831Y-110468485D01*
X117625564Y-110078539D01*
X117116702Y-109867241D01*
X116565715Y-109866760D01*
X116056485Y-110077169D01*
X115666539Y-110466436D01*
X115455241Y-110975298D01*
X115454760Y-111526285D01*
X115538127Y-111728050D01*
X115338702Y-111645241D01*
X114787715Y-111644760D01*
X114585950Y-111728127D01*
X114668759Y-111528702D01*
X114669240Y-110977715D01*
X114458831Y-110468485D01*
X114069564Y-110078539D01*
X113560702Y-109867241D01*
X113009715Y-109866760D01*
X112500485Y-110077169D01*
X112110539Y-110466436D01*
X111899241Y-110975298D01*
X111898760Y-111526285D01*
X101650000Y-111526285D01*
X101650000Y-108643167D01*
X106760838Y-108643167D01*
X106902883Y-108986943D01*
X107165673Y-109250192D01*
X107509201Y-109392838D01*
X107881167Y-109393162D01*
X108224943Y-109251117D01*
X108488192Y-108988327D01*
X108498294Y-108964000D01*
X119827198Y-108964000D01*
X122398599Y-111535401D01*
X122645160Y-111700148D01*
X122936000Y-111758000D01*
X124405537Y-111758000D01*
X124437673Y-111790192D01*
X124781201Y-111932838D01*
X125153167Y-111933162D01*
X125496943Y-111791117D01*
X125760192Y-111528327D01*
X125902838Y-111184799D01*
X125903162Y-110812833D01*
X125761117Y-110469057D01*
X125498327Y-110205808D01*
X125154799Y-110063162D01*
X124782833Y-110062838D01*
X124439057Y-110204883D01*
X124405882Y-110238000D01*
X123250802Y-110238000D01*
X122867802Y-109855000D01*
X123482517Y-109240285D01*
X131456760Y-109240285D01*
X131667169Y-109749515D01*
X132056436Y-110139461D01*
X132177937Y-110189912D01*
X134692010Y-112703985D01*
X134692012Y-112703988D01*
X135036167Y-112933944D01*
X135125118Y-112993379D01*
X135636000Y-113095001D01*
X135636005Y-113095000D01*
X140571978Y-113095000D01*
X140693184Y-113145329D01*
X141244398Y-113145810D01*
X141753837Y-112935314D01*
X142143944Y-112545887D01*
X142355329Y-112036816D01*
X142355810Y-111485602D01*
X142145314Y-110976163D01*
X141755887Y-110586056D01*
X141524619Y-110490025D01*
X141753837Y-110395314D01*
X142143944Y-110005887D01*
X142355329Y-109496816D01*
X142355810Y-108945602D01*
X142145314Y-108436163D01*
X141913493Y-108203937D01*
X142143944Y-107973887D01*
X142355329Y-107464816D01*
X142355810Y-106913602D01*
X142145314Y-106404163D01*
X141755887Y-106014056D01*
X141540504Y-105924621D01*
X141694265Y-105860931D01*
X141762325Y-105619930D01*
X140970000Y-104827605D01*
X140177675Y-105619930D01*
X140245735Y-105860931D01*
X140411040Y-105919769D01*
X140186163Y-106012686D01*
X139796056Y-106402113D01*
X139584671Y-106911184D01*
X139584190Y-107462398D01*
X139794686Y-107971837D01*
X140026507Y-108204063D01*
X139796056Y-108434113D01*
X139584671Y-108943184D01*
X139584190Y-109494398D01*
X139794686Y-110003837D01*
X140184113Y-110393944D01*
X140258904Y-110425000D01*
X136188975Y-110425000D01*
X134066381Y-108302405D01*
X134016831Y-108182485D01*
X133627564Y-107792539D01*
X133118702Y-107581241D01*
X132567715Y-107580760D01*
X132058485Y-107791169D01*
X131668539Y-108180436D01*
X131457241Y-108689298D01*
X131456760Y-109240285D01*
X123482517Y-109240285D01*
X126912400Y-105810402D01*
X127077147Y-105563841D01*
X127101716Y-105440325D01*
X127134999Y-105273001D01*
X127134999Y-104443034D01*
X139572233Y-104443034D01*
X139600195Y-104993538D01*
X139757069Y-105372265D01*
X139998070Y-105440325D01*
X140790395Y-104648000D01*
X141149605Y-104648000D01*
X141941930Y-105440325D01*
X142182931Y-105372265D01*
X142367767Y-104852966D01*
X142339805Y-104302462D01*
X142182931Y-103923735D01*
X141941930Y-103855675D01*
X141149605Y-104648000D01*
X140790395Y-104648000D01*
X139998070Y-103855675D01*
X139757069Y-103923735D01*
X139572233Y-104443034D01*
X127134999Y-104443034D01*
X127134999Y-103676070D01*
X140177675Y-103676070D01*
X140970000Y-104468395D01*
X141762325Y-103676070D01*
X141694265Y-103435069D01*
X141174966Y-103250233D01*
X140624462Y-103278195D01*
X140245735Y-103435069D01*
X140177675Y-103676070D01*
X127134999Y-103676070D01*
X127134999Y-103113877D01*
X142302728Y-103113877D01*
X142462495Y-103432632D01*
X143253217Y-103742595D01*
X144102366Y-103726367D01*
X144811505Y-103432632D01*
X144971272Y-103113877D01*
X143637000Y-101779605D01*
X142302728Y-103113877D01*
X127134999Y-103113877D01*
X127134999Y-102285803D01*
X127290888Y-102129914D01*
X127455635Y-101883352D01*
X127513487Y-101592513D01*
X127513487Y-96451167D01*
X132922838Y-96451167D01*
X133064883Y-96794943D01*
X133098000Y-96828118D01*
X133098000Y-99767537D01*
X133065808Y-99799673D01*
X132923162Y-100143201D01*
X132922838Y-100515167D01*
X133064883Y-100858943D01*
X133327673Y-101122192D01*
X133671201Y-101264838D01*
X134043167Y-101265162D01*
X134161623Y-101216217D01*
X141494405Y-101216217D01*
X141510633Y-102065366D01*
X141804368Y-102774505D01*
X142123123Y-102934272D01*
X143457395Y-101600000D01*
X143816605Y-101600000D01*
X145150877Y-102934272D01*
X145469632Y-102774505D01*
X145779595Y-101983783D01*
X145763367Y-101134634D01*
X145469632Y-100425495D01*
X145150877Y-100265728D01*
X143816605Y-101600000D01*
X143457395Y-101600000D01*
X142123123Y-100265728D01*
X141804368Y-100425495D01*
X141494405Y-101216217D01*
X134161623Y-101216217D01*
X134386943Y-101123117D01*
X134650192Y-100860327D01*
X134792838Y-100516799D01*
X134793162Y-100144833D01*
X134768904Y-100086123D01*
X142302728Y-100086123D01*
X143637000Y-101420395D01*
X144971272Y-100086123D01*
X144811505Y-99767368D01*
X144020783Y-99457405D01*
X143171634Y-99473633D01*
X142462495Y-99767368D01*
X142302728Y-100086123D01*
X134768904Y-100086123D01*
X134651117Y-99801057D01*
X134618000Y-99767882D01*
X134618000Y-96828463D01*
X134650192Y-96796327D01*
X134792838Y-96452799D01*
X134793162Y-96080833D01*
X134651117Y-95737057D01*
X134388327Y-95473808D01*
X134044799Y-95331162D01*
X133672833Y-95330838D01*
X133329057Y-95472883D01*
X133065808Y-95735673D01*
X132923162Y-96079201D01*
X132922838Y-96451167D01*
X127513487Y-96451167D01*
X127513487Y-96237181D01*
X127455635Y-95946342D01*
X127290888Y-95699780D01*
X126949955Y-95358847D01*
X127568802Y-94740000D01*
X144465198Y-94740000D01*
X148162878Y-98437680D01*
X148162838Y-98483167D01*
X148304883Y-98826943D01*
X148567673Y-99090192D01*
X148911201Y-99232838D01*
X149283167Y-99233162D01*
X149626943Y-99091117D01*
X149890192Y-98828327D01*
X150032838Y-98484799D01*
X150033162Y-98112833D01*
X149891117Y-97769057D01*
X149628327Y-97505808D01*
X149284799Y-97363162D01*
X149237923Y-97363121D01*
X145317401Y-93442599D01*
X145070839Y-93277852D01*
X144780000Y-93220000D01*
X127254000Y-93220000D01*
X126963161Y-93277852D01*
X126716599Y-93442599D01*
X125715197Y-94444001D01*
X121965999Y-94444001D01*
X121675160Y-94501853D01*
X121574787Y-94568920D01*
X121480833Y-94568838D01*
X121137057Y-94710883D01*
X120873808Y-94973673D01*
X120731162Y-95317201D01*
X120730838Y-95689167D01*
X120872883Y-96032943D01*
X121135673Y-96296192D01*
X121479201Y-96438838D01*
X121851167Y-96439162D01*
X122194943Y-96297117D01*
X122458192Y-96034327D01*
X122487394Y-95964001D01*
X124963525Y-95964001D01*
X124937808Y-95989673D01*
X124795162Y-96333201D01*
X124794838Y-96705167D01*
X124936883Y-97048943D01*
X124970000Y-97082118D01*
X124970000Y-104841198D01*
X122621198Y-107190000D01*
X120964802Y-107190000D01*
X120542402Y-106767600D01*
X120295840Y-106602853D01*
X120005001Y-106545001D01*
X118537118Y-106545001D01*
X118537162Y-106494833D01*
X118395117Y-106151057D01*
X118362000Y-106117882D01*
X118362000Y-103378000D01*
X118304148Y-103087161D01*
X118139401Y-102840599D01*
X117631401Y-102332599D01*
X117384839Y-102167852D01*
X117094000Y-102110000D01*
X113123072Y-102110000D01*
X113061117Y-101960057D01*
X112798327Y-101696808D01*
X112454799Y-101554162D01*
X112082833Y-101553838D01*
X111739057Y-101695883D01*
X111475808Y-101958673D01*
X111333162Y-102302201D01*
X111332838Y-102674167D01*
X111474883Y-103017943D01*
X111737673Y-103281192D01*
X112081201Y-103423838D01*
X112136270Y-103423886D01*
X112358160Y-103572148D01*
X112649000Y-103630000D01*
X116779198Y-103630000D01*
X116842000Y-103692802D01*
X116842000Y-106117537D01*
X116809808Y-106149673D01*
X116667162Y-106493201D01*
X116667117Y-106545001D01*
X116504897Y-106545001D01*
X116505162Y-106240833D01*
X116363117Y-105897057D01*
X116100327Y-105633808D01*
X115756799Y-105491162D01*
X115384833Y-105490838D01*
X115041057Y-105632883D01*
X114777808Y-105895673D01*
X114635162Y-106239201D01*
X114634838Y-106611167D01*
X114776883Y-106954943D01*
X114844245Y-107022422D01*
X114867852Y-107141103D01*
X115032599Y-107387665D01*
X115088934Y-107444000D01*
X107950000Y-107444000D01*
X107659160Y-107501852D01*
X107627600Y-107522940D01*
X107510833Y-107522838D01*
X107167057Y-107664883D01*
X106903808Y-107927673D01*
X106761162Y-108271201D01*
X106760838Y-108643167D01*
X101650000Y-108643167D01*
X101650000Y-103037691D01*
X106270314Y-103037691D01*
X106412359Y-103381467D01*
X106675149Y-103644716D01*
X107018677Y-103787362D01*
X107390643Y-103787686D01*
X107734419Y-103645641D01*
X107997668Y-103382851D01*
X108140314Y-103039323D01*
X108140355Y-102992447D01*
X111789401Y-99343401D01*
X111954148Y-99096839D01*
X112012000Y-98806000D01*
X112012000Y-92120999D01*
X112097001Y-92120999D01*
X112097001Y-99903001D01*
X112154853Y-100193840D01*
X112319600Y-100440402D01*
X112746599Y-100867401D01*
X112993161Y-101032148D01*
X113284000Y-101090000D01*
X113864537Y-101090000D01*
X113896673Y-101122192D01*
X114240201Y-101264838D01*
X114612167Y-101265162D01*
X114955943Y-101123117D01*
X115219192Y-100860327D01*
X115299979Y-100665772D01*
X115324512Y-100702488D01*
X116150010Y-101527985D01*
X116150012Y-101527988D01*
X116401286Y-101695883D01*
X116583117Y-101817379D01*
X117094000Y-101919000D01*
X122878215Y-101919000D01*
X123139314Y-102180555D01*
X123501212Y-102330828D01*
X123893069Y-102331170D01*
X124255229Y-102181529D01*
X124532555Y-101904686D01*
X124682828Y-101542788D01*
X124683170Y-101150931D01*
X124533529Y-100788771D01*
X124256686Y-100511445D01*
X124256557Y-100511392D01*
X124169379Y-100073118D01*
X123879988Y-99640012D01*
X123446882Y-99350621D01*
X122936000Y-99249000D01*
X117646975Y-99249000D01*
X117603500Y-99205524D01*
X117603500Y-84029350D01*
X129776255Y-84029350D01*
X129800977Y-84234180D01*
X130192931Y-84360309D01*
X130603318Y-84326842D01*
X130827023Y-84234180D01*
X130851745Y-84029350D01*
X130314000Y-83491605D01*
X129776255Y-84029350D01*
X117603500Y-84029350D01*
X117603500Y-83190931D01*
X129265691Y-83190931D01*
X129299158Y-83601318D01*
X129391820Y-83825023D01*
X129596650Y-83849745D01*
X130134395Y-83312000D01*
X130493605Y-83312000D01*
X130835324Y-83653719D01*
X130936058Y-83897515D01*
X131226954Y-84188919D01*
X131607223Y-84346820D01*
X132018971Y-84347179D01*
X132399515Y-84189942D01*
X132690919Y-83899046D01*
X132848820Y-83518777D01*
X132849179Y-83107029D01*
X132691942Y-82726485D01*
X132401046Y-82435081D01*
X132020777Y-82277180D01*
X131609029Y-82276821D01*
X131228485Y-82434058D01*
X130937081Y-82724954D01*
X130835134Y-82970471D01*
X130493605Y-83312000D01*
X130134395Y-83312000D01*
X129596650Y-82774255D01*
X129391820Y-82798977D01*
X129265691Y-83190931D01*
X117603500Y-83190931D01*
X117603500Y-82594650D01*
X129776255Y-82594650D01*
X130314000Y-83132395D01*
X130851745Y-82594650D01*
X130827023Y-82389820D01*
X130435069Y-82263691D01*
X130024682Y-82297158D01*
X129800977Y-82389820D01*
X129776255Y-82594650D01*
X117603500Y-82594650D01*
X117603500Y-74467999D01*
X132165000Y-74467999D01*
X132165001Y-74468004D01*
X132165001Y-75645996D01*
X132165000Y-75646001D01*
X132204716Y-75845661D01*
X132232368Y-75984676D01*
X132376242Y-76200000D01*
X132424211Y-76271791D01*
X133072781Y-76920360D01*
X133072783Y-76920363D01*
X133351116Y-77106338D01*
X133359898Y-77112206D01*
X133698573Y-77179573D01*
X134984933Y-77179573D01*
X134970808Y-77193673D01*
X134828162Y-77537201D01*
X134827838Y-77909167D01*
X134969883Y-78252943D01*
X135003000Y-78286118D01*
X135003000Y-82804000D01*
X135060852Y-83094839D01*
X135225599Y-83341401D01*
X136241599Y-84357401D01*
X136488161Y-84522148D01*
X136779000Y-84580000D01*
X140716000Y-84580000D01*
X141006839Y-84522148D01*
X141253401Y-84357401D01*
X141327452Y-84283350D01*
X143746255Y-84283350D01*
X143770977Y-84488180D01*
X144162931Y-84614309D01*
X144573318Y-84580842D01*
X144797023Y-84488180D01*
X144821745Y-84283350D01*
X144284000Y-83745605D01*
X143746255Y-84283350D01*
X141327452Y-84283350D01*
X142165871Y-83444931D01*
X143235691Y-83444931D01*
X143269158Y-83855318D01*
X143361820Y-84079023D01*
X143566650Y-84103745D01*
X144104395Y-83566000D01*
X144463605Y-83566000D01*
X144805324Y-83907719D01*
X144906058Y-84151515D01*
X145196954Y-84442919D01*
X145577223Y-84600820D01*
X145988971Y-84601179D01*
X146369515Y-84443942D01*
X146660919Y-84153046D01*
X146818820Y-83772777D01*
X146819179Y-83361029D01*
X146661942Y-82980485D01*
X146371046Y-82689081D01*
X145990777Y-82531180D01*
X145579029Y-82530821D01*
X145198485Y-82688058D01*
X144907081Y-82978954D01*
X144805134Y-83224471D01*
X144463605Y-83566000D01*
X144104395Y-83566000D01*
X143566650Y-83028255D01*
X143361820Y-83052977D01*
X143235691Y-83444931D01*
X142165871Y-83444931D01*
X142762152Y-82848650D01*
X143746255Y-82848650D01*
X144284000Y-83386395D01*
X144821745Y-82848650D01*
X144797023Y-82643820D01*
X144405069Y-82517691D01*
X143994682Y-82551158D01*
X143770977Y-82643820D01*
X143746255Y-82848650D01*
X142762152Y-82848650D01*
X144459802Y-81151000D01*
X152095889Y-81151000D01*
X151861808Y-81384673D01*
X151719162Y-81728201D01*
X151718838Y-82100167D01*
X151780650Y-82249763D01*
X151744057Y-82264883D01*
X151480808Y-82527673D01*
X151338162Y-82871201D01*
X151337838Y-83243167D01*
X151479883Y-83586943D01*
X151742673Y-83850192D01*
X152086201Y-83992838D01*
X152458167Y-83993162D01*
X152801943Y-83851117D01*
X152835118Y-83818000D01*
X157044759Y-83818000D01*
X157203673Y-83977192D01*
X157283659Y-84010405D01*
X157205057Y-84042883D01*
X156941808Y-84305673D01*
X156799162Y-84649201D01*
X156799121Y-84696077D01*
X152624599Y-88870599D01*
X152459852Y-89117161D01*
X152402000Y-89408000D01*
X152402000Y-92622392D01*
X152312392Y-92712000D01*
X149152463Y-92712000D01*
X149120327Y-92679808D01*
X148776799Y-92537162D01*
X148404833Y-92536838D01*
X148061057Y-92678883D01*
X147797808Y-92941673D01*
X147655162Y-93285201D01*
X147654838Y-93657167D01*
X147796883Y-94000943D01*
X148059673Y-94264192D01*
X148403201Y-94406838D01*
X148775167Y-94407162D01*
X149118943Y-94265117D01*
X149152118Y-94232000D01*
X152627194Y-94232000D01*
X152918033Y-94174148D01*
X153164595Y-94009401D01*
X153699401Y-93474595D01*
X153864148Y-93228033D01*
X153922000Y-92937194D01*
X153922000Y-89722802D01*
X157873680Y-85771122D01*
X157919167Y-85771162D01*
X158262943Y-85629117D01*
X158526192Y-85366327D01*
X158668838Y-85022799D01*
X158669162Y-84650833D01*
X158527117Y-84307057D01*
X158264327Y-84043808D01*
X158184341Y-84010595D01*
X158262943Y-83978117D01*
X158526192Y-83715327D01*
X158668838Y-83371799D01*
X158669162Y-82999833D01*
X158534944Y-82675000D01*
X159076537Y-82675000D01*
X159108673Y-82707192D01*
X159452201Y-82849838D01*
X159824167Y-82850162D01*
X160167943Y-82708117D01*
X160431192Y-82445327D01*
X160573838Y-82101799D01*
X160574162Y-81729833D01*
X160432117Y-81386057D01*
X160169327Y-81122808D01*
X159825799Y-80980162D01*
X159453833Y-80979838D01*
X159110057Y-81121883D01*
X159076882Y-81155000D01*
X153216463Y-81155000D01*
X153212470Y-81151000D01*
X154813000Y-81151000D01*
X155103839Y-81093148D01*
X155350401Y-80928401D01*
X155587680Y-80691122D01*
X155633167Y-80691162D01*
X155976943Y-80549117D01*
X156240192Y-80286327D01*
X156382838Y-79942799D01*
X156383162Y-79570833D01*
X156241117Y-79227057D01*
X156006470Y-78992000D01*
X158689198Y-78992000D01*
X160657000Y-80959802D01*
X160657000Y-92329000D01*
X160714852Y-92619839D01*
X160879599Y-92866401D01*
X162195598Y-94182400D01*
X162442160Y-94347147D01*
X162732999Y-94404999D01*
X163530001Y-94404999D01*
X163820840Y-94347147D01*
X163921213Y-94280080D01*
X164015167Y-94280162D01*
X164358943Y-94138117D01*
X164622192Y-93875327D01*
X164764838Y-93531799D01*
X164765162Y-93159833D01*
X164623117Y-92816057D01*
X164360327Y-92552808D01*
X164016799Y-92410162D01*
X163644833Y-92409838D01*
X163301057Y-92551883D01*
X163037808Y-92814673D01*
X163020106Y-92857304D01*
X162177000Y-92014198D01*
X162177000Y-85262888D01*
X162491167Y-85263162D01*
X162498500Y-85260132D01*
X162498500Y-88401037D01*
X162466308Y-88433173D01*
X162323662Y-88776701D01*
X162323338Y-89148667D01*
X162465383Y-89492443D01*
X162728173Y-89755692D01*
X163071701Y-89898338D01*
X163443667Y-89898662D01*
X163787443Y-89756617D01*
X164050692Y-89493827D01*
X164193338Y-89150299D01*
X164193662Y-88778333D01*
X164051617Y-88434557D01*
X164018500Y-88401382D01*
X164018500Y-88382735D01*
X164151201Y-88437838D01*
X164198077Y-88437879D01*
X170099303Y-94339105D01*
X170099303Y-99512498D01*
X170067111Y-99544634D01*
X169924465Y-99888162D01*
X169924424Y-99935038D01*
X166848599Y-103010863D01*
X166842923Y-103019358D01*
X166657403Y-103204878D01*
X166611916Y-103204838D01*
X166268140Y-103346883D01*
X166004891Y-103609673D01*
X165862245Y-103953201D01*
X165861921Y-104325167D01*
X166003966Y-104668943D01*
X166266756Y-104932192D01*
X166610284Y-105074838D01*
X166982250Y-105075162D01*
X167326026Y-104933117D01*
X167589275Y-104670327D01*
X167731921Y-104326799D01*
X167731962Y-104279923D01*
X167923401Y-104088484D01*
X167929078Y-104079988D01*
X170998983Y-101010083D01*
X171044470Y-101010123D01*
X171388246Y-100868078D01*
X171651495Y-100605288D01*
X171794141Y-100261760D01*
X171794465Y-99889794D01*
X171652420Y-99546018D01*
X171619303Y-99512843D01*
X171619303Y-98936071D01*
X171646310Y-98978041D01*
X171858510Y-99123031D01*
X172110400Y-99174040D01*
X173837600Y-99174040D01*
X174072917Y-99129762D01*
X174289041Y-98990690D01*
X174434031Y-98778490D01*
X174442864Y-98734869D01*
X174454330Y-98752029D01*
X174940511Y-99076885D01*
X175514000Y-99190959D01*
X176087489Y-99076885D01*
X176573670Y-98752029D01*
X176784000Y-98437248D01*
X176994330Y-98752029D01*
X177480511Y-99076885D01*
X178054000Y-99190959D01*
X178627489Y-99076885D01*
X179113670Y-98752029D01*
X179334980Y-98420816D01*
X179614839Y-98365148D01*
X179861401Y-98200401D01*
X180326064Y-97735738D01*
X180490811Y-97489176D01*
X180548663Y-97198337D01*
X180548663Y-93555663D01*
X180494864Y-93285201D01*
X180490811Y-93264823D01*
X180326064Y-93018262D01*
X179497122Y-92189320D01*
X179497162Y-92143833D01*
X179355117Y-91800057D01*
X179092327Y-91536808D01*
X178748799Y-91394162D01*
X178376833Y-91393838D01*
X178033057Y-91535883D01*
X177999882Y-91569000D01*
X171256802Y-91569000D01*
X164717000Y-85029198D01*
X164717000Y-84826963D01*
X164749192Y-84794827D01*
X164891838Y-84451299D01*
X164892162Y-84079333D01*
X164750117Y-83735557D01*
X164487327Y-83472308D01*
X164143799Y-83329662D01*
X164018500Y-83329553D01*
X164018500Y-81834054D01*
X164142167Y-81834162D01*
X164485943Y-81692117D01*
X164519118Y-81659000D01*
X164979423Y-81659000D01*
X165007673Y-81687299D01*
X165351201Y-81829945D01*
X165723167Y-81830269D01*
X166066943Y-81688224D01*
X166330192Y-81425434D01*
X166472838Y-81081906D01*
X166473162Y-80709940D01*
X166331117Y-80366164D01*
X166068327Y-80102915D01*
X165724799Y-79960269D01*
X165352833Y-79959945D01*
X165009057Y-80101990D01*
X164971982Y-80139000D01*
X164519463Y-80139000D01*
X164487327Y-80106808D01*
X164143799Y-79964162D01*
X164018500Y-79964053D01*
X164018500Y-76694611D01*
X164252173Y-76928692D01*
X164595701Y-77071338D01*
X164642577Y-77071379D01*
X166150099Y-78578901D01*
X166396660Y-78743648D01*
X166461077Y-78756461D01*
X166538173Y-78833692D01*
X166881701Y-78976338D01*
X167253667Y-78976662D01*
X167597443Y-78834617D01*
X167860692Y-78571827D01*
X168003338Y-78228299D01*
X168003662Y-77856333D01*
X167861617Y-77512557D01*
X167598827Y-77249308D01*
X167255299Y-77106662D01*
X166883333Y-77106338D01*
X166843570Y-77122768D01*
X165717622Y-75996820D01*
X165717662Y-75951333D01*
X165575617Y-75607557D01*
X165312827Y-75344308D01*
X164969299Y-75201662D01*
X164650612Y-75201384D01*
X164764838Y-74926299D01*
X164765162Y-74554333D01*
X164623117Y-74210557D01*
X164360327Y-73947308D01*
X164016799Y-73804662D01*
X163644833Y-73804338D01*
X163301057Y-73946383D01*
X163037808Y-74209173D01*
X162895162Y-74552701D01*
X162895121Y-74599577D01*
X162721099Y-74773599D01*
X162556352Y-75020161D01*
X162498500Y-75311000D01*
X162498500Y-79254698D01*
X159922401Y-76678599D01*
X159675839Y-76513852D01*
X159385000Y-76456000D01*
X153687103Y-76456000D01*
X153715838Y-76386799D01*
X153716162Y-76014833D01*
X153574117Y-75671057D01*
X153311327Y-75407808D01*
X152967799Y-75265162D01*
X152595833Y-75264838D01*
X152310253Y-75382837D01*
X149278416Y-75382837D01*
X148724185Y-74828605D01*
X148724185Y-73995394D01*
X148961787Y-73757792D01*
X148961790Y-73757790D01*
X149153633Y-73470675D01*
X149153634Y-73470674D01*
X149221001Y-73132000D01*
X149221000Y-73131995D01*
X149221000Y-71232580D01*
X149464579Y-70989000D01*
X150823178Y-70989000D01*
X150943201Y-71038838D01*
X151315167Y-71039162D01*
X151658943Y-70897117D01*
X151922192Y-70634327D01*
X152064838Y-70290799D01*
X152065162Y-69918833D01*
X151923117Y-69575057D01*
X151660327Y-69311808D01*
X151316799Y-69169162D01*
X150944833Y-69168838D01*
X150823431Y-69219000D01*
X149098005Y-69219000D01*
X149098000Y-69218999D01*
X148841672Y-69269987D01*
X148759325Y-69286367D01*
X148472210Y-69478210D01*
X148472208Y-69478213D01*
X147710210Y-70240210D01*
X147518367Y-70527325D01*
X147518367Y-70527326D01*
X147450999Y-70866000D01*
X147451000Y-70866005D01*
X147451000Y-72765420D01*
X147430350Y-72786071D01*
X147310242Y-72835698D01*
X147046993Y-73098488D01*
X146996619Y-73219802D01*
X144774420Y-75442000D01*
X137974822Y-75442000D01*
X137854799Y-75392162D01*
X137482833Y-75391838D01*
X137308328Y-75463942D01*
X137035000Y-75409573D01*
X134065152Y-75409573D01*
X133935001Y-75279421D01*
X133935001Y-74905157D01*
X134142192Y-74698327D01*
X134284838Y-74354799D01*
X134285162Y-73982833D01*
X134143117Y-73639057D01*
X133981000Y-73476657D01*
X133981000Y-72078316D01*
X135528408Y-70530907D01*
X135821167Y-70531162D01*
X136164943Y-70389117D01*
X136428192Y-70126327D01*
X136570838Y-69782799D01*
X136571162Y-69410833D01*
X136429117Y-69067057D01*
X136166327Y-68803808D01*
X135822799Y-68661162D01*
X135450833Y-68660838D01*
X135329431Y-68711000D01*
X135211741Y-68711000D01*
X135211736Y-68710999D01*
X134873062Y-68778366D01*
X134785487Y-68836882D01*
X134585946Y-68970210D01*
X134585944Y-68970213D01*
X132470210Y-71085946D01*
X132278367Y-71373061D01*
X132278367Y-71373062D01*
X132210999Y-71711736D01*
X132211000Y-71711741D01*
X132211000Y-73913995D01*
X132210999Y-73914000D01*
X132235536Y-74037352D01*
X132248907Y-74104571D01*
X132232368Y-74129324D01*
X132232368Y-74129325D01*
X132165000Y-74467999D01*
X117603500Y-74467999D01*
X117603500Y-70423000D01*
X125729995Y-70423000D01*
X125730000Y-70423001D01*
X126240883Y-70321379D01*
X126673988Y-70031988D01*
X127435985Y-69269990D01*
X127435988Y-69269988D01*
X127725379Y-68836882D01*
X127732142Y-68802883D01*
X127827001Y-68326000D01*
X127827000Y-68325995D01*
X127827000Y-68131733D01*
X127834824Y-68123923D01*
X128053750Y-67596691D01*
X128054025Y-67280775D01*
X134643803Y-67280775D01*
X134816233Y-67698086D01*
X135135235Y-68017645D01*
X135552244Y-68190803D01*
X136003775Y-68191197D01*
X136421086Y-68018767D01*
X136594050Y-67846104D01*
X137168501Y-67846104D01*
X137205648Y-68061217D01*
X137633972Y-68204112D01*
X138084375Y-68172217D01*
X138352352Y-68061217D01*
X138389499Y-67846104D01*
X138332170Y-67788775D01*
X149772803Y-67788775D01*
X149945233Y-68206086D01*
X150264235Y-68525645D01*
X150681244Y-68698803D01*
X151132775Y-68699197D01*
X151550086Y-68526767D01*
X151723050Y-68354104D01*
X152297501Y-68354104D01*
X152334648Y-68569217D01*
X152762972Y-68712112D01*
X153213375Y-68680217D01*
X153481352Y-68569217D01*
X153518499Y-68354104D01*
X152908000Y-67743605D01*
X152297501Y-68354104D01*
X151723050Y-68354104D01*
X151869645Y-68207765D01*
X151900835Y-68132650D01*
X151902783Y-68137352D01*
X152117896Y-68174499D01*
X152728395Y-67564000D01*
X153087605Y-67564000D01*
X153698104Y-68174499D01*
X153913217Y-68137352D01*
X154056112Y-67709028D01*
X154024217Y-67258625D01*
X153913217Y-66990648D01*
X153698104Y-66953501D01*
X153087605Y-67564000D01*
X152728395Y-67564000D01*
X152117896Y-66953501D01*
X151902783Y-66990648D01*
X151901168Y-66995489D01*
X151870767Y-66921914D01*
X151723007Y-66773896D01*
X152297501Y-66773896D01*
X152908000Y-67384395D01*
X153518499Y-66773896D01*
X153481352Y-66558783D01*
X153053028Y-66415888D01*
X152602625Y-66447783D01*
X152334648Y-66558783D01*
X152297501Y-66773896D01*
X151723007Y-66773896D01*
X151551765Y-66602355D01*
X151134756Y-66429197D01*
X150683225Y-66428803D01*
X150265914Y-66601233D01*
X149946355Y-66920235D01*
X149773197Y-67337244D01*
X149772803Y-67788775D01*
X138332170Y-67788775D01*
X137779000Y-67235605D01*
X137168501Y-67846104D01*
X136594050Y-67846104D01*
X136740645Y-67699765D01*
X136771835Y-67624650D01*
X136773783Y-67629352D01*
X136988896Y-67666499D01*
X137599395Y-67056000D01*
X137958605Y-67056000D01*
X138569104Y-67666499D01*
X138784217Y-67629352D01*
X138927112Y-67201028D01*
X138895217Y-66750625D01*
X138784217Y-66482648D01*
X138569104Y-66445501D01*
X137958605Y-67056000D01*
X137599395Y-67056000D01*
X136988896Y-66445501D01*
X136773783Y-66482648D01*
X136772168Y-66487489D01*
X136741767Y-66413914D01*
X136594007Y-66265896D01*
X137168501Y-66265896D01*
X137779000Y-66876395D01*
X138389499Y-66265896D01*
X138352352Y-66050783D01*
X137924028Y-65907888D01*
X137473625Y-65939783D01*
X137205648Y-66050783D01*
X137168501Y-66265896D01*
X136594007Y-66265896D01*
X136422765Y-66094355D01*
X136005756Y-65921197D01*
X135554225Y-65920803D01*
X135136914Y-66093233D01*
X134817355Y-66412235D01*
X134644197Y-66829244D01*
X134643803Y-67280775D01*
X128054025Y-67280775D01*
X128054248Y-67025813D01*
X127836243Y-66498200D01*
X127432923Y-66094176D01*
X126905691Y-65875250D01*
X126334813Y-65874752D01*
X125807200Y-66092757D01*
X125403176Y-66496077D01*
X125184250Y-67023309D01*
X125184008Y-67301224D01*
X125157000Y-67437000D01*
X125157000Y-67753000D01*
X117243299Y-67753000D01*
X116882681Y-67603258D01*
X116291911Y-67602743D01*
X115745914Y-67828344D01*
X115327812Y-68245717D01*
X115101258Y-68791319D01*
X115101102Y-68970387D01*
X115066871Y-69021617D01*
X114965249Y-69532500D01*
X114974636Y-69579694D01*
X114933500Y-69786500D01*
X114933500Y-99527914D01*
X114613799Y-99395162D01*
X114241833Y-99394838D01*
X113898057Y-99536883D01*
X113864882Y-99570000D01*
X113617001Y-99570000D01*
X113617001Y-92642603D01*
X113685943Y-92614117D01*
X113949192Y-92351327D01*
X114091838Y-92007799D01*
X114092162Y-91635833D01*
X113950117Y-91292057D01*
X113687327Y-91028808D01*
X113343799Y-90886162D01*
X112971833Y-90885838D01*
X112628057Y-91027883D01*
X112364808Y-91290673D01*
X112222162Y-91634201D01*
X112222079Y-91729549D01*
X112154853Y-91830160D01*
X112097001Y-92120999D01*
X112012000Y-92120999D01*
X112012000Y-89722802D01*
X113821401Y-87913401D01*
X113986148Y-87666839D01*
X114044000Y-87376000D01*
X114044000Y-83566000D01*
X113986148Y-83275161D01*
X113821401Y-83028599D01*
X111425122Y-80632320D01*
X111425162Y-80586833D01*
X111283117Y-80243057D01*
X111020327Y-79979808D01*
X110676799Y-79837162D01*
X110304833Y-79836838D01*
X109961057Y-79978883D01*
X109697808Y-80241673D01*
X109555162Y-80585201D01*
X109554838Y-80957167D01*
X109696883Y-81300943D01*
X109959673Y-81564192D01*
X110303201Y-81706838D01*
X110350077Y-81706879D01*
X112524000Y-83880802D01*
X112524000Y-87061198D01*
X110714599Y-88870599D01*
X110549852Y-89117161D01*
X110492000Y-89408000D01*
X110492000Y-98491198D01*
X107065796Y-101917402D01*
X107020309Y-101917362D01*
X106676533Y-102059407D01*
X106413284Y-102322197D01*
X106270638Y-102665725D01*
X106270314Y-103037691D01*
X101650000Y-103037691D01*
X101650000Y-93357089D01*
X107099743Y-93357089D01*
X107325344Y-93903086D01*
X107742717Y-94321188D01*
X108288319Y-94547742D01*
X108879089Y-94548257D01*
X109425086Y-94322656D01*
X109843188Y-93905283D01*
X110069742Y-93359681D01*
X110070257Y-92768911D01*
X109844656Y-92222914D01*
X109427283Y-91804812D01*
X108881681Y-91578258D01*
X108290911Y-91577743D01*
X107744914Y-91803344D01*
X107326812Y-92220717D01*
X107100258Y-92766319D01*
X107099743Y-93357089D01*
X101650000Y-93357089D01*
X101650000Y-90606958D01*
X107720647Y-90606958D01*
X107800920Y-90858259D01*
X108356279Y-91059718D01*
X108946458Y-91033315D01*
X109369080Y-90858259D01*
X109449353Y-90606958D01*
X108585000Y-89742605D01*
X107720647Y-90606958D01*
X101650000Y-90606958D01*
X101650000Y-89334279D01*
X107088282Y-89334279D01*
X107114685Y-89924458D01*
X107289741Y-90347080D01*
X107541042Y-90427353D01*
X108405395Y-89563000D01*
X108764605Y-89563000D01*
X109628958Y-90427353D01*
X109880259Y-90347080D01*
X110081718Y-89791721D01*
X110055315Y-89201542D01*
X109880259Y-88778920D01*
X109628958Y-88698647D01*
X108764605Y-89563000D01*
X108405395Y-89563000D01*
X107541042Y-88698647D01*
X107289741Y-88778920D01*
X107088282Y-89334279D01*
X101650000Y-89334279D01*
X101650000Y-88519042D01*
X107720647Y-88519042D01*
X108585000Y-89383395D01*
X109449353Y-88519042D01*
X109369080Y-88267741D01*
X108813721Y-88066282D01*
X108223542Y-88092685D01*
X107800920Y-88267741D01*
X107720647Y-88519042D01*
X101650000Y-88519042D01*
X101650000Y-86164167D01*
X107395838Y-86164167D01*
X107537883Y-86507943D01*
X107800673Y-86771192D01*
X108144201Y-86913838D01*
X108516167Y-86914162D01*
X108859943Y-86772117D01*
X109123192Y-86509327D01*
X109265838Y-86165799D01*
X109265879Y-86118923D01*
X110883680Y-84501122D01*
X110929167Y-84501162D01*
X111272943Y-84359117D01*
X111536192Y-84096327D01*
X111678838Y-83752799D01*
X111679162Y-83380833D01*
X111537117Y-83037057D01*
X111274327Y-82773808D01*
X110930799Y-82631162D01*
X110558833Y-82630838D01*
X110215057Y-82772883D01*
X109951808Y-83035673D01*
X109809162Y-83379201D01*
X109809121Y-83426077D01*
X108191320Y-85043878D01*
X108145833Y-85043838D01*
X107802057Y-85185883D01*
X107538808Y-85448673D01*
X107396162Y-85792201D01*
X107395838Y-86164167D01*
X101650000Y-86164167D01*
X101650000Y-59875167D01*
X174705838Y-59875167D01*
X174847883Y-60218943D01*
X174881000Y-60252118D01*
X174881000Y-62556537D01*
X174848808Y-62588673D01*
X174706162Y-62932201D01*
X174705838Y-63304167D01*
X174847883Y-63647943D01*
X175110673Y-63911192D01*
X175454201Y-64053838D01*
X175826167Y-64054162D01*
X176169943Y-63912117D01*
X176433192Y-63649327D01*
X176575838Y-63305799D01*
X176576162Y-62933833D01*
X176434117Y-62590057D01*
X176401000Y-62556882D01*
X176401000Y-60252463D01*
X176433192Y-60220327D01*
X176575838Y-59876799D01*
X176576162Y-59504833D01*
X176434117Y-59161057D01*
X176171327Y-58897808D01*
X175827799Y-58755162D01*
X175455833Y-58754838D01*
X175112057Y-58896883D01*
X174848808Y-59159673D01*
X174706162Y-59503201D01*
X174705838Y-59875167D01*
X101650000Y-59875167D01*
X101650000Y-57223563D01*
X101821218Y-57637943D01*
X102379120Y-58196819D01*
X103108427Y-58499654D01*
X103898109Y-58500343D01*
X104627943Y-58198782D01*
X105186819Y-57640880D01*
X105489654Y-56911573D01*
X105490343Y-56121891D01*
X105188782Y-55392057D01*
X104630880Y-54833181D01*
X104213814Y-54660000D01*
X181536437Y-54660000D01*
X181122057Y-54831218D01*
X181122057Y-54831218D01*
G37*
X181122057Y-54831218D02*
X180563181Y-55389120D01*
X180260346Y-56118427D01*
X180259657Y-56908109D01*
X180561218Y-57637943D01*
X181119120Y-58196819D01*
X181848427Y-58499654D01*
X182638109Y-58500343D01*
X183367943Y-58198782D01*
X183926819Y-57640880D01*
X184100000Y-57223814D01*
X184100000Y-114226437D01*
X183928782Y-113812057D01*
X183370880Y-113253181D01*
X182641573Y-112950346D01*
X181851891Y-112949657D01*
X181122057Y-113251218D01*
X180563181Y-113809120D01*
X180260346Y-114538427D01*
X180259657Y-115328109D01*
X180561218Y-116057943D01*
X181119120Y-116616819D01*
X181536186Y-116790000D01*
X145237792Y-116790000D01*
X145264200Y-116763592D01*
X145150879Y-116650271D01*
X145469632Y-116490505D01*
X145779595Y-115699783D01*
X145763367Y-114850634D01*
X145469632Y-114141495D01*
X145150877Y-113981728D01*
X143816605Y-115316000D01*
X143830748Y-115330143D01*
X143651143Y-115509748D01*
X143637000Y-115495605D01*
X143622858Y-115509748D01*
X143443253Y-115330143D01*
X143457395Y-115316000D01*
X142123123Y-113981728D01*
X141804368Y-114141495D01*
X141494405Y-114932217D01*
X141510633Y-115781366D01*
X141804368Y-116490505D01*
X142123121Y-116650271D01*
X142009800Y-116763592D01*
X142036208Y-116790000D01*
X104213563Y-116790000D01*
X104627943Y-116618782D01*
X105186819Y-116060880D01*
X105489654Y-115331573D01*
X105490343Y-114541891D01*
X105188782Y-113812057D01*
X104630880Y-113253181D01*
X103901573Y-112950346D01*
X103111891Y-112949657D01*
X102382057Y-113251218D01*
X101823181Y-113809120D01*
X101650000Y-114226186D01*
X101650000Y-111526285D01*
X111898760Y-111526285D01*
X112109169Y-112035515D01*
X112498436Y-112425461D01*
X112524000Y-112436076D01*
X112524000Y-114046000D01*
X112581852Y-114336839D01*
X112746599Y-114583401D01*
X114524599Y-116361401D01*
X114771161Y-116526148D01*
X115062000Y-116584000D01*
X132787537Y-116584000D01*
X132819673Y-116616192D01*
X133163201Y-116758838D01*
X133535167Y-116759162D01*
X133878943Y-116617117D01*
X134142192Y-116354327D01*
X134284838Y-116010799D01*
X134285162Y-115638833D01*
X134143117Y-115295057D01*
X134071599Y-115223414D01*
X134386943Y-115093117D01*
X134650192Y-114830327D01*
X134792838Y-114486799D01*
X134793162Y-114114833D01*
X134663954Y-113802123D01*
X142302728Y-113802123D01*
X143637000Y-115136395D01*
X144971272Y-113802123D01*
X144811505Y-113483368D01*
X144020783Y-113173405D01*
X143171634Y-113189633D01*
X142462495Y-113483368D01*
X142302728Y-113802123D01*
X134663954Y-113802123D01*
X134651117Y-113771057D01*
X134388327Y-113507808D01*
X134044799Y-113365162D01*
X133672833Y-113364838D01*
X133329057Y-113506883D01*
X133095824Y-113739709D01*
X132864327Y-113507808D01*
X132520799Y-113365162D01*
X132148833Y-113364838D01*
X131805057Y-113506883D01*
X131771882Y-113540000D01*
X122996802Y-113540000D01*
X122699400Y-113242598D01*
X122452838Y-113077851D01*
X122161999Y-113019999D01*
X120003009Y-113019999D01*
X120003240Y-112755715D01*
X119792831Y-112246485D01*
X119403564Y-111856539D01*
X118894702Y-111645241D01*
X118343715Y-111644760D01*
X118141950Y-111728127D01*
X118224759Y-111528702D01*
X118225240Y-110977715D01*
X118014831Y-110468485D01*
X117625564Y-110078539D01*
X117116702Y-109867241D01*
X116565715Y-109866760D01*
X116056485Y-110077169D01*
X115666539Y-110466436D01*
X115455241Y-110975298D01*
X115454760Y-111526285D01*
X115538127Y-111728050D01*
X115338702Y-111645241D01*
X114787715Y-111644760D01*
X114585950Y-111728127D01*
X114668759Y-111528702D01*
X114669240Y-110977715D01*
X114458831Y-110468485D01*
X114069564Y-110078539D01*
X113560702Y-109867241D01*
X113009715Y-109866760D01*
X112500485Y-110077169D01*
X112110539Y-110466436D01*
X111899241Y-110975298D01*
X111898760Y-111526285D01*
X101650000Y-111526285D01*
X101650000Y-108643167D01*
X106760838Y-108643167D01*
X106902883Y-108986943D01*
X107165673Y-109250192D01*
X107509201Y-109392838D01*
X107881167Y-109393162D01*
X108224943Y-109251117D01*
X108488192Y-108988327D01*
X108498294Y-108964000D01*
X119827198Y-108964000D01*
X122398599Y-111535401D01*
X122645160Y-111700148D01*
X122936000Y-111758000D01*
X124405537Y-111758000D01*
X124437673Y-111790192D01*
X124781201Y-111932838D01*
X125153167Y-111933162D01*
X125496943Y-111791117D01*
X125760192Y-111528327D01*
X125902838Y-111184799D01*
X125903162Y-110812833D01*
X125761117Y-110469057D01*
X125498327Y-110205808D01*
X125154799Y-110063162D01*
X124782833Y-110062838D01*
X124439057Y-110204883D01*
X124405882Y-110238000D01*
X123250802Y-110238000D01*
X122867802Y-109855000D01*
X123482517Y-109240285D01*
X131456760Y-109240285D01*
X131667169Y-109749515D01*
X132056436Y-110139461D01*
X132177937Y-110189912D01*
X134692010Y-112703985D01*
X134692012Y-112703988D01*
X135036167Y-112933944D01*
X135125118Y-112993379D01*
X135636000Y-113095001D01*
X135636005Y-113095000D01*
X140571978Y-113095000D01*
X140693184Y-113145329D01*
X141244398Y-113145810D01*
X141753837Y-112935314D01*
X142143944Y-112545887D01*
X142355329Y-112036816D01*
X142355810Y-111485602D01*
X142145314Y-110976163D01*
X141755887Y-110586056D01*
X141524619Y-110490025D01*
X141753837Y-110395314D01*
X142143944Y-110005887D01*
X142355329Y-109496816D01*
X142355810Y-108945602D01*
X142145314Y-108436163D01*
X141913493Y-108203937D01*
X142143944Y-107973887D01*
X142355329Y-107464816D01*
X142355810Y-106913602D01*
X142145314Y-106404163D01*
X141755887Y-106014056D01*
X141540504Y-105924621D01*
X141694265Y-105860931D01*
X141762325Y-105619930D01*
X140970000Y-104827605D01*
X140177675Y-105619930D01*
X140245735Y-105860931D01*
X140411040Y-105919769D01*
X140186163Y-106012686D01*
X139796056Y-106402113D01*
X139584671Y-106911184D01*
X139584190Y-107462398D01*
X139794686Y-107971837D01*
X140026507Y-108204063D01*
X139796056Y-108434113D01*
X139584671Y-108943184D01*
X139584190Y-109494398D01*
X139794686Y-110003837D01*
X140184113Y-110393944D01*
X140258904Y-110425000D01*
X136188975Y-110425000D01*
X134066381Y-108302405D01*
X134016831Y-108182485D01*
X133627564Y-107792539D01*
X133118702Y-107581241D01*
X132567715Y-107580760D01*
X132058485Y-107791169D01*
X131668539Y-108180436D01*
X131457241Y-108689298D01*
X131456760Y-109240285D01*
X123482517Y-109240285D01*
X126912400Y-105810402D01*
X127077147Y-105563841D01*
X127101716Y-105440325D01*
X127134999Y-105273001D01*
X127134999Y-104443034D01*
X139572233Y-104443034D01*
X139600195Y-104993538D01*
X139757069Y-105372265D01*
X139998070Y-105440325D01*
X140790395Y-104648000D01*
X141149605Y-104648000D01*
X141941930Y-105440325D01*
X142182931Y-105372265D01*
X142367767Y-104852966D01*
X142339805Y-104302462D01*
X142182931Y-103923735D01*
X141941930Y-103855675D01*
X141149605Y-104648000D01*
X140790395Y-104648000D01*
X139998070Y-103855675D01*
X139757069Y-103923735D01*
X139572233Y-104443034D01*
X127134999Y-104443034D01*
X127134999Y-103676070D01*
X140177675Y-103676070D01*
X140970000Y-104468395D01*
X141762325Y-103676070D01*
X141694265Y-103435069D01*
X141174966Y-103250233D01*
X140624462Y-103278195D01*
X140245735Y-103435069D01*
X140177675Y-103676070D01*
X127134999Y-103676070D01*
X127134999Y-103113877D01*
X142302728Y-103113877D01*
X142462495Y-103432632D01*
X143253217Y-103742595D01*
X144102366Y-103726367D01*
X144811505Y-103432632D01*
X144971272Y-103113877D01*
X143637000Y-101779605D01*
X142302728Y-103113877D01*
X127134999Y-103113877D01*
X127134999Y-102285803D01*
X127290888Y-102129914D01*
X127455635Y-101883352D01*
X127513487Y-101592513D01*
X127513487Y-96451167D01*
X132922838Y-96451167D01*
X133064883Y-96794943D01*
X133098000Y-96828118D01*
X133098000Y-99767537D01*
X133065808Y-99799673D01*
X132923162Y-100143201D01*
X132922838Y-100515167D01*
X133064883Y-100858943D01*
X133327673Y-101122192D01*
X133671201Y-101264838D01*
X134043167Y-101265162D01*
X134161623Y-101216217D01*
X141494405Y-101216217D01*
X141510633Y-102065366D01*
X141804368Y-102774505D01*
X142123123Y-102934272D01*
X143457395Y-101600000D01*
X143816605Y-101600000D01*
X145150877Y-102934272D01*
X145469632Y-102774505D01*
X145779595Y-101983783D01*
X145763367Y-101134634D01*
X145469632Y-100425495D01*
X145150877Y-100265728D01*
X143816605Y-101600000D01*
X143457395Y-101600000D01*
X142123123Y-100265728D01*
X141804368Y-100425495D01*
X141494405Y-101216217D01*
X134161623Y-101216217D01*
X134386943Y-101123117D01*
X134650192Y-100860327D01*
X134792838Y-100516799D01*
X134793162Y-100144833D01*
X134768904Y-100086123D01*
X142302728Y-100086123D01*
X143637000Y-101420395D01*
X144971272Y-100086123D01*
X144811505Y-99767368D01*
X144020783Y-99457405D01*
X143171634Y-99473633D01*
X142462495Y-99767368D01*
X142302728Y-100086123D01*
X134768904Y-100086123D01*
X134651117Y-99801057D01*
X134618000Y-99767882D01*
X134618000Y-96828463D01*
X134650192Y-96796327D01*
X134792838Y-96452799D01*
X134793162Y-96080833D01*
X134651117Y-95737057D01*
X134388327Y-95473808D01*
X134044799Y-95331162D01*
X133672833Y-95330838D01*
X133329057Y-95472883D01*
X133065808Y-95735673D01*
X132923162Y-96079201D01*
X132922838Y-96451167D01*
X127513487Y-96451167D01*
X127513487Y-96237181D01*
X127455635Y-95946342D01*
X127290888Y-95699780D01*
X126949955Y-95358847D01*
X127568802Y-94740000D01*
X144465198Y-94740000D01*
X148162878Y-98437680D01*
X148162838Y-98483167D01*
X148304883Y-98826943D01*
X148567673Y-99090192D01*
X148911201Y-99232838D01*
X149283167Y-99233162D01*
X149626943Y-99091117D01*
X149890192Y-98828327D01*
X150032838Y-98484799D01*
X150033162Y-98112833D01*
X149891117Y-97769057D01*
X149628327Y-97505808D01*
X149284799Y-97363162D01*
X149237923Y-97363121D01*
X145317401Y-93442599D01*
X145070839Y-93277852D01*
X144780000Y-93220000D01*
X127254000Y-93220000D01*
X126963161Y-93277852D01*
X126716599Y-93442599D01*
X125715197Y-94444001D01*
X121965999Y-94444001D01*
X121675160Y-94501853D01*
X121574787Y-94568920D01*
X121480833Y-94568838D01*
X121137057Y-94710883D01*
X120873808Y-94973673D01*
X120731162Y-95317201D01*
X120730838Y-95689167D01*
X120872883Y-96032943D01*
X121135673Y-96296192D01*
X121479201Y-96438838D01*
X121851167Y-96439162D01*
X122194943Y-96297117D01*
X122458192Y-96034327D01*
X122487394Y-95964001D01*
X124963525Y-95964001D01*
X124937808Y-95989673D01*
X124795162Y-96333201D01*
X124794838Y-96705167D01*
X124936883Y-97048943D01*
X124970000Y-97082118D01*
X124970000Y-104841198D01*
X122621198Y-107190000D01*
X120964802Y-107190000D01*
X120542402Y-106767600D01*
X120295840Y-106602853D01*
X120005001Y-106545001D01*
X118537118Y-106545001D01*
X118537162Y-106494833D01*
X118395117Y-106151057D01*
X118362000Y-106117882D01*
X118362000Y-103378000D01*
X118304148Y-103087161D01*
X118139401Y-102840599D01*
X117631401Y-102332599D01*
X117384839Y-102167852D01*
X117094000Y-102110000D01*
X113123072Y-102110000D01*
X113061117Y-101960057D01*
X112798327Y-101696808D01*
X112454799Y-101554162D01*
X112082833Y-101553838D01*
X111739057Y-101695883D01*
X111475808Y-101958673D01*
X111333162Y-102302201D01*
X111332838Y-102674167D01*
X111474883Y-103017943D01*
X111737673Y-103281192D01*
X112081201Y-103423838D01*
X112136270Y-103423886D01*
X112358160Y-103572148D01*
X112649000Y-103630000D01*
X116779198Y-103630000D01*
X116842000Y-103692802D01*
X116842000Y-106117537D01*
X116809808Y-106149673D01*
X116667162Y-106493201D01*
X116667117Y-106545001D01*
X116504897Y-106545001D01*
X116505162Y-106240833D01*
X116363117Y-105897057D01*
X116100327Y-105633808D01*
X115756799Y-105491162D01*
X115384833Y-105490838D01*
X115041057Y-105632883D01*
X114777808Y-105895673D01*
X114635162Y-106239201D01*
X114634838Y-106611167D01*
X114776883Y-106954943D01*
X114844245Y-107022422D01*
X114867852Y-107141103D01*
X115032599Y-107387665D01*
X115088934Y-107444000D01*
X107950000Y-107444000D01*
X107659160Y-107501852D01*
X107627600Y-107522940D01*
X107510833Y-107522838D01*
X107167057Y-107664883D01*
X106903808Y-107927673D01*
X106761162Y-108271201D01*
X106760838Y-108643167D01*
X101650000Y-108643167D01*
X101650000Y-103037691D01*
X106270314Y-103037691D01*
X106412359Y-103381467D01*
X106675149Y-103644716D01*
X107018677Y-103787362D01*
X107390643Y-103787686D01*
X107734419Y-103645641D01*
X107997668Y-103382851D01*
X108140314Y-103039323D01*
X108140355Y-102992447D01*
X111789401Y-99343401D01*
X111954148Y-99096839D01*
X112012000Y-98806000D01*
X112012000Y-92120999D01*
X112097001Y-92120999D01*
X112097001Y-99903001D01*
X112154853Y-100193840D01*
X112319600Y-100440402D01*
X112746599Y-100867401D01*
X112993161Y-101032148D01*
X113284000Y-101090000D01*
X113864537Y-101090000D01*
X113896673Y-101122192D01*
X114240201Y-101264838D01*
X114612167Y-101265162D01*
X114955943Y-101123117D01*
X115219192Y-100860327D01*
X115299979Y-100665772D01*
X115324512Y-100702488D01*
X116150010Y-101527985D01*
X116150012Y-101527988D01*
X116401286Y-101695883D01*
X116583117Y-101817379D01*
X117094000Y-101919000D01*
X122878215Y-101919000D01*
X123139314Y-102180555D01*
X123501212Y-102330828D01*
X123893069Y-102331170D01*
X124255229Y-102181529D01*
X124532555Y-101904686D01*
X124682828Y-101542788D01*
X124683170Y-101150931D01*
X124533529Y-100788771D01*
X124256686Y-100511445D01*
X124256557Y-100511392D01*
X124169379Y-100073118D01*
X123879988Y-99640012D01*
X123446882Y-99350621D01*
X122936000Y-99249000D01*
X117646975Y-99249000D01*
X117603500Y-99205524D01*
X117603500Y-84029350D01*
X129776255Y-84029350D01*
X129800977Y-84234180D01*
X130192931Y-84360309D01*
X130603318Y-84326842D01*
X130827023Y-84234180D01*
X130851745Y-84029350D01*
X130314000Y-83491605D01*
X129776255Y-84029350D01*
X117603500Y-84029350D01*
X117603500Y-83190931D01*
X129265691Y-83190931D01*
X129299158Y-83601318D01*
X129391820Y-83825023D01*
X129596650Y-83849745D01*
X130134395Y-83312000D01*
X130493605Y-83312000D01*
X130835324Y-83653719D01*
X130936058Y-83897515D01*
X131226954Y-84188919D01*
X131607223Y-84346820D01*
X132018971Y-84347179D01*
X132399515Y-84189942D01*
X132690919Y-83899046D01*
X132848820Y-83518777D01*
X132849179Y-83107029D01*
X132691942Y-82726485D01*
X132401046Y-82435081D01*
X132020777Y-82277180D01*
X131609029Y-82276821D01*
X131228485Y-82434058D01*
X130937081Y-82724954D01*
X130835134Y-82970471D01*
X130493605Y-83312000D01*
X130134395Y-83312000D01*
X129596650Y-82774255D01*
X129391820Y-82798977D01*
X129265691Y-83190931D01*
X117603500Y-83190931D01*
X117603500Y-82594650D01*
X129776255Y-82594650D01*
X130314000Y-83132395D01*
X130851745Y-82594650D01*
X130827023Y-82389820D01*
X130435069Y-82263691D01*
X130024682Y-82297158D01*
X129800977Y-82389820D01*
X129776255Y-82594650D01*
X117603500Y-82594650D01*
X117603500Y-74467999D01*
X132165000Y-74467999D01*
X132165001Y-74468004D01*
X132165001Y-75645996D01*
X132165000Y-75646001D01*
X132204716Y-75845661D01*
X132232368Y-75984676D01*
X132376242Y-76200000D01*
X132424211Y-76271791D01*
X133072781Y-76920360D01*
X133072783Y-76920363D01*
X133351116Y-77106338D01*
X133359898Y-77112206D01*
X133698573Y-77179573D01*
X134984933Y-77179573D01*
X134970808Y-77193673D01*
X134828162Y-77537201D01*
X134827838Y-77909167D01*
X134969883Y-78252943D01*
X135003000Y-78286118D01*
X135003000Y-82804000D01*
X135060852Y-83094839D01*
X135225599Y-83341401D01*
X136241599Y-84357401D01*
X136488161Y-84522148D01*
X136779000Y-84580000D01*
X140716000Y-84580000D01*
X141006839Y-84522148D01*
X141253401Y-84357401D01*
X141327452Y-84283350D01*
X143746255Y-84283350D01*
X143770977Y-84488180D01*
X144162931Y-84614309D01*
X144573318Y-84580842D01*
X144797023Y-84488180D01*
X144821745Y-84283350D01*
X144284000Y-83745605D01*
X143746255Y-84283350D01*
X141327452Y-84283350D01*
X142165871Y-83444931D01*
X143235691Y-83444931D01*
X143269158Y-83855318D01*
X143361820Y-84079023D01*
X143566650Y-84103745D01*
X144104395Y-83566000D01*
X144463605Y-83566000D01*
X144805324Y-83907719D01*
X144906058Y-84151515D01*
X145196954Y-84442919D01*
X145577223Y-84600820D01*
X145988971Y-84601179D01*
X146369515Y-84443942D01*
X146660919Y-84153046D01*
X146818820Y-83772777D01*
X146819179Y-83361029D01*
X146661942Y-82980485D01*
X146371046Y-82689081D01*
X145990777Y-82531180D01*
X145579029Y-82530821D01*
X145198485Y-82688058D01*
X144907081Y-82978954D01*
X144805134Y-83224471D01*
X144463605Y-83566000D01*
X144104395Y-83566000D01*
X143566650Y-83028255D01*
X143361820Y-83052977D01*
X143235691Y-83444931D01*
X142165871Y-83444931D01*
X142762152Y-82848650D01*
X143746255Y-82848650D01*
X144284000Y-83386395D01*
X144821745Y-82848650D01*
X144797023Y-82643820D01*
X144405069Y-82517691D01*
X143994682Y-82551158D01*
X143770977Y-82643820D01*
X143746255Y-82848650D01*
X142762152Y-82848650D01*
X144459802Y-81151000D01*
X152095889Y-81151000D01*
X151861808Y-81384673D01*
X151719162Y-81728201D01*
X151718838Y-82100167D01*
X151780650Y-82249763D01*
X151744057Y-82264883D01*
X151480808Y-82527673D01*
X151338162Y-82871201D01*
X151337838Y-83243167D01*
X151479883Y-83586943D01*
X151742673Y-83850192D01*
X152086201Y-83992838D01*
X152458167Y-83993162D01*
X152801943Y-83851117D01*
X152835118Y-83818000D01*
X157044759Y-83818000D01*
X157203673Y-83977192D01*
X157283659Y-84010405D01*
X157205057Y-84042883D01*
X156941808Y-84305673D01*
X156799162Y-84649201D01*
X156799121Y-84696077D01*
X152624599Y-88870599D01*
X152459852Y-89117161D01*
X152402000Y-89408000D01*
X152402000Y-92622392D01*
X152312392Y-92712000D01*
X149152463Y-92712000D01*
X149120327Y-92679808D01*
X148776799Y-92537162D01*
X148404833Y-92536838D01*
X148061057Y-92678883D01*
X147797808Y-92941673D01*
X147655162Y-93285201D01*
X147654838Y-93657167D01*
X147796883Y-94000943D01*
X148059673Y-94264192D01*
X148403201Y-94406838D01*
X148775167Y-94407162D01*
X149118943Y-94265117D01*
X149152118Y-94232000D01*
X152627194Y-94232000D01*
X152918033Y-94174148D01*
X153164595Y-94009401D01*
X153699401Y-93474595D01*
X153864148Y-93228033D01*
X153922000Y-92937194D01*
X153922000Y-89722802D01*
X157873680Y-85771122D01*
X157919167Y-85771162D01*
X158262943Y-85629117D01*
X158526192Y-85366327D01*
X158668838Y-85022799D01*
X158669162Y-84650833D01*
X158527117Y-84307057D01*
X158264327Y-84043808D01*
X158184341Y-84010595D01*
X158262943Y-83978117D01*
X158526192Y-83715327D01*
X158668838Y-83371799D01*
X158669162Y-82999833D01*
X158534944Y-82675000D01*
X159076537Y-82675000D01*
X159108673Y-82707192D01*
X159452201Y-82849838D01*
X159824167Y-82850162D01*
X160167943Y-82708117D01*
X160431192Y-82445327D01*
X160573838Y-82101799D01*
X160574162Y-81729833D01*
X160432117Y-81386057D01*
X160169327Y-81122808D01*
X159825799Y-80980162D01*
X159453833Y-80979838D01*
X159110057Y-81121883D01*
X159076882Y-81155000D01*
X153216463Y-81155000D01*
X153212470Y-81151000D01*
X154813000Y-81151000D01*
X155103839Y-81093148D01*
X155350401Y-80928401D01*
X155587680Y-80691122D01*
X155633167Y-80691162D01*
X155976943Y-80549117D01*
X156240192Y-80286327D01*
X156382838Y-79942799D01*
X156383162Y-79570833D01*
X156241117Y-79227057D01*
X156006470Y-78992000D01*
X158689198Y-78992000D01*
X160657000Y-80959802D01*
X160657000Y-92329000D01*
X160714852Y-92619839D01*
X160879599Y-92866401D01*
X162195598Y-94182400D01*
X162442160Y-94347147D01*
X162732999Y-94404999D01*
X163530001Y-94404999D01*
X163820840Y-94347147D01*
X163921213Y-94280080D01*
X164015167Y-94280162D01*
X164358943Y-94138117D01*
X164622192Y-93875327D01*
X164764838Y-93531799D01*
X164765162Y-93159833D01*
X164623117Y-92816057D01*
X164360327Y-92552808D01*
X164016799Y-92410162D01*
X163644833Y-92409838D01*
X163301057Y-92551883D01*
X163037808Y-92814673D01*
X163020106Y-92857304D01*
X162177000Y-92014198D01*
X162177000Y-85262888D01*
X162491167Y-85263162D01*
X162498500Y-85260132D01*
X162498500Y-88401037D01*
X162466308Y-88433173D01*
X162323662Y-88776701D01*
X162323338Y-89148667D01*
X162465383Y-89492443D01*
X162728173Y-89755692D01*
X163071701Y-89898338D01*
X163443667Y-89898662D01*
X163787443Y-89756617D01*
X164050692Y-89493827D01*
X164193338Y-89150299D01*
X164193662Y-88778333D01*
X164051617Y-88434557D01*
X164018500Y-88401382D01*
X164018500Y-88382735D01*
X164151201Y-88437838D01*
X164198077Y-88437879D01*
X170099303Y-94339105D01*
X170099303Y-99512498D01*
X170067111Y-99544634D01*
X169924465Y-99888162D01*
X169924424Y-99935038D01*
X166848599Y-103010863D01*
X166842923Y-103019358D01*
X166657403Y-103204878D01*
X166611916Y-103204838D01*
X166268140Y-103346883D01*
X166004891Y-103609673D01*
X165862245Y-103953201D01*
X165861921Y-104325167D01*
X166003966Y-104668943D01*
X166266756Y-104932192D01*
X166610284Y-105074838D01*
X166982250Y-105075162D01*
X167326026Y-104933117D01*
X167589275Y-104670327D01*
X167731921Y-104326799D01*
X167731962Y-104279923D01*
X167923401Y-104088484D01*
X167929078Y-104079988D01*
X170998983Y-101010083D01*
X171044470Y-101010123D01*
X171388246Y-100868078D01*
X171651495Y-100605288D01*
X171794141Y-100261760D01*
X171794465Y-99889794D01*
X171652420Y-99546018D01*
X171619303Y-99512843D01*
X171619303Y-98936071D01*
X171646310Y-98978041D01*
X171858510Y-99123031D01*
X172110400Y-99174040D01*
X173837600Y-99174040D01*
X174072917Y-99129762D01*
X174289041Y-98990690D01*
X174434031Y-98778490D01*
X174442864Y-98734869D01*
X174454330Y-98752029D01*
X174940511Y-99076885D01*
X175514000Y-99190959D01*
X176087489Y-99076885D01*
X176573670Y-98752029D01*
X176784000Y-98437248D01*
X176994330Y-98752029D01*
X177480511Y-99076885D01*
X178054000Y-99190959D01*
X178627489Y-99076885D01*
X179113670Y-98752029D01*
X179334980Y-98420816D01*
X179614839Y-98365148D01*
X179861401Y-98200401D01*
X180326064Y-97735738D01*
X180490811Y-97489176D01*
X180548663Y-97198337D01*
X180548663Y-93555663D01*
X180494864Y-93285201D01*
X180490811Y-93264823D01*
X180326064Y-93018262D01*
X179497122Y-92189320D01*
X179497162Y-92143833D01*
X179355117Y-91800057D01*
X179092327Y-91536808D01*
X178748799Y-91394162D01*
X178376833Y-91393838D01*
X178033057Y-91535883D01*
X177999882Y-91569000D01*
X171256802Y-91569000D01*
X164717000Y-85029198D01*
X164717000Y-84826963D01*
X164749192Y-84794827D01*
X164891838Y-84451299D01*
X164892162Y-84079333D01*
X164750117Y-83735557D01*
X164487327Y-83472308D01*
X164143799Y-83329662D01*
X164018500Y-83329553D01*
X164018500Y-81834054D01*
X164142167Y-81834162D01*
X164485943Y-81692117D01*
X164519118Y-81659000D01*
X164979423Y-81659000D01*
X165007673Y-81687299D01*
X165351201Y-81829945D01*
X165723167Y-81830269D01*
X166066943Y-81688224D01*
X166330192Y-81425434D01*
X166472838Y-81081906D01*
X166473162Y-80709940D01*
X166331117Y-80366164D01*
X166068327Y-80102915D01*
X165724799Y-79960269D01*
X165352833Y-79959945D01*
X165009057Y-80101990D01*
X164971982Y-80139000D01*
X164519463Y-80139000D01*
X164487327Y-80106808D01*
X164143799Y-79964162D01*
X164018500Y-79964053D01*
X164018500Y-76694611D01*
X164252173Y-76928692D01*
X164595701Y-77071338D01*
X164642577Y-77071379D01*
X166150099Y-78578901D01*
X166396660Y-78743648D01*
X166461077Y-78756461D01*
X166538173Y-78833692D01*
X166881701Y-78976338D01*
X167253667Y-78976662D01*
X167597443Y-78834617D01*
X167860692Y-78571827D01*
X168003338Y-78228299D01*
X168003662Y-77856333D01*
X167861617Y-77512557D01*
X167598827Y-77249308D01*
X167255299Y-77106662D01*
X166883333Y-77106338D01*
X166843570Y-77122768D01*
X165717622Y-75996820D01*
X165717662Y-75951333D01*
X165575617Y-75607557D01*
X165312827Y-75344308D01*
X164969299Y-75201662D01*
X164650612Y-75201384D01*
X164764838Y-74926299D01*
X164765162Y-74554333D01*
X164623117Y-74210557D01*
X164360327Y-73947308D01*
X164016799Y-73804662D01*
X163644833Y-73804338D01*
X163301057Y-73946383D01*
X163037808Y-74209173D01*
X162895162Y-74552701D01*
X162895121Y-74599577D01*
X162721099Y-74773599D01*
X162556352Y-75020161D01*
X162498500Y-75311000D01*
X162498500Y-79254698D01*
X159922401Y-76678599D01*
X159675839Y-76513852D01*
X159385000Y-76456000D01*
X153687103Y-76456000D01*
X153715838Y-76386799D01*
X153716162Y-76014833D01*
X153574117Y-75671057D01*
X153311327Y-75407808D01*
X152967799Y-75265162D01*
X152595833Y-75264838D01*
X152310253Y-75382837D01*
X149278416Y-75382837D01*
X148724185Y-74828605D01*
X148724185Y-73995394D01*
X148961787Y-73757792D01*
X148961790Y-73757790D01*
X149153633Y-73470675D01*
X149153634Y-73470674D01*
X149221001Y-73132000D01*
X149221000Y-73131995D01*
X149221000Y-71232580D01*
X149464579Y-70989000D01*
X150823178Y-70989000D01*
X150943201Y-71038838D01*
X151315167Y-71039162D01*
X151658943Y-70897117D01*
X151922192Y-70634327D01*
X152064838Y-70290799D01*
X152065162Y-69918833D01*
X151923117Y-69575057D01*
X151660327Y-69311808D01*
X151316799Y-69169162D01*
X150944833Y-69168838D01*
X150823431Y-69219000D01*
X149098005Y-69219000D01*
X149098000Y-69218999D01*
X148841672Y-69269987D01*
X148759325Y-69286367D01*
X148472210Y-69478210D01*
X148472208Y-69478213D01*
X147710210Y-70240210D01*
X147518367Y-70527325D01*
X147518367Y-70527326D01*
X147450999Y-70866000D01*
X147451000Y-70866005D01*
X147451000Y-72765420D01*
X147430350Y-72786071D01*
X147310242Y-72835698D01*
X147046993Y-73098488D01*
X146996619Y-73219802D01*
X144774420Y-75442000D01*
X137974822Y-75442000D01*
X137854799Y-75392162D01*
X137482833Y-75391838D01*
X137308328Y-75463942D01*
X137035000Y-75409573D01*
X134065152Y-75409573D01*
X133935001Y-75279421D01*
X133935001Y-74905157D01*
X134142192Y-74698327D01*
X134284838Y-74354799D01*
X134285162Y-73982833D01*
X134143117Y-73639057D01*
X133981000Y-73476657D01*
X133981000Y-72078316D01*
X135528408Y-70530907D01*
X135821167Y-70531162D01*
X136164943Y-70389117D01*
X136428192Y-70126327D01*
X136570838Y-69782799D01*
X136571162Y-69410833D01*
X136429117Y-69067057D01*
X136166327Y-68803808D01*
X135822799Y-68661162D01*
X135450833Y-68660838D01*
X135329431Y-68711000D01*
X135211741Y-68711000D01*
X135211736Y-68710999D01*
X134873062Y-68778366D01*
X134785487Y-68836882D01*
X134585946Y-68970210D01*
X134585944Y-68970213D01*
X132470210Y-71085946D01*
X132278367Y-71373061D01*
X132278367Y-71373062D01*
X132210999Y-71711736D01*
X132211000Y-71711741D01*
X132211000Y-73913995D01*
X132210999Y-73914000D01*
X132235536Y-74037352D01*
X132248907Y-74104571D01*
X132232368Y-74129324D01*
X132232368Y-74129325D01*
X132165000Y-74467999D01*
X117603500Y-74467999D01*
X117603500Y-70423000D01*
X125729995Y-70423000D01*
X125730000Y-70423001D01*
X126240883Y-70321379D01*
X126673988Y-70031988D01*
X127435985Y-69269990D01*
X127435988Y-69269988D01*
X127725379Y-68836882D01*
X127732142Y-68802883D01*
X127827001Y-68326000D01*
X127827000Y-68325995D01*
X127827000Y-68131733D01*
X127834824Y-68123923D01*
X128053750Y-67596691D01*
X128054025Y-67280775D01*
X134643803Y-67280775D01*
X134816233Y-67698086D01*
X135135235Y-68017645D01*
X135552244Y-68190803D01*
X136003775Y-68191197D01*
X136421086Y-68018767D01*
X136594050Y-67846104D01*
X137168501Y-67846104D01*
X137205648Y-68061217D01*
X137633972Y-68204112D01*
X138084375Y-68172217D01*
X138352352Y-68061217D01*
X138389499Y-67846104D01*
X138332170Y-67788775D01*
X149772803Y-67788775D01*
X149945233Y-68206086D01*
X150264235Y-68525645D01*
X150681244Y-68698803D01*
X151132775Y-68699197D01*
X151550086Y-68526767D01*
X151723050Y-68354104D01*
X152297501Y-68354104D01*
X152334648Y-68569217D01*
X152762972Y-68712112D01*
X153213375Y-68680217D01*
X153481352Y-68569217D01*
X153518499Y-68354104D01*
X152908000Y-67743605D01*
X152297501Y-68354104D01*
X151723050Y-68354104D01*
X151869645Y-68207765D01*
X151900835Y-68132650D01*
X151902783Y-68137352D01*
X152117896Y-68174499D01*
X152728395Y-67564000D01*
X153087605Y-67564000D01*
X153698104Y-68174499D01*
X153913217Y-68137352D01*
X154056112Y-67709028D01*
X154024217Y-67258625D01*
X153913217Y-66990648D01*
X153698104Y-66953501D01*
X153087605Y-67564000D01*
X152728395Y-67564000D01*
X152117896Y-66953501D01*
X151902783Y-66990648D01*
X151901168Y-66995489D01*
X151870767Y-66921914D01*
X151723007Y-66773896D01*
X152297501Y-66773896D01*
X152908000Y-67384395D01*
X153518499Y-66773896D01*
X153481352Y-66558783D01*
X153053028Y-66415888D01*
X152602625Y-66447783D01*
X152334648Y-66558783D01*
X152297501Y-66773896D01*
X151723007Y-66773896D01*
X151551765Y-66602355D01*
X151134756Y-66429197D01*
X150683225Y-66428803D01*
X150265914Y-66601233D01*
X149946355Y-66920235D01*
X149773197Y-67337244D01*
X149772803Y-67788775D01*
X138332170Y-67788775D01*
X137779000Y-67235605D01*
X137168501Y-67846104D01*
X136594050Y-67846104D01*
X136740645Y-67699765D01*
X136771835Y-67624650D01*
X136773783Y-67629352D01*
X136988896Y-67666499D01*
X137599395Y-67056000D01*
X137958605Y-67056000D01*
X138569104Y-67666499D01*
X138784217Y-67629352D01*
X138927112Y-67201028D01*
X138895217Y-66750625D01*
X138784217Y-66482648D01*
X138569104Y-66445501D01*
X137958605Y-67056000D01*
X137599395Y-67056000D01*
X136988896Y-66445501D01*
X136773783Y-66482648D01*
X136772168Y-66487489D01*
X136741767Y-66413914D01*
X136594007Y-66265896D01*
X137168501Y-66265896D01*
X137779000Y-66876395D01*
X138389499Y-66265896D01*
X138352352Y-66050783D01*
X137924028Y-65907888D01*
X137473625Y-65939783D01*
X137205648Y-66050783D01*
X137168501Y-66265896D01*
X136594007Y-66265896D01*
X136422765Y-66094355D01*
X136005756Y-65921197D01*
X135554225Y-65920803D01*
X135136914Y-66093233D01*
X134817355Y-66412235D01*
X134644197Y-66829244D01*
X134643803Y-67280775D01*
X128054025Y-67280775D01*
X128054248Y-67025813D01*
X127836243Y-66498200D01*
X127432923Y-66094176D01*
X126905691Y-65875250D01*
X126334813Y-65874752D01*
X125807200Y-66092757D01*
X125403176Y-66496077D01*
X125184250Y-67023309D01*
X125184008Y-67301224D01*
X125157000Y-67437000D01*
X125157000Y-67753000D01*
X117243299Y-67753000D01*
X116882681Y-67603258D01*
X116291911Y-67602743D01*
X115745914Y-67828344D01*
X115327812Y-68245717D01*
X115101258Y-68791319D01*
X115101102Y-68970387D01*
X115066871Y-69021617D01*
X114965249Y-69532500D01*
X114974636Y-69579694D01*
X114933500Y-69786500D01*
X114933500Y-99527914D01*
X114613799Y-99395162D01*
X114241833Y-99394838D01*
X113898057Y-99536883D01*
X113864882Y-99570000D01*
X113617001Y-99570000D01*
X113617001Y-92642603D01*
X113685943Y-92614117D01*
X113949192Y-92351327D01*
X114091838Y-92007799D01*
X114092162Y-91635833D01*
X113950117Y-91292057D01*
X113687327Y-91028808D01*
X113343799Y-90886162D01*
X112971833Y-90885838D01*
X112628057Y-91027883D01*
X112364808Y-91290673D01*
X112222162Y-91634201D01*
X112222079Y-91729549D01*
X112154853Y-91830160D01*
X112097001Y-92120999D01*
X112012000Y-92120999D01*
X112012000Y-89722802D01*
X113821401Y-87913401D01*
X113986148Y-87666839D01*
X114044000Y-87376000D01*
X114044000Y-83566000D01*
X113986148Y-83275161D01*
X113821401Y-83028599D01*
X111425122Y-80632320D01*
X111425162Y-80586833D01*
X111283117Y-80243057D01*
X111020327Y-79979808D01*
X110676799Y-79837162D01*
X110304833Y-79836838D01*
X109961057Y-79978883D01*
X109697808Y-80241673D01*
X109555162Y-80585201D01*
X109554838Y-80957167D01*
X109696883Y-81300943D01*
X109959673Y-81564192D01*
X110303201Y-81706838D01*
X110350077Y-81706879D01*
X112524000Y-83880802D01*
X112524000Y-87061198D01*
X110714599Y-88870599D01*
X110549852Y-89117161D01*
X110492000Y-89408000D01*
X110492000Y-98491198D01*
X107065796Y-101917402D01*
X107020309Y-101917362D01*
X106676533Y-102059407D01*
X106413284Y-102322197D01*
X106270638Y-102665725D01*
X106270314Y-103037691D01*
X101650000Y-103037691D01*
X101650000Y-93357089D01*
X107099743Y-93357089D01*
X107325344Y-93903086D01*
X107742717Y-94321188D01*
X108288319Y-94547742D01*
X108879089Y-94548257D01*
X109425086Y-94322656D01*
X109843188Y-93905283D01*
X110069742Y-93359681D01*
X110070257Y-92768911D01*
X109844656Y-92222914D01*
X109427283Y-91804812D01*
X108881681Y-91578258D01*
X108290911Y-91577743D01*
X107744914Y-91803344D01*
X107326812Y-92220717D01*
X107100258Y-92766319D01*
X107099743Y-93357089D01*
X101650000Y-93357089D01*
X101650000Y-90606958D01*
X107720647Y-90606958D01*
X107800920Y-90858259D01*
X108356279Y-91059718D01*
X108946458Y-91033315D01*
X109369080Y-90858259D01*
X109449353Y-90606958D01*
X108585000Y-89742605D01*
X107720647Y-90606958D01*
X101650000Y-90606958D01*
X101650000Y-89334279D01*
X107088282Y-89334279D01*
X107114685Y-89924458D01*
X107289741Y-90347080D01*
X107541042Y-90427353D01*
X108405395Y-89563000D01*
X108764605Y-89563000D01*
X109628958Y-90427353D01*
X109880259Y-90347080D01*
X110081718Y-89791721D01*
X110055315Y-89201542D01*
X109880259Y-88778920D01*
X109628958Y-88698647D01*
X108764605Y-89563000D01*
X108405395Y-89563000D01*
X107541042Y-88698647D01*
X107289741Y-88778920D01*
X107088282Y-89334279D01*
X101650000Y-89334279D01*
X101650000Y-88519042D01*
X107720647Y-88519042D01*
X108585000Y-89383395D01*
X109449353Y-88519042D01*
X109369080Y-88267741D01*
X108813721Y-88066282D01*
X108223542Y-88092685D01*
X107800920Y-88267741D01*
X107720647Y-88519042D01*
X101650000Y-88519042D01*
X101650000Y-86164167D01*
X107395838Y-86164167D01*
X107537883Y-86507943D01*
X107800673Y-86771192D01*
X108144201Y-86913838D01*
X108516167Y-86914162D01*
X108859943Y-86772117D01*
X109123192Y-86509327D01*
X109265838Y-86165799D01*
X109265879Y-86118923D01*
X110883680Y-84501122D01*
X110929167Y-84501162D01*
X111272943Y-84359117D01*
X111536192Y-84096327D01*
X111678838Y-83752799D01*
X111679162Y-83380833D01*
X111537117Y-83037057D01*
X111274327Y-82773808D01*
X110930799Y-82631162D01*
X110558833Y-82630838D01*
X110215057Y-82772883D01*
X109951808Y-83035673D01*
X109809162Y-83379201D01*
X109809121Y-83426077D01*
X108191320Y-85043878D01*
X108145833Y-85043838D01*
X107802057Y-85185883D01*
X107538808Y-85448673D01*
X107396162Y-85792201D01*
X107395838Y-86164167D01*
X101650000Y-86164167D01*
X101650000Y-59875167D01*
X174705838Y-59875167D01*
X174847883Y-60218943D01*
X174881000Y-60252118D01*
X174881000Y-62556537D01*
X174848808Y-62588673D01*
X174706162Y-62932201D01*
X174705838Y-63304167D01*
X174847883Y-63647943D01*
X175110673Y-63911192D01*
X175454201Y-64053838D01*
X175826167Y-64054162D01*
X176169943Y-63912117D01*
X176433192Y-63649327D01*
X176575838Y-63305799D01*
X176576162Y-62933833D01*
X176434117Y-62590057D01*
X176401000Y-62556882D01*
X176401000Y-60252463D01*
X176433192Y-60220327D01*
X176575838Y-59876799D01*
X176576162Y-59504833D01*
X176434117Y-59161057D01*
X176171327Y-58897808D01*
X175827799Y-58755162D01*
X175455833Y-58754838D01*
X175112057Y-58896883D01*
X174848808Y-59159673D01*
X174706162Y-59503201D01*
X174705838Y-59875167D01*
X101650000Y-59875167D01*
X101650000Y-57223563D01*
X101821218Y-57637943D01*
X102379120Y-58196819D01*
X103108427Y-58499654D01*
X103898109Y-58500343D01*
X104627943Y-58198782D01*
X105186819Y-57640880D01*
X105489654Y-56911573D01*
X105490343Y-56121891D01*
X105188782Y-55392057D01*
X104630880Y-54833181D01*
X104213814Y-54660000D01*
X181536437Y-54660000D01*
X181122057Y-54831218D01*
G36*
X178031673Y-93121192D02*
X178375201Y-93263838D01*
X178422077Y-93263879D01*
X179028663Y-93870465D01*
X179028663Y-94022605D01*
X178828947Y-93840312D01*
X178413026Y-93668042D01*
X178181000Y-93789183D01*
X178181000Y-94996000D01*
X178201000Y-94996000D01*
X178201000Y-95250000D01*
X178181000Y-95250000D01*
X178181000Y-95270000D01*
X177927000Y-95270000D01*
X177927000Y-95250000D01*
X177907000Y-95250000D01*
X177907000Y-94996000D01*
X177927000Y-94996000D01*
X177927000Y-93789183D01*
X177694974Y-93668042D01*
X177279053Y-93840312D01*
X176847179Y-94234510D01*
X176789664Y-94357228D01*
X176573670Y-94033971D01*
X176087489Y-93709115D01*
X175514000Y-93595041D01*
X174940511Y-93709115D01*
X174454330Y-94033971D01*
X174244000Y-94348752D01*
X174033670Y-94033971D01*
X173547489Y-93709115D01*
X172974000Y-93595041D01*
X172400511Y-93709115D01*
X171931980Y-94022178D01*
X170998802Y-93089000D01*
X177999537Y-93089000D01*
X178031673Y-93121192D01*
X178031673Y-93121192D01*
G37*
X178031673Y-93121192D02*
X178375201Y-93263838D01*
X178422077Y-93263879D01*
X179028663Y-93870465D01*
X179028663Y-94022605D01*
X178828947Y-93840312D01*
X178413026Y-93668042D01*
X178181000Y-93789183D01*
X178181000Y-94996000D01*
X178201000Y-94996000D01*
X178201000Y-95250000D01*
X178181000Y-95250000D01*
X178181000Y-95270000D01*
X177927000Y-95270000D01*
X177927000Y-95250000D01*
X177907000Y-95250000D01*
X177907000Y-94996000D01*
X177927000Y-94996000D01*
X177927000Y-93789183D01*
X177694974Y-93668042D01*
X177279053Y-93840312D01*
X176847179Y-94234510D01*
X176789664Y-94357228D01*
X176573670Y-94033971D01*
X176087489Y-93709115D01*
X175514000Y-93595041D01*
X174940511Y-93709115D01*
X174454330Y-94033971D01*
X174244000Y-94348752D01*
X174033670Y-94033971D01*
X173547489Y-93709115D01*
X172974000Y-93595041D01*
X172400511Y-93709115D01*
X171931980Y-94022178D01*
X170998802Y-93089000D01*
X177999537Y-93089000D01*
X178031673Y-93121192D01*
G36*
X147192430Y-75789599D02*
X147213395Y-75820975D01*
X148286045Y-76893624D01*
X148286047Y-76893627D01*
X148573162Y-77085470D01*
X148629353Y-77096647D01*
X148911837Y-77152838D01*
X148911842Y-77152837D01*
X150753361Y-77152837D01*
X148910198Y-78996000D01*
X143891000Y-78996000D01*
X143600160Y-79053852D01*
X143353599Y-79218599D01*
X140147198Y-82425000D01*
X137347802Y-82425000D01*
X137158000Y-82235198D01*
X137158000Y-78921463D01*
X137190192Y-78889327D01*
X137332838Y-78545799D01*
X137333162Y-78173833D01*
X137191117Y-77830057D01*
X136928327Y-77566808D01*
X136664446Y-77457235D01*
X136556117Y-77195057D01*
X136540660Y-77179573D01*
X137035000Y-77179573D01*
X137202735Y-77146208D01*
X137481201Y-77261838D01*
X137853167Y-77262162D01*
X137974569Y-77212000D01*
X145141000Y-77212000D01*
X145479675Y-77144633D01*
X145766790Y-76952790D01*
X145779778Y-76933351D01*
X145799217Y-76920363D01*
X147087308Y-75632271D01*
X147192430Y-75789599D01*
X147192430Y-75789599D01*
G37*
X147192430Y-75789599D02*
X147213395Y-75820975D01*
X148286045Y-76893624D01*
X148286047Y-76893627D01*
X148573162Y-77085470D01*
X148629353Y-77096647D01*
X148911837Y-77152838D01*
X148911842Y-77152837D01*
X150753361Y-77152837D01*
X148910198Y-78996000D01*
X143891000Y-78996000D01*
X143600160Y-79053852D01*
X143353599Y-79218599D01*
X140147198Y-82425000D01*
X137347802Y-82425000D01*
X137158000Y-82235198D01*
X137158000Y-78921463D01*
X137190192Y-78889327D01*
X137332838Y-78545799D01*
X137333162Y-78173833D01*
X137191117Y-77830057D01*
X136928327Y-77566808D01*
X136664446Y-77457235D01*
X136556117Y-77195057D01*
X136540660Y-77179573D01*
X137035000Y-77179573D01*
X137202735Y-77146208D01*
X137481201Y-77261838D01*
X137853167Y-77262162D01*
X137974569Y-77212000D01*
X145141000Y-77212000D01*
X145479675Y-77144633D01*
X145766790Y-76952790D01*
X145779778Y-76933351D01*
X145799217Y-76920363D01*
X147087308Y-75632271D01*
X147192430Y-75789599D01*
M02*
