G04 #@! TF.FileFunction,Legend,Top*
%FSLAX46Y46*%
G04 Gerber Fmt 4.6, Leading zero omitted, Abs format (unit mm)*
G04 Created by KiCad (PCBNEW (2015-08-13 BZR 6091, Git 3774262)-product) date Mon 31 Aug 2015 09:37:37 AM EDT*
%MOMM*%
G01*
G04 APERTURE LIST*
%ADD10C,0.100000*%
%ADD11C,0.300000*%
%ADD12C,0.150000*%
G04 APERTURE END LIST*
D10*
D11*
X103675571Y-98559143D02*
X102175571Y-98559143D01*
X102675571Y-97844857D02*
X103675571Y-97844857D01*
X102818429Y-97844857D02*
X102747000Y-97773429D01*
X102675571Y-97630571D01*
X102675571Y-97416286D01*
X102747000Y-97273429D01*
X102889857Y-97202000D01*
X103675571Y-97202000D01*
X102675571Y-96487714D02*
X104175571Y-96487714D01*
X102747000Y-96487714D02*
X102675571Y-96344857D01*
X102675571Y-96059143D01*
X102747000Y-95916286D01*
X102818429Y-95844857D01*
X102961286Y-95773428D01*
X103389857Y-95773428D01*
X103532714Y-95844857D01*
X103604143Y-95916286D01*
X103675571Y-96059143D01*
X103675571Y-96344857D01*
X103604143Y-96487714D01*
X102675571Y-94487714D02*
X103675571Y-94487714D01*
X102675571Y-95130571D02*
X103461286Y-95130571D01*
X103604143Y-95059143D01*
X103675571Y-94916285D01*
X103675571Y-94702000D01*
X103604143Y-94559143D01*
X103532714Y-94487714D01*
X102675571Y-93987714D02*
X102675571Y-93416285D01*
X102175571Y-93773428D02*
X103461286Y-93773428D01*
X103604143Y-93702000D01*
X103675571Y-93559142D01*
X103675571Y-93416285D01*
X103675571Y-91773428D02*
X102175571Y-91773428D01*
X102175571Y-91202000D01*
X102247000Y-91059142D01*
X102318429Y-90987714D01*
X102461286Y-90916285D01*
X102675571Y-90916285D01*
X102818429Y-90987714D01*
X102889857Y-91059142D01*
X102961286Y-91202000D01*
X102961286Y-91773428D01*
X103675571Y-90059142D02*
X103604143Y-90202000D01*
X103532714Y-90273428D01*
X103389857Y-90344857D01*
X102961286Y-90344857D01*
X102818429Y-90273428D01*
X102747000Y-90202000D01*
X102675571Y-90059142D01*
X102675571Y-89844857D01*
X102747000Y-89702000D01*
X102818429Y-89630571D01*
X102961286Y-89559142D01*
X103389857Y-89559142D01*
X103532714Y-89630571D01*
X103604143Y-89702000D01*
X103675571Y-89844857D01*
X103675571Y-90059142D01*
X102675571Y-89059142D02*
X103675571Y-88773428D01*
X102961286Y-88487714D01*
X103675571Y-88201999D01*
X102675571Y-87916285D01*
X103604143Y-86773428D02*
X103675571Y-86916285D01*
X103675571Y-87201999D01*
X103604143Y-87344856D01*
X103461286Y-87416285D01*
X102889857Y-87416285D01*
X102747000Y-87344856D01*
X102675571Y-87201999D01*
X102675571Y-86916285D01*
X102747000Y-86773428D01*
X102889857Y-86701999D01*
X103032714Y-86701999D01*
X103175571Y-87416285D01*
X103675571Y-86059142D02*
X102675571Y-86059142D01*
X102961286Y-86059142D02*
X102818429Y-85987714D01*
X102747000Y-85916285D01*
X102675571Y-85773428D01*
X102675571Y-85630571D01*
X150050572Y-63734143D02*
X151193429Y-63734143D01*
X150622000Y-64305571D02*
X150622000Y-63162714D01*
X135064572Y-63226143D02*
X136207429Y-63226143D01*
X135636000Y-63797571D02*
X135636000Y-62654714D01*
D12*
X167382000Y-97409000D02*
G75*
G03X167382000Y-97409000I-250000J0D01*
G01*
X168132000Y-94909000D02*
X166132000Y-94909000D01*
X165632000Y-95909000D02*
X165632000Y-98909000D01*
X168632000Y-95909000D02*
X168632000Y-98909000D01*
X116087000Y-113030000D02*
G75*
G03X116087000Y-113030000I-1025000J0D01*
G01*
X119643000Y-113030000D02*
G75*
G03X119643000Y-113030000I-1025000J0D01*
G01*
X117865000Y-111252000D02*
G75*
G03X117865000Y-111252000I-1025000J0D01*
G01*
X114309000Y-111252000D02*
G75*
G03X114309000Y-111252000I-1025000J0D01*
G01*
X140095000Y-77562000D02*
X140095000Y-76362000D01*
X141845000Y-76362000D02*
X141845000Y-77562000D01*
X132076000Y-99568000D02*
G75*
G03X132076000Y-99568000I-250000J0D01*
G01*
X130826000Y-102068000D02*
X132826000Y-102068000D01*
X133326000Y-101068000D02*
X133326000Y-98068000D01*
X130326000Y-101068000D02*
X130326000Y-98068000D01*
X137301000Y-106518000D02*
X137301000Y-105318000D01*
X139051000Y-105318000D02*
X139051000Y-106518000D01*
X155233000Y-87257000D02*
X155233000Y-88257000D01*
X156933000Y-88257000D02*
X156933000Y-87257000D01*
X152678500Y-95940500D02*
X152678500Y-94940500D01*
X150978500Y-94940500D02*
X150978500Y-95940500D01*
X173728000Y-88939000D02*
X172728000Y-88939000D01*
X172728000Y-90639000D02*
X173728000Y-90639000D01*
X160362000Y-95940500D02*
X160362000Y-94940500D01*
X158662000Y-94940500D02*
X158662000Y-95940500D01*
X119118000Y-104306000D02*
X118118000Y-104306000D01*
X118118000Y-106006000D02*
X119118000Y-106006000D01*
X121578000Y-80145000D02*
X121578000Y-81145000D01*
X123278000Y-81145000D02*
X123278000Y-80145000D01*
X124880000Y-99322000D02*
X124880000Y-100322000D01*
X126580000Y-100322000D02*
X126580000Y-99322000D01*
X129532000Y-113958000D02*
X128532000Y-113958000D01*
X128532000Y-115658000D02*
X129532000Y-115658000D01*
X134786000Y-100338000D02*
X134786000Y-101338000D01*
X136486000Y-101338000D02*
X136486000Y-100338000D01*
X113753000Y-61714000D02*
X113753000Y-60714000D01*
X112053000Y-60714000D02*
X112053000Y-61714000D01*
X106006000Y-73144000D02*
X106006000Y-72144000D01*
X104306000Y-72144000D02*
X104306000Y-73144000D01*
X111625000Y-77382000D02*
X110625000Y-77382000D01*
X110625000Y-79082000D02*
X111625000Y-79082000D01*
X123563000Y-68746000D02*
X122563000Y-68746000D01*
X122563000Y-70446000D02*
X123563000Y-70446000D01*
X109513000Y-66810000D02*
X109513000Y-67810000D01*
X111213000Y-67810000D02*
X111213000Y-66810000D01*
X125769000Y-62746000D02*
X125769000Y-63746000D01*
X127469000Y-63746000D02*
X127469000Y-62746000D01*
X137326000Y-100338000D02*
X137326000Y-101338000D01*
X139026000Y-101338000D02*
X139026000Y-100338000D01*
X136406000Y-116420000D02*
X137406000Y-116420000D01*
X137406000Y-114720000D02*
X136406000Y-114720000D01*
X170188000Y-70954000D02*
X171188000Y-70954000D01*
X171188000Y-69254000D02*
X170188000Y-69254000D01*
X172982000Y-58254000D02*
X173982000Y-58254000D01*
X173982000Y-56554000D02*
X172982000Y-56554000D01*
X168648000Y-56554000D02*
X167648000Y-56554000D01*
X167648000Y-58254000D02*
X168648000Y-58254000D01*
X132080000Y-67119500D02*
X132080000Y-67500500D01*
X132080000Y-66103500D02*
X132080000Y-66484500D01*
X132080000Y-66484500D02*
X132461000Y-67119500D01*
X132461000Y-67119500D02*
X131699000Y-67119500D01*
X131699000Y-67119500D02*
X132080000Y-66484500D01*
X132588000Y-66484500D02*
X131572000Y-66484500D01*
X131180000Y-64802000D02*
X131180000Y-68342000D01*
X132980000Y-64802000D02*
X132980000Y-68342000D01*
X147320000Y-67119500D02*
X147320000Y-67500500D01*
X147320000Y-66103500D02*
X147320000Y-66484500D01*
X147320000Y-66484500D02*
X147701000Y-67119500D01*
X147701000Y-67119500D02*
X146939000Y-67119500D01*
X146939000Y-67119500D02*
X147320000Y-66484500D01*
X147828000Y-66484500D02*
X146812000Y-66484500D01*
X146420000Y-64802000D02*
X146420000Y-68342000D01*
X148220000Y-64802000D02*
X148220000Y-68342000D01*
X124079000Y-62928500D02*
X124079000Y-62547500D01*
X124079000Y-63944500D02*
X124079000Y-63563500D01*
X124079000Y-63563500D02*
X123698000Y-62928500D01*
X123698000Y-62928500D02*
X124460000Y-62928500D01*
X124460000Y-62928500D02*
X124079000Y-63563500D01*
X123571000Y-63563500D02*
X124587000Y-63563500D01*
X124979000Y-65246000D02*
X124979000Y-61706000D01*
X123179000Y-65246000D02*
X123179000Y-61706000D01*
X174244000Y-98933000D02*
X179324000Y-98933000D01*
X171424000Y-99213000D02*
X171424000Y-97663000D01*
X171704000Y-96393000D02*
X174244000Y-96393000D01*
X174244000Y-96393000D02*
X174244000Y-98933000D01*
X179324000Y-98933000D02*
X179324000Y-93853000D01*
X179324000Y-93853000D02*
X174244000Y-93853000D01*
X171424000Y-99213000D02*
X172974000Y-99213000D01*
X171704000Y-93853000D02*
X171704000Y-96393000D01*
X174244000Y-93853000D02*
X171704000Y-93853000D01*
X119618000Y-94312000D02*
X117618000Y-94312000D01*
X117618000Y-91362000D02*
X119618000Y-91362000D01*
X170088000Y-64657000D02*
X171288000Y-64657000D01*
X171288000Y-66407000D02*
X170088000Y-66407000D01*
X170088000Y-66943000D02*
X171288000Y-66943000D01*
X171288000Y-68693000D02*
X170088000Y-68693000D01*
X132955000Y-73568000D02*
X132955000Y-74768000D01*
X131205000Y-74768000D02*
X131205000Y-73568000D01*
X176114000Y-93204000D02*
X174914000Y-93204000D01*
X174914000Y-91454000D02*
X176114000Y-91454000D01*
X173320000Y-83552000D02*
X172120000Y-83552000D01*
X172120000Y-81802000D02*
X173320000Y-81802000D01*
X169594500Y-78457500D02*
X169594500Y-79657500D01*
X167844500Y-79657500D02*
X167844500Y-78457500D01*
X166405000Y-99963000D02*
X167605000Y-99963000D01*
X167605000Y-101713000D02*
X166405000Y-101713000D01*
X111901000Y-97882000D02*
X111901000Y-96682000D01*
X113651000Y-96682000D02*
X113651000Y-97882000D01*
X111365000Y-96682000D02*
X111365000Y-97882000D01*
X109615000Y-97882000D02*
X109615000Y-96682000D01*
X118780000Y-88660000D02*
X119980000Y-88660000D01*
X119980000Y-90410000D02*
X118780000Y-90410000D01*
X113827000Y-88660000D02*
X115027000Y-88660000D01*
X115027000Y-90410000D02*
X113827000Y-90410000D01*
X116191000Y-96682000D02*
X116191000Y-97882000D01*
X114441000Y-97882000D02*
X114441000Y-96682000D01*
X122139000Y-84949000D02*
X120939000Y-84949000D01*
X120939000Y-83199000D02*
X122139000Y-83199000D01*
X119218000Y-103745000D02*
X118018000Y-103745000D01*
X118018000Y-101995000D02*
X119218000Y-101995000D01*
X121017000Y-79918000D02*
X121017000Y-81118000D01*
X119267000Y-81118000D02*
X119267000Y-79918000D01*
X112868000Y-106539000D02*
X111668000Y-106539000D01*
X111668000Y-104789000D02*
X112868000Y-104789000D01*
X128919000Y-74768000D02*
X128919000Y-73568000D01*
X130669000Y-73568000D02*
X130669000Y-74768000D01*
X147179000Y-73314000D02*
X147179000Y-74514000D01*
X145429000Y-74514000D02*
X145429000Y-73314000D01*
X151292000Y-79008000D02*
X152492000Y-79008000D01*
X152492000Y-80758000D02*
X151292000Y-80758000D01*
X158461000Y-75932000D02*
X157261000Y-75932000D01*
X157261000Y-74182000D02*
X158461000Y-74182000D01*
X141845000Y-71282000D02*
X141845000Y-72482000D01*
X140095000Y-72482000D02*
X140095000Y-71282000D01*
X158461000Y-73519000D02*
X157261000Y-73519000D01*
X157261000Y-71769000D02*
X158461000Y-71769000D01*
X131205000Y-79848000D02*
X131205000Y-78648000D01*
X132955000Y-78648000D02*
X132955000Y-79848000D01*
X117129000Y-66435000D02*
X118329000Y-66435000D01*
X118329000Y-68185000D02*
X117129000Y-68185000D01*
X122463000Y-66435000D02*
X123663000Y-66435000D01*
X123663000Y-68185000D02*
X122463000Y-68185000D01*
X113778000Y-66710000D02*
X113778000Y-67910000D01*
X112028000Y-67910000D02*
X112028000Y-66710000D01*
X111238000Y-60614000D02*
X111238000Y-61814000D01*
X109488000Y-61814000D02*
X109488000Y-60614000D01*
X139051000Y-110398000D02*
X139051000Y-111598000D01*
X137301000Y-111598000D02*
X137301000Y-110398000D01*
X136306000Y-94121000D02*
X137506000Y-94121000D01*
X137506000Y-95871000D02*
X136306000Y-95871000D01*
X136306000Y-96407000D02*
X137506000Y-96407000D01*
X137506000Y-98157000D02*
X136306000Y-98157000D01*
X176184000Y-71007000D02*
X177384000Y-71007000D01*
X177384000Y-72757000D02*
X176184000Y-72757000D01*
X177384000Y-75043000D02*
X176184000Y-75043000D01*
X176184000Y-73293000D02*
X177384000Y-73293000D01*
X177384000Y-77329000D02*
X176184000Y-77329000D01*
X176184000Y-75579000D02*
X177384000Y-75579000D01*
X160713000Y-83370000D02*
X160713000Y-83695000D01*
X167963000Y-83370000D02*
X167963000Y-83695000D01*
X167963000Y-90620000D02*
X167963000Y-90295000D01*
X160713000Y-90620000D02*
X160713000Y-90295000D01*
X160713000Y-83370000D02*
X161038000Y-83370000D01*
X160713000Y-90620000D02*
X161038000Y-90620000D01*
X167963000Y-90620000D02*
X167638000Y-90620000D01*
X167963000Y-83370000D02*
X167638000Y-83370000D01*
X160713000Y-83695000D02*
X159288000Y-83695000D01*
X120293000Y-96623000D02*
X120043000Y-96623000D01*
X120293000Y-99973000D02*
X120043000Y-99973000D01*
X116943000Y-99973000D02*
X117193000Y-99973000D01*
X116943000Y-96623000D02*
X117193000Y-96623000D01*
X120293000Y-96623000D02*
X120293000Y-99973000D01*
X116943000Y-96623000D02*
X116943000Y-99973000D01*
X120043000Y-96623000D02*
X120043000Y-95373000D01*
X115419000Y-83082000D02*
X115669000Y-83082000D01*
X115419000Y-79732000D02*
X115669000Y-79732000D01*
X118769000Y-79732000D02*
X118519000Y-79732000D01*
X118769000Y-83082000D02*
X118519000Y-83082000D01*
X115419000Y-83082000D02*
X115419000Y-79732000D01*
X118769000Y-83082000D02*
X118769000Y-79732000D01*
X115669000Y-83082000D02*
X115669000Y-84332000D01*
X113943000Y-104291000D02*
X113943000Y-103991000D01*
X110593000Y-104291000D02*
X110593000Y-103991000D01*
X110593000Y-100941000D02*
X110593000Y-101241000D01*
X113943000Y-100941000D02*
X113943000Y-101241000D01*
X113943000Y-104291000D02*
X110593000Y-104291000D01*
X113943000Y-100941000D02*
X110593000Y-100941000D01*
X113943000Y-103991000D02*
X115168000Y-103991000D01*
X112268000Y-74803000D02*
X109093000Y-74803000D01*
X109093000Y-74803000D02*
X109093000Y-76581000D01*
X109093000Y-76581000D02*
X112268000Y-76581000D01*
X112268000Y-70231000D02*
X109093000Y-70231000D01*
X109093000Y-70231000D02*
X109093000Y-72009000D01*
X109093000Y-72009000D02*
X112268000Y-72009000D01*
X118364000Y-76835000D02*
X112268000Y-76835000D01*
X112268000Y-76835000D02*
X112268000Y-69977000D01*
X112268000Y-69977000D02*
X120142000Y-69977000D01*
X120269000Y-69977000D02*
X120269000Y-76835000D01*
X120142000Y-76835000D02*
X118364000Y-76835000D01*
X116054000Y-62333000D02*
X116054000Y-62583000D01*
X119404000Y-62333000D02*
X119404000Y-62583000D01*
X119404000Y-65683000D02*
X119404000Y-65433000D01*
X116054000Y-65683000D02*
X116054000Y-65433000D01*
X116054000Y-62333000D02*
X119404000Y-62333000D01*
X116054000Y-65683000D02*
X119404000Y-65683000D01*
X116054000Y-62583000D02*
X114804000Y-62583000D01*
X168862571Y-71496000D02*
X168862571Y-71746000D01*
X172212571Y-71496000D02*
X172212571Y-71746000D01*
X172212571Y-74846000D02*
X172212571Y-74596000D01*
X168862571Y-74846000D02*
X168862571Y-74596000D01*
X168862571Y-71496000D02*
X172212571Y-71496000D01*
X168862571Y-74846000D02*
X172212571Y-74846000D01*
X168862571Y-71746000D02*
X167612571Y-71746000D01*
X121412000Y-57912000D02*
G75*
G03X121412000Y-57912000I-3429000J0D01*
G01*
X154051000Y-92456000D02*
X154051000Y-96266000D01*
X157353000Y-92456000D02*
X157353000Y-96266000D01*
X105505000Y-114935000D02*
G75*
G03X105505000Y-114935000I-2000000J0D01*
G01*
X105505000Y-56515000D02*
G75*
G03X105505000Y-56515000I-2000000J0D01*
G01*
X184245000Y-56515000D02*
G75*
G03X184245000Y-56515000I-2000000J0D01*
G01*
X184245000Y-114935000D02*
G75*
G03X184245000Y-114935000I-2000000J0D01*
G01*
X169188000Y-63968000D02*
X172188000Y-63968000D01*
X167188000Y-58968000D02*
X169188000Y-58968000D01*
X169188000Y-58968000D02*
X169188000Y-58718000D01*
X169188000Y-58718000D02*
X172188000Y-58718000D01*
X172188000Y-58718000D02*
X172188000Y-58968000D01*
X105185000Y-95363000D02*
X112185000Y-95363000D01*
X112185000Y-87263000D02*
X112185000Y-95363000D01*
X112185000Y-87263000D02*
X105185000Y-87263000D01*
X105185000Y-95363000D02*
X105185000Y-87263000D01*
X137279000Y-68156000D02*
X137279000Y-68756000D01*
X136279000Y-68156000D02*
X137279000Y-68156000D01*
X136279000Y-68756000D02*
X136279000Y-68156000D01*
X133829000Y-64256000D02*
X133829000Y-68756000D01*
X139729000Y-64256000D02*
X139729000Y-68756000D01*
X133829000Y-64256000D02*
X139729000Y-64256000D01*
X133829000Y-68756000D02*
X139729000Y-68756000D01*
X152408000Y-68664000D02*
X152408000Y-69264000D01*
X151408000Y-68664000D02*
X152408000Y-68664000D01*
X151408000Y-69264000D02*
X151408000Y-68664000D01*
X148958000Y-64764000D02*
X148958000Y-69264000D01*
X154858000Y-64764000D02*
X154858000Y-69264000D01*
X148958000Y-64764000D02*
X154858000Y-64764000D01*
X148958000Y-69264000D02*
X154858000Y-69264000D01*
X128774000Y-99568000D02*
G75*
G03X128774000Y-99568000I-250000J0D01*
G01*
X127524000Y-102068000D02*
X129524000Y-102068000D01*
X130024000Y-101068000D02*
X130024000Y-98068000D01*
X127024000Y-101068000D02*
X127024000Y-98068000D01*
X123331000Y-107534000D02*
X123331000Y-106334000D01*
X125081000Y-106334000D02*
X125081000Y-107534000D01*
X139827000Y-100711000D02*
X153924000Y-100711000D01*
X153924000Y-115697000D02*
X139827000Y-115697000D01*
X139827000Y-100711000D02*
X139827000Y-115697000D01*
X153924000Y-100711000D02*
X153924000Y-115697000D01*
X118094000Y-88216000D02*
X116094000Y-88216000D01*
X116094000Y-85266000D02*
X118094000Y-85266000D01*
X142889000Y-74514000D02*
X142889000Y-73314000D01*
X144639000Y-73314000D02*
X144639000Y-74514000D01*
X135798000Y-79897000D02*
X136998000Y-79897000D01*
X136998000Y-81647000D02*
X135798000Y-81647000D01*
X130669000Y-78648000D02*
X130669000Y-79848000D01*
X128919000Y-79848000D02*
X128919000Y-78648000D01*
X145429000Y-79768000D02*
X145429000Y-78568000D01*
X147179000Y-78568000D02*
X147179000Y-79768000D01*
X144639000Y-78568000D02*
X144639000Y-79768000D01*
X142889000Y-79768000D02*
X142889000Y-78568000D01*
X125739000Y-111587000D02*
X126389000Y-111587000D01*
X125739000Y-105837000D02*
X126389000Y-105837000D01*
X136389000Y-105837000D02*
X135739000Y-105837000D01*
X136389000Y-111587000D02*
X135739000Y-111587000D01*
X125739000Y-111587000D02*
X125739000Y-105837000D01*
X136389000Y-111587000D02*
X136389000Y-105837000D01*
X126389000Y-111587000D02*
X126389000Y-113187000D01*
X138685000Y-71119000D02*
X138685000Y-71894000D01*
X134385000Y-75419000D02*
X134385000Y-74644000D01*
X138685000Y-75419000D02*
X138685000Y-74644000D01*
X134385000Y-71119000D02*
X135160000Y-71119000D01*
X134385000Y-75419000D02*
X135160000Y-75419000D01*
X138685000Y-75419000D02*
X137910000Y-75419000D01*
X138685000Y-71119000D02*
X137910000Y-71119000D01*
X154159000Y-71119000D02*
X154159000Y-71894000D01*
X149859000Y-75419000D02*
X149859000Y-74644000D01*
X154159000Y-75419000D02*
X154159000Y-74644000D01*
X149859000Y-71119000D02*
X150634000Y-71119000D01*
X149859000Y-75419000D02*
X150634000Y-75419000D01*
X154159000Y-75419000D02*
X153384000Y-75419000D01*
X154159000Y-71119000D02*
X153384000Y-71119000D01*
X133264000Y-82012000D02*
X133264000Y-85512000D01*
X128864000Y-82012000D02*
X128864000Y-85512000D01*
X133264000Y-85512000D02*
X128864000Y-85512000D01*
X133264000Y-82012000D02*
X128864000Y-82012000D01*
X147234000Y-82266000D02*
X147234000Y-85766000D01*
X142834000Y-82266000D02*
X142834000Y-85766000D01*
X147234000Y-85766000D02*
X142834000Y-85766000D01*
X147234000Y-82266000D02*
X142834000Y-82266000D01*
X151370000Y-82839000D02*
X151370000Y-84039000D01*
X149620000Y-84039000D02*
X149620000Y-82839000D01*
X163463000Y-97628000D02*
X163463000Y-96428000D01*
X165213000Y-96428000D02*
X165213000Y-97628000D01*
X170124381Y-98147095D02*
X169124381Y-98147095D01*
X169124381Y-97909000D01*
X169172000Y-97766142D01*
X169267238Y-97670904D01*
X169362476Y-97623285D01*
X169552952Y-97575666D01*
X169695810Y-97575666D01*
X169886286Y-97623285D01*
X169981524Y-97670904D01*
X170076762Y-97766142D01*
X170124381Y-97909000D01*
X170124381Y-98147095D01*
X169219619Y-97194714D02*
X169172000Y-97147095D01*
X169124381Y-97051857D01*
X169124381Y-96813761D01*
X169172000Y-96718523D01*
X169219619Y-96670904D01*
X169314857Y-96623285D01*
X169410095Y-96623285D01*
X169552952Y-96670904D01*
X170124381Y-97242333D01*
X170124381Y-96623285D01*
X114323905Y-115768381D02*
X114323905Y-114768381D01*
X114704858Y-114768381D01*
X114800096Y-114816000D01*
X114847715Y-114863619D01*
X114895334Y-114958857D01*
X114895334Y-115101714D01*
X114847715Y-115196952D01*
X114800096Y-115244571D01*
X114704858Y-115292190D01*
X114323905Y-115292190D01*
X115752477Y-114768381D02*
X115562000Y-114768381D01*
X115466762Y-114816000D01*
X115419143Y-114863619D01*
X115323905Y-115006476D01*
X115276286Y-115196952D01*
X115276286Y-115577905D01*
X115323905Y-115673143D01*
X115371524Y-115720762D01*
X115466762Y-115768381D01*
X115657239Y-115768381D01*
X115752477Y-115720762D01*
X115800096Y-115673143D01*
X115847715Y-115577905D01*
X115847715Y-115339810D01*
X115800096Y-115244571D01*
X115752477Y-115196952D01*
X115657239Y-115149333D01*
X115466762Y-115149333D01*
X115371524Y-115196952D01*
X115323905Y-115244571D01*
X115276286Y-115339810D01*
X117879905Y-115768381D02*
X117879905Y-114768381D01*
X118260858Y-114768381D01*
X118356096Y-114816000D01*
X118403715Y-114863619D01*
X118451334Y-114958857D01*
X118451334Y-115101714D01*
X118403715Y-115196952D01*
X118356096Y-115244571D01*
X118260858Y-115292190D01*
X117879905Y-115292190D01*
X119356096Y-114768381D02*
X118879905Y-114768381D01*
X118832286Y-115244571D01*
X118879905Y-115196952D01*
X118975143Y-115149333D01*
X119213239Y-115149333D01*
X119308477Y-115196952D01*
X119356096Y-115244571D01*
X119403715Y-115339810D01*
X119403715Y-115577905D01*
X119356096Y-115673143D01*
X119308477Y-115720762D01*
X119213239Y-115768381D01*
X118975143Y-115768381D01*
X118879905Y-115720762D01*
X118832286Y-115673143D01*
X116101905Y-109799381D02*
X116101905Y-108799381D01*
X116482858Y-108799381D01*
X116578096Y-108847000D01*
X116625715Y-108894619D01*
X116673334Y-108989857D01*
X116673334Y-109132714D01*
X116625715Y-109227952D01*
X116578096Y-109275571D01*
X116482858Y-109323190D01*
X116101905Y-109323190D01*
X117006667Y-108799381D02*
X117625715Y-108799381D01*
X117292381Y-109180333D01*
X117435239Y-109180333D01*
X117530477Y-109227952D01*
X117578096Y-109275571D01*
X117625715Y-109370810D01*
X117625715Y-109608905D01*
X117578096Y-109704143D01*
X117530477Y-109751762D01*
X117435239Y-109799381D01*
X117149524Y-109799381D01*
X117054286Y-109751762D01*
X117006667Y-109704143D01*
X112545905Y-109926381D02*
X112545905Y-108926381D01*
X112926858Y-108926381D01*
X113022096Y-108974000D01*
X113069715Y-109021619D01*
X113117334Y-109116857D01*
X113117334Y-109259714D01*
X113069715Y-109354952D01*
X113022096Y-109402571D01*
X112926858Y-109450190D01*
X112545905Y-109450190D01*
X113974477Y-109259714D02*
X113974477Y-109926381D01*
X113736381Y-108878762D02*
X113498286Y-109593048D01*
X114117334Y-109593048D01*
X139771381Y-77604857D02*
X139295190Y-77938191D01*
X139771381Y-78176286D02*
X138771381Y-78176286D01*
X138771381Y-77795333D01*
X138819000Y-77700095D01*
X138866619Y-77652476D01*
X138961857Y-77604857D01*
X139104714Y-77604857D01*
X139199952Y-77652476D01*
X139247571Y-77700095D01*
X139295190Y-77795333D01*
X139295190Y-78176286D01*
X138866619Y-77223905D02*
X138819000Y-77176286D01*
X138771381Y-77081048D01*
X138771381Y-76842952D01*
X138819000Y-76747714D01*
X138866619Y-76700095D01*
X138961857Y-76652476D01*
X139057095Y-76652476D01*
X139199952Y-76700095D01*
X139771381Y-77271524D01*
X139771381Y-76652476D01*
X139104714Y-75795333D02*
X139771381Y-75795333D01*
X138723762Y-76033429D02*
X139438048Y-76271524D01*
X139438048Y-75652476D01*
X132278381Y-96750095D02*
X131278381Y-96750095D01*
X131278381Y-96512000D01*
X131326000Y-96369142D01*
X131421238Y-96273904D01*
X131516476Y-96226285D01*
X131706952Y-96178666D01*
X131849810Y-96178666D01*
X132040286Y-96226285D01*
X132135524Y-96273904D01*
X132230762Y-96369142D01*
X132278381Y-96512000D01*
X132278381Y-96750095D01*
X131278381Y-95845333D02*
X131278381Y-95178666D01*
X132278381Y-95607238D01*
X137104381Y-105290857D02*
X136628190Y-105624191D01*
X137104381Y-105862286D02*
X136104381Y-105862286D01*
X136104381Y-105481333D01*
X136152000Y-105386095D01*
X136199619Y-105338476D01*
X136294857Y-105290857D01*
X136437714Y-105290857D01*
X136532952Y-105338476D01*
X136580571Y-105386095D01*
X136628190Y-105481333D01*
X136628190Y-105862286D01*
X136104381Y-104957524D02*
X136104381Y-104338476D01*
X136485333Y-104671810D01*
X136485333Y-104528952D01*
X136532952Y-104433714D01*
X136580571Y-104386095D01*
X136675810Y-104338476D01*
X136913905Y-104338476D01*
X137009143Y-104386095D01*
X137056762Y-104433714D01*
X137104381Y-104528952D01*
X137104381Y-104814667D01*
X137056762Y-104909905D01*
X137009143Y-104957524D01*
X136437714Y-103481333D02*
X137104381Y-103481333D01*
X136056762Y-103719429D02*
X136771048Y-103957524D01*
X136771048Y-103338476D01*
X154340143Y-87923666D02*
X154387762Y-87971285D01*
X154435381Y-88114142D01*
X154435381Y-88209380D01*
X154387762Y-88352238D01*
X154292524Y-88447476D01*
X154197286Y-88495095D01*
X154006810Y-88542714D01*
X153863952Y-88542714D01*
X153673476Y-88495095D01*
X153578238Y-88447476D01*
X153483000Y-88352238D01*
X153435381Y-88209380D01*
X153435381Y-88114142D01*
X153483000Y-87971285D01*
X153530619Y-87923666D01*
X154435381Y-86971285D02*
X154435381Y-87542714D01*
X154435381Y-87257000D02*
X153435381Y-87257000D01*
X153578238Y-87352238D01*
X153673476Y-87447476D01*
X153721095Y-87542714D01*
X150471143Y-95607166D02*
X150518762Y-95654785D01*
X150566381Y-95797642D01*
X150566381Y-95892880D01*
X150518762Y-96035738D01*
X150423524Y-96130976D01*
X150328286Y-96178595D01*
X150137810Y-96226214D01*
X149994952Y-96226214D01*
X149804476Y-96178595D01*
X149709238Y-96130976D01*
X149614000Y-96035738D01*
X149566381Y-95892880D01*
X149566381Y-95797642D01*
X149614000Y-95654785D01*
X149661619Y-95607166D01*
X149661619Y-95226214D02*
X149614000Y-95178595D01*
X149566381Y-95083357D01*
X149566381Y-94845261D01*
X149614000Y-94750023D01*
X149661619Y-94702404D01*
X149756857Y-94654785D01*
X149852095Y-94654785D01*
X149994952Y-94702404D01*
X150566381Y-95273833D01*
X150566381Y-94654785D01*
X173061334Y-88046143D02*
X173013715Y-88093762D01*
X172870858Y-88141381D01*
X172775620Y-88141381D01*
X172632762Y-88093762D01*
X172537524Y-87998524D01*
X172489905Y-87903286D01*
X172442286Y-87712810D01*
X172442286Y-87569952D01*
X172489905Y-87379476D01*
X172537524Y-87284238D01*
X172632762Y-87189000D01*
X172775620Y-87141381D01*
X172870858Y-87141381D01*
X173013715Y-87189000D01*
X173061334Y-87236619D01*
X173394667Y-87141381D02*
X174013715Y-87141381D01*
X173680381Y-87522333D01*
X173823239Y-87522333D01*
X173918477Y-87569952D01*
X173966096Y-87617571D01*
X174013715Y-87712810D01*
X174013715Y-87950905D01*
X173966096Y-88046143D01*
X173918477Y-88093762D01*
X173823239Y-88141381D01*
X173537524Y-88141381D01*
X173442286Y-88093762D01*
X173394667Y-88046143D01*
X161969143Y-95607166D02*
X162016762Y-95654785D01*
X162064381Y-95797642D01*
X162064381Y-95892880D01*
X162016762Y-96035738D01*
X161921524Y-96130976D01*
X161826286Y-96178595D01*
X161635810Y-96226214D01*
X161492952Y-96226214D01*
X161302476Y-96178595D01*
X161207238Y-96130976D01*
X161112000Y-96035738D01*
X161064381Y-95892880D01*
X161064381Y-95797642D01*
X161112000Y-95654785D01*
X161159619Y-95607166D01*
X161397714Y-94750023D02*
X162064381Y-94750023D01*
X161016762Y-94988119D02*
X161731048Y-95226214D01*
X161731048Y-94607166D01*
X118451334Y-107799143D02*
X118403715Y-107846762D01*
X118260858Y-107894381D01*
X118165620Y-107894381D01*
X118022762Y-107846762D01*
X117927524Y-107751524D01*
X117879905Y-107656286D01*
X117832286Y-107465810D01*
X117832286Y-107322952D01*
X117879905Y-107132476D01*
X117927524Y-107037238D01*
X118022762Y-106942000D01*
X118165620Y-106894381D01*
X118260858Y-106894381D01*
X118403715Y-106942000D01*
X118451334Y-106989619D01*
X119356096Y-106894381D02*
X118879905Y-106894381D01*
X118832286Y-107370571D01*
X118879905Y-107322952D01*
X118975143Y-107275333D01*
X119213239Y-107275333D01*
X119308477Y-107322952D01*
X119356096Y-107370571D01*
X119403715Y-107465810D01*
X119403715Y-107703905D01*
X119356096Y-107799143D01*
X119308477Y-107846762D01*
X119213239Y-107894381D01*
X118975143Y-107894381D01*
X118879905Y-107846762D01*
X118832286Y-107799143D01*
X125071143Y-80811666D02*
X125118762Y-80859285D01*
X125166381Y-81002142D01*
X125166381Y-81097380D01*
X125118762Y-81240238D01*
X125023524Y-81335476D01*
X124928286Y-81383095D01*
X124737810Y-81430714D01*
X124594952Y-81430714D01*
X124404476Y-81383095D01*
X124309238Y-81335476D01*
X124214000Y-81240238D01*
X124166381Y-81097380D01*
X124166381Y-81002142D01*
X124214000Y-80859285D01*
X124261619Y-80811666D01*
X124166381Y-79954523D02*
X124166381Y-80145000D01*
X124214000Y-80240238D01*
X124261619Y-80287857D01*
X124404476Y-80383095D01*
X124594952Y-80430714D01*
X124975905Y-80430714D01*
X125071143Y-80383095D01*
X125118762Y-80335476D01*
X125166381Y-80240238D01*
X125166381Y-80049761D01*
X125118762Y-79954523D01*
X125071143Y-79906904D01*
X124975905Y-79859285D01*
X124737810Y-79859285D01*
X124642571Y-79906904D01*
X124594952Y-79954523D01*
X124547333Y-80049761D01*
X124547333Y-80240238D01*
X124594952Y-80335476D01*
X124642571Y-80383095D01*
X124737810Y-80430714D01*
X123987143Y-99988666D02*
X124034762Y-100036285D01*
X124082381Y-100179142D01*
X124082381Y-100274380D01*
X124034762Y-100417238D01*
X123939524Y-100512476D01*
X123844286Y-100560095D01*
X123653810Y-100607714D01*
X123510952Y-100607714D01*
X123320476Y-100560095D01*
X123225238Y-100512476D01*
X123130000Y-100417238D01*
X123082381Y-100274380D01*
X123082381Y-100179142D01*
X123130000Y-100036285D01*
X123177619Y-99988666D01*
X123082381Y-99655333D02*
X123082381Y-98988666D01*
X124082381Y-99417238D01*
X125309334Y-115165143D02*
X125261715Y-115212762D01*
X125118858Y-115260381D01*
X125023620Y-115260381D01*
X124880762Y-115212762D01*
X124785524Y-115117524D01*
X124737905Y-115022286D01*
X124690286Y-114831810D01*
X124690286Y-114688952D01*
X124737905Y-114498476D01*
X124785524Y-114403238D01*
X124880762Y-114308000D01*
X125023620Y-114260381D01*
X125118858Y-114260381D01*
X125261715Y-114308000D01*
X125309334Y-114355619D01*
X125880762Y-114688952D02*
X125785524Y-114641333D01*
X125737905Y-114593714D01*
X125690286Y-114498476D01*
X125690286Y-114450857D01*
X125737905Y-114355619D01*
X125785524Y-114308000D01*
X125880762Y-114260381D01*
X126071239Y-114260381D01*
X126166477Y-114308000D01*
X126214096Y-114355619D01*
X126261715Y-114450857D01*
X126261715Y-114498476D01*
X126214096Y-114593714D01*
X126166477Y-114641333D01*
X126071239Y-114688952D01*
X125880762Y-114688952D01*
X125785524Y-114736571D01*
X125737905Y-114784190D01*
X125690286Y-114879429D01*
X125690286Y-115069905D01*
X125737905Y-115165143D01*
X125785524Y-115212762D01*
X125880762Y-115260381D01*
X126071239Y-115260381D01*
X126166477Y-115212762D01*
X126214096Y-115165143D01*
X126261715Y-115069905D01*
X126261715Y-114879429D01*
X126214096Y-114784190D01*
X126166477Y-114736571D01*
X126071239Y-114688952D01*
X133437334Y-103227143D02*
X133389715Y-103274762D01*
X133246858Y-103322381D01*
X133151620Y-103322381D01*
X133008762Y-103274762D01*
X132913524Y-103179524D01*
X132865905Y-103084286D01*
X132818286Y-102893810D01*
X132818286Y-102750952D01*
X132865905Y-102560476D01*
X132913524Y-102465238D01*
X133008762Y-102370000D01*
X133151620Y-102322381D01*
X133246858Y-102322381D01*
X133389715Y-102370000D01*
X133437334Y-102417619D01*
X133913524Y-103322381D02*
X134104000Y-103322381D01*
X134199239Y-103274762D01*
X134246858Y-103227143D01*
X134342096Y-103084286D01*
X134389715Y-102893810D01*
X134389715Y-102512857D01*
X134342096Y-102417619D01*
X134294477Y-102370000D01*
X134199239Y-102322381D01*
X134008762Y-102322381D01*
X133913524Y-102370000D01*
X133865905Y-102417619D01*
X133818286Y-102512857D01*
X133818286Y-102750952D01*
X133865905Y-102846190D01*
X133913524Y-102893810D01*
X134008762Y-102941429D01*
X134199239Y-102941429D01*
X134294477Y-102893810D01*
X134342096Y-102846190D01*
X134389715Y-102750952D01*
X113133143Y-58046857D02*
X113180762Y-58094476D01*
X113228381Y-58237333D01*
X113228381Y-58332571D01*
X113180762Y-58475429D01*
X113085524Y-58570667D01*
X112990286Y-58618286D01*
X112799810Y-58665905D01*
X112656952Y-58665905D01*
X112466476Y-58618286D01*
X112371238Y-58570667D01*
X112276000Y-58475429D01*
X112228381Y-58332571D01*
X112228381Y-58237333D01*
X112276000Y-58094476D01*
X112323619Y-58046857D01*
X113228381Y-57094476D02*
X113228381Y-57665905D01*
X113228381Y-57380191D02*
X112228381Y-57380191D01*
X112371238Y-57475429D01*
X112466476Y-57570667D01*
X112514095Y-57665905D01*
X113228381Y-56142095D02*
X113228381Y-56713524D01*
X113228381Y-56427810D02*
X112228381Y-56427810D01*
X112371238Y-56523048D01*
X112466476Y-56618286D01*
X112514095Y-56713524D01*
X107613143Y-73286857D02*
X107660762Y-73334476D01*
X107708381Y-73477333D01*
X107708381Y-73572571D01*
X107660762Y-73715429D01*
X107565524Y-73810667D01*
X107470286Y-73858286D01*
X107279810Y-73905905D01*
X107136952Y-73905905D01*
X106946476Y-73858286D01*
X106851238Y-73810667D01*
X106756000Y-73715429D01*
X106708381Y-73572571D01*
X106708381Y-73477333D01*
X106756000Y-73334476D01*
X106803619Y-73286857D01*
X107708381Y-72334476D02*
X107708381Y-72905905D01*
X107708381Y-72620191D02*
X106708381Y-72620191D01*
X106851238Y-72715429D01*
X106946476Y-72810667D01*
X106994095Y-72905905D01*
X106803619Y-71953524D02*
X106756000Y-71905905D01*
X106708381Y-71810667D01*
X106708381Y-71572571D01*
X106756000Y-71477333D01*
X106803619Y-71429714D01*
X106898857Y-71382095D01*
X106994095Y-71382095D01*
X107136952Y-71429714D01*
X107708381Y-72001143D01*
X107708381Y-71382095D01*
X106545143Y-78589143D02*
X106497524Y-78636762D01*
X106354667Y-78684381D01*
X106259429Y-78684381D01*
X106116571Y-78636762D01*
X106021333Y-78541524D01*
X105973714Y-78446286D01*
X105926095Y-78255810D01*
X105926095Y-78112952D01*
X105973714Y-77922476D01*
X106021333Y-77827238D01*
X106116571Y-77732000D01*
X106259429Y-77684381D01*
X106354667Y-77684381D01*
X106497524Y-77732000D01*
X106545143Y-77779619D01*
X107497524Y-78684381D02*
X106926095Y-78684381D01*
X107211809Y-78684381D02*
X107211809Y-77684381D01*
X107116571Y-77827238D01*
X107021333Y-77922476D01*
X106926095Y-77970095D01*
X107830857Y-77684381D02*
X108449905Y-77684381D01*
X108116571Y-78065333D01*
X108259429Y-78065333D01*
X108354667Y-78112952D01*
X108402286Y-78160571D01*
X108449905Y-78255810D01*
X108449905Y-78493905D01*
X108402286Y-78589143D01*
X108354667Y-78636762D01*
X108259429Y-78684381D01*
X107973714Y-78684381D01*
X107878476Y-78636762D01*
X107830857Y-78589143D01*
X122547143Y-72239143D02*
X122499524Y-72286762D01*
X122356667Y-72334381D01*
X122261429Y-72334381D01*
X122118571Y-72286762D01*
X122023333Y-72191524D01*
X121975714Y-72096286D01*
X121928095Y-71905810D01*
X121928095Y-71762952D01*
X121975714Y-71572476D01*
X122023333Y-71477238D01*
X122118571Y-71382000D01*
X122261429Y-71334381D01*
X122356667Y-71334381D01*
X122499524Y-71382000D01*
X122547143Y-71429619D01*
X123499524Y-72334381D02*
X122928095Y-72334381D01*
X123213809Y-72334381D02*
X123213809Y-71334381D01*
X123118571Y-71477238D01*
X123023333Y-71572476D01*
X122928095Y-71620095D01*
X124356667Y-71667714D02*
X124356667Y-72334381D01*
X124118571Y-71286762D02*
X123880476Y-72001048D01*
X124499524Y-72001048D01*
X108620143Y-67952857D02*
X108667762Y-68000476D01*
X108715381Y-68143333D01*
X108715381Y-68238571D01*
X108667762Y-68381429D01*
X108572524Y-68476667D01*
X108477286Y-68524286D01*
X108286810Y-68571905D01*
X108143952Y-68571905D01*
X107953476Y-68524286D01*
X107858238Y-68476667D01*
X107763000Y-68381429D01*
X107715381Y-68238571D01*
X107715381Y-68143333D01*
X107763000Y-68000476D01*
X107810619Y-67952857D01*
X108715381Y-67000476D02*
X108715381Y-67571905D01*
X108715381Y-67286191D02*
X107715381Y-67286191D01*
X107858238Y-67381429D01*
X107953476Y-67476667D01*
X108001095Y-67571905D01*
X107715381Y-66095714D02*
X107715381Y-66571905D01*
X108191571Y-66619524D01*
X108143952Y-66571905D01*
X108096333Y-66476667D01*
X108096333Y-66238571D01*
X108143952Y-66143333D01*
X108191571Y-66095714D01*
X108286810Y-66048095D01*
X108524905Y-66048095D01*
X108620143Y-66095714D01*
X108667762Y-66143333D01*
X108715381Y-66238571D01*
X108715381Y-66476667D01*
X108667762Y-66571905D01*
X108620143Y-66619524D01*
X129135143Y-63888857D02*
X129182762Y-63936476D01*
X129230381Y-64079333D01*
X129230381Y-64174571D01*
X129182762Y-64317429D01*
X129087524Y-64412667D01*
X128992286Y-64460286D01*
X128801810Y-64507905D01*
X128658952Y-64507905D01*
X128468476Y-64460286D01*
X128373238Y-64412667D01*
X128278000Y-64317429D01*
X128230381Y-64174571D01*
X128230381Y-64079333D01*
X128278000Y-63936476D01*
X128325619Y-63888857D01*
X129230381Y-62936476D02*
X129230381Y-63507905D01*
X129230381Y-63222191D02*
X128230381Y-63222191D01*
X128373238Y-63317429D01*
X128468476Y-63412667D01*
X128516095Y-63507905D01*
X128230381Y-62079333D02*
X128230381Y-62269810D01*
X128278000Y-62365048D01*
X128325619Y-62412667D01*
X128468476Y-62507905D01*
X128658952Y-62555524D01*
X129039905Y-62555524D01*
X129135143Y-62507905D01*
X129182762Y-62460286D01*
X129230381Y-62365048D01*
X129230381Y-62174571D01*
X129182762Y-62079333D01*
X129135143Y-62031714D01*
X129039905Y-61984095D01*
X128801810Y-61984095D01*
X128706571Y-62031714D01*
X128658952Y-62079333D01*
X128611333Y-62174571D01*
X128611333Y-62365048D01*
X128658952Y-62460286D01*
X128706571Y-62507905D01*
X128801810Y-62555524D01*
X140073143Y-99925143D02*
X140025524Y-99972762D01*
X139882667Y-100020381D01*
X139787429Y-100020381D01*
X139644571Y-99972762D01*
X139549333Y-99877524D01*
X139501714Y-99782286D01*
X139454095Y-99591810D01*
X139454095Y-99448952D01*
X139501714Y-99258476D01*
X139549333Y-99163238D01*
X139644571Y-99068000D01*
X139787429Y-99020381D01*
X139882667Y-99020381D01*
X140025524Y-99068000D01*
X140073143Y-99115619D01*
X141025524Y-100020381D02*
X140454095Y-100020381D01*
X140739809Y-100020381D02*
X140739809Y-99020381D01*
X140644571Y-99163238D01*
X140549333Y-99258476D01*
X140454095Y-99306095D01*
X141358857Y-99020381D02*
X142025524Y-99020381D01*
X141596952Y-100020381D01*
X134215143Y-116212857D02*
X134262762Y-116260476D01*
X134310381Y-116403333D01*
X134310381Y-116498571D01*
X134262762Y-116641429D01*
X134167524Y-116736667D01*
X134072286Y-116784286D01*
X133881810Y-116831905D01*
X133738952Y-116831905D01*
X133548476Y-116784286D01*
X133453238Y-116736667D01*
X133358000Y-116641429D01*
X133310381Y-116498571D01*
X133310381Y-116403333D01*
X133358000Y-116260476D01*
X133405619Y-116212857D01*
X134310381Y-115260476D02*
X134310381Y-115831905D01*
X134310381Y-115546191D02*
X133310381Y-115546191D01*
X133453238Y-115641429D01*
X133548476Y-115736667D01*
X133596095Y-115831905D01*
X133738952Y-114689048D02*
X133691333Y-114784286D01*
X133643714Y-114831905D01*
X133548476Y-114879524D01*
X133500857Y-114879524D01*
X133405619Y-114831905D01*
X133358000Y-114784286D01*
X133310381Y-114689048D01*
X133310381Y-114498571D01*
X133358000Y-114403333D01*
X133405619Y-114355714D01*
X133500857Y-114308095D01*
X133548476Y-114308095D01*
X133643714Y-114355714D01*
X133691333Y-114403333D01*
X133738952Y-114498571D01*
X133738952Y-114689048D01*
X133786571Y-114784286D01*
X133834190Y-114831905D01*
X133929429Y-114879524D01*
X134119905Y-114879524D01*
X134215143Y-114831905D01*
X134262762Y-114784286D01*
X134310381Y-114689048D01*
X134310381Y-114498571D01*
X134262762Y-114403333D01*
X134215143Y-114355714D01*
X134119905Y-114308095D01*
X133929429Y-114308095D01*
X133834190Y-114355714D01*
X133786571Y-114403333D01*
X133738952Y-114498571D01*
X174109143Y-70461143D02*
X174061524Y-70508762D01*
X173918667Y-70556381D01*
X173823429Y-70556381D01*
X173680571Y-70508762D01*
X173585333Y-70413524D01*
X173537714Y-70318286D01*
X173490095Y-70127810D01*
X173490095Y-69984952D01*
X173537714Y-69794476D01*
X173585333Y-69699238D01*
X173680571Y-69604000D01*
X173823429Y-69556381D01*
X173918667Y-69556381D01*
X174061524Y-69604000D01*
X174109143Y-69651619D01*
X174490095Y-69651619D02*
X174537714Y-69604000D01*
X174632952Y-69556381D01*
X174871048Y-69556381D01*
X174966286Y-69604000D01*
X175013905Y-69651619D01*
X175061524Y-69746857D01*
X175061524Y-69842095D01*
X175013905Y-69984952D01*
X174442476Y-70556381D01*
X175061524Y-70556381D01*
X175442476Y-69651619D02*
X175490095Y-69604000D01*
X175585333Y-69556381D01*
X175823429Y-69556381D01*
X175918667Y-69604000D01*
X175966286Y-69651619D01*
X176013905Y-69746857D01*
X176013905Y-69842095D01*
X175966286Y-69984952D01*
X175394857Y-70556381D01*
X176013905Y-70556381D01*
X176903143Y-58015143D02*
X176855524Y-58062762D01*
X176712667Y-58110381D01*
X176617429Y-58110381D01*
X176474571Y-58062762D01*
X176379333Y-57967524D01*
X176331714Y-57872286D01*
X176284095Y-57681810D01*
X176284095Y-57538952D01*
X176331714Y-57348476D01*
X176379333Y-57253238D01*
X176474571Y-57158000D01*
X176617429Y-57110381D01*
X176712667Y-57110381D01*
X176855524Y-57158000D01*
X176903143Y-57205619D01*
X177284095Y-57205619D02*
X177331714Y-57158000D01*
X177426952Y-57110381D01*
X177665048Y-57110381D01*
X177760286Y-57158000D01*
X177807905Y-57205619D01*
X177855524Y-57300857D01*
X177855524Y-57396095D01*
X177807905Y-57538952D01*
X177236476Y-58110381D01*
X177855524Y-58110381D01*
X178188857Y-57110381D02*
X178807905Y-57110381D01*
X178474571Y-57491333D01*
X178617429Y-57491333D01*
X178712667Y-57538952D01*
X178760286Y-57586571D01*
X178807905Y-57681810D01*
X178807905Y-57919905D01*
X178760286Y-58015143D01*
X178712667Y-58062762D01*
X178617429Y-58110381D01*
X178331714Y-58110381D01*
X178236476Y-58062762D01*
X178188857Y-58015143D01*
X163441143Y-57761143D02*
X163393524Y-57808762D01*
X163250667Y-57856381D01*
X163155429Y-57856381D01*
X163012571Y-57808762D01*
X162917333Y-57713524D01*
X162869714Y-57618286D01*
X162822095Y-57427810D01*
X162822095Y-57284952D01*
X162869714Y-57094476D01*
X162917333Y-56999238D01*
X163012571Y-56904000D01*
X163155429Y-56856381D01*
X163250667Y-56856381D01*
X163393524Y-56904000D01*
X163441143Y-56951619D01*
X163822095Y-56951619D02*
X163869714Y-56904000D01*
X163964952Y-56856381D01*
X164203048Y-56856381D01*
X164298286Y-56904000D01*
X164345905Y-56951619D01*
X164393524Y-57046857D01*
X164393524Y-57142095D01*
X164345905Y-57284952D01*
X163774476Y-57856381D01*
X164393524Y-57856381D01*
X165250667Y-57189714D02*
X165250667Y-57856381D01*
X165012571Y-56808762D02*
X164774476Y-57523048D01*
X165393524Y-57523048D01*
X132532381Y-63984095D02*
X131532381Y-63984095D01*
X131532381Y-63746000D01*
X131580000Y-63603142D01*
X131675238Y-63507904D01*
X131770476Y-63460285D01*
X131960952Y-63412666D01*
X132103810Y-63412666D01*
X132294286Y-63460285D01*
X132389524Y-63507904D01*
X132484762Y-63603142D01*
X132532381Y-63746000D01*
X132532381Y-63984095D01*
X132532381Y-62460285D02*
X132532381Y-63031714D01*
X132532381Y-62746000D02*
X131532381Y-62746000D01*
X131675238Y-62841238D01*
X131770476Y-62936476D01*
X131818095Y-63031714D01*
X145867381Y-67540095D02*
X144867381Y-67540095D01*
X144867381Y-67302000D01*
X144915000Y-67159142D01*
X145010238Y-67063904D01*
X145105476Y-67016285D01*
X145295952Y-66968666D01*
X145438810Y-66968666D01*
X145629286Y-67016285D01*
X145724524Y-67063904D01*
X145819762Y-67159142D01*
X145867381Y-67302000D01*
X145867381Y-67540095D01*
X144867381Y-66635333D02*
X144867381Y-66016285D01*
X145248333Y-66349619D01*
X145248333Y-66206761D01*
X145295952Y-66111523D01*
X145343571Y-66063904D01*
X145438810Y-66016285D01*
X145676905Y-66016285D01*
X145772143Y-66063904D01*
X145819762Y-66111523D01*
X145867381Y-66206761D01*
X145867381Y-66492476D01*
X145819762Y-66587714D01*
X145772143Y-66635333D01*
X124658381Y-60682095D02*
X123658381Y-60682095D01*
X123658381Y-60444000D01*
X123706000Y-60301142D01*
X123801238Y-60205904D01*
X123896476Y-60158285D01*
X124086952Y-60110666D01*
X124229810Y-60110666D01*
X124420286Y-60158285D01*
X124515524Y-60205904D01*
X124610762Y-60301142D01*
X124658381Y-60444000D01*
X124658381Y-60682095D01*
X123658381Y-59205904D02*
X123658381Y-59682095D01*
X124134571Y-59729714D01*
X124086952Y-59682095D01*
X124039333Y-59586857D01*
X124039333Y-59348761D01*
X124086952Y-59253523D01*
X124134571Y-59205904D01*
X124229810Y-59158285D01*
X124467905Y-59158285D01*
X124563143Y-59205904D01*
X124610762Y-59253523D01*
X124658381Y-59348761D01*
X124658381Y-59586857D01*
X124610762Y-59682095D01*
X124563143Y-59729714D01*
X176998381Y-100917333D02*
X177712667Y-100917333D01*
X177855524Y-100964953D01*
X177950762Y-101060191D01*
X177998381Y-101203048D01*
X177998381Y-101298286D01*
X177998381Y-99917333D02*
X177998381Y-100488762D01*
X177998381Y-100203048D02*
X176998381Y-100203048D01*
X177141238Y-100298286D01*
X177236476Y-100393524D01*
X177284095Y-100488762D01*
X122769334Y-93289381D02*
X122436000Y-92813190D01*
X122197905Y-93289381D02*
X122197905Y-92289381D01*
X122578858Y-92289381D01*
X122674096Y-92337000D01*
X122721715Y-92384619D01*
X122769334Y-92479857D01*
X122769334Y-92622714D01*
X122721715Y-92717952D01*
X122674096Y-92765571D01*
X122578858Y-92813190D01*
X122197905Y-92813190D01*
X123721715Y-93289381D02*
X123150286Y-93289381D01*
X123436000Y-93289381D02*
X123436000Y-92289381D01*
X123340762Y-92432238D01*
X123245524Y-92527476D01*
X123150286Y-92575095D01*
X174585334Y-65984381D02*
X174252000Y-65508190D01*
X174013905Y-65984381D02*
X174013905Y-64984381D01*
X174394858Y-64984381D01*
X174490096Y-65032000D01*
X174537715Y-65079619D01*
X174585334Y-65174857D01*
X174585334Y-65317714D01*
X174537715Y-65412952D01*
X174490096Y-65460571D01*
X174394858Y-65508190D01*
X174013905Y-65508190D01*
X174918667Y-64984381D02*
X175537715Y-64984381D01*
X175204381Y-65365333D01*
X175347239Y-65365333D01*
X175442477Y-65412952D01*
X175490096Y-65460571D01*
X175537715Y-65555810D01*
X175537715Y-65793905D01*
X175490096Y-65889143D01*
X175442477Y-65936762D01*
X175347239Y-65984381D01*
X175061524Y-65984381D01*
X174966286Y-65936762D01*
X174918667Y-65889143D01*
X174585334Y-68016381D02*
X174252000Y-67540190D01*
X174013905Y-68016381D02*
X174013905Y-67016381D01*
X174394858Y-67016381D01*
X174490096Y-67064000D01*
X174537715Y-67111619D01*
X174585334Y-67206857D01*
X174585334Y-67349714D01*
X174537715Y-67444952D01*
X174490096Y-67492571D01*
X174394858Y-67540190D01*
X174013905Y-67540190D01*
X175442477Y-67349714D02*
X175442477Y-68016381D01*
X175204381Y-66968762D02*
X174966286Y-67683048D01*
X175585334Y-67683048D01*
X132532381Y-70905666D02*
X132056190Y-71239000D01*
X132532381Y-71477095D02*
X131532381Y-71477095D01*
X131532381Y-71096142D01*
X131580000Y-71000904D01*
X131627619Y-70953285D01*
X131722857Y-70905666D01*
X131865714Y-70905666D01*
X131960952Y-70953285D01*
X132008571Y-71000904D01*
X132056190Y-71096142D01*
X132056190Y-71477095D01*
X131532381Y-70000904D02*
X131532381Y-70477095D01*
X132008571Y-70524714D01*
X131960952Y-70477095D01*
X131913333Y-70381857D01*
X131913333Y-70143761D01*
X131960952Y-70048523D01*
X132008571Y-70000904D01*
X132103810Y-69953285D01*
X132341905Y-69953285D01*
X132437143Y-70000904D01*
X132484762Y-70048523D01*
X132532381Y-70143761D01*
X132532381Y-70381857D01*
X132484762Y-70477095D01*
X132437143Y-70524714D01*
X177633334Y-90876381D02*
X177300000Y-90400190D01*
X177061905Y-90876381D02*
X177061905Y-89876381D01*
X177442858Y-89876381D01*
X177538096Y-89924000D01*
X177585715Y-89971619D01*
X177633334Y-90066857D01*
X177633334Y-90209714D01*
X177585715Y-90304952D01*
X177538096Y-90352571D01*
X177442858Y-90400190D01*
X177061905Y-90400190D01*
X178490477Y-89876381D02*
X178300000Y-89876381D01*
X178204762Y-89924000D01*
X178157143Y-89971619D01*
X178061905Y-90114476D01*
X178014286Y-90304952D01*
X178014286Y-90685905D01*
X178061905Y-90781143D01*
X178109524Y-90828762D01*
X178204762Y-90876381D01*
X178395239Y-90876381D01*
X178490477Y-90828762D01*
X178538096Y-90781143D01*
X178585715Y-90685905D01*
X178585715Y-90447810D01*
X178538096Y-90352571D01*
X178490477Y-90304952D01*
X178395239Y-90257333D01*
X178204762Y-90257333D01*
X178109524Y-90304952D01*
X178061905Y-90352571D01*
X178014286Y-90447810D01*
X172553334Y-81029381D02*
X172220000Y-80553190D01*
X171981905Y-81029381D02*
X171981905Y-80029381D01*
X172362858Y-80029381D01*
X172458096Y-80077000D01*
X172505715Y-80124619D01*
X172553334Y-80219857D01*
X172553334Y-80362714D01*
X172505715Y-80457952D01*
X172458096Y-80505571D01*
X172362858Y-80553190D01*
X171981905Y-80553190D01*
X172886667Y-80029381D02*
X173553334Y-80029381D01*
X173124762Y-81029381D01*
X167071881Y-79224166D02*
X166595690Y-79557500D01*
X167071881Y-79795595D02*
X166071881Y-79795595D01*
X166071881Y-79414642D01*
X166119500Y-79319404D01*
X166167119Y-79271785D01*
X166262357Y-79224166D01*
X166405214Y-79224166D01*
X166500452Y-79271785D01*
X166548071Y-79319404D01*
X166595690Y-79414642D01*
X166595690Y-79795595D01*
X166500452Y-78652738D02*
X166452833Y-78747976D01*
X166405214Y-78795595D01*
X166309976Y-78843214D01*
X166262357Y-78843214D01*
X166167119Y-78795595D01*
X166119500Y-78747976D01*
X166071881Y-78652738D01*
X166071881Y-78462261D01*
X166119500Y-78367023D01*
X166167119Y-78319404D01*
X166262357Y-78271785D01*
X166309976Y-78271785D01*
X166405214Y-78319404D01*
X166452833Y-78367023D01*
X166500452Y-78462261D01*
X166500452Y-78652738D01*
X166548071Y-78747976D01*
X166595690Y-78795595D01*
X166690929Y-78843214D01*
X166881405Y-78843214D01*
X166976643Y-78795595D01*
X167024262Y-78747976D01*
X167071881Y-78652738D01*
X167071881Y-78462261D01*
X167024262Y-78367023D01*
X166976643Y-78319404D01*
X166881405Y-78271785D01*
X166690929Y-78271785D01*
X166595690Y-78319404D01*
X166548071Y-78367023D01*
X166500452Y-78462261D01*
X166838334Y-103390381D02*
X166505000Y-102914190D01*
X166266905Y-103390381D02*
X166266905Y-102390381D01*
X166647858Y-102390381D01*
X166743096Y-102438000D01*
X166790715Y-102485619D01*
X166838334Y-102580857D01*
X166838334Y-102723714D01*
X166790715Y-102818952D01*
X166743096Y-102866571D01*
X166647858Y-102914190D01*
X166266905Y-102914190D01*
X167314524Y-103390381D02*
X167505000Y-103390381D01*
X167600239Y-103342762D01*
X167647858Y-103295143D01*
X167743096Y-103152286D01*
X167790715Y-102961810D01*
X167790715Y-102580857D01*
X167743096Y-102485619D01*
X167695477Y-102438000D01*
X167600239Y-102390381D01*
X167409762Y-102390381D01*
X167314524Y-102438000D01*
X167266905Y-102485619D01*
X167219286Y-102580857D01*
X167219286Y-102818952D01*
X167266905Y-102914190D01*
X167314524Y-102961810D01*
X167409762Y-103009429D01*
X167600239Y-103009429D01*
X167695477Y-102961810D01*
X167743096Y-102914190D01*
X167790715Y-102818952D01*
X113482381Y-94114857D02*
X113006190Y-94448191D01*
X113482381Y-94686286D02*
X112482381Y-94686286D01*
X112482381Y-94305333D01*
X112530000Y-94210095D01*
X112577619Y-94162476D01*
X112672857Y-94114857D01*
X112815714Y-94114857D01*
X112910952Y-94162476D01*
X112958571Y-94210095D01*
X113006190Y-94305333D01*
X113006190Y-94686286D01*
X113482381Y-93162476D02*
X113482381Y-93733905D01*
X113482381Y-93448191D02*
X112482381Y-93448191D01*
X112625238Y-93543429D01*
X112720476Y-93638667D01*
X112768095Y-93733905D01*
X112482381Y-92543429D02*
X112482381Y-92448190D01*
X112530000Y-92352952D01*
X112577619Y-92305333D01*
X112672857Y-92257714D01*
X112863333Y-92210095D01*
X113101429Y-92210095D01*
X113291905Y-92257714D01*
X113387143Y-92305333D01*
X113434762Y-92352952D01*
X113482381Y-92448190D01*
X113482381Y-92543429D01*
X113434762Y-92638667D01*
X113387143Y-92686286D01*
X113291905Y-92733905D01*
X113101429Y-92781524D01*
X112863333Y-92781524D01*
X112672857Y-92733905D01*
X112577619Y-92686286D01*
X112530000Y-92638667D01*
X112482381Y-92543429D01*
X108842381Y-97924857D02*
X108366190Y-98258191D01*
X108842381Y-98496286D02*
X107842381Y-98496286D01*
X107842381Y-98115333D01*
X107890000Y-98020095D01*
X107937619Y-97972476D01*
X108032857Y-97924857D01*
X108175714Y-97924857D01*
X108270952Y-97972476D01*
X108318571Y-98020095D01*
X108366190Y-98115333D01*
X108366190Y-98496286D01*
X108842381Y-96972476D02*
X108842381Y-97543905D01*
X108842381Y-97258191D02*
X107842381Y-97258191D01*
X107985238Y-97353429D01*
X108080476Y-97448667D01*
X108128095Y-97543905D01*
X108842381Y-96020095D02*
X108842381Y-96591524D01*
X108842381Y-96305810D02*
X107842381Y-96305810D01*
X107985238Y-96401048D01*
X108080476Y-96496286D01*
X108128095Y-96591524D01*
X122674143Y-89987381D02*
X122340809Y-89511190D01*
X122102714Y-89987381D02*
X122102714Y-88987381D01*
X122483667Y-88987381D01*
X122578905Y-89035000D01*
X122626524Y-89082619D01*
X122674143Y-89177857D01*
X122674143Y-89320714D01*
X122626524Y-89415952D01*
X122578905Y-89463571D01*
X122483667Y-89511190D01*
X122102714Y-89511190D01*
X123626524Y-89987381D02*
X123055095Y-89987381D01*
X123340809Y-89987381D02*
X123340809Y-88987381D01*
X123245571Y-89130238D01*
X123150333Y-89225476D01*
X123055095Y-89273095D01*
X124007476Y-89082619D02*
X124055095Y-89035000D01*
X124150333Y-88987381D01*
X124388429Y-88987381D01*
X124483667Y-89035000D01*
X124531286Y-89082619D01*
X124578905Y-89177857D01*
X124578905Y-89273095D01*
X124531286Y-89415952D01*
X123959857Y-89987381D01*
X124578905Y-89987381D01*
X113403143Y-91765381D02*
X113069809Y-91289190D01*
X112831714Y-91765381D02*
X112831714Y-90765381D01*
X113212667Y-90765381D01*
X113307905Y-90813000D01*
X113355524Y-90860619D01*
X113403143Y-90955857D01*
X113403143Y-91098714D01*
X113355524Y-91193952D01*
X113307905Y-91241571D01*
X113212667Y-91289190D01*
X112831714Y-91289190D01*
X114355524Y-91765381D02*
X113784095Y-91765381D01*
X114069809Y-91765381D02*
X114069809Y-90765381D01*
X113974571Y-90908238D01*
X113879333Y-91003476D01*
X113784095Y-91051095D01*
X114688857Y-90765381D02*
X115307905Y-90765381D01*
X114974571Y-91146333D01*
X115117429Y-91146333D01*
X115212667Y-91193952D01*
X115260286Y-91241571D01*
X115307905Y-91336810D01*
X115307905Y-91574905D01*
X115260286Y-91670143D01*
X115212667Y-91717762D01*
X115117429Y-91765381D01*
X114831714Y-91765381D01*
X114736476Y-91717762D01*
X114688857Y-91670143D01*
X115006381Y-94114857D02*
X114530190Y-94448191D01*
X115006381Y-94686286D02*
X114006381Y-94686286D01*
X114006381Y-94305333D01*
X114054000Y-94210095D01*
X114101619Y-94162476D01*
X114196857Y-94114857D01*
X114339714Y-94114857D01*
X114434952Y-94162476D01*
X114482571Y-94210095D01*
X114530190Y-94305333D01*
X114530190Y-94686286D01*
X115006381Y-93162476D02*
X115006381Y-93733905D01*
X115006381Y-93448191D02*
X114006381Y-93448191D01*
X114149238Y-93543429D01*
X114244476Y-93638667D01*
X114292095Y-93733905D01*
X114339714Y-92305333D02*
X115006381Y-92305333D01*
X113958762Y-92543429D02*
X114673048Y-92781524D01*
X114673048Y-92162476D01*
X124833143Y-84526381D02*
X124499809Y-84050190D01*
X124261714Y-84526381D02*
X124261714Y-83526381D01*
X124642667Y-83526381D01*
X124737905Y-83574000D01*
X124785524Y-83621619D01*
X124833143Y-83716857D01*
X124833143Y-83859714D01*
X124785524Y-83954952D01*
X124737905Y-84002571D01*
X124642667Y-84050190D01*
X124261714Y-84050190D01*
X125785524Y-84526381D02*
X125214095Y-84526381D01*
X125499809Y-84526381D02*
X125499809Y-83526381D01*
X125404571Y-83669238D01*
X125309333Y-83764476D01*
X125214095Y-83812095D01*
X126690286Y-83526381D02*
X126214095Y-83526381D01*
X126166476Y-84002571D01*
X126214095Y-83954952D01*
X126309333Y-83907333D01*
X126547429Y-83907333D01*
X126642667Y-83954952D01*
X126690286Y-84002571D01*
X126737905Y-84097810D01*
X126737905Y-84335905D01*
X126690286Y-84431143D01*
X126642667Y-84478762D01*
X126547429Y-84526381D01*
X126309333Y-84526381D01*
X126214095Y-84478762D01*
X126166476Y-84431143D01*
X121785143Y-103322381D02*
X121451809Y-102846190D01*
X121213714Y-103322381D02*
X121213714Y-102322381D01*
X121594667Y-102322381D01*
X121689905Y-102370000D01*
X121737524Y-102417619D01*
X121785143Y-102512857D01*
X121785143Y-102655714D01*
X121737524Y-102750952D01*
X121689905Y-102798571D01*
X121594667Y-102846190D01*
X121213714Y-102846190D01*
X122737524Y-103322381D02*
X122166095Y-103322381D01*
X122451809Y-103322381D02*
X122451809Y-102322381D01*
X122356571Y-102465238D01*
X122261333Y-102560476D01*
X122166095Y-102608095D01*
X123594667Y-102322381D02*
X123404190Y-102322381D01*
X123308952Y-102370000D01*
X123261333Y-102417619D01*
X123166095Y-102560476D01*
X123118476Y-102750952D01*
X123118476Y-103131905D01*
X123166095Y-103227143D01*
X123213714Y-103274762D01*
X123308952Y-103322381D01*
X123499429Y-103322381D01*
X123594667Y-103274762D01*
X123642286Y-103227143D01*
X123689905Y-103131905D01*
X123689905Y-102893810D01*
X123642286Y-102798571D01*
X123594667Y-102750952D01*
X123499429Y-102703333D01*
X123308952Y-102703333D01*
X123213714Y-102750952D01*
X123166095Y-102798571D01*
X123118476Y-102893810D01*
X121864381Y-77096857D02*
X121388190Y-77430191D01*
X121864381Y-77668286D02*
X120864381Y-77668286D01*
X120864381Y-77287333D01*
X120912000Y-77192095D01*
X120959619Y-77144476D01*
X121054857Y-77096857D01*
X121197714Y-77096857D01*
X121292952Y-77144476D01*
X121340571Y-77192095D01*
X121388190Y-77287333D01*
X121388190Y-77668286D01*
X121864381Y-76144476D02*
X121864381Y-76715905D01*
X121864381Y-76430191D02*
X120864381Y-76430191D01*
X121007238Y-76525429D01*
X121102476Y-76620667D01*
X121150095Y-76715905D01*
X120864381Y-75811143D02*
X120864381Y-75144476D01*
X121864381Y-75573048D01*
X111625143Y-108148381D02*
X111291809Y-107672190D01*
X111053714Y-108148381D02*
X111053714Y-107148381D01*
X111434667Y-107148381D01*
X111529905Y-107196000D01*
X111577524Y-107243619D01*
X111625143Y-107338857D01*
X111625143Y-107481714D01*
X111577524Y-107576952D01*
X111529905Y-107624571D01*
X111434667Y-107672190D01*
X111053714Y-107672190D01*
X112577524Y-108148381D02*
X112006095Y-108148381D01*
X112291809Y-108148381D02*
X112291809Y-107148381D01*
X112196571Y-107291238D01*
X112101333Y-107386476D01*
X112006095Y-107434095D01*
X113148952Y-107576952D02*
X113053714Y-107529333D01*
X113006095Y-107481714D01*
X112958476Y-107386476D01*
X112958476Y-107338857D01*
X113006095Y-107243619D01*
X113053714Y-107196000D01*
X113148952Y-107148381D01*
X113339429Y-107148381D01*
X113434667Y-107196000D01*
X113482286Y-107243619D01*
X113529905Y-107338857D01*
X113529905Y-107386476D01*
X113482286Y-107481714D01*
X113434667Y-107529333D01*
X113339429Y-107576952D01*
X113148952Y-107576952D01*
X113053714Y-107624571D01*
X113006095Y-107672190D01*
X112958476Y-107767429D01*
X112958476Y-107957905D01*
X113006095Y-108053143D01*
X113053714Y-108100762D01*
X113148952Y-108148381D01*
X113339429Y-108148381D01*
X113434667Y-108100762D01*
X113482286Y-108053143D01*
X113529905Y-107957905D01*
X113529905Y-107767429D01*
X113482286Y-107672190D01*
X113434667Y-107624571D01*
X113339429Y-107576952D01*
X130373381Y-70746857D02*
X129897190Y-71080191D01*
X130373381Y-71318286D02*
X129373381Y-71318286D01*
X129373381Y-70937333D01*
X129421000Y-70842095D01*
X129468619Y-70794476D01*
X129563857Y-70746857D01*
X129706714Y-70746857D01*
X129801952Y-70794476D01*
X129849571Y-70842095D01*
X129897190Y-70937333D01*
X129897190Y-71318286D01*
X130373381Y-69794476D02*
X130373381Y-70365905D01*
X130373381Y-70080191D02*
X129373381Y-70080191D01*
X129516238Y-70175429D01*
X129611476Y-70270667D01*
X129659095Y-70365905D01*
X130373381Y-69318286D02*
X130373381Y-69127810D01*
X130325762Y-69032571D01*
X130278143Y-68984952D01*
X130135286Y-68889714D01*
X129944810Y-68842095D01*
X129563857Y-68842095D01*
X129468619Y-68889714D01*
X129421000Y-68937333D01*
X129373381Y-69032571D01*
X129373381Y-69223048D01*
X129421000Y-69318286D01*
X129468619Y-69365905D01*
X129563857Y-69413524D01*
X129801952Y-69413524D01*
X129897190Y-69365905D01*
X129944810Y-69318286D01*
X129992429Y-69223048D01*
X129992429Y-69032571D01*
X129944810Y-68937333D01*
X129897190Y-68889714D01*
X129801952Y-68842095D01*
X146756381Y-70619857D02*
X146280190Y-70953191D01*
X146756381Y-71191286D02*
X145756381Y-71191286D01*
X145756381Y-70810333D01*
X145804000Y-70715095D01*
X145851619Y-70667476D01*
X145946857Y-70619857D01*
X146089714Y-70619857D01*
X146184952Y-70667476D01*
X146232571Y-70715095D01*
X146280190Y-70810333D01*
X146280190Y-71191286D01*
X145851619Y-70238905D02*
X145804000Y-70191286D01*
X145756381Y-70096048D01*
X145756381Y-69857952D01*
X145804000Y-69762714D01*
X145851619Y-69715095D01*
X145946857Y-69667476D01*
X146042095Y-69667476D01*
X146184952Y-69715095D01*
X146756381Y-70286524D01*
X146756381Y-69667476D01*
X145756381Y-69048429D02*
X145756381Y-68953190D01*
X145804000Y-68857952D01*
X145851619Y-68810333D01*
X145946857Y-68762714D01*
X146137333Y-68715095D01*
X146375429Y-68715095D01*
X146565905Y-68762714D01*
X146661143Y-68810333D01*
X146708762Y-68857952D01*
X146756381Y-68953190D01*
X146756381Y-69048429D01*
X146708762Y-69143667D01*
X146661143Y-69191286D01*
X146565905Y-69238905D01*
X146375429Y-69286524D01*
X146137333Y-69286524D01*
X145946857Y-69238905D01*
X145851619Y-69191286D01*
X145804000Y-69143667D01*
X145756381Y-69048429D01*
X151249143Y-82435381D02*
X150915809Y-81959190D01*
X150677714Y-82435381D02*
X150677714Y-81435381D01*
X151058667Y-81435381D01*
X151153905Y-81483000D01*
X151201524Y-81530619D01*
X151249143Y-81625857D01*
X151249143Y-81768714D01*
X151201524Y-81863952D01*
X151153905Y-81911571D01*
X151058667Y-81959190D01*
X150677714Y-81959190D01*
X151630095Y-81530619D02*
X151677714Y-81483000D01*
X151772952Y-81435381D01*
X152011048Y-81435381D01*
X152106286Y-81483000D01*
X152153905Y-81530619D01*
X152201524Y-81625857D01*
X152201524Y-81721095D01*
X152153905Y-81863952D01*
X151582476Y-82435381D01*
X152201524Y-82435381D01*
X152534857Y-81435381D02*
X153153905Y-81435381D01*
X152820571Y-81816333D01*
X152963429Y-81816333D01*
X153058667Y-81863952D01*
X153106286Y-81911571D01*
X153153905Y-82006810D01*
X153153905Y-82244905D01*
X153106286Y-82340143D01*
X153058667Y-82387762D01*
X152963429Y-82435381D01*
X152677714Y-82435381D01*
X152582476Y-82387762D01*
X152534857Y-82340143D01*
X161155143Y-75509381D02*
X160821809Y-75033190D01*
X160583714Y-75509381D02*
X160583714Y-74509381D01*
X160964667Y-74509381D01*
X161059905Y-74557000D01*
X161107524Y-74604619D01*
X161155143Y-74699857D01*
X161155143Y-74842714D01*
X161107524Y-74937952D01*
X161059905Y-74985571D01*
X160964667Y-75033190D01*
X160583714Y-75033190D01*
X161536095Y-74604619D02*
X161583714Y-74557000D01*
X161678952Y-74509381D01*
X161917048Y-74509381D01*
X162012286Y-74557000D01*
X162059905Y-74604619D01*
X162107524Y-74699857D01*
X162107524Y-74795095D01*
X162059905Y-74937952D01*
X161488476Y-75509381D01*
X162107524Y-75509381D01*
X163012286Y-74509381D02*
X162536095Y-74509381D01*
X162488476Y-74985571D01*
X162536095Y-74937952D01*
X162631333Y-74890333D01*
X162869429Y-74890333D01*
X162964667Y-74937952D01*
X163012286Y-74985571D01*
X163059905Y-75080810D01*
X163059905Y-75318905D01*
X163012286Y-75414143D01*
X162964667Y-75461762D01*
X162869429Y-75509381D01*
X162631333Y-75509381D01*
X162536095Y-75461762D01*
X162488476Y-75414143D01*
X141422381Y-68460857D02*
X140946190Y-68794191D01*
X141422381Y-69032286D02*
X140422381Y-69032286D01*
X140422381Y-68651333D01*
X140470000Y-68556095D01*
X140517619Y-68508476D01*
X140612857Y-68460857D01*
X140755714Y-68460857D01*
X140850952Y-68508476D01*
X140898571Y-68556095D01*
X140946190Y-68651333D01*
X140946190Y-69032286D01*
X140517619Y-68079905D02*
X140470000Y-68032286D01*
X140422381Y-67937048D01*
X140422381Y-67698952D01*
X140470000Y-67603714D01*
X140517619Y-67556095D01*
X140612857Y-67508476D01*
X140708095Y-67508476D01*
X140850952Y-67556095D01*
X141422381Y-68127524D01*
X141422381Y-67508476D01*
X140422381Y-66651333D02*
X140422381Y-66841810D01*
X140470000Y-66937048D01*
X140517619Y-66984667D01*
X140660476Y-67079905D01*
X140850952Y-67127524D01*
X141231905Y-67127524D01*
X141327143Y-67079905D01*
X141374762Y-67032286D01*
X141422381Y-66937048D01*
X141422381Y-66746571D01*
X141374762Y-66651333D01*
X141327143Y-66603714D01*
X141231905Y-66556095D01*
X140993810Y-66556095D01*
X140898571Y-66603714D01*
X140850952Y-66651333D01*
X140803333Y-66746571D01*
X140803333Y-66937048D01*
X140850952Y-67032286D01*
X140898571Y-67079905D01*
X140993810Y-67127524D01*
X161282143Y-73096381D02*
X160948809Y-72620190D01*
X160710714Y-73096381D02*
X160710714Y-72096381D01*
X161091667Y-72096381D01*
X161186905Y-72144000D01*
X161234524Y-72191619D01*
X161282143Y-72286857D01*
X161282143Y-72429714D01*
X161234524Y-72524952D01*
X161186905Y-72572571D01*
X161091667Y-72620190D01*
X160710714Y-72620190D01*
X161663095Y-72191619D02*
X161710714Y-72144000D01*
X161805952Y-72096381D01*
X162044048Y-72096381D01*
X162139286Y-72144000D01*
X162186905Y-72191619D01*
X162234524Y-72286857D01*
X162234524Y-72382095D01*
X162186905Y-72524952D01*
X161615476Y-73096381D01*
X162234524Y-73096381D01*
X162567857Y-72096381D02*
X163234524Y-72096381D01*
X162805952Y-73096381D01*
X134437381Y-78874857D02*
X133961190Y-79208191D01*
X134437381Y-79446286D02*
X133437381Y-79446286D01*
X133437381Y-79065333D01*
X133485000Y-78970095D01*
X133532619Y-78922476D01*
X133627857Y-78874857D01*
X133770714Y-78874857D01*
X133865952Y-78922476D01*
X133913571Y-78970095D01*
X133961190Y-79065333D01*
X133961190Y-79446286D01*
X133532619Y-78493905D02*
X133485000Y-78446286D01*
X133437381Y-78351048D01*
X133437381Y-78112952D01*
X133485000Y-78017714D01*
X133532619Y-77970095D01*
X133627857Y-77922476D01*
X133723095Y-77922476D01*
X133865952Y-77970095D01*
X134437381Y-78541524D01*
X134437381Y-77922476D01*
X133865952Y-77351048D02*
X133818333Y-77446286D01*
X133770714Y-77493905D01*
X133675476Y-77541524D01*
X133627857Y-77541524D01*
X133532619Y-77493905D01*
X133485000Y-77446286D01*
X133437381Y-77351048D01*
X133437381Y-77160571D01*
X133485000Y-77065333D01*
X133532619Y-77017714D01*
X133627857Y-76970095D01*
X133675476Y-76970095D01*
X133770714Y-77017714D01*
X133818333Y-77065333D01*
X133865952Y-77160571D01*
X133865952Y-77351048D01*
X133913571Y-77446286D01*
X133961190Y-77493905D01*
X134056429Y-77541524D01*
X134246905Y-77541524D01*
X134342143Y-77493905D01*
X134389762Y-77446286D01*
X134437381Y-77351048D01*
X134437381Y-77160571D01*
X134389762Y-77065333D01*
X134342143Y-77017714D01*
X134246905Y-76970095D01*
X134056429Y-76970095D01*
X133961190Y-77017714D01*
X133913571Y-77065333D01*
X133865952Y-77160571D01*
X118229143Y-69540381D02*
X117895809Y-69064190D01*
X117657714Y-69540381D02*
X117657714Y-68540381D01*
X118038667Y-68540381D01*
X118133905Y-68588000D01*
X118181524Y-68635619D01*
X118229143Y-68730857D01*
X118229143Y-68873714D01*
X118181524Y-68968952D01*
X118133905Y-69016571D01*
X118038667Y-69064190D01*
X117657714Y-69064190D01*
X118610095Y-68635619D02*
X118657714Y-68588000D01*
X118752952Y-68540381D01*
X118991048Y-68540381D01*
X119086286Y-68588000D01*
X119133905Y-68635619D01*
X119181524Y-68730857D01*
X119181524Y-68826095D01*
X119133905Y-68968952D01*
X118562476Y-69540381D01*
X119181524Y-69540381D01*
X119657714Y-69540381D02*
X119848190Y-69540381D01*
X119943429Y-69492762D01*
X119991048Y-69445143D01*
X120086286Y-69302286D01*
X120133905Y-69111810D01*
X120133905Y-68730857D01*
X120086286Y-68635619D01*
X120038667Y-68588000D01*
X119943429Y-68540381D01*
X119752952Y-68540381D01*
X119657714Y-68588000D01*
X119610095Y-68635619D01*
X119562476Y-68730857D01*
X119562476Y-68968952D01*
X119610095Y-69064190D01*
X119657714Y-69111810D01*
X119752952Y-69159429D01*
X119943429Y-69159429D01*
X120038667Y-69111810D01*
X120086286Y-69064190D01*
X120133905Y-68968952D01*
X128135143Y-66746381D02*
X127801809Y-66270190D01*
X127563714Y-66746381D02*
X127563714Y-65746381D01*
X127944667Y-65746381D01*
X128039905Y-65794000D01*
X128087524Y-65841619D01*
X128135143Y-65936857D01*
X128135143Y-66079714D01*
X128087524Y-66174952D01*
X128039905Y-66222571D01*
X127944667Y-66270190D01*
X127563714Y-66270190D01*
X128468476Y-65746381D02*
X129087524Y-65746381D01*
X128754190Y-66127333D01*
X128897048Y-66127333D01*
X128992286Y-66174952D01*
X129039905Y-66222571D01*
X129087524Y-66317810D01*
X129087524Y-66555905D01*
X129039905Y-66651143D01*
X128992286Y-66698762D01*
X128897048Y-66746381D01*
X128611333Y-66746381D01*
X128516095Y-66698762D01*
X128468476Y-66651143D01*
X129706571Y-65746381D02*
X129801810Y-65746381D01*
X129897048Y-65794000D01*
X129944667Y-65841619D01*
X129992286Y-65936857D01*
X130039905Y-66127333D01*
X130039905Y-66365429D01*
X129992286Y-66555905D01*
X129944667Y-66651143D01*
X129897048Y-66698762D01*
X129801810Y-66746381D01*
X129706571Y-66746381D01*
X129611333Y-66698762D01*
X129563714Y-66651143D01*
X129516095Y-66555905D01*
X129468476Y-66365429D01*
X129468476Y-66127333D01*
X129516095Y-65936857D01*
X129563714Y-65841619D01*
X129611333Y-65794000D01*
X129706571Y-65746381D01*
X115006381Y-67698857D02*
X114530190Y-68032191D01*
X115006381Y-68270286D02*
X114006381Y-68270286D01*
X114006381Y-67889333D01*
X114054000Y-67794095D01*
X114101619Y-67746476D01*
X114196857Y-67698857D01*
X114339714Y-67698857D01*
X114434952Y-67746476D01*
X114482571Y-67794095D01*
X114530190Y-67889333D01*
X114530190Y-68270286D01*
X114006381Y-67365524D02*
X114006381Y-66746476D01*
X114387333Y-67079810D01*
X114387333Y-66936952D01*
X114434952Y-66841714D01*
X114482571Y-66794095D01*
X114577810Y-66746476D01*
X114815905Y-66746476D01*
X114911143Y-66794095D01*
X114958762Y-66841714D01*
X115006381Y-66936952D01*
X115006381Y-67222667D01*
X114958762Y-67317905D01*
X114911143Y-67365524D01*
X115006381Y-65794095D02*
X115006381Y-66365524D01*
X115006381Y-66079810D02*
X114006381Y-66079810D01*
X114149238Y-66175048D01*
X114244476Y-66270286D01*
X114292095Y-66365524D01*
X108715381Y-61856857D02*
X108239190Y-62190191D01*
X108715381Y-62428286D02*
X107715381Y-62428286D01*
X107715381Y-62047333D01*
X107763000Y-61952095D01*
X107810619Y-61904476D01*
X107905857Y-61856857D01*
X108048714Y-61856857D01*
X108143952Y-61904476D01*
X108191571Y-61952095D01*
X108239190Y-62047333D01*
X108239190Y-62428286D01*
X107715381Y-61523524D02*
X107715381Y-60904476D01*
X108096333Y-61237810D01*
X108096333Y-61094952D01*
X108143952Y-60999714D01*
X108191571Y-60952095D01*
X108286810Y-60904476D01*
X108524905Y-60904476D01*
X108620143Y-60952095D01*
X108667762Y-60999714D01*
X108715381Y-61094952D01*
X108715381Y-61380667D01*
X108667762Y-61475905D01*
X108620143Y-61523524D01*
X107810619Y-60523524D02*
X107763000Y-60475905D01*
X107715381Y-60380667D01*
X107715381Y-60142571D01*
X107763000Y-60047333D01*
X107810619Y-59999714D01*
X107905857Y-59952095D01*
X108001095Y-59952095D01*
X108143952Y-59999714D01*
X108715381Y-60571143D01*
X108715381Y-59952095D01*
X136850381Y-111640857D02*
X136374190Y-111974191D01*
X136850381Y-112212286D02*
X135850381Y-112212286D01*
X135850381Y-111831333D01*
X135898000Y-111736095D01*
X135945619Y-111688476D01*
X136040857Y-111640857D01*
X136183714Y-111640857D01*
X136278952Y-111688476D01*
X136326571Y-111736095D01*
X136374190Y-111831333D01*
X136374190Y-112212286D01*
X135850381Y-111307524D02*
X135850381Y-110688476D01*
X136231333Y-111021810D01*
X136231333Y-110878952D01*
X136278952Y-110783714D01*
X136326571Y-110736095D01*
X136421810Y-110688476D01*
X136659905Y-110688476D01*
X136755143Y-110736095D01*
X136802762Y-110783714D01*
X136850381Y-110878952D01*
X136850381Y-111164667D01*
X136802762Y-111259905D01*
X136755143Y-111307524D01*
X135850381Y-110355143D02*
X135850381Y-109736095D01*
X136231333Y-110069429D01*
X136231333Y-109926571D01*
X136278952Y-109831333D01*
X136326571Y-109783714D01*
X136421810Y-109736095D01*
X136659905Y-109736095D01*
X136755143Y-109783714D01*
X136802762Y-109831333D01*
X136850381Y-109926571D01*
X136850381Y-110212286D01*
X136802762Y-110307524D01*
X136755143Y-110355143D01*
X140327143Y-95448381D02*
X139993809Y-94972190D01*
X139755714Y-95448381D02*
X139755714Y-94448381D01*
X140136667Y-94448381D01*
X140231905Y-94496000D01*
X140279524Y-94543619D01*
X140327143Y-94638857D01*
X140327143Y-94781714D01*
X140279524Y-94876952D01*
X140231905Y-94924571D01*
X140136667Y-94972190D01*
X139755714Y-94972190D01*
X140660476Y-94448381D02*
X141279524Y-94448381D01*
X140946190Y-94829333D01*
X141089048Y-94829333D01*
X141184286Y-94876952D01*
X141231905Y-94924571D01*
X141279524Y-95019810D01*
X141279524Y-95257905D01*
X141231905Y-95353143D01*
X141184286Y-95400762D01*
X141089048Y-95448381D01*
X140803333Y-95448381D01*
X140708095Y-95400762D01*
X140660476Y-95353143D01*
X142184286Y-94448381D02*
X141708095Y-94448381D01*
X141660476Y-94924571D01*
X141708095Y-94876952D01*
X141803333Y-94829333D01*
X142041429Y-94829333D01*
X142136667Y-94876952D01*
X142184286Y-94924571D01*
X142231905Y-95019810D01*
X142231905Y-95257905D01*
X142184286Y-95353143D01*
X142136667Y-95400762D01*
X142041429Y-95448381D01*
X141803333Y-95448381D01*
X141708095Y-95400762D01*
X141660476Y-95353143D01*
X140327143Y-97734381D02*
X139993809Y-97258190D01*
X139755714Y-97734381D02*
X139755714Y-96734381D01*
X140136667Y-96734381D01*
X140231905Y-96782000D01*
X140279524Y-96829619D01*
X140327143Y-96924857D01*
X140327143Y-97067714D01*
X140279524Y-97162952D01*
X140231905Y-97210571D01*
X140136667Y-97258190D01*
X139755714Y-97258190D01*
X140660476Y-96734381D02*
X141279524Y-96734381D01*
X140946190Y-97115333D01*
X141089048Y-97115333D01*
X141184286Y-97162952D01*
X141231905Y-97210571D01*
X141279524Y-97305810D01*
X141279524Y-97543905D01*
X141231905Y-97639143D01*
X141184286Y-97686762D01*
X141089048Y-97734381D01*
X140803333Y-97734381D01*
X140708095Y-97686762D01*
X140660476Y-97639143D01*
X142136667Y-96734381D02*
X141946190Y-96734381D01*
X141850952Y-96782000D01*
X141803333Y-96829619D01*
X141708095Y-96972476D01*
X141660476Y-97162952D01*
X141660476Y-97543905D01*
X141708095Y-97639143D01*
X141755714Y-97686762D01*
X141850952Y-97734381D01*
X142041429Y-97734381D01*
X142136667Y-97686762D01*
X142184286Y-97639143D01*
X142231905Y-97543905D01*
X142231905Y-97305810D01*
X142184286Y-97210571D01*
X142136667Y-97162952D01*
X142041429Y-97115333D01*
X141850952Y-97115333D01*
X141755714Y-97162952D01*
X141708095Y-97210571D01*
X141660476Y-97305810D01*
X180205143Y-72334381D02*
X179871809Y-71858190D01*
X179633714Y-72334381D02*
X179633714Y-71334381D01*
X180014667Y-71334381D01*
X180109905Y-71382000D01*
X180157524Y-71429619D01*
X180205143Y-71524857D01*
X180205143Y-71667714D01*
X180157524Y-71762952D01*
X180109905Y-71810571D01*
X180014667Y-71858190D01*
X179633714Y-71858190D01*
X180538476Y-71334381D02*
X181157524Y-71334381D01*
X180824190Y-71715333D01*
X180967048Y-71715333D01*
X181062286Y-71762952D01*
X181109905Y-71810571D01*
X181157524Y-71905810D01*
X181157524Y-72143905D01*
X181109905Y-72239143D01*
X181062286Y-72286762D01*
X180967048Y-72334381D01*
X180681333Y-72334381D01*
X180586095Y-72286762D01*
X180538476Y-72239143D01*
X181728952Y-71762952D02*
X181633714Y-71715333D01*
X181586095Y-71667714D01*
X181538476Y-71572476D01*
X181538476Y-71524857D01*
X181586095Y-71429619D01*
X181633714Y-71382000D01*
X181728952Y-71334381D01*
X181919429Y-71334381D01*
X182014667Y-71382000D01*
X182062286Y-71429619D01*
X182109905Y-71524857D01*
X182109905Y-71572476D01*
X182062286Y-71667714D01*
X182014667Y-71715333D01*
X181919429Y-71762952D01*
X181728952Y-71762952D01*
X181633714Y-71810571D01*
X181586095Y-71858190D01*
X181538476Y-71953429D01*
X181538476Y-72143905D01*
X181586095Y-72239143D01*
X181633714Y-72286762D01*
X181728952Y-72334381D01*
X181919429Y-72334381D01*
X182014667Y-72286762D01*
X182062286Y-72239143D01*
X182109905Y-72143905D01*
X182109905Y-71953429D01*
X182062286Y-71858190D01*
X182014667Y-71810571D01*
X181919429Y-71762952D01*
X179951143Y-74620381D02*
X179617809Y-74144190D01*
X179379714Y-74620381D02*
X179379714Y-73620381D01*
X179760667Y-73620381D01*
X179855905Y-73668000D01*
X179903524Y-73715619D01*
X179951143Y-73810857D01*
X179951143Y-73953714D01*
X179903524Y-74048952D01*
X179855905Y-74096571D01*
X179760667Y-74144190D01*
X179379714Y-74144190D01*
X180808286Y-73953714D02*
X180808286Y-74620381D01*
X180570190Y-73572762D02*
X180332095Y-74287048D01*
X180951143Y-74287048D01*
X181522571Y-73620381D02*
X181617810Y-73620381D01*
X181713048Y-73668000D01*
X181760667Y-73715619D01*
X181808286Y-73810857D01*
X181855905Y-74001333D01*
X181855905Y-74239429D01*
X181808286Y-74429905D01*
X181760667Y-74525143D01*
X181713048Y-74572762D01*
X181617810Y-74620381D01*
X181522571Y-74620381D01*
X181427333Y-74572762D01*
X181379714Y-74525143D01*
X181332095Y-74429905D01*
X181284476Y-74239429D01*
X181284476Y-74001333D01*
X181332095Y-73810857D01*
X181379714Y-73715619D01*
X181427333Y-73668000D01*
X181522571Y-73620381D01*
X180205143Y-76906381D02*
X179871809Y-76430190D01*
X179633714Y-76906381D02*
X179633714Y-75906381D01*
X180014667Y-75906381D01*
X180109905Y-75954000D01*
X180157524Y-76001619D01*
X180205143Y-76096857D01*
X180205143Y-76239714D01*
X180157524Y-76334952D01*
X180109905Y-76382571D01*
X180014667Y-76430190D01*
X179633714Y-76430190D01*
X181062286Y-76239714D02*
X181062286Y-76906381D01*
X180824190Y-75858762D02*
X180586095Y-76573048D01*
X181205143Y-76573048D01*
X181538476Y-76001619D02*
X181586095Y-75954000D01*
X181681333Y-75906381D01*
X181919429Y-75906381D01*
X182014667Y-75954000D01*
X182062286Y-76001619D01*
X182109905Y-76096857D01*
X182109905Y-76192095D01*
X182062286Y-76334952D01*
X181490857Y-76906381D01*
X182109905Y-76906381D01*
X159512095Y-80224381D02*
X159512095Y-81033905D01*
X159559714Y-81129143D01*
X159607333Y-81176762D01*
X159702571Y-81224381D01*
X159893048Y-81224381D01*
X159988286Y-81176762D01*
X160035905Y-81129143D01*
X160083524Y-81033905D01*
X160083524Y-80224381D01*
X160512095Y-80319619D02*
X160559714Y-80272000D01*
X160654952Y-80224381D01*
X160893048Y-80224381D01*
X160988286Y-80272000D01*
X161035905Y-80319619D01*
X161083524Y-80414857D01*
X161083524Y-80510095D01*
X161035905Y-80652952D01*
X160464476Y-81224381D01*
X161083524Y-81224381D01*
X120670381Y-99059905D02*
X121479905Y-99059905D01*
X121575143Y-99012286D01*
X121622762Y-98964667D01*
X121670381Y-98869429D01*
X121670381Y-98678952D01*
X121622762Y-98583714D01*
X121575143Y-98536095D01*
X121479905Y-98488476D01*
X120670381Y-98488476D01*
X120670381Y-98107524D02*
X120670381Y-97488476D01*
X121051333Y-97821810D01*
X121051333Y-97678952D01*
X121098952Y-97583714D01*
X121146571Y-97536095D01*
X121241810Y-97488476D01*
X121479905Y-97488476D01*
X121575143Y-97536095D01*
X121622762Y-97583714D01*
X121670381Y-97678952D01*
X121670381Y-97964667D01*
X121622762Y-98059905D01*
X121575143Y-98107524D01*
X113946381Y-82168905D02*
X114755905Y-82168905D01*
X114851143Y-82121286D01*
X114898762Y-82073667D01*
X114946381Y-81978429D01*
X114946381Y-81787952D01*
X114898762Y-81692714D01*
X114851143Y-81645095D01*
X114755905Y-81597476D01*
X113946381Y-81597476D01*
X114279714Y-80692714D02*
X114946381Y-80692714D01*
X113898762Y-80930810D02*
X114613048Y-81168905D01*
X114613048Y-80549857D01*
X108585095Y-100036381D02*
X108585095Y-100845905D01*
X108632714Y-100941143D01*
X108680333Y-100988762D01*
X108775571Y-101036381D01*
X108966048Y-101036381D01*
X109061286Y-100988762D01*
X109108905Y-100941143D01*
X109156524Y-100845905D01*
X109156524Y-100036381D01*
X110108905Y-100036381D02*
X109632714Y-100036381D01*
X109585095Y-100512571D01*
X109632714Y-100464952D01*
X109727952Y-100417333D01*
X109966048Y-100417333D01*
X110061286Y-100464952D01*
X110108905Y-100512571D01*
X110156524Y-100607810D01*
X110156524Y-100845905D01*
X110108905Y-100941143D01*
X110061286Y-100988762D01*
X109966048Y-101036381D01*
X109727952Y-101036381D01*
X109632714Y-100988762D01*
X109585095Y-100941143D01*
X120610381Y-74167905D02*
X121419905Y-74167905D01*
X121515143Y-74120286D01*
X121562762Y-74072667D01*
X121610381Y-73977429D01*
X121610381Y-73786952D01*
X121562762Y-73691714D01*
X121515143Y-73644095D01*
X121419905Y-73596476D01*
X120610381Y-73596476D01*
X121038952Y-72977429D02*
X120991333Y-73072667D01*
X120943714Y-73120286D01*
X120848476Y-73167905D01*
X120800857Y-73167905D01*
X120705619Y-73120286D01*
X120658000Y-73072667D01*
X120610381Y-72977429D01*
X120610381Y-72786952D01*
X120658000Y-72691714D01*
X120705619Y-72644095D01*
X120800857Y-72596476D01*
X120848476Y-72596476D01*
X120943714Y-72644095D01*
X120991333Y-72691714D01*
X121038952Y-72786952D01*
X121038952Y-72977429D01*
X121086571Y-73072667D01*
X121134190Y-73120286D01*
X121229429Y-73167905D01*
X121419905Y-73167905D01*
X121515143Y-73120286D01*
X121562762Y-73072667D01*
X121610381Y-72977429D01*
X121610381Y-72786952D01*
X121562762Y-72691714D01*
X121515143Y-72644095D01*
X121419905Y-72596476D01*
X121229429Y-72596476D01*
X121134190Y-72644095D01*
X121086571Y-72691714D01*
X121038952Y-72786952D01*
X116967095Y-63206381D02*
X116967095Y-64015905D01*
X117014714Y-64111143D01*
X117062333Y-64158762D01*
X117157571Y-64206381D01*
X117348048Y-64206381D01*
X117443286Y-64158762D01*
X117490905Y-64111143D01*
X117538524Y-64015905D01*
X117538524Y-63206381D01*
X118062333Y-64206381D02*
X118252809Y-64206381D01*
X118348048Y-64158762D01*
X118395667Y-64111143D01*
X118490905Y-63968286D01*
X118538524Y-63777810D01*
X118538524Y-63396857D01*
X118490905Y-63301619D01*
X118443286Y-63254000D01*
X118348048Y-63206381D01*
X118157571Y-63206381D01*
X118062333Y-63254000D01*
X118014714Y-63301619D01*
X117967095Y-63396857D01*
X117967095Y-63634952D01*
X118014714Y-63730190D01*
X118062333Y-63777810D01*
X118157571Y-63825429D01*
X118348048Y-63825429D01*
X118443286Y-63777810D01*
X118490905Y-63730190D01*
X118538524Y-63634952D01*
X169299476Y-75398381D02*
X169299476Y-76207905D01*
X169347095Y-76303143D01*
X169394714Y-76350762D01*
X169489952Y-76398381D01*
X169680429Y-76398381D01*
X169775667Y-76350762D01*
X169823286Y-76303143D01*
X169870905Y-76207905D01*
X169870905Y-75398381D01*
X170870905Y-76398381D02*
X170299476Y-76398381D01*
X170585190Y-76398381D02*
X170585190Y-75398381D01*
X170489952Y-75541238D01*
X170394714Y-75636476D01*
X170299476Y-75684095D01*
X171823286Y-76398381D02*
X171251857Y-76398381D01*
X171537571Y-76398381D02*
X171537571Y-75398381D01*
X171442333Y-75541238D01*
X171347095Y-75636476D01*
X171251857Y-75684095D01*
X122515334Y-58364381D02*
X122039143Y-58364381D01*
X122039143Y-57364381D01*
X123372477Y-58364381D02*
X122801048Y-58364381D01*
X123086762Y-58364381D02*
X123086762Y-57364381D01*
X122991524Y-57507238D01*
X122896286Y-57602476D01*
X122801048Y-57650095D01*
X155154381Y-95170524D02*
X156154381Y-94503857D01*
X155154381Y-94503857D02*
X156154381Y-95170524D01*
X156154381Y-93599095D02*
X156154381Y-94170524D01*
X156154381Y-93884810D02*
X155154381Y-93884810D01*
X155297238Y-93980048D01*
X155392476Y-94075286D01*
X155440095Y-94170524D01*
X111651667Y-115563571D02*
X111318333Y-115563571D01*
X111318333Y-116087381D02*
X111318333Y-115087381D01*
X111794524Y-115087381D01*
X112699286Y-116087381D02*
X112127857Y-116087381D01*
X112413571Y-116087381D02*
X112413571Y-115087381D01*
X112318333Y-115230238D01*
X112223095Y-115325476D01*
X112127857Y-115373095D01*
X102743095Y-112593381D02*
X102743095Y-111593381D01*
X102743095Y-112069571D02*
X103314524Y-112069571D01*
X103314524Y-112593381D02*
X103314524Y-111593381D01*
X104314524Y-112593381D02*
X103743095Y-112593381D01*
X104028809Y-112593381D02*
X104028809Y-111593381D01*
X103933571Y-111736238D01*
X103838333Y-111831476D01*
X103743095Y-111879095D01*
X102743095Y-59967381D02*
X102743095Y-58967381D01*
X102743095Y-59443571D02*
X103314524Y-59443571D01*
X103314524Y-59967381D02*
X103314524Y-58967381D01*
X103743095Y-59062619D02*
X103790714Y-59015000D01*
X103885952Y-58967381D01*
X104124048Y-58967381D01*
X104219286Y-59015000D01*
X104266905Y-59062619D01*
X104314524Y-59157857D01*
X104314524Y-59253095D01*
X104266905Y-59395952D01*
X103695476Y-59967381D01*
X104314524Y-59967381D01*
X181483095Y-59967381D02*
X181483095Y-58967381D01*
X181483095Y-59443571D02*
X182054524Y-59443571D01*
X182054524Y-59967381D02*
X182054524Y-58967381D01*
X182435476Y-58967381D02*
X183054524Y-58967381D01*
X182721190Y-59348333D01*
X182864048Y-59348333D01*
X182959286Y-59395952D01*
X183006905Y-59443571D01*
X183054524Y-59538810D01*
X183054524Y-59776905D01*
X183006905Y-59872143D01*
X182959286Y-59919762D01*
X182864048Y-59967381D01*
X182578333Y-59967381D01*
X182483095Y-59919762D01*
X182435476Y-59872143D01*
X181483095Y-112593381D02*
X181483095Y-111593381D01*
X181483095Y-112069571D02*
X182054524Y-112069571D01*
X182054524Y-112593381D02*
X182054524Y-111593381D01*
X182959286Y-111926714D02*
X182959286Y-112593381D01*
X182721190Y-111545762D02*
X182483095Y-112260048D01*
X183102143Y-112260048D01*
X163861905Y-60158381D02*
X163861905Y-60967905D01*
X163909524Y-61063143D01*
X163957143Y-61110762D01*
X164052381Y-61158381D01*
X164242858Y-61158381D01*
X164338096Y-61110762D01*
X164385715Y-61063143D01*
X164433334Y-60967905D01*
X164433334Y-60158381D01*
X165433334Y-61158381D02*
X164861905Y-61158381D01*
X165147619Y-61158381D02*
X165147619Y-60158381D01*
X165052381Y-60301238D01*
X164957143Y-60396476D01*
X164861905Y-60444095D01*
X165814286Y-60253619D02*
X165861905Y-60206000D01*
X165957143Y-60158381D01*
X166195239Y-60158381D01*
X166290477Y-60206000D01*
X166338096Y-60253619D01*
X166385715Y-60348857D01*
X166385715Y-60444095D01*
X166338096Y-60586952D01*
X165766667Y-61158381D01*
X166385715Y-61158381D01*
X106116381Y-86844095D02*
X105116381Y-86844095D01*
X105116381Y-86463142D01*
X105164000Y-86367904D01*
X105211619Y-86320285D01*
X105306857Y-86272666D01*
X105449714Y-86272666D01*
X105544952Y-86320285D01*
X105592571Y-86367904D01*
X105640190Y-86463142D01*
X105640190Y-86844095D01*
X106116381Y-85320285D02*
X106116381Y-85891714D01*
X106116381Y-85606000D02*
X105116381Y-85606000D01*
X105259238Y-85701238D01*
X105354476Y-85796476D01*
X105402095Y-85891714D01*
X140565239Y-64698571D02*
X140708096Y-64746190D01*
X140755715Y-64793810D01*
X140803334Y-64889048D01*
X140803334Y-65031905D01*
X140755715Y-65127143D01*
X140708096Y-65174762D01*
X140612858Y-65222381D01*
X140231905Y-65222381D01*
X140231905Y-64222381D01*
X140565239Y-64222381D01*
X140660477Y-64270000D01*
X140708096Y-64317619D01*
X140755715Y-64412857D01*
X140755715Y-64508095D01*
X140708096Y-64603333D01*
X140660477Y-64650952D01*
X140565239Y-64698571D01*
X140231905Y-64698571D01*
X141755715Y-65222381D02*
X141184286Y-65222381D01*
X141470000Y-65222381D02*
X141470000Y-64222381D01*
X141374762Y-64365238D01*
X141279524Y-64460476D01*
X141184286Y-64508095D01*
X155551239Y-67492571D02*
X155694096Y-67540190D01*
X155741715Y-67587810D01*
X155789334Y-67683048D01*
X155789334Y-67825905D01*
X155741715Y-67921143D01*
X155694096Y-67968762D01*
X155598858Y-68016381D01*
X155217905Y-68016381D01*
X155217905Y-67016381D01*
X155551239Y-67016381D01*
X155646477Y-67064000D01*
X155694096Y-67111619D01*
X155741715Y-67206857D01*
X155741715Y-67302095D01*
X155694096Y-67397333D01*
X155646477Y-67444952D01*
X155551239Y-67492571D01*
X155217905Y-67492571D01*
X156170286Y-67111619D02*
X156217905Y-67064000D01*
X156313143Y-67016381D01*
X156551239Y-67016381D01*
X156646477Y-67064000D01*
X156694096Y-67111619D01*
X156741715Y-67206857D01*
X156741715Y-67302095D01*
X156694096Y-67444952D01*
X156122667Y-68016381D01*
X156741715Y-68016381D01*
X128976381Y-96750095D02*
X127976381Y-96750095D01*
X127976381Y-96512000D01*
X128024000Y-96369142D01*
X128119238Y-96273904D01*
X128214476Y-96226285D01*
X128404952Y-96178666D01*
X128547810Y-96178666D01*
X128738286Y-96226285D01*
X128833524Y-96273904D01*
X128928762Y-96369142D01*
X128976381Y-96512000D01*
X128976381Y-96750095D01*
X127976381Y-95321523D02*
X127976381Y-95512000D01*
X128024000Y-95607238D01*
X128071619Y-95654857D01*
X128214476Y-95750095D01*
X128404952Y-95797714D01*
X128785905Y-95797714D01*
X128881143Y-95750095D01*
X128928762Y-95702476D01*
X128976381Y-95607238D01*
X128976381Y-95416761D01*
X128928762Y-95321523D01*
X128881143Y-95273904D01*
X128785905Y-95226285D01*
X128547810Y-95226285D01*
X128452571Y-95273904D01*
X128404952Y-95321523D01*
X128357333Y-95416761D01*
X128357333Y-95607238D01*
X128404952Y-95702476D01*
X128452571Y-95750095D01*
X128547810Y-95797714D01*
X120832667Y-109148571D02*
X120499333Y-109148571D01*
X120499333Y-109672381D02*
X120499333Y-108672381D01*
X120975524Y-108672381D01*
X121927905Y-109672381D02*
X121594571Y-109196190D01*
X121356476Y-109672381D02*
X121356476Y-108672381D01*
X121737429Y-108672381D01*
X121832667Y-108720000D01*
X121880286Y-108767619D01*
X121927905Y-108862857D01*
X121927905Y-109005714D01*
X121880286Y-109100952D01*
X121832667Y-109148571D01*
X121737429Y-109196190D01*
X121356476Y-109196190D01*
X122880286Y-109672381D02*
X122308857Y-109672381D01*
X122594571Y-109672381D02*
X122594571Y-108672381D01*
X122499333Y-108815238D01*
X122404095Y-108910476D01*
X122308857Y-108958095D01*
X144216381Y-108942095D02*
X143216381Y-108942095D01*
X143216381Y-108561142D01*
X143264000Y-108465904D01*
X143311619Y-108418285D01*
X143406857Y-108370666D01*
X143549714Y-108370666D01*
X143644952Y-108418285D01*
X143692571Y-108465904D01*
X143740190Y-108561142D01*
X143740190Y-108942095D01*
X143311619Y-107989714D02*
X143264000Y-107942095D01*
X143216381Y-107846857D01*
X143216381Y-107608761D01*
X143264000Y-107513523D01*
X143311619Y-107465904D01*
X143406857Y-107418285D01*
X143502095Y-107418285D01*
X143644952Y-107465904D01*
X144216381Y-108037333D01*
X144216381Y-107418285D01*
X121499334Y-87320381D02*
X121166000Y-86844190D01*
X120927905Y-87320381D02*
X120927905Y-86320381D01*
X121308858Y-86320381D01*
X121404096Y-86368000D01*
X121451715Y-86415619D01*
X121499334Y-86510857D01*
X121499334Y-86653714D01*
X121451715Y-86748952D01*
X121404096Y-86796571D01*
X121308858Y-86844190D01*
X120927905Y-86844190D01*
X121880286Y-86415619D02*
X121927905Y-86368000D01*
X122023143Y-86320381D01*
X122261239Y-86320381D01*
X122356477Y-86368000D01*
X122404096Y-86415619D01*
X122451715Y-86510857D01*
X122451715Y-86606095D01*
X122404096Y-86748952D01*
X121832667Y-87320381D01*
X122451715Y-87320381D01*
X144216381Y-70619857D02*
X143740190Y-70953191D01*
X144216381Y-71191286D02*
X143216381Y-71191286D01*
X143216381Y-70810333D01*
X143264000Y-70715095D01*
X143311619Y-70667476D01*
X143406857Y-70619857D01*
X143549714Y-70619857D01*
X143644952Y-70667476D01*
X143692571Y-70715095D01*
X143740190Y-70810333D01*
X143740190Y-71191286D01*
X143311619Y-70238905D02*
X143264000Y-70191286D01*
X143216381Y-70096048D01*
X143216381Y-69857952D01*
X143264000Y-69762714D01*
X143311619Y-69715095D01*
X143406857Y-69667476D01*
X143502095Y-69667476D01*
X143644952Y-69715095D01*
X144216381Y-70286524D01*
X144216381Y-69667476D01*
X144216381Y-68715095D02*
X144216381Y-69286524D01*
X144216381Y-69000810D02*
X143216381Y-69000810D01*
X143359238Y-69096048D01*
X143454476Y-69191286D01*
X143502095Y-69286524D01*
X135755143Y-83324381D02*
X135421809Y-82848190D01*
X135183714Y-83324381D02*
X135183714Y-82324381D01*
X135564667Y-82324381D01*
X135659905Y-82372000D01*
X135707524Y-82419619D01*
X135755143Y-82514857D01*
X135755143Y-82657714D01*
X135707524Y-82752952D01*
X135659905Y-82800571D01*
X135564667Y-82848190D01*
X135183714Y-82848190D01*
X136136095Y-82419619D02*
X136183714Y-82372000D01*
X136278952Y-82324381D01*
X136517048Y-82324381D01*
X136612286Y-82372000D01*
X136659905Y-82419619D01*
X136707524Y-82514857D01*
X136707524Y-82610095D01*
X136659905Y-82752952D01*
X136088476Y-83324381D01*
X136707524Y-83324381D01*
X137088476Y-82419619D02*
X137136095Y-82372000D01*
X137231333Y-82324381D01*
X137469429Y-82324381D01*
X137564667Y-82372000D01*
X137612286Y-82419619D01*
X137659905Y-82514857D01*
X137659905Y-82610095D01*
X137612286Y-82752952D01*
X137040857Y-83324381D01*
X137659905Y-83324381D01*
X128146381Y-79890857D02*
X127670190Y-80224191D01*
X128146381Y-80462286D02*
X127146381Y-80462286D01*
X127146381Y-80081333D01*
X127194000Y-79986095D01*
X127241619Y-79938476D01*
X127336857Y-79890857D01*
X127479714Y-79890857D01*
X127574952Y-79938476D01*
X127622571Y-79986095D01*
X127670190Y-80081333D01*
X127670190Y-80462286D01*
X127146381Y-79557524D02*
X127146381Y-78938476D01*
X127527333Y-79271810D01*
X127527333Y-79128952D01*
X127574952Y-79033714D01*
X127622571Y-78986095D01*
X127717810Y-78938476D01*
X127955905Y-78938476D01*
X128051143Y-78986095D01*
X128098762Y-79033714D01*
X128146381Y-79128952D01*
X128146381Y-79414667D01*
X128098762Y-79509905D01*
X128051143Y-79557524D01*
X127146381Y-78605143D02*
X127146381Y-77938476D01*
X128146381Y-78367048D01*
X148856381Y-79810857D02*
X148380190Y-80144191D01*
X148856381Y-80382286D02*
X147856381Y-80382286D01*
X147856381Y-80001333D01*
X147904000Y-79906095D01*
X147951619Y-79858476D01*
X148046857Y-79810857D01*
X148189714Y-79810857D01*
X148284952Y-79858476D01*
X148332571Y-79906095D01*
X148380190Y-80001333D01*
X148380190Y-80382286D01*
X147856381Y-79477524D02*
X147856381Y-78858476D01*
X148237333Y-79191810D01*
X148237333Y-79048952D01*
X148284952Y-78953714D01*
X148332571Y-78906095D01*
X148427810Y-78858476D01*
X148665905Y-78858476D01*
X148761143Y-78906095D01*
X148808762Y-78953714D01*
X148856381Y-79048952D01*
X148856381Y-79334667D01*
X148808762Y-79429905D01*
X148761143Y-79477524D01*
X148856381Y-78382286D02*
X148856381Y-78191810D01*
X148808762Y-78096571D01*
X148761143Y-78048952D01*
X148618286Y-77953714D01*
X148427810Y-77906095D01*
X148046857Y-77906095D01*
X147951619Y-77953714D01*
X147904000Y-78001333D01*
X147856381Y-78096571D01*
X147856381Y-78287048D01*
X147904000Y-78382286D01*
X147951619Y-78429905D01*
X148046857Y-78477524D01*
X148284952Y-78477524D01*
X148380190Y-78429905D01*
X148427810Y-78382286D01*
X148475429Y-78287048D01*
X148475429Y-78096571D01*
X148427810Y-78001333D01*
X148380190Y-77953714D01*
X148284952Y-77906095D01*
X142438381Y-81033857D02*
X141962190Y-81367191D01*
X142438381Y-81605286D02*
X141438381Y-81605286D01*
X141438381Y-81224333D01*
X141486000Y-81129095D01*
X141533619Y-81081476D01*
X141628857Y-81033857D01*
X141771714Y-81033857D01*
X141866952Y-81081476D01*
X141914571Y-81129095D01*
X141962190Y-81224333D01*
X141962190Y-81605286D01*
X141771714Y-80176714D02*
X142438381Y-80176714D01*
X141390762Y-80414810D02*
X142105048Y-80652905D01*
X142105048Y-80033857D01*
X142438381Y-79129095D02*
X142438381Y-79700524D01*
X142438381Y-79414810D02*
X141438381Y-79414810D01*
X141581238Y-79510048D01*
X141676476Y-79605286D01*
X141724095Y-79700524D01*
X128992381Y-109219905D02*
X129801905Y-109219905D01*
X129897143Y-109172286D01*
X129944762Y-109124667D01*
X129992381Y-109029429D01*
X129992381Y-108838952D01*
X129944762Y-108743714D01*
X129897143Y-108696095D01*
X129801905Y-108648476D01*
X128992381Y-108648476D01*
X129992381Y-107648476D02*
X129992381Y-108219905D01*
X129992381Y-107934191D02*
X128992381Y-107934191D01*
X129135238Y-108029429D01*
X129230476Y-108124667D01*
X129278095Y-108219905D01*
X135773095Y-69391381D02*
X135773095Y-70200905D01*
X135820714Y-70296143D01*
X135868333Y-70343762D01*
X135963571Y-70391381D01*
X136154048Y-70391381D01*
X136249286Y-70343762D01*
X136296905Y-70296143D01*
X136344524Y-70200905D01*
X136344524Y-69391381D01*
X137249286Y-69391381D02*
X137058809Y-69391381D01*
X136963571Y-69439000D01*
X136915952Y-69486619D01*
X136820714Y-69629476D01*
X136773095Y-69819952D01*
X136773095Y-70200905D01*
X136820714Y-70296143D01*
X136868333Y-70343762D01*
X136963571Y-70391381D01*
X137154048Y-70391381D01*
X137249286Y-70343762D01*
X137296905Y-70296143D01*
X137344524Y-70200905D01*
X137344524Y-69962810D01*
X137296905Y-69867571D01*
X137249286Y-69819952D01*
X137154048Y-69772333D01*
X136963571Y-69772333D01*
X136868333Y-69819952D01*
X136820714Y-69867571D01*
X136773095Y-69962810D01*
X154940095Y-69937381D02*
X154940095Y-70746905D01*
X154987714Y-70842143D01*
X155035333Y-70889762D01*
X155130571Y-70937381D01*
X155321048Y-70937381D01*
X155416286Y-70889762D01*
X155463905Y-70842143D01*
X155511524Y-70746905D01*
X155511524Y-69937381D01*
X155892476Y-69937381D02*
X156559143Y-69937381D01*
X156130571Y-70937381D01*
X130421143Y-87066381D02*
X130087809Y-86590190D01*
X129849714Y-87066381D02*
X129849714Y-86066381D01*
X130230667Y-86066381D01*
X130325905Y-86114000D01*
X130373524Y-86161619D01*
X130421143Y-86256857D01*
X130421143Y-86399714D01*
X130373524Y-86494952D01*
X130325905Y-86542571D01*
X130230667Y-86590190D01*
X129849714Y-86590190D01*
X131278286Y-86399714D02*
X131278286Y-87066381D01*
X131040190Y-86018762D02*
X130802095Y-86733048D01*
X131421143Y-86733048D01*
X131706857Y-86066381D02*
X132325905Y-86066381D01*
X131992571Y-86447333D01*
X132135429Y-86447333D01*
X132230667Y-86494952D01*
X132278286Y-86542571D01*
X132325905Y-86637810D01*
X132325905Y-86875905D01*
X132278286Y-86971143D01*
X132230667Y-87018762D01*
X132135429Y-87066381D01*
X131849714Y-87066381D01*
X131754476Y-87018762D01*
X131706857Y-86971143D01*
X144391143Y-87320381D02*
X144057809Y-86844190D01*
X143819714Y-87320381D02*
X143819714Y-86320381D01*
X144200667Y-86320381D01*
X144295905Y-86368000D01*
X144343524Y-86415619D01*
X144391143Y-86510857D01*
X144391143Y-86653714D01*
X144343524Y-86748952D01*
X144295905Y-86796571D01*
X144200667Y-86844190D01*
X143819714Y-86844190D01*
X145248286Y-86653714D02*
X145248286Y-87320381D01*
X145010190Y-86272762D02*
X144772095Y-86987048D01*
X145391143Y-86987048D01*
X146200667Y-86653714D02*
X146200667Y-87320381D01*
X145962571Y-86272762D02*
X145724476Y-86987048D01*
X146343524Y-86987048D01*
X148847381Y-84081857D02*
X148371190Y-84415191D01*
X148847381Y-84653286D02*
X147847381Y-84653286D01*
X147847381Y-84272333D01*
X147895000Y-84177095D01*
X147942619Y-84129476D01*
X148037857Y-84081857D01*
X148180714Y-84081857D01*
X148275952Y-84129476D01*
X148323571Y-84177095D01*
X148371190Y-84272333D01*
X148371190Y-84653286D01*
X148180714Y-83224714D02*
X148847381Y-83224714D01*
X147799762Y-83462810D02*
X148514048Y-83700905D01*
X148514048Y-83081857D01*
X147847381Y-82224714D02*
X147847381Y-82700905D01*
X148323571Y-82748524D01*
X148275952Y-82700905D01*
X148228333Y-82605667D01*
X148228333Y-82367571D01*
X148275952Y-82272333D01*
X148323571Y-82224714D01*
X148418810Y-82177095D01*
X148656905Y-82177095D01*
X148752143Y-82224714D01*
X148799762Y-82272333D01*
X148847381Y-82367571D01*
X148847381Y-82605667D01*
X148799762Y-82700905D01*
X148752143Y-82748524D01*
X163012381Y-99575857D02*
X162536190Y-99909191D01*
X163012381Y-100147286D02*
X162012381Y-100147286D01*
X162012381Y-99766333D01*
X162060000Y-99671095D01*
X162107619Y-99623476D01*
X162202857Y-99575857D01*
X162345714Y-99575857D01*
X162440952Y-99623476D01*
X162488571Y-99671095D01*
X162536190Y-99766333D01*
X162536190Y-100147286D01*
X162345714Y-98718714D02*
X163012381Y-98718714D01*
X161964762Y-98956810D02*
X162679048Y-99194905D01*
X162679048Y-98575857D01*
X162012381Y-97766333D02*
X162012381Y-97956810D01*
X162060000Y-98052048D01*
X162107619Y-98099667D01*
X162250476Y-98194905D01*
X162440952Y-98242524D01*
X162821905Y-98242524D01*
X162917143Y-98194905D01*
X162964762Y-98147286D01*
X163012381Y-98052048D01*
X163012381Y-97861571D01*
X162964762Y-97766333D01*
X162917143Y-97718714D01*
X162821905Y-97671095D01*
X162583810Y-97671095D01*
X162488571Y-97718714D01*
X162440952Y-97766333D01*
X162393333Y-97861571D01*
X162393333Y-98052048D01*
X162440952Y-98147286D01*
X162488571Y-98194905D01*
X162583810Y-98242524D01*
M02*
