G04 #@! TF.FileFunction,Soldermask,Top*
%FSLAX46Y46*%
G04 Gerber Fmt 4.6, Leading zero omitted, Abs format (unit mm)*
G04 Created by KiCad (PCBNEW (2015-08-13 BZR 6091, Git 3774262)-product) date Mon 31 Aug 2015 09:37:37 AM EDT*
%MOMM*%
G01*
G04 APERTURE LIST*
%ADD10C,0.100000*%
%ADD11R,1.600000X1.400000*%
%ADD12C,1.500000*%
%ADD13R,1.300000X1.500000*%
%ADD14R,1.250000X1.500000*%
%ADD15R,1.500000X1.250000*%
%ADD16R,1.220000X0.910000*%
%ADD17R,1.727200X1.727200*%
%ADD18O,1.727200X1.727200*%
%ADD19R,2.000000X2.500000*%
%ADD20R,1.500000X1.300000*%
%ADD21R,1.600000X0.550000*%
%ADD22R,0.550000X1.600000*%
%ADD23R,0.450000X1.450000*%
%ADD24R,1.400000X0.300000*%
%ADD25R,3.048000X1.651000*%
%ADD26R,6.096000X6.096000*%
%ADD27R,1.450000X0.450000*%
%ADD28R,2.000000X6.000000*%
%ADD29R,1.900000X1.300000*%
%ADD30C,2.540000*%
%ADD31C,2.700000*%
%ADD32R,2.030000X0.610000*%
%ADD33C,1.700000*%
%ADD34C,1.000000*%
%ADD35C,1.501140*%
%ADD36C,2.999740*%
%ADD37R,0.450000X1.750000*%
%ADD38R,0.730000X0.300000*%
%ADD39R,0.300000X0.730000*%
%ADD40R,1.250000X1.250000*%
%ADD41C,0.800000*%
G04 APERTURE END LIST*
D10*
D11*
X167132000Y-95959000D03*
X167132000Y-98859000D03*
D12*
X115062000Y-113030000D03*
X118618000Y-113030000D03*
X116840000Y-111252000D03*
X113284000Y-111252000D03*
D13*
X140970000Y-75612000D03*
X140970000Y-78312000D03*
D11*
X131826000Y-101018000D03*
X131826000Y-98118000D03*
D13*
X138176000Y-104568000D03*
X138176000Y-107268000D03*
D14*
X156083000Y-89007000D03*
X156083000Y-86507000D03*
X151828500Y-94190500D03*
X151828500Y-96690500D03*
D15*
X171978000Y-89789000D03*
X174478000Y-89789000D03*
D14*
X159512000Y-94190500D03*
X159512000Y-96690500D03*
D15*
X117368000Y-105156000D03*
X119868000Y-105156000D03*
D14*
X122428000Y-81895000D03*
X122428000Y-79395000D03*
X125730000Y-101072000D03*
X125730000Y-98572000D03*
D15*
X127782000Y-114808000D03*
X130282000Y-114808000D03*
D14*
X135636000Y-102088000D03*
X135636000Y-99588000D03*
X112903000Y-59964000D03*
X112903000Y-62464000D03*
X105156000Y-71394000D03*
X105156000Y-73894000D03*
D15*
X109875000Y-78232000D03*
X112375000Y-78232000D03*
X121813000Y-69596000D03*
X124313000Y-69596000D03*
D14*
X110363000Y-68560000D03*
X110363000Y-66060000D03*
X126619000Y-64496000D03*
X126619000Y-61996000D03*
X138176000Y-102088000D03*
X138176000Y-99588000D03*
D15*
X138156000Y-115570000D03*
X135656000Y-115570000D03*
X171938000Y-70104000D03*
X169438000Y-70104000D03*
X174732000Y-57404000D03*
X172232000Y-57404000D03*
X166898000Y-57404000D03*
X169398000Y-57404000D03*
D16*
X132080000Y-65167000D03*
X132080000Y-68437000D03*
X147320000Y-65167000D03*
X147320000Y-68437000D03*
X124079000Y-64881000D03*
X124079000Y-61611000D03*
D17*
X172974000Y-97663000D03*
D18*
X172974000Y-95123000D03*
X175514000Y-97663000D03*
X175514000Y-95123000D03*
X178054000Y-97663000D03*
X178054000Y-95123000D03*
D19*
X116618000Y-92837000D03*
X120618000Y-92837000D03*
D20*
X172038000Y-65532000D03*
X169338000Y-65532000D03*
X172038000Y-67818000D03*
X169338000Y-67818000D03*
D13*
X132080000Y-75518000D03*
X132080000Y-72818000D03*
D20*
X174164000Y-92329000D03*
X176864000Y-92329000D03*
X171370000Y-82677000D03*
X174070000Y-82677000D03*
D13*
X168719500Y-80407500D03*
X168719500Y-77707500D03*
D20*
X168355000Y-100838000D03*
X165655000Y-100838000D03*
D13*
X112776000Y-95932000D03*
X112776000Y-98632000D03*
X110490000Y-98632000D03*
X110490000Y-95932000D03*
D20*
X120730000Y-89535000D03*
X118030000Y-89535000D03*
X115777000Y-89535000D03*
X113077000Y-89535000D03*
D13*
X115316000Y-98632000D03*
X115316000Y-95932000D03*
D20*
X120189000Y-84074000D03*
X122889000Y-84074000D03*
X117268000Y-102870000D03*
X119968000Y-102870000D03*
D13*
X120142000Y-81868000D03*
X120142000Y-79168000D03*
D20*
X110918000Y-105664000D03*
X113618000Y-105664000D03*
D13*
X129794000Y-72818000D03*
X129794000Y-75518000D03*
X146304000Y-75264000D03*
X146304000Y-72564000D03*
D20*
X153242000Y-79883000D03*
X150542000Y-79883000D03*
X156511000Y-75057000D03*
X159211000Y-75057000D03*
D13*
X140970000Y-73232000D03*
X140970000Y-70532000D03*
D20*
X156511000Y-72644000D03*
X159211000Y-72644000D03*
D13*
X132080000Y-77898000D03*
X132080000Y-80598000D03*
D20*
X119079000Y-67310000D03*
X116379000Y-67310000D03*
X124413000Y-67310000D03*
X121713000Y-67310000D03*
D13*
X112903000Y-68660000D03*
X112903000Y-65960000D03*
X110363000Y-62564000D03*
X110363000Y-59864000D03*
X138176000Y-112348000D03*
X138176000Y-109648000D03*
D20*
X138256000Y-94996000D03*
X135556000Y-94996000D03*
X138256000Y-97282000D03*
X135556000Y-97282000D03*
X178134000Y-71882000D03*
X175434000Y-71882000D03*
X175434000Y-74168000D03*
X178134000Y-74168000D03*
X175434000Y-76454000D03*
X178134000Y-76454000D03*
D21*
X160088000Y-84195000D03*
X160088000Y-84995000D03*
X160088000Y-85795000D03*
X160088000Y-86595000D03*
X160088000Y-87395000D03*
X160088000Y-88195000D03*
X160088000Y-88995000D03*
X160088000Y-89795000D03*
D22*
X161538000Y-91245000D03*
X162338000Y-91245000D03*
X163138000Y-91245000D03*
X163938000Y-91245000D03*
X164738000Y-91245000D03*
X165538000Y-91245000D03*
X166338000Y-91245000D03*
X167138000Y-91245000D03*
D21*
X168588000Y-89795000D03*
X168588000Y-88995000D03*
X168588000Y-88195000D03*
X168588000Y-87395000D03*
X168588000Y-86595000D03*
X168588000Y-85795000D03*
X168588000Y-84995000D03*
X168588000Y-84195000D03*
D22*
X167138000Y-82745000D03*
X166338000Y-82745000D03*
X165538000Y-82745000D03*
X164738000Y-82745000D03*
X163938000Y-82745000D03*
X163138000Y-82745000D03*
X162338000Y-82745000D03*
X161538000Y-82745000D03*
D23*
X119593000Y-96098000D03*
X118943000Y-96098000D03*
X118293000Y-96098000D03*
X117643000Y-96098000D03*
X117643000Y-100498000D03*
X118293000Y-100498000D03*
X118943000Y-100498000D03*
X119593000Y-100498000D03*
X116119000Y-83607000D03*
X116769000Y-83607000D03*
X117419000Y-83607000D03*
X118069000Y-83607000D03*
X118069000Y-79207000D03*
X117419000Y-79207000D03*
X116769000Y-79207000D03*
X116119000Y-79207000D03*
D24*
X114468000Y-103616000D03*
X114468000Y-103116000D03*
X114468000Y-102616000D03*
X114468000Y-102116000D03*
X114468000Y-101616000D03*
X110068000Y-101616000D03*
X110068000Y-102116000D03*
X110068000Y-102616000D03*
X110068000Y-103116000D03*
X110068000Y-103616000D03*
D25*
X110744000Y-71120000D03*
D26*
X117094000Y-73406000D03*
D25*
X110744000Y-75692000D03*
D27*
X115529000Y-63033000D03*
X115529000Y-63683000D03*
X115529000Y-64333000D03*
X115529000Y-64983000D03*
X119929000Y-64983000D03*
X119929000Y-64333000D03*
X119929000Y-63683000D03*
X119929000Y-63033000D03*
X168337571Y-72196000D03*
X168337571Y-72846000D03*
X168337571Y-73496000D03*
X168337571Y-74146000D03*
X172737571Y-74146000D03*
X172737571Y-73496000D03*
X172737571Y-72846000D03*
X172737571Y-72196000D03*
D28*
X115833000Y-57912000D03*
X120133000Y-57912000D03*
D29*
X157302000Y-91611000D03*
X157302000Y-97111000D03*
X154102000Y-91611000D03*
X154102000Y-97111000D03*
D30*
X108585000Y-114935000D03*
D31*
X103505000Y-114935000D03*
X103505000Y-56515000D03*
X182245000Y-56515000D03*
X182245000Y-114935000D03*
D32*
X168238000Y-59563000D03*
X168238000Y-60833000D03*
X168238000Y-62103000D03*
X168238000Y-63373000D03*
X173138000Y-59563000D03*
X173138000Y-60833000D03*
X173138000Y-62103000D03*
X173138000Y-63373000D03*
D33*
X108585000Y-93063000D03*
X108585000Y-89563000D03*
D34*
X135779000Y-67056000D03*
X137779000Y-67056000D03*
X150908000Y-67564000D03*
X152908000Y-67564000D03*
D11*
X128524000Y-101018000D03*
X128524000Y-98118000D03*
D13*
X124206000Y-105584000D03*
X124206000Y-108284000D03*
D35*
X140970000Y-104648000D03*
X140970000Y-107188000D03*
X140970000Y-109220000D03*
X140970000Y-111760000D03*
D36*
X143637000Y-101600000D03*
X143637000Y-115316000D03*
D19*
X115094000Y-86741000D03*
X119094000Y-86741000D03*
D13*
X143764000Y-72564000D03*
X143764000Y-75264000D03*
D20*
X137748000Y-80772000D03*
X135048000Y-80772000D03*
D13*
X129794000Y-80598000D03*
X129794000Y-77898000D03*
X146304000Y-77818000D03*
X146304000Y-80518000D03*
X143764000Y-80518000D03*
X143764000Y-77818000D03*
D37*
X126839000Y-112312000D03*
X127489000Y-112312000D03*
X128139000Y-112312000D03*
X128789000Y-112312000D03*
X129439000Y-112312000D03*
X130089000Y-112312000D03*
X130739000Y-112312000D03*
X131389000Y-112312000D03*
X132039000Y-112312000D03*
X132689000Y-112312000D03*
X133339000Y-112312000D03*
X133989000Y-112312000D03*
X134639000Y-112312000D03*
X135289000Y-112312000D03*
X135289000Y-105112000D03*
X134639000Y-105112000D03*
X133989000Y-105112000D03*
X133339000Y-105112000D03*
X132689000Y-105112000D03*
X132039000Y-105112000D03*
X131389000Y-105112000D03*
X130739000Y-105112000D03*
X130089000Y-105112000D03*
X129439000Y-105112000D03*
X128789000Y-105112000D03*
X128139000Y-105112000D03*
X127489000Y-105112000D03*
X126839000Y-105112000D03*
D38*
X134570000Y-72269000D03*
X134570000Y-72769000D03*
X134570000Y-73269000D03*
X134570000Y-73769000D03*
X134570000Y-74269000D03*
D39*
X135535000Y-75234000D03*
X136035000Y-75234000D03*
X136535000Y-75234000D03*
X137035000Y-75234000D03*
X137535000Y-75234000D03*
D38*
X138500000Y-74269000D03*
X138500000Y-73769000D03*
X138500000Y-73269000D03*
X138500000Y-72769000D03*
X138500000Y-72269000D03*
D39*
X137535000Y-71304000D03*
X137035000Y-71304000D03*
X136535000Y-71304000D03*
X136035000Y-71304000D03*
X135535000Y-71304000D03*
D40*
X137160000Y-73894000D03*
X137160000Y-72644000D03*
X135910000Y-73894000D03*
X135910000Y-72644000D03*
D38*
X150044000Y-72269000D03*
X150044000Y-72769000D03*
X150044000Y-73269000D03*
X150044000Y-73769000D03*
X150044000Y-74269000D03*
D39*
X151009000Y-75234000D03*
X151509000Y-75234000D03*
X152009000Y-75234000D03*
X152509000Y-75234000D03*
X153009000Y-75234000D03*
D38*
X153974000Y-74269000D03*
X153974000Y-73769000D03*
X153974000Y-73269000D03*
X153974000Y-72769000D03*
X153974000Y-72269000D03*
D39*
X153009000Y-71304000D03*
X152509000Y-71304000D03*
X152009000Y-71304000D03*
X151509000Y-71304000D03*
X151009000Y-71304000D03*
D40*
X152634000Y-73894000D03*
X152634000Y-72644000D03*
X151384000Y-73894000D03*
X151384000Y-72644000D03*
D41*
X131814000Y-83312000D03*
X130314000Y-83312000D03*
X145784000Y-83566000D03*
X144284000Y-83566000D03*
D13*
X150495000Y-84789000D03*
X150495000Y-82089000D03*
X164338000Y-95678000D03*
X164338000Y-98378000D03*
M02*
