G04 #@! TF.FileFunction,Soldermask,Top*
%FSLAX46Y46*%
G04 Gerber Fmt 4.6, Leading zero omitted, Abs format (unit mm)*
G04 Created by KiCad (PCBNEW (2015-08-13 BZR 6091, Git 3774262)-product) date Sun 06 Dec 2015 10:08:40 PM MST*
%MOMM*%
G01*
G04 APERTURE LIST*
%ADD10C,0.100000*%
%ADD11C,1.700000*%
%ADD12R,1.220000X0.910000*%
%ADD13R,1.250000X1.500000*%
%ADD14R,1.500000X1.250000*%
%ADD15R,1.300000X1.500000*%
%ADD16R,1.727200X1.727200*%
%ADD17O,1.727200X1.727200*%
%ADD18R,2.000000X2.500000*%
%ADD19R,1.500000X1.300000*%
%ADD20R,1.900000X1.300000*%
%ADD21C,2.540000*%
%ADD22C,3.429000*%
%ADD23C,1.501140*%
%ADD24C,2.999740*%
%ADD25R,1.600000X1.400000*%
%ADD26R,0.550000X1.600000*%
%ADD27R,1.600000X0.550000*%
%ADD28R,0.450000X1.450000*%
%ADD29R,0.300000X1.400000*%
%ADD30R,3.048000X1.651000*%
%ADD31R,6.096000X6.096000*%
%ADD32R,1.450000X0.450000*%
%ADD33R,2.030000X0.610000*%
%ADD34R,0.450000X1.750000*%
%ADD35R,0.730000X0.300000*%
%ADD36R,0.300000X0.730000*%
%ADD37R,1.250000X1.250000*%
%ADD38C,1.778000*%
%ADD39R,1.000000X1.250000*%
%ADD40R,0.558800X0.762000*%
%ADD41C,1.100000*%
%ADD42C,1.600000*%
%ADD43R,1.300000X1.300000*%
%ADD44C,1.300000*%
%ADD45O,1.600000X2.400000*%
%ADD46O,1.550000X2.400000*%
%ADD47C,1.000000*%
G04 APERTURE END LIST*
D10*
D11*
X159482000Y-73772000D03*
X174782000Y-73772000D03*
X174782000Y-62372000D03*
X159482000Y-62372000D03*
D12*
X176530000Y-80436000D03*
X176530000Y-76536000D03*
D13*
X217424000Y-81387000D03*
X217424000Y-78887000D03*
D14*
X159555500Y-85725000D03*
X157055500Y-85725000D03*
D15*
X199517000Y-75772000D03*
X199517000Y-73072000D03*
D13*
X213487000Y-98699000D03*
X213487000Y-101199000D03*
X206502000Y-100056000D03*
X206502000Y-97556000D03*
X222123000Y-98699000D03*
X222123000Y-101199000D03*
D14*
X164231000Y-109855000D03*
X166731000Y-109855000D03*
X184892000Y-49530000D03*
X182392000Y-49530000D03*
X222651000Y-64643000D03*
X225151000Y-64643000D03*
X189083000Y-102997000D03*
X186583000Y-102997000D03*
X189083000Y-116205000D03*
X186583000Y-116205000D03*
X179471000Y-116205000D03*
X181971000Y-116205000D03*
D16*
X229489000Y-92710000D03*
D17*
X226949000Y-92710000D03*
X229489000Y-90170000D03*
X226949000Y-90170000D03*
X229489000Y-87630000D03*
X226949000Y-87630000D03*
D18*
X164497000Y-95885000D03*
X168497000Y-95885000D03*
D19*
X226394000Y-57277000D03*
X223694000Y-57277000D03*
X226394000Y-54991000D03*
X223694000Y-54991000D03*
D15*
X208661000Y-100029000D03*
X208661000Y-97329000D03*
X208661000Y-94949000D03*
X208661000Y-92249000D03*
X223647000Y-87931000D03*
X223647000Y-90631000D03*
D19*
X210613000Y-81153000D03*
X213313000Y-81153000D03*
D15*
X208407000Y-86059000D03*
X208407000Y-83359000D03*
X219964000Y-81360000D03*
X219964000Y-78660000D03*
X161671000Y-99107000D03*
X161671000Y-101807000D03*
X159385000Y-101807000D03*
X159385000Y-99107000D03*
D19*
X186991000Y-61341000D03*
X189691000Y-61341000D03*
X189691000Y-59055000D03*
X186991000Y-59055000D03*
D15*
X161925000Y-107489000D03*
X161925000Y-110189000D03*
X185039000Y-54149000D03*
X185039000Y-56849000D03*
D19*
X164131000Y-107569000D03*
X166831000Y-107569000D03*
X184865000Y-51689000D03*
X182165000Y-51689000D03*
D15*
X159639000Y-110189000D03*
X159639000Y-107489000D03*
X226695000Y-71327000D03*
X226695000Y-68627000D03*
X224409000Y-68627000D03*
X224409000Y-71327000D03*
X222123000Y-68627000D03*
X222123000Y-71327000D03*
X189103000Y-113491000D03*
X189103000Y-110791000D03*
X189103000Y-105457000D03*
X189103000Y-108157000D03*
X175133000Y-101680000D03*
X175133000Y-98980000D03*
D19*
X186897000Y-98552000D03*
X184197000Y-98552000D03*
D15*
X183134000Y-75772000D03*
X183134000Y-73072000D03*
X180721000Y-73072000D03*
X180721000Y-75772000D03*
X196850000Y-73072000D03*
X196850000Y-75772000D03*
D19*
X188802000Y-79248000D03*
X186102000Y-79248000D03*
D15*
X192786000Y-73453000D03*
X192786000Y-76153000D03*
X192786000Y-71073000D03*
X192786000Y-68373000D03*
D19*
X186102000Y-81534000D03*
X188802000Y-81534000D03*
D20*
X219405000Y-95675000D03*
X219405000Y-101175000D03*
X216205000Y-95675000D03*
X216205000Y-101175000D03*
D21*
X144780000Y-116840000D03*
D22*
X148437600Y-112877600D03*
X148437600Y-54889400D03*
X209194400Y-54889400D03*
X209194400Y-112877600D03*
D11*
X158115000Y-95349000D03*
X158115000Y-91849000D03*
D15*
X174371000Y-108759000D03*
X174371000Y-111459000D03*
D23*
X192024000Y-105918000D03*
X192024000Y-108458000D03*
X192024000Y-110490000D03*
X192024000Y-113030000D03*
D24*
X194691000Y-102870000D03*
X194691000Y-116586000D03*
D18*
X179737000Y-61341000D03*
X183737000Y-61341000D03*
D19*
X205058000Y-79248000D03*
X202358000Y-79248000D03*
D15*
X210947000Y-71581000D03*
X210947000Y-68881000D03*
X208661000Y-71581000D03*
X208661000Y-68881000D03*
D19*
X205058000Y-83820000D03*
X202358000Y-83820000D03*
D14*
X159575500Y-82867500D03*
X157075500Y-82867500D03*
X213721000Y-62611000D03*
X211221000Y-62611000D03*
X223413000Y-60579000D03*
X225913000Y-60579000D03*
D13*
X171831000Y-108859000D03*
X171831000Y-111359000D03*
X184277000Y-103739000D03*
X184277000Y-101239000D03*
D25*
X222504000Y-81206000D03*
X222504000Y-78306000D03*
X177927000Y-101854000D03*
X177927000Y-98954000D03*
X181229000Y-101854000D03*
X181229000Y-98954000D03*
D19*
X188802000Y-83693000D03*
X186102000Y-83693000D03*
X202358000Y-81534000D03*
X205058000Y-81534000D03*
D26*
X212592000Y-92515000D03*
X213392000Y-92515000D03*
X214192000Y-92515000D03*
X214992000Y-92515000D03*
X215792000Y-92515000D03*
X216592000Y-92515000D03*
X217392000Y-92515000D03*
X218192000Y-92515000D03*
D27*
X219642000Y-91065000D03*
X219642000Y-90265000D03*
X219642000Y-89465000D03*
X219642000Y-88665000D03*
X219642000Y-87865000D03*
X219642000Y-87065000D03*
X219642000Y-86265000D03*
X219642000Y-85465000D03*
D26*
X218192000Y-84015000D03*
X217392000Y-84015000D03*
X216592000Y-84015000D03*
X215792000Y-84015000D03*
X214992000Y-84015000D03*
X214192000Y-84015000D03*
X213392000Y-84015000D03*
X212592000Y-84015000D03*
D27*
X211142000Y-85465000D03*
X211142000Y-86265000D03*
X211142000Y-87065000D03*
X211142000Y-87865000D03*
X211142000Y-88665000D03*
X211142000Y-89465000D03*
X211142000Y-90265000D03*
X211142000Y-91065000D03*
D28*
X167472000Y-100035000D03*
X166822000Y-100035000D03*
X166172000Y-100035000D03*
X165522000Y-100035000D03*
X165522000Y-104435000D03*
X166172000Y-104435000D03*
X166822000Y-104435000D03*
X167472000Y-104435000D03*
X180762000Y-58461000D03*
X181412000Y-58461000D03*
X182062000Y-58461000D03*
X182712000Y-58461000D03*
X182712000Y-54061000D03*
X182062000Y-54061000D03*
X181412000Y-54061000D03*
X180762000Y-54061000D03*
D29*
X156829000Y-106893000D03*
X156329000Y-106893000D03*
X155829000Y-106893000D03*
X155329000Y-106893000D03*
X154829000Y-106893000D03*
X154829000Y-111293000D03*
X155329000Y-111293000D03*
X155829000Y-111293000D03*
X156329000Y-111293000D03*
X156829000Y-111293000D03*
D30*
X162750500Y-82867500D03*
D31*
X169100500Y-85153500D03*
D30*
X162750500Y-87439500D03*
D32*
X215097000Y-65192000D03*
X215097000Y-65842000D03*
X215097000Y-66492000D03*
X215097000Y-67142000D03*
X219497000Y-67142000D03*
X219497000Y-66492000D03*
X219497000Y-65842000D03*
X219497000Y-65192000D03*
D33*
X220001000Y-60452000D03*
X220001000Y-59182000D03*
X220001000Y-57912000D03*
X220001000Y-56642000D03*
X215101000Y-60452000D03*
X215101000Y-59182000D03*
X215101000Y-57912000D03*
X215101000Y-56642000D03*
D34*
X177258000Y-113582000D03*
X177908000Y-113582000D03*
X178558000Y-113582000D03*
X179208000Y-113582000D03*
X179858000Y-113582000D03*
X180508000Y-113582000D03*
X181158000Y-113582000D03*
X181808000Y-113582000D03*
X182458000Y-113582000D03*
X183108000Y-113582000D03*
X183758000Y-113582000D03*
X184408000Y-113582000D03*
X185058000Y-113582000D03*
X185708000Y-113582000D03*
X185708000Y-106382000D03*
X185058000Y-106382000D03*
X184408000Y-106382000D03*
X183758000Y-106382000D03*
X183108000Y-106382000D03*
X182458000Y-106382000D03*
X181808000Y-106382000D03*
X181158000Y-106382000D03*
X180508000Y-106382000D03*
X179858000Y-106382000D03*
X179208000Y-106382000D03*
X178558000Y-106382000D03*
X177908000Y-106382000D03*
X177258000Y-106382000D03*
D35*
X185751000Y-71781000D03*
X185751000Y-72281000D03*
X185751000Y-72781000D03*
X185751000Y-73281000D03*
X185751000Y-73781000D03*
D36*
X186716000Y-74746000D03*
X187216000Y-74746000D03*
X187716000Y-74746000D03*
X188216000Y-74746000D03*
X188716000Y-74746000D03*
D35*
X189681000Y-73781000D03*
X189681000Y-73281000D03*
X189681000Y-72781000D03*
X189681000Y-72281000D03*
X189681000Y-71781000D03*
D36*
X188716000Y-70816000D03*
X188216000Y-70816000D03*
X187716000Y-70816000D03*
X187216000Y-70816000D03*
X186716000Y-70816000D03*
D37*
X188341000Y-73406000D03*
X188341000Y-72156000D03*
X187091000Y-73406000D03*
X187091000Y-72156000D03*
D35*
X201880000Y-71761000D03*
X201880000Y-72261000D03*
X201880000Y-72761000D03*
X201880000Y-73261000D03*
X201880000Y-73761000D03*
D36*
X202845000Y-74726000D03*
X203345000Y-74726000D03*
X203845000Y-74726000D03*
X204345000Y-74726000D03*
X204845000Y-74726000D03*
D35*
X205810000Y-73761000D03*
X205810000Y-73261000D03*
X205810000Y-72761000D03*
X205810000Y-72261000D03*
X205810000Y-71761000D03*
D36*
X204845000Y-70796000D03*
X204345000Y-70796000D03*
X203845000Y-70796000D03*
X203345000Y-70796000D03*
X202845000Y-70796000D03*
D37*
X204470000Y-73386000D03*
X204470000Y-72136000D03*
X203220000Y-73386000D03*
X203220000Y-72136000D03*
D38*
X232105200Y-101815900D03*
X232105200Y-97320100D03*
X225602800Y-101815900D03*
X225602800Y-97320100D03*
D39*
X250358000Y-96520000D03*
X248158000Y-96520000D03*
D40*
X249258000Y-97420000D03*
X249258000Y-95620000D03*
D39*
X250274000Y-99822000D03*
X248074000Y-99822000D03*
D40*
X249174000Y-100722000D03*
X249174000Y-98922000D03*
D41*
X247458000Y-117012000D03*
X247458000Y-112012000D03*
D42*
X248158000Y-108712000D03*
X251058000Y-112012000D03*
X245858000Y-108912000D03*
X251958000Y-117012000D03*
X252958000Y-114512000D03*
X242358000Y-117012000D03*
D43*
X248666000Y-103886000D03*
D44*
X246166000Y-103886000D03*
D45*
X253956000Y-90932000D03*
D46*
X252086000Y-90932000D03*
X250331000Y-90932000D03*
X248576000Y-90932000D03*
D44*
X186849000Y-67183000D03*
X188849000Y-67183000D03*
X202962000Y-67183000D03*
X204962000Y-67183000D03*
D47*
X191794000Y-81280000D03*
X193294000Y-81280000D03*
X199505000Y-85852000D03*
X198005000Y-85852000D03*
M02*
