M48
;DRILL file {KiCad (2015-08-13 BZR 6091, Git 3774262)-product} date Tue 01 Dec 2015 09:36:16 PM MST
;FORMAT={2:4/ absolute / inch / suppress leading zeros}
FMAT,2
INCH,TZ
T1C0.016
T2C0.028
T3C0.031
T4C0.035
T5C0.039
T6C0.040
T7C0.043
T8C0.047
T9C0.053
T10C0.055
T11C0.061
T12C0.091
T13C0.135
%
G90
G05
M72
T1
X60404Y-43550
X61085Y-34425
X61100Y-44600
X61400Y-42850
X62378Y-43150
X63350Y-41550
X64100Y-26750
X64150Y-22850
X64175Y-30800
X64380Y-44770
X64550Y-43850
X64600Y-39400
X64600Y-41200
X64800Y-31725
X64987Y-25963
X65850Y-40250
X65887Y-24413
X66000Y-28850
X66305Y-24647
X66337Y-28563
X66487Y-26513
X66487Y-27092
X66637Y-24663
X66839Y-26513
X66839Y-27092
X66950Y-25064
X66987Y-24663
X67850Y-41450
X67850Y-44550
X67887Y-25563
X69200Y-23650
X69387Y-25263
X69450Y-28450
X69550Y-40650
X69780Y-33680
X69900Y-20300
X70064Y-45950
X70100Y-20700
X70350Y-41150
X71550Y-44050
X72000Y-27800
X72650Y-29250
X73450Y-39550
X73550Y-30400
X73658Y-28408
X73658Y-28900
X73700Y-27350
X74000Y-30500
X74150Y-28408
X74150Y-28900
X74331Y-29900
X74650Y-22250
X79050Y-29300
X79750Y-36550
X79810Y-39390
X79950Y-30400
X80000Y-27300
X80008Y-28400
X80008Y-28892
X80350Y-30500
X80500Y-28400
X80500Y-28892
X80731Y-29943
X81150Y-30500
X81550Y-36150
X82050Y-31950
X82900Y-38250
X83000Y-39300
X83750Y-31150
X83750Y-33950
X83850Y-35650
X83850Y-37450
X84200Y-31200
X84200Y-34300
X84350Y-34950
X84750Y-27150
X84750Y-32350
X85050Y-24550
X85272Y-35845
X85450Y-28700
X85650Y-34850
X85850Y-30000
X85850Y-33950
X86750Y-24550
X86800Y-36500
X87550Y-33650
X87850Y-32750
X89100Y-28800
X89825Y-24925
X90050Y-22800
X90300Y-30100
X91300Y-31050
T2
X75509Y-32000
X76100Y-32000
X77955Y-33800
X78545Y-33800
T3
X96916Y-40900
X97900Y-40900
T4
X73563Y-26450
X74350Y-26450
X79906Y-26450
X80694Y-26450
T5
X75600Y-41700
X75600Y-42700
X75600Y-43500
X75600Y-44500
T6
X88820Y-38315
X88820Y-40085
X89350Y-34500
X89350Y-35500
X89350Y-36500
X90350Y-34500
X90350Y-35500
X90350Y-36500
X91380Y-38315
X91380Y-40085
T7
X97424Y-44099
X97424Y-46068
T8
X62250Y-36161
X62250Y-37539
T9
X95417Y-46068
X96794Y-42879
X97700Y-42800
X98842Y-44099
X99196Y-46068
X99590Y-45083
T10
X68250Y-40750
X68550Y-32050
X69450Y-43450
T11
X97865Y-35800
X98556Y-35800
X99246Y-35800
X99983Y-35800
T12
X76650Y-40500
X76650Y-45900
T13
X58440Y-21610
X58440Y-44440
X82360Y-21610
X82360Y-44440
T0
M30
