G04 #@! TF.FileFunction,Copper,L2,Bot,Signal*
%FSLAX46Y46*%
G04 Gerber Fmt 4.6, Leading zero omitted, Abs format (unit mm)*
G04 Created by KiCad (PCBNEW (2015-08-13 BZR 6091, Git 3774262)-product) date Sun 29 Nov 2015 11:34:20 PM MST*
%MOMM*%
G01*
G04 APERTURE LIST*
%ADD10C,0.100000*%
%ADD11C,0.800000*%
%ADD12R,1.727200X1.727200*%
%ADD13O,1.727200X1.727200*%
%ADD14C,3.429000*%
%ADD15C,1.700000*%
%ADD16C,1.000000*%
%ADD17C,1.501140*%
%ADD18C,2.999740*%
%ADD19C,1.778000*%
%ADD20C,1.100000*%
%ADD21C,1.600000*%
%ADD22R,1.300000X1.300000*%
%ADD23C,1.300000*%
%ADD24O,1.600000X2.400000*%
%ADD25O,1.550000X2.400000*%
%ADD26C,0.600000*%
%ADD27C,1.500000*%
%ADD28C,0.250000*%
%ADD29C,0.500000*%
%ADD30C,1.400000*%
%ADD31C,1.000000*%
%ADD32C,0.254000*%
G04 APERTURE END LIST*
D10*
D11*
X199505000Y-85852000D03*
X198005000Y-85852000D03*
D12*
X229489000Y-92710000D03*
D13*
X226949000Y-92710000D03*
X229489000Y-90170000D03*
X226949000Y-90170000D03*
X229489000Y-87630000D03*
X226949000Y-87630000D03*
D14*
X148437600Y-112877600D03*
X148437600Y-54889400D03*
X209194400Y-54889400D03*
X209194400Y-112877600D03*
D15*
X158115000Y-95349000D03*
X158115000Y-91849000D03*
D16*
X186849000Y-67183000D03*
X188849000Y-67183000D03*
X202962000Y-67183000D03*
X204962000Y-67183000D03*
D17*
X192024000Y-105918000D03*
X192024000Y-108458000D03*
X192024000Y-110490000D03*
X192024000Y-113030000D03*
D18*
X194691000Y-102870000D03*
X194691000Y-116586000D03*
D11*
X191794000Y-81280000D03*
X193294000Y-81280000D03*
D19*
X232105200Y-101815900D03*
X232105200Y-97320100D03*
X225602800Y-101815900D03*
X225602800Y-97320100D03*
D20*
X247458000Y-117012000D03*
X247458000Y-112012000D03*
D21*
X248158000Y-108712000D03*
X251058000Y-112012000D03*
X245858000Y-108912000D03*
X251958000Y-117012000D03*
X252958000Y-114512000D03*
X242358000Y-117012000D03*
D22*
X248666000Y-103886000D03*
D23*
X246166000Y-103886000D03*
D24*
X253956000Y-90932000D03*
D25*
X252086000Y-90932000D03*
X250331000Y-90932000D03*
X248576000Y-90932000D03*
D26*
X228155500Y-63309500D03*
X155956000Y-108839000D03*
X203220000Y-73386000D03*
X203220000Y-72136000D03*
X204470000Y-72136000D03*
X204470000Y-73386000D03*
X187091000Y-73406000D03*
X187091000Y-72156000D03*
X188341000Y-72156000D03*
X188341000Y-73406000D03*
X175768000Y-60071000D03*
X168876047Y-67343689D03*
X169771047Y-67343689D03*
X169771047Y-68813689D03*
X168876047Y-68813689D03*
X162814000Y-67945000D03*
X218059000Y-76200000D03*
X212979000Y-90551000D03*
X226314000Y-73152000D03*
X215265000Y-68961000D03*
X181737000Y-111887000D03*
X163525200Y-113715800D03*
X182880000Y-70612000D03*
X163957000Y-111379000D03*
X172339000Y-113157000D03*
X164084000Y-100076000D03*
X164084000Y-104648000D03*
X178689000Y-104521000D03*
X215265000Y-82169000D03*
X222377000Y-85471000D03*
X178054000Y-52578000D03*
X217043000Y-72898000D03*
X228727000Y-57912000D03*
X220345000Y-62357000D03*
X216027000Y-62357000D03*
X216592000Y-91047053D03*
X210820000Y-99822000D03*
X202717400Y-100050600D03*
X177241200Y-85547200D03*
X177963000Y-116713000D03*
X158439154Y-109601000D03*
X167259000Y-102235000D03*
X155155900Y-87439500D03*
X220472000Y-92710000D03*
X210566000Y-97155000D03*
X214249000Y-88773000D03*
D27*
X173355000Y-103505000D03*
X174117000Y-81407000D03*
D26*
X176657000Y-103251000D03*
X186563000Y-100457000D03*
X212979000Y-95123000D03*
X202565000Y-92837000D03*
X172339000Y-105283000D03*
X160909000Y-105537000D03*
X231902000Y-78867000D03*
X229362000Y-76454000D03*
X212725000Y-86233000D03*
X212725000Y-79121000D03*
X213868000Y-87122000D03*
X213868000Y-79248000D03*
X164592000Y-80581500D03*
X167352047Y-62009689D03*
X165066047Y-65946689D03*
X170053547Y-63662191D03*
X168495047Y-72550689D03*
X155194000Y-113284000D03*
X177546000Y-51562000D03*
X172432047Y-64930689D03*
X170146047Y-62644689D03*
D27*
X176403000Y-110362996D03*
D26*
X205058000Y-76054000D03*
X200787000Y-74422000D03*
X203200000Y-69342000D03*
X188802000Y-75947000D03*
X187198000Y-69469000D03*
X184531000Y-74295000D03*
X208407000Y-81153000D03*
X187960000Y-77470000D03*
X207137000Y-91821000D03*
X186817000Y-77216000D03*
X217551000Y-88519000D03*
X203073000Y-77216000D03*
X206121000Y-77470000D03*
X204089000Y-77470000D03*
X162941000Y-58039000D03*
X168415097Y-62602742D03*
X163004500Y-78232000D03*
X169257047Y-62644689D03*
X223139000Y-83185000D03*
X218059000Y-86233000D03*
X189611000Y-56515000D03*
X153425990Y-110617000D03*
X176403000Y-72263000D03*
X167640000Y-73279000D03*
X176242047Y-64168689D03*
D28*
X163957000Y-111379000D02*
X163957000Y-113284000D01*
X163957000Y-113284000D02*
X163525200Y-113715800D01*
X231521000Y-86614000D02*
X230484714Y-85577714D01*
X222377000Y-85471000D02*
X230378000Y-85471000D01*
X230378000Y-85471000D02*
X230484714Y-85577714D01*
X231521000Y-91791600D02*
X231521000Y-86614000D01*
X229489000Y-92710000D02*
X230602600Y-92710000D01*
X230602600Y-92710000D02*
X231521000Y-91791600D01*
X155841399Y-52692601D02*
X155067000Y-53467000D01*
X178054000Y-52578000D02*
X155956000Y-52578000D01*
X155956000Y-52578000D02*
X155841399Y-52692601D01*
D29*
X217043000Y-72898000D02*
X217117769Y-72823231D01*
X217117769Y-72823231D02*
X217117769Y-62357000D01*
X226949000Y-92710000D02*
X225727686Y-92710000D01*
X225727686Y-92710000D02*
X224387686Y-94050000D01*
X224387686Y-94050000D02*
X221860686Y-94050000D01*
X216027000Y-62357000D02*
X217117769Y-62357000D01*
X217117769Y-62357000D02*
X220345000Y-62357000D01*
X228727000Y-57912000D02*
X228727000Y-59690000D01*
X228727000Y-59690000D02*
X226060000Y-62357000D01*
X226060000Y-62357000D02*
X220345000Y-62357000D01*
X221860686Y-94050000D02*
X216592000Y-94050000D01*
X210820000Y-99822000D02*
X216592000Y-94050000D01*
X216592000Y-94050000D02*
X216592000Y-91047053D01*
X187731400Y-85547200D02*
X202234800Y-100050600D01*
X202234800Y-100050600D02*
X202717400Y-100050600D01*
X177241200Y-85547200D02*
X187731400Y-85547200D01*
D28*
X158439154Y-109601000D02*
X158439154Y-112465154D01*
X158439154Y-112465154D02*
X162687000Y-116713000D01*
X162687000Y-116713000D02*
X177963000Y-116713000D01*
X158739153Y-104150847D02*
X160655000Y-102235000D01*
X160655000Y-102235000D02*
X167259000Y-102235000D01*
X158439154Y-109601000D02*
X158739153Y-109301001D01*
X158739153Y-109301001D02*
X158739153Y-104150847D01*
X155067000Y-87350600D02*
X155155900Y-87439500D01*
X155067000Y-53467000D02*
X155067000Y-87350600D01*
X218238367Y-90984367D02*
X219964000Y-92710000D01*
X219964000Y-92710000D02*
X220472000Y-92710000D01*
X218238367Y-89990633D02*
X218238367Y-90984367D01*
X214805686Y-94693314D02*
X214805686Y-89990633D01*
X214805686Y-89990633D02*
X214805686Y-89329686D01*
X219410399Y-88818601D02*
X218238367Y-89990633D01*
X218238367Y-89990633D02*
X214805686Y-89990633D01*
X229489000Y-87630000D02*
X228300399Y-88818601D01*
X228300399Y-88818601D02*
X219410399Y-88818601D01*
X212643999Y-96855001D02*
X214805686Y-94693314D01*
X210566000Y-97155000D02*
X210865999Y-96855001D01*
X210865999Y-96855001D02*
X212643999Y-96855001D01*
X214805686Y-89329686D02*
X214249000Y-88773000D01*
D30*
X174117000Y-81407000D02*
X173355000Y-82169000D01*
X173355000Y-82169000D02*
X173355000Y-103505000D01*
D28*
X183769000Y-103251000D02*
X177081264Y-103251000D01*
X186563000Y-100457000D02*
X183769000Y-103251000D01*
X177081264Y-103251000D02*
X176657000Y-103251000D01*
X212554736Y-95123000D02*
X212979000Y-95123000D01*
X204851000Y-95123000D02*
X212554736Y-95123000D01*
X202565000Y-92837000D02*
X204851000Y-95123000D01*
X160909000Y-105537000D02*
X172085000Y-105537000D01*
X172085000Y-105537000D02*
X172339000Y-105283000D01*
X229362000Y-76454000D02*
X231775000Y-78867000D01*
X231775000Y-78867000D02*
X231902000Y-78867000D01*
X212725000Y-79121000D02*
X212725000Y-86233000D01*
X213868000Y-79248000D02*
X213868000Y-87122000D01*
D29*
X166405057Y-78450943D02*
X166405057Y-78768443D01*
X166405057Y-78768443D02*
X164592000Y-80581500D01*
X166405057Y-70460699D02*
X166405057Y-78450943D01*
X166405057Y-70460699D02*
X166405057Y-67902643D01*
X169753548Y-64561452D02*
X166412357Y-67902643D01*
D28*
X166412357Y-67902643D02*
X166405057Y-67902643D01*
X170053547Y-63662191D02*
X169753548Y-63962190D01*
X169753548Y-63962190D02*
X169753548Y-64561452D01*
X165066047Y-65946689D02*
X167352047Y-63660689D01*
X167352047Y-63660689D02*
X167352047Y-62009689D01*
X168495047Y-72550689D02*
X166405057Y-70460699D01*
X154051000Y-76835000D02*
X154051000Y-112800772D01*
X155194000Y-113284000D02*
X154534228Y-113284000D01*
X154534228Y-113284000D02*
X154051000Y-112800772D01*
X155378981Y-51631019D02*
X154051000Y-52959000D01*
X177546000Y-51562000D02*
X155448000Y-51562000D01*
X155448000Y-51562000D02*
X155378981Y-51631019D01*
X154051000Y-60833000D02*
X154051000Y-76835000D01*
X154051000Y-52959000D02*
X154051000Y-60833000D01*
X170146047Y-62644689D02*
X172432047Y-64930689D01*
X170146047Y-62644689D02*
X170146047Y-62658591D01*
D30*
X177463660Y-110362996D02*
X176403000Y-110362996D01*
X192024000Y-113030000D02*
X188976000Y-113030000D01*
X188976000Y-113030000D02*
X186308996Y-110362996D01*
X186308996Y-110362996D02*
X177463660Y-110362996D01*
D28*
X200787000Y-75311000D02*
X201530000Y-76054000D01*
X201530000Y-76054000D02*
X205058000Y-76054000D01*
X200787000Y-74422000D02*
X200787000Y-75311000D01*
D31*
X200914000Y-70993000D02*
X200914000Y-74295000D01*
D28*
X200914000Y-74295000D02*
X200787000Y-74422000D01*
D31*
X202565000Y-69342000D02*
X200914000Y-70993000D01*
X203200000Y-69342000D02*
X202565000Y-69342000D01*
D28*
X184531000Y-74295000D02*
X184315448Y-74510552D01*
X184315448Y-74510552D02*
X184315448Y-75095448D01*
X184315448Y-75095448D02*
X185120451Y-75900451D01*
X185120451Y-75900451D02*
X188755451Y-75900451D01*
X188755451Y-75900451D02*
X188802000Y-75947000D01*
D31*
X185674000Y-69469000D02*
X187198000Y-69469000D01*
X184531000Y-70612000D02*
X185674000Y-69469000D01*
X184531000Y-74295000D02*
X184531000Y-70612000D01*
D28*
X189160019Y-78670019D02*
X205655499Y-78670019D01*
X205655499Y-78670019D02*
X207306499Y-80321019D01*
X208407000Y-81153000D02*
X207575019Y-80321019D01*
X207575019Y-80321019D02*
X207306499Y-80321019D01*
X187960000Y-77470000D02*
X189160019Y-78670019D01*
X192023028Y-79120028D02*
X204310147Y-79120028D01*
X204310147Y-79120028D02*
X207137000Y-81946881D01*
X207137000Y-81946881D02*
X207137000Y-91821000D01*
X192023028Y-79120028D02*
X192024000Y-79121000D01*
X186817000Y-77216000D02*
X188721028Y-79120028D01*
X188721028Y-79120028D02*
X192023028Y-79120028D01*
X217251001Y-81234001D02*
X214237009Y-78220009D01*
X214237009Y-78220009D02*
X206835007Y-78220009D01*
X217251001Y-88219001D02*
X217251001Y-81234001D01*
X217251001Y-88219001D02*
X217551000Y-88519000D01*
X203652745Y-78220009D02*
X206835007Y-78220009D01*
X203073000Y-77640264D02*
X203652745Y-78220009D01*
X203073000Y-77216000D02*
X203073000Y-77640264D01*
X204089000Y-77470000D02*
X206121000Y-77470000D01*
X164175801Y-59698065D02*
X166056423Y-59698065D01*
X166056423Y-59698065D02*
X168415097Y-62056739D01*
X162941000Y-58039000D02*
X162941000Y-58463264D01*
X162941000Y-58463264D02*
X164175801Y-59698065D01*
X168415097Y-62056739D02*
X168415097Y-62602742D01*
X165227000Y-75619065D02*
X165227000Y-67436736D01*
X163004500Y-78232000D02*
X163004500Y-77807736D01*
X163004500Y-77807736D02*
X165193171Y-75619065D01*
X165193171Y-75619065D02*
X165227000Y-75619065D01*
X165227000Y-67436736D02*
X165955047Y-66708689D01*
X169257047Y-63406689D02*
X169257047Y-62644689D01*
X165955047Y-66708689D02*
X169257047Y-63406689D01*
X222714736Y-83185000D02*
X223139000Y-83185000D01*
X221107000Y-83185000D02*
X222714736Y-83185000D01*
X218059000Y-86233000D02*
X221107000Y-83185000D01*
X189611000Y-56515000D02*
X183134000Y-50038000D01*
X183134000Y-50038000D02*
X155448000Y-50038000D01*
X155448000Y-50038000D02*
X152908000Y-52578000D01*
X152908000Y-52578000D02*
X152908000Y-110099010D01*
X152908000Y-110099010D02*
X153425990Y-110617000D01*
X176403000Y-72263000D02*
X175978736Y-72263000D01*
X175978736Y-72263000D02*
X174962736Y-73279000D01*
X174962736Y-73279000D02*
X168064264Y-73279000D01*
X168064264Y-73279000D02*
X167640000Y-73279000D01*
X252056000Y-90932000D02*
X252056000Y-102714000D01*
X252056000Y-102714000D02*
X245858000Y-108912000D01*
D32*
G36*
X177385047Y-66339676D02*
X177385047Y-72735989D01*
X174171104Y-74837414D01*
X167667227Y-74962489D01*
X166982057Y-74081556D01*
X166982057Y-72169689D01*
X167474823Y-72169689D01*
X167868036Y-72562902D01*
X167867938Y-72674860D01*
X167963192Y-72905392D01*
X168139416Y-73081924D01*
X168369782Y-73177580D01*
X168619218Y-73177798D01*
X168849750Y-73082544D01*
X169026282Y-72906320D01*
X169121938Y-72675954D01*
X169122156Y-72426518D01*
X169026902Y-72195986D01*
X169000651Y-72169689D01*
X174464047Y-72169689D01*
X174513457Y-72159683D01*
X174555082Y-72131242D01*
X174582362Y-72088848D01*
X174591047Y-72042689D01*
X174591047Y-66345478D01*
X175321844Y-63787689D01*
X176898954Y-63787689D01*
X177385047Y-66339676D01*
X177385047Y-66339676D01*
G37*
X177385047Y-66339676D02*
X177385047Y-72735989D01*
X174171104Y-74837414D01*
X167667227Y-74962489D01*
X166982057Y-74081556D01*
X166982057Y-72169689D01*
X167474823Y-72169689D01*
X167868036Y-72562902D01*
X167867938Y-72674860D01*
X167963192Y-72905392D01*
X168139416Y-73081924D01*
X168369782Y-73177580D01*
X168619218Y-73177798D01*
X168849750Y-73082544D01*
X169026282Y-72906320D01*
X169121938Y-72675954D01*
X169122156Y-72426518D01*
X169026902Y-72195986D01*
X169000651Y-72169689D01*
X174464047Y-72169689D01*
X174513457Y-72159683D01*
X174555082Y-72131242D01*
X174582362Y-72088848D01*
X174591047Y-72042689D01*
X174591047Y-66345478D01*
X175321844Y-63787689D01*
X176898954Y-63787689D01*
X177385047Y-66339676D01*
G36*
X235943000Y-93218000D02*
X235948322Y-93244756D01*
X235948322Y-93272040D01*
X236083664Y-93952451D01*
X236093000Y-93974990D01*
X236093000Y-99573010D01*
X236083664Y-99595549D01*
X235948322Y-100275960D01*
X235948322Y-100303244D01*
X235943000Y-100330000D01*
X235943000Y-107188000D01*
X235948322Y-107214756D01*
X235948322Y-107242040D01*
X236083664Y-107922451D01*
X236093000Y-107944990D01*
X236093000Y-113543010D01*
X236083664Y-113565549D01*
X235948322Y-114245960D01*
X235948322Y-114273244D01*
X235943000Y-114300000D01*
X235943000Y-119103000D01*
X142517000Y-119103000D01*
X142517000Y-118099877D01*
X193356728Y-118099877D01*
X193516495Y-118418632D01*
X194307217Y-118728595D01*
X195156366Y-118712367D01*
X195865505Y-118418632D01*
X196025272Y-118099877D01*
X194691000Y-116765605D01*
X193356728Y-118099877D01*
X142517000Y-118099877D01*
X142517000Y-113281898D01*
X146395747Y-113281898D01*
X146705892Y-114032506D01*
X147279673Y-114607290D01*
X148029739Y-114918745D01*
X148841898Y-114919453D01*
X149592506Y-114609308D01*
X150167290Y-114035527D01*
X150478745Y-113285461D01*
X150479453Y-112473302D01*
X150169308Y-111722694D01*
X149595527Y-111147910D01*
X148845461Y-110836455D01*
X148033302Y-110835747D01*
X147282694Y-111145892D01*
X146707910Y-111719673D01*
X146396455Y-112469739D01*
X146395747Y-113281898D01*
X142517000Y-113281898D01*
X142517000Y-55293698D01*
X146395747Y-55293698D01*
X146705892Y-56044306D01*
X147279673Y-56619090D01*
X148029739Y-56930545D01*
X148841898Y-56931253D01*
X149592506Y-56621108D01*
X150167290Y-56047327D01*
X150478745Y-55297261D01*
X150479453Y-54485102D01*
X150169308Y-53734494D01*
X149595527Y-53159710D01*
X148845461Y-52848255D01*
X148033302Y-52847547D01*
X147282694Y-53157692D01*
X146707910Y-53731473D01*
X146396455Y-54481539D01*
X146395747Y-55293698D01*
X142517000Y-55293698D01*
X142517000Y-52578000D01*
X152456000Y-52578000D01*
X152456000Y-110099010D01*
X152490406Y-110271983D01*
X152588388Y-110418622D01*
X152798979Y-110629213D01*
X152798881Y-110741171D01*
X152894135Y-110971703D01*
X153070359Y-111148235D01*
X153300725Y-111243891D01*
X153550161Y-111244109D01*
X153599000Y-111223929D01*
X153599000Y-112800772D01*
X153633406Y-112973745D01*
X153731388Y-113120384D01*
X154214616Y-113603613D01*
X154361255Y-113701594D01*
X154534228Y-113736000D01*
X154759272Y-113736000D01*
X154838369Y-113815235D01*
X155068735Y-113910891D01*
X155318171Y-113911109D01*
X155548703Y-113815855D01*
X155725235Y-113639631D01*
X155820891Y-113409265D01*
X155821109Y-113159829D01*
X155725855Y-112929297D01*
X155549631Y-112752765D01*
X155319265Y-112657109D01*
X155069829Y-112656891D01*
X154839297Y-112752145D01*
X154759302Y-112832000D01*
X154721453Y-112832000D01*
X154503000Y-112613548D01*
X154503000Y-109725171D01*
X157812045Y-109725171D01*
X157907299Y-109955703D01*
X157987154Y-110035698D01*
X157987154Y-112465154D01*
X158021560Y-112638127D01*
X158119542Y-112784766D01*
X162367387Y-117032612D01*
X162514027Y-117130594D01*
X162687000Y-117165000D01*
X177528272Y-117165000D01*
X177607369Y-117244235D01*
X177837735Y-117339891D01*
X178087171Y-117340109D01*
X178317703Y-117244855D01*
X178494235Y-117068631D01*
X178589891Y-116838265D01*
X178590109Y-116588829D01*
X178494855Y-116358297D01*
X178339048Y-116202217D01*
X192548405Y-116202217D01*
X192564633Y-117051366D01*
X192858368Y-117760505D01*
X193177123Y-117920272D01*
X194511395Y-116586000D01*
X194870605Y-116586000D01*
X196204877Y-117920272D01*
X196523632Y-117760505D01*
X196833595Y-116969783D01*
X196817367Y-116120634D01*
X196523632Y-115411495D01*
X196204877Y-115251728D01*
X194870605Y-116586000D01*
X194511395Y-116586000D01*
X193177123Y-115251728D01*
X192858368Y-115411495D01*
X192548405Y-116202217D01*
X178339048Y-116202217D01*
X178318631Y-116181765D01*
X178088265Y-116086109D01*
X177838829Y-116085891D01*
X177608297Y-116181145D01*
X177528302Y-116261000D01*
X162874225Y-116261000D01*
X161685348Y-115072123D01*
X193356728Y-115072123D01*
X194691000Y-116406395D01*
X196025272Y-115072123D01*
X195865505Y-114753368D01*
X195074783Y-114443405D01*
X194225634Y-114459633D01*
X193516495Y-114753368D01*
X193356728Y-115072123D01*
X161685348Y-115072123D01*
X158891154Y-112277930D01*
X158891154Y-110635697D01*
X175025762Y-110635697D01*
X175234956Y-111141985D01*
X175621974Y-111529679D01*
X176127896Y-111739756D01*
X176675701Y-111740234D01*
X176797286Y-111689996D01*
X185759334Y-111689996D01*
X188037669Y-113968331D01*
X188468179Y-114255988D01*
X188976000Y-114357000D01*
X191627574Y-114357000D01*
X191748782Y-114407330D01*
X192296813Y-114407808D01*
X192803311Y-114198528D01*
X193191166Y-113811349D01*
X193401330Y-113305218D01*
X193401350Y-113281898D01*
X207152547Y-113281898D01*
X207462692Y-114032506D01*
X208036473Y-114607290D01*
X208786539Y-114918745D01*
X209598698Y-114919453D01*
X210349306Y-114609308D01*
X210924090Y-114035527D01*
X211235545Y-113285461D01*
X211236253Y-112473302D01*
X210926108Y-111722694D01*
X210352327Y-111147910D01*
X209602261Y-110836455D01*
X208790102Y-110835747D01*
X208039494Y-111145892D01*
X207464710Y-111719673D01*
X207153255Y-112469739D01*
X207152547Y-113281898D01*
X193401350Y-113281898D01*
X193401808Y-112757187D01*
X193192528Y-112250689D01*
X192805349Y-111862834D01*
X192299218Y-111652670D01*
X191751187Y-111652192D01*
X191628222Y-111703000D01*
X189525662Y-111703000D01*
X187247327Y-109424665D01*
X186816817Y-109137008D01*
X186308996Y-109035996D01*
X176797939Y-109035996D01*
X176678104Y-108986236D01*
X176130299Y-108985758D01*
X175624011Y-109194952D01*
X175236317Y-109581970D01*
X175026240Y-110087892D01*
X175025762Y-110635697D01*
X158891154Y-110635697D01*
X158891154Y-110035728D01*
X158970389Y-109956631D01*
X159066045Y-109726265D01*
X159066147Y-109609567D01*
X159156747Y-109473974D01*
X159191153Y-109301001D01*
X159191153Y-108671402D01*
X190946243Y-108671402D01*
X191109948Y-109067597D01*
X191412809Y-109370987D01*
X191661013Y-109474050D01*
X191414403Y-109575948D01*
X191111013Y-109878809D01*
X190946617Y-110274718D01*
X190946243Y-110703402D01*
X191109948Y-111099597D01*
X191412809Y-111402987D01*
X191808718Y-111567383D01*
X192237402Y-111567757D01*
X192633597Y-111404052D01*
X192936987Y-111101191D01*
X193101383Y-110705282D01*
X193101757Y-110276598D01*
X192938052Y-109880403D01*
X192635191Y-109577013D01*
X192386987Y-109473950D01*
X192633597Y-109372052D01*
X192936987Y-109069191D01*
X193101383Y-108673282D01*
X193101757Y-108244598D01*
X192938052Y-107848403D01*
X192635191Y-107545013D01*
X192239282Y-107380617D01*
X191810598Y-107380243D01*
X191414403Y-107543948D01*
X191111013Y-107846809D01*
X190946617Y-108242718D01*
X190946243Y-108671402D01*
X159191153Y-108671402D01*
X159191153Y-106889930D01*
X191231675Y-106889930D01*
X191299735Y-107130931D01*
X191819034Y-107315767D01*
X192369538Y-107287805D01*
X192748265Y-107130931D01*
X192816325Y-106889930D01*
X192024000Y-106097605D01*
X191231675Y-106889930D01*
X159191153Y-106889930D01*
X159191153Y-105661171D01*
X160281891Y-105661171D01*
X160377145Y-105891703D01*
X160553369Y-106068235D01*
X160783735Y-106163891D01*
X161033171Y-106164109D01*
X161263703Y-106068855D01*
X161343698Y-105989000D01*
X172085000Y-105989000D01*
X172257973Y-105954594D01*
X172324730Y-105909988D01*
X172463171Y-105910109D01*
X172693703Y-105814855D01*
X172795701Y-105713034D01*
X190626233Y-105713034D01*
X190654195Y-106263538D01*
X190811069Y-106642265D01*
X191052070Y-106710325D01*
X191844395Y-105918000D01*
X192203605Y-105918000D01*
X192995930Y-106710325D01*
X193236931Y-106642265D01*
X193421767Y-106122966D01*
X193393805Y-105572462D01*
X193236931Y-105193735D01*
X192995930Y-105125675D01*
X192203605Y-105918000D01*
X191844395Y-105918000D01*
X191052070Y-105125675D01*
X190811069Y-105193735D01*
X190626233Y-105713034D01*
X172795701Y-105713034D01*
X172870235Y-105638631D01*
X172965891Y-105408265D01*
X172966109Y-105158829D01*
X172878199Y-104946070D01*
X191231675Y-104946070D01*
X192024000Y-105738395D01*
X192816325Y-104946070D01*
X192748265Y-104705069D01*
X192228966Y-104520233D01*
X191678462Y-104548195D01*
X191299735Y-104705069D01*
X191231675Y-104946070D01*
X172878199Y-104946070D01*
X172870855Y-104928297D01*
X172694631Y-104751765D01*
X172464265Y-104656109D01*
X172214829Y-104655891D01*
X171984297Y-104751145D01*
X171807765Y-104927369D01*
X171742311Y-105085000D01*
X161343728Y-105085000D01*
X161264631Y-105005765D01*
X161034265Y-104910109D01*
X160784829Y-104909891D01*
X160554297Y-105005145D01*
X160377765Y-105181369D01*
X160282109Y-105411735D01*
X160281891Y-105661171D01*
X159191153Y-105661171D01*
X159191153Y-104338071D01*
X159810935Y-103718289D01*
X172277813Y-103718289D01*
X172441431Y-104114275D01*
X172744132Y-104417504D01*
X173139832Y-104581813D01*
X173568289Y-104582187D01*
X173964275Y-104418569D01*
X173999027Y-104383877D01*
X193356728Y-104383877D01*
X193516495Y-104702632D01*
X194307217Y-105012595D01*
X195156366Y-104996367D01*
X195865505Y-104702632D01*
X196025272Y-104383877D01*
X194691000Y-103049605D01*
X193356728Y-104383877D01*
X173999027Y-104383877D01*
X174267504Y-104115868D01*
X174431813Y-103720168D01*
X174432114Y-103375171D01*
X176029891Y-103375171D01*
X176125145Y-103605703D01*
X176301369Y-103782235D01*
X176531735Y-103877891D01*
X176781171Y-103878109D01*
X177011703Y-103782855D01*
X177091698Y-103703000D01*
X183769000Y-103703000D01*
X183941973Y-103668594D01*
X184088612Y-103570612D01*
X185173007Y-102486217D01*
X192548405Y-102486217D01*
X192564633Y-103335366D01*
X192858368Y-104044505D01*
X193177123Y-104204272D01*
X194511395Y-102870000D01*
X194870605Y-102870000D01*
X196204877Y-104204272D01*
X196523632Y-104044505D01*
X196833595Y-103253783D01*
X196817367Y-102404634D01*
X196673255Y-102056716D01*
X224386589Y-102056716D01*
X224571324Y-102503809D01*
X224913092Y-102846174D01*
X225359861Y-103031689D01*
X225843616Y-103032111D01*
X226192159Y-102888096D01*
X231212609Y-102888096D01*
X231297667Y-103143439D01*
X231867165Y-103351416D01*
X232472900Y-103325623D01*
X232912733Y-103143439D01*
X232997791Y-102888096D01*
X232105200Y-101995505D01*
X231212609Y-102888096D01*
X226192159Y-102888096D01*
X226290709Y-102847376D01*
X226633074Y-102505608D01*
X226818589Y-102058839D01*
X226819008Y-101577865D01*
X230569684Y-101577865D01*
X230595477Y-102183600D01*
X230777661Y-102623433D01*
X231033004Y-102708491D01*
X231925595Y-101815900D01*
X232284805Y-101815900D01*
X233177396Y-102708491D01*
X233432739Y-102623433D01*
X233640716Y-102053935D01*
X233614923Y-101448200D01*
X233432739Y-101008367D01*
X233177396Y-100923309D01*
X232284805Y-101815900D01*
X231925595Y-101815900D01*
X231033004Y-100923309D01*
X230777661Y-101008367D01*
X230569684Y-101577865D01*
X226819008Y-101577865D01*
X226819011Y-101575084D01*
X226634276Y-101127991D01*
X226292508Y-100785626D01*
X226191549Y-100743704D01*
X231212609Y-100743704D01*
X232105200Y-101636295D01*
X232997791Y-100743704D01*
X232912733Y-100488361D01*
X232343235Y-100280384D01*
X231737500Y-100306177D01*
X231297667Y-100488361D01*
X231212609Y-100743704D01*
X226191549Y-100743704D01*
X225845739Y-100600111D01*
X225361984Y-100599689D01*
X224914891Y-100784424D01*
X224572526Y-101126192D01*
X224387011Y-101572961D01*
X224386589Y-102056716D01*
X196673255Y-102056716D01*
X196523632Y-101695495D01*
X196204877Y-101535728D01*
X194870605Y-102870000D01*
X194511395Y-102870000D01*
X193177123Y-101535728D01*
X192858368Y-101695495D01*
X192548405Y-102486217D01*
X185173007Y-102486217D01*
X186303101Y-101356123D01*
X193356728Y-101356123D01*
X194691000Y-102690395D01*
X196025272Y-101356123D01*
X195865505Y-101037368D01*
X195074783Y-100727405D01*
X194225634Y-100743633D01*
X193516495Y-101037368D01*
X193356728Y-101356123D01*
X186303101Y-101356123D01*
X186575213Y-101084011D01*
X186687171Y-101084109D01*
X186917703Y-100988855D01*
X187094235Y-100812631D01*
X187189891Y-100582265D01*
X187190109Y-100332829D01*
X187094855Y-100102297D01*
X186918631Y-99925765D01*
X186688265Y-99830109D01*
X186438829Y-99829891D01*
X186208297Y-99925145D01*
X186031765Y-100101369D01*
X185936109Y-100331735D01*
X185936010Y-100444766D01*
X183581776Y-102799000D01*
X177091728Y-102799000D01*
X177012631Y-102719765D01*
X176782265Y-102624109D01*
X176532829Y-102623891D01*
X176302297Y-102719145D01*
X176125765Y-102895369D01*
X176030109Y-103125735D01*
X176029891Y-103375171D01*
X174432114Y-103375171D01*
X174432187Y-103291711D01*
X174382000Y-103170249D01*
X174382000Y-85671371D01*
X176614091Y-85671371D01*
X176709345Y-85901903D01*
X176885569Y-86078435D01*
X177115935Y-86174091D01*
X177365371Y-86174309D01*
X177486644Y-86124200D01*
X187492398Y-86124200D01*
X201826799Y-100458601D01*
X202013992Y-100583678D01*
X202234800Y-100627601D01*
X202234805Y-100627600D01*
X202471984Y-100627600D01*
X202592135Y-100677491D01*
X202841571Y-100677709D01*
X203072103Y-100582455D01*
X203248635Y-100406231D01*
X203344291Y-100175865D01*
X203344509Y-99926429D01*
X203249255Y-99695897D01*
X203073031Y-99519365D01*
X202842665Y-99423709D01*
X202593229Y-99423491D01*
X202473262Y-99473060D01*
X195961373Y-92961171D01*
X201937891Y-92961171D01*
X202033145Y-93191703D01*
X202209369Y-93368235D01*
X202439735Y-93463891D01*
X202552766Y-93463990D01*
X204531388Y-95442612D01*
X204678027Y-95540594D01*
X204851000Y-95575000D01*
X212544272Y-95575000D01*
X212623369Y-95654235D01*
X212853735Y-95749891D01*
X213103171Y-95750109D01*
X213114241Y-95745535D01*
X212456775Y-96403001D01*
X210865999Y-96403001D01*
X210693026Y-96437407D01*
X210557456Y-96527992D01*
X210441829Y-96527891D01*
X210211297Y-96623145D01*
X210034765Y-96799369D01*
X209939109Y-97029735D01*
X209938891Y-97279171D01*
X210034145Y-97509703D01*
X210210369Y-97686235D01*
X210440735Y-97781891D01*
X210690171Y-97782109D01*
X210920703Y-97686855D01*
X211097235Y-97510631D01*
X211181789Y-97307001D01*
X212518997Y-97307001D01*
X210585534Y-99240464D01*
X210465297Y-99290145D01*
X210288765Y-99466369D01*
X210193109Y-99696735D01*
X210192891Y-99946171D01*
X210288145Y-100176703D01*
X210464369Y-100353235D01*
X210694735Y-100448891D01*
X210944171Y-100449109D01*
X211174703Y-100353855D01*
X211351235Y-100177631D01*
X211401555Y-100056447D01*
X213897085Y-97560916D01*
X224386589Y-97560916D01*
X224571324Y-98008009D01*
X224913092Y-98350374D01*
X225359861Y-98535889D01*
X225843616Y-98536311D01*
X226192159Y-98392296D01*
X231212609Y-98392296D01*
X231297667Y-98647639D01*
X231867165Y-98855616D01*
X232472900Y-98829823D01*
X232912733Y-98647639D01*
X232997791Y-98392296D01*
X232105200Y-97499705D01*
X231212609Y-98392296D01*
X226192159Y-98392296D01*
X226290709Y-98351576D01*
X226633074Y-98009808D01*
X226818589Y-97563039D01*
X226819008Y-97082065D01*
X230569684Y-97082065D01*
X230595477Y-97687800D01*
X230777661Y-98127633D01*
X231033004Y-98212691D01*
X231925595Y-97320100D01*
X232284805Y-97320100D01*
X233177396Y-98212691D01*
X233432739Y-98127633D01*
X233640716Y-97558135D01*
X233614923Y-96952400D01*
X233432739Y-96512567D01*
X233177396Y-96427509D01*
X232284805Y-97320100D01*
X231925595Y-97320100D01*
X231033004Y-96427509D01*
X230777661Y-96512567D01*
X230569684Y-97082065D01*
X226819008Y-97082065D01*
X226819011Y-97079284D01*
X226634276Y-96632191D01*
X226292508Y-96289826D01*
X226191549Y-96247904D01*
X231212609Y-96247904D01*
X232105200Y-97140495D01*
X232997791Y-96247904D01*
X232912733Y-95992561D01*
X232343235Y-95784584D01*
X231737500Y-95810377D01*
X231297667Y-95992561D01*
X231212609Y-96247904D01*
X226191549Y-96247904D01*
X225845739Y-96104311D01*
X225361984Y-96103889D01*
X224914891Y-96288624D01*
X224572526Y-96630392D01*
X224387011Y-97077161D01*
X224386589Y-97560916D01*
X213897085Y-97560916D01*
X216831001Y-94627000D01*
X224387681Y-94627000D01*
X224387686Y-94627001D01*
X224608494Y-94583078D01*
X224795687Y-94458001D01*
X225930791Y-93322896D01*
X226083794Y-93551881D01*
X226470052Y-93809971D01*
X226925675Y-93900600D01*
X226972325Y-93900600D01*
X227427948Y-93809971D01*
X227814206Y-93551881D01*
X228072296Y-93165623D01*
X228162925Y-92710000D01*
X228072296Y-92254377D01*
X227814206Y-91868119D01*
X227427948Y-91610029D01*
X226972325Y-91519400D01*
X226925675Y-91519400D01*
X226470052Y-91610029D01*
X226083794Y-91868119D01*
X225906806Y-92133000D01*
X225727686Y-92133000D01*
X225506878Y-92176922D01*
X225319685Y-92301999D01*
X225319683Y-92302002D01*
X224148684Y-93473000D01*
X217169000Y-93473000D01*
X217169000Y-91292469D01*
X217218891Y-91172318D01*
X217219109Y-90922882D01*
X217123855Y-90692350D01*
X216947631Y-90515818D01*
X216771381Y-90442633D01*
X217786367Y-90442633D01*
X217786367Y-90984367D01*
X217820773Y-91157340D01*
X217918755Y-91303979D01*
X219644388Y-93029613D01*
X219776670Y-93118001D01*
X219791027Y-93127594D01*
X219964000Y-93162000D01*
X220037272Y-93162000D01*
X220116369Y-93241235D01*
X220346735Y-93336891D01*
X220596171Y-93337109D01*
X220826703Y-93241855D01*
X221003235Y-93065631D01*
X221098891Y-92835265D01*
X221099109Y-92585829D01*
X221003855Y-92355297D01*
X220827631Y-92178765D01*
X220597265Y-92083109D01*
X220347829Y-92082891D01*
X220117297Y-92178145D01*
X220094313Y-92201089D01*
X218690367Y-90797143D01*
X218690367Y-90177857D01*
X219597624Y-89270601D01*
X226169876Y-89270601D01*
X226083794Y-89328119D01*
X225825704Y-89714377D01*
X225735075Y-90170000D01*
X225825704Y-90625623D01*
X226083794Y-91011881D01*
X226470052Y-91269971D01*
X226925675Y-91360600D01*
X226972325Y-91360600D01*
X227427948Y-91269971D01*
X227814206Y-91011881D01*
X228072296Y-90625623D01*
X228162925Y-90170000D01*
X228275075Y-90170000D01*
X228365704Y-90625623D01*
X228623794Y-91011881D01*
X229010052Y-91269971D01*
X229465675Y-91360600D01*
X229512325Y-91360600D01*
X229967948Y-91269971D01*
X230354206Y-91011881D01*
X230612296Y-90625623D01*
X230702925Y-90170000D01*
X230612296Y-89714377D01*
X230354206Y-89328119D01*
X229967948Y-89070029D01*
X229512325Y-88979400D01*
X229465675Y-88979400D01*
X229010052Y-89070029D01*
X228623794Y-89328119D01*
X228365704Y-89714377D01*
X228275075Y-90170000D01*
X228162925Y-90170000D01*
X228072296Y-89714377D01*
X227814206Y-89328119D01*
X227728124Y-89270601D01*
X228300399Y-89270601D01*
X228473372Y-89236195D01*
X228620011Y-89138213D01*
X229025234Y-88732991D01*
X229465675Y-88820600D01*
X229512325Y-88820600D01*
X229967948Y-88729971D01*
X230354206Y-88471881D01*
X230612296Y-88085623D01*
X230702925Y-87630000D01*
X230612296Y-87174377D01*
X230354206Y-86788119D01*
X229967948Y-86530029D01*
X229512325Y-86439400D01*
X229465675Y-86439400D01*
X229010052Y-86530029D01*
X228623794Y-86788119D01*
X228365704Y-87174377D01*
X228365134Y-87177240D01*
X228231688Y-86855053D01*
X227837490Y-86423179D01*
X227308027Y-86175032D01*
X227076000Y-86295531D01*
X227076000Y-87503000D01*
X227096000Y-87503000D01*
X227096000Y-87757000D01*
X227076000Y-87757000D01*
X227076000Y-87777000D01*
X226822000Y-87777000D01*
X226822000Y-87757000D01*
X225615183Y-87757000D01*
X225494042Y-87989026D01*
X225650429Y-88366601D01*
X219410399Y-88366601D01*
X219237426Y-88401007D01*
X219090787Y-88498988D01*
X218051143Y-89538633D01*
X215257686Y-89538633D01*
X215257686Y-89329686D01*
X215223280Y-89156713D01*
X215125298Y-89010074D01*
X214876011Y-88760787D01*
X214876109Y-88648829D01*
X214780855Y-88418297D01*
X214604631Y-88241765D01*
X214374265Y-88146109D01*
X214124829Y-88145891D01*
X213894297Y-88241145D01*
X213717765Y-88417369D01*
X213622109Y-88647735D01*
X213621891Y-88897171D01*
X213717145Y-89127703D01*
X213893369Y-89304235D01*
X214123735Y-89399891D01*
X214236766Y-89399990D01*
X214353686Y-89516910D01*
X214353686Y-94506090D01*
X213601900Y-95257876D01*
X213605891Y-95248265D01*
X213606109Y-94998829D01*
X213510855Y-94768297D01*
X213334631Y-94591765D01*
X213104265Y-94496109D01*
X212854829Y-94495891D01*
X212624297Y-94591145D01*
X212544302Y-94671000D01*
X205038224Y-94671000D01*
X203192011Y-92824787D01*
X203192109Y-92712829D01*
X203096855Y-92482297D01*
X202920631Y-92305765D01*
X202690265Y-92210109D01*
X202440829Y-92209891D01*
X202210297Y-92305145D01*
X202033765Y-92481369D01*
X201938109Y-92711735D01*
X201937891Y-92961171D01*
X195961373Y-92961171D01*
X189569552Y-86569350D01*
X197467255Y-86569350D01*
X197491977Y-86774180D01*
X197883931Y-86900309D01*
X198294318Y-86866842D01*
X198518023Y-86774180D01*
X198542745Y-86569350D01*
X198005000Y-86031605D01*
X197467255Y-86569350D01*
X189569552Y-86569350D01*
X188731133Y-85730931D01*
X196956691Y-85730931D01*
X196990158Y-86141318D01*
X197082820Y-86365023D01*
X197287650Y-86389745D01*
X197825395Y-85852000D01*
X198184605Y-85852000D01*
X198722350Y-86389745D01*
X198927180Y-86365023D01*
X198942467Y-86317517D01*
X199092650Y-86467961D01*
X199359756Y-86578874D01*
X199648975Y-86579126D01*
X199916275Y-86468680D01*
X200120961Y-86264350D01*
X200231874Y-85997244D01*
X200232126Y-85708025D01*
X200121680Y-85440725D01*
X199917350Y-85236039D01*
X199650244Y-85125126D01*
X199361025Y-85124874D01*
X199093725Y-85235320D01*
X198945524Y-85383263D01*
X198927180Y-85338977D01*
X198722350Y-85314255D01*
X198184605Y-85852000D01*
X197825395Y-85852000D01*
X197287650Y-85314255D01*
X197082820Y-85338977D01*
X196956691Y-85730931D01*
X188731133Y-85730931D01*
X188139401Y-85139199D01*
X188132593Y-85134650D01*
X197467255Y-85134650D01*
X198005000Y-85672395D01*
X198542745Y-85134650D01*
X198518023Y-84929820D01*
X198126069Y-84803691D01*
X197715682Y-84837158D01*
X197491977Y-84929820D01*
X197467255Y-85134650D01*
X188132593Y-85134650D01*
X187952208Y-85014122D01*
X187731400Y-84970199D01*
X187731395Y-84970200D01*
X177486616Y-84970200D01*
X177366465Y-84920309D01*
X177117029Y-84920091D01*
X176886497Y-85015345D01*
X176709965Y-85191569D01*
X176614309Y-85421935D01*
X176614091Y-85671371D01*
X174382000Y-85671371D01*
X174382000Y-82594398D01*
X174606224Y-82370173D01*
X174726275Y-82320569D01*
X175029504Y-82017868D01*
X175193813Y-81622168D01*
X175193986Y-81423975D01*
X191066874Y-81423975D01*
X191177320Y-81691275D01*
X191381650Y-81895961D01*
X191648756Y-82006874D01*
X191937975Y-82007126D01*
X191961634Y-81997350D01*
X192756255Y-81997350D01*
X192780977Y-82202180D01*
X193172931Y-82328309D01*
X193583318Y-82294842D01*
X193807023Y-82202180D01*
X193831745Y-81997350D01*
X193294000Y-81459605D01*
X192756255Y-81997350D01*
X191961634Y-81997350D01*
X192205275Y-81896680D01*
X192353476Y-81748737D01*
X192371820Y-81793023D01*
X192576650Y-81817745D01*
X193114395Y-81280000D01*
X193473605Y-81280000D01*
X194011350Y-81817745D01*
X194216180Y-81793023D01*
X194342309Y-81401069D01*
X194308842Y-80990682D01*
X194216180Y-80766977D01*
X194011350Y-80742255D01*
X193473605Y-81280000D01*
X193114395Y-81280000D01*
X192576650Y-80742255D01*
X192371820Y-80766977D01*
X192356533Y-80814483D01*
X192206350Y-80664039D01*
X191962181Y-80562650D01*
X192756255Y-80562650D01*
X193294000Y-81100395D01*
X193831745Y-80562650D01*
X193807023Y-80357820D01*
X193415069Y-80231691D01*
X193004682Y-80265158D01*
X192780977Y-80357820D01*
X192756255Y-80562650D01*
X191962181Y-80562650D01*
X191939244Y-80553126D01*
X191650025Y-80552874D01*
X191382725Y-80663320D01*
X191178039Y-80867650D01*
X191067126Y-81134756D01*
X191066874Y-81423975D01*
X175193986Y-81423975D01*
X175194187Y-81193711D01*
X175030569Y-80797725D01*
X174727868Y-80494496D01*
X174332168Y-80330187D01*
X173903711Y-80329813D01*
X173507725Y-80493431D01*
X173204496Y-80796132D01*
X173154097Y-80917505D01*
X172628801Y-81442801D01*
X172406176Y-81775984D01*
X172328000Y-82169000D01*
X172328000Y-103169869D01*
X172278187Y-103289832D01*
X172277813Y-103718289D01*
X159810935Y-103718289D01*
X160842224Y-102687000D01*
X166824272Y-102687000D01*
X166903369Y-102766235D01*
X167133735Y-102861891D01*
X167383171Y-102862109D01*
X167613703Y-102766855D01*
X167790235Y-102590631D01*
X167885891Y-102360265D01*
X167886109Y-102110829D01*
X167790855Y-101880297D01*
X167614631Y-101703765D01*
X167384265Y-101608109D01*
X167134829Y-101607891D01*
X166904297Y-101703145D01*
X166824302Y-101783000D01*
X160655000Y-101783000D01*
X160482027Y-101817406D01*
X160335388Y-101915388D01*
X158419541Y-103831235D01*
X158321559Y-103977874D01*
X158287153Y-104150847D01*
X158287153Y-108985390D01*
X158084451Y-109069145D01*
X157907919Y-109245369D01*
X157812263Y-109475735D01*
X157812045Y-109725171D01*
X154503000Y-109725171D01*
X154503000Y-95582093D01*
X156937796Y-95582093D01*
X157116606Y-96014846D01*
X157447412Y-96346230D01*
X157879853Y-96525795D01*
X158348093Y-96526204D01*
X158780846Y-96347394D01*
X159112230Y-96016588D01*
X159291795Y-95584147D01*
X159292204Y-95115907D01*
X159113394Y-94683154D01*
X158782588Y-94351770D01*
X158350147Y-94172205D01*
X157881907Y-94171796D01*
X157449154Y-94350606D01*
X157117770Y-94681412D01*
X156938205Y-95113853D01*
X156937796Y-95582093D01*
X154503000Y-95582093D01*
X154503000Y-92892958D01*
X157250647Y-92892958D01*
X157330920Y-93144259D01*
X157886279Y-93345718D01*
X158476458Y-93319315D01*
X158899080Y-93144259D01*
X158979353Y-92892958D01*
X158115000Y-92028605D01*
X157250647Y-92892958D01*
X154503000Y-92892958D01*
X154503000Y-91620279D01*
X156618282Y-91620279D01*
X156644685Y-92210458D01*
X156819741Y-92633080D01*
X157071042Y-92713353D01*
X157935395Y-91849000D01*
X158294605Y-91849000D01*
X159158958Y-92713353D01*
X159410259Y-92633080D01*
X159611718Y-92077721D01*
X159585315Y-91487542D01*
X159410259Y-91064920D01*
X159158958Y-90984647D01*
X158294605Y-91849000D01*
X157935395Y-91849000D01*
X157071042Y-90984647D01*
X156819741Y-91064920D01*
X156618282Y-91620279D01*
X154503000Y-91620279D01*
X154503000Y-90805042D01*
X157250647Y-90805042D01*
X158115000Y-91669395D01*
X158979353Y-90805042D01*
X158899080Y-90553741D01*
X158343721Y-90352282D01*
X157753542Y-90378685D01*
X157330920Y-90553741D01*
X157250647Y-90805042D01*
X154503000Y-90805042D01*
X154503000Y-53146224D01*
X155635224Y-52014000D01*
X177111272Y-52014000D01*
X177190369Y-52093235D01*
X177269276Y-52126000D01*
X155956000Y-52126000D01*
X155783027Y-52160406D01*
X155636388Y-52258388D01*
X155521790Y-52372986D01*
X155521787Y-52372988D01*
X154747388Y-53147388D01*
X154649406Y-53294027D01*
X154615000Y-53467000D01*
X154615000Y-87107145D01*
X154529009Y-87314235D01*
X154528791Y-87563671D01*
X154624045Y-87794203D01*
X154800269Y-87970735D01*
X155030635Y-88066391D01*
X155280071Y-88066609D01*
X155510603Y-87971355D01*
X155687135Y-87795131D01*
X155782791Y-87564765D01*
X155783009Y-87315329D01*
X155687755Y-87084797D01*
X155519000Y-86915747D01*
X155519000Y-58163171D01*
X162313891Y-58163171D01*
X162409145Y-58393703D01*
X162491592Y-58476294D01*
X162523406Y-58636237D01*
X162621388Y-58782876D01*
X163856189Y-60017677D01*
X164002828Y-60115659D01*
X164175801Y-60150065D01*
X165869199Y-60150065D01*
X167138602Y-61419468D01*
X166997344Y-61477834D01*
X166820812Y-61654058D01*
X166725156Y-61884424D01*
X166724938Y-62133860D01*
X166820192Y-62364392D01*
X166900047Y-62444387D01*
X166900047Y-63473465D01*
X165053834Y-65319678D01*
X164941876Y-65319580D01*
X164711344Y-65414834D01*
X164534812Y-65591058D01*
X164439156Y-65821424D01*
X164438938Y-66070860D01*
X164534192Y-66301392D01*
X164710416Y-66477924D01*
X164940782Y-66573580D01*
X165190218Y-66573798D01*
X165420750Y-66478544D01*
X165597282Y-66302320D01*
X165692938Y-66071954D01*
X165693037Y-65958923D01*
X167671659Y-63980301D01*
X167769641Y-63833662D01*
X167773739Y-63813058D01*
X167804047Y-63660689D01*
X167804047Y-62765779D01*
X167883242Y-62957445D01*
X168059466Y-63133977D01*
X168289832Y-63229633D01*
X168539268Y-63229851D01*
X168769800Y-63134597D01*
X168805047Y-63099411D01*
X168805047Y-63219465D01*
X164907388Y-67117124D01*
X164809406Y-67263763D01*
X164775000Y-67436736D01*
X164775000Y-75398012D01*
X162684888Y-77488124D01*
X162586906Y-77634763D01*
X162555097Y-77794680D01*
X162473265Y-77876369D01*
X162377609Y-78106735D01*
X162377391Y-78356171D01*
X162472645Y-78586703D01*
X162648869Y-78763235D01*
X162879235Y-78858891D01*
X163128671Y-78859109D01*
X163359203Y-78763855D01*
X163535735Y-78587631D01*
X163631391Y-78357265D01*
X163631609Y-78107829D01*
X163547409Y-77904051D01*
X165444661Y-76006799D01*
X165546612Y-75938677D01*
X165644594Y-75792038D01*
X165679000Y-75619065D01*
X165679000Y-67623960D01*
X169301548Y-64001412D01*
X169301548Y-64197451D01*
X166019055Y-67479943D01*
X165997056Y-67494642D01*
X165871979Y-67681835D01*
X165828057Y-67902643D01*
X165828057Y-78529442D01*
X164357534Y-79999964D01*
X164237297Y-80049645D01*
X164060765Y-80225869D01*
X163965109Y-80456235D01*
X163964891Y-80705671D01*
X164060145Y-80936203D01*
X164236369Y-81112735D01*
X164466735Y-81208391D01*
X164716171Y-81208609D01*
X164946703Y-81113355D01*
X165123235Y-80937131D01*
X165173555Y-80815947D01*
X166813055Y-79176446D01*
X166813058Y-79176444D01*
X166938135Y-78989251D01*
X166946335Y-78948027D01*
X166982058Y-78768443D01*
X166982057Y-78768438D01*
X166982057Y-77340171D01*
X186189891Y-77340171D01*
X186285145Y-77570703D01*
X186461369Y-77747235D01*
X186691735Y-77842891D01*
X186804766Y-77842990D01*
X188401416Y-79439640D01*
X188548055Y-79537622D01*
X188721028Y-79572028D01*
X192019113Y-79572028D01*
X192024000Y-79573000D01*
X192028887Y-79572028D01*
X204122923Y-79572028D01*
X206685000Y-82134105D01*
X206685000Y-91386272D01*
X206605765Y-91465369D01*
X206510109Y-91695735D01*
X206509891Y-91945171D01*
X206605145Y-92175703D01*
X206781369Y-92352235D01*
X207011735Y-92447891D01*
X207261171Y-92448109D01*
X207491703Y-92352855D01*
X207668235Y-92176631D01*
X207763891Y-91946265D01*
X207764109Y-91696829D01*
X207668855Y-91466297D01*
X207589000Y-91386302D01*
X207589000Y-81946881D01*
X207554594Y-81773908D01*
X207456612Y-81627269D01*
X204951362Y-79122019D01*
X205468275Y-79122019D01*
X206986887Y-80640632D01*
X207133526Y-80738613D01*
X207306499Y-80773019D01*
X207387795Y-80773019D01*
X207779989Y-81165213D01*
X207779891Y-81277171D01*
X207875145Y-81507703D01*
X208051369Y-81684235D01*
X208281735Y-81779891D01*
X208531171Y-81780109D01*
X208761703Y-81684855D01*
X208938235Y-81508631D01*
X209033891Y-81278265D01*
X209034109Y-81028829D01*
X208938855Y-80798297D01*
X208762631Y-80621765D01*
X208532265Y-80526109D01*
X208419234Y-80526010D01*
X207894631Y-80001407D01*
X207747992Y-79903425D01*
X207575019Y-79869019D01*
X207493724Y-79869019D01*
X206296713Y-78672009D01*
X212287288Y-78672009D01*
X212193765Y-78765369D01*
X212098109Y-78995735D01*
X212097891Y-79245171D01*
X212193145Y-79475703D01*
X212273000Y-79555698D01*
X212273000Y-85798272D01*
X212193765Y-85877369D01*
X212098109Y-86107735D01*
X212097891Y-86357171D01*
X212193145Y-86587703D01*
X212369369Y-86764235D01*
X212599735Y-86859891D01*
X212849171Y-86860109D01*
X213079703Y-86764855D01*
X213256235Y-86588631D01*
X213351891Y-86358265D01*
X213352109Y-86108829D01*
X213256855Y-85878297D01*
X213177000Y-85798302D01*
X213177000Y-79555728D01*
X213256235Y-79476631D01*
X213270178Y-79443052D01*
X213336145Y-79602703D01*
X213416000Y-79682698D01*
X213416000Y-86687272D01*
X213336765Y-86766369D01*
X213241109Y-86996735D01*
X213240891Y-87246171D01*
X213336145Y-87476703D01*
X213512369Y-87653235D01*
X213742735Y-87748891D01*
X213992171Y-87749109D01*
X214222703Y-87653855D01*
X214399235Y-87477631D01*
X214494891Y-87247265D01*
X214495109Y-86997829D01*
X214399855Y-86767297D01*
X214320000Y-86687302D01*
X214320000Y-79682728D01*
X214399235Y-79603631D01*
X214494891Y-79373265D01*
X214495109Y-79123829D01*
X214490535Y-79112759D01*
X216799001Y-81421226D01*
X216799001Y-88219001D01*
X216833407Y-88391974D01*
X216923992Y-88527543D01*
X216923891Y-88643171D01*
X217019145Y-88873703D01*
X217195369Y-89050235D01*
X217425735Y-89145891D01*
X217675171Y-89146109D01*
X217905703Y-89050855D01*
X218082235Y-88874631D01*
X218177891Y-88644265D01*
X218178109Y-88394829D01*
X218082855Y-88164297D01*
X217906631Y-87987765D01*
X217703001Y-87903211D01*
X217703001Y-87270974D01*
X225494042Y-87270974D01*
X225615183Y-87503000D01*
X226822000Y-87503000D01*
X226822000Y-86295531D01*
X226589973Y-86175032D01*
X226060510Y-86423179D01*
X225666312Y-86855053D01*
X225494042Y-87270974D01*
X217703001Y-87270974D01*
X217703001Y-86763866D01*
X217703369Y-86764235D01*
X217933735Y-86859891D01*
X218183171Y-86860109D01*
X218413703Y-86764855D01*
X218590235Y-86588631D01*
X218685891Y-86358265D01*
X218685990Y-86245234D01*
X219336053Y-85595171D01*
X221749891Y-85595171D01*
X221845145Y-85825703D01*
X222021369Y-86002235D01*
X222251735Y-86097891D01*
X222501171Y-86098109D01*
X222731703Y-86002855D01*
X222811698Y-85923000D01*
X230190776Y-85923000D01*
X231069000Y-86801224D01*
X231069000Y-91604376D01*
X230686006Y-91987370D01*
X230686006Y-91846400D01*
X230663205Y-91725221D01*
X230591588Y-91613926D01*
X230482314Y-91539262D01*
X230352600Y-91512994D01*
X228625400Y-91512994D01*
X228504221Y-91535795D01*
X228392926Y-91607412D01*
X228318262Y-91716686D01*
X228291994Y-91846400D01*
X228291994Y-93573600D01*
X228314795Y-93694779D01*
X228386412Y-93806074D01*
X228495686Y-93880738D01*
X228625400Y-93907006D01*
X230352600Y-93907006D01*
X230473779Y-93884205D01*
X230585074Y-93812588D01*
X230659738Y-93703314D01*
X230686006Y-93573600D01*
X230686006Y-93145410D01*
X230775573Y-93127594D01*
X230922212Y-93029612D01*
X231840612Y-92111212D01*
X231938594Y-91964573D01*
X231973000Y-91791600D01*
X231973000Y-86614000D01*
X231938594Y-86441027D01*
X231840612Y-86294388D01*
X230804328Y-85258104D01*
X230804326Y-85258101D01*
X230697612Y-85151388D01*
X230550973Y-85053406D01*
X230378000Y-85019000D01*
X222811728Y-85019000D01*
X222732631Y-84939765D01*
X222502265Y-84844109D01*
X222252829Y-84843891D01*
X222022297Y-84939145D01*
X221845765Y-85115369D01*
X221750109Y-85345735D01*
X221749891Y-85595171D01*
X219336053Y-85595171D01*
X221294224Y-83637000D01*
X222704272Y-83637000D01*
X222783369Y-83716235D01*
X223013735Y-83811891D01*
X223263171Y-83812109D01*
X223493703Y-83716855D01*
X223670235Y-83540631D01*
X223765891Y-83310265D01*
X223766109Y-83060829D01*
X223670855Y-82830297D01*
X223494631Y-82653765D01*
X223264265Y-82558109D01*
X223014829Y-82557891D01*
X222784297Y-82653145D01*
X222704302Y-82733000D01*
X221107000Y-82733000D01*
X220934027Y-82767406D01*
X220787388Y-82865388D01*
X218046787Y-85605989D01*
X217934829Y-85605891D01*
X217704297Y-85701145D01*
X217703001Y-85702439D01*
X217703001Y-81234001D01*
X217668595Y-81061028D01*
X217620802Y-80989501D01*
X217570613Y-80914388D01*
X214556621Y-77900397D01*
X214409982Y-77802415D01*
X214237009Y-77768009D01*
X206676162Y-77768009D01*
X206747891Y-77595265D01*
X206748109Y-77345829D01*
X206652855Y-77115297D01*
X206476631Y-76938765D01*
X206246265Y-76843109D01*
X205996829Y-76842891D01*
X205766297Y-76938145D01*
X205686302Y-77018000D01*
X204523728Y-77018000D01*
X204444631Y-76938765D01*
X204214265Y-76843109D01*
X203964829Y-76842891D01*
X203734297Y-76938145D01*
X203665135Y-77007186D01*
X203604855Y-76861297D01*
X203428631Y-76684765D01*
X203198265Y-76589109D01*
X202948829Y-76588891D01*
X202718297Y-76684145D01*
X202541765Y-76860369D01*
X202446109Y-77090735D01*
X202445891Y-77340171D01*
X202541145Y-77570703D01*
X202623592Y-77653294D01*
X202655406Y-77813237D01*
X202753388Y-77959876D01*
X203011531Y-78218019D01*
X189347243Y-78218019D01*
X188587011Y-77457787D01*
X188587109Y-77345829D01*
X188491855Y-77115297D01*
X188315631Y-76938765D01*
X188085265Y-76843109D01*
X187835829Y-76842891D01*
X187605297Y-76938145D01*
X187444103Y-77099058D01*
X187444109Y-77091829D01*
X187348855Y-76861297D01*
X187172631Y-76684765D01*
X186942265Y-76589109D01*
X186692829Y-76588891D01*
X186462297Y-76684145D01*
X186285765Y-76860369D01*
X186190109Y-77090735D01*
X186189891Y-77340171D01*
X166982057Y-77340171D01*
X166982057Y-74658159D01*
X167426864Y-75230054D01*
X167521768Y-75301464D01*
X167610412Y-75317647D01*
X174214412Y-75190647D01*
X174334273Y-75153681D01*
X177636273Y-72994681D01*
X177721163Y-72893005D01*
X177739047Y-72804689D01*
X177739047Y-70612000D01*
X183704000Y-70612000D01*
X183704000Y-74295000D01*
X183766952Y-74611479D01*
X183863448Y-74755895D01*
X183863448Y-75095448D01*
X183897854Y-75268421D01*
X183995836Y-75415060D01*
X184800839Y-76220063D01*
X184947478Y-76318045D01*
X185120451Y-76352451D01*
X188320804Y-76352451D01*
X188446369Y-76478235D01*
X188676735Y-76573891D01*
X188926171Y-76574109D01*
X189156703Y-76478855D01*
X189333235Y-76302631D01*
X189428891Y-76072265D01*
X189429109Y-75822829D01*
X189333855Y-75592297D01*
X189157631Y-75415765D01*
X188927265Y-75320109D01*
X188677829Y-75319891D01*
X188447297Y-75415145D01*
X188413933Y-75448451D01*
X185307675Y-75448451D01*
X184889916Y-75030692D01*
X185115777Y-74879777D01*
X185295048Y-74611479D01*
X185358000Y-74295000D01*
X185358000Y-70993000D01*
X200087000Y-70993000D01*
X200087000Y-74295000D01*
X200149952Y-74611479D01*
X200246709Y-74756286D01*
X200255145Y-74776703D01*
X200270890Y-74792476D01*
X200329223Y-74879777D01*
X200335000Y-74883637D01*
X200335000Y-75311000D01*
X200369406Y-75483973D01*
X200467388Y-75630612D01*
X201210388Y-76373612D01*
X201357027Y-76471594D01*
X201530000Y-76506000D01*
X204623272Y-76506000D01*
X204702369Y-76585235D01*
X204932735Y-76680891D01*
X205182171Y-76681109D01*
X205412703Y-76585855D01*
X205420400Y-76578171D01*
X228734891Y-76578171D01*
X228830145Y-76808703D01*
X229006369Y-76985235D01*
X229236735Y-77080891D01*
X229349766Y-77080990D01*
X231285414Y-79016638D01*
X231370145Y-79221703D01*
X231546369Y-79398235D01*
X231776735Y-79493891D01*
X232026171Y-79494109D01*
X232256703Y-79398855D01*
X232433235Y-79222631D01*
X232528891Y-78992265D01*
X232529109Y-78742829D01*
X232433855Y-78512297D01*
X232257631Y-78335765D01*
X232027265Y-78240109D01*
X231787123Y-78239899D01*
X229989011Y-76441787D01*
X229989109Y-76329829D01*
X229893855Y-76099297D01*
X229717631Y-75922765D01*
X229487265Y-75827109D01*
X229237829Y-75826891D01*
X229007297Y-75922145D01*
X228830765Y-76098369D01*
X228735109Y-76328735D01*
X228734891Y-76578171D01*
X205420400Y-76578171D01*
X205589235Y-76409631D01*
X205684891Y-76179265D01*
X205685109Y-75929829D01*
X205589855Y-75699297D01*
X205413631Y-75522765D01*
X205183265Y-75427109D01*
X204933829Y-75426891D01*
X204703297Y-75522145D01*
X204623302Y-75602000D01*
X201717224Y-75602000D01*
X201239000Y-75123776D01*
X201239000Y-75053354D01*
X201498777Y-74879777D01*
X201678048Y-74611479D01*
X201741000Y-74295000D01*
X201741000Y-71335554D01*
X202907555Y-70169000D01*
X203200000Y-70169000D01*
X203516479Y-70106048D01*
X203784777Y-69926777D01*
X203964048Y-69658479D01*
X204027000Y-69342000D01*
X203964048Y-69025521D01*
X203784777Y-68757223D01*
X203516479Y-68577952D01*
X203200000Y-68515000D01*
X202565000Y-68515000D01*
X202248521Y-68577952D01*
X201980223Y-68757222D01*
X200329223Y-70408223D01*
X200149952Y-70676521D01*
X200087000Y-70993000D01*
X185358000Y-70993000D01*
X185358000Y-70954554D01*
X186016554Y-70296000D01*
X187198000Y-70296000D01*
X187514479Y-70233048D01*
X187782777Y-70053777D01*
X187962048Y-69785479D01*
X188025000Y-69469000D01*
X187962048Y-69152521D01*
X187782777Y-68884223D01*
X187514479Y-68704952D01*
X187198000Y-68642000D01*
X185674000Y-68642000D01*
X185357521Y-68704952D01*
X185089223Y-68884223D01*
X183946223Y-70027223D01*
X183766952Y-70295521D01*
X183704000Y-70612000D01*
X177739047Y-70612000D01*
X177739047Y-67973104D01*
X186238501Y-67973104D01*
X186275648Y-68188217D01*
X186703972Y-68331112D01*
X187154375Y-68299217D01*
X187422352Y-68188217D01*
X187459499Y-67973104D01*
X186849000Y-67362605D01*
X186238501Y-67973104D01*
X177739047Y-67973104D01*
X177739047Y-67037972D01*
X185700888Y-67037972D01*
X185732783Y-67488375D01*
X185843783Y-67756352D01*
X186058896Y-67793499D01*
X186669395Y-67183000D01*
X187028605Y-67183000D01*
X187639104Y-67793499D01*
X187854217Y-67756352D01*
X187990856Y-67346779D01*
X188021857Y-67346779D01*
X188147495Y-67650846D01*
X188379930Y-67883688D01*
X188683778Y-68009856D01*
X189012779Y-68010143D01*
X189102420Y-67973104D01*
X202351501Y-67973104D01*
X202388648Y-68188217D01*
X202816972Y-68331112D01*
X203267375Y-68299217D01*
X203535352Y-68188217D01*
X203572499Y-67973104D01*
X202962000Y-67362605D01*
X202351501Y-67973104D01*
X189102420Y-67973104D01*
X189316846Y-67884505D01*
X189549688Y-67652070D01*
X189675856Y-67348222D01*
X189676126Y-67037972D01*
X201813888Y-67037972D01*
X201845783Y-67488375D01*
X201956783Y-67756352D01*
X202171896Y-67793499D01*
X202782395Y-67183000D01*
X203141605Y-67183000D01*
X203752104Y-67793499D01*
X203967217Y-67756352D01*
X204103856Y-67346779D01*
X204134857Y-67346779D01*
X204260495Y-67650846D01*
X204492930Y-67883688D01*
X204796778Y-68009856D01*
X205125779Y-68010143D01*
X205429846Y-67884505D01*
X205662688Y-67652070D01*
X205788856Y-67348222D01*
X205789143Y-67019221D01*
X205663505Y-66715154D01*
X205431070Y-66482312D01*
X205127222Y-66356144D01*
X204798221Y-66355857D01*
X204494154Y-66481495D01*
X204261312Y-66713930D01*
X204135144Y-67017778D01*
X204134857Y-67346779D01*
X204103856Y-67346779D01*
X204110112Y-67328028D01*
X204078217Y-66877625D01*
X203967217Y-66609648D01*
X203752104Y-66572501D01*
X203141605Y-67183000D01*
X202782395Y-67183000D01*
X202171896Y-66572501D01*
X201956783Y-66609648D01*
X201813888Y-67037972D01*
X189676126Y-67037972D01*
X189676143Y-67019221D01*
X189550505Y-66715154D01*
X189318070Y-66482312D01*
X189102732Y-66392896D01*
X202351501Y-66392896D01*
X202962000Y-67003395D01*
X203572499Y-66392896D01*
X203535352Y-66177783D01*
X203107028Y-66034888D01*
X202656625Y-66066783D01*
X202388648Y-66177783D01*
X202351501Y-66392896D01*
X189102732Y-66392896D01*
X189014222Y-66356144D01*
X188685221Y-66355857D01*
X188381154Y-66481495D01*
X188148312Y-66713930D01*
X188022144Y-67017778D01*
X188021857Y-67346779D01*
X187990856Y-67346779D01*
X187997112Y-67328028D01*
X187965217Y-66877625D01*
X187854217Y-66609648D01*
X187639104Y-66572501D01*
X187028605Y-67183000D01*
X186669395Y-67183000D01*
X186058896Y-66572501D01*
X185843783Y-66609648D01*
X185700888Y-67037972D01*
X177739047Y-67037972D01*
X177739047Y-66392896D01*
X186238501Y-66392896D01*
X186849000Y-67003395D01*
X187459499Y-66392896D01*
X187422352Y-66177783D01*
X186994028Y-66034888D01*
X186543625Y-66066783D01*
X186275648Y-66177783D01*
X186238501Y-66392896D01*
X177739047Y-66392896D01*
X177739047Y-66327689D01*
X177735038Y-66285215D01*
X177227038Y-63618215D01*
X177166762Y-63502409D01*
X177092363Y-63451573D01*
X177004047Y-63433689D01*
X175226047Y-63433689D01*
X175118558Y-63460751D01*
X175049240Y-63518323D01*
X175007781Y-63598327D01*
X174245781Y-66265327D01*
X174237047Y-66327689D01*
X174237047Y-71815689D01*
X168399271Y-71815689D01*
X166982057Y-70398475D01*
X166982057Y-68148945D01*
X170161549Y-64969452D01*
X170286626Y-64782260D01*
X170330549Y-64561452D01*
X170286626Y-64340644D01*
X170236179Y-64265144D01*
X170408250Y-64194046D01*
X170584782Y-64017822D01*
X170671387Y-63809253D01*
X171805036Y-64942902D01*
X171804938Y-65054860D01*
X171900192Y-65285392D01*
X172076416Y-65461924D01*
X172306782Y-65557580D01*
X172556218Y-65557798D01*
X172786750Y-65462544D01*
X172963282Y-65286320D01*
X173058938Y-65055954D01*
X173059156Y-64806518D01*
X172963902Y-64575986D01*
X172787678Y-64399454D01*
X172557312Y-64303798D01*
X172444281Y-64303699D01*
X170773058Y-62632476D01*
X170773156Y-62520518D01*
X170756899Y-62481171D01*
X215399891Y-62481171D01*
X215495145Y-62711703D01*
X215671369Y-62888235D01*
X215901735Y-62983891D01*
X216151171Y-62984109D01*
X216272444Y-62934000D01*
X216540769Y-62934000D01*
X216540769Y-72513416D01*
X216511765Y-72542369D01*
X216416109Y-72772735D01*
X216415891Y-73022171D01*
X216511145Y-73252703D01*
X216687369Y-73429235D01*
X216917735Y-73524891D01*
X217167171Y-73525109D01*
X217397703Y-73429855D01*
X217574235Y-73253631D01*
X217669891Y-73023265D01*
X217669957Y-72947969D01*
X217694769Y-72823231D01*
X217694769Y-62934000D01*
X220099584Y-62934000D01*
X220219735Y-62983891D01*
X220469171Y-62984109D01*
X220590444Y-62934000D01*
X226059995Y-62934000D01*
X226060000Y-62934001D01*
X226280808Y-62890078D01*
X226468001Y-62765001D01*
X229134998Y-60098003D01*
X229135001Y-60098001D01*
X229260078Y-59910808D01*
X229267989Y-59871038D01*
X229304001Y-59690000D01*
X229304000Y-59689995D01*
X229304000Y-58157416D01*
X229353891Y-58037265D01*
X229354109Y-57787829D01*
X229258855Y-57557297D01*
X229082631Y-57380765D01*
X228852265Y-57285109D01*
X228602829Y-57284891D01*
X228372297Y-57380145D01*
X228195765Y-57556369D01*
X228100109Y-57786735D01*
X228099891Y-58036171D01*
X228150000Y-58157444D01*
X228150000Y-59450999D01*
X225820998Y-61780000D01*
X220590416Y-61780000D01*
X220470265Y-61730109D01*
X220220829Y-61729891D01*
X220099556Y-61780000D01*
X216272416Y-61780000D01*
X216152265Y-61730109D01*
X215902829Y-61729891D01*
X215672297Y-61825145D01*
X215495765Y-62001369D01*
X215400109Y-62231735D01*
X215399891Y-62481171D01*
X170756899Y-62481171D01*
X170677902Y-62289986D01*
X170501678Y-62113454D01*
X170271312Y-62017798D01*
X170021876Y-62017580D01*
X169791344Y-62112834D01*
X169701545Y-62202476D01*
X169612678Y-62113454D01*
X169382312Y-62017798D01*
X169132876Y-62017580D01*
X168902344Y-62112834D01*
X168867097Y-62148020D01*
X168867097Y-62056739D01*
X168832691Y-61883766D01*
X168734709Y-61737127D01*
X166376035Y-59378453D01*
X166229396Y-59280471D01*
X166056423Y-59246065D01*
X164363025Y-59246065D01*
X163483782Y-58366822D01*
X163567891Y-58164265D01*
X163568109Y-57914829D01*
X163472855Y-57684297D01*
X163296631Y-57507765D01*
X163066265Y-57412109D01*
X162816829Y-57411891D01*
X162586297Y-57507145D01*
X162409765Y-57683369D01*
X162314109Y-57913735D01*
X162313891Y-58163171D01*
X155519000Y-58163171D01*
X155519000Y-53654224D01*
X156143225Y-53030000D01*
X177619272Y-53030000D01*
X177698369Y-53109235D01*
X177928735Y-53204891D01*
X178178171Y-53205109D01*
X178408703Y-53109855D01*
X178585235Y-52933631D01*
X178680891Y-52703265D01*
X178681109Y-52453829D01*
X178585855Y-52223297D01*
X178409631Y-52046765D01*
X178179265Y-51951109D01*
X178043817Y-51950991D01*
X178077235Y-51917631D01*
X178172891Y-51687265D01*
X178173109Y-51437829D01*
X178077855Y-51207297D01*
X177901631Y-51030765D01*
X177671265Y-50935109D01*
X177421829Y-50934891D01*
X177191297Y-51030145D01*
X177111302Y-51110000D01*
X155448000Y-51110000D01*
X155275027Y-51144406D01*
X155128388Y-51242387D01*
X155059369Y-51311407D01*
X153731388Y-52639388D01*
X153633406Y-52786027D01*
X153599000Y-52959000D01*
X153599000Y-110009934D01*
X153551255Y-109990109D01*
X153438225Y-109990010D01*
X153360000Y-109911786D01*
X153360000Y-52765224D01*
X155635225Y-50490000D01*
X182946776Y-50490000D01*
X188983989Y-56527213D01*
X188983891Y-56639171D01*
X189079145Y-56869703D01*
X189255369Y-57046235D01*
X189485735Y-57141891D01*
X189735171Y-57142109D01*
X189965703Y-57046855D01*
X190142235Y-56870631D01*
X190237891Y-56640265D01*
X190238109Y-56390829D01*
X190142855Y-56160297D01*
X189966631Y-55983765D01*
X189736265Y-55888109D01*
X189623234Y-55888010D01*
X189028922Y-55293698D01*
X207152547Y-55293698D01*
X207462692Y-56044306D01*
X208036473Y-56619090D01*
X208786539Y-56930545D01*
X209598698Y-56931253D01*
X210349306Y-56621108D01*
X210924090Y-56047327D01*
X211235545Y-55297261D01*
X211236253Y-54485102D01*
X210926108Y-53734494D01*
X210352327Y-53159710D01*
X209602261Y-52848255D01*
X208790102Y-52847547D01*
X208039494Y-53157692D01*
X207464710Y-53731473D01*
X207153255Y-54481539D01*
X207152547Y-55293698D01*
X189028922Y-55293698D01*
X183453612Y-49718388D01*
X183306973Y-49620406D01*
X183134000Y-49586000D01*
X155448000Y-49586000D01*
X155275027Y-49620406D01*
X155128387Y-49718388D01*
X152588388Y-52258388D01*
X152490406Y-52405027D01*
X152456000Y-52578000D01*
X142517000Y-52578000D01*
X142517000Y-48537000D01*
X235943000Y-48537000D01*
X235943000Y-93218000D01*
X235943000Y-93218000D01*
G37*
X235943000Y-93218000D02*
X235948322Y-93244756D01*
X235948322Y-93272040D01*
X236083664Y-93952451D01*
X236093000Y-93974990D01*
X236093000Y-99573010D01*
X236083664Y-99595549D01*
X235948322Y-100275960D01*
X235948322Y-100303244D01*
X235943000Y-100330000D01*
X235943000Y-107188000D01*
X235948322Y-107214756D01*
X235948322Y-107242040D01*
X236083664Y-107922451D01*
X236093000Y-107944990D01*
X236093000Y-113543010D01*
X236083664Y-113565549D01*
X235948322Y-114245960D01*
X235948322Y-114273244D01*
X235943000Y-114300000D01*
X235943000Y-119103000D01*
X142517000Y-119103000D01*
X142517000Y-118099877D01*
X193356728Y-118099877D01*
X193516495Y-118418632D01*
X194307217Y-118728595D01*
X195156366Y-118712367D01*
X195865505Y-118418632D01*
X196025272Y-118099877D01*
X194691000Y-116765605D01*
X193356728Y-118099877D01*
X142517000Y-118099877D01*
X142517000Y-113281898D01*
X146395747Y-113281898D01*
X146705892Y-114032506D01*
X147279673Y-114607290D01*
X148029739Y-114918745D01*
X148841898Y-114919453D01*
X149592506Y-114609308D01*
X150167290Y-114035527D01*
X150478745Y-113285461D01*
X150479453Y-112473302D01*
X150169308Y-111722694D01*
X149595527Y-111147910D01*
X148845461Y-110836455D01*
X148033302Y-110835747D01*
X147282694Y-111145892D01*
X146707910Y-111719673D01*
X146396455Y-112469739D01*
X146395747Y-113281898D01*
X142517000Y-113281898D01*
X142517000Y-55293698D01*
X146395747Y-55293698D01*
X146705892Y-56044306D01*
X147279673Y-56619090D01*
X148029739Y-56930545D01*
X148841898Y-56931253D01*
X149592506Y-56621108D01*
X150167290Y-56047327D01*
X150478745Y-55297261D01*
X150479453Y-54485102D01*
X150169308Y-53734494D01*
X149595527Y-53159710D01*
X148845461Y-52848255D01*
X148033302Y-52847547D01*
X147282694Y-53157692D01*
X146707910Y-53731473D01*
X146396455Y-54481539D01*
X146395747Y-55293698D01*
X142517000Y-55293698D01*
X142517000Y-52578000D01*
X152456000Y-52578000D01*
X152456000Y-110099010D01*
X152490406Y-110271983D01*
X152588388Y-110418622D01*
X152798979Y-110629213D01*
X152798881Y-110741171D01*
X152894135Y-110971703D01*
X153070359Y-111148235D01*
X153300725Y-111243891D01*
X153550161Y-111244109D01*
X153599000Y-111223929D01*
X153599000Y-112800772D01*
X153633406Y-112973745D01*
X153731388Y-113120384D01*
X154214616Y-113603613D01*
X154361255Y-113701594D01*
X154534228Y-113736000D01*
X154759272Y-113736000D01*
X154838369Y-113815235D01*
X155068735Y-113910891D01*
X155318171Y-113911109D01*
X155548703Y-113815855D01*
X155725235Y-113639631D01*
X155820891Y-113409265D01*
X155821109Y-113159829D01*
X155725855Y-112929297D01*
X155549631Y-112752765D01*
X155319265Y-112657109D01*
X155069829Y-112656891D01*
X154839297Y-112752145D01*
X154759302Y-112832000D01*
X154721453Y-112832000D01*
X154503000Y-112613548D01*
X154503000Y-109725171D01*
X157812045Y-109725171D01*
X157907299Y-109955703D01*
X157987154Y-110035698D01*
X157987154Y-112465154D01*
X158021560Y-112638127D01*
X158119542Y-112784766D01*
X162367387Y-117032612D01*
X162514027Y-117130594D01*
X162687000Y-117165000D01*
X177528272Y-117165000D01*
X177607369Y-117244235D01*
X177837735Y-117339891D01*
X178087171Y-117340109D01*
X178317703Y-117244855D01*
X178494235Y-117068631D01*
X178589891Y-116838265D01*
X178590109Y-116588829D01*
X178494855Y-116358297D01*
X178339048Y-116202217D01*
X192548405Y-116202217D01*
X192564633Y-117051366D01*
X192858368Y-117760505D01*
X193177123Y-117920272D01*
X194511395Y-116586000D01*
X194870605Y-116586000D01*
X196204877Y-117920272D01*
X196523632Y-117760505D01*
X196833595Y-116969783D01*
X196817367Y-116120634D01*
X196523632Y-115411495D01*
X196204877Y-115251728D01*
X194870605Y-116586000D01*
X194511395Y-116586000D01*
X193177123Y-115251728D01*
X192858368Y-115411495D01*
X192548405Y-116202217D01*
X178339048Y-116202217D01*
X178318631Y-116181765D01*
X178088265Y-116086109D01*
X177838829Y-116085891D01*
X177608297Y-116181145D01*
X177528302Y-116261000D01*
X162874225Y-116261000D01*
X161685348Y-115072123D01*
X193356728Y-115072123D01*
X194691000Y-116406395D01*
X196025272Y-115072123D01*
X195865505Y-114753368D01*
X195074783Y-114443405D01*
X194225634Y-114459633D01*
X193516495Y-114753368D01*
X193356728Y-115072123D01*
X161685348Y-115072123D01*
X158891154Y-112277930D01*
X158891154Y-110635697D01*
X175025762Y-110635697D01*
X175234956Y-111141985D01*
X175621974Y-111529679D01*
X176127896Y-111739756D01*
X176675701Y-111740234D01*
X176797286Y-111689996D01*
X185759334Y-111689996D01*
X188037669Y-113968331D01*
X188468179Y-114255988D01*
X188976000Y-114357000D01*
X191627574Y-114357000D01*
X191748782Y-114407330D01*
X192296813Y-114407808D01*
X192803311Y-114198528D01*
X193191166Y-113811349D01*
X193401330Y-113305218D01*
X193401350Y-113281898D01*
X207152547Y-113281898D01*
X207462692Y-114032506D01*
X208036473Y-114607290D01*
X208786539Y-114918745D01*
X209598698Y-114919453D01*
X210349306Y-114609308D01*
X210924090Y-114035527D01*
X211235545Y-113285461D01*
X211236253Y-112473302D01*
X210926108Y-111722694D01*
X210352327Y-111147910D01*
X209602261Y-110836455D01*
X208790102Y-110835747D01*
X208039494Y-111145892D01*
X207464710Y-111719673D01*
X207153255Y-112469739D01*
X207152547Y-113281898D01*
X193401350Y-113281898D01*
X193401808Y-112757187D01*
X193192528Y-112250689D01*
X192805349Y-111862834D01*
X192299218Y-111652670D01*
X191751187Y-111652192D01*
X191628222Y-111703000D01*
X189525662Y-111703000D01*
X187247327Y-109424665D01*
X186816817Y-109137008D01*
X186308996Y-109035996D01*
X176797939Y-109035996D01*
X176678104Y-108986236D01*
X176130299Y-108985758D01*
X175624011Y-109194952D01*
X175236317Y-109581970D01*
X175026240Y-110087892D01*
X175025762Y-110635697D01*
X158891154Y-110635697D01*
X158891154Y-110035728D01*
X158970389Y-109956631D01*
X159066045Y-109726265D01*
X159066147Y-109609567D01*
X159156747Y-109473974D01*
X159191153Y-109301001D01*
X159191153Y-108671402D01*
X190946243Y-108671402D01*
X191109948Y-109067597D01*
X191412809Y-109370987D01*
X191661013Y-109474050D01*
X191414403Y-109575948D01*
X191111013Y-109878809D01*
X190946617Y-110274718D01*
X190946243Y-110703402D01*
X191109948Y-111099597D01*
X191412809Y-111402987D01*
X191808718Y-111567383D01*
X192237402Y-111567757D01*
X192633597Y-111404052D01*
X192936987Y-111101191D01*
X193101383Y-110705282D01*
X193101757Y-110276598D01*
X192938052Y-109880403D01*
X192635191Y-109577013D01*
X192386987Y-109473950D01*
X192633597Y-109372052D01*
X192936987Y-109069191D01*
X193101383Y-108673282D01*
X193101757Y-108244598D01*
X192938052Y-107848403D01*
X192635191Y-107545013D01*
X192239282Y-107380617D01*
X191810598Y-107380243D01*
X191414403Y-107543948D01*
X191111013Y-107846809D01*
X190946617Y-108242718D01*
X190946243Y-108671402D01*
X159191153Y-108671402D01*
X159191153Y-106889930D01*
X191231675Y-106889930D01*
X191299735Y-107130931D01*
X191819034Y-107315767D01*
X192369538Y-107287805D01*
X192748265Y-107130931D01*
X192816325Y-106889930D01*
X192024000Y-106097605D01*
X191231675Y-106889930D01*
X159191153Y-106889930D01*
X159191153Y-105661171D01*
X160281891Y-105661171D01*
X160377145Y-105891703D01*
X160553369Y-106068235D01*
X160783735Y-106163891D01*
X161033171Y-106164109D01*
X161263703Y-106068855D01*
X161343698Y-105989000D01*
X172085000Y-105989000D01*
X172257973Y-105954594D01*
X172324730Y-105909988D01*
X172463171Y-105910109D01*
X172693703Y-105814855D01*
X172795701Y-105713034D01*
X190626233Y-105713034D01*
X190654195Y-106263538D01*
X190811069Y-106642265D01*
X191052070Y-106710325D01*
X191844395Y-105918000D01*
X192203605Y-105918000D01*
X192995930Y-106710325D01*
X193236931Y-106642265D01*
X193421767Y-106122966D01*
X193393805Y-105572462D01*
X193236931Y-105193735D01*
X192995930Y-105125675D01*
X192203605Y-105918000D01*
X191844395Y-105918000D01*
X191052070Y-105125675D01*
X190811069Y-105193735D01*
X190626233Y-105713034D01*
X172795701Y-105713034D01*
X172870235Y-105638631D01*
X172965891Y-105408265D01*
X172966109Y-105158829D01*
X172878199Y-104946070D01*
X191231675Y-104946070D01*
X192024000Y-105738395D01*
X192816325Y-104946070D01*
X192748265Y-104705069D01*
X192228966Y-104520233D01*
X191678462Y-104548195D01*
X191299735Y-104705069D01*
X191231675Y-104946070D01*
X172878199Y-104946070D01*
X172870855Y-104928297D01*
X172694631Y-104751765D01*
X172464265Y-104656109D01*
X172214829Y-104655891D01*
X171984297Y-104751145D01*
X171807765Y-104927369D01*
X171742311Y-105085000D01*
X161343728Y-105085000D01*
X161264631Y-105005765D01*
X161034265Y-104910109D01*
X160784829Y-104909891D01*
X160554297Y-105005145D01*
X160377765Y-105181369D01*
X160282109Y-105411735D01*
X160281891Y-105661171D01*
X159191153Y-105661171D01*
X159191153Y-104338071D01*
X159810935Y-103718289D01*
X172277813Y-103718289D01*
X172441431Y-104114275D01*
X172744132Y-104417504D01*
X173139832Y-104581813D01*
X173568289Y-104582187D01*
X173964275Y-104418569D01*
X173999027Y-104383877D01*
X193356728Y-104383877D01*
X193516495Y-104702632D01*
X194307217Y-105012595D01*
X195156366Y-104996367D01*
X195865505Y-104702632D01*
X196025272Y-104383877D01*
X194691000Y-103049605D01*
X193356728Y-104383877D01*
X173999027Y-104383877D01*
X174267504Y-104115868D01*
X174431813Y-103720168D01*
X174432114Y-103375171D01*
X176029891Y-103375171D01*
X176125145Y-103605703D01*
X176301369Y-103782235D01*
X176531735Y-103877891D01*
X176781171Y-103878109D01*
X177011703Y-103782855D01*
X177091698Y-103703000D01*
X183769000Y-103703000D01*
X183941973Y-103668594D01*
X184088612Y-103570612D01*
X185173007Y-102486217D01*
X192548405Y-102486217D01*
X192564633Y-103335366D01*
X192858368Y-104044505D01*
X193177123Y-104204272D01*
X194511395Y-102870000D01*
X194870605Y-102870000D01*
X196204877Y-104204272D01*
X196523632Y-104044505D01*
X196833595Y-103253783D01*
X196817367Y-102404634D01*
X196673255Y-102056716D01*
X224386589Y-102056716D01*
X224571324Y-102503809D01*
X224913092Y-102846174D01*
X225359861Y-103031689D01*
X225843616Y-103032111D01*
X226192159Y-102888096D01*
X231212609Y-102888096D01*
X231297667Y-103143439D01*
X231867165Y-103351416D01*
X232472900Y-103325623D01*
X232912733Y-103143439D01*
X232997791Y-102888096D01*
X232105200Y-101995505D01*
X231212609Y-102888096D01*
X226192159Y-102888096D01*
X226290709Y-102847376D01*
X226633074Y-102505608D01*
X226818589Y-102058839D01*
X226819008Y-101577865D01*
X230569684Y-101577865D01*
X230595477Y-102183600D01*
X230777661Y-102623433D01*
X231033004Y-102708491D01*
X231925595Y-101815900D01*
X232284805Y-101815900D01*
X233177396Y-102708491D01*
X233432739Y-102623433D01*
X233640716Y-102053935D01*
X233614923Y-101448200D01*
X233432739Y-101008367D01*
X233177396Y-100923309D01*
X232284805Y-101815900D01*
X231925595Y-101815900D01*
X231033004Y-100923309D01*
X230777661Y-101008367D01*
X230569684Y-101577865D01*
X226819008Y-101577865D01*
X226819011Y-101575084D01*
X226634276Y-101127991D01*
X226292508Y-100785626D01*
X226191549Y-100743704D01*
X231212609Y-100743704D01*
X232105200Y-101636295D01*
X232997791Y-100743704D01*
X232912733Y-100488361D01*
X232343235Y-100280384D01*
X231737500Y-100306177D01*
X231297667Y-100488361D01*
X231212609Y-100743704D01*
X226191549Y-100743704D01*
X225845739Y-100600111D01*
X225361984Y-100599689D01*
X224914891Y-100784424D01*
X224572526Y-101126192D01*
X224387011Y-101572961D01*
X224386589Y-102056716D01*
X196673255Y-102056716D01*
X196523632Y-101695495D01*
X196204877Y-101535728D01*
X194870605Y-102870000D01*
X194511395Y-102870000D01*
X193177123Y-101535728D01*
X192858368Y-101695495D01*
X192548405Y-102486217D01*
X185173007Y-102486217D01*
X186303101Y-101356123D01*
X193356728Y-101356123D01*
X194691000Y-102690395D01*
X196025272Y-101356123D01*
X195865505Y-101037368D01*
X195074783Y-100727405D01*
X194225634Y-100743633D01*
X193516495Y-101037368D01*
X193356728Y-101356123D01*
X186303101Y-101356123D01*
X186575213Y-101084011D01*
X186687171Y-101084109D01*
X186917703Y-100988855D01*
X187094235Y-100812631D01*
X187189891Y-100582265D01*
X187190109Y-100332829D01*
X187094855Y-100102297D01*
X186918631Y-99925765D01*
X186688265Y-99830109D01*
X186438829Y-99829891D01*
X186208297Y-99925145D01*
X186031765Y-100101369D01*
X185936109Y-100331735D01*
X185936010Y-100444766D01*
X183581776Y-102799000D01*
X177091728Y-102799000D01*
X177012631Y-102719765D01*
X176782265Y-102624109D01*
X176532829Y-102623891D01*
X176302297Y-102719145D01*
X176125765Y-102895369D01*
X176030109Y-103125735D01*
X176029891Y-103375171D01*
X174432114Y-103375171D01*
X174432187Y-103291711D01*
X174382000Y-103170249D01*
X174382000Y-85671371D01*
X176614091Y-85671371D01*
X176709345Y-85901903D01*
X176885569Y-86078435D01*
X177115935Y-86174091D01*
X177365371Y-86174309D01*
X177486644Y-86124200D01*
X187492398Y-86124200D01*
X201826799Y-100458601D01*
X202013992Y-100583678D01*
X202234800Y-100627601D01*
X202234805Y-100627600D01*
X202471984Y-100627600D01*
X202592135Y-100677491D01*
X202841571Y-100677709D01*
X203072103Y-100582455D01*
X203248635Y-100406231D01*
X203344291Y-100175865D01*
X203344509Y-99926429D01*
X203249255Y-99695897D01*
X203073031Y-99519365D01*
X202842665Y-99423709D01*
X202593229Y-99423491D01*
X202473262Y-99473060D01*
X195961373Y-92961171D01*
X201937891Y-92961171D01*
X202033145Y-93191703D01*
X202209369Y-93368235D01*
X202439735Y-93463891D01*
X202552766Y-93463990D01*
X204531388Y-95442612D01*
X204678027Y-95540594D01*
X204851000Y-95575000D01*
X212544272Y-95575000D01*
X212623369Y-95654235D01*
X212853735Y-95749891D01*
X213103171Y-95750109D01*
X213114241Y-95745535D01*
X212456775Y-96403001D01*
X210865999Y-96403001D01*
X210693026Y-96437407D01*
X210557456Y-96527992D01*
X210441829Y-96527891D01*
X210211297Y-96623145D01*
X210034765Y-96799369D01*
X209939109Y-97029735D01*
X209938891Y-97279171D01*
X210034145Y-97509703D01*
X210210369Y-97686235D01*
X210440735Y-97781891D01*
X210690171Y-97782109D01*
X210920703Y-97686855D01*
X211097235Y-97510631D01*
X211181789Y-97307001D01*
X212518997Y-97307001D01*
X210585534Y-99240464D01*
X210465297Y-99290145D01*
X210288765Y-99466369D01*
X210193109Y-99696735D01*
X210192891Y-99946171D01*
X210288145Y-100176703D01*
X210464369Y-100353235D01*
X210694735Y-100448891D01*
X210944171Y-100449109D01*
X211174703Y-100353855D01*
X211351235Y-100177631D01*
X211401555Y-100056447D01*
X213897085Y-97560916D01*
X224386589Y-97560916D01*
X224571324Y-98008009D01*
X224913092Y-98350374D01*
X225359861Y-98535889D01*
X225843616Y-98536311D01*
X226192159Y-98392296D01*
X231212609Y-98392296D01*
X231297667Y-98647639D01*
X231867165Y-98855616D01*
X232472900Y-98829823D01*
X232912733Y-98647639D01*
X232997791Y-98392296D01*
X232105200Y-97499705D01*
X231212609Y-98392296D01*
X226192159Y-98392296D01*
X226290709Y-98351576D01*
X226633074Y-98009808D01*
X226818589Y-97563039D01*
X226819008Y-97082065D01*
X230569684Y-97082065D01*
X230595477Y-97687800D01*
X230777661Y-98127633D01*
X231033004Y-98212691D01*
X231925595Y-97320100D01*
X232284805Y-97320100D01*
X233177396Y-98212691D01*
X233432739Y-98127633D01*
X233640716Y-97558135D01*
X233614923Y-96952400D01*
X233432739Y-96512567D01*
X233177396Y-96427509D01*
X232284805Y-97320100D01*
X231925595Y-97320100D01*
X231033004Y-96427509D01*
X230777661Y-96512567D01*
X230569684Y-97082065D01*
X226819008Y-97082065D01*
X226819011Y-97079284D01*
X226634276Y-96632191D01*
X226292508Y-96289826D01*
X226191549Y-96247904D01*
X231212609Y-96247904D01*
X232105200Y-97140495D01*
X232997791Y-96247904D01*
X232912733Y-95992561D01*
X232343235Y-95784584D01*
X231737500Y-95810377D01*
X231297667Y-95992561D01*
X231212609Y-96247904D01*
X226191549Y-96247904D01*
X225845739Y-96104311D01*
X225361984Y-96103889D01*
X224914891Y-96288624D01*
X224572526Y-96630392D01*
X224387011Y-97077161D01*
X224386589Y-97560916D01*
X213897085Y-97560916D01*
X216831001Y-94627000D01*
X224387681Y-94627000D01*
X224387686Y-94627001D01*
X224608494Y-94583078D01*
X224795687Y-94458001D01*
X225930791Y-93322896D01*
X226083794Y-93551881D01*
X226470052Y-93809971D01*
X226925675Y-93900600D01*
X226972325Y-93900600D01*
X227427948Y-93809971D01*
X227814206Y-93551881D01*
X228072296Y-93165623D01*
X228162925Y-92710000D01*
X228072296Y-92254377D01*
X227814206Y-91868119D01*
X227427948Y-91610029D01*
X226972325Y-91519400D01*
X226925675Y-91519400D01*
X226470052Y-91610029D01*
X226083794Y-91868119D01*
X225906806Y-92133000D01*
X225727686Y-92133000D01*
X225506878Y-92176922D01*
X225319685Y-92301999D01*
X225319683Y-92302002D01*
X224148684Y-93473000D01*
X217169000Y-93473000D01*
X217169000Y-91292469D01*
X217218891Y-91172318D01*
X217219109Y-90922882D01*
X217123855Y-90692350D01*
X216947631Y-90515818D01*
X216771381Y-90442633D01*
X217786367Y-90442633D01*
X217786367Y-90984367D01*
X217820773Y-91157340D01*
X217918755Y-91303979D01*
X219644388Y-93029613D01*
X219776670Y-93118001D01*
X219791027Y-93127594D01*
X219964000Y-93162000D01*
X220037272Y-93162000D01*
X220116369Y-93241235D01*
X220346735Y-93336891D01*
X220596171Y-93337109D01*
X220826703Y-93241855D01*
X221003235Y-93065631D01*
X221098891Y-92835265D01*
X221099109Y-92585829D01*
X221003855Y-92355297D01*
X220827631Y-92178765D01*
X220597265Y-92083109D01*
X220347829Y-92082891D01*
X220117297Y-92178145D01*
X220094313Y-92201089D01*
X218690367Y-90797143D01*
X218690367Y-90177857D01*
X219597624Y-89270601D01*
X226169876Y-89270601D01*
X226083794Y-89328119D01*
X225825704Y-89714377D01*
X225735075Y-90170000D01*
X225825704Y-90625623D01*
X226083794Y-91011881D01*
X226470052Y-91269971D01*
X226925675Y-91360600D01*
X226972325Y-91360600D01*
X227427948Y-91269971D01*
X227814206Y-91011881D01*
X228072296Y-90625623D01*
X228162925Y-90170000D01*
X228275075Y-90170000D01*
X228365704Y-90625623D01*
X228623794Y-91011881D01*
X229010052Y-91269971D01*
X229465675Y-91360600D01*
X229512325Y-91360600D01*
X229967948Y-91269971D01*
X230354206Y-91011881D01*
X230612296Y-90625623D01*
X230702925Y-90170000D01*
X230612296Y-89714377D01*
X230354206Y-89328119D01*
X229967948Y-89070029D01*
X229512325Y-88979400D01*
X229465675Y-88979400D01*
X229010052Y-89070029D01*
X228623794Y-89328119D01*
X228365704Y-89714377D01*
X228275075Y-90170000D01*
X228162925Y-90170000D01*
X228072296Y-89714377D01*
X227814206Y-89328119D01*
X227728124Y-89270601D01*
X228300399Y-89270601D01*
X228473372Y-89236195D01*
X228620011Y-89138213D01*
X229025234Y-88732991D01*
X229465675Y-88820600D01*
X229512325Y-88820600D01*
X229967948Y-88729971D01*
X230354206Y-88471881D01*
X230612296Y-88085623D01*
X230702925Y-87630000D01*
X230612296Y-87174377D01*
X230354206Y-86788119D01*
X229967948Y-86530029D01*
X229512325Y-86439400D01*
X229465675Y-86439400D01*
X229010052Y-86530029D01*
X228623794Y-86788119D01*
X228365704Y-87174377D01*
X228365134Y-87177240D01*
X228231688Y-86855053D01*
X227837490Y-86423179D01*
X227308027Y-86175032D01*
X227076000Y-86295531D01*
X227076000Y-87503000D01*
X227096000Y-87503000D01*
X227096000Y-87757000D01*
X227076000Y-87757000D01*
X227076000Y-87777000D01*
X226822000Y-87777000D01*
X226822000Y-87757000D01*
X225615183Y-87757000D01*
X225494042Y-87989026D01*
X225650429Y-88366601D01*
X219410399Y-88366601D01*
X219237426Y-88401007D01*
X219090787Y-88498988D01*
X218051143Y-89538633D01*
X215257686Y-89538633D01*
X215257686Y-89329686D01*
X215223280Y-89156713D01*
X215125298Y-89010074D01*
X214876011Y-88760787D01*
X214876109Y-88648829D01*
X214780855Y-88418297D01*
X214604631Y-88241765D01*
X214374265Y-88146109D01*
X214124829Y-88145891D01*
X213894297Y-88241145D01*
X213717765Y-88417369D01*
X213622109Y-88647735D01*
X213621891Y-88897171D01*
X213717145Y-89127703D01*
X213893369Y-89304235D01*
X214123735Y-89399891D01*
X214236766Y-89399990D01*
X214353686Y-89516910D01*
X214353686Y-94506090D01*
X213601900Y-95257876D01*
X213605891Y-95248265D01*
X213606109Y-94998829D01*
X213510855Y-94768297D01*
X213334631Y-94591765D01*
X213104265Y-94496109D01*
X212854829Y-94495891D01*
X212624297Y-94591145D01*
X212544302Y-94671000D01*
X205038224Y-94671000D01*
X203192011Y-92824787D01*
X203192109Y-92712829D01*
X203096855Y-92482297D01*
X202920631Y-92305765D01*
X202690265Y-92210109D01*
X202440829Y-92209891D01*
X202210297Y-92305145D01*
X202033765Y-92481369D01*
X201938109Y-92711735D01*
X201937891Y-92961171D01*
X195961373Y-92961171D01*
X189569552Y-86569350D01*
X197467255Y-86569350D01*
X197491977Y-86774180D01*
X197883931Y-86900309D01*
X198294318Y-86866842D01*
X198518023Y-86774180D01*
X198542745Y-86569350D01*
X198005000Y-86031605D01*
X197467255Y-86569350D01*
X189569552Y-86569350D01*
X188731133Y-85730931D01*
X196956691Y-85730931D01*
X196990158Y-86141318D01*
X197082820Y-86365023D01*
X197287650Y-86389745D01*
X197825395Y-85852000D01*
X198184605Y-85852000D01*
X198722350Y-86389745D01*
X198927180Y-86365023D01*
X198942467Y-86317517D01*
X199092650Y-86467961D01*
X199359756Y-86578874D01*
X199648975Y-86579126D01*
X199916275Y-86468680D01*
X200120961Y-86264350D01*
X200231874Y-85997244D01*
X200232126Y-85708025D01*
X200121680Y-85440725D01*
X199917350Y-85236039D01*
X199650244Y-85125126D01*
X199361025Y-85124874D01*
X199093725Y-85235320D01*
X198945524Y-85383263D01*
X198927180Y-85338977D01*
X198722350Y-85314255D01*
X198184605Y-85852000D01*
X197825395Y-85852000D01*
X197287650Y-85314255D01*
X197082820Y-85338977D01*
X196956691Y-85730931D01*
X188731133Y-85730931D01*
X188139401Y-85139199D01*
X188132593Y-85134650D01*
X197467255Y-85134650D01*
X198005000Y-85672395D01*
X198542745Y-85134650D01*
X198518023Y-84929820D01*
X198126069Y-84803691D01*
X197715682Y-84837158D01*
X197491977Y-84929820D01*
X197467255Y-85134650D01*
X188132593Y-85134650D01*
X187952208Y-85014122D01*
X187731400Y-84970199D01*
X187731395Y-84970200D01*
X177486616Y-84970200D01*
X177366465Y-84920309D01*
X177117029Y-84920091D01*
X176886497Y-85015345D01*
X176709965Y-85191569D01*
X176614309Y-85421935D01*
X176614091Y-85671371D01*
X174382000Y-85671371D01*
X174382000Y-82594398D01*
X174606224Y-82370173D01*
X174726275Y-82320569D01*
X175029504Y-82017868D01*
X175193813Y-81622168D01*
X175193986Y-81423975D01*
X191066874Y-81423975D01*
X191177320Y-81691275D01*
X191381650Y-81895961D01*
X191648756Y-82006874D01*
X191937975Y-82007126D01*
X191961634Y-81997350D01*
X192756255Y-81997350D01*
X192780977Y-82202180D01*
X193172931Y-82328309D01*
X193583318Y-82294842D01*
X193807023Y-82202180D01*
X193831745Y-81997350D01*
X193294000Y-81459605D01*
X192756255Y-81997350D01*
X191961634Y-81997350D01*
X192205275Y-81896680D01*
X192353476Y-81748737D01*
X192371820Y-81793023D01*
X192576650Y-81817745D01*
X193114395Y-81280000D01*
X193473605Y-81280000D01*
X194011350Y-81817745D01*
X194216180Y-81793023D01*
X194342309Y-81401069D01*
X194308842Y-80990682D01*
X194216180Y-80766977D01*
X194011350Y-80742255D01*
X193473605Y-81280000D01*
X193114395Y-81280000D01*
X192576650Y-80742255D01*
X192371820Y-80766977D01*
X192356533Y-80814483D01*
X192206350Y-80664039D01*
X191962181Y-80562650D01*
X192756255Y-80562650D01*
X193294000Y-81100395D01*
X193831745Y-80562650D01*
X193807023Y-80357820D01*
X193415069Y-80231691D01*
X193004682Y-80265158D01*
X192780977Y-80357820D01*
X192756255Y-80562650D01*
X191962181Y-80562650D01*
X191939244Y-80553126D01*
X191650025Y-80552874D01*
X191382725Y-80663320D01*
X191178039Y-80867650D01*
X191067126Y-81134756D01*
X191066874Y-81423975D01*
X175193986Y-81423975D01*
X175194187Y-81193711D01*
X175030569Y-80797725D01*
X174727868Y-80494496D01*
X174332168Y-80330187D01*
X173903711Y-80329813D01*
X173507725Y-80493431D01*
X173204496Y-80796132D01*
X173154097Y-80917505D01*
X172628801Y-81442801D01*
X172406176Y-81775984D01*
X172328000Y-82169000D01*
X172328000Y-103169869D01*
X172278187Y-103289832D01*
X172277813Y-103718289D01*
X159810935Y-103718289D01*
X160842224Y-102687000D01*
X166824272Y-102687000D01*
X166903369Y-102766235D01*
X167133735Y-102861891D01*
X167383171Y-102862109D01*
X167613703Y-102766855D01*
X167790235Y-102590631D01*
X167885891Y-102360265D01*
X167886109Y-102110829D01*
X167790855Y-101880297D01*
X167614631Y-101703765D01*
X167384265Y-101608109D01*
X167134829Y-101607891D01*
X166904297Y-101703145D01*
X166824302Y-101783000D01*
X160655000Y-101783000D01*
X160482027Y-101817406D01*
X160335388Y-101915388D01*
X158419541Y-103831235D01*
X158321559Y-103977874D01*
X158287153Y-104150847D01*
X158287153Y-108985390D01*
X158084451Y-109069145D01*
X157907919Y-109245369D01*
X157812263Y-109475735D01*
X157812045Y-109725171D01*
X154503000Y-109725171D01*
X154503000Y-95582093D01*
X156937796Y-95582093D01*
X157116606Y-96014846D01*
X157447412Y-96346230D01*
X157879853Y-96525795D01*
X158348093Y-96526204D01*
X158780846Y-96347394D01*
X159112230Y-96016588D01*
X159291795Y-95584147D01*
X159292204Y-95115907D01*
X159113394Y-94683154D01*
X158782588Y-94351770D01*
X158350147Y-94172205D01*
X157881907Y-94171796D01*
X157449154Y-94350606D01*
X157117770Y-94681412D01*
X156938205Y-95113853D01*
X156937796Y-95582093D01*
X154503000Y-95582093D01*
X154503000Y-92892958D01*
X157250647Y-92892958D01*
X157330920Y-93144259D01*
X157886279Y-93345718D01*
X158476458Y-93319315D01*
X158899080Y-93144259D01*
X158979353Y-92892958D01*
X158115000Y-92028605D01*
X157250647Y-92892958D01*
X154503000Y-92892958D01*
X154503000Y-91620279D01*
X156618282Y-91620279D01*
X156644685Y-92210458D01*
X156819741Y-92633080D01*
X157071042Y-92713353D01*
X157935395Y-91849000D01*
X158294605Y-91849000D01*
X159158958Y-92713353D01*
X159410259Y-92633080D01*
X159611718Y-92077721D01*
X159585315Y-91487542D01*
X159410259Y-91064920D01*
X159158958Y-90984647D01*
X158294605Y-91849000D01*
X157935395Y-91849000D01*
X157071042Y-90984647D01*
X156819741Y-91064920D01*
X156618282Y-91620279D01*
X154503000Y-91620279D01*
X154503000Y-90805042D01*
X157250647Y-90805042D01*
X158115000Y-91669395D01*
X158979353Y-90805042D01*
X158899080Y-90553741D01*
X158343721Y-90352282D01*
X157753542Y-90378685D01*
X157330920Y-90553741D01*
X157250647Y-90805042D01*
X154503000Y-90805042D01*
X154503000Y-53146224D01*
X155635224Y-52014000D01*
X177111272Y-52014000D01*
X177190369Y-52093235D01*
X177269276Y-52126000D01*
X155956000Y-52126000D01*
X155783027Y-52160406D01*
X155636388Y-52258388D01*
X155521790Y-52372986D01*
X155521787Y-52372988D01*
X154747388Y-53147388D01*
X154649406Y-53294027D01*
X154615000Y-53467000D01*
X154615000Y-87107145D01*
X154529009Y-87314235D01*
X154528791Y-87563671D01*
X154624045Y-87794203D01*
X154800269Y-87970735D01*
X155030635Y-88066391D01*
X155280071Y-88066609D01*
X155510603Y-87971355D01*
X155687135Y-87795131D01*
X155782791Y-87564765D01*
X155783009Y-87315329D01*
X155687755Y-87084797D01*
X155519000Y-86915747D01*
X155519000Y-58163171D01*
X162313891Y-58163171D01*
X162409145Y-58393703D01*
X162491592Y-58476294D01*
X162523406Y-58636237D01*
X162621388Y-58782876D01*
X163856189Y-60017677D01*
X164002828Y-60115659D01*
X164175801Y-60150065D01*
X165869199Y-60150065D01*
X167138602Y-61419468D01*
X166997344Y-61477834D01*
X166820812Y-61654058D01*
X166725156Y-61884424D01*
X166724938Y-62133860D01*
X166820192Y-62364392D01*
X166900047Y-62444387D01*
X166900047Y-63473465D01*
X165053834Y-65319678D01*
X164941876Y-65319580D01*
X164711344Y-65414834D01*
X164534812Y-65591058D01*
X164439156Y-65821424D01*
X164438938Y-66070860D01*
X164534192Y-66301392D01*
X164710416Y-66477924D01*
X164940782Y-66573580D01*
X165190218Y-66573798D01*
X165420750Y-66478544D01*
X165597282Y-66302320D01*
X165692938Y-66071954D01*
X165693037Y-65958923D01*
X167671659Y-63980301D01*
X167769641Y-63833662D01*
X167773739Y-63813058D01*
X167804047Y-63660689D01*
X167804047Y-62765779D01*
X167883242Y-62957445D01*
X168059466Y-63133977D01*
X168289832Y-63229633D01*
X168539268Y-63229851D01*
X168769800Y-63134597D01*
X168805047Y-63099411D01*
X168805047Y-63219465D01*
X164907388Y-67117124D01*
X164809406Y-67263763D01*
X164775000Y-67436736D01*
X164775000Y-75398012D01*
X162684888Y-77488124D01*
X162586906Y-77634763D01*
X162555097Y-77794680D01*
X162473265Y-77876369D01*
X162377609Y-78106735D01*
X162377391Y-78356171D01*
X162472645Y-78586703D01*
X162648869Y-78763235D01*
X162879235Y-78858891D01*
X163128671Y-78859109D01*
X163359203Y-78763855D01*
X163535735Y-78587631D01*
X163631391Y-78357265D01*
X163631609Y-78107829D01*
X163547409Y-77904051D01*
X165444661Y-76006799D01*
X165546612Y-75938677D01*
X165644594Y-75792038D01*
X165679000Y-75619065D01*
X165679000Y-67623960D01*
X169301548Y-64001412D01*
X169301548Y-64197451D01*
X166019055Y-67479943D01*
X165997056Y-67494642D01*
X165871979Y-67681835D01*
X165828057Y-67902643D01*
X165828057Y-78529442D01*
X164357534Y-79999964D01*
X164237297Y-80049645D01*
X164060765Y-80225869D01*
X163965109Y-80456235D01*
X163964891Y-80705671D01*
X164060145Y-80936203D01*
X164236369Y-81112735D01*
X164466735Y-81208391D01*
X164716171Y-81208609D01*
X164946703Y-81113355D01*
X165123235Y-80937131D01*
X165173555Y-80815947D01*
X166813055Y-79176446D01*
X166813058Y-79176444D01*
X166938135Y-78989251D01*
X166946335Y-78948027D01*
X166982058Y-78768443D01*
X166982057Y-78768438D01*
X166982057Y-77340171D01*
X186189891Y-77340171D01*
X186285145Y-77570703D01*
X186461369Y-77747235D01*
X186691735Y-77842891D01*
X186804766Y-77842990D01*
X188401416Y-79439640D01*
X188548055Y-79537622D01*
X188721028Y-79572028D01*
X192019113Y-79572028D01*
X192024000Y-79573000D01*
X192028887Y-79572028D01*
X204122923Y-79572028D01*
X206685000Y-82134105D01*
X206685000Y-91386272D01*
X206605765Y-91465369D01*
X206510109Y-91695735D01*
X206509891Y-91945171D01*
X206605145Y-92175703D01*
X206781369Y-92352235D01*
X207011735Y-92447891D01*
X207261171Y-92448109D01*
X207491703Y-92352855D01*
X207668235Y-92176631D01*
X207763891Y-91946265D01*
X207764109Y-91696829D01*
X207668855Y-91466297D01*
X207589000Y-91386302D01*
X207589000Y-81946881D01*
X207554594Y-81773908D01*
X207456612Y-81627269D01*
X204951362Y-79122019D01*
X205468275Y-79122019D01*
X206986887Y-80640632D01*
X207133526Y-80738613D01*
X207306499Y-80773019D01*
X207387795Y-80773019D01*
X207779989Y-81165213D01*
X207779891Y-81277171D01*
X207875145Y-81507703D01*
X208051369Y-81684235D01*
X208281735Y-81779891D01*
X208531171Y-81780109D01*
X208761703Y-81684855D01*
X208938235Y-81508631D01*
X209033891Y-81278265D01*
X209034109Y-81028829D01*
X208938855Y-80798297D01*
X208762631Y-80621765D01*
X208532265Y-80526109D01*
X208419234Y-80526010D01*
X207894631Y-80001407D01*
X207747992Y-79903425D01*
X207575019Y-79869019D01*
X207493724Y-79869019D01*
X206296713Y-78672009D01*
X212287288Y-78672009D01*
X212193765Y-78765369D01*
X212098109Y-78995735D01*
X212097891Y-79245171D01*
X212193145Y-79475703D01*
X212273000Y-79555698D01*
X212273000Y-85798272D01*
X212193765Y-85877369D01*
X212098109Y-86107735D01*
X212097891Y-86357171D01*
X212193145Y-86587703D01*
X212369369Y-86764235D01*
X212599735Y-86859891D01*
X212849171Y-86860109D01*
X213079703Y-86764855D01*
X213256235Y-86588631D01*
X213351891Y-86358265D01*
X213352109Y-86108829D01*
X213256855Y-85878297D01*
X213177000Y-85798302D01*
X213177000Y-79555728D01*
X213256235Y-79476631D01*
X213270178Y-79443052D01*
X213336145Y-79602703D01*
X213416000Y-79682698D01*
X213416000Y-86687272D01*
X213336765Y-86766369D01*
X213241109Y-86996735D01*
X213240891Y-87246171D01*
X213336145Y-87476703D01*
X213512369Y-87653235D01*
X213742735Y-87748891D01*
X213992171Y-87749109D01*
X214222703Y-87653855D01*
X214399235Y-87477631D01*
X214494891Y-87247265D01*
X214495109Y-86997829D01*
X214399855Y-86767297D01*
X214320000Y-86687302D01*
X214320000Y-79682728D01*
X214399235Y-79603631D01*
X214494891Y-79373265D01*
X214495109Y-79123829D01*
X214490535Y-79112759D01*
X216799001Y-81421226D01*
X216799001Y-88219001D01*
X216833407Y-88391974D01*
X216923992Y-88527543D01*
X216923891Y-88643171D01*
X217019145Y-88873703D01*
X217195369Y-89050235D01*
X217425735Y-89145891D01*
X217675171Y-89146109D01*
X217905703Y-89050855D01*
X218082235Y-88874631D01*
X218177891Y-88644265D01*
X218178109Y-88394829D01*
X218082855Y-88164297D01*
X217906631Y-87987765D01*
X217703001Y-87903211D01*
X217703001Y-87270974D01*
X225494042Y-87270974D01*
X225615183Y-87503000D01*
X226822000Y-87503000D01*
X226822000Y-86295531D01*
X226589973Y-86175032D01*
X226060510Y-86423179D01*
X225666312Y-86855053D01*
X225494042Y-87270974D01*
X217703001Y-87270974D01*
X217703001Y-86763866D01*
X217703369Y-86764235D01*
X217933735Y-86859891D01*
X218183171Y-86860109D01*
X218413703Y-86764855D01*
X218590235Y-86588631D01*
X218685891Y-86358265D01*
X218685990Y-86245234D01*
X219336053Y-85595171D01*
X221749891Y-85595171D01*
X221845145Y-85825703D01*
X222021369Y-86002235D01*
X222251735Y-86097891D01*
X222501171Y-86098109D01*
X222731703Y-86002855D01*
X222811698Y-85923000D01*
X230190776Y-85923000D01*
X231069000Y-86801224D01*
X231069000Y-91604376D01*
X230686006Y-91987370D01*
X230686006Y-91846400D01*
X230663205Y-91725221D01*
X230591588Y-91613926D01*
X230482314Y-91539262D01*
X230352600Y-91512994D01*
X228625400Y-91512994D01*
X228504221Y-91535795D01*
X228392926Y-91607412D01*
X228318262Y-91716686D01*
X228291994Y-91846400D01*
X228291994Y-93573600D01*
X228314795Y-93694779D01*
X228386412Y-93806074D01*
X228495686Y-93880738D01*
X228625400Y-93907006D01*
X230352600Y-93907006D01*
X230473779Y-93884205D01*
X230585074Y-93812588D01*
X230659738Y-93703314D01*
X230686006Y-93573600D01*
X230686006Y-93145410D01*
X230775573Y-93127594D01*
X230922212Y-93029612D01*
X231840612Y-92111212D01*
X231938594Y-91964573D01*
X231973000Y-91791600D01*
X231973000Y-86614000D01*
X231938594Y-86441027D01*
X231840612Y-86294388D01*
X230804328Y-85258104D01*
X230804326Y-85258101D01*
X230697612Y-85151388D01*
X230550973Y-85053406D01*
X230378000Y-85019000D01*
X222811728Y-85019000D01*
X222732631Y-84939765D01*
X222502265Y-84844109D01*
X222252829Y-84843891D01*
X222022297Y-84939145D01*
X221845765Y-85115369D01*
X221750109Y-85345735D01*
X221749891Y-85595171D01*
X219336053Y-85595171D01*
X221294224Y-83637000D01*
X222704272Y-83637000D01*
X222783369Y-83716235D01*
X223013735Y-83811891D01*
X223263171Y-83812109D01*
X223493703Y-83716855D01*
X223670235Y-83540631D01*
X223765891Y-83310265D01*
X223766109Y-83060829D01*
X223670855Y-82830297D01*
X223494631Y-82653765D01*
X223264265Y-82558109D01*
X223014829Y-82557891D01*
X222784297Y-82653145D01*
X222704302Y-82733000D01*
X221107000Y-82733000D01*
X220934027Y-82767406D01*
X220787388Y-82865388D01*
X218046787Y-85605989D01*
X217934829Y-85605891D01*
X217704297Y-85701145D01*
X217703001Y-85702439D01*
X217703001Y-81234001D01*
X217668595Y-81061028D01*
X217620802Y-80989501D01*
X217570613Y-80914388D01*
X214556621Y-77900397D01*
X214409982Y-77802415D01*
X214237009Y-77768009D01*
X206676162Y-77768009D01*
X206747891Y-77595265D01*
X206748109Y-77345829D01*
X206652855Y-77115297D01*
X206476631Y-76938765D01*
X206246265Y-76843109D01*
X205996829Y-76842891D01*
X205766297Y-76938145D01*
X205686302Y-77018000D01*
X204523728Y-77018000D01*
X204444631Y-76938765D01*
X204214265Y-76843109D01*
X203964829Y-76842891D01*
X203734297Y-76938145D01*
X203665135Y-77007186D01*
X203604855Y-76861297D01*
X203428631Y-76684765D01*
X203198265Y-76589109D01*
X202948829Y-76588891D01*
X202718297Y-76684145D01*
X202541765Y-76860369D01*
X202446109Y-77090735D01*
X202445891Y-77340171D01*
X202541145Y-77570703D01*
X202623592Y-77653294D01*
X202655406Y-77813237D01*
X202753388Y-77959876D01*
X203011531Y-78218019D01*
X189347243Y-78218019D01*
X188587011Y-77457787D01*
X188587109Y-77345829D01*
X188491855Y-77115297D01*
X188315631Y-76938765D01*
X188085265Y-76843109D01*
X187835829Y-76842891D01*
X187605297Y-76938145D01*
X187444103Y-77099058D01*
X187444109Y-77091829D01*
X187348855Y-76861297D01*
X187172631Y-76684765D01*
X186942265Y-76589109D01*
X186692829Y-76588891D01*
X186462297Y-76684145D01*
X186285765Y-76860369D01*
X186190109Y-77090735D01*
X186189891Y-77340171D01*
X166982057Y-77340171D01*
X166982057Y-74658159D01*
X167426864Y-75230054D01*
X167521768Y-75301464D01*
X167610412Y-75317647D01*
X174214412Y-75190647D01*
X174334273Y-75153681D01*
X177636273Y-72994681D01*
X177721163Y-72893005D01*
X177739047Y-72804689D01*
X177739047Y-70612000D01*
X183704000Y-70612000D01*
X183704000Y-74295000D01*
X183766952Y-74611479D01*
X183863448Y-74755895D01*
X183863448Y-75095448D01*
X183897854Y-75268421D01*
X183995836Y-75415060D01*
X184800839Y-76220063D01*
X184947478Y-76318045D01*
X185120451Y-76352451D01*
X188320804Y-76352451D01*
X188446369Y-76478235D01*
X188676735Y-76573891D01*
X188926171Y-76574109D01*
X189156703Y-76478855D01*
X189333235Y-76302631D01*
X189428891Y-76072265D01*
X189429109Y-75822829D01*
X189333855Y-75592297D01*
X189157631Y-75415765D01*
X188927265Y-75320109D01*
X188677829Y-75319891D01*
X188447297Y-75415145D01*
X188413933Y-75448451D01*
X185307675Y-75448451D01*
X184889916Y-75030692D01*
X185115777Y-74879777D01*
X185295048Y-74611479D01*
X185358000Y-74295000D01*
X185358000Y-70993000D01*
X200087000Y-70993000D01*
X200087000Y-74295000D01*
X200149952Y-74611479D01*
X200246709Y-74756286D01*
X200255145Y-74776703D01*
X200270890Y-74792476D01*
X200329223Y-74879777D01*
X200335000Y-74883637D01*
X200335000Y-75311000D01*
X200369406Y-75483973D01*
X200467388Y-75630612D01*
X201210388Y-76373612D01*
X201357027Y-76471594D01*
X201530000Y-76506000D01*
X204623272Y-76506000D01*
X204702369Y-76585235D01*
X204932735Y-76680891D01*
X205182171Y-76681109D01*
X205412703Y-76585855D01*
X205420400Y-76578171D01*
X228734891Y-76578171D01*
X228830145Y-76808703D01*
X229006369Y-76985235D01*
X229236735Y-77080891D01*
X229349766Y-77080990D01*
X231285414Y-79016638D01*
X231370145Y-79221703D01*
X231546369Y-79398235D01*
X231776735Y-79493891D01*
X232026171Y-79494109D01*
X232256703Y-79398855D01*
X232433235Y-79222631D01*
X232528891Y-78992265D01*
X232529109Y-78742829D01*
X232433855Y-78512297D01*
X232257631Y-78335765D01*
X232027265Y-78240109D01*
X231787123Y-78239899D01*
X229989011Y-76441787D01*
X229989109Y-76329829D01*
X229893855Y-76099297D01*
X229717631Y-75922765D01*
X229487265Y-75827109D01*
X229237829Y-75826891D01*
X229007297Y-75922145D01*
X228830765Y-76098369D01*
X228735109Y-76328735D01*
X228734891Y-76578171D01*
X205420400Y-76578171D01*
X205589235Y-76409631D01*
X205684891Y-76179265D01*
X205685109Y-75929829D01*
X205589855Y-75699297D01*
X205413631Y-75522765D01*
X205183265Y-75427109D01*
X204933829Y-75426891D01*
X204703297Y-75522145D01*
X204623302Y-75602000D01*
X201717224Y-75602000D01*
X201239000Y-75123776D01*
X201239000Y-75053354D01*
X201498777Y-74879777D01*
X201678048Y-74611479D01*
X201741000Y-74295000D01*
X201741000Y-71335554D01*
X202907555Y-70169000D01*
X203200000Y-70169000D01*
X203516479Y-70106048D01*
X203784777Y-69926777D01*
X203964048Y-69658479D01*
X204027000Y-69342000D01*
X203964048Y-69025521D01*
X203784777Y-68757223D01*
X203516479Y-68577952D01*
X203200000Y-68515000D01*
X202565000Y-68515000D01*
X202248521Y-68577952D01*
X201980223Y-68757222D01*
X200329223Y-70408223D01*
X200149952Y-70676521D01*
X200087000Y-70993000D01*
X185358000Y-70993000D01*
X185358000Y-70954554D01*
X186016554Y-70296000D01*
X187198000Y-70296000D01*
X187514479Y-70233048D01*
X187782777Y-70053777D01*
X187962048Y-69785479D01*
X188025000Y-69469000D01*
X187962048Y-69152521D01*
X187782777Y-68884223D01*
X187514479Y-68704952D01*
X187198000Y-68642000D01*
X185674000Y-68642000D01*
X185357521Y-68704952D01*
X185089223Y-68884223D01*
X183946223Y-70027223D01*
X183766952Y-70295521D01*
X183704000Y-70612000D01*
X177739047Y-70612000D01*
X177739047Y-67973104D01*
X186238501Y-67973104D01*
X186275648Y-68188217D01*
X186703972Y-68331112D01*
X187154375Y-68299217D01*
X187422352Y-68188217D01*
X187459499Y-67973104D01*
X186849000Y-67362605D01*
X186238501Y-67973104D01*
X177739047Y-67973104D01*
X177739047Y-67037972D01*
X185700888Y-67037972D01*
X185732783Y-67488375D01*
X185843783Y-67756352D01*
X186058896Y-67793499D01*
X186669395Y-67183000D01*
X187028605Y-67183000D01*
X187639104Y-67793499D01*
X187854217Y-67756352D01*
X187990856Y-67346779D01*
X188021857Y-67346779D01*
X188147495Y-67650846D01*
X188379930Y-67883688D01*
X188683778Y-68009856D01*
X189012779Y-68010143D01*
X189102420Y-67973104D01*
X202351501Y-67973104D01*
X202388648Y-68188217D01*
X202816972Y-68331112D01*
X203267375Y-68299217D01*
X203535352Y-68188217D01*
X203572499Y-67973104D01*
X202962000Y-67362605D01*
X202351501Y-67973104D01*
X189102420Y-67973104D01*
X189316846Y-67884505D01*
X189549688Y-67652070D01*
X189675856Y-67348222D01*
X189676126Y-67037972D01*
X201813888Y-67037972D01*
X201845783Y-67488375D01*
X201956783Y-67756352D01*
X202171896Y-67793499D01*
X202782395Y-67183000D01*
X203141605Y-67183000D01*
X203752104Y-67793499D01*
X203967217Y-67756352D01*
X204103856Y-67346779D01*
X204134857Y-67346779D01*
X204260495Y-67650846D01*
X204492930Y-67883688D01*
X204796778Y-68009856D01*
X205125779Y-68010143D01*
X205429846Y-67884505D01*
X205662688Y-67652070D01*
X205788856Y-67348222D01*
X205789143Y-67019221D01*
X205663505Y-66715154D01*
X205431070Y-66482312D01*
X205127222Y-66356144D01*
X204798221Y-66355857D01*
X204494154Y-66481495D01*
X204261312Y-66713930D01*
X204135144Y-67017778D01*
X204134857Y-67346779D01*
X204103856Y-67346779D01*
X204110112Y-67328028D01*
X204078217Y-66877625D01*
X203967217Y-66609648D01*
X203752104Y-66572501D01*
X203141605Y-67183000D01*
X202782395Y-67183000D01*
X202171896Y-66572501D01*
X201956783Y-66609648D01*
X201813888Y-67037972D01*
X189676126Y-67037972D01*
X189676143Y-67019221D01*
X189550505Y-66715154D01*
X189318070Y-66482312D01*
X189102732Y-66392896D01*
X202351501Y-66392896D01*
X202962000Y-67003395D01*
X203572499Y-66392896D01*
X203535352Y-66177783D01*
X203107028Y-66034888D01*
X202656625Y-66066783D01*
X202388648Y-66177783D01*
X202351501Y-66392896D01*
X189102732Y-66392896D01*
X189014222Y-66356144D01*
X188685221Y-66355857D01*
X188381154Y-66481495D01*
X188148312Y-66713930D01*
X188022144Y-67017778D01*
X188021857Y-67346779D01*
X187990856Y-67346779D01*
X187997112Y-67328028D01*
X187965217Y-66877625D01*
X187854217Y-66609648D01*
X187639104Y-66572501D01*
X187028605Y-67183000D01*
X186669395Y-67183000D01*
X186058896Y-66572501D01*
X185843783Y-66609648D01*
X185700888Y-67037972D01*
X177739047Y-67037972D01*
X177739047Y-66392896D01*
X186238501Y-66392896D01*
X186849000Y-67003395D01*
X187459499Y-66392896D01*
X187422352Y-66177783D01*
X186994028Y-66034888D01*
X186543625Y-66066783D01*
X186275648Y-66177783D01*
X186238501Y-66392896D01*
X177739047Y-66392896D01*
X177739047Y-66327689D01*
X177735038Y-66285215D01*
X177227038Y-63618215D01*
X177166762Y-63502409D01*
X177092363Y-63451573D01*
X177004047Y-63433689D01*
X175226047Y-63433689D01*
X175118558Y-63460751D01*
X175049240Y-63518323D01*
X175007781Y-63598327D01*
X174245781Y-66265327D01*
X174237047Y-66327689D01*
X174237047Y-71815689D01*
X168399271Y-71815689D01*
X166982057Y-70398475D01*
X166982057Y-68148945D01*
X170161549Y-64969452D01*
X170286626Y-64782260D01*
X170330549Y-64561452D01*
X170286626Y-64340644D01*
X170236179Y-64265144D01*
X170408250Y-64194046D01*
X170584782Y-64017822D01*
X170671387Y-63809253D01*
X171805036Y-64942902D01*
X171804938Y-65054860D01*
X171900192Y-65285392D01*
X172076416Y-65461924D01*
X172306782Y-65557580D01*
X172556218Y-65557798D01*
X172786750Y-65462544D01*
X172963282Y-65286320D01*
X173058938Y-65055954D01*
X173059156Y-64806518D01*
X172963902Y-64575986D01*
X172787678Y-64399454D01*
X172557312Y-64303798D01*
X172444281Y-64303699D01*
X170773058Y-62632476D01*
X170773156Y-62520518D01*
X170756899Y-62481171D01*
X215399891Y-62481171D01*
X215495145Y-62711703D01*
X215671369Y-62888235D01*
X215901735Y-62983891D01*
X216151171Y-62984109D01*
X216272444Y-62934000D01*
X216540769Y-62934000D01*
X216540769Y-72513416D01*
X216511765Y-72542369D01*
X216416109Y-72772735D01*
X216415891Y-73022171D01*
X216511145Y-73252703D01*
X216687369Y-73429235D01*
X216917735Y-73524891D01*
X217167171Y-73525109D01*
X217397703Y-73429855D01*
X217574235Y-73253631D01*
X217669891Y-73023265D01*
X217669957Y-72947969D01*
X217694769Y-72823231D01*
X217694769Y-62934000D01*
X220099584Y-62934000D01*
X220219735Y-62983891D01*
X220469171Y-62984109D01*
X220590444Y-62934000D01*
X226059995Y-62934000D01*
X226060000Y-62934001D01*
X226280808Y-62890078D01*
X226468001Y-62765001D01*
X229134998Y-60098003D01*
X229135001Y-60098001D01*
X229260078Y-59910808D01*
X229267989Y-59871038D01*
X229304001Y-59690000D01*
X229304000Y-59689995D01*
X229304000Y-58157416D01*
X229353891Y-58037265D01*
X229354109Y-57787829D01*
X229258855Y-57557297D01*
X229082631Y-57380765D01*
X228852265Y-57285109D01*
X228602829Y-57284891D01*
X228372297Y-57380145D01*
X228195765Y-57556369D01*
X228100109Y-57786735D01*
X228099891Y-58036171D01*
X228150000Y-58157444D01*
X228150000Y-59450999D01*
X225820998Y-61780000D01*
X220590416Y-61780000D01*
X220470265Y-61730109D01*
X220220829Y-61729891D01*
X220099556Y-61780000D01*
X216272416Y-61780000D01*
X216152265Y-61730109D01*
X215902829Y-61729891D01*
X215672297Y-61825145D01*
X215495765Y-62001369D01*
X215400109Y-62231735D01*
X215399891Y-62481171D01*
X170756899Y-62481171D01*
X170677902Y-62289986D01*
X170501678Y-62113454D01*
X170271312Y-62017798D01*
X170021876Y-62017580D01*
X169791344Y-62112834D01*
X169701545Y-62202476D01*
X169612678Y-62113454D01*
X169382312Y-62017798D01*
X169132876Y-62017580D01*
X168902344Y-62112834D01*
X168867097Y-62148020D01*
X168867097Y-62056739D01*
X168832691Y-61883766D01*
X168734709Y-61737127D01*
X166376035Y-59378453D01*
X166229396Y-59280471D01*
X166056423Y-59246065D01*
X164363025Y-59246065D01*
X163483782Y-58366822D01*
X163567891Y-58164265D01*
X163568109Y-57914829D01*
X163472855Y-57684297D01*
X163296631Y-57507765D01*
X163066265Y-57412109D01*
X162816829Y-57411891D01*
X162586297Y-57507145D01*
X162409765Y-57683369D01*
X162314109Y-57913735D01*
X162313891Y-58163171D01*
X155519000Y-58163171D01*
X155519000Y-53654224D01*
X156143225Y-53030000D01*
X177619272Y-53030000D01*
X177698369Y-53109235D01*
X177928735Y-53204891D01*
X178178171Y-53205109D01*
X178408703Y-53109855D01*
X178585235Y-52933631D01*
X178680891Y-52703265D01*
X178681109Y-52453829D01*
X178585855Y-52223297D01*
X178409631Y-52046765D01*
X178179265Y-51951109D01*
X178043817Y-51950991D01*
X178077235Y-51917631D01*
X178172891Y-51687265D01*
X178173109Y-51437829D01*
X178077855Y-51207297D01*
X177901631Y-51030765D01*
X177671265Y-50935109D01*
X177421829Y-50934891D01*
X177191297Y-51030145D01*
X177111302Y-51110000D01*
X155448000Y-51110000D01*
X155275027Y-51144406D01*
X155128388Y-51242387D01*
X155059369Y-51311407D01*
X153731388Y-52639388D01*
X153633406Y-52786027D01*
X153599000Y-52959000D01*
X153599000Y-110009934D01*
X153551255Y-109990109D01*
X153438225Y-109990010D01*
X153360000Y-109911786D01*
X153360000Y-52765224D01*
X155635225Y-50490000D01*
X182946776Y-50490000D01*
X188983989Y-56527213D01*
X188983891Y-56639171D01*
X189079145Y-56869703D01*
X189255369Y-57046235D01*
X189485735Y-57141891D01*
X189735171Y-57142109D01*
X189965703Y-57046855D01*
X190142235Y-56870631D01*
X190237891Y-56640265D01*
X190238109Y-56390829D01*
X190142855Y-56160297D01*
X189966631Y-55983765D01*
X189736265Y-55888109D01*
X189623234Y-55888010D01*
X189028922Y-55293698D01*
X207152547Y-55293698D01*
X207462692Y-56044306D01*
X208036473Y-56619090D01*
X208786539Y-56930545D01*
X209598698Y-56931253D01*
X210349306Y-56621108D01*
X210924090Y-56047327D01*
X211235545Y-55297261D01*
X211236253Y-54485102D01*
X210926108Y-53734494D01*
X210352327Y-53159710D01*
X209602261Y-52848255D01*
X208790102Y-52847547D01*
X208039494Y-53157692D01*
X207464710Y-53731473D01*
X207153255Y-54481539D01*
X207152547Y-55293698D01*
X189028922Y-55293698D01*
X183453612Y-49718388D01*
X183306973Y-49620406D01*
X183134000Y-49586000D01*
X155448000Y-49586000D01*
X155275027Y-49620406D01*
X155128387Y-49718388D01*
X152588388Y-52258388D01*
X152490406Y-52405027D01*
X152456000Y-52578000D01*
X142517000Y-52578000D01*
X142517000Y-48537000D01*
X235943000Y-48537000D01*
X235943000Y-93218000D01*
G36*
X254739000Y-89695881D02*
X254387284Y-89460872D01*
X253956000Y-89375084D01*
X253524716Y-89460872D01*
X253159091Y-89705175D01*
X253014608Y-89921409D01*
X252865232Y-89697852D01*
X252507717Y-89458969D01*
X252086000Y-89375084D01*
X251664283Y-89458969D01*
X251306768Y-89697852D01*
X251208500Y-89844921D01*
X251110232Y-89697852D01*
X250752717Y-89458969D01*
X250331000Y-89375084D01*
X249909283Y-89458969D01*
X249652789Y-89630352D01*
X249483218Y-89420177D01*
X248998251Y-89155729D01*
X248921112Y-89139887D01*
X248703000Y-89262212D01*
X248703000Y-90805000D01*
X248723000Y-90805000D01*
X248723000Y-91059000D01*
X248703000Y-91059000D01*
X248703000Y-92601788D01*
X248921112Y-92724113D01*
X248998251Y-92708271D01*
X249483218Y-92443823D01*
X249652789Y-92233648D01*
X249909283Y-92405031D01*
X250331000Y-92488916D01*
X250752717Y-92405031D01*
X251110232Y-92166148D01*
X251208500Y-92019079D01*
X251306768Y-92166148D01*
X251604000Y-92364751D01*
X251604000Y-102526775D01*
X249649406Y-104481369D01*
X249649406Y-103236000D01*
X249626605Y-103114821D01*
X249554988Y-103003526D01*
X249445714Y-102928862D01*
X249316000Y-102902594D01*
X248016000Y-102902594D01*
X247894821Y-102925395D01*
X247783526Y-102997012D01*
X247708862Y-103106286D01*
X247682594Y-103236000D01*
X247682594Y-104536000D01*
X247705395Y-104657179D01*
X247777012Y-104768474D01*
X247886286Y-104843138D01*
X248016000Y-104869406D01*
X249261369Y-104869406D01*
X246268584Y-107862192D01*
X246083158Y-107785196D01*
X245634809Y-107784805D01*
X245220440Y-107956019D01*
X244903133Y-108272772D01*
X244731196Y-108686842D01*
X244730805Y-109135191D01*
X244902019Y-109549560D01*
X245218772Y-109866867D01*
X245632842Y-110038804D01*
X246081191Y-110039195D01*
X246495560Y-109867981D01*
X246644055Y-109719745D01*
X247329861Y-109719745D01*
X247403995Y-109965864D01*
X247941223Y-110158965D01*
X248511454Y-110131778D01*
X248912005Y-109965864D01*
X248986139Y-109719745D01*
X248158000Y-108891605D01*
X247329861Y-109719745D01*
X246644055Y-109719745D01*
X246812867Y-109551228D01*
X246876230Y-109398634D01*
X246904136Y-109466005D01*
X247150255Y-109540139D01*
X247978395Y-108712000D01*
X248337605Y-108712000D01*
X249165745Y-109540139D01*
X249411864Y-109466005D01*
X249604965Y-108928777D01*
X249577778Y-108358546D01*
X249411864Y-107957995D01*
X249165745Y-107883861D01*
X248337605Y-108712000D01*
X247978395Y-108712000D01*
X247964252Y-108697858D01*
X248143858Y-108518252D01*
X248158000Y-108532395D01*
X248986139Y-107704255D01*
X248912005Y-107458136D01*
X248374777Y-107265035D01*
X248132645Y-107276579D01*
X252375613Y-103033612D01*
X252473594Y-102886973D01*
X252508000Y-102714000D01*
X252508000Y-92404842D01*
X252865232Y-92166148D01*
X253014608Y-91942591D01*
X253159091Y-92158825D01*
X253524716Y-92403128D01*
X253956000Y-92488916D01*
X254387284Y-92403128D01*
X254739000Y-92168119D01*
X254739000Y-119103000D01*
X240053000Y-119103000D01*
X240053000Y-117235191D01*
X241230805Y-117235191D01*
X241402019Y-117649560D01*
X241718772Y-117966867D01*
X242132842Y-118138804D01*
X242581191Y-118139195D01*
X242995560Y-117967981D01*
X243312867Y-117651228D01*
X243484804Y-117237158D01*
X243484848Y-117185681D01*
X246580849Y-117185681D01*
X246714082Y-117508131D01*
X246960571Y-117755051D01*
X247282789Y-117888847D01*
X247631681Y-117889151D01*
X247954131Y-117755918D01*
X248201051Y-117509429D01*
X248314924Y-117235191D01*
X250830805Y-117235191D01*
X251002019Y-117649560D01*
X251318772Y-117966867D01*
X251732842Y-118138804D01*
X252181191Y-118139195D01*
X252595560Y-117967981D01*
X252912867Y-117651228D01*
X253084804Y-117237158D01*
X253085195Y-116788809D01*
X252913981Y-116374440D01*
X252597228Y-116057133D01*
X252183158Y-115885196D01*
X251734809Y-115884805D01*
X251320440Y-116056019D01*
X251003133Y-116372772D01*
X250831196Y-116786842D01*
X250830805Y-117235191D01*
X248314924Y-117235191D01*
X248334847Y-117187211D01*
X248335151Y-116838319D01*
X248201918Y-116515869D01*
X247955429Y-116268949D01*
X247633211Y-116135153D01*
X247284319Y-116134849D01*
X246961869Y-116268082D01*
X246714949Y-116514571D01*
X246581153Y-116836789D01*
X246580849Y-117185681D01*
X243484848Y-117185681D01*
X243485195Y-116788809D01*
X243313981Y-116374440D01*
X242997228Y-116057133D01*
X242583158Y-115885196D01*
X242134809Y-115884805D01*
X241720440Y-116056019D01*
X241403133Y-116372772D01*
X241231196Y-116786842D01*
X241230805Y-117235191D01*
X240053000Y-117235191D01*
X240053000Y-114735191D01*
X251830805Y-114735191D01*
X252002019Y-115149560D01*
X252318772Y-115466867D01*
X252732842Y-115638804D01*
X253181191Y-115639195D01*
X253595560Y-115467981D01*
X253912867Y-115151228D01*
X254084804Y-114737158D01*
X254085195Y-114288809D01*
X253913981Y-113874440D01*
X253597228Y-113557133D01*
X253183158Y-113385196D01*
X252734809Y-113384805D01*
X252320440Y-113556019D01*
X252003133Y-113872772D01*
X251831196Y-114286842D01*
X251830805Y-114735191D01*
X240053000Y-114735191D01*
X240053000Y-114300000D01*
X240047678Y-114273244D01*
X240047678Y-114245960D01*
X239912336Y-113565549D01*
X239903000Y-113543010D01*
X239903000Y-112185681D01*
X246580849Y-112185681D01*
X246714082Y-112508131D01*
X246960571Y-112755051D01*
X247282789Y-112888847D01*
X247631681Y-112889151D01*
X247954131Y-112755918D01*
X248201051Y-112509429D01*
X248314924Y-112235191D01*
X249930805Y-112235191D01*
X250102019Y-112649560D01*
X250418772Y-112966867D01*
X250832842Y-113138804D01*
X251281191Y-113139195D01*
X251695560Y-112967981D01*
X252012867Y-112651228D01*
X252184804Y-112237158D01*
X252185195Y-111788809D01*
X252013981Y-111374440D01*
X251697228Y-111057133D01*
X251283158Y-110885196D01*
X250834809Y-110884805D01*
X250420440Y-111056019D01*
X250103133Y-111372772D01*
X249931196Y-111786842D01*
X249930805Y-112235191D01*
X248314924Y-112235191D01*
X248334847Y-112187211D01*
X248335151Y-111838319D01*
X248201918Y-111515869D01*
X247955429Y-111268949D01*
X247633211Y-111135153D01*
X247284319Y-111134849D01*
X246961869Y-111268082D01*
X246714949Y-111514571D01*
X246581153Y-111836789D01*
X246580849Y-112185681D01*
X239903000Y-112185681D01*
X239903000Y-107944990D01*
X239912336Y-107922451D01*
X240047678Y-107242040D01*
X240047678Y-107214756D01*
X240053000Y-107188000D01*
X240053000Y-104785016D01*
X245446590Y-104785016D01*
X245502271Y-105015611D01*
X245985078Y-105183622D01*
X246495428Y-105154083D01*
X246829729Y-105015611D01*
X246885410Y-104785016D01*
X246166000Y-104065605D01*
X245446590Y-104785016D01*
X240053000Y-104785016D01*
X240053000Y-103705078D01*
X244868378Y-103705078D01*
X244897917Y-104215428D01*
X245036389Y-104549729D01*
X245266984Y-104605410D01*
X245986395Y-103886000D01*
X246345605Y-103886000D01*
X247065016Y-104605410D01*
X247295611Y-104549729D01*
X247463622Y-104066922D01*
X247434083Y-103556572D01*
X247295611Y-103222271D01*
X247065016Y-103166590D01*
X246345605Y-103886000D01*
X245986395Y-103886000D01*
X245266984Y-103166590D01*
X245036389Y-103222271D01*
X244868378Y-103705078D01*
X240053000Y-103705078D01*
X240053000Y-102986984D01*
X245446590Y-102986984D01*
X246166000Y-103706395D01*
X246885410Y-102986984D01*
X246829729Y-102756389D01*
X246346922Y-102588378D01*
X245836572Y-102617917D01*
X245502271Y-102756389D01*
X245446590Y-102986984D01*
X240053000Y-102986984D01*
X240053000Y-100330000D01*
X240047678Y-100303244D01*
X240047678Y-100275960D01*
X239912336Y-99595549D01*
X239903000Y-99573010D01*
X239903000Y-93974990D01*
X239912336Y-93952451D01*
X240047678Y-93272040D01*
X240047678Y-93244756D01*
X240053000Y-93218000D01*
X240053000Y-91059000D01*
X247166000Y-91059000D01*
X247166000Y-91484000D01*
X247321931Y-92013916D01*
X247668782Y-92443823D01*
X248153749Y-92708271D01*
X248230888Y-92724113D01*
X248449000Y-92601788D01*
X248449000Y-91059000D01*
X247166000Y-91059000D01*
X240053000Y-91059000D01*
X240053000Y-90380000D01*
X247166000Y-90380000D01*
X247166000Y-90805000D01*
X248449000Y-90805000D01*
X248449000Y-89262212D01*
X248230888Y-89139887D01*
X248153749Y-89155729D01*
X247668782Y-89420177D01*
X247321931Y-89850084D01*
X247166000Y-90380000D01*
X240053000Y-90380000D01*
X240053000Y-88415000D01*
X254739000Y-88415000D01*
X254739000Y-89695881D01*
X254739000Y-89695881D01*
G37*
X254739000Y-89695881D02*
X254387284Y-89460872D01*
X253956000Y-89375084D01*
X253524716Y-89460872D01*
X253159091Y-89705175D01*
X253014608Y-89921409D01*
X252865232Y-89697852D01*
X252507717Y-89458969D01*
X252086000Y-89375084D01*
X251664283Y-89458969D01*
X251306768Y-89697852D01*
X251208500Y-89844921D01*
X251110232Y-89697852D01*
X250752717Y-89458969D01*
X250331000Y-89375084D01*
X249909283Y-89458969D01*
X249652789Y-89630352D01*
X249483218Y-89420177D01*
X248998251Y-89155729D01*
X248921112Y-89139887D01*
X248703000Y-89262212D01*
X248703000Y-90805000D01*
X248723000Y-90805000D01*
X248723000Y-91059000D01*
X248703000Y-91059000D01*
X248703000Y-92601788D01*
X248921112Y-92724113D01*
X248998251Y-92708271D01*
X249483218Y-92443823D01*
X249652789Y-92233648D01*
X249909283Y-92405031D01*
X250331000Y-92488916D01*
X250752717Y-92405031D01*
X251110232Y-92166148D01*
X251208500Y-92019079D01*
X251306768Y-92166148D01*
X251604000Y-92364751D01*
X251604000Y-102526775D01*
X249649406Y-104481369D01*
X249649406Y-103236000D01*
X249626605Y-103114821D01*
X249554988Y-103003526D01*
X249445714Y-102928862D01*
X249316000Y-102902594D01*
X248016000Y-102902594D01*
X247894821Y-102925395D01*
X247783526Y-102997012D01*
X247708862Y-103106286D01*
X247682594Y-103236000D01*
X247682594Y-104536000D01*
X247705395Y-104657179D01*
X247777012Y-104768474D01*
X247886286Y-104843138D01*
X248016000Y-104869406D01*
X249261369Y-104869406D01*
X246268584Y-107862192D01*
X246083158Y-107785196D01*
X245634809Y-107784805D01*
X245220440Y-107956019D01*
X244903133Y-108272772D01*
X244731196Y-108686842D01*
X244730805Y-109135191D01*
X244902019Y-109549560D01*
X245218772Y-109866867D01*
X245632842Y-110038804D01*
X246081191Y-110039195D01*
X246495560Y-109867981D01*
X246644055Y-109719745D01*
X247329861Y-109719745D01*
X247403995Y-109965864D01*
X247941223Y-110158965D01*
X248511454Y-110131778D01*
X248912005Y-109965864D01*
X248986139Y-109719745D01*
X248158000Y-108891605D01*
X247329861Y-109719745D01*
X246644055Y-109719745D01*
X246812867Y-109551228D01*
X246876230Y-109398634D01*
X246904136Y-109466005D01*
X247150255Y-109540139D01*
X247978395Y-108712000D01*
X248337605Y-108712000D01*
X249165745Y-109540139D01*
X249411864Y-109466005D01*
X249604965Y-108928777D01*
X249577778Y-108358546D01*
X249411864Y-107957995D01*
X249165745Y-107883861D01*
X248337605Y-108712000D01*
X247978395Y-108712000D01*
X247964252Y-108697858D01*
X248143858Y-108518252D01*
X248158000Y-108532395D01*
X248986139Y-107704255D01*
X248912005Y-107458136D01*
X248374777Y-107265035D01*
X248132645Y-107276579D01*
X252375613Y-103033612D01*
X252473594Y-102886973D01*
X252508000Y-102714000D01*
X252508000Y-92404842D01*
X252865232Y-92166148D01*
X253014608Y-91942591D01*
X253159091Y-92158825D01*
X253524716Y-92403128D01*
X253956000Y-92488916D01*
X254387284Y-92403128D01*
X254739000Y-92168119D01*
X254739000Y-119103000D01*
X240053000Y-119103000D01*
X240053000Y-117235191D01*
X241230805Y-117235191D01*
X241402019Y-117649560D01*
X241718772Y-117966867D01*
X242132842Y-118138804D01*
X242581191Y-118139195D01*
X242995560Y-117967981D01*
X243312867Y-117651228D01*
X243484804Y-117237158D01*
X243484848Y-117185681D01*
X246580849Y-117185681D01*
X246714082Y-117508131D01*
X246960571Y-117755051D01*
X247282789Y-117888847D01*
X247631681Y-117889151D01*
X247954131Y-117755918D01*
X248201051Y-117509429D01*
X248314924Y-117235191D01*
X250830805Y-117235191D01*
X251002019Y-117649560D01*
X251318772Y-117966867D01*
X251732842Y-118138804D01*
X252181191Y-118139195D01*
X252595560Y-117967981D01*
X252912867Y-117651228D01*
X253084804Y-117237158D01*
X253085195Y-116788809D01*
X252913981Y-116374440D01*
X252597228Y-116057133D01*
X252183158Y-115885196D01*
X251734809Y-115884805D01*
X251320440Y-116056019D01*
X251003133Y-116372772D01*
X250831196Y-116786842D01*
X250830805Y-117235191D01*
X248314924Y-117235191D01*
X248334847Y-117187211D01*
X248335151Y-116838319D01*
X248201918Y-116515869D01*
X247955429Y-116268949D01*
X247633211Y-116135153D01*
X247284319Y-116134849D01*
X246961869Y-116268082D01*
X246714949Y-116514571D01*
X246581153Y-116836789D01*
X246580849Y-117185681D01*
X243484848Y-117185681D01*
X243485195Y-116788809D01*
X243313981Y-116374440D01*
X242997228Y-116057133D01*
X242583158Y-115885196D01*
X242134809Y-115884805D01*
X241720440Y-116056019D01*
X241403133Y-116372772D01*
X241231196Y-116786842D01*
X241230805Y-117235191D01*
X240053000Y-117235191D01*
X240053000Y-114735191D01*
X251830805Y-114735191D01*
X252002019Y-115149560D01*
X252318772Y-115466867D01*
X252732842Y-115638804D01*
X253181191Y-115639195D01*
X253595560Y-115467981D01*
X253912867Y-115151228D01*
X254084804Y-114737158D01*
X254085195Y-114288809D01*
X253913981Y-113874440D01*
X253597228Y-113557133D01*
X253183158Y-113385196D01*
X252734809Y-113384805D01*
X252320440Y-113556019D01*
X252003133Y-113872772D01*
X251831196Y-114286842D01*
X251830805Y-114735191D01*
X240053000Y-114735191D01*
X240053000Y-114300000D01*
X240047678Y-114273244D01*
X240047678Y-114245960D01*
X239912336Y-113565549D01*
X239903000Y-113543010D01*
X239903000Y-112185681D01*
X246580849Y-112185681D01*
X246714082Y-112508131D01*
X246960571Y-112755051D01*
X247282789Y-112888847D01*
X247631681Y-112889151D01*
X247954131Y-112755918D01*
X248201051Y-112509429D01*
X248314924Y-112235191D01*
X249930805Y-112235191D01*
X250102019Y-112649560D01*
X250418772Y-112966867D01*
X250832842Y-113138804D01*
X251281191Y-113139195D01*
X251695560Y-112967981D01*
X252012867Y-112651228D01*
X252184804Y-112237158D01*
X252185195Y-111788809D01*
X252013981Y-111374440D01*
X251697228Y-111057133D01*
X251283158Y-110885196D01*
X250834809Y-110884805D01*
X250420440Y-111056019D01*
X250103133Y-111372772D01*
X249931196Y-111786842D01*
X249930805Y-112235191D01*
X248314924Y-112235191D01*
X248334847Y-112187211D01*
X248335151Y-111838319D01*
X248201918Y-111515869D01*
X247955429Y-111268949D01*
X247633211Y-111135153D01*
X247284319Y-111134849D01*
X246961869Y-111268082D01*
X246714949Y-111514571D01*
X246581153Y-111836789D01*
X246580849Y-112185681D01*
X239903000Y-112185681D01*
X239903000Y-107944990D01*
X239912336Y-107922451D01*
X240047678Y-107242040D01*
X240047678Y-107214756D01*
X240053000Y-107188000D01*
X240053000Y-104785016D01*
X245446590Y-104785016D01*
X245502271Y-105015611D01*
X245985078Y-105183622D01*
X246495428Y-105154083D01*
X246829729Y-105015611D01*
X246885410Y-104785016D01*
X246166000Y-104065605D01*
X245446590Y-104785016D01*
X240053000Y-104785016D01*
X240053000Y-103705078D01*
X244868378Y-103705078D01*
X244897917Y-104215428D01*
X245036389Y-104549729D01*
X245266984Y-104605410D01*
X245986395Y-103886000D01*
X246345605Y-103886000D01*
X247065016Y-104605410D01*
X247295611Y-104549729D01*
X247463622Y-104066922D01*
X247434083Y-103556572D01*
X247295611Y-103222271D01*
X247065016Y-103166590D01*
X246345605Y-103886000D01*
X245986395Y-103886000D01*
X245266984Y-103166590D01*
X245036389Y-103222271D01*
X244868378Y-103705078D01*
X240053000Y-103705078D01*
X240053000Y-102986984D01*
X245446590Y-102986984D01*
X246166000Y-103706395D01*
X246885410Y-102986984D01*
X246829729Y-102756389D01*
X246346922Y-102588378D01*
X245836572Y-102617917D01*
X245502271Y-102756389D01*
X245446590Y-102986984D01*
X240053000Y-102986984D01*
X240053000Y-100330000D01*
X240047678Y-100303244D01*
X240047678Y-100275960D01*
X239912336Y-99595549D01*
X239903000Y-99573010D01*
X239903000Y-93974990D01*
X239912336Y-93952451D01*
X240047678Y-93272040D01*
X240047678Y-93244756D01*
X240053000Y-93218000D01*
X240053000Y-91059000D01*
X247166000Y-91059000D01*
X247166000Y-91484000D01*
X247321931Y-92013916D01*
X247668782Y-92443823D01*
X248153749Y-92708271D01*
X248230888Y-92724113D01*
X248449000Y-92601788D01*
X248449000Y-91059000D01*
X247166000Y-91059000D01*
X240053000Y-91059000D01*
X240053000Y-90380000D01*
X247166000Y-90380000D01*
X247166000Y-90805000D01*
X248449000Y-90805000D01*
X248449000Y-89262212D01*
X248230888Y-89139887D01*
X248153749Y-89155729D01*
X247668782Y-89420177D01*
X247321931Y-89850084D01*
X247166000Y-90380000D01*
X240053000Y-90380000D01*
X240053000Y-88415000D01*
X254739000Y-88415000D01*
X254739000Y-89695881D01*
M02*
