<?xml version="1.0" encoding="UTF-8" standalone="no"?>
<!-- Created with Inkscape (http://www.inkscape.org/) -->

<svg
   xmlns:dc="http://purl.org/dc/elements/1.1/"
   xmlns:cc="http://creativecommons.org/ns#"
   xmlns:rdf="http://www.w3.org/1999/02/22-rdf-syntax-ns#"
   xmlns:svg="http://www.w3.org/2000/svg"
   xmlns="http://www.w3.org/2000/svg"
   xmlns:sodipodi="http://sodipodi.sourceforge.net/DTD/sodipodi-0.dtd"
   xmlns:inkscape="http://www.inkscape.org/namespaces/inkscape"
   id="svg3039"
   version="1.1"
   inkscape:version="0.48.4 r9939"
   width="247.5"
   height="360"
   sodipodi:docname="rfcxlogo.svg"
   inkscape:export-filename="/home/jesse/millwooj@mail.gvsu.edu/RFCx/Design/PCB/Kicad Project/rfcxlogo.png"
   inkscape:export-xdpi="90"
   inkscape:export-ydpi="90">
  <metadata
     id="metadata3045">
    <rdf:RDF>
      <cc:Work
         rdf:about="">
        <dc:format>image/svg+xml</dc:format>
        <dc:type
           rdf:resource="http://purl.org/dc/dcmitype/StillImage" />
        <dc:title />
      </cc:Work>
    </rdf:RDF>
  </metadata>
  <defs
     id="defs3043" />
  <sodipodi:namedview
     pagecolor="#ffffff"
     bordercolor="#666666"
     borderopacity="1"
     objecttolerance="10"
     gridtolerance="10"
     guidetolerance="10"
     inkscape:pageopacity="0"
     inkscape:pageshadow="2"
     inkscape:window-width="1280"
     inkscape:window-height="998"
     id="namedview3041"
     showgrid="false"
     units="in"
     inkscape:zoom="1.175565"
     inkscape:cx="189.87978"
     inkscape:cy="72.48238"
     inkscape:window-x="1440"
     inkscape:window-y="0"
     inkscape:window-maximized="1"
     inkscape:current-layer="svg3039" />
  <path
     style="fill:#000000"
     d="m 3.068432,356.31953 c -1.1448759,-2.00006 14.310953,-20.2808 34.346282,-40.92165 53.709317,-55.32229 78.821196,-96.04394 81.534666,-132.20543 l 1.32541,-17.6407 -4.18047,16.04064 c -8.02645,30.80128 -24.424796,56.00229 -59.559241,91.44373 L 23.158866,306.7575 15.434328,290.71686 C 9.2759812,277.91633 7.9258219,270.67607 8.7752581,254.99543 10.280747,227.15426 19.38308,215.27378 68.038507,177.47223 90.595556,159.95154 112.86969,140.23074 117.53659,133.63048 l 8.48525,-11.96054 6.61918,17.68075 c 21.06415,56.32229 15.68244,125.96511 -12.3574,159.96649 -11.26308,13.64059 -33.388218,23.04096 -62.570152,26.56112 -22.120937,2.80011 -25.431968,4.80016 -33.9902,21.56085 -6.150153,12.04054 -16.0591416,16.3207 -20.654836,8.88038 z M 161.99348,234.91457 c 0,-7.68031 2.54198,-10.88042 13.90502,-17.52069 16.84985,-9.88042 34.66543,-29.08122 44.26511,-47.68197 10.66432,-20.68085 12.03018,-59.28239 2.94819,-83.363405 C 201.86047,30.026216 134.39235,2.0250976 80.173776,27.106109 27.772131,51.307068 3.5988091,111.86957 25.293818,164.6317 c 7.071147,17.20069 7.199241,18.6408 2.077657,23.28096 -3.001951,2.8001 -6.50719,4.92021 -7.789417,4.92021 -1.282232,0 -6.22211,-8.28032 -10.9775082,-18.44074 C 1.0078011,158.19143 -0.03646245,152.03122 9.4360166e-4,123.87005 0.03806725,95.868931 1.1380128,89.428665 8.6002149,73.427973 53.62597,-23.135967 189.67226,-24.856021 236.62178,70.627866 c 9.63034,19.560799 10.40002,23.520959 10.40002,53.282184 0,34.48138 -4.53528,49.44202 -23.11294,76.36314 -9.42678,13.64053 -32.95685,32.00128 -50.33879,39.2816 l -11.57659,4.84016 0,-9.36038 z m 0,-40.80165 c 0,-5.08021 4.77833,-13.76058 12.26972,-22.2409 13.01565,-14.80059 19.81645,-32.04133 19.81645,-50.24208 0,-17.16069 -15.43891,-44.321808 -31.56041,-55.522234 -12.53718,-8.680372 -16.36786,-9.640426 -38.73772,-9.640426 -21.66064,0 -26.510289,1.200054 -38.049627,8.760373 -26.046041,17.240692 -38.423347,52.002127 -28.685332,80.603297 4.677477,13.72054 4.602363,14.72059 -1.505578,20.2408 -6.211883,5.64027 -6.576479,5.64027 -10.811907,0 C 38.031344,156.91138 32.8662,126.95016 35.383824,111.86957 47.062428,41.826695 129.40673,11.86547 182.28738,58.427387 c 42.17675,37.121491 39.13007,106.284313 -6.05369,137.445593 -12.63065,8.72037 -14.24022,8.52037 -14.24022,-1.60006 z m -6.0434,-40.44165 c -1.82279,-4.76021 -2.46102,-15.88064 -1.41825,-24.68101 1.74887,-14.76058 1.13528,-16.76069 -7.90886,-25.80106 -7.68287,-7.680322 -12.59699,-9.800375 -22.70712,-9.800375 -18.48571,0 -29.441051,10.240375 -31.62552,29.641175 -0.987718,8.76037 -4.158427,17.24074 -7.624299,20.36085 -5.617338,5.08021 -6.123162,4.88021 -9.496415,-4.00016 -11.327972,-29.40123 14.735956,-65.402664 47.350034,-65.402664 34.454,0 59.18479,31.801274 49.60794,63.762604 -1.94188,6.48027 -5.63054,14.64059 -8.19699,18.12075 -4.55107,6.20021 -4.74814,6.16021 -7.9805,-2.40011 z"
     id="path3049"
     inkscape:connector-curvature="0"
     inkscape:export-xdpi="90"
     inkscape:export-ydpi="90" />
</svg>
