G04 #@! TF.FileFunction,Soldermask,Top*
%FSLAX46Y46*%
G04 Gerber Fmt 4.6, Leading zero omitted, Abs format (unit mm)*
G04 Created by KiCad (PCBNEW (after 2015-mar-04 BZR unknown)-product) date Fri 03 Jul 2015 12:36:09 AM EDT*
%MOMM*%
G01*
G04 APERTURE LIST*
%ADD10C,0.150000*%
%ADD11R,1.650000X1.900000*%
%ADD12R,1.900000X1.650000*%
%ADD13R,1.310000X1.620000*%
%ADD14R,2.200860X3.900120*%
%ADD15R,1.620000X1.310000*%
%ADD16R,3.600000X2.900000*%
%ADD17R,2.400000X6.400000*%
%ADD18R,2.127200X2.432000*%
%ADD19O,2.127200X2.432000*%
%ADD20R,1.900000X1.700000*%
%ADD21R,1.700000X1.900000*%
%ADD22R,3.100000X3.600000*%
%ADD23R,0.850000X1.850000*%
%ADD24R,1.850000X0.850000*%
%ADD25C,2.540000*%
%ADD26C,3.100000*%
%ADD27C,1.700000*%
%ADD28R,1.700000X1.700000*%
%ADD29C,2.700000*%
%ADD30C,2.100000*%
G04 APERTURE END LIST*
D10*
D11*
X144462500Y-57422100D03*
X144462500Y-54922100D03*
X164846000Y-56977600D03*
X164846000Y-54477600D03*
X164528500Y-80218600D03*
X164528500Y-77718600D03*
X143764000Y-80472600D03*
X143764000Y-77972600D03*
D12*
X149332000Y-55346600D03*
X146832000Y-55346600D03*
X169735500Y-54902100D03*
X167235500Y-54902100D03*
X169588500Y-78206600D03*
X167088500Y-78206600D03*
X148677000Y-78333600D03*
X146177000Y-78333600D03*
X154094500Y-57569100D03*
X151594500Y-57569100D03*
X174541500Y-57061100D03*
X172041500Y-57061100D03*
X174414500Y-80365600D03*
X171914500Y-80365600D03*
X153523000Y-80492600D03*
X151023000Y-80492600D03*
X149268500Y-53187600D03*
X146768500Y-53187600D03*
X169759000Y-52743100D03*
X167259000Y-52743100D03*
X169588500Y-76047600D03*
X167088500Y-76047600D03*
X148633500Y-76174600D03*
X146133500Y-76174600D03*
D11*
X158432500Y-59621100D03*
X158432500Y-62121100D03*
X178879500Y-59240100D03*
X178879500Y-61740100D03*
X178866800Y-82468400D03*
X178866800Y-84968400D03*
X157924500Y-82608100D03*
X157924500Y-85108100D03*
X157861000Y-75750100D03*
X157861000Y-78250100D03*
X158432500Y-52890100D03*
X158432500Y-55390100D03*
X178879500Y-52338600D03*
X178879500Y-54838600D03*
X178879500Y-75706600D03*
X178879500Y-78206600D03*
X187375800Y-68033900D03*
X187375800Y-70533900D03*
X199504300Y-75887900D03*
X199504300Y-73387900D03*
D12*
X190888300Y-78892400D03*
X193388300Y-78892400D03*
D11*
X199504300Y-70871400D03*
X199504300Y-68371400D03*
D13*
X154997017Y-68237100D03*
X151727017Y-68237100D03*
X175355000Y-68237100D03*
X172085000Y-68237100D03*
X175434500Y-91287600D03*
X172164500Y-91287600D03*
X154416000Y-91414600D03*
X151146000Y-91414600D03*
D14*
X141287500Y-51450240D03*
X141287500Y-56448960D03*
X161734500Y-51046380D03*
X161734500Y-56045100D03*
X161226500Y-74310240D03*
X161226500Y-79308960D03*
X140589000Y-74564240D03*
X140589000Y-79562960D03*
D15*
X197485000Y-71303900D03*
X197485000Y-68033900D03*
D16*
X165989000Y-60059600D03*
X165989000Y-68159600D03*
X165925500Y-83173600D03*
X165925500Y-91273600D03*
X145034000Y-83173600D03*
X145034000Y-91273600D03*
D17*
X189988300Y-68033900D03*
X194288300Y-68033900D03*
D18*
X197612000Y-59690000D03*
D19*
X195072000Y-59690000D03*
X192532000Y-59690000D03*
D20*
X146652000Y-57505600D03*
X149352000Y-57505600D03*
X167035500Y-57061100D03*
X169735500Y-57061100D03*
X166861500Y-80365600D03*
X169561500Y-80365600D03*
X145970000Y-80492600D03*
X148670000Y-80492600D03*
D21*
X151574500Y-55363100D03*
X151574500Y-52663100D03*
X154114500Y-55363100D03*
X154114500Y-52663100D03*
X171958000Y-54855100D03*
X171958000Y-52155100D03*
X174561500Y-54855100D03*
X174561500Y-52155100D03*
X171894500Y-78159600D03*
X171894500Y-75459600D03*
X174434500Y-78159600D03*
X174434500Y-75459600D03*
X151003000Y-78286600D03*
X151003000Y-75586600D03*
X153543000Y-78286600D03*
X153543000Y-75586600D03*
D22*
X148894500Y-49504600D03*
X156794500Y-49504600D03*
X169278000Y-48996600D03*
X177178000Y-48996600D03*
X169214500Y-72237600D03*
X177114500Y-72237600D03*
X148323000Y-72364600D03*
X156223000Y-72364600D03*
D21*
X155702000Y-75523100D03*
X155702000Y-78223100D03*
X155765500Y-82571600D03*
X155765500Y-85271600D03*
X156273500Y-52663100D03*
X156273500Y-55363100D03*
X156273500Y-59648100D03*
X156273500Y-62348100D03*
X176720500Y-52138600D03*
X176720500Y-54838600D03*
X176720500Y-59267100D03*
X176720500Y-61967100D03*
X176720500Y-75459600D03*
X176720500Y-78159600D03*
X176733200Y-82470000D03*
X176733200Y-85170000D03*
X187375800Y-72779900D03*
X187375800Y-75479900D03*
X197345300Y-73160900D03*
X197345300Y-75860900D03*
D20*
X193551800Y-76733400D03*
X190851800Y-76733400D03*
D21*
X187375800Y-77732900D03*
X187375800Y-80432900D03*
D23*
X151879017Y-65788277D03*
X152529017Y-65788277D03*
X153179017Y-65788277D03*
X153829017Y-65788277D03*
X153829017Y-59888277D03*
X153179017Y-59888277D03*
X152529017Y-59888277D03*
X151879017Y-59888277D03*
X172316500Y-65789600D03*
X172966500Y-65789600D03*
X173616500Y-65789600D03*
X174266500Y-65789600D03*
X174266500Y-59889600D03*
X173616500Y-59889600D03*
X172966500Y-59889600D03*
X172316500Y-59889600D03*
X172189500Y-88903600D03*
X172839500Y-88903600D03*
X173489500Y-88903600D03*
X174139500Y-88903600D03*
X174139500Y-83003600D03*
X173489500Y-83003600D03*
X172839500Y-83003600D03*
X172189500Y-83003600D03*
X151298000Y-88903600D03*
X151948000Y-88903600D03*
X152598000Y-88903600D03*
X153248000Y-88903600D03*
X153248000Y-83003600D03*
X152598000Y-83003600D03*
X151948000Y-83003600D03*
X151298000Y-83003600D03*
D24*
X189997943Y-72656400D03*
X189997943Y-73306400D03*
X189997943Y-73956400D03*
X189997943Y-74606400D03*
X194397943Y-74606400D03*
X194397943Y-73956400D03*
X194397943Y-73306400D03*
X194397943Y-72656400D03*
D25*
X134620000Y-93980000D03*
D26*
X129540000Y-99060000D03*
X208280000Y-99060000D03*
X208280000Y-40640000D03*
X129540000Y-40640000D03*
D27*
X187325000Y-52705000D03*
D28*
X184825000Y-52705000D03*
D27*
X198120000Y-83780000D03*
D28*
X198120000Y-81280000D03*
D29*
X131445000Y-52070000D03*
X131445000Y-57150000D03*
X131445000Y-62230000D03*
X131445000Y-67310000D03*
X131445000Y-72390000D03*
X131445000Y-77470000D03*
X131445000Y-82550000D03*
X131445000Y-87630000D03*
D16*
X145542000Y-60059600D03*
X145542000Y-68159600D03*
D30*
X195072000Y-54836000D03*
X195072000Y-51336000D03*
M02*
