G04 #@! TF.FileFunction,Legend,Top*
%FSLAX46Y46*%
G04 Gerber Fmt 4.6, Leading zero omitted, Abs format (unit mm)*
G04 Created by KiCad (PCBNEW (after 2015-mar-04 BZR unknown)-product) date Fri 03 Jul 2015 12:36:09 AM EDT*
%MOMM*%
G01*
G04 APERTURE LIST*
%ADD10C,0.150000*%
G04 APERTURE END LIST*
D10*
X143612500Y-55672100D02*
X143612500Y-56672100D01*
X145312500Y-56672100D02*
X145312500Y-55672100D01*
X163996000Y-55227600D02*
X163996000Y-56227600D01*
X165696000Y-56227600D02*
X165696000Y-55227600D01*
X163678500Y-78468600D02*
X163678500Y-79468600D01*
X165378500Y-79468600D02*
X165378500Y-78468600D01*
X142914000Y-78722600D02*
X142914000Y-79722600D01*
X144614000Y-79722600D02*
X144614000Y-78722600D01*
X147582000Y-56196600D02*
X148582000Y-56196600D01*
X148582000Y-54496600D02*
X147582000Y-54496600D01*
X167985500Y-55752100D02*
X168985500Y-55752100D01*
X168985500Y-54052100D02*
X167985500Y-54052100D01*
X167838500Y-79056600D02*
X168838500Y-79056600D01*
X168838500Y-77356600D02*
X167838500Y-77356600D01*
X146927000Y-79183600D02*
X147927000Y-79183600D01*
X147927000Y-77483600D02*
X146927000Y-77483600D01*
X152344500Y-58419100D02*
X153344500Y-58419100D01*
X153344500Y-56719100D02*
X152344500Y-56719100D01*
X172791500Y-57911100D02*
X173791500Y-57911100D01*
X173791500Y-56211100D02*
X172791500Y-56211100D01*
X172664500Y-81215600D02*
X173664500Y-81215600D01*
X173664500Y-79515600D02*
X172664500Y-79515600D01*
X151773000Y-81342600D02*
X152773000Y-81342600D01*
X152773000Y-79642600D02*
X151773000Y-79642600D01*
X147518500Y-54037600D02*
X148518500Y-54037600D01*
X148518500Y-52337600D02*
X147518500Y-52337600D01*
X168009000Y-53593100D02*
X169009000Y-53593100D01*
X169009000Y-51893100D02*
X168009000Y-51893100D01*
X167838500Y-76897600D02*
X168838500Y-76897600D01*
X168838500Y-75197600D02*
X167838500Y-75197600D01*
X146883500Y-77024600D02*
X147883500Y-77024600D01*
X147883500Y-75324600D02*
X146883500Y-75324600D01*
X159282500Y-61371100D02*
X159282500Y-60371100D01*
X157582500Y-60371100D02*
X157582500Y-61371100D01*
X179729500Y-60990100D02*
X179729500Y-59990100D01*
X178029500Y-59990100D02*
X178029500Y-60990100D01*
X179716800Y-84218400D02*
X179716800Y-83218400D01*
X178016800Y-83218400D02*
X178016800Y-84218400D01*
X158774500Y-84358100D02*
X158774500Y-83358100D01*
X157074500Y-83358100D02*
X157074500Y-84358100D01*
X158711000Y-77500100D02*
X158711000Y-76500100D01*
X157011000Y-76500100D02*
X157011000Y-77500100D01*
X159282500Y-54640100D02*
X159282500Y-53640100D01*
X157582500Y-53640100D02*
X157582500Y-54640100D01*
X179729500Y-54088600D02*
X179729500Y-53088600D01*
X178029500Y-53088600D02*
X178029500Y-54088600D01*
X179729500Y-77456600D02*
X179729500Y-76456600D01*
X178029500Y-76456600D02*
X178029500Y-77456600D01*
X188225800Y-69783900D02*
X188225800Y-68783900D01*
X186525800Y-68783900D02*
X186525800Y-69783900D01*
X198654300Y-74137900D02*
X198654300Y-75137900D01*
X200354300Y-75137900D02*
X200354300Y-74137900D01*
X192638300Y-78042400D02*
X191638300Y-78042400D01*
X191638300Y-79742400D02*
X192638300Y-79742400D01*
X198654300Y-69121400D02*
X198654300Y-70121400D01*
X200354300Y-70121400D02*
X200354300Y-69121400D01*
X153044517Y-68237100D02*
X152663517Y-68237100D01*
X154060517Y-68237100D02*
X153679517Y-68237100D01*
X153679517Y-68237100D02*
X153044517Y-68618100D01*
X153044517Y-68618100D02*
X153044517Y-67856100D01*
X153044517Y-67856100D02*
X153679517Y-68237100D01*
X153679517Y-68745100D02*
X153679517Y-67729100D01*
X155362017Y-67337100D02*
X151822017Y-67337100D01*
X155362017Y-69137100D02*
X151822017Y-69137100D01*
X173402500Y-68237100D02*
X173021500Y-68237100D01*
X174418500Y-68237100D02*
X174037500Y-68237100D01*
X174037500Y-68237100D02*
X173402500Y-68618100D01*
X173402500Y-68618100D02*
X173402500Y-67856100D01*
X173402500Y-67856100D02*
X174037500Y-68237100D01*
X174037500Y-68745100D02*
X174037500Y-67729100D01*
X175720000Y-67337100D02*
X172180000Y-67337100D01*
X175720000Y-69137100D02*
X172180000Y-69137100D01*
X173482000Y-91287600D02*
X173101000Y-91287600D01*
X174498000Y-91287600D02*
X174117000Y-91287600D01*
X174117000Y-91287600D02*
X173482000Y-91668600D01*
X173482000Y-91668600D02*
X173482000Y-90906600D01*
X173482000Y-90906600D02*
X174117000Y-91287600D01*
X174117000Y-91795600D02*
X174117000Y-90779600D01*
X175799500Y-90387600D02*
X172259500Y-90387600D01*
X175799500Y-92187600D02*
X172259500Y-92187600D01*
X152463500Y-91414600D02*
X152082500Y-91414600D01*
X153479500Y-91414600D02*
X153098500Y-91414600D01*
X153098500Y-91414600D02*
X152463500Y-91795600D01*
X152463500Y-91795600D02*
X152463500Y-91033600D01*
X152463500Y-91033600D02*
X153098500Y-91414600D01*
X153098500Y-91922600D02*
X153098500Y-90906600D01*
X154781000Y-90514600D02*
X151241000Y-90514600D01*
X154781000Y-92314600D02*
X151241000Y-92314600D01*
X141287500Y-53699600D02*
X141737500Y-54249600D01*
X141737500Y-54249600D02*
X140837500Y-54249600D01*
X140837500Y-54249600D02*
X141287500Y-53699600D01*
X141837500Y-53699600D02*
X140737500Y-53699600D01*
X139537440Y-52150460D02*
X139887960Y-52150460D01*
X143037560Y-52150460D02*
X142687040Y-52150460D01*
X139537440Y-56200040D02*
X139887960Y-56200040D01*
X139537440Y-51699160D02*
X139887960Y-51699160D01*
X143037560Y-51699160D02*
X142687040Y-51699160D01*
X143037560Y-56200040D02*
X142687040Y-56200040D01*
X139537440Y-51699160D02*
X139537440Y-56200040D01*
X143037560Y-51699160D02*
X143037560Y-56200040D01*
X161734500Y-53295740D02*
X162184500Y-53845740D01*
X162184500Y-53845740D02*
X161284500Y-53845740D01*
X161284500Y-53845740D02*
X161734500Y-53295740D01*
X162284500Y-53295740D02*
X161184500Y-53295740D01*
X159984440Y-51746600D02*
X160334960Y-51746600D01*
X163484560Y-51746600D02*
X163134040Y-51746600D01*
X159984440Y-55796180D02*
X160334960Y-55796180D01*
X159984440Y-51295300D02*
X160334960Y-51295300D01*
X163484560Y-51295300D02*
X163134040Y-51295300D01*
X163484560Y-55796180D02*
X163134040Y-55796180D01*
X159984440Y-51295300D02*
X159984440Y-55796180D01*
X163484560Y-51295300D02*
X163484560Y-55796180D01*
X161226500Y-76559600D02*
X161676500Y-77109600D01*
X161676500Y-77109600D02*
X160776500Y-77109600D01*
X160776500Y-77109600D02*
X161226500Y-76559600D01*
X161776500Y-76559600D02*
X160676500Y-76559600D01*
X159476440Y-75010460D02*
X159826960Y-75010460D01*
X162976560Y-75010460D02*
X162626040Y-75010460D01*
X159476440Y-79060040D02*
X159826960Y-79060040D01*
X159476440Y-74559160D02*
X159826960Y-74559160D01*
X162976560Y-74559160D02*
X162626040Y-74559160D01*
X162976560Y-79060040D02*
X162626040Y-79060040D01*
X159476440Y-74559160D02*
X159476440Y-79060040D01*
X162976560Y-74559160D02*
X162976560Y-79060040D01*
X140589000Y-76813600D02*
X141039000Y-77363600D01*
X141039000Y-77363600D02*
X140139000Y-77363600D01*
X140139000Y-77363600D02*
X140589000Y-76813600D01*
X141139000Y-76813600D02*
X140039000Y-76813600D01*
X138838940Y-75264460D02*
X139189460Y-75264460D01*
X142339060Y-75264460D02*
X141988540Y-75264460D01*
X138838940Y-79314040D02*
X139189460Y-79314040D01*
X138838940Y-74813160D02*
X139189460Y-74813160D01*
X142339060Y-74813160D02*
X141988540Y-74813160D01*
X142339060Y-79314040D02*
X141988540Y-79314040D01*
X138838940Y-74813160D02*
X138838940Y-79314040D01*
X142339060Y-74813160D02*
X142339060Y-79314040D01*
X197485000Y-69351400D02*
X197485000Y-68970400D01*
X197485000Y-70367400D02*
X197485000Y-69986400D01*
X197485000Y-69986400D02*
X197104000Y-69351400D01*
X197104000Y-69351400D02*
X197866000Y-69351400D01*
X197866000Y-69351400D02*
X197485000Y-69986400D01*
X196977000Y-69986400D02*
X197993000Y-69986400D01*
X198385000Y-71668900D02*
X198385000Y-68128900D01*
X196585000Y-71668900D02*
X196585000Y-68128900D01*
X160789000Y-58909600D02*
X160789000Y-69309600D01*
X171189000Y-58909600D02*
X171189000Y-69309600D01*
X160789000Y-58909600D02*
X171189000Y-58909600D01*
X160789000Y-69309600D02*
X171189000Y-69309600D01*
X160725500Y-82023600D02*
X160725500Y-92423600D01*
X171125500Y-82023600D02*
X171125500Y-92423600D01*
X160725500Y-82023600D02*
X171125500Y-82023600D01*
X160725500Y-92423600D02*
X171125500Y-92423600D01*
X139834000Y-82023600D02*
X139834000Y-92423600D01*
X150234000Y-82023600D02*
X150234000Y-92423600D01*
X139834000Y-82023600D02*
X150234000Y-82023600D01*
X139834000Y-92423600D02*
X150234000Y-92423600D01*
X195567300Y-68033900D02*
G75*
G03X195567300Y-68033900I-3429000J0D01*
G01*
X196342000Y-58420000D02*
X191262000Y-58420000D01*
X191262000Y-58420000D02*
X191262000Y-60960000D01*
X191262000Y-60960000D02*
X196342000Y-60960000D01*
X199162000Y-61240000D02*
X197612000Y-61240000D01*
X196342000Y-60960000D02*
X196342000Y-58420000D01*
X197612000Y-58140000D02*
X199162000Y-58140000D01*
X199162000Y-58140000D02*
X199162000Y-61240000D01*
X148602000Y-58380600D02*
X147402000Y-58380600D01*
X147402000Y-56630600D02*
X148602000Y-56630600D01*
X168985500Y-57936100D02*
X167785500Y-57936100D01*
X167785500Y-56186100D02*
X168985500Y-56186100D01*
X168811500Y-81240600D02*
X167611500Y-81240600D01*
X167611500Y-79490600D02*
X168811500Y-79490600D01*
X147920000Y-81367600D02*
X146720000Y-81367600D01*
X146720000Y-79617600D02*
X147920000Y-79617600D01*
X152449500Y-53413100D02*
X152449500Y-54613100D01*
X150699500Y-54613100D02*
X150699500Y-53413100D01*
X154989500Y-53413100D02*
X154989500Y-54613100D01*
X153239500Y-54613100D02*
X153239500Y-53413100D01*
X172833000Y-52905100D02*
X172833000Y-54105100D01*
X171083000Y-54105100D02*
X171083000Y-52905100D01*
X175436500Y-52905100D02*
X175436500Y-54105100D01*
X173686500Y-54105100D02*
X173686500Y-52905100D01*
X172769500Y-76209600D02*
X172769500Y-77409600D01*
X171019500Y-77409600D02*
X171019500Y-76209600D01*
X175309500Y-76209600D02*
X175309500Y-77409600D01*
X173559500Y-77409600D02*
X173559500Y-76209600D01*
X151878000Y-76336600D02*
X151878000Y-77536600D01*
X150128000Y-77536600D02*
X150128000Y-76336600D01*
X154418000Y-76336600D02*
X154418000Y-77536600D01*
X152668000Y-77536600D02*
X152668000Y-76336600D01*
X155444500Y-51329600D02*
X150244500Y-51329600D01*
X150244500Y-47679600D02*
X155444500Y-47679600D01*
X175828000Y-50821600D02*
X170628000Y-50821600D01*
X170628000Y-47171600D02*
X175828000Y-47171600D01*
X175764500Y-74062600D02*
X170564500Y-74062600D01*
X170564500Y-70412600D02*
X175764500Y-70412600D01*
X154873000Y-74189600D02*
X149673000Y-74189600D01*
X149673000Y-70539600D02*
X154873000Y-70539600D01*
X154827000Y-77473100D02*
X154827000Y-76273100D01*
X156577000Y-76273100D02*
X156577000Y-77473100D01*
X154890500Y-84521600D02*
X154890500Y-83321600D01*
X156640500Y-83321600D02*
X156640500Y-84521600D01*
X155398500Y-54613100D02*
X155398500Y-53413100D01*
X157148500Y-53413100D02*
X157148500Y-54613100D01*
X155398500Y-61598100D02*
X155398500Y-60398100D01*
X157148500Y-60398100D02*
X157148500Y-61598100D01*
X175845500Y-54088600D02*
X175845500Y-52888600D01*
X177595500Y-52888600D02*
X177595500Y-54088600D01*
X175845500Y-61217100D02*
X175845500Y-60017100D01*
X177595500Y-60017100D02*
X177595500Y-61217100D01*
X175845500Y-77409600D02*
X175845500Y-76209600D01*
X177595500Y-76209600D02*
X177595500Y-77409600D01*
X175858200Y-84420000D02*
X175858200Y-83220000D01*
X177608200Y-83220000D02*
X177608200Y-84420000D01*
X186500800Y-74729900D02*
X186500800Y-73529900D01*
X188250800Y-73529900D02*
X188250800Y-74729900D01*
X196470300Y-75110900D02*
X196470300Y-73910900D01*
X198220300Y-73910900D02*
X198220300Y-75110900D01*
X191601800Y-75858400D02*
X192801800Y-75858400D01*
X192801800Y-77608400D02*
X191601800Y-77608400D01*
X186500800Y-79682900D02*
X186500800Y-78482900D01*
X188250800Y-78482900D02*
X188250800Y-79682900D01*
X151229017Y-65163277D02*
X151429017Y-65163277D01*
X151229017Y-60513277D02*
X151429017Y-60513277D01*
X154479017Y-60513277D02*
X154279017Y-60513277D01*
X154479017Y-65163277D02*
X154279017Y-65163277D01*
X151229017Y-65163277D02*
X151229017Y-60513277D01*
X154479017Y-65163277D02*
X154479017Y-60513277D01*
X151429017Y-65163277D02*
X151429017Y-66513277D01*
X171666500Y-65164600D02*
X171866500Y-65164600D01*
X171666500Y-60514600D02*
X171866500Y-60514600D01*
X174916500Y-60514600D02*
X174716500Y-60514600D01*
X174916500Y-65164600D02*
X174716500Y-65164600D01*
X171666500Y-65164600D02*
X171666500Y-60514600D01*
X174916500Y-65164600D02*
X174916500Y-60514600D01*
X171866500Y-65164600D02*
X171866500Y-66514600D01*
X171539500Y-88278600D02*
X171739500Y-88278600D01*
X171539500Y-83628600D02*
X171739500Y-83628600D01*
X174789500Y-83628600D02*
X174589500Y-83628600D01*
X174789500Y-88278600D02*
X174589500Y-88278600D01*
X171539500Y-88278600D02*
X171539500Y-83628600D01*
X174789500Y-88278600D02*
X174789500Y-83628600D01*
X171739500Y-88278600D02*
X171739500Y-89628600D01*
X150648000Y-88278600D02*
X150848000Y-88278600D01*
X150648000Y-83628600D02*
X150848000Y-83628600D01*
X153898000Y-83628600D02*
X153698000Y-83628600D01*
X153898000Y-88278600D02*
X153698000Y-88278600D01*
X150648000Y-88278600D02*
X150648000Y-83628600D01*
X153898000Y-88278600D02*
X153898000Y-83628600D01*
X150848000Y-88278600D02*
X150848000Y-89628600D01*
X190522943Y-71956400D02*
X190522943Y-72206400D01*
X193872943Y-71956400D02*
X193872943Y-72206400D01*
X193872943Y-75306400D02*
X193872943Y-75056400D01*
X190522943Y-75306400D02*
X190522943Y-75056400D01*
X190522943Y-71956400D02*
X193872943Y-71956400D01*
X190522943Y-75306400D02*
X193872943Y-75306400D01*
X190522943Y-72206400D02*
X189272943Y-72206400D01*
X131540000Y-99060000D02*
G75*
G03X131540000Y-99060000I-2000000J0D01*
G01*
X210280000Y-99060000D02*
G75*
G03X210280000Y-99060000I-2000000J0D01*
G01*
X210280000Y-40640000D02*
G75*
G03X210280000Y-40640000I-2000000J0D01*
G01*
X131540000Y-40640000D02*
G75*
G03X131540000Y-40640000I-2000000J0D01*
G01*
X186150000Y-48956000D02*
X186150000Y-56454000D01*
X186290000Y-48961000D02*
X186290000Y-56449000D01*
X186430000Y-48972000D02*
X186430000Y-52259000D01*
X186430000Y-53151000D02*
X186430000Y-56438000D01*
X186570000Y-48988000D02*
X186570000Y-52049000D01*
X186570000Y-53361000D02*
X186570000Y-56422000D01*
X186710000Y-49009000D02*
X186710000Y-51916000D01*
X186710000Y-53494000D02*
X186710000Y-56401000D01*
X186850000Y-49036000D02*
X186850000Y-51825000D01*
X186850000Y-53585000D02*
X186850000Y-56374000D01*
X186990000Y-49068000D02*
X186990000Y-51763000D01*
X186990000Y-53647000D02*
X186990000Y-56342000D01*
X187130000Y-49106000D02*
X187130000Y-51724000D01*
X187130000Y-53686000D02*
X187130000Y-56304000D01*
X187270000Y-49150000D02*
X187270000Y-51707000D01*
X187270000Y-53703000D02*
X187270000Y-56260000D01*
X187410000Y-49201000D02*
X187410000Y-51709000D01*
X187410000Y-53701000D02*
X187410000Y-56209000D01*
X187550000Y-49257000D02*
X187550000Y-51731000D01*
X187550000Y-53679000D02*
X187550000Y-56153000D01*
X187690000Y-49321000D02*
X187690000Y-51774000D01*
X187690000Y-53636000D02*
X187690000Y-56089000D01*
X187830000Y-49391000D02*
X187830000Y-51842000D01*
X187830000Y-53568000D02*
X187830000Y-56019000D01*
X187970000Y-49469000D02*
X187970000Y-51941000D01*
X187970000Y-53469000D02*
X187970000Y-55941000D01*
X188110000Y-49555000D02*
X188110000Y-52086000D01*
X188110000Y-53324000D02*
X188110000Y-55855000D01*
X188250000Y-49650000D02*
X188250000Y-52325000D01*
X188250000Y-53085000D02*
X188250000Y-55760000D01*
X188390000Y-49755000D02*
X188390000Y-55655000D01*
X188530000Y-49870000D02*
X188530000Y-55540000D01*
X188670000Y-49998000D02*
X188670000Y-55412000D01*
X188810000Y-50139000D02*
X188810000Y-55271000D01*
X188950000Y-50297000D02*
X188950000Y-55113000D01*
X189090000Y-50475000D02*
X189090000Y-54935000D01*
X189230000Y-50678000D02*
X189230000Y-54732000D01*
X189370000Y-50915000D02*
X189370000Y-54495000D01*
X189510000Y-51201000D02*
X189510000Y-54209000D01*
X189650000Y-51573000D02*
X189650000Y-53837000D01*
X189790000Y-52194000D02*
X189790000Y-53216000D01*
X188325000Y-52705000D02*
G75*
G03X188325000Y-52705000I-1000000J0D01*
G01*
X189862500Y-52705000D02*
G75*
G03X189862500Y-52705000I-3787500J0D01*
G01*
X201869000Y-82605000D02*
X194371000Y-82605000D01*
X201864000Y-82745000D02*
X194376000Y-82745000D01*
X201853000Y-82885000D02*
X198566000Y-82885000D01*
X197674000Y-82885000D02*
X194387000Y-82885000D01*
X201837000Y-83025000D02*
X198776000Y-83025000D01*
X197464000Y-83025000D02*
X194403000Y-83025000D01*
X201816000Y-83165000D02*
X198909000Y-83165000D01*
X197331000Y-83165000D02*
X194424000Y-83165000D01*
X201789000Y-83305000D02*
X199000000Y-83305000D01*
X197240000Y-83305000D02*
X194451000Y-83305000D01*
X201757000Y-83445000D02*
X199062000Y-83445000D01*
X197178000Y-83445000D02*
X194483000Y-83445000D01*
X201719000Y-83585000D02*
X199101000Y-83585000D01*
X197139000Y-83585000D02*
X194521000Y-83585000D01*
X201675000Y-83725000D02*
X199118000Y-83725000D01*
X197122000Y-83725000D02*
X194565000Y-83725000D01*
X201624000Y-83865000D02*
X199116000Y-83865000D01*
X197124000Y-83865000D02*
X194616000Y-83865000D01*
X201568000Y-84005000D02*
X199094000Y-84005000D01*
X197146000Y-84005000D02*
X194672000Y-84005000D01*
X201504000Y-84145000D02*
X199051000Y-84145000D01*
X197189000Y-84145000D02*
X194736000Y-84145000D01*
X201434000Y-84285000D02*
X198983000Y-84285000D01*
X197257000Y-84285000D02*
X194806000Y-84285000D01*
X201356000Y-84425000D02*
X198884000Y-84425000D01*
X197356000Y-84425000D02*
X194884000Y-84425000D01*
X201270000Y-84565000D02*
X198739000Y-84565000D01*
X197501000Y-84565000D02*
X194970000Y-84565000D01*
X201175000Y-84705000D02*
X198500000Y-84705000D01*
X197740000Y-84705000D02*
X195065000Y-84705000D01*
X201070000Y-84845000D02*
X195170000Y-84845000D01*
X200955000Y-84985000D02*
X195285000Y-84985000D01*
X200827000Y-85125000D02*
X195413000Y-85125000D01*
X200686000Y-85265000D02*
X195554000Y-85265000D01*
X200528000Y-85405000D02*
X195712000Y-85405000D01*
X200350000Y-85545000D02*
X195890000Y-85545000D01*
X200147000Y-85685000D02*
X196093000Y-85685000D01*
X199910000Y-85825000D02*
X196330000Y-85825000D01*
X199624000Y-85965000D02*
X196616000Y-85965000D01*
X199252000Y-86105000D02*
X196988000Y-86105000D01*
X198631000Y-86245000D02*
X197609000Y-86245000D01*
X199120000Y-83780000D02*
G75*
G03X199120000Y-83780000I-1000000J0D01*
G01*
X201907500Y-82530000D02*
G75*
G03X201907500Y-82530000I-3787500J0D01*
G01*
X128025000Y-49030000D02*
X128025000Y-90670000D01*
X135645000Y-49030000D02*
X135645000Y-90670000D01*
X135645000Y-90670000D02*
X128045000Y-90670000D01*
X135645000Y-49030000D02*
X128045000Y-49030000D01*
X140342000Y-58909600D02*
X140342000Y-69309600D01*
X150742000Y-58909600D02*
X150742000Y-69309600D01*
X140342000Y-58909600D02*
X150742000Y-58909600D01*
X140342000Y-69309600D02*
X150742000Y-69309600D01*
X191672000Y-57136000D02*
X198672000Y-57136000D01*
X198672000Y-49036000D02*
X198672000Y-57136000D01*
X198672000Y-49036000D02*
X191672000Y-49036000D01*
X191672000Y-57136000D02*
X191672000Y-49036000D01*
X142719643Y-56338766D02*
X142767262Y-56386385D01*
X142814881Y-56529242D01*
X142814881Y-56624480D01*
X142767262Y-56767338D01*
X142672024Y-56862576D01*
X142576786Y-56910195D01*
X142386310Y-56957814D01*
X142243452Y-56957814D01*
X142052976Y-56910195D01*
X141957738Y-56862576D01*
X141862500Y-56767338D01*
X141814881Y-56624480D01*
X141814881Y-56529242D01*
X141862500Y-56386385D01*
X141910119Y-56338766D01*
X142814881Y-55386385D02*
X142814881Y-55957814D01*
X142814881Y-55672100D02*
X141814881Y-55672100D01*
X141957738Y-55767338D01*
X142052976Y-55862576D01*
X142100595Y-55957814D01*
X165457143Y-52236666D02*
X165504762Y-52284285D01*
X165552381Y-52427142D01*
X165552381Y-52522380D01*
X165504762Y-52665238D01*
X165409524Y-52760476D01*
X165314286Y-52808095D01*
X165123810Y-52855714D01*
X164980952Y-52855714D01*
X164790476Y-52808095D01*
X164695238Y-52760476D01*
X164600000Y-52665238D01*
X164552381Y-52522380D01*
X164552381Y-52427142D01*
X164600000Y-52284285D01*
X164647619Y-52236666D01*
X164647619Y-51855714D02*
X164600000Y-51808095D01*
X164552381Y-51712857D01*
X164552381Y-51474761D01*
X164600000Y-51379523D01*
X164647619Y-51331904D01*
X164742857Y-51284285D01*
X164838095Y-51284285D01*
X164980952Y-51331904D01*
X165552381Y-51903333D01*
X165552381Y-51284285D01*
X164822143Y-75731666D02*
X164869762Y-75779285D01*
X164917381Y-75922142D01*
X164917381Y-76017380D01*
X164869762Y-76160238D01*
X164774524Y-76255476D01*
X164679286Y-76303095D01*
X164488810Y-76350714D01*
X164345952Y-76350714D01*
X164155476Y-76303095D01*
X164060238Y-76255476D01*
X163965000Y-76160238D01*
X163917381Y-76017380D01*
X163917381Y-75922142D01*
X163965000Y-75779285D01*
X164012619Y-75731666D01*
X163917381Y-75398333D02*
X163917381Y-74779285D01*
X164298333Y-75112619D01*
X164298333Y-74969761D01*
X164345952Y-74874523D01*
X164393571Y-74826904D01*
X164488810Y-74779285D01*
X164726905Y-74779285D01*
X164822143Y-74826904D01*
X164869762Y-74874523D01*
X164917381Y-74969761D01*
X164917381Y-75255476D01*
X164869762Y-75350714D01*
X164822143Y-75398333D01*
X143867143Y-75731666D02*
X143914762Y-75779285D01*
X143962381Y-75922142D01*
X143962381Y-76017380D01*
X143914762Y-76160238D01*
X143819524Y-76255476D01*
X143724286Y-76303095D01*
X143533810Y-76350714D01*
X143390952Y-76350714D01*
X143200476Y-76303095D01*
X143105238Y-76255476D01*
X143010000Y-76160238D01*
X142962381Y-76017380D01*
X142962381Y-75922142D01*
X143010000Y-75779285D01*
X143057619Y-75731666D01*
X143295714Y-74874523D02*
X143962381Y-74874523D01*
X142914762Y-75112619D02*
X143629048Y-75350714D01*
X143629048Y-74731666D01*
X147915334Y-57803743D02*
X147867715Y-57851362D01*
X147724858Y-57898981D01*
X147629620Y-57898981D01*
X147486762Y-57851362D01*
X147391524Y-57756124D01*
X147343905Y-57660886D01*
X147296286Y-57470410D01*
X147296286Y-57327552D01*
X147343905Y-57137076D01*
X147391524Y-57041838D01*
X147486762Y-56946600D01*
X147629620Y-56898981D01*
X147724858Y-56898981D01*
X147867715Y-56946600D01*
X147915334Y-56994219D01*
X148820096Y-56898981D02*
X148343905Y-56898981D01*
X148296286Y-57375171D01*
X148343905Y-57327552D01*
X148439143Y-57279933D01*
X148677239Y-57279933D01*
X148772477Y-57327552D01*
X148820096Y-57375171D01*
X148867715Y-57470410D01*
X148867715Y-57708505D01*
X148820096Y-57803743D01*
X148772477Y-57851362D01*
X148677239Y-57898981D01*
X148439143Y-57898981D01*
X148343905Y-57851362D01*
X148296286Y-57803743D01*
X166203334Y-51157143D02*
X166155715Y-51204762D01*
X166012858Y-51252381D01*
X165917620Y-51252381D01*
X165774762Y-51204762D01*
X165679524Y-51109524D01*
X165631905Y-51014286D01*
X165584286Y-50823810D01*
X165584286Y-50680952D01*
X165631905Y-50490476D01*
X165679524Y-50395238D01*
X165774762Y-50300000D01*
X165917620Y-50252381D01*
X166012858Y-50252381D01*
X166155715Y-50300000D01*
X166203334Y-50347619D01*
X167060477Y-50252381D02*
X166870000Y-50252381D01*
X166774762Y-50300000D01*
X166727143Y-50347619D01*
X166631905Y-50490476D01*
X166584286Y-50680952D01*
X166584286Y-51061905D01*
X166631905Y-51157143D01*
X166679524Y-51204762D01*
X166774762Y-51252381D01*
X166965239Y-51252381D01*
X167060477Y-51204762D01*
X167108096Y-51157143D01*
X167155715Y-51061905D01*
X167155715Y-50823810D01*
X167108096Y-50728571D01*
X167060477Y-50680952D01*
X166965239Y-50633333D01*
X166774762Y-50633333D01*
X166679524Y-50680952D01*
X166631905Y-50728571D01*
X166584286Y-50823810D01*
X166203334Y-74652143D02*
X166155715Y-74699762D01*
X166012858Y-74747381D01*
X165917620Y-74747381D01*
X165774762Y-74699762D01*
X165679524Y-74604524D01*
X165631905Y-74509286D01*
X165584286Y-74318810D01*
X165584286Y-74175952D01*
X165631905Y-73985476D01*
X165679524Y-73890238D01*
X165774762Y-73795000D01*
X165917620Y-73747381D01*
X166012858Y-73747381D01*
X166155715Y-73795000D01*
X166203334Y-73842619D01*
X166536667Y-73747381D02*
X167203334Y-73747381D01*
X166774762Y-74747381D01*
X145248334Y-74652143D02*
X145200715Y-74699762D01*
X145057858Y-74747381D01*
X144962620Y-74747381D01*
X144819762Y-74699762D01*
X144724524Y-74604524D01*
X144676905Y-74509286D01*
X144629286Y-74318810D01*
X144629286Y-74175952D01*
X144676905Y-73985476D01*
X144724524Y-73890238D01*
X144819762Y-73795000D01*
X144962620Y-73747381D01*
X145057858Y-73747381D01*
X145200715Y-73795000D01*
X145248334Y-73842619D01*
X145819762Y-74175952D02*
X145724524Y-74128333D01*
X145676905Y-74080714D01*
X145629286Y-73985476D01*
X145629286Y-73937857D01*
X145676905Y-73842619D01*
X145724524Y-73795000D01*
X145819762Y-73747381D01*
X146010239Y-73747381D01*
X146105477Y-73795000D01*
X146153096Y-73842619D01*
X146200715Y-73937857D01*
X146200715Y-73985476D01*
X146153096Y-74080714D01*
X146105477Y-74128333D01*
X146010239Y-74175952D01*
X145819762Y-74175952D01*
X145724524Y-74223571D01*
X145676905Y-74271190D01*
X145629286Y-74366429D01*
X145629286Y-74556905D01*
X145676905Y-74652143D01*
X145724524Y-74699762D01*
X145819762Y-74747381D01*
X146010239Y-74747381D01*
X146105477Y-74699762D01*
X146153096Y-74652143D01*
X146200715Y-74556905D01*
X146200715Y-74366429D01*
X146153096Y-74271190D01*
X146105477Y-74223571D01*
X146010239Y-74175952D01*
X152677834Y-60026243D02*
X152630215Y-60073862D01*
X152487358Y-60121481D01*
X152392120Y-60121481D01*
X152249262Y-60073862D01*
X152154024Y-59978624D01*
X152106405Y-59883386D01*
X152058786Y-59692910D01*
X152058786Y-59550052D01*
X152106405Y-59359576D01*
X152154024Y-59264338D01*
X152249262Y-59169100D01*
X152392120Y-59121481D01*
X152487358Y-59121481D01*
X152630215Y-59169100D01*
X152677834Y-59216719D01*
X153154024Y-60121481D02*
X153344500Y-60121481D01*
X153439739Y-60073862D01*
X153487358Y-60026243D01*
X153582596Y-59883386D01*
X153630215Y-59692910D01*
X153630215Y-59311957D01*
X153582596Y-59216719D01*
X153534977Y-59169100D01*
X153439739Y-59121481D01*
X153249262Y-59121481D01*
X153154024Y-59169100D01*
X153106405Y-59216719D01*
X153058786Y-59311957D01*
X153058786Y-59550052D01*
X153106405Y-59645290D01*
X153154024Y-59692910D01*
X153249262Y-59740529D01*
X153439739Y-59740529D01*
X153534977Y-59692910D01*
X153582596Y-59645290D01*
X153630215Y-59550052D01*
X170172143Y-59412143D02*
X170124524Y-59459762D01*
X169981667Y-59507381D01*
X169886429Y-59507381D01*
X169743571Y-59459762D01*
X169648333Y-59364524D01*
X169600714Y-59269286D01*
X169553095Y-59078810D01*
X169553095Y-58935952D01*
X169600714Y-58745476D01*
X169648333Y-58650238D01*
X169743571Y-58555000D01*
X169886429Y-58507381D01*
X169981667Y-58507381D01*
X170124524Y-58555000D01*
X170172143Y-58602619D01*
X171124524Y-59507381D02*
X170553095Y-59507381D01*
X170838809Y-59507381D02*
X170838809Y-58507381D01*
X170743571Y-58650238D01*
X170648333Y-58745476D01*
X170553095Y-58793095D01*
X171743571Y-58507381D02*
X171838810Y-58507381D01*
X171934048Y-58555000D01*
X171981667Y-58602619D01*
X172029286Y-58697857D01*
X172076905Y-58888333D01*
X172076905Y-59126429D01*
X172029286Y-59316905D01*
X171981667Y-59412143D01*
X171934048Y-59459762D01*
X171838810Y-59507381D01*
X171743571Y-59507381D01*
X171648333Y-59459762D01*
X171600714Y-59412143D01*
X171553095Y-59316905D01*
X171505476Y-59126429D01*
X171505476Y-58888333D01*
X171553095Y-58697857D01*
X171600714Y-58602619D01*
X171648333Y-58555000D01*
X171743571Y-58507381D01*
X172521643Y-82822743D02*
X172474024Y-82870362D01*
X172331167Y-82917981D01*
X172235929Y-82917981D01*
X172093071Y-82870362D01*
X171997833Y-82775124D01*
X171950214Y-82679886D01*
X171902595Y-82489410D01*
X171902595Y-82346552D01*
X171950214Y-82156076D01*
X171997833Y-82060838D01*
X172093071Y-81965600D01*
X172235929Y-81917981D01*
X172331167Y-81917981D01*
X172474024Y-81965600D01*
X172521643Y-82013219D01*
X173474024Y-82917981D02*
X172902595Y-82917981D01*
X173188309Y-82917981D02*
X173188309Y-81917981D01*
X173093071Y-82060838D01*
X172997833Y-82156076D01*
X172902595Y-82203695D01*
X174426405Y-82917981D02*
X173854976Y-82917981D01*
X174140690Y-82917981D02*
X174140690Y-81917981D01*
X174045452Y-82060838D01*
X173950214Y-82156076D01*
X173854976Y-82203695D01*
X147947143Y-84177143D02*
X147899524Y-84224762D01*
X147756667Y-84272381D01*
X147661429Y-84272381D01*
X147518571Y-84224762D01*
X147423333Y-84129524D01*
X147375714Y-84034286D01*
X147328095Y-83843810D01*
X147328095Y-83700952D01*
X147375714Y-83510476D01*
X147423333Y-83415238D01*
X147518571Y-83320000D01*
X147661429Y-83272381D01*
X147756667Y-83272381D01*
X147899524Y-83320000D01*
X147947143Y-83367619D01*
X148899524Y-84272381D02*
X148328095Y-84272381D01*
X148613809Y-84272381D02*
X148613809Y-83272381D01*
X148518571Y-83415238D01*
X148423333Y-83510476D01*
X148328095Y-83558095D01*
X149280476Y-83367619D02*
X149328095Y-83320000D01*
X149423333Y-83272381D01*
X149661429Y-83272381D01*
X149756667Y-83320000D01*
X149804286Y-83367619D01*
X149851905Y-83462857D01*
X149851905Y-83558095D01*
X149804286Y-83700952D01*
X149232857Y-84272381D01*
X149851905Y-84272381D01*
X147375643Y-55644743D02*
X147328024Y-55692362D01*
X147185167Y-55739981D01*
X147089929Y-55739981D01*
X146947071Y-55692362D01*
X146851833Y-55597124D01*
X146804214Y-55501886D01*
X146756595Y-55311410D01*
X146756595Y-55168552D01*
X146804214Y-54978076D01*
X146851833Y-54882838D01*
X146947071Y-54787600D01*
X147089929Y-54739981D01*
X147185167Y-54739981D01*
X147328024Y-54787600D01*
X147375643Y-54835219D01*
X148328024Y-55739981D02*
X147756595Y-55739981D01*
X148042309Y-55739981D02*
X148042309Y-54739981D01*
X147947071Y-54882838D01*
X147851833Y-54978076D01*
X147756595Y-55025695D01*
X148661357Y-54739981D02*
X149280405Y-54739981D01*
X148947071Y-55120933D01*
X149089929Y-55120933D01*
X149185167Y-55168552D01*
X149232786Y-55216171D01*
X149280405Y-55311410D01*
X149280405Y-55549505D01*
X149232786Y-55644743D01*
X149185167Y-55692362D01*
X149089929Y-55739981D01*
X148804214Y-55739981D01*
X148708976Y-55692362D01*
X148661357Y-55644743D01*
X165092143Y-49252143D02*
X165044524Y-49299762D01*
X164901667Y-49347381D01*
X164806429Y-49347381D01*
X164663571Y-49299762D01*
X164568333Y-49204524D01*
X164520714Y-49109286D01*
X164473095Y-48918810D01*
X164473095Y-48775952D01*
X164520714Y-48585476D01*
X164568333Y-48490238D01*
X164663571Y-48395000D01*
X164806429Y-48347381D01*
X164901667Y-48347381D01*
X165044524Y-48395000D01*
X165092143Y-48442619D01*
X166044524Y-49347381D02*
X165473095Y-49347381D01*
X165758809Y-49347381D02*
X165758809Y-48347381D01*
X165663571Y-48490238D01*
X165568333Y-48585476D01*
X165473095Y-48633095D01*
X166901667Y-48680714D02*
X166901667Y-49347381D01*
X166663571Y-48299762D02*
X166425476Y-49014048D01*
X167044524Y-49014048D01*
X165092143Y-73382143D02*
X165044524Y-73429762D01*
X164901667Y-73477381D01*
X164806429Y-73477381D01*
X164663571Y-73429762D01*
X164568333Y-73334524D01*
X164520714Y-73239286D01*
X164473095Y-73048810D01*
X164473095Y-72905952D01*
X164520714Y-72715476D01*
X164568333Y-72620238D01*
X164663571Y-72525000D01*
X164806429Y-72477381D01*
X164901667Y-72477381D01*
X165044524Y-72525000D01*
X165092143Y-72572619D01*
X166044524Y-73477381D02*
X165473095Y-73477381D01*
X165758809Y-73477381D02*
X165758809Y-72477381D01*
X165663571Y-72620238D01*
X165568333Y-72715476D01*
X165473095Y-72763095D01*
X166949286Y-72477381D02*
X166473095Y-72477381D01*
X166425476Y-72953571D01*
X166473095Y-72905952D01*
X166568333Y-72858333D01*
X166806429Y-72858333D01*
X166901667Y-72905952D01*
X166949286Y-72953571D01*
X166996905Y-73048810D01*
X166996905Y-73286905D01*
X166949286Y-73382143D01*
X166901667Y-73429762D01*
X166806429Y-73477381D01*
X166568333Y-73477381D01*
X166473095Y-73429762D01*
X166425476Y-73382143D01*
X144772143Y-73382143D02*
X144724524Y-73429762D01*
X144581667Y-73477381D01*
X144486429Y-73477381D01*
X144343571Y-73429762D01*
X144248333Y-73334524D01*
X144200714Y-73239286D01*
X144153095Y-73048810D01*
X144153095Y-72905952D01*
X144200714Y-72715476D01*
X144248333Y-72620238D01*
X144343571Y-72525000D01*
X144486429Y-72477381D01*
X144581667Y-72477381D01*
X144724524Y-72525000D01*
X144772143Y-72572619D01*
X145724524Y-73477381D02*
X145153095Y-73477381D01*
X145438809Y-73477381D02*
X145438809Y-72477381D01*
X145343571Y-72620238D01*
X145248333Y-72715476D01*
X145153095Y-72763095D01*
X146581667Y-72477381D02*
X146391190Y-72477381D01*
X146295952Y-72525000D01*
X146248333Y-72572619D01*
X146153095Y-72715476D01*
X146105476Y-72905952D01*
X146105476Y-73286905D01*
X146153095Y-73382143D01*
X146200714Y-73429762D01*
X146295952Y-73477381D01*
X146486429Y-73477381D01*
X146581667Y-73429762D01*
X146629286Y-73382143D01*
X146676905Y-73286905D01*
X146676905Y-73048810D01*
X146629286Y-72953571D01*
X146581667Y-72905952D01*
X146486429Y-72858333D01*
X146295952Y-72858333D01*
X146200714Y-72905952D01*
X146153095Y-72953571D01*
X146105476Y-73048810D01*
X161012143Y-61602857D02*
X161059762Y-61650476D01*
X161107381Y-61793333D01*
X161107381Y-61888571D01*
X161059762Y-62031429D01*
X160964524Y-62126667D01*
X160869286Y-62174286D01*
X160678810Y-62221905D01*
X160535952Y-62221905D01*
X160345476Y-62174286D01*
X160250238Y-62126667D01*
X160155000Y-62031429D01*
X160107381Y-61888571D01*
X160107381Y-61793333D01*
X160155000Y-61650476D01*
X160202619Y-61602857D01*
X161107381Y-60650476D02*
X161107381Y-61221905D01*
X161107381Y-60936191D02*
X160107381Y-60936191D01*
X160250238Y-61031429D01*
X160345476Y-61126667D01*
X160393095Y-61221905D01*
X160107381Y-60317143D02*
X160107381Y-59650476D01*
X161107381Y-60079048D01*
X181336643Y-61132957D02*
X181384262Y-61180576D01*
X181431881Y-61323433D01*
X181431881Y-61418671D01*
X181384262Y-61561529D01*
X181289024Y-61656767D01*
X181193786Y-61704386D01*
X181003310Y-61752005D01*
X180860452Y-61752005D01*
X180669976Y-61704386D01*
X180574738Y-61656767D01*
X180479500Y-61561529D01*
X180431881Y-61418671D01*
X180431881Y-61323433D01*
X180479500Y-61180576D01*
X180527119Y-61132957D01*
X181431881Y-60180576D02*
X181431881Y-60752005D01*
X181431881Y-60466291D02*
X180431881Y-60466291D01*
X180574738Y-60561529D01*
X180669976Y-60656767D01*
X180717595Y-60752005D01*
X180860452Y-59609148D02*
X180812833Y-59704386D01*
X180765214Y-59752005D01*
X180669976Y-59799624D01*
X180622357Y-59799624D01*
X180527119Y-59752005D01*
X180479500Y-59704386D01*
X180431881Y-59609148D01*
X180431881Y-59418671D01*
X180479500Y-59323433D01*
X180527119Y-59275814D01*
X180622357Y-59228195D01*
X180669976Y-59228195D01*
X180765214Y-59275814D01*
X180812833Y-59323433D01*
X180860452Y-59418671D01*
X180860452Y-59609148D01*
X180908071Y-59704386D01*
X180955690Y-59752005D01*
X181050929Y-59799624D01*
X181241405Y-59799624D01*
X181336643Y-59752005D01*
X181384262Y-59704386D01*
X181431881Y-59609148D01*
X181431881Y-59418671D01*
X181384262Y-59323433D01*
X181336643Y-59275814D01*
X181241405Y-59228195D01*
X181050929Y-59228195D01*
X180955690Y-59275814D01*
X180908071Y-59323433D01*
X180860452Y-59418671D01*
X181323943Y-84361257D02*
X181371562Y-84408876D01*
X181419181Y-84551733D01*
X181419181Y-84646971D01*
X181371562Y-84789829D01*
X181276324Y-84885067D01*
X181181086Y-84932686D01*
X180990610Y-84980305D01*
X180847752Y-84980305D01*
X180657276Y-84932686D01*
X180562038Y-84885067D01*
X180466800Y-84789829D01*
X180419181Y-84646971D01*
X180419181Y-84551733D01*
X180466800Y-84408876D01*
X180514419Y-84361257D01*
X181419181Y-83408876D02*
X181419181Y-83980305D01*
X181419181Y-83694591D02*
X180419181Y-83694591D01*
X180562038Y-83789829D01*
X180657276Y-83885067D01*
X180704895Y-83980305D01*
X181419181Y-82932686D02*
X181419181Y-82742210D01*
X181371562Y-82646971D01*
X181323943Y-82599352D01*
X181181086Y-82504114D01*
X180990610Y-82456495D01*
X180609657Y-82456495D01*
X180514419Y-82504114D01*
X180466800Y-82551733D01*
X180419181Y-82646971D01*
X180419181Y-82837448D01*
X180466800Y-82932686D01*
X180514419Y-82980305D01*
X180609657Y-83027924D01*
X180847752Y-83027924D01*
X180942990Y-82980305D01*
X180990610Y-82932686D01*
X181038229Y-82837448D01*
X181038229Y-82646971D01*
X180990610Y-82551733D01*
X180942990Y-82504114D01*
X180847752Y-82456495D01*
X160381643Y-84500957D02*
X160429262Y-84548576D01*
X160476881Y-84691433D01*
X160476881Y-84786671D01*
X160429262Y-84929529D01*
X160334024Y-85024767D01*
X160238786Y-85072386D01*
X160048310Y-85120005D01*
X159905452Y-85120005D01*
X159714976Y-85072386D01*
X159619738Y-85024767D01*
X159524500Y-84929529D01*
X159476881Y-84786671D01*
X159476881Y-84691433D01*
X159524500Y-84548576D01*
X159572119Y-84500957D01*
X159572119Y-84120005D02*
X159524500Y-84072386D01*
X159476881Y-83977148D01*
X159476881Y-83739052D01*
X159524500Y-83643814D01*
X159572119Y-83596195D01*
X159667357Y-83548576D01*
X159762595Y-83548576D01*
X159905452Y-83596195D01*
X160476881Y-84167624D01*
X160476881Y-83548576D01*
X159476881Y-82929529D02*
X159476881Y-82834290D01*
X159524500Y-82739052D01*
X159572119Y-82691433D01*
X159667357Y-82643814D01*
X159857833Y-82596195D01*
X160095929Y-82596195D01*
X160286405Y-82643814D01*
X160381643Y-82691433D01*
X160429262Y-82739052D01*
X160476881Y-82834290D01*
X160476881Y-82929529D01*
X160429262Y-83024767D01*
X160381643Y-83072386D01*
X160286405Y-83120005D01*
X160095929Y-83167624D01*
X159857833Y-83167624D01*
X159667357Y-83120005D01*
X159572119Y-83072386D01*
X159524500Y-83024767D01*
X159476881Y-82929529D01*
X159107143Y-72397857D02*
X159154762Y-72445476D01*
X159202381Y-72588333D01*
X159202381Y-72683571D01*
X159154762Y-72826429D01*
X159059524Y-72921667D01*
X158964286Y-72969286D01*
X158773810Y-73016905D01*
X158630952Y-73016905D01*
X158440476Y-72969286D01*
X158345238Y-72921667D01*
X158250000Y-72826429D01*
X158202381Y-72683571D01*
X158202381Y-72588333D01*
X158250000Y-72445476D01*
X158297619Y-72397857D01*
X158297619Y-72016905D02*
X158250000Y-71969286D01*
X158202381Y-71874048D01*
X158202381Y-71635952D01*
X158250000Y-71540714D01*
X158297619Y-71493095D01*
X158392857Y-71445476D01*
X158488095Y-71445476D01*
X158630952Y-71493095D01*
X159202381Y-72064524D01*
X159202381Y-71445476D01*
X159202381Y-70493095D02*
X159202381Y-71064524D01*
X159202381Y-70778810D02*
X158202381Y-70778810D01*
X158345238Y-70874048D01*
X158440476Y-70969286D01*
X158488095Y-71064524D01*
X159742143Y-48267857D02*
X159789762Y-48315476D01*
X159837381Y-48458333D01*
X159837381Y-48553571D01*
X159789762Y-48696429D01*
X159694524Y-48791667D01*
X159599286Y-48839286D01*
X159408810Y-48886905D01*
X159265952Y-48886905D01*
X159075476Y-48839286D01*
X158980238Y-48791667D01*
X158885000Y-48696429D01*
X158837381Y-48553571D01*
X158837381Y-48458333D01*
X158885000Y-48315476D01*
X158932619Y-48267857D01*
X158932619Y-47886905D02*
X158885000Y-47839286D01*
X158837381Y-47744048D01*
X158837381Y-47505952D01*
X158885000Y-47410714D01*
X158932619Y-47363095D01*
X159027857Y-47315476D01*
X159123095Y-47315476D01*
X159265952Y-47363095D01*
X159837381Y-47934524D01*
X159837381Y-47315476D01*
X158932619Y-46934524D02*
X158885000Y-46886905D01*
X158837381Y-46791667D01*
X158837381Y-46553571D01*
X158885000Y-46458333D01*
X158932619Y-46410714D01*
X159027857Y-46363095D01*
X159123095Y-46363095D01*
X159265952Y-46410714D01*
X159837381Y-46982143D01*
X159837381Y-46363095D01*
X181336643Y-54231457D02*
X181384262Y-54279076D01*
X181431881Y-54421933D01*
X181431881Y-54517171D01*
X181384262Y-54660029D01*
X181289024Y-54755267D01*
X181193786Y-54802886D01*
X181003310Y-54850505D01*
X180860452Y-54850505D01*
X180669976Y-54802886D01*
X180574738Y-54755267D01*
X180479500Y-54660029D01*
X180431881Y-54517171D01*
X180431881Y-54421933D01*
X180479500Y-54279076D01*
X180527119Y-54231457D01*
X180527119Y-53850505D02*
X180479500Y-53802886D01*
X180431881Y-53707648D01*
X180431881Y-53469552D01*
X180479500Y-53374314D01*
X180527119Y-53326695D01*
X180622357Y-53279076D01*
X180717595Y-53279076D01*
X180860452Y-53326695D01*
X181431881Y-53898124D01*
X181431881Y-53279076D01*
X180431881Y-52945743D02*
X180431881Y-52326695D01*
X180812833Y-52660029D01*
X180812833Y-52517171D01*
X180860452Y-52421933D01*
X180908071Y-52374314D01*
X181003310Y-52326695D01*
X181241405Y-52326695D01*
X181336643Y-52374314D01*
X181384262Y-52421933D01*
X181431881Y-52517171D01*
X181431881Y-52802886D01*
X181384262Y-52898124D01*
X181336643Y-52945743D01*
X181336643Y-77599457D02*
X181384262Y-77647076D01*
X181431881Y-77789933D01*
X181431881Y-77885171D01*
X181384262Y-78028029D01*
X181289024Y-78123267D01*
X181193786Y-78170886D01*
X181003310Y-78218505D01*
X180860452Y-78218505D01*
X180669976Y-78170886D01*
X180574738Y-78123267D01*
X180479500Y-78028029D01*
X180431881Y-77885171D01*
X180431881Y-77789933D01*
X180479500Y-77647076D01*
X180527119Y-77599457D01*
X180527119Y-77218505D02*
X180479500Y-77170886D01*
X180431881Y-77075648D01*
X180431881Y-76837552D01*
X180479500Y-76742314D01*
X180527119Y-76694695D01*
X180622357Y-76647076D01*
X180717595Y-76647076D01*
X180860452Y-76694695D01*
X181431881Y-77266124D01*
X181431881Y-76647076D01*
X180765214Y-75789933D02*
X181431881Y-75789933D01*
X180384262Y-76028029D02*
X181098548Y-76266124D01*
X181098548Y-75647076D01*
X185777143Y-69857857D02*
X185824762Y-69905476D01*
X185872381Y-70048333D01*
X185872381Y-70143571D01*
X185824762Y-70286429D01*
X185729524Y-70381667D01*
X185634286Y-70429286D01*
X185443810Y-70476905D01*
X185300952Y-70476905D01*
X185110476Y-70429286D01*
X185015238Y-70381667D01*
X184920000Y-70286429D01*
X184872381Y-70143571D01*
X184872381Y-70048333D01*
X184920000Y-69905476D01*
X184967619Y-69857857D01*
X184967619Y-69476905D02*
X184920000Y-69429286D01*
X184872381Y-69334048D01*
X184872381Y-69095952D01*
X184920000Y-69000714D01*
X184967619Y-68953095D01*
X185062857Y-68905476D01*
X185158095Y-68905476D01*
X185300952Y-68953095D01*
X185872381Y-69524524D01*
X185872381Y-68905476D01*
X184872381Y-68000714D02*
X184872381Y-68476905D01*
X185348571Y-68524524D01*
X185300952Y-68476905D01*
X185253333Y-68381667D01*
X185253333Y-68143571D01*
X185300952Y-68048333D01*
X185348571Y-68000714D01*
X185443810Y-67953095D01*
X185681905Y-67953095D01*
X185777143Y-68000714D01*
X185824762Y-68048333D01*
X185872381Y-68143571D01*
X185872381Y-68381667D01*
X185824762Y-68476905D01*
X185777143Y-68524524D01*
X199747143Y-79382857D02*
X199794762Y-79430476D01*
X199842381Y-79573333D01*
X199842381Y-79668571D01*
X199794762Y-79811429D01*
X199699524Y-79906667D01*
X199604286Y-79954286D01*
X199413810Y-80001905D01*
X199270952Y-80001905D01*
X199080476Y-79954286D01*
X198985238Y-79906667D01*
X198890000Y-79811429D01*
X198842381Y-79668571D01*
X198842381Y-79573333D01*
X198890000Y-79430476D01*
X198937619Y-79382857D01*
X198937619Y-79001905D02*
X198890000Y-78954286D01*
X198842381Y-78859048D01*
X198842381Y-78620952D01*
X198890000Y-78525714D01*
X198937619Y-78478095D01*
X199032857Y-78430476D01*
X199128095Y-78430476D01*
X199270952Y-78478095D01*
X199842381Y-79049524D01*
X199842381Y-78430476D01*
X198842381Y-77573333D02*
X198842381Y-77763810D01*
X198890000Y-77859048D01*
X198937619Y-77906667D01*
X199080476Y-78001905D01*
X199270952Y-78049524D01*
X199651905Y-78049524D01*
X199747143Y-78001905D01*
X199794762Y-77954286D01*
X199842381Y-77859048D01*
X199842381Y-77668571D01*
X199794762Y-77573333D01*
X199747143Y-77525714D01*
X199651905Y-77478095D01*
X199413810Y-77478095D01*
X199318571Y-77525714D01*
X199270952Y-77573333D01*
X199223333Y-77668571D01*
X199223333Y-77859048D01*
X199270952Y-77954286D01*
X199318571Y-78001905D01*
X199413810Y-78049524D01*
X191762143Y-81002143D02*
X191714524Y-81049762D01*
X191571667Y-81097381D01*
X191476429Y-81097381D01*
X191333571Y-81049762D01*
X191238333Y-80954524D01*
X191190714Y-80859286D01*
X191143095Y-80668810D01*
X191143095Y-80525952D01*
X191190714Y-80335476D01*
X191238333Y-80240238D01*
X191333571Y-80145000D01*
X191476429Y-80097381D01*
X191571667Y-80097381D01*
X191714524Y-80145000D01*
X191762143Y-80192619D01*
X192143095Y-80192619D02*
X192190714Y-80145000D01*
X192285952Y-80097381D01*
X192524048Y-80097381D01*
X192619286Y-80145000D01*
X192666905Y-80192619D01*
X192714524Y-80287857D01*
X192714524Y-80383095D01*
X192666905Y-80525952D01*
X192095476Y-81097381D01*
X192714524Y-81097381D01*
X193047857Y-80097381D02*
X193714524Y-80097381D01*
X193285952Y-81097381D01*
X199747143Y-66682857D02*
X199794762Y-66730476D01*
X199842381Y-66873333D01*
X199842381Y-66968571D01*
X199794762Y-67111429D01*
X199699524Y-67206667D01*
X199604286Y-67254286D01*
X199413810Y-67301905D01*
X199270952Y-67301905D01*
X199080476Y-67254286D01*
X198985238Y-67206667D01*
X198890000Y-67111429D01*
X198842381Y-66968571D01*
X198842381Y-66873333D01*
X198890000Y-66730476D01*
X198937619Y-66682857D01*
X198937619Y-66301905D02*
X198890000Y-66254286D01*
X198842381Y-66159048D01*
X198842381Y-65920952D01*
X198890000Y-65825714D01*
X198937619Y-65778095D01*
X199032857Y-65730476D01*
X199128095Y-65730476D01*
X199270952Y-65778095D01*
X199842381Y-66349524D01*
X199842381Y-65730476D01*
X199270952Y-65159048D02*
X199223333Y-65254286D01*
X199175714Y-65301905D01*
X199080476Y-65349524D01*
X199032857Y-65349524D01*
X198937619Y-65301905D01*
X198890000Y-65254286D01*
X198842381Y-65159048D01*
X198842381Y-64968571D01*
X198890000Y-64873333D01*
X198937619Y-64825714D01*
X199032857Y-64778095D01*
X199080476Y-64778095D01*
X199175714Y-64825714D01*
X199223333Y-64873333D01*
X199270952Y-64968571D01*
X199270952Y-65159048D01*
X199318571Y-65254286D01*
X199366190Y-65301905D01*
X199461429Y-65349524D01*
X199651905Y-65349524D01*
X199747143Y-65301905D01*
X199794762Y-65254286D01*
X199842381Y-65159048D01*
X199842381Y-64968571D01*
X199794762Y-64873333D01*
X199747143Y-64825714D01*
X199651905Y-64778095D01*
X199461429Y-64778095D01*
X199366190Y-64825714D01*
X199318571Y-64873333D01*
X199270952Y-64968571D01*
X156106905Y-68397381D02*
X156106905Y-67397381D01*
X156345000Y-67397381D01*
X156487858Y-67445000D01*
X156583096Y-67540238D01*
X156630715Y-67635476D01*
X156678334Y-67825952D01*
X156678334Y-67968810D01*
X156630715Y-68159286D01*
X156583096Y-68254524D01*
X156487858Y-68349762D01*
X156345000Y-68397381D01*
X156106905Y-68397381D01*
X157630715Y-68397381D02*
X157059286Y-68397381D01*
X157345000Y-68397381D02*
X157345000Y-67397381D01*
X157249762Y-67540238D01*
X157154524Y-67635476D01*
X157059286Y-67683095D01*
X176426905Y-69032381D02*
X176426905Y-68032381D01*
X176665000Y-68032381D01*
X176807858Y-68080000D01*
X176903096Y-68175238D01*
X176950715Y-68270476D01*
X176998334Y-68460952D01*
X176998334Y-68603810D01*
X176950715Y-68794286D01*
X176903096Y-68889524D01*
X176807858Y-68984762D01*
X176665000Y-69032381D01*
X176426905Y-69032381D01*
X177379286Y-68127619D02*
X177426905Y-68080000D01*
X177522143Y-68032381D01*
X177760239Y-68032381D01*
X177855477Y-68080000D01*
X177903096Y-68127619D01*
X177950715Y-68222857D01*
X177950715Y-68318095D01*
X177903096Y-68460952D01*
X177331667Y-69032381D01*
X177950715Y-69032381D01*
X173061405Y-93739981D02*
X173061405Y-92739981D01*
X173299500Y-92739981D01*
X173442358Y-92787600D01*
X173537596Y-92882838D01*
X173585215Y-92978076D01*
X173632834Y-93168552D01*
X173632834Y-93311410D01*
X173585215Y-93501886D01*
X173537596Y-93597124D01*
X173442358Y-93692362D01*
X173299500Y-93739981D01*
X173061405Y-93739981D01*
X173966167Y-92739981D02*
X174585215Y-92739981D01*
X174251881Y-93120933D01*
X174394739Y-93120933D01*
X174489977Y-93168552D01*
X174537596Y-93216171D01*
X174585215Y-93311410D01*
X174585215Y-93549505D01*
X174537596Y-93644743D01*
X174489977Y-93692362D01*
X174394739Y-93739981D01*
X174109024Y-93739981D01*
X174013786Y-93692362D01*
X173966167Y-93644743D01*
X152042905Y-93866981D02*
X152042905Y-92866981D01*
X152281000Y-92866981D01*
X152423858Y-92914600D01*
X152519096Y-93009838D01*
X152566715Y-93105076D01*
X152614334Y-93295552D01*
X152614334Y-93438410D01*
X152566715Y-93628886D01*
X152519096Y-93724124D01*
X152423858Y-93819362D01*
X152281000Y-93866981D01*
X152042905Y-93866981D01*
X153471477Y-93200314D02*
X153471477Y-93866981D01*
X153233381Y-92819362D02*
X152995286Y-93533648D01*
X153614334Y-93533648D01*
X144589881Y-54687695D02*
X143589881Y-54687695D01*
X143589881Y-54449600D01*
X143637500Y-54306742D01*
X143732738Y-54211504D01*
X143827976Y-54163885D01*
X144018452Y-54116266D01*
X144161310Y-54116266D01*
X144351786Y-54163885D01*
X144447024Y-54211504D01*
X144542262Y-54306742D01*
X144589881Y-54449600D01*
X144589881Y-54687695D01*
X143589881Y-53211504D02*
X143589881Y-53687695D01*
X144066071Y-53735314D01*
X144018452Y-53687695D01*
X143970833Y-53592457D01*
X143970833Y-53354361D01*
X144018452Y-53259123D01*
X144066071Y-53211504D01*
X144161310Y-53163885D01*
X144399405Y-53163885D01*
X144494643Y-53211504D01*
X144542262Y-53259123D01*
X144589881Y-53354361D01*
X144589881Y-53592457D01*
X144542262Y-53687695D01*
X144494643Y-53735314D01*
X138839881Y-50961505D02*
X137839881Y-50961505D01*
X138839881Y-50390076D02*
X138268452Y-50818648D01*
X137839881Y-50390076D02*
X138411310Y-50961505D01*
X138604167Y-57237695D02*
X138604167Y-56761504D01*
X138889881Y-57332933D02*
X137889881Y-56999600D01*
X138889881Y-56666266D01*
X161186905Y-48712381D02*
X161186905Y-47712381D01*
X161425000Y-47712381D01*
X161567858Y-47760000D01*
X161663096Y-47855238D01*
X161710715Y-47950476D01*
X161758334Y-48140952D01*
X161758334Y-48283810D01*
X161710715Y-48474286D01*
X161663096Y-48569524D01*
X161567858Y-48664762D01*
X161425000Y-48712381D01*
X161186905Y-48712381D01*
X162615477Y-47712381D02*
X162425000Y-47712381D01*
X162329762Y-47760000D01*
X162282143Y-47807619D01*
X162186905Y-47950476D01*
X162139286Y-48140952D01*
X162139286Y-48521905D01*
X162186905Y-48617143D01*
X162234524Y-48664762D01*
X162329762Y-48712381D01*
X162520239Y-48712381D01*
X162615477Y-48664762D01*
X162663096Y-48617143D01*
X162710715Y-48521905D01*
X162710715Y-48283810D01*
X162663096Y-48188571D01*
X162615477Y-48140952D01*
X162520239Y-48093333D01*
X162329762Y-48093333D01*
X162234524Y-48140952D01*
X162186905Y-48188571D01*
X162139286Y-48283810D01*
X159286881Y-50557645D02*
X158286881Y-50557645D01*
X159286881Y-49986216D02*
X158715452Y-50414788D01*
X158286881Y-49986216D02*
X158858310Y-50557645D01*
X159051167Y-56833835D02*
X159051167Y-56357644D01*
X159336881Y-56929073D02*
X158336881Y-56595740D01*
X159336881Y-56262406D01*
X161186905Y-71572381D02*
X161186905Y-70572381D01*
X161425000Y-70572381D01*
X161567858Y-70620000D01*
X161663096Y-70715238D01*
X161710715Y-70810476D01*
X161758334Y-71000952D01*
X161758334Y-71143810D01*
X161710715Y-71334286D01*
X161663096Y-71429524D01*
X161567858Y-71524762D01*
X161425000Y-71572381D01*
X161186905Y-71572381D01*
X162091667Y-70572381D02*
X162758334Y-70572381D01*
X162329762Y-71572381D01*
X158778881Y-73821505D02*
X157778881Y-73821505D01*
X158778881Y-73250076D02*
X158207452Y-73678648D01*
X157778881Y-73250076D02*
X158350310Y-73821505D01*
X158543167Y-80097695D02*
X158543167Y-79621504D01*
X158828881Y-80192933D02*
X157828881Y-79859600D01*
X158828881Y-79526266D01*
X140231905Y-72207381D02*
X140231905Y-71207381D01*
X140470000Y-71207381D01*
X140612858Y-71255000D01*
X140708096Y-71350238D01*
X140755715Y-71445476D01*
X140803334Y-71635952D01*
X140803334Y-71778810D01*
X140755715Y-71969286D01*
X140708096Y-72064524D01*
X140612858Y-72159762D01*
X140470000Y-72207381D01*
X140231905Y-72207381D01*
X141374762Y-71635952D02*
X141279524Y-71588333D01*
X141231905Y-71540714D01*
X141184286Y-71445476D01*
X141184286Y-71397857D01*
X141231905Y-71302619D01*
X141279524Y-71255000D01*
X141374762Y-71207381D01*
X141565239Y-71207381D01*
X141660477Y-71255000D01*
X141708096Y-71302619D01*
X141755715Y-71397857D01*
X141755715Y-71445476D01*
X141708096Y-71540714D01*
X141660477Y-71588333D01*
X141565239Y-71635952D01*
X141374762Y-71635952D01*
X141279524Y-71683571D01*
X141231905Y-71731190D01*
X141184286Y-71826429D01*
X141184286Y-72016905D01*
X141231905Y-72112143D01*
X141279524Y-72159762D01*
X141374762Y-72207381D01*
X141565239Y-72207381D01*
X141660477Y-72159762D01*
X141708096Y-72112143D01*
X141755715Y-72016905D01*
X141755715Y-71826429D01*
X141708096Y-71731190D01*
X141660477Y-71683571D01*
X141565239Y-71635952D01*
X138141381Y-74075505D02*
X137141381Y-74075505D01*
X138141381Y-73504076D02*
X137569952Y-73932648D01*
X137141381Y-73504076D02*
X137712810Y-74075505D01*
X137905667Y-80351695D02*
X137905667Y-79875504D01*
X138191381Y-80446933D02*
X137191381Y-80113600D01*
X138191381Y-79780266D01*
X198077081Y-66778095D02*
X197077081Y-66778095D01*
X197077081Y-66540000D01*
X197124700Y-66397142D01*
X197219938Y-66301904D01*
X197315176Y-66254285D01*
X197505652Y-66206666D01*
X197648510Y-66206666D01*
X197838986Y-66254285D01*
X197934224Y-66301904D01*
X198029462Y-66397142D01*
X198077081Y-66540000D01*
X198077081Y-66778095D01*
X198077081Y-65730476D02*
X198077081Y-65540000D01*
X198029462Y-65444761D01*
X197981843Y-65397142D01*
X197838986Y-65301904D01*
X197648510Y-65254285D01*
X197267557Y-65254285D01*
X197172319Y-65301904D01*
X197124700Y-65349523D01*
X197077081Y-65444761D01*
X197077081Y-65635238D01*
X197124700Y-65730476D01*
X197172319Y-65778095D01*
X197267557Y-65825714D01*
X197505652Y-65825714D01*
X197600890Y-65778095D01*
X197648510Y-65730476D01*
X197696129Y-65635238D01*
X197696129Y-65444761D01*
X197648510Y-65349523D01*
X197600890Y-65301904D01*
X197505652Y-65254285D01*
X165822334Y-58061981D02*
X165346143Y-58061981D01*
X165346143Y-57061981D01*
X166108048Y-57157219D02*
X166155667Y-57109600D01*
X166250905Y-57061981D01*
X166489001Y-57061981D01*
X166584239Y-57109600D01*
X166631858Y-57157219D01*
X166679477Y-57252457D01*
X166679477Y-57347695D01*
X166631858Y-57490552D01*
X166060429Y-58061981D01*
X166679477Y-58061981D01*
X160472381Y-87796666D02*
X160472381Y-88272857D01*
X159472381Y-88272857D01*
X159472381Y-87558571D02*
X159472381Y-86939523D01*
X159853333Y-87272857D01*
X159853333Y-87129999D01*
X159900952Y-87034761D01*
X159948571Y-86987142D01*
X160043810Y-86939523D01*
X160281905Y-86939523D01*
X160377143Y-86987142D01*
X160424762Y-87034761D01*
X160472381Y-87129999D01*
X160472381Y-87415714D01*
X160424762Y-87510952D01*
X160377143Y-87558571D01*
X139517381Y-87161666D02*
X139517381Y-87637857D01*
X138517381Y-87637857D01*
X138850714Y-86399761D02*
X139517381Y-86399761D01*
X138469762Y-86637857D02*
X139184048Y-86875952D01*
X139184048Y-86256904D01*
X194143334Y-63952381D02*
X193667143Y-63952381D01*
X193667143Y-62952381D01*
X194952858Y-62952381D02*
X194476667Y-62952381D01*
X194429048Y-63428571D01*
X194476667Y-63380952D01*
X194571905Y-63333333D01*
X194810001Y-63333333D01*
X194905239Y-63380952D01*
X194952858Y-63428571D01*
X195000477Y-63523810D01*
X195000477Y-63761905D01*
X194952858Y-63857143D01*
X194905239Y-63904762D01*
X194810001Y-63952381D01*
X194571905Y-63952381D01*
X194476667Y-63904762D01*
X194429048Y-63857143D01*
X203164381Y-60428095D02*
X202164381Y-60428095D01*
X202164381Y-60047142D01*
X202212000Y-59951904D01*
X202259619Y-59904285D01*
X202354857Y-59856666D01*
X202497714Y-59856666D01*
X202592952Y-59904285D01*
X202640571Y-59951904D01*
X202688190Y-60047142D01*
X202688190Y-60428095D01*
X202259619Y-59475714D02*
X202212000Y-59428095D01*
X202164381Y-59332857D01*
X202164381Y-59094761D01*
X202212000Y-58999523D01*
X202259619Y-58951904D01*
X202354857Y-58904285D01*
X202450095Y-58904285D01*
X202592952Y-58951904D01*
X203164381Y-59523333D01*
X203164381Y-58904285D01*
X147835334Y-55857981D02*
X147502000Y-55381790D01*
X147263905Y-55857981D02*
X147263905Y-54857981D01*
X147644858Y-54857981D01*
X147740096Y-54905600D01*
X147787715Y-54953219D01*
X147835334Y-55048457D01*
X147835334Y-55191314D01*
X147787715Y-55286552D01*
X147740096Y-55334171D01*
X147644858Y-55381790D01*
X147263905Y-55381790D01*
X148787715Y-55857981D02*
X148216286Y-55857981D01*
X148502000Y-55857981D02*
X148502000Y-54857981D01*
X148406762Y-55000838D01*
X148311524Y-55096076D01*
X148216286Y-55143695D01*
X168108334Y-59507381D02*
X167775000Y-59031190D01*
X167536905Y-59507381D02*
X167536905Y-58507381D01*
X167917858Y-58507381D01*
X168013096Y-58555000D01*
X168060715Y-58602619D01*
X168108334Y-58697857D01*
X168108334Y-58840714D01*
X168060715Y-58935952D01*
X168013096Y-58983571D01*
X167917858Y-59031190D01*
X167536905Y-59031190D01*
X168489286Y-58602619D02*
X168536905Y-58555000D01*
X168632143Y-58507381D01*
X168870239Y-58507381D01*
X168965477Y-58555000D01*
X169013096Y-58602619D01*
X169060715Y-58697857D01*
X169060715Y-58793095D01*
X169013096Y-58935952D01*
X168441667Y-59507381D01*
X169060715Y-59507381D01*
X168743334Y-83002381D02*
X168410000Y-82526190D01*
X168171905Y-83002381D02*
X168171905Y-82002381D01*
X168552858Y-82002381D01*
X168648096Y-82050000D01*
X168695715Y-82097619D01*
X168743334Y-82192857D01*
X168743334Y-82335714D01*
X168695715Y-82430952D01*
X168648096Y-82478571D01*
X168552858Y-82526190D01*
X168171905Y-82526190D01*
X169076667Y-82002381D02*
X169695715Y-82002381D01*
X169362381Y-82383333D01*
X169505239Y-82383333D01*
X169600477Y-82430952D01*
X169648096Y-82478571D01*
X169695715Y-82573810D01*
X169695715Y-82811905D01*
X169648096Y-82907143D01*
X169600477Y-82954762D01*
X169505239Y-83002381D01*
X169219524Y-83002381D01*
X169124286Y-82954762D01*
X169076667Y-82907143D01*
X147153334Y-83002381D02*
X146820000Y-82526190D01*
X146581905Y-83002381D02*
X146581905Y-82002381D01*
X146962858Y-82002381D01*
X147058096Y-82050000D01*
X147105715Y-82097619D01*
X147153334Y-82192857D01*
X147153334Y-82335714D01*
X147105715Y-82430952D01*
X147058096Y-82478571D01*
X146962858Y-82526190D01*
X146581905Y-82526190D01*
X148010477Y-82335714D02*
X148010477Y-83002381D01*
X147772381Y-81954762D02*
X147534286Y-82669048D01*
X148153334Y-82669048D01*
X152217381Y-50331666D02*
X151741190Y-50665000D01*
X152217381Y-50903095D02*
X151217381Y-50903095D01*
X151217381Y-50522142D01*
X151265000Y-50426904D01*
X151312619Y-50379285D01*
X151407857Y-50331666D01*
X151550714Y-50331666D01*
X151645952Y-50379285D01*
X151693571Y-50426904D01*
X151741190Y-50522142D01*
X151741190Y-50903095D01*
X151217381Y-49426904D02*
X151217381Y-49903095D01*
X151693571Y-49950714D01*
X151645952Y-49903095D01*
X151598333Y-49807857D01*
X151598333Y-49569761D01*
X151645952Y-49474523D01*
X151693571Y-49426904D01*
X151788810Y-49379285D01*
X152026905Y-49379285D01*
X152122143Y-49426904D01*
X152169762Y-49474523D01*
X152217381Y-49569761D01*
X152217381Y-49807857D01*
X152169762Y-49903095D01*
X152122143Y-49950714D01*
X154757381Y-50331666D02*
X154281190Y-50665000D01*
X154757381Y-50903095D02*
X153757381Y-50903095D01*
X153757381Y-50522142D01*
X153805000Y-50426904D01*
X153852619Y-50379285D01*
X153947857Y-50331666D01*
X154090714Y-50331666D01*
X154185952Y-50379285D01*
X154233571Y-50426904D01*
X154281190Y-50522142D01*
X154281190Y-50903095D01*
X153757381Y-49474523D02*
X153757381Y-49665000D01*
X153805000Y-49760238D01*
X153852619Y-49807857D01*
X153995476Y-49903095D01*
X154185952Y-49950714D01*
X154566905Y-49950714D01*
X154662143Y-49903095D01*
X154709762Y-49855476D01*
X154757381Y-49760238D01*
X154757381Y-49569761D01*
X154709762Y-49474523D01*
X154662143Y-49426904D01*
X154566905Y-49379285D01*
X154328810Y-49379285D01*
X154233571Y-49426904D01*
X154185952Y-49474523D01*
X154138333Y-49569761D01*
X154138333Y-49760238D01*
X154185952Y-49855476D01*
X154233571Y-49903095D01*
X154328810Y-49950714D01*
X172537381Y-49696666D02*
X172061190Y-50030000D01*
X172537381Y-50268095D02*
X171537381Y-50268095D01*
X171537381Y-49887142D01*
X171585000Y-49791904D01*
X171632619Y-49744285D01*
X171727857Y-49696666D01*
X171870714Y-49696666D01*
X171965952Y-49744285D01*
X172013571Y-49791904D01*
X172061190Y-49887142D01*
X172061190Y-50268095D01*
X171537381Y-49363333D02*
X171537381Y-48696666D01*
X172537381Y-49125238D01*
X175077381Y-49696666D02*
X174601190Y-50030000D01*
X175077381Y-50268095D02*
X174077381Y-50268095D01*
X174077381Y-49887142D01*
X174125000Y-49791904D01*
X174172619Y-49744285D01*
X174267857Y-49696666D01*
X174410714Y-49696666D01*
X174505952Y-49744285D01*
X174553571Y-49791904D01*
X174601190Y-49887142D01*
X174601190Y-50268095D01*
X174505952Y-49125238D02*
X174458333Y-49220476D01*
X174410714Y-49268095D01*
X174315476Y-49315714D01*
X174267857Y-49315714D01*
X174172619Y-49268095D01*
X174125000Y-49220476D01*
X174077381Y-49125238D01*
X174077381Y-48934761D01*
X174125000Y-48839523D01*
X174172619Y-48791904D01*
X174267857Y-48744285D01*
X174315476Y-48744285D01*
X174410714Y-48791904D01*
X174458333Y-48839523D01*
X174505952Y-48934761D01*
X174505952Y-49125238D01*
X174553571Y-49220476D01*
X174601190Y-49268095D01*
X174696429Y-49315714D01*
X174886905Y-49315714D01*
X174982143Y-49268095D01*
X175029762Y-49220476D01*
X175077381Y-49125238D01*
X175077381Y-48934761D01*
X175029762Y-48839523D01*
X174982143Y-48791904D01*
X174886905Y-48744285D01*
X174696429Y-48744285D01*
X174601190Y-48791904D01*
X174553571Y-48839523D01*
X174505952Y-48934761D01*
X172537381Y-73191666D02*
X172061190Y-73525000D01*
X172537381Y-73763095D02*
X171537381Y-73763095D01*
X171537381Y-73382142D01*
X171585000Y-73286904D01*
X171632619Y-73239285D01*
X171727857Y-73191666D01*
X171870714Y-73191666D01*
X171965952Y-73239285D01*
X172013571Y-73286904D01*
X172061190Y-73382142D01*
X172061190Y-73763095D01*
X172537381Y-72715476D02*
X172537381Y-72525000D01*
X172489762Y-72429761D01*
X172442143Y-72382142D01*
X172299286Y-72286904D01*
X172108810Y-72239285D01*
X171727857Y-72239285D01*
X171632619Y-72286904D01*
X171585000Y-72334523D01*
X171537381Y-72429761D01*
X171537381Y-72620238D01*
X171585000Y-72715476D01*
X171632619Y-72763095D01*
X171727857Y-72810714D01*
X171965952Y-72810714D01*
X172061190Y-72763095D01*
X172108810Y-72715476D01*
X172156429Y-72620238D01*
X172156429Y-72429761D01*
X172108810Y-72334523D01*
X172061190Y-72286904D01*
X171965952Y-72239285D01*
X175077381Y-73032857D02*
X174601190Y-73366191D01*
X175077381Y-73604286D02*
X174077381Y-73604286D01*
X174077381Y-73223333D01*
X174125000Y-73128095D01*
X174172619Y-73080476D01*
X174267857Y-73032857D01*
X174410714Y-73032857D01*
X174505952Y-73080476D01*
X174553571Y-73128095D01*
X174601190Y-73223333D01*
X174601190Y-73604286D01*
X175077381Y-72080476D02*
X175077381Y-72651905D01*
X175077381Y-72366191D02*
X174077381Y-72366191D01*
X174220238Y-72461429D01*
X174315476Y-72556667D01*
X174363095Y-72651905D01*
X174077381Y-71461429D02*
X174077381Y-71366190D01*
X174125000Y-71270952D01*
X174172619Y-71223333D01*
X174267857Y-71175714D01*
X174458333Y-71128095D01*
X174696429Y-71128095D01*
X174886905Y-71175714D01*
X174982143Y-71223333D01*
X175029762Y-71270952D01*
X175077381Y-71366190D01*
X175077381Y-71461429D01*
X175029762Y-71556667D01*
X174982143Y-71604286D01*
X174886905Y-71651905D01*
X174696429Y-71699524D01*
X174458333Y-71699524D01*
X174267857Y-71651905D01*
X174172619Y-71604286D01*
X174125000Y-71556667D01*
X174077381Y-71461429D01*
X151582381Y-73667857D02*
X151106190Y-74001191D01*
X151582381Y-74239286D02*
X150582381Y-74239286D01*
X150582381Y-73858333D01*
X150630000Y-73763095D01*
X150677619Y-73715476D01*
X150772857Y-73667857D01*
X150915714Y-73667857D01*
X151010952Y-73715476D01*
X151058571Y-73763095D01*
X151106190Y-73858333D01*
X151106190Y-74239286D01*
X151582381Y-72715476D02*
X151582381Y-73286905D01*
X151582381Y-73001191D02*
X150582381Y-73001191D01*
X150725238Y-73096429D01*
X150820476Y-73191667D01*
X150868095Y-73286905D01*
X151582381Y-71763095D02*
X151582381Y-72334524D01*
X151582381Y-72048810D02*
X150582381Y-72048810D01*
X150725238Y-72144048D01*
X150820476Y-72239286D01*
X150868095Y-72334524D01*
X154122381Y-73667857D02*
X153646190Y-74001191D01*
X154122381Y-74239286D02*
X153122381Y-74239286D01*
X153122381Y-73858333D01*
X153170000Y-73763095D01*
X153217619Y-73715476D01*
X153312857Y-73667857D01*
X153455714Y-73667857D01*
X153550952Y-73715476D01*
X153598571Y-73763095D01*
X153646190Y-73858333D01*
X153646190Y-74239286D01*
X154122381Y-72715476D02*
X154122381Y-73286905D01*
X154122381Y-73001191D02*
X153122381Y-73001191D01*
X153265238Y-73096429D01*
X153360476Y-73191667D01*
X153408095Y-73286905D01*
X153217619Y-72334524D02*
X153170000Y-72286905D01*
X153122381Y-72191667D01*
X153122381Y-71953571D01*
X153170000Y-71858333D01*
X153217619Y-71810714D01*
X153312857Y-71763095D01*
X153408095Y-71763095D01*
X153550952Y-71810714D01*
X154122381Y-72382143D01*
X154122381Y-71763095D01*
X152201643Y-46856981D02*
X151868309Y-46380790D01*
X151630214Y-46856981D02*
X151630214Y-45856981D01*
X152011167Y-45856981D01*
X152106405Y-45904600D01*
X152154024Y-45952219D01*
X152201643Y-46047457D01*
X152201643Y-46190314D01*
X152154024Y-46285552D01*
X152106405Y-46333171D01*
X152011167Y-46380790D01*
X151630214Y-46380790D01*
X153154024Y-46856981D02*
X152582595Y-46856981D01*
X152868309Y-46856981D02*
X152868309Y-45856981D01*
X152773071Y-45999838D01*
X152677833Y-46095076D01*
X152582595Y-46142695D01*
X153487357Y-45856981D02*
X154106405Y-45856981D01*
X153773071Y-46237933D01*
X153915929Y-46237933D01*
X154011167Y-46285552D01*
X154058786Y-46333171D01*
X154106405Y-46428410D01*
X154106405Y-46666505D01*
X154058786Y-46761743D01*
X154011167Y-46809362D01*
X153915929Y-46856981D01*
X153630214Y-46856981D01*
X153534976Y-46809362D01*
X153487357Y-46761743D01*
X172585143Y-46348981D02*
X172251809Y-45872790D01*
X172013714Y-46348981D02*
X172013714Y-45348981D01*
X172394667Y-45348981D01*
X172489905Y-45396600D01*
X172537524Y-45444219D01*
X172585143Y-45539457D01*
X172585143Y-45682314D01*
X172537524Y-45777552D01*
X172489905Y-45825171D01*
X172394667Y-45872790D01*
X172013714Y-45872790D01*
X173537524Y-46348981D02*
X172966095Y-46348981D01*
X173251809Y-46348981D02*
X173251809Y-45348981D01*
X173156571Y-45491838D01*
X173061333Y-45587076D01*
X172966095Y-45634695D01*
X174394667Y-45682314D02*
X174394667Y-46348981D01*
X174156571Y-45301362D02*
X173918476Y-46015648D01*
X174537524Y-46015648D01*
X180157381Y-72397857D02*
X179681190Y-72731191D01*
X180157381Y-72969286D02*
X179157381Y-72969286D01*
X179157381Y-72588333D01*
X179205000Y-72493095D01*
X179252619Y-72445476D01*
X179347857Y-72397857D01*
X179490714Y-72397857D01*
X179585952Y-72445476D01*
X179633571Y-72493095D01*
X179681190Y-72588333D01*
X179681190Y-72969286D01*
X180157381Y-71445476D02*
X180157381Y-72016905D01*
X180157381Y-71731191D02*
X179157381Y-71731191D01*
X179300238Y-71826429D01*
X179395476Y-71921667D01*
X179443095Y-72016905D01*
X179157381Y-70540714D02*
X179157381Y-71016905D01*
X179633571Y-71064524D01*
X179585952Y-71016905D01*
X179538333Y-70921667D01*
X179538333Y-70683571D01*
X179585952Y-70588333D01*
X179633571Y-70540714D01*
X179728810Y-70493095D01*
X179966905Y-70493095D01*
X180062143Y-70540714D01*
X180109762Y-70588333D01*
X180157381Y-70683571D01*
X180157381Y-70921667D01*
X180109762Y-71016905D01*
X180062143Y-71064524D01*
X156837143Y-70302381D02*
X156503809Y-69826190D01*
X156265714Y-70302381D02*
X156265714Y-69302381D01*
X156646667Y-69302381D01*
X156741905Y-69350000D01*
X156789524Y-69397619D01*
X156837143Y-69492857D01*
X156837143Y-69635714D01*
X156789524Y-69730952D01*
X156741905Y-69778571D01*
X156646667Y-69826190D01*
X156265714Y-69826190D01*
X157789524Y-70302381D02*
X157218095Y-70302381D01*
X157503809Y-70302381D02*
X157503809Y-69302381D01*
X157408571Y-69445238D01*
X157313333Y-69540476D01*
X157218095Y-69588095D01*
X158646667Y-69302381D02*
X158456190Y-69302381D01*
X158360952Y-69350000D01*
X158313333Y-69397619D01*
X158218095Y-69540476D01*
X158170476Y-69730952D01*
X158170476Y-70111905D01*
X158218095Y-70207143D01*
X158265714Y-70254762D01*
X158360952Y-70302381D01*
X158551429Y-70302381D01*
X158646667Y-70254762D01*
X158694286Y-70207143D01*
X158741905Y-70111905D01*
X158741905Y-69873810D01*
X158694286Y-69778571D01*
X158646667Y-69730952D01*
X158551429Y-69683333D01*
X158360952Y-69683333D01*
X158265714Y-69730952D01*
X158218095Y-69778571D01*
X158170476Y-69873810D01*
X155567143Y-81097381D02*
X155233809Y-80621190D01*
X154995714Y-81097381D02*
X154995714Y-80097381D01*
X155376667Y-80097381D01*
X155471905Y-80145000D01*
X155519524Y-80192619D01*
X155567143Y-80287857D01*
X155567143Y-80430714D01*
X155519524Y-80525952D01*
X155471905Y-80573571D01*
X155376667Y-80621190D01*
X154995714Y-80621190D01*
X156519524Y-81097381D02*
X155948095Y-81097381D01*
X156233809Y-81097381D02*
X156233809Y-80097381D01*
X156138571Y-80240238D01*
X156043333Y-80335476D01*
X155948095Y-80383095D01*
X156852857Y-80097381D02*
X157519524Y-80097381D01*
X157090952Y-81097381D01*
X154932143Y-87447381D02*
X154598809Y-86971190D01*
X154360714Y-87447381D02*
X154360714Y-86447381D01*
X154741667Y-86447381D01*
X154836905Y-86495000D01*
X154884524Y-86542619D01*
X154932143Y-86637857D01*
X154932143Y-86780714D01*
X154884524Y-86875952D01*
X154836905Y-86923571D01*
X154741667Y-86971190D01*
X154360714Y-86971190D01*
X155884524Y-87447381D02*
X155313095Y-87447381D01*
X155598809Y-87447381D02*
X155598809Y-86447381D01*
X155503571Y-86590238D01*
X155408333Y-86685476D01*
X155313095Y-86733095D01*
X156455952Y-86875952D02*
X156360714Y-86828333D01*
X156313095Y-86780714D01*
X156265476Y-86685476D01*
X156265476Y-86637857D01*
X156313095Y-86542619D01*
X156360714Y-86495000D01*
X156455952Y-86447381D01*
X156646429Y-86447381D01*
X156741667Y-86495000D01*
X156789286Y-86542619D01*
X156836905Y-86637857D01*
X156836905Y-86685476D01*
X156789286Y-86780714D01*
X156741667Y-86828333D01*
X156646429Y-86875952D01*
X156455952Y-86875952D01*
X156360714Y-86923571D01*
X156313095Y-86971190D01*
X156265476Y-87066429D01*
X156265476Y-87256905D01*
X156313095Y-87352143D01*
X156360714Y-87399762D01*
X156455952Y-87447381D01*
X156646429Y-87447381D01*
X156741667Y-87399762D01*
X156789286Y-87352143D01*
X156836905Y-87256905D01*
X156836905Y-87066429D01*
X156789286Y-86971190D01*
X156741667Y-86923571D01*
X156646429Y-86875952D01*
X156202143Y-58237381D02*
X155868809Y-57761190D01*
X155630714Y-58237381D02*
X155630714Y-57237381D01*
X156011667Y-57237381D01*
X156106905Y-57285000D01*
X156154524Y-57332619D01*
X156202143Y-57427857D01*
X156202143Y-57570714D01*
X156154524Y-57665952D01*
X156106905Y-57713571D01*
X156011667Y-57761190D01*
X155630714Y-57761190D01*
X157154524Y-58237381D02*
X156583095Y-58237381D01*
X156868809Y-58237381D02*
X156868809Y-57237381D01*
X156773571Y-57380238D01*
X156678333Y-57475476D01*
X156583095Y-57523095D01*
X157630714Y-58237381D02*
X157821190Y-58237381D01*
X157916429Y-58189762D01*
X157964048Y-58142143D01*
X158059286Y-57999286D01*
X158106905Y-57808810D01*
X158106905Y-57427857D01*
X158059286Y-57332619D01*
X158011667Y-57285000D01*
X157916429Y-57237381D01*
X157725952Y-57237381D01*
X157630714Y-57285000D01*
X157583095Y-57332619D01*
X157535476Y-57427857D01*
X157535476Y-57665952D01*
X157583095Y-57761190D01*
X157630714Y-57808810D01*
X157725952Y-57856429D01*
X157916429Y-57856429D01*
X158011667Y-57808810D01*
X158059286Y-57761190D01*
X158106905Y-57665952D01*
X155567143Y-64587381D02*
X155233809Y-64111190D01*
X154995714Y-64587381D02*
X154995714Y-63587381D01*
X155376667Y-63587381D01*
X155471905Y-63635000D01*
X155519524Y-63682619D01*
X155567143Y-63777857D01*
X155567143Y-63920714D01*
X155519524Y-64015952D01*
X155471905Y-64063571D01*
X155376667Y-64111190D01*
X154995714Y-64111190D01*
X155948095Y-63682619D02*
X155995714Y-63635000D01*
X156090952Y-63587381D01*
X156329048Y-63587381D01*
X156424286Y-63635000D01*
X156471905Y-63682619D01*
X156519524Y-63777857D01*
X156519524Y-63873095D01*
X156471905Y-64015952D01*
X155900476Y-64587381D01*
X156519524Y-64587381D01*
X157138571Y-63587381D02*
X157233810Y-63587381D01*
X157329048Y-63635000D01*
X157376667Y-63682619D01*
X157424286Y-63777857D01*
X157471905Y-63968333D01*
X157471905Y-64206429D01*
X157424286Y-64396905D01*
X157376667Y-64492143D01*
X157329048Y-64539762D01*
X157233810Y-64587381D01*
X157138571Y-64587381D01*
X157043333Y-64539762D01*
X156995714Y-64492143D01*
X156948095Y-64396905D01*
X156900476Y-64206429D01*
X156900476Y-63968333D01*
X156948095Y-63777857D01*
X156995714Y-63682619D01*
X157043333Y-63635000D01*
X157138571Y-63587381D01*
X176522143Y-57602381D02*
X176188809Y-57126190D01*
X175950714Y-57602381D02*
X175950714Y-56602381D01*
X176331667Y-56602381D01*
X176426905Y-56650000D01*
X176474524Y-56697619D01*
X176522143Y-56792857D01*
X176522143Y-56935714D01*
X176474524Y-57030952D01*
X176426905Y-57078571D01*
X176331667Y-57126190D01*
X175950714Y-57126190D01*
X176903095Y-56697619D02*
X176950714Y-56650000D01*
X177045952Y-56602381D01*
X177284048Y-56602381D01*
X177379286Y-56650000D01*
X177426905Y-56697619D01*
X177474524Y-56792857D01*
X177474524Y-56888095D01*
X177426905Y-57030952D01*
X176855476Y-57602381D01*
X177474524Y-57602381D01*
X178426905Y-57602381D02*
X177855476Y-57602381D01*
X178141190Y-57602381D02*
X178141190Y-56602381D01*
X178045952Y-56745238D01*
X177950714Y-56840476D01*
X177855476Y-56888095D01*
X176522143Y-64587381D02*
X176188809Y-64111190D01*
X175950714Y-64587381D02*
X175950714Y-63587381D01*
X176331667Y-63587381D01*
X176426905Y-63635000D01*
X176474524Y-63682619D01*
X176522143Y-63777857D01*
X176522143Y-63920714D01*
X176474524Y-64015952D01*
X176426905Y-64063571D01*
X176331667Y-64111190D01*
X175950714Y-64111190D01*
X176903095Y-63682619D02*
X176950714Y-63635000D01*
X177045952Y-63587381D01*
X177284048Y-63587381D01*
X177379286Y-63635000D01*
X177426905Y-63682619D01*
X177474524Y-63777857D01*
X177474524Y-63873095D01*
X177426905Y-64015952D01*
X176855476Y-64587381D01*
X177474524Y-64587381D01*
X177855476Y-63682619D02*
X177903095Y-63635000D01*
X177998333Y-63587381D01*
X178236429Y-63587381D01*
X178331667Y-63635000D01*
X178379286Y-63682619D01*
X178426905Y-63777857D01*
X178426905Y-63873095D01*
X178379286Y-64015952D01*
X177807857Y-64587381D01*
X178426905Y-64587381D01*
X176522143Y-81097381D02*
X176188809Y-80621190D01*
X175950714Y-81097381D02*
X175950714Y-80097381D01*
X176331667Y-80097381D01*
X176426905Y-80145000D01*
X176474524Y-80192619D01*
X176522143Y-80287857D01*
X176522143Y-80430714D01*
X176474524Y-80525952D01*
X176426905Y-80573571D01*
X176331667Y-80621190D01*
X175950714Y-80621190D01*
X176903095Y-80192619D02*
X176950714Y-80145000D01*
X177045952Y-80097381D01*
X177284048Y-80097381D01*
X177379286Y-80145000D01*
X177426905Y-80192619D01*
X177474524Y-80287857D01*
X177474524Y-80383095D01*
X177426905Y-80525952D01*
X176855476Y-81097381D01*
X177474524Y-81097381D01*
X177807857Y-80097381D02*
X178426905Y-80097381D01*
X178093571Y-80478333D01*
X178236429Y-80478333D01*
X178331667Y-80525952D01*
X178379286Y-80573571D01*
X178426905Y-80668810D01*
X178426905Y-80906905D01*
X178379286Y-81002143D01*
X178331667Y-81049762D01*
X178236429Y-81097381D01*
X177950714Y-81097381D01*
X177855476Y-81049762D01*
X177807857Y-81002143D01*
X175887143Y-87447381D02*
X175553809Y-86971190D01*
X175315714Y-87447381D02*
X175315714Y-86447381D01*
X175696667Y-86447381D01*
X175791905Y-86495000D01*
X175839524Y-86542619D01*
X175887143Y-86637857D01*
X175887143Y-86780714D01*
X175839524Y-86875952D01*
X175791905Y-86923571D01*
X175696667Y-86971190D01*
X175315714Y-86971190D01*
X176268095Y-86542619D02*
X176315714Y-86495000D01*
X176410952Y-86447381D01*
X176649048Y-86447381D01*
X176744286Y-86495000D01*
X176791905Y-86542619D01*
X176839524Y-86637857D01*
X176839524Y-86733095D01*
X176791905Y-86875952D01*
X176220476Y-87447381D01*
X176839524Y-87447381D01*
X177696667Y-86780714D02*
X177696667Y-87447381D01*
X177458571Y-86399762D02*
X177220476Y-87114048D01*
X177839524Y-87114048D01*
X185872381Y-74937857D02*
X185396190Y-75271191D01*
X185872381Y-75509286D02*
X184872381Y-75509286D01*
X184872381Y-75128333D01*
X184920000Y-75033095D01*
X184967619Y-74985476D01*
X185062857Y-74937857D01*
X185205714Y-74937857D01*
X185300952Y-74985476D01*
X185348571Y-75033095D01*
X185396190Y-75128333D01*
X185396190Y-75509286D01*
X184967619Y-74556905D02*
X184920000Y-74509286D01*
X184872381Y-74414048D01*
X184872381Y-74175952D01*
X184920000Y-74080714D01*
X184967619Y-74033095D01*
X185062857Y-73985476D01*
X185158095Y-73985476D01*
X185300952Y-74033095D01*
X185872381Y-74604524D01*
X185872381Y-73985476D01*
X184872381Y-73080714D02*
X184872381Y-73556905D01*
X185348571Y-73604524D01*
X185300952Y-73556905D01*
X185253333Y-73461667D01*
X185253333Y-73223571D01*
X185300952Y-73128333D01*
X185348571Y-73080714D01*
X185443810Y-73033095D01*
X185681905Y-73033095D01*
X185777143Y-73080714D01*
X185824762Y-73128333D01*
X185872381Y-73223571D01*
X185872381Y-73461667D01*
X185824762Y-73556905D01*
X185777143Y-73604524D01*
X197937381Y-79382857D02*
X197461190Y-79716191D01*
X197937381Y-79954286D02*
X196937381Y-79954286D01*
X196937381Y-79573333D01*
X196985000Y-79478095D01*
X197032619Y-79430476D01*
X197127857Y-79382857D01*
X197270714Y-79382857D01*
X197365952Y-79430476D01*
X197413571Y-79478095D01*
X197461190Y-79573333D01*
X197461190Y-79954286D01*
X197032619Y-79001905D02*
X196985000Y-78954286D01*
X196937381Y-78859048D01*
X196937381Y-78620952D01*
X196985000Y-78525714D01*
X197032619Y-78478095D01*
X197127857Y-78430476D01*
X197223095Y-78430476D01*
X197365952Y-78478095D01*
X197937381Y-79049524D01*
X197937381Y-78430476D01*
X196937381Y-77573333D02*
X196937381Y-77763810D01*
X196985000Y-77859048D01*
X197032619Y-77906667D01*
X197175476Y-78001905D01*
X197365952Y-78049524D01*
X197746905Y-78049524D01*
X197842143Y-78001905D01*
X197889762Y-77954286D01*
X197937381Y-77859048D01*
X197937381Y-77668571D01*
X197889762Y-77573333D01*
X197842143Y-77525714D01*
X197746905Y-77478095D01*
X197508810Y-77478095D01*
X197413571Y-77525714D01*
X197365952Y-77573333D01*
X197318333Y-77668571D01*
X197318333Y-77859048D01*
X197365952Y-77954286D01*
X197413571Y-78001905D01*
X197508810Y-78049524D01*
X196032381Y-77477857D02*
X195556190Y-77811191D01*
X196032381Y-78049286D02*
X195032381Y-78049286D01*
X195032381Y-77668333D01*
X195080000Y-77573095D01*
X195127619Y-77525476D01*
X195222857Y-77477857D01*
X195365714Y-77477857D01*
X195460952Y-77525476D01*
X195508571Y-77573095D01*
X195556190Y-77668333D01*
X195556190Y-78049286D01*
X195127619Y-77096905D02*
X195080000Y-77049286D01*
X195032381Y-76954048D01*
X195032381Y-76715952D01*
X195080000Y-76620714D01*
X195127619Y-76573095D01*
X195222857Y-76525476D01*
X195318095Y-76525476D01*
X195460952Y-76573095D01*
X196032381Y-77144524D01*
X196032381Y-76525476D01*
X195032381Y-76192143D02*
X195032381Y-75525476D01*
X196032381Y-75954048D01*
X185872381Y-79382857D02*
X185396190Y-79716191D01*
X185872381Y-79954286D02*
X184872381Y-79954286D01*
X184872381Y-79573333D01*
X184920000Y-79478095D01*
X184967619Y-79430476D01*
X185062857Y-79382857D01*
X185205714Y-79382857D01*
X185300952Y-79430476D01*
X185348571Y-79478095D01*
X185396190Y-79573333D01*
X185396190Y-79954286D01*
X184967619Y-79001905D02*
X184920000Y-78954286D01*
X184872381Y-78859048D01*
X184872381Y-78620952D01*
X184920000Y-78525714D01*
X184967619Y-78478095D01*
X185062857Y-78430476D01*
X185158095Y-78430476D01*
X185300952Y-78478095D01*
X185872381Y-79049524D01*
X185872381Y-78430476D01*
X185300952Y-77859048D02*
X185253333Y-77954286D01*
X185205714Y-78001905D01*
X185110476Y-78049524D01*
X185062857Y-78049524D01*
X184967619Y-78001905D01*
X184920000Y-77954286D01*
X184872381Y-77859048D01*
X184872381Y-77668571D01*
X184920000Y-77573333D01*
X184967619Y-77525714D01*
X185062857Y-77478095D01*
X185110476Y-77478095D01*
X185205714Y-77525714D01*
X185253333Y-77573333D01*
X185300952Y-77668571D01*
X185300952Y-77859048D01*
X185348571Y-77954286D01*
X185396190Y-78001905D01*
X185491429Y-78049524D01*
X185681905Y-78049524D01*
X185777143Y-78001905D01*
X185824762Y-77954286D01*
X185872381Y-77859048D01*
X185872381Y-77668571D01*
X185824762Y-77573333D01*
X185777143Y-77525714D01*
X185681905Y-77478095D01*
X185491429Y-77478095D01*
X185396190Y-77525714D01*
X185348571Y-77573333D01*
X185300952Y-77668571D01*
X149756398Y-63600182D02*
X150565922Y-63600182D01*
X150661160Y-63552563D01*
X150708779Y-63504944D01*
X150756398Y-63409706D01*
X150756398Y-63219229D01*
X150708779Y-63123991D01*
X150661160Y-63076372D01*
X150565922Y-63028753D01*
X149756398Y-63028753D01*
X150756398Y-62028753D02*
X150756398Y-62600182D01*
X150756398Y-62314468D02*
X149756398Y-62314468D01*
X149899255Y-62409706D01*
X149994493Y-62504944D01*
X150042112Y-62600182D01*
X170193881Y-63601505D02*
X171003405Y-63601505D01*
X171098643Y-63553886D01*
X171146262Y-63506267D01*
X171193881Y-63411029D01*
X171193881Y-63220552D01*
X171146262Y-63125314D01*
X171098643Y-63077695D01*
X171003405Y-63030076D01*
X170193881Y-63030076D01*
X170289119Y-62601505D02*
X170241500Y-62553886D01*
X170193881Y-62458648D01*
X170193881Y-62220552D01*
X170241500Y-62125314D01*
X170289119Y-62077695D01*
X170384357Y-62030076D01*
X170479595Y-62030076D01*
X170622452Y-62077695D01*
X171193881Y-62649124D01*
X171193881Y-62030076D01*
X175347381Y-89661905D02*
X176156905Y-89661905D01*
X176252143Y-89614286D01*
X176299762Y-89566667D01*
X176347381Y-89471429D01*
X176347381Y-89280952D01*
X176299762Y-89185714D01*
X176252143Y-89138095D01*
X176156905Y-89090476D01*
X175347381Y-89090476D01*
X175347381Y-88709524D02*
X175347381Y-88090476D01*
X175728333Y-88423810D01*
X175728333Y-88280952D01*
X175775952Y-88185714D01*
X175823571Y-88138095D01*
X175918810Y-88090476D01*
X176156905Y-88090476D01*
X176252143Y-88138095D01*
X176299762Y-88185714D01*
X176347381Y-88280952D01*
X176347381Y-88566667D01*
X176299762Y-88661905D01*
X176252143Y-88709524D01*
X154392381Y-89661905D02*
X155201905Y-89661905D01*
X155297143Y-89614286D01*
X155344762Y-89566667D01*
X155392381Y-89471429D01*
X155392381Y-89280952D01*
X155344762Y-89185714D01*
X155297143Y-89138095D01*
X155201905Y-89090476D01*
X154392381Y-89090476D01*
X154725714Y-88185714D02*
X155392381Y-88185714D01*
X154344762Y-88423810D02*
X155059048Y-88661905D01*
X155059048Y-88042857D01*
X191436038Y-70483781D02*
X191436038Y-71293305D01*
X191483657Y-71388543D01*
X191531276Y-71436162D01*
X191626514Y-71483781D01*
X191816991Y-71483781D01*
X191912229Y-71436162D01*
X191959848Y-71388543D01*
X192007467Y-71293305D01*
X192007467Y-70483781D01*
X192959848Y-70483781D02*
X192483657Y-70483781D01*
X192436038Y-70959971D01*
X192483657Y-70912352D01*
X192578895Y-70864733D01*
X192816991Y-70864733D01*
X192912229Y-70912352D01*
X192959848Y-70959971D01*
X193007467Y-71055210D01*
X193007467Y-71293305D01*
X192959848Y-71388543D01*
X192912229Y-71436162D01*
X192816991Y-71483781D01*
X192578895Y-71483781D01*
X192483657Y-71436162D01*
X192436038Y-71388543D01*
X143811667Y-93908571D02*
X143478333Y-93908571D01*
X143478333Y-94432381D02*
X143478333Y-93432381D01*
X143954524Y-93432381D01*
X144859286Y-94432381D02*
X144287857Y-94432381D01*
X144573571Y-94432381D02*
X144573571Y-93432381D01*
X144478333Y-93575238D01*
X144383095Y-93670476D01*
X144287857Y-93718095D01*
X131953095Y-99512381D02*
X131953095Y-98512381D01*
X131953095Y-98988571D02*
X132524524Y-98988571D01*
X132524524Y-99512381D02*
X132524524Y-98512381D01*
X133524524Y-99512381D02*
X132953095Y-99512381D01*
X133238809Y-99512381D02*
X133238809Y-98512381D01*
X133143571Y-98655238D01*
X133048333Y-98750476D01*
X132953095Y-98798095D01*
X203962095Y-99512381D02*
X203962095Y-98512381D01*
X203962095Y-98988571D02*
X204533524Y-98988571D01*
X204533524Y-99512381D02*
X204533524Y-98512381D01*
X204962095Y-98607619D02*
X205009714Y-98560000D01*
X205104952Y-98512381D01*
X205343048Y-98512381D01*
X205438286Y-98560000D01*
X205485905Y-98607619D01*
X205533524Y-98702857D01*
X205533524Y-98798095D01*
X205485905Y-98940952D01*
X204914476Y-99512381D01*
X205533524Y-99512381D01*
X207518095Y-44092381D02*
X207518095Y-43092381D01*
X207518095Y-43568571D02*
X208089524Y-43568571D01*
X208089524Y-44092381D02*
X208089524Y-43092381D01*
X208470476Y-43092381D02*
X209089524Y-43092381D01*
X208756190Y-43473333D01*
X208899048Y-43473333D01*
X208994286Y-43520952D01*
X209041905Y-43568571D01*
X209089524Y-43663810D01*
X209089524Y-43901905D01*
X209041905Y-43997143D01*
X208994286Y-44044762D01*
X208899048Y-44092381D01*
X208613333Y-44092381D01*
X208518095Y-44044762D01*
X208470476Y-43997143D01*
X128778095Y-44092381D02*
X128778095Y-43092381D01*
X128778095Y-43568571D02*
X129349524Y-43568571D01*
X129349524Y-44092381D02*
X129349524Y-43092381D01*
X130254286Y-43425714D02*
X130254286Y-44092381D01*
X130016190Y-43044762D02*
X129778095Y-43759048D01*
X130397143Y-43759048D01*
X185432143Y-47962143D02*
X185384524Y-48009762D01*
X185241667Y-48057381D01*
X185146429Y-48057381D01*
X185003571Y-48009762D01*
X184908333Y-47914524D01*
X184860714Y-47819286D01*
X184813095Y-47628810D01*
X184813095Y-47485952D01*
X184860714Y-47295476D01*
X184908333Y-47200238D01*
X185003571Y-47105000D01*
X185146429Y-47057381D01*
X185241667Y-47057381D01*
X185384524Y-47105000D01*
X185432143Y-47152619D01*
X185813095Y-47152619D02*
X185860714Y-47105000D01*
X185955952Y-47057381D01*
X186194048Y-47057381D01*
X186289286Y-47105000D01*
X186336905Y-47152619D01*
X186384524Y-47247857D01*
X186384524Y-47343095D01*
X186336905Y-47485952D01*
X185765476Y-48057381D01*
X186384524Y-48057381D01*
X186860714Y-48057381D02*
X187051190Y-48057381D01*
X187146429Y-48009762D01*
X187194048Y-47962143D01*
X187289286Y-47819286D01*
X187336905Y-47628810D01*
X187336905Y-47247857D01*
X187289286Y-47152619D01*
X187241667Y-47105000D01*
X187146429Y-47057381D01*
X186955952Y-47057381D01*
X186860714Y-47105000D01*
X186813095Y-47152619D01*
X186765476Y-47247857D01*
X186765476Y-47485952D01*
X186813095Y-47581190D01*
X186860714Y-47628810D01*
X186955952Y-47676429D01*
X187146429Y-47676429D01*
X187241667Y-47628810D01*
X187289286Y-47581190D01*
X187336905Y-47485952D01*
X203577143Y-83172857D02*
X203624762Y-83220476D01*
X203672381Y-83363333D01*
X203672381Y-83458571D01*
X203624762Y-83601429D01*
X203529524Y-83696667D01*
X203434286Y-83744286D01*
X203243810Y-83791905D01*
X203100952Y-83791905D01*
X202910476Y-83744286D01*
X202815238Y-83696667D01*
X202720000Y-83601429D01*
X202672381Y-83458571D01*
X202672381Y-83363333D01*
X202720000Y-83220476D01*
X202767619Y-83172857D01*
X202672381Y-82839524D02*
X202672381Y-82220476D01*
X203053333Y-82553810D01*
X203053333Y-82410952D01*
X203100952Y-82315714D01*
X203148571Y-82268095D01*
X203243810Y-82220476D01*
X203481905Y-82220476D01*
X203577143Y-82268095D01*
X203624762Y-82315714D01*
X203672381Y-82410952D01*
X203672381Y-82696667D01*
X203624762Y-82791905D01*
X203577143Y-82839524D01*
X202672381Y-81601429D02*
X202672381Y-81506190D01*
X202720000Y-81410952D01*
X202767619Y-81363333D01*
X202862857Y-81315714D01*
X203053333Y-81268095D01*
X203291429Y-81268095D01*
X203481905Y-81315714D01*
X203577143Y-81363333D01*
X203624762Y-81410952D01*
X203672381Y-81506190D01*
X203672381Y-81601429D01*
X203624762Y-81696667D01*
X203577143Y-81744286D01*
X203481905Y-81791905D01*
X203291429Y-81839524D01*
X203053333Y-81839524D01*
X202862857Y-81791905D01*
X202767619Y-81744286D01*
X202720000Y-81696667D01*
X202672381Y-81601429D01*
X129357381Y-70588095D02*
X128357381Y-70588095D01*
X128357381Y-70207142D01*
X128405000Y-70111904D01*
X128452619Y-70064285D01*
X128547857Y-70016666D01*
X128690714Y-70016666D01*
X128785952Y-70064285D01*
X128833571Y-70111904D01*
X128881190Y-70207142D01*
X128881190Y-70588095D01*
X129357381Y-69064285D02*
X129357381Y-69635714D01*
X129357381Y-69350000D02*
X128357381Y-69350000D01*
X128500238Y-69445238D01*
X128595476Y-69540476D01*
X128643095Y-69635714D01*
X145375334Y-58061981D02*
X144899143Y-58061981D01*
X144899143Y-57061981D01*
X146232477Y-58061981D02*
X145661048Y-58061981D01*
X145946762Y-58061981D02*
X145946762Y-57061981D01*
X145851524Y-57204838D01*
X145756286Y-57300076D01*
X145661048Y-57347695D01*
X191274381Y-53824095D02*
X190274381Y-53824095D01*
X190274381Y-53443142D01*
X190322000Y-53347904D01*
X190369619Y-53300285D01*
X190464857Y-53252666D01*
X190607714Y-53252666D01*
X190702952Y-53300285D01*
X190750571Y-53347904D01*
X190798190Y-53443142D01*
X190798190Y-53824095D01*
X190274381Y-52919333D02*
X190274381Y-52300285D01*
X190655333Y-52633619D01*
X190655333Y-52490761D01*
X190702952Y-52395523D01*
X190750571Y-52347904D01*
X190845810Y-52300285D01*
X191083905Y-52300285D01*
X191179143Y-52347904D01*
X191226762Y-52395523D01*
X191274381Y-52490761D01*
X191274381Y-52776476D01*
X191226762Y-52871714D01*
X191179143Y-52919333D01*
M02*
