G04 #@! TF.FileFunction,Copper,L2,Bot,Signal*
%FSLAX46Y46*%
G04 Gerber Fmt 4.6, Leading zero omitted, Abs format (unit mm)*
G04 Created by KiCad (PCBNEW (after 2015-mar-04 BZR unknown)-product) date Fri 03 Jul 2015 12:36:09 AM EDT*
%MOMM*%
G01*
G04 APERTURE LIST*
%ADD10C,0.150000*%
%ADD11R,1.727200X2.032000*%
%ADD12O,1.727200X2.032000*%
%ADD13C,2.700000*%
%ADD14C,1.300000*%
%ADD15R,1.300000X1.300000*%
%ADD16C,2.300000*%
%ADD17C,1.700000*%
%ADD18C,0.600000*%
%ADD19C,1.600000*%
%ADD20C,0.700000*%
%ADD21C,0.250000*%
%ADD22C,0.254000*%
G04 APERTURE END LIST*
D10*
D11*
X197612000Y-59690000D03*
D12*
X195072000Y-59690000D03*
X192532000Y-59690000D03*
D13*
X129540000Y-99060000D03*
X208280000Y-99060000D03*
X208280000Y-40640000D03*
X129540000Y-40640000D03*
D14*
X187325000Y-52705000D03*
D15*
X184825000Y-52705000D03*
D14*
X198120000Y-83780000D03*
D15*
X198120000Y-81280000D03*
D16*
X131445000Y-52070000D03*
X131445000Y-57150000D03*
X131445000Y-62230000D03*
X131445000Y-67310000D03*
X131445000Y-72390000D03*
X131445000Y-77470000D03*
X131445000Y-82550000D03*
X131445000Y-87630000D03*
D17*
X195072000Y-54836000D03*
X195072000Y-51336000D03*
D18*
X185420000Y-69850000D03*
X180975000Y-57150000D03*
X192176400Y-63144400D03*
X195376800Y-77470000D03*
D19*
X161290000Y-59690000D03*
X155575000Y-45085000D03*
X165735000Y-86995000D03*
D18*
X152806400Y-49530000D03*
X156464000Y-66040000D03*
X173228000Y-49022000D03*
X176885600Y-65938400D03*
X173177200Y-72237600D03*
X176834800Y-89052400D03*
X152247600Y-72390000D03*
X155905200Y-89103200D03*
D19*
X181473552Y-69928548D03*
X159867600Y-70510400D03*
D20*
X155575000Y-45085000D02*
X161290000Y-50800000D01*
X161290000Y-50800000D02*
X161290000Y-59690000D01*
X142875000Y-92710000D02*
X160020000Y-92710000D01*
X160020000Y-92710000D02*
X165735000Y-86995000D01*
X135890000Y-85725000D02*
X142875000Y-92710000D01*
X131445000Y-72390000D02*
X135890000Y-76835000D01*
X135890000Y-76835000D02*
X135890000Y-85725000D01*
D21*
X156464000Y-66040000D02*
X156464000Y-53187600D01*
X156464000Y-53187600D02*
X152806400Y-49530000D01*
X176885600Y-65938400D02*
X176885600Y-52679600D01*
X176885600Y-52679600D02*
X173228000Y-49022000D01*
X176834800Y-89052400D02*
X176834800Y-75895200D01*
X176834800Y-75895200D02*
X173177200Y-72237600D01*
X155905200Y-89103200D02*
X155905200Y-76047600D01*
X155905200Y-76047600D02*
X152247600Y-72390000D01*
D20*
X159867600Y-70510400D02*
X180891700Y-70510400D01*
X180891700Y-70510400D02*
X181473552Y-69928548D01*
D22*
G36*
X210110000Y-98290931D02*
X209963782Y-97937057D01*
X209405880Y-97378181D01*
X208676573Y-97075346D01*
X207886891Y-97074657D01*
X207157057Y-97376218D01*
X206598181Y-97934120D01*
X206295346Y-98663427D01*
X206294657Y-99453109D01*
X206596218Y-100182943D01*
X207154120Y-100741819D01*
X207510979Y-100890000D01*
X199417440Y-100890000D01*
X199417440Y-81930000D01*
X199417440Y-80630000D01*
X199370463Y-80387877D01*
X199230673Y-80175073D01*
X199123040Y-80102419D01*
X199123040Y-60706000D01*
X199123040Y-58674000D01*
X199076063Y-58431877D01*
X198936273Y-58219073D01*
X198725240Y-58076623D01*
X198475600Y-58026560D01*
X196748400Y-58026560D01*
X196568718Y-58061422D01*
X196568718Y-51564721D01*
X196542315Y-50974542D01*
X196367259Y-50551920D01*
X196115958Y-50471647D01*
X195936353Y-50651252D01*
X195936353Y-50292042D01*
X195856080Y-50040741D01*
X195300721Y-49839282D01*
X194710542Y-49865685D01*
X194287920Y-50040741D01*
X194207647Y-50292042D01*
X195072000Y-51156395D01*
X195936353Y-50292042D01*
X195936353Y-50651252D01*
X195251605Y-51336000D01*
X196115958Y-52200353D01*
X196367259Y-52120080D01*
X196568718Y-51564721D01*
X196568718Y-58061422D01*
X196557257Y-58063645D01*
X196557257Y-54541911D01*
X196331656Y-53995914D01*
X195936353Y-53599920D01*
X195936353Y-52379958D01*
X195072000Y-51515605D01*
X194892395Y-51695210D01*
X194892395Y-51336000D01*
X194028042Y-50471647D01*
X193776741Y-50551920D01*
X193575282Y-51107279D01*
X193601685Y-51697458D01*
X193776741Y-52120080D01*
X194028042Y-52200353D01*
X194892395Y-51336000D01*
X194892395Y-51695210D01*
X194207647Y-52379958D01*
X194287920Y-52631259D01*
X194843279Y-52832718D01*
X195433458Y-52806315D01*
X195856080Y-52631259D01*
X195936353Y-52379958D01*
X195936353Y-53599920D01*
X195914283Y-53577812D01*
X195368681Y-53351258D01*
X194777911Y-53350743D01*
X194231914Y-53576344D01*
X193813812Y-53993717D01*
X193587258Y-54539319D01*
X193586743Y-55130089D01*
X193812344Y-55676086D01*
X194229717Y-56094188D01*
X194775319Y-56320742D01*
X195366089Y-56321257D01*
X195912086Y-56095656D01*
X196330188Y-55678283D01*
X196556742Y-55132681D01*
X196557257Y-54541911D01*
X196557257Y-58063645D01*
X196506277Y-58073537D01*
X196293473Y-58213327D01*
X196151023Y-58424360D01*
X196143281Y-58462962D01*
X196131670Y-58445585D01*
X195645489Y-58120729D01*
X195072000Y-58006655D01*
X194498511Y-58120729D01*
X194012330Y-58445585D01*
X193802000Y-58760365D01*
X193591670Y-58445585D01*
X193105489Y-58120729D01*
X192532000Y-58006655D01*
X191958511Y-58120729D01*
X191472330Y-58445585D01*
X191147474Y-58931766D01*
X191033400Y-59505255D01*
X191033400Y-59874745D01*
X191147474Y-60448234D01*
X191472330Y-60934415D01*
X191958511Y-61259271D01*
X192532000Y-61373345D01*
X193105489Y-61259271D01*
X193591670Y-60934415D01*
X193802000Y-60619634D01*
X194012330Y-60934415D01*
X194498511Y-61259271D01*
X195072000Y-61373345D01*
X195645489Y-61259271D01*
X196131670Y-60934415D01*
X196142215Y-60918632D01*
X196147937Y-60948123D01*
X196287727Y-61160927D01*
X196498760Y-61303377D01*
X196748400Y-61353440D01*
X198475600Y-61353440D01*
X198717723Y-61306463D01*
X198930527Y-61166673D01*
X199072977Y-60955640D01*
X199123040Y-60706000D01*
X199123040Y-80102419D01*
X199019640Y-80032623D01*
X198770000Y-79982560D01*
X197470000Y-79982560D01*
X197227877Y-80029537D01*
X197015073Y-80169327D01*
X196872623Y-80380360D01*
X196822560Y-80630000D01*
X196822560Y-81930000D01*
X196869537Y-82172123D01*
X197009327Y-82384927D01*
X197220360Y-82527377D01*
X197470000Y-82577440D01*
X197665459Y-82577440D01*
X197393057Y-82689995D01*
X197031265Y-83051155D01*
X196835223Y-83523276D01*
X196834777Y-84034481D01*
X197029995Y-84506943D01*
X197391155Y-84868735D01*
X197863276Y-85064777D01*
X198374481Y-85065223D01*
X198846943Y-84870005D01*
X199208735Y-84508845D01*
X199404777Y-84036724D01*
X199405223Y-83525519D01*
X199210005Y-83053057D01*
X198848845Y-82691265D01*
X198574724Y-82577440D01*
X198770000Y-82577440D01*
X199012123Y-82530463D01*
X199224927Y-82390673D01*
X199367377Y-82179640D01*
X199417440Y-81930000D01*
X199417440Y-100890000D01*
X188622622Y-100890000D01*
X188622622Y-52885922D01*
X188593083Y-52375572D01*
X188454611Y-52041271D01*
X188224016Y-51985590D01*
X188044410Y-52165195D01*
X188044410Y-51805984D01*
X187988729Y-51575389D01*
X187505922Y-51407378D01*
X186995572Y-51436917D01*
X186661271Y-51575389D01*
X186605590Y-51805984D01*
X187325000Y-52525395D01*
X188044410Y-51805984D01*
X188044410Y-52165195D01*
X187504605Y-52705000D01*
X188224016Y-53424410D01*
X188454611Y-53368729D01*
X188622622Y-52885922D01*
X188622622Y-100890000D01*
X188044410Y-100890000D01*
X188044410Y-53604016D01*
X187325000Y-52884605D01*
X187145395Y-53064210D01*
X187145395Y-52705000D01*
X186425984Y-51985590D01*
X186195389Y-52041271D01*
X186122440Y-52250901D01*
X186122440Y-52055000D01*
X186075463Y-51812877D01*
X185935673Y-51600073D01*
X185724640Y-51457623D01*
X185475000Y-51407560D01*
X184175000Y-51407560D01*
X183932877Y-51454537D01*
X183720073Y-51594327D01*
X183577623Y-51805360D01*
X183527560Y-52055000D01*
X183527560Y-53355000D01*
X183574537Y-53597123D01*
X183714327Y-53809927D01*
X183925360Y-53952377D01*
X184175000Y-54002440D01*
X185475000Y-54002440D01*
X185717123Y-53955463D01*
X185929927Y-53815673D01*
X186072377Y-53604640D01*
X186122440Y-53355000D01*
X186122440Y-53192614D01*
X186195389Y-53368729D01*
X186425984Y-53424410D01*
X187145395Y-52705000D01*
X187145395Y-53064210D01*
X186605590Y-53604016D01*
X186661271Y-53834611D01*
X187144078Y-54002622D01*
X187654428Y-53973083D01*
X187988729Y-53834611D01*
X188044410Y-53604016D01*
X188044410Y-100890000D01*
X182908800Y-100890000D01*
X182908800Y-69644361D01*
X182690795Y-69116748D01*
X182287475Y-68712724D01*
X181760243Y-68493798D01*
X181189365Y-68493300D01*
X180661752Y-68711305D01*
X180257728Y-69114625D01*
X180087159Y-69525400D01*
X177820762Y-69525400D01*
X177820762Y-65753233D01*
X177678717Y-65409457D01*
X177645600Y-65376282D01*
X177645600Y-52679600D01*
X177587748Y-52388761D01*
X177423001Y-52142199D01*
X174163122Y-48882320D01*
X174163162Y-48836833D01*
X174021117Y-48493057D01*
X173758327Y-48229808D01*
X173414799Y-48087162D01*
X173042833Y-48086838D01*
X172699057Y-48228883D01*
X172435808Y-48491673D01*
X172293162Y-48835201D01*
X172292838Y-49207167D01*
X172434883Y-49550943D01*
X172697673Y-49814192D01*
X173041201Y-49956838D01*
X173088076Y-49956878D01*
X176125600Y-52994402D01*
X176125600Y-65375937D01*
X176093408Y-65408073D01*
X175950762Y-65751601D01*
X175950438Y-66123567D01*
X176092483Y-66467343D01*
X176355273Y-66730592D01*
X176698801Y-66873238D01*
X177070767Y-66873562D01*
X177414543Y-66731517D01*
X177677792Y-66468727D01*
X177820438Y-66125199D01*
X177820762Y-65753233D01*
X177820762Y-69525400D01*
X162725248Y-69525400D01*
X162725248Y-59405813D01*
X162507243Y-58878200D01*
X162275000Y-58645551D01*
X162275000Y-50800000D01*
X162200021Y-50423057D01*
X161986501Y-50103500D01*
X157009963Y-45126963D01*
X157010248Y-44800813D01*
X156792243Y-44273200D01*
X156388923Y-43869176D01*
X155861691Y-43650250D01*
X155290813Y-43649752D01*
X154763200Y-43867757D01*
X154359176Y-44271077D01*
X154140250Y-44798309D01*
X154139752Y-45369187D01*
X154357757Y-45896800D01*
X154761077Y-46300824D01*
X155288309Y-46519750D01*
X155617036Y-46520036D01*
X160305000Y-51208000D01*
X160305000Y-58645655D01*
X160074176Y-58876077D01*
X159855250Y-59403309D01*
X159854752Y-59974187D01*
X160072757Y-60501800D01*
X160476077Y-60905824D01*
X161003309Y-61124750D01*
X161574187Y-61125248D01*
X162101800Y-60907243D01*
X162505824Y-60503923D01*
X162724750Y-59976691D01*
X162725248Y-59405813D01*
X162725248Y-69525400D01*
X160911944Y-69525400D01*
X160681523Y-69294576D01*
X160154291Y-69075650D01*
X159583413Y-69075152D01*
X159055800Y-69293157D01*
X158651776Y-69696477D01*
X158432850Y-70223709D01*
X158432352Y-70794587D01*
X158650357Y-71322200D01*
X159053677Y-71726224D01*
X159580909Y-71945150D01*
X160151787Y-71945648D01*
X160679400Y-71727643D01*
X160912048Y-71495400D01*
X172597251Y-71495400D01*
X172385008Y-71707273D01*
X172242362Y-72050801D01*
X172242038Y-72422767D01*
X172384083Y-72766543D01*
X172646873Y-73029792D01*
X172990401Y-73172438D01*
X173037276Y-73172478D01*
X176074800Y-76210002D01*
X176074800Y-88489937D01*
X176042608Y-88522073D01*
X175899962Y-88865601D01*
X175899638Y-89237567D01*
X176041683Y-89581343D01*
X176304473Y-89844592D01*
X176648001Y-89987238D01*
X177019967Y-89987562D01*
X177363743Y-89845517D01*
X177626992Y-89582727D01*
X177769638Y-89239199D01*
X177769962Y-88867233D01*
X177627917Y-88523457D01*
X177594800Y-88490282D01*
X177594800Y-75895200D01*
X177536948Y-75604361D01*
X177372201Y-75357799D01*
X174112322Y-72097920D01*
X174112362Y-72052433D01*
X173970317Y-71708657D01*
X173757431Y-71495400D01*
X180891700Y-71495400D01*
X181268643Y-71420421D01*
X181353915Y-71363443D01*
X181757739Y-71363796D01*
X182285352Y-71145791D01*
X182689376Y-70742471D01*
X182908302Y-70215239D01*
X182908800Y-69644361D01*
X182908800Y-100890000D01*
X167170248Y-100890000D01*
X167170248Y-86710813D01*
X166952243Y-86183200D01*
X166548923Y-85779176D01*
X166021691Y-85560250D01*
X165450813Y-85559752D01*
X164923200Y-85777757D01*
X164519176Y-86181077D01*
X164300250Y-86708309D01*
X164299963Y-87037035D01*
X159611999Y-91725000D01*
X157399162Y-91725000D01*
X157399162Y-65854833D01*
X157257117Y-65511057D01*
X157224000Y-65477882D01*
X157224000Y-53187600D01*
X157166148Y-52896761D01*
X157001401Y-52650199D01*
X153741522Y-49390320D01*
X153741562Y-49344833D01*
X153599517Y-49001057D01*
X153336727Y-48737808D01*
X152993199Y-48595162D01*
X152621233Y-48594838D01*
X152277457Y-48736883D01*
X152014208Y-48999673D01*
X151871562Y-49343201D01*
X151871238Y-49715167D01*
X152013283Y-50058943D01*
X152276073Y-50322192D01*
X152619601Y-50464838D01*
X152666476Y-50464878D01*
X155704000Y-53502402D01*
X155704000Y-65477537D01*
X155671808Y-65509673D01*
X155529162Y-65853201D01*
X155528838Y-66225167D01*
X155670883Y-66568943D01*
X155933673Y-66832192D01*
X156277201Y-66974838D01*
X156649167Y-66975162D01*
X156992943Y-66833117D01*
X157256192Y-66570327D01*
X157398838Y-66226799D01*
X157399162Y-65854833D01*
X157399162Y-91725000D01*
X156840362Y-91725000D01*
X156840362Y-88918033D01*
X156698317Y-88574257D01*
X156665200Y-88541082D01*
X156665200Y-76047600D01*
X156607348Y-75756761D01*
X156442601Y-75510199D01*
X153182722Y-72250320D01*
X153182762Y-72204833D01*
X153040717Y-71861057D01*
X152777927Y-71597808D01*
X152434399Y-71455162D01*
X152062433Y-71454838D01*
X151718657Y-71596883D01*
X151455408Y-71859673D01*
X151312762Y-72203201D01*
X151312438Y-72575167D01*
X151454483Y-72918943D01*
X151717273Y-73182192D01*
X152060801Y-73324838D01*
X152107676Y-73324878D01*
X155145200Y-76362402D01*
X155145200Y-88540737D01*
X155113008Y-88572873D01*
X154970362Y-88916401D01*
X154970038Y-89288367D01*
X155112083Y-89632143D01*
X155374873Y-89895392D01*
X155718401Y-90038038D01*
X156090367Y-90038362D01*
X156434143Y-89896317D01*
X156697392Y-89633527D01*
X156840038Y-89289999D01*
X156840362Y-88918033D01*
X156840362Y-91725000D01*
X143283000Y-91725000D01*
X136875000Y-85317000D01*
X136875000Y-76835000D01*
X136800021Y-76458057D01*
X136586500Y-76138500D01*
X133240018Y-72792018D01*
X133240018Y-67610337D01*
X133240018Y-57450337D01*
X133230309Y-57132823D01*
X133230309Y-51716499D01*
X132959132Y-51060200D01*
X132457441Y-50557633D01*
X131801616Y-50285311D01*
X131091499Y-50284691D01*
X130435200Y-50555868D01*
X129932633Y-51057559D01*
X129660311Y-51713384D01*
X129659691Y-52423501D01*
X129930868Y-53079800D01*
X130432559Y-53582367D01*
X131088384Y-53854689D01*
X131798501Y-53855309D01*
X132454800Y-53584132D01*
X132957367Y-53082441D01*
X133229689Y-52426616D01*
X133230309Y-51716499D01*
X133230309Y-57132823D01*
X133218314Y-56740552D01*
X132988446Y-56185601D01*
X132706025Y-56068581D01*
X132526419Y-56248186D01*
X132526419Y-55888975D01*
X132409399Y-55606554D01*
X131745337Y-55354982D01*
X131035552Y-55376686D01*
X130480601Y-55606554D01*
X130363581Y-55888975D01*
X131445000Y-56970395D01*
X132526419Y-55888975D01*
X132526419Y-56248186D01*
X131624605Y-57150000D01*
X132706025Y-58231419D01*
X132988446Y-58114399D01*
X133240018Y-57450337D01*
X133240018Y-67610337D01*
X133230309Y-67292823D01*
X133230309Y-61876499D01*
X132959132Y-61220200D01*
X132526419Y-60786731D01*
X132526419Y-58411025D01*
X131445000Y-57329605D01*
X131265395Y-57509210D01*
X131265395Y-57150000D01*
X130183975Y-56068581D01*
X129901554Y-56185601D01*
X129649982Y-56849663D01*
X129671686Y-57559448D01*
X129901554Y-58114399D01*
X130183975Y-58231419D01*
X131265395Y-57150000D01*
X131265395Y-57509210D01*
X130363581Y-58411025D01*
X130480601Y-58693446D01*
X131144663Y-58945018D01*
X131854448Y-58923314D01*
X132409399Y-58693446D01*
X132526419Y-58411025D01*
X132526419Y-60786731D01*
X132457441Y-60717633D01*
X131801616Y-60445311D01*
X131091499Y-60444691D01*
X130435200Y-60715868D01*
X129932633Y-61217559D01*
X129660311Y-61873384D01*
X129659691Y-62583501D01*
X129930868Y-63239800D01*
X130432559Y-63742367D01*
X131088384Y-64014689D01*
X131798501Y-64015309D01*
X132454800Y-63744132D01*
X132957367Y-63242441D01*
X133229689Y-62586616D01*
X133230309Y-61876499D01*
X133230309Y-67292823D01*
X133218314Y-66900552D01*
X132988446Y-66345601D01*
X132706025Y-66228581D01*
X132526419Y-66408186D01*
X132526419Y-66048975D01*
X132409399Y-65766554D01*
X131745337Y-65514982D01*
X131035552Y-65536686D01*
X130480601Y-65766554D01*
X130363581Y-66048975D01*
X131445000Y-67130395D01*
X132526419Y-66048975D01*
X132526419Y-66408186D01*
X131624605Y-67310000D01*
X132706025Y-68391419D01*
X132988446Y-68274399D01*
X133240018Y-67610337D01*
X133240018Y-72792018D01*
X133219398Y-72771398D01*
X133229689Y-72746616D01*
X133230309Y-72036499D01*
X132959132Y-71380200D01*
X132526419Y-70946731D01*
X132526419Y-68571025D01*
X131445000Y-67489605D01*
X131265395Y-67669210D01*
X131265395Y-67310000D01*
X130183975Y-66228581D01*
X129901554Y-66345601D01*
X129649982Y-67009663D01*
X129671686Y-67719448D01*
X129901554Y-68274399D01*
X130183975Y-68391419D01*
X131265395Y-67310000D01*
X131265395Y-67669210D01*
X130363581Y-68571025D01*
X130480601Y-68853446D01*
X131144663Y-69105018D01*
X131854448Y-69083314D01*
X132409399Y-68853446D01*
X132526419Y-68571025D01*
X132526419Y-70946731D01*
X132457441Y-70877633D01*
X131801616Y-70605311D01*
X131091499Y-70604691D01*
X130435200Y-70875868D01*
X129932633Y-71377559D01*
X129660311Y-72033384D01*
X129659691Y-72743501D01*
X129930868Y-73399800D01*
X130432559Y-73902367D01*
X131088384Y-74174689D01*
X131798501Y-74175309D01*
X131825962Y-74163962D01*
X134905000Y-77243000D01*
X134905000Y-85725000D01*
X134979979Y-86101943D01*
X135193500Y-86421500D01*
X142178500Y-93406500D01*
X142498057Y-93620021D01*
X142875000Y-93695000D01*
X160020000Y-93695000D01*
X160396943Y-93620021D01*
X160716500Y-93406500D01*
X165693037Y-88429963D01*
X166019187Y-88430248D01*
X166546800Y-88212243D01*
X166950824Y-87808923D01*
X167169750Y-87281691D01*
X167170248Y-86710813D01*
X167170248Y-100890000D01*
X133240018Y-100890000D01*
X133240018Y-87930337D01*
X133240018Y-77770337D01*
X133218314Y-77060552D01*
X132988446Y-76505601D01*
X132706025Y-76388581D01*
X132526419Y-76568186D01*
X132526419Y-76208975D01*
X132409399Y-75926554D01*
X131745337Y-75674982D01*
X131035552Y-75696686D01*
X130480601Y-75926554D01*
X130363581Y-76208975D01*
X131445000Y-77290395D01*
X132526419Y-76208975D01*
X132526419Y-76568186D01*
X131624605Y-77470000D01*
X132706025Y-78551419D01*
X132988446Y-78434399D01*
X133240018Y-77770337D01*
X133240018Y-87930337D01*
X133230309Y-87612823D01*
X133230309Y-82196499D01*
X132959132Y-81540200D01*
X132526419Y-81106731D01*
X132526419Y-78731025D01*
X131445000Y-77649605D01*
X131265395Y-77829210D01*
X131265395Y-77470000D01*
X130183975Y-76388581D01*
X129901554Y-76505601D01*
X129649982Y-77169663D01*
X129671686Y-77879448D01*
X129901554Y-78434399D01*
X130183975Y-78551419D01*
X131265395Y-77470000D01*
X131265395Y-77829210D01*
X130363581Y-78731025D01*
X130480601Y-79013446D01*
X131144663Y-79265018D01*
X131854448Y-79243314D01*
X132409399Y-79013446D01*
X132526419Y-78731025D01*
X132526419Y-81106731D01*
X132457441Y-81037633D01*
X131801616Y-80765311D01*
X131091499Y-80764691D01*
X130435200Y-81035868D01*
X129932633Y-81537559D01*
X129660311Y-82193384D01*
X129659691Y-82903501D01*
X129930868Y-83559800D01*
X130432559Y-84062367D01*
X131088384Y-84334689D01*
X131798501Y-84335309D01*
X132454800Y-84064132D01*
X132957367Y-83562441D01*
X133229689Y-82906616D01*
X133230309Y-82196499D01*
X133230309Y-87612823D01*
X133218314Y-87220552D01*
X132988446Y-86665601D01*
X132706025Y-86548581D01*
X132526419Y-86728186D01*
X132526419Y-86368975D01*
X132409399Y-86086554D01*
X131745337Y-85834982D01*
X131035552Y-85856686D01*
X130480601Y-86086554D01*
X130363581Y-86368975D01*
X131445000Y-87450395D01*
X132526419Y-86368975D01*
X132526419Y-86728186D01*
X131624605Y-87630000D01*
X132706025Y-88711419D01*
X132988446Y-88594399D01*
X133240018Y-87930337D01*
X133240018Y-100890000D01*
X132526419Y-100890000D01*
X132526419Y-88891025D01*
X131445000Y-87809605D01*
X131265395Y-87989210D01*
X131265395Y-87630000D01*
X130183975Y-86548581D01*
X129901554Y-86665601D01*
X129649982Y-87329663D01*
X129671686Y-88039448D01*
X129901554Y-88594399D01*
X130183975Y-88711419D01*
X131265395Y-87630000D01*
X131265395Y-87989210D01*
X130363581Y-88891025D01*
X130480601Y-89173446D01*
X131144663Y-89425018D01*
X131854448Y-89403314D01*
X132409399Y-89173446D01*
X132526419Y-88891025D01*
X132526419Y-100890000D01*
X130309068Y-100890000D01*
X130662943Y-100743782D01*
X131221819Y-100185880D01*
X131524654Y-99456573D01*
X131525343Y-98666891D01*
X131223782Y-97937057D01*
X130665880Y-97378181D01*
X129936573Y-97075346D01*
X129146891Y-97074657D01*
X128417057Y-97376218D01*
X127858181Y-97934120D01*
X127710000Y-98290979D01*
X127710000Y-41409068D01*
X127856218Y-41762943D01*
X128414120Y-42321819D01*
X129143427Y-42624654D01*
X129933109Y-42625343D01*
X130662943Y-42323782D01*
X131221819Y-41765880D01*
X131524654Y-41036573D01*
X131525343Y-40246891D01*
X131223782Y-39517057D01*
X130665880Y-38958181D01*
X130309020Y-38810000D01*
X135763000Y-38810000D01*
X137160000Y-38810000D01*
X207510931Y-38810000D01*
X207157057Y-38956218D01*
X206598181Y-39514120D01*
X206295346Y-40243427D01*
X206294657Y-41033109D01*
X206596218Y-41762943D01*
X207154120Y-42321819D01*
X207883427Y-42624654D01*
X208673109Y-42625343D01*
X209402943Y-42323782D01*
X209961819Y-41765880D01*
X210110000Y-41409020D01*
X210110000Y-90932000D01*
X210110000Y-98290931D01*
X210110000Y-98290931D01*
G37*
X210110000Y-98290931D02*
X209963782Y-97937057D01*
X209405880Y-97378181D01*
X208676573Y-97075346D01*
X207886891Y-97074657D01*
X207157057Y-97376218D01*
X206598181Y-97934120D01*
X206295346Y-98663427D01*
X206294657Y-99453109D01*
X206596218Y-100182943D01*
X207154120Y-100741819D01*
X207510979Y-100890000D01*
X199417440Y-100890000D01*
X199417440Y-81930000D01*
X199417440Y-80630000D01*
X199370463Y-80387877D01*
X199230673Y-80175073D01*
X199123040Y-80102419D01*
X199123040Y-60706000D01*
X199123040Y-58674000D01*
X199076063Y-58431877D01*
X198936273Y-58219073D01*
X198725240Y-58076623D01*
X198475600Y-58026560D01*
X196748400Y-58026560D01*
X196568718Y-58061422D01*
X196568718Y-51564721D01*
X196542315Y-50974542D01*
X196367259Y-50551920D01*
X196115958Y-50471647D01*
X195936353Y-50651252D01*
X195936353Y-50292042D01*
X195856080Y-50040741D01*
X195300721Y-49839282D01*
X194710542Y-49865685D01*
X194287920Y-50040741D01*
X194207647Y-50292042D01*
X195072000Y-51156395D01*
X195936353Y-50292042D01*
X195936353Y-50651252D01*
X195251605Y-51336000D01*
X196115958Y-52200353D01*
X196367259Y-52120080D01*
X196568718Y-51564721D01*
X196568718Y-58061422D01*
X196557257Y-58063645D01*
X196557257Y-54541911D01*
X196331656Y-53995914D01*
X195936353Y-53599920D01*
X195936353Y-52379958D01*
X195072000Y-51515605D01*
X194892395Y-51695210D01*
X194892395Y-51336000D01*
X194028042Y-50471647D01*
X193776741Y-50551920D01*
X193575282Y-51107279D01*
X193601685Y-51697458D01*
X193776741Y-52120080D01*
X194028042Y-52200353D01*
X194892395Y-51336000D01*
X194892395Y-51695210D01*
X194207647Y-52379958D01*
X194287920Y-52631259D01*
X194843279Y-52832718D01*
X195433458Y-52806315D01*
X195856080Y-52631259D01*
X195936353Y-52379958D01*
X195936353Y-53599920D01*
X195914283Y-53577812D01*
X195368681Y-53351258D01*
X194777911Y-53350743D01*
X194231914Y-53576344D01*
X193813812Y-53993717D01*
X193587258Y-54539319D01*
X193586743Y-55130089D01*
X193812344Y-55676086D01*
X194229717Y-56094188D01*
X194775319Y-56320742D01*
X195366089Y-56321257D01*
X195912086Y-56095656D01*
X196330188Y-55678283D01*
X196556742Y-55132681D01*
X196557257Y-54541911D01*
X196557257Y-58063645D01*
X196506277Y-58073537D01*
X196293473Y-58213327D01*
X196151023Y-58424360D01*
X196143281Y-58462962D01*
X196131670Y-58445585D01*
X195645489Y-58120729D01*
X195072000Y-58006655D01*
X194498511Y-58120729D01*
X194012330Y-58445585D01*
X193802000Y-58760365D01*
X193591670Y-58445585D01*
X193105489Y-58120729D01*
X192532000Y-58006655D01*
X191958511Y-58120729D01*
X191472330Y-58445585D01*
X191147474Y-58931766D01*
X191033400Y-59505255D01*
X191033400Y-59874745D01*
X191147474Y-60448234D01*
X191472330Y-60934415D01*
X191958511Y-61259271D01*
X192532000Y-61373345D01*
X193105489Y-61259271D01*
X193591670Y-60934415D01*
X193802000Y-60619634D01*
X194012330Y-60934415D01*
X194498511Y-61259271D01*
X195072000Y-61373345D01*
X195645489Y-61259271D01*
X196131670Y-60934415D01*
X196142215Y-60918632D01*
X196147937Y-60948123D01*
X196287727Y-61160927D01*
X196498760Y-61303377D01*
X196748400Y-61353440D01*
X198475600Y-61353440D01*
X198717723Y-61306463D01*
X198930527Y-61166673D01*
X199072977Y-60955640D01*
X199123040Y-60706000D01*
X199123040Y-80102419D01*
X199019640Y-80032623D01*
X198770000Y-79982560D01*
X197470000Y-79982560D01*
X197227877Y-80029537D01*
X197015073Y-80169327D01*
X196872623Y-80380360D01*
X196822560Y-80630000D01*
X196822560Y-81930000D01*
X196869537Y-82172123D01*
X197009327Y-82384927D01*
X197220360Y-82527377D01*
X197470000Y-82577440D01*
X197665459Y-82577440D01*
X197393057Y-82689995D01*
X197031265Y-83051155D01*
X196835223Y-83523276D01*
X196834777Y-84034481D01*
X197029995Y-84506943D01*
X197391155Y-84868735D01*
X197863276Y-85064777D01*
X198374481Y-85065223D01*
X198846943Y-84870005D01*
X199208735Y-84508845D01*
X199404777Y-84036724D01*
X199405223Y-83525519D01*
X199210005Y-83053057D01*
X198848845Y-82691265D01*
X198574724Y-82577440D01*
X198770000Y-82577440D01*
X199012123Y-82530463D01*
X199224927Y-82390673D01*
X199367377Y-82179640D01*
X199417440Y-81930000D01*
X199417440Y-100890000D01*
X188622622Y-100890000D01*
X188622622Y-52885922D01*
X188593083Y-52375572D01*
X188454611Y-52041271D01*
X188224016Y-51985590D01*
X188044410Y-52165195D01*
X188044410Y-51805984D01*
X187988729Y-51575389D01*
X187505922Y-51407378D01*
X186995572Y-51436917D01*
X186661271Y-51575389D01*
X186605590Y-51805984D01*
X187325000Y-52525395D01*
X188044410Y-51805984D01*
X188044410Y-52165195D01*
X187504605Y-52705000D01*
X188224016Y-53424410D01*
X188454611Y-53368729D01*
X188622622Y-52885922D01*
X188622622Y-100890000D01*
X188044410Y-100890000D01*
X188044410Y-53604016D01*
X187325000Y-52884605D01*
X187145395Y-53064210D01*
X187145395Y-52705000D01*
X186425984Y-51985590D01*
X186195389Y-52041271D01*
X186122440Y-52250901D01*
X186122440Y-52055000D01*
X186075463Y-51812877D01*
X185935673Y-51600073D01*
X185724640Y-51457623D01*
X185475000Y-51407560D01*
X184175000Y-51407560D01*
X183932877Y-51454537D01*
X183720073Y-51594327D01*
X183577623Y-51805360D01*
X183527560Y-52055000D01*
X183527560Y-53355000D01*
X183574537Y-53597123D01*
X183714327Y-53809927D01*
X183925360Y-53952377D01*
X184175000Y-54002440D01*
X185475000Y-54002440D01*
X185717123Y-53955463D01*
X185929927Y-53815673D01*
X186072377Y-53604640D01*
X186122440Y-53355000D01*
X186122440Y-53192614D01*
X186195389Y-53368729D01*
X186425984Y-53424410D01*
X187145395Y-52705000D01*
X187145395Y-53064210D01*
X186605590Y-53604016D01*
X186661271Y-53834611D01*
X187144078Y-54002622D01*
X187654428Y-53973083D01*
X187988729Y-53834611D01*
X188044410Y-53604016D01*
X188044410Y-100890000D01*
X182908800Y-100890000D01*
X182908800Y-69644361D01*
X182690795Y-69116748D01*
X182287475Y-68712724D01*
X181760243Y-68493798D01*
X181189365Y-68493300D01*
X180661752Y-68711305D01*
X180257728Y-69114625D01*
X180087159Y-69525400D01*
X177820762Y-69525400D01*
X177820762Y-65753233D01*
X177678717Y-65409457D01*
X177645600Y-65376282D01*
X177645600Y-52679600D01*
X177587748Y-52388761D01*
X177423001Y-52142199D01*
X174163122Y-48882320D01*
X174163162Y-48836833D01*
X174021117Y-48493057D01*
X173758327Y-48229808D01*
X173414799Y-48087162D01*
X173042833Y-48086838D01*
X172699057Y-48228883D01*
X172435808Y-48491673D01*
X172293162Y-48835201D01*
X172292838Y-49207167D01*
X172434883Y-49550943D01*
X172697673Y-49814192D01*
X173041201Y-49956838D01*
X173088076Y-49956878D01*
X176125600Y-52994402D01*
X176125600Y-65375937D01*
X176093408Y-65408073D01*
X175950762Y-65751601D01*
X175950438Y-66123567D01*
X176092483Y-66467343D01*
X176355273Y-66730592D01*
X176698801Y-66873238D01*
X177070767Y-66873562D01*
X177414543Y-66731517D01*
X177677792Y-66468727D01*
X177820438Y-66125199D01*
X177820762Y-65753233D01*
X177820762Y-69525400D01*
X162725248Y-69525400D01*
X162725248Y-59405813D01*
X162507243Y-58878200D01*
X162275000Y-58645551D01*
X162275000Y-50800000D01*
X162200021Y-50423057D01*
X161986501Y-50103500D01*
X157009963Y-45126963D01*
X157010248Y-44800813D01*
X156792243Y-44273200D01*
X156388923Y-43869176D01*
X155861691Y-43650250D01*
X155290813Y-43649752D01*
X154763200Y-43867757D01*
X154359176Y-44271077D01*
X154140250Y-44798309D01*
X154139752Y-45369187D01*
X154357757Y-45896800D01*
X154761077Y-46300824D01*
X155288309Y-46519750D01*
X155617036Y-46520036D01*
X160305000Y-51208000D01*
X160305000Y-58645655D01*
X160074176Y-58876077D01*
X159855250Y-59403309D01*
X159854752Y-59974187D01*
X160072757Y-60501800D01*
X160476077Y-60905824D01*
X161003309Y-61124750D01*
X161574187Y-61125248D01*
X162101800Y-60907243D01*
X162505824Y-60503923D01*
X162724750Y-59976691D01*
X162725248Y-59405813D01*
X162725248Y-69525400D01*
X160911944Y-69525400D01*
X160681523Y-69294576D01*
X160154291Y-69075650D01*
X159583413Y-69075152D01*
X159055800Y-69293157D01*
X158651776Y-69696477D01*
X158432850Y-70223709D01*
X158432352Y-70794587D01*
X158650357Y-71322200D01*
X159053677Y-71726224D01*
X159580909Y-71945150D01*
X160151787Y-71945648D01*
X160679400Y-71727643D01*
X160912048Y-71495400D01*
X172597251Y-71495400D01*
X172385008Y-71707273D01*
X172242362Y-72050801D01*
X172242038Y-72422767D01*
X172384083Y-72766543D01*
X172646873Y-73029792D01*
X172990401Y-73172438D01*
X173037276Y-73172478D01*
X176074800Y-76210002D01*
X176074800Y-88489937D01*
X176042608Y-88522073D01*
X175899962Y-88865601D01*
X175899638Y-89237567D01*
X176041683Y-89581343D01*
X176304473Y-89844592D01*
X176648001Y-89987238D01*
X177019967Y-89987562D01*
X177363743Y-89845517D01*
X177626992Y-89582727D01*
X177769638Y-89239199D01*
X177769962Y-88867233D01*
X177627917Y-88523457D01*
X177594800Y-88490282D01*
X177594800Y-75895200D01*
X177536948Y-75604361D01*
X177372201Y-75357799D01*
X174112322Y-72097920D01*
X174112362Y-72052433D01*
X173970317Y-71708657D01*
X173757431Y-71495400D01*
X180891700Y-71495400D01*
X181268643Y-71420421D01*
X181353915Y-71363443D01*
X181757739Y-71363796D01*
X182285352Y-71145791D01*
X182689376Y-70742471D01*
X182908302Y-70215239D01*
X182908800Y-69644361D01*
X182908800Y-100890000D01*
X167170248Y-100890000D01*
X167170248Y-86710813D01*
X166952243Y-86183200D01*
X166548923Y-85779176D01*
X166021691Y-85560250D01*
X165450813Y-85559752D01*
X164923200Y-85777757D01*
X164519176Y-86181077D01*
X164300250Y-86708309D01*
X164299963Y-87037035D01*
X159611999Y-91725000D01*
X157399162Y-91725000D01*
X157399162Y-65854833D01*
X157257117Y-65511057D01*
X157224000Y-65477882D01*
X157224000Y-53187600D01*
X157166148Y-52896761D01*
X157001401Y-52650199D01*
X153741522Y-49390320D01*
X153741562Y-49344833D01*
X153599517Y-49001057D01*
X153336727Y-48737808D01*
X152993199Y-48595162D01*
X152621233Y-48594838D01*
X152277457Y-48736883D01*
X152014208Y-48999673D01*
X151871562Y-49343201D01*
X151871238Y-49715167D01*
X152013283Y-50058943D01*
X152276073Y-50322192D01*
X152619601Y-50464838D01*
X152666476Y-50464878D01*
X155704000Y-53502402D01*
X155704000Y-65477537D01*
X155671808Y-65509673D01*
X155529162Y-65853201D01*
X155528838Y-66225167D01*
X155670883Y-66568943D01*
X155933673Y-66832192D01*
X156277201Y-66974838D01*
X156649167Y-66975162D01*
X156992943Y-66833117D01*
X157256192Y-66570327D01*
X157398838Y-66226799D01*
X157399162Y-65854833D01*
X157399162Y-91725000D01*
X156840362Y-91725000D01*
X156840362Y-88918033D01*
X156698317Y-88574257D01*
X156665200Y-88541082D01*
X156665200Y-76047600D01*
X156607348Y-75756761D01*
X156442601Y-75510199D01*
X153182722Y-72250320D01*
X153182762Y-72204833D01*
X153040717Y-71861057D01*
X152777927Y-71597808D01*
X152434399Y-71455162D01*
X152062433Y-71454838D01*
X151718657Y-71596883D01*
X151455408Y-71859673D01*
X151312762Y-72203201D01*
X151312438Y-72575167D01*
X151454483Y-72918943D01*
X151717273Y-73182192D01*
X152060801Y-73324838D01*
X152107676Y-73324878D01*
X155145200Y-76362402D01*
X155145200Y-88540737D01*
X155113008Y-88572873D01*
X154970362Y-88916401D01*
X154970038Y-89288367D01*
X155112083Y-89632143D01*
X155374873Y-89895392D01*
X155718401Y-90038038D01*
X156090367Y-90038362D01*
X156434143Y-89896317D01*
X156697392Y-89633527D01*
X156840038Y-89289999D01*
X156840362Y-88918033D01*
X156840362Y-91725000D01*
X143283000Y-91725000D01*
X136875000Y-85317000D01*
X136875000Y-76835000D01*
X136800021Y-76458057D01*
X136586500Y-76138500D01*
X133240018Y-72792018D01*
X133240018Y-67610337D01*
X133240018Y-57450337D01*
X133230309Y-57132823D01*
X133230309Y-51716499D01*
X132959132Y-51060200D01*
X132457441Y-50557633D01*
X131801616Y-50285311D01*
X131091499Y-50284691D01*
X130435200Y-50555868D01*
X129932633Y-51057559D01*
X129660311Y-51713384D01*
X129659691Y-52423501D01*
X129930868Y-53079800D01*
X130432559Y-53582367D01*
X131088384Y-53854689D01*
X131798501Y-53855309D01*
X132454800Y-53584132D01*
X132957367Y-53082441D01*
X133229689Y-52426616D01*
X133230309Y-51716499D01*
X133230309Y-57132823D01*
X133218314Y-56740552D01*
X132988446Y-56185601D01*
X132706025Y-56068581D01*
X132526419Y-56248186D01*
X132526419Y-55888975D01*
X132409399Y-55606554D01*
X131745337Y-55354982D01*
X131035552Y-55376686D01*
X130480601Y-55606554D01*
X130363581Y-55888975D01*
X131445000Y-56970395D01*
X132526419Y-55888975D01*
X132526419Y-56248186D01*
X131624605Y-57150000D01*
X132706025Y-58231419D01*
X132988446Y-58114399D01*
X133240018Y-57450337D01*
X133240018Y-67610337D01*
X133230309Y-67292823D01*
X133230309Y-61876499D01*
X132959132Y-61220200D01*
X132526419Y-60786731D01*
X132526419Y-58411025D01*
X131445000Y-57329605D01*
X131265395Y-57509210D01*
X131265395Y-57150000D01*
X130183975Y-56068581D01*
X129901554Y-56185601D01*
X129649982Y-56849663D01*
X129671686Y-57559448D01*
X129901554Y-58114399D01*
X130183975Y-58231419D01*
X131265395Y-57150000D01*
X131265395Y-57509210D01*
X130363581Y-58411025D01*
X130480601Y-58693446D01*
X131144663Y-58945018D01*
X131854448Y-58923314D01*
X132409399Y-58693446D01*
X132526419Y-58411025D01*
X132526419Y-60786731D01*
X132457441Y-60717633D01*
X131801616Y-60445311D01*
X131091499Y-60444691D01*
X130435200Y-60715868D01*
X129932633Y-61217559D01*
X129660311Y-61873384D01*
X129659691Y-62583501D01*
X129930868Y-63239800D01*
X130432559Y-63742367D01*
X131088384Y-64014689D01*
X131798501Y-64015309D01*
X132454800Y-63744132D01*
X132957367Y-63242441D01*
X133229689Y-62586616D01*
X133230309Y-61876499D01*
X133230309Y-67292823D01*
X133218314Y-66900552D01*
X132988446Y-66345601D01*
X132706025Y-66228581D01*
X132526419Y-66408186D01*
X132526419Y-66048975D01*
X132409399Y-65766554D01*
X131745337Y-65514982D01*
X131035552Y-65536686D01*
X130480601Y-65766554D01*
X130363581Y-66048975D01*
X131445000Y-67130395D01*
X132526419Y-66048975D01*
X132526419Y-66408186D01*
X131624605Y-67310000D01*
X132706025Y-68391419D01*
X132988446Y-68274399D01*
X133240018Y-67610337D01*
X133240018Y-72792018D01*
X133219398Y-72771398D01*
X133229689Y-72746616D01*
X133230309Y-72036499D01*
X132959132Y-71380200D01*
X132526419Y-70946731D01*
X132526419Y-68571025D01*
X131445000Y-67489605D01*
X131265395Y-67669210D01*
X131265395Y-67310000D01*
X130183975Y-66228581D01*
X129901554Y-66345601D01*
X129649982Y-67009663D01*
X129671686Y-67719448D01*
X129901554Y-68274399D01*
X130183975Y-68391419D01*
X131265395Y-67310000D01*
X131265395Y-67669210D01*
X130363581Y-68571025D01*
X130480601Y-68853446D01*
X131144663Y-69105018D01*
X131854448Y-69083314D01*
X132409399Y-68853446D01*
X132526419Y-68571025D01*
X132526419Y-70946731D01*
X132457441Y-70877633D01*
X131801616Y-70605311D01*
X131091499Y-70604691D01*
X130435200Y-70875868D01*
X129932633Y-71377559D01*
X129660311Y-72033384D01*
X129659691Y-72743501D01*
X129930868Y-73399800D01*
X130432559Y-73902367D01*
X131088384Y-74174689D01*
X131798501Y-74175309D01*
X131825962Y-74163962D01*
X134905000Y-77243000D01*
X134905000Y-85725000D01*
X134979979Y-86101943D01*
X135193500Y-86421500D01*
X142178500Y-93406500D01*
X142498057Y-93620021D01*
X142875000Y-93695000D01*
X160020000Y-93695000D01*
X160396943Y-93620021D01*
X160716500Y-93406500D01*
X165693037Y-88429963D01*
X166019187Y-88430248D01*
X166546800Y-88212243D01*
X166950824Y-87808923D01*
X167169750Y-87281691D01*
X167170248Y-86710813D01*
X167170248Y-100890000D01*
X133240018Y-100890000D01*
X133240018Y-87930337D01*
X133240018Y-77770337D01*
X133218314Y-77060552D01*
X132988446Y-76505601D01*
X132706025Y-76388581D01*
X132526419Y-76568186D01*
X132526419Y-76208975D01*
X132409399Y-75926554D01*
X131745337Y-75674982D01*
X131035552Y-75696686D01*
X130480601Y-75926554D01*
X130363581Y-76208975D01*
X131445000Y-77290395D01*
X132526419Y-76208975D01*
X132526419Y-76568186D01*
X131624605Y-77470000D01*
X132706025Y-78551419D01*
X132988446Y-78434399D01*
X133240018Y-77770337D01*
X133240018Y-87930337D01*
X133230309Y-87612823D01*
X133230309Y-82196499D01*
X132959132Y-81540200D01*
X132526419Y-81106731D01*
X132526419Y-78731025D01*
X131445000Y-77649605D01*
X131265395Y-77829210D01*
X131265395Y-77470000D01*
X130183975Y-76388581D01*
X129901554Y-76505601D01*
X129649982Y-77169663D01*
X129671686Y-77879448D01*
X129901554Y-78434399D01*
X130183975Y-78551419D01*
X131265395Y-77470000D01*
X131265395Y-77829210D01*
X130363581Y-78731025D01*
X130480601Y-79013446D01*
X131144663Y-79265018D01*
X131854448Y-79243314D01*
X132409399Y-79013446D01*
X132526419Y-78731025D01*
X132526419Y-81106731D01*
X132457441Y-81037633D01*
X131801616Y-80765311D01*
X131091499Y-80764691D01*
X130435200Y-81035868D01*
X129932633Y-81537559D01*
X129660311Y-82193384D01*
X129659691Y-82903501D01*
X129930868Y-83559800D01*
X130432559Y-84062367D01*
X131088384Y-84334689D01*
X131798501Y-84335309D01*
X132454800Y-84064132D01*
X132957367Y-83562441D01*
X133229689Y-82906616D01*
X133230309Y-82196499D01*
X133230309Y-87612823D01*
X133218314Y-87220552D01*
X132988446Y-86665601D01*
X132706025Y-86548581D01*
X132526419Y-86728186D01*
X132526419Y-86368975D01*
X132409399Y-86086554D01*
X131745337Y-85834982D01*
X131035552Y-85856686D01*
X130480601Y-86086554D01*
X130363581Y-86368975D01*
X131445000Y-87450395D01*
X132526419Y-86368975D01*
X132526419Y-86728186D01*
X131624605Y-87630000D01*
X132706025Y-88711419D01*
X132988446Y-88594399D01*
X133240018Y-87930337D01*
X133240018Y-100890000D01*
X132526419Y-100890000D01*
X132526419Y-88891025D01*
X131445000Y-87809605D01*
X131265395Y-87989210D01*
X131265395Y-87630000D01*
X130183975Y-86548581D01*
X129901554Y-86665601D01*
X129649982Y-87329663D01*
X129671686Y-88039448D01*
X129901554Y-88594399D01*
X130183975Y-88711419D01*
X131265395Y-87630000D01*
X131265395Y-87989210D01*
X130363581Y-88891025D01*
X130480601Y-89173446D01*
X131144663Y-89425018D01*
X131854448Y-89403314D01*
X132409399Y-89173446D01*
X132526419Y-88891025D01*
X132526419Y-100890000D01*
X130309068Y-100890000D01*
X130662943Y-100743782D01*
X131221819Y-100185880D01*
X131524654Y-99456573D01*
X131525343Y-98666891D01*
X131223782Y-97937057D01*
X130665880Y-97378181D01*
X129936573Y-97075346D01*
X129146891Y-97074657D01*
X128417057Y-97376218D01*
X127858181Y-97934120D01*
X127710000Y-98290979D01*
X127710000Y-41409068D01*
X127856218Y-41762943D01*
X128414120Y-42321819D01*
X129143427Y-42624654D01*
X129933109Y-42625343D01*
X130662943Y-42323782D01*
X131221819Y-41765880D01*
X131524654Y-41036573D01*
X131525343Y-40246891D01*
X131223782Y-39517057D01*
X130665880Y-38958181D01*
X130309020Y-38810000D01*
X135763000Y-38810000D01*
X137160000Y-38810000D01*
X207510931Y-38810000D01*
X207157057Y-38956218D01*
X206598181Y-39514120D01*
X206295346Y-40243427D01*
X206294657Y-41033109D01*
X206596218Y-41762943D01*
X207154120Y-42321819D01*
X207883427Y-42624654D01*
X208673109Y-42625343D01*
X209402943Y-42323782D01*
X209961819Y-41765880D01*
X210110000Y-41409020D01*
X210110000Y-90932000D01*
X210110000Y-98290931D01*
M02*
