M48
;DRILL file {kicad (after 2015-mar-04 BZR unknown)-product} date Fri 03 Jul 2015 12:36:17 AM EDT
;FORMAT={2:4/ absolute / inch / suppress leading zeros}
FMAT,2
INCH,TZ
T1C0.016
T2C0.031
T3C0.040
T4C0.047
T5C0.051
T6C0.055
T7C0.106
%
G90
G05
M72
T1
X59940Y-28500
X60160Y-19500
X61380Y-35080
X61600Y-26000
X68180Y-28440
X68200Y-19300
X69620Y-35060
X69640Y-25960
X71250Y-22500
X73000Y-27500
X75660Y-24860
X76920Y-30500
T2
X72766Y-20750
X73750Y-20750
X78000Y-32000
X78000Y-32984
T3
X75800Y-23500
X76800Y-23500
X77800Y-23500
T4
X76800Y-20211
X76800Y-21589
T5
X51750Y-20500
X51750Y-22500
X51750Y-24500
X51750Y-26500
X51750Y-28500
X51750Y-30500
X51750Y-32500
X51750Y-34500
T6
X61250Y-17750
X62940Y-27760
X63500Y-23500
X65250Y-34250
X71446Y-27531
T7
X51000Y-16000
X51000Y-39000
X82000Y-16000
X82000Y-39000
T0
M30
